<svg width="33" height="33" viewBox="0 0 33 33" fill="none" xmlns="http://www.w3.org/2000/svg">
<path d="M11.5094 24.0614C9.93765 24.0614 8.66357 25.3225 8.66357 26.8781C8.66357 28.4338 9.93771 29.6948 11.5094 29.6948C13.0811 29.6948 14.3552 28.4337 14.3552 26.8781C14.3553 25.3225 13.0811 24.0614 11.5094 24.0614ZM11.5094 28.443C10.6362 28.443 9.92839 27.7424 9.92839 26.8782C9.92839 26.0139 10.6362 25.3133 11.5094 25.3133C12.3826 25.3133 13.0904 26.0139 13.0904 26.8782C13.0904 27.7424 12.3826 28.443 11.5094 28.443Z" fill="black"/>
<path d="M23.525 24.0614C21.9533 24.0614 20.6792 25.3225 20.6792 26.8781C20.6792 28.4338 21.9533 29.6948 23.525 29.6948C25.0967 29.6948 26.3708 28.4337 26.3708 26.8781C26.3708 25.3225 25.0967 24.0614 23.525 24.0614ZM23.525 28.443C22.6518 28.443 21.944 27.7424 21.944 26.8782C21.944 26.0139 22.6518 25.3133 23.525 25.3133C24.3982 25.3133 25.106 26.0139 25.106 26.8782C25.1061 27.7424 24.3982 28.443 23.525 28.443Z" fill="black"/>
<path d="M29.9423 7.6304C29.8106 7.48801 29.6304 7.39887 29.4364 7.38L8.85152 7.09833L8.28236 5.37696C7.88139 4.22625 6.7927 3.4494 5.56298 3.43652H3.44442C3.09514 3.43652 2.81201 3.71676 2.81201 4.06247C2.81201 4.40818 3.09514 4.68841 3.44442 4.68841H5.56298C6.25059 4.70345 6.85607 5.14046 7.08079 5.78383L11.0966 17.7707L10.7804 18.4905C10.4277 19.3906 10.5337 20.4037 11.065 21.2133C11.5912 22.0085 12.4766 22.4993 13.4365 22.5278H25.7369C26.0862 22.5278 26.3693 22.2476 26.3693 21.9019C26.3693 21.5562 26.0862 21.2759 25.7369 21.2759H13.4365C12.8944 21.2625 12.3954 20.9803 12.1084 20.5248C11.8247 20.0749 11.7664 19.5207 11.9503 19.0225L12.2033 18.4592L25.5155 17.0821C26.9777 16.9227 28.1806 15.87 28.5195 14.4531L30.0373 8.16236C30.1057 7.9812 30.0693 7.77747 29.9423 7.6304ZM27.2862 14.1715C27.0809 15.0836 26.2986 15.7564 25.3574 15.8302L12.2033 17.176L9.2626 8.35022L28.6459 8.63189L27.2862 14.1715Z" fill="black"/>
</svg>
