<svg id="Group_24622" data-name="Group 24622" xmlns="http://www.w3.org/2000/svg" width="162" height="162" viewBox="0 0 162 162">
  <path id="Path_23582" data-name="Path 23582" d="M109.32,55.321C77.148,40.9,85.555,51.893,75.108,59.411c-.783,2.182-16.955,22.411-22.869,22.066-7.392-.431-8.249,9.1-3.309,6.882s5.571,7.005,3.81,16.015,20.235,30.344,36.5,10.074,20.5-25.455,26.785-16.537,11.672,7.685,11.145,0-5.518-7.11,6.322-16.434C142.964,74.018,114.341,56.73,109.32,55.321Z" fill="#96d5dd"/>
  <circle id="Ellipse_215" data-name="Ellipse 215" cx="81" cy="81" r="81" fill="#60c8d2"/>
  <path id="Path_23583" data-name="Path 23583" d="M112.889,47.952c-49.38-9.157-64.757,18.876-66.273,34.037,1.813,3.542,3.855,11.061-2.478,12.805-7.916,2.18,2.565,16.67,4.875,11.491s13.915,8.285,22.872,22.348,18.037-12.828,10.206-49.162,28.572,4.548,45.478,15.4,16.4,4.337,6.726-6.884-2.814-2.751-2.053-21.128C132.851,52.16,119.594,48.129,112.889,47.952Z" fill="#96d5dd"/>
  <path id="Path_23584" data-name="Path 23584" d="M18.749,33.612C-2.729,61.573,1.7,92.37,6.592,104.273a9.687,9.687,0,0,1,3.695,10.891c-2.13,7.091,6.942,10.13,5.929,4.812s8.1-3.8,16.462,0,2.026-21.781-13.93-42.3S30.906,60.965,41.036,56.913s7.6-8.358,0-9.624-2.026,0-8.358-13.676C27.613,22.671,21.281,29.053,18.749,33.612Z" fill="#96d5dd"/>
  <path id="Path_23585" data-name="Path 23585" d="M66.267,3.418c-12.281-2.208,1.9,11.154,10.522,18.111,2.07.345,6.245,2.139,6.383,6.554.173,5.52,21.733,11.212,15.524,3.1s4.14-6.382,12.764-8.624-.69-12.937-4.657-17.249-17.076-2.76-19.146-1.9S81.618,6.178,66.267,3.418Z" fill="#96d5dd"/>
  <path id="Path_23586" data-name="Path 23586" d="M98.482,121.909c-.575,2.876.575,3.451,1.15,3.451,9.586.191,28.99.575,29.91.575a1.836,1.836,0,0,0,1.726-1.726c0-.575-2.876-21.282-2.876-23.008,0-1.38-1.534-2.109-2.3-2.3-6.9-.192-20.822-.575-21.283-.575-.575,0-2.3,0-2.876,1.15S99.057,119.033,98.482,121.909Z" fill="#8bb73f"/>
  <path id="Path_23587" data-name="Path 23587" d="M44.256,131.687l2.3-33.937c.46-.92,2.493-.767,3.451-.575l.575,13.805.575,21.282h-2.3c-.959.192-2.991.46-3.451,0A1.826,1.826,0,0,0,44.256,131.687Z" fill="#8bb73f"/>
  <path id="Path_23588" data-name="Path 23588" d="M81.578,130.634l2.876-57.521c.069-1.381,3.48-1.342,5.177-1.15l2.876,55.795v6.327c-3.26-.192-10.009-.69-10.929-1.15S81.194,131.209,81.578,130.634Z" fill="#8bb73f"/>
  <path id="Path_23589" data-name="Path 23589" d="M87.308,58.475c-.92-.46-2.684,2.109-3.451,3.451a7.917,7.917,0,0,1-1.15,1.726c-.575.575,1.15,2.876,1.726,4.6s4.6,0,6.9-.575S92.485,64.8,93.06,62.5c.46-1.841-1.342-3.068-2.3-3.451A9.577,9.577,0,0,1,87.308,58.475Z" fill="#f8d010"/>
  <path id="Path_23590" data-name="Path 23590" d="M50.132,91.122c-1.841-1.381-3.835.575-4.6,1.726a8.114,8.114,0,0,0,1.15,4.026c1.15,1.726,2.876-.575,4.6-1.15S52.433,92.848,50.132,91.122Z" fill="#f8d010"/>
  <path id="Path_23591" data-name="Path 23591" d="M45.407,85.671c0,1.726,1.15,3.451,1.15,4.026h4.026a16.375,16.375,0,0,0,1.15-4.026c0-.92-2.684-10.354-4.026-14.955C46.94,75.126,45.407,84.29,45.407,85.671Z" fill="#8bb73f"/>
  <path id="Path_23592" data-name="Path 23592" d="M43.2,98.889c1.537-.785,2.551-2.594,3.063-2.855l-1.831-3.586a16.381,16.381,0,0,0-4.109.806c-.82.418-8,7.1-11.489,10.386C33.107,102.318,41.967,99.517,43.2,98.889Z" fill="#8bb73f"/>
  <path id="Path_23593" data-name="Path 23593" d="M61.261,94.586c-1.494-.863-3.564-.729-4.062-1.017l-2.013,3.487a16.382,16.382,0,0,0,2.912,3.01c.8.46,10.309,2.852,14.965,3.991C69.626,101.187,62.456,95.277,61.261,94.586Z" fill="#8bb73f"/>
  <path id="Path_23594" data-name="Path 23594" d="M98.326,64.388c.46.46-1.342,2.876-2.3,4.026a16.962,16.962,0,0,0,1.726,3.451c.575.575,23.008,9.779,24.734,10.354a1.755,1.755,0,0,0,2.3-1.15L102.927,63.813C101.2,63.813,97.865,63.928,98.326,64.388Z" fill="#8bb73f"/>
  <path id="Path_23595" data-name="Path 23595" d="M86.276,68.528c-.606.237-2.094-2.384-2.763-3.725A16.97,16.97,0,0,0,79.659,65c-.758.3-18.2,17.141-19.418,18.49a1.755,1.755,0,0,0,.129,2.569L84.954,72.973C85.647,71.393,86.882,68.292,86.276,68.528Z" fill="#8bb73f"/>
  <path id="Path_23596" data-name="Path 23596" d="M88.547,28.151C86.822,36.012,83.37,52.079,83.37,53.46c0,1.3,1.71,3.736,2.708,4.972a36.948,36.948,0,0,0,4.77.781c.92,0,2.3-3.835,2.876-5.752Z" fill="#8bb73f"/>
  <path id="Path_23597" data-name="Path 23597" d="M47.319,36.735c-2.761-1.841-6.519,1.534-8.053,3.451a12.561,12.561,0,0,0,0,8.628c1.726,4.6,7.478,5.177,10.929,4.027a4.589,4.589,0,0,0,3.451-4.027c.192-1.726.46-5.637,0-7.478C53.071,39.036,50.771,39.036,47.319,36.735Z" fill="#f8d010"/>
  <path id="Path_23598" data-name="Path 23598" d="M101.124,131.2l-4.624.3L94.838,88.836c-.034-.7-1.9-3.066-2.562-3.032-.7.034,1.025,2.332,1.059,3.032L94.5,132h-9c.844-25.238,1.538-39.038,3.189-60.16a6.562,6.562,0,0,0,2.665,0l.632,11.633a1.278,1.278,0,0,0,1.281,1.213h.068a1.292,1.292,0,0,0,1.213-1.349l-.615-11.342,1.042,1.913a1.2,1.2,0,0,0,.632.564L120.085,84.5a2.445,2.445,0,0,0,.957.188,2.448,2.448,0,0,0,1.5-4.356l-20.6-16.569a1.252,1.252,0,0,0-.8-.29H96.1a6.385,6.385,0,0,0-2.289-3.126L96.085,56.5a1.31,1.31,0,0,0,.171-.837L92.447,29.494a2.451,2.451,0,0,0-4.851,0L83.786,55.663a1.309,1.309,0,0,0,.171.837l2.272,3.843A6.385,6.385,0,0,0,83.94,63.47H78.9a1.253,1.253,0,0,0-.8.29L57.48,80.329A2.455,2.455,0,0,0,59,84.685a2.648,2.648,0,0,0,.957-.188L84.435,74.47a1.2,1.2,0,0,0,.632-.564l1.059-1.913L83,132l-4.1-.8c-.7,0-2.4.1-2.4.8s1.7,1.761,2.4,1.761h22.223a1.281,1.281,0,1,0,0-2.562ZM88.057,68.867a4.448,4.448,0,0,1-.786-.581l-.034-.034a3.879,3.879,0,0,1-1.11-2.716,3.895,3.895,0,0,1,7.789,0,3.879,3.879,0,0,1-1.11,2.716l-.034.034a3.886,3.886,0,0,1-2.75,1.145A4.047,4.047,0,0,1,88.057,68.867Zm32.267,12.965s-21.916-9.258-23.316-9.549-1.691-3.075-1.691-3.075a6.259,6.259,0,0,0,1.093-3.143l3.733-.53ZM86.4,55.578c-2.152-2.617,3.621-24.939,3.621-24.939s3.451,22.323,3.621,24.939a3.875,3.875,0,0,1-2.187,3.673A6.627,6.627,0,0,0,90,59.079a6.754,6.754,0,0,0-1.452.171S88.552,58.194,86.4,55.578ZM83.035,72.267c1,1.458-23.334,9.566-23.334,9.566s17.828-14.866,19.644-15.8,4.287,0,4.287,0a6.258,6.258,0,0,0,1.093,3.143S82.032,70.809,83.035,72.267Z" fill="#353535"/>
  <path id="Path_23599" data-name="Path 23599" d="M58.4,92.748a1.252,1.252,0,0,0-.8-.29H54.679a4.588,4.588,0,0,0-1.23-1.674l1.264-2.152a1.31,1.31,0,0,0,.171-.837l-2.46-16.911a2.037,2.037,0,0,0-4.031,0l-2.46,16.911a1.31,1.31,0,0,0,.171.837l1.264,2.152a4.587,4.587,0,0,0-1.23,1.674H43.217a1.252,1.252,0,0,0-.8.29l-13.29,10.71a2.037,2.037,0,0,0,1.264,3.621,2.152,2.152,0,0,0,.786-.153l15.8-6.474a1.074,1.074,0,0,0,.342-.223l-.461,7.414a1.275,1.275,0,0,0,2.545.154c-.814-5.577-.725-7.533.547-8.951a1.291,1.291,0,0,0,.256,0c.068,0,.119.017.188.017s.137-.017.188-.017c.085,0,1.606.017,1.691,0l.547,32.353H47.949V112c.051-.7.724-.145,0-1.761s-1.315.5-1.35,1.2L45.386,131.2H43.2a1.281,1.281,0,1,0,0,2.562H57.566a1.281,1.281,0,1,0,0-2.562H55.43l-1.9-30.952a1.435,1.435,0,0,0,.342.205l15.818,6.474a2.085,2.085,0,0,0,.786.153,2.037,2.037,0,0,0,1.264-3.621Zm-7.311,3.416a1.692,1.692,0,0,1-1.332,0l-.256-.1a3.349,3.349,0,0,1-1.7-2.2c0-1.127,1.482-1.656,2.609-1.656a2.056,2.056,0,0,1,2.05,2.05,2.021,2.021,0,0,1-1.144,1.811A.529.529,0,0,1,51.092,96.164ZM47.8,85.8c-.177-1.99,2.609-10.924,2.609-10.924L52.27,87.743l-1.162,1.964a3.625,3.625,0,0,0-1.4,0A8.048,8.048,0,0,1,47.8,85.8ZM32.269,103.635l10.948-9.778,2.665,1.18a4.57,4.57,0,0,0,.6,1.589s-.8-.889-.888,1.623S32.269,103.635,32.269,103.635ZM55.26,98.248l-.888-1.623a4.57,4.57,0,0,0,.6-1.589h2.2S71.743,103.829,70.5,105,55.26,98.248,55.26,98.248Z" fill="#353535"/>
  <path id="Path_23600" data-name="Path 23600" d="M56.575,51.205A9.618,9.618,0,1,0,48,56.466a9.536,9.536,0,0,0,5.6-1.811c.581-.41,2.084-.482,1.674-1.063s-2.6-1.431-3.177-1.021a7.048,7.048,0,0,1-11.171-5.722c0-3.895,5.513-8.774,7.055-7.055s7.055,3.16,7.055,7.055a6.886,6.886,0,0,1-.769,3.194,1.281,1.281,0,0,0,.564,1.725A1.3,1.3,0,0,0,56.575,51.205Z" fill="#353535"/>
  <path id="Path_23601" data-name="Path 23601" d="M48.017,34.994a1.261,1.261,0,0,0,1.264-1.264V28.264a1.264,1.264,0,0,0-2.528,0V33.73A1.261,1.261,0,0,0,48.017,34.994Z" fill="#f8d010"/>
  <path id="Path_23602" data-name="Path 23602" d="M41.816,35.2a1.257,1.257,0,0,0,1.179.786,1.206,1.206,0,0,0,.478-.1,1.262,1.262,0,0,0,.683-1.657l-1.2-2.87a1.267,1.267,0,1,0-2.34.974Z" fill="#f8d010"/>
  <path id="Path_23603" data-name="Path 23603" d="M32.507,41.793l2.887,1.2a1.2,1.2,0,0,0,.478.1,1.271,1.271,0,0,0,.5-2.443l-2.887-1.2a1.267,1.267,0,0,0-.974,2.34Z" fill="#f8d010"/>
  <path id="Path_23604" data-name="Path 23604" d="M37.033,51.376a1.262,1.262,0,0,0-1.657-.683l-2.887,1.2a1.271,1.271,0,0,0,.478,2.443,1.206,1.206,0,0,0,.478-.1l2.887-1.2A1.256,1.256,0,0,0,37.033,51.376Z" fill="#f8d010"/>
  <path id="Path_23605" data-name="Path 23605" d="M41.782,58.5l-1.2,2.887a1.262,1.262,0,0,0,.683,1.657,1.675,1.675,0,0,0,.5.085,1.234,1.234,0,0,0,1.162-.786l1.2-2.887a1.262,1.262,0,0,0-.683-1.657A1.284,1.284,0,0,0,41.782,58.5Z" fill="#f8d010"/>
  <path id="Path_23606" data-name="Path 23606" d="M52.509,57.815a1.262,1.262,0,0,0-.683,1.657l1.2,2.887a1.257,1.257,0,0,0,1.179.786,1.206,1.206,0,0,0,.478-.1,1.262,1.262,0,0,0,.683-1.657l-1.2-2.887A1.285,1.285,0,0,0,52.509,57.815Z" fill="#f8d010"/>
  <path id="Path_23607" data-name="Path 23607" d="M63,54.348a1.234,1.234,0,0,0,1.162-.786,1.262,1.262,0,0,0-.683-1.657l-2.887-1.2a1.267,1.267,0,0,0-.974,2.34l2.887,1.2A1.077,1.077,0,0,0,63,54.348Z" fill="#f8d010"/>
  <path id="Path_23608" data-name="Path 23608" d="M58.966,42.339a1.257,1.257,0,0,0,1.179.786,1.207,1.207,0,0,0,.478-.1l2.887-1.2a1.267,1.267,0,1,0-.974-2.34l-2.887,1.2A1.256,1.256,0,0,0,58.966,42.339Z" fill="#f8d010"/>
  <path id="Path_23609" data-name="Path 23609" d="M52.543,35.9a1.287,1.287,0,0,0,.5.1,1.234,1.234,0,0,0,1.162-.786l1.2-2.887a1.267,1.267,0,1,0-2.34-.974l-1.2,2.887A1.27,1.27,0,0,0,52.543,35.9Z" fill="#f8d010"/>
  <path id="Path_23610" data-name="Path 23610" d="M37.836,38.462a1.253,1.253,0,0,0,.888.359,1.2,1.2,0,0,0,.888-.376,1.268,1.268,0,0,0,0-1.794l-3.861-3.843A1.268,1.268,0,0,0,33.959,34.6Z" fill="#f8d010"/>
  <path id="Path_23611" data-name="Path 23611" d="M29.415,48.1h5.466a1.264,1.264,0,0,0,0-2.528H29.415a1.264,1.264,0,1,0,0,2.528Z" fill="#f8d010"/>
  <path id="Path_23612" data-name="Path 23612" d="M34.847,61.249a1.2,1.2,0,0,0,.888-.376L39.6,57.013A1.268,1.268,0,0,0,37.8,55.219l-3.861,3.86a1.273,1.273,0,0,0,.905,2.169Z" fill="#f8d010"/>
  <path id="Path_23613" data-name="Path 23613" d="M46.719,59.985v5.466a1.264,1.264,0,0,0,2.528,0V59.985a1.264,1.264,0,1,0-2.528,0Z" fill="#f8d010"/>
  <path id="Path_23614" data-name="Path 23614" d="M60.23,60.907a1.271,1.271,0,0,0,.888.376,1.2,1.2,0,0,0,.888-.376,1.268,1.268,0,0,0,0-1.794l-3.86-3.861a1.268,1.268,0,0,0-1.794,1.794Z" fill="#f8d010"/>
  <path id="Path_23615" data-name="Path 23615" d="M59.854,46.866a1.261,1.261,0,0,0,1.264,1.264h5.466a1.264,1.264,0,1,0,0-2.528H61.118A1.261,1.261,0,0,0,59.854,46.866Z" fill="#f8d010"/>
  <path id="Path_23616" data-name="Path 23616" d="M57.292,38.855a1.2,1.2,0,0,0,.888-.376l3.861-3.861a1.268,1.268,0,1,0-1.794-1.794l-3.86,3.86a1.273,1.273,0,0,0,.905,2.169Z" fill="#f8d010"/>
  <path id="Path_23617" data-name="Path 23617" d="M135.3,124.332l-3.365-23.2a2.958,2.958,0,0,0-2.921-2.528l-24.376-.723c-1.452,0-1.793,1.817-2,3.252l-3.365,23.2a3.011,3.011,0,0,0,.683,2.357,2.948,2.948,0,0,0,2.238,1.025H112.45L112.5,132h-4c-.7,0-2.03-.18-1.38.48s.581,1.281,1.281,1.281h17.748c.7,0,2.1-.09,2.1-.79s-1.23-1.284-1.93-1.284l-4.2.313v-4.286h4.851c.7,0,1.281-1.281,1.281-1.281s-.58-1.281-1.281-1.281h-.649v-3.878h5.962l.495,3.434a.439.439,0,0,1-.085.307.4.4,0,0,1-.308.137h-1.452s-1.281.581-1.281,1.281a1.291,1.291,0,0,0,1.281,1.281h1.435a2.975,2.975,0,0,0,2.938-3.382Zm-24.478.82v-3.878H116v3.878Zm0-6.457v-4.27H116v4.27ZM116,105.047h-5.176L110.5,100H116Zm2.562-5.547,5.193,1.652v3.895h-5.193ZM116,107.609v4.27h-5.176v-4.27Zm-7.738,4.253h-4.612l.614-4.27h3.981v4.27Zm-4.971,2.563h4.971v4.27h-5.586Zm15.271,0h5.193v4.27h-5.193Zm0-2.563v-4.27h5.193v4.27Zm7.755-4.253h3.98l.615,4.27H126.32ZM130.5,103l-.593,2.047H126.32v-3.895l2.7-1.152C129.207,100,131.6,103.006,130.5,103Zm-25.344-3,3.109,1.152v3.895h-4.612l1.5-3.553C105.19,101.306,104.951,100,105.156,100Zm-3.263,25.015a.34.34,0,0,1-.085-.324v-4.375l6.457.941v3.878H102.2A.372.372,0,0,1,101.893,125.015ZM115.012,132v-4.286h4.544L120,132Zm8.746-6.848h-5.193v-3.878h5.193Zm2.562-6.457v-4.27s6.064-1.425,4.954,0,1.418,5.075,1.418,5.075Z" fill="#353535"/>
  <path id="Path_23618" data-name="Path 23618" d="M109.289,38.547h20.037a1.281,1.281,0,0,0,0-2.562H109.289a3.024,3.024,0,0,1,0-6.047c.7,0,2.358-.5,1.281-1.281s-.58-1.281-1.281-1.281a5.586,5.586,0,0,0,0,11.171Z" fill="#353535"/>
  <path id="Path_23619" data-name="Path 23619" d="M110.109,47.925a5.584,5.584,0,0,0,5.569,5.586,1.281,1.281,0,0,0,0-2.562c-1.657,0-3.456-2.584-3.456-4.258,0-1.657,1.8-1.788,3.456-1.788H132.3a1.281,1.281,0,1,0,0-2.562h-16.62A5.584,5.584,0,0,0,110.109,47.925Z" fill="#353535"/>
</svg>
