<svg id="Group_24621" data-name="Group 24621" xmlns="http://www.w3.org/2000/svg" width="162" height="162" viewBox="0 0 162 162">
  <path id="Path_23570" data-name="Path 23570" d="M109.32,55.321C77.148,40.9,85.555,51.893,75.108,59.411c-.783,2.182-16.955,22.411-22.869,22.066-7.392-.431-8.249,9.1-3.309,6.882s5.571,7.005,3.81,16.015,20.235,30.344,36.5,10.074,20.5-25.455,26.785-16.537,11.672,7.685,11.145,0-5.518-7.11,6.322-16.434C142.964,74.018,114.341,56.73,109.32,55.321Z" fill="#96d5dd"/>
  <circle id="Ellipse_214" data-name="Ellipse 214" cx="81" cy="81" r="81" fill="#60c8d2"/>
  <path id="Path_23571" data-name="Path 23571" d="M112.889,47.952c-49.38-9.157-64.757,18.876-66.273,34.037,1.813,3.542,3.855,11.061-2.478,12.805-7.916,2.18,2.565,16.67,4.875,11.491s13.915,8.285,22.872,22.348,18.037-12.828,10.206-49.162,28.572,4.548,45.478,15.4,16.4,4.337,6.726-6.884-2.814-2.751-2.053-21.128C132.851,52.16,119.594,48.129,112.889,47.952Z" fill="#96d5dd"/>
  <path id="Path_23572" data-name="Path 23572" d="M18.749,33.612C-2.729,61.573,1.7,92.37,6.592,104.273a9.688,9.688,0,0,1,3.695,10.891c-2.13,7.091,6.942,10.13,5.929,4.812s8.1-3.8,16.462,0,2.026-21.781-13.93-42.3S30.906,60.965,41.036,56.913s7.6-8.358,0-9.624-2.026,0-8.358-13.676C27.613,22.671,21.281,29.054,18.749,33.612Z" fill="#96d5dd"/>
  <path id="Path_23573" data-name="Path 23573" d="M66.267,3.418c-12.281-2.208,1.9,11.154,10.522,18.111,2.07.345,6.245,2.139,6.383,6.554.173,5.52,21.733,11.212,15.524,3.1s4.14-6.382,12.764-8.624-.69-12.937-4.657-17.249-17.076-2.76-19.146-1.9S81.618,6.178,66.267,3.418Z" fill="#96d5dd"/>
  <path id="Path_23574" data-name="Path 23574" d="M46.981,38.764c-1.721,0-2.868,2.509-3.226,3.764.358,1.434,1.613,4.517,3.764,5.377a3.662,3.662,0,0,0,4.3-1.076c.179.359,1.291,1.183,4.3,1.613,3.764.538,4.84-3.764,5.377-6.991.43-2.581-2.33-4.3-3.764-4.84A20.092,20.092,0,0,0,52.358,35c-1.613,0-1.075,2.151-1.075,2.689S49.132,38.764,46.981,38.764Z" fill="#f8d010"/>
  <path id="Path_23575" data-name="Path 23575" d="M108.283,39.47c-1.721-.86-3.944,1.792-4.84,3.226a3.352,3.352,0,0,0-.537,2.151c0,1.613,2.688,3.226,3.764,4.3s3.226-.538,5.915-2.151.538-4.3-1.076-5.915S110.434,40.546,108.283,39.47Z" fill="#8bb73f"/>
  <path id="Path_23576" data-name="Path 23576" d="M58.274,120.584l.538-11.83c0-.717.107-2.043.538-1.613s3.406.538,4.84.538l1.075,12.9,2.151.538-3.764,6.991c-.717,1.075-2.258,2.8-2.689,1.075s-3.764-5.736-5.377-7.528Z" fill="#8bb73f"/>
  <path id="Path_23577" data-name="Path 23577" d="M81.934,120.584l.538-11.83c0-.717.108-2.043.538-1.613s3.406.538,4.84.538l1.076,12.9,2.151.538-3.764,6.991c-.717,1.075-2.259,2.8-2.689,1.075s-3.764-5.736-5.377-7.528Z" fill="#8bb73f"/>
  <path id="Path_23578" data-name="Path 23578" d="M100.217,120.584l.538-11.83c0-.717.107-2.043.537-1.613s3.406.538,4.84.538l1.076,12.9,2.151.538-3.765,6.991c-.717,1.075-2.258,2.8-2.688,1.075s-3.764-5.736-5.378-7.528Z" fill="#8bb73f"/>
  <path id="Path_23579" data-name="Path 23579" d="M60.613,51.742c-3.011-1.721-11.651-.359-15.594.538a25.311,25.311,0,0,0-11.83,17.208C31.576,79.7,40.717,85.62,45.019,88.846c3.441,2.581,8.962,1.792,11.292,1.075,4.3-1.29,5.019-.9,4.84-.538,8.6,7.313,19,7.349,23.123,6.453,6.453.43,11.651-4.123,13.443-6.453l3.764.538a14.047,14.047,0,0,0,2.151,5.377c1.613,2.151,3.764,1.076,5.915,0,1.721-.86,4.661.358,5.915,1.076,6.453,0,6.991-2.689,7.529-4.3a6.326,6.326,0,0,0-1.613-6.453c-1.721-1.721-.359-2.868.537-3.226,4.3-3.226,4.3-15.057,3.764-17.208s-2.688-5.915-10.217-11.83S103.1,51.742,100.406,52.28s-3.227-.538-5.915-3.226a9.942,9.942,0,0,0-6.453-2.689C76.853,41.633,65.094,47.978,60.613,51.742Z" fill="#8bb73f"/>
  <path id="Path_23580" data-name="Path 23580" d="M75.99,65.522c-2.151,2.581-2.33,6.811-2.151,8.6L75.99,77.89a13.125,13.125,0,0,0,9.679,2.151c5.377-1.076,5.915-5.377,6.453-8.6s-2.689-6.991-3.764-8.066-4.84-2.151-5.915-2.151S78.679,62.3,75.99,65.522Z" fill="#f8d010"/>
  <path id="Path_23581" data-name="Path 23581" d="M72.792,70.49c.677-4.84-2.405-5.527-4.274-5.527a9.02,9.02,0,0,0,0,18.04c2.023,0,4.014-1.286,4.951-1.791s.936-.5.936-1.58m31.461,5.311c.271,1.3-4.989,1.3-5.49-.017-.248-.083.4-.52,3.835-5.43.641-.917,1.505-1.366,1.655-2.014V75.868c0-1.523-2.514-2.689-4.037-2.689-1.34,0-1.364,2.5-1.613,3.764M91.8,50.638a26,26,0,0,0-27.5,5.984,20.062,20.062,0,0,0-15.838-.111m75.556,31.834c1.476,1.493,5.124-8.237,5.124-13.379a20.028,20.028,0,0,0-20.028-20.028c-2.861,0-5.668,2.648-8.042,1.685s-2.7-4.017-4.078-4.952M43.515,59.51a20.029,20.029,0,0,0,12.74,35.483c2.861,0,7.075-3.6,8.042-1.686s11.2,7.629,18.386,7.629a25.891,25.891,0,0,0,18.386-7.629,19.951,19.951,0,0,0,3.845,1.243M98.1,110.607v-2.876a.935.935,0,0,1,.935-.935h3.954a.935.935,0,0,1,.935.935v12.451h2.362a.934.934,0,0,1,.744,1.5s-5.35,4.848-5.274,6.942-1.115.492-1.489,0l-5.274-6.942a.934.934,0,0,1,.744-1.5H98.1s2.087-5.087-.032-6.135m16.9-68.7a4.816,4.816,0,0,1-4.816,4.816c-2.659,0-5.635-1.743-5.635-4.4s2.976-5.228,5.635-5.228A4.816,4.816,0,0,1,114.97,45.342ZM57.081,37.151C53.737,35,52.7,38.424,51.6,40.316c-.386-.1,3.819-.905-1.209-.153s-4.816,2.156-4.816,4.816a4.815,4.815,0,0,0,7.906,3.693,6.321,6.321,0,0,0,9.917-5.2C63.4,39.981,60.424,39.3,57.081,37.151Zm4.363,83.031V107.731c0-.516.594-1.75.935-.935s3.954,0,3.954,0a.935.935,0,0,1,.935.935v12.451H69.63a.935.935,0,0,1,.744,1.5L65.1,128.624c-.374.492-.911,3.169-1.488,0s-5.274-6.942-5.274-6.942a.934.934,0,0,1,.744-1.5Zm18.327,0V107.731c0-.516,0-1.212.935-.935a18.28,18.28,0,0,0,3.954,0c.516,0,1.907-.542.935.935s0,12.451,0,12.451h2.362a.935.935,0,0,1,.744,1.5s-4.736,5.329-4.616,7.96-1.772-.526-2.146-1.018l-5.92-7.048c-.468-.616.617-1.394,1.39-1.394Zm15.636-46.2a9.02,9.02,0,1,1-18.04,0c0-4.982,4.038-10.483,9.02-10.483S95.407,69,95.407,73.983ZM118.6,86.143c-2.057-.48-5.117,1.487-6.392,3.695a5.621,5.621,0,1,0-1.411,11.062c1.373,0,1.117-1.787,3.606-1.31s2.637,1.31,4.2,1.31c4.075,0,9.047-1.31,7.378-7.378C125.973,89.447,120.651,86.623,118.6,86.143Z" fill="none" stroke="#353535" stroke-linecap="round" stroke-linejoin="round" stroke-width="2"/>
</svg>
