<svg width="274" height="362" viewBox="0 0 274 362" fill="none" xmlns="http://www.w3.org/2000/svg">
<path d="M266.137 153.402L200.294 165.134C196.602 165.792 193.217 162.939 193.242 159.188L194.176 15.4524L194.657 6.27002C231.676 24.2322 262.282 102.974 270.911 146.573C271.548 149.792 269.367 152.827 266.137 153.402Z" stroke="#EDEDED" stroke-width="5"/>
<path d="M38.2405 167.832C35.1854 167.259 27.7001 167.259 22.2008 171.842" stroke="#EDEDED" stroke-width="5"/>
<path d="M27.9288 146.063C26.5922 149.214 24.8355 156.088 28.5017 158.379" stroke="#EDEDED" stroke-width="5"/>
<path d="M6.44885 157.234C10.5543 155.324 19.5671 152.078 22.775 154.37" stroke="#EDEDED" stroke-width="5"/>
<path d="M5.58948 149.214C7.0216 149.214 23.3478 148.069 45.116 175.279" stroke="#EDEDED" stroke-width="5"/>
<path opacity="0.2" d="M81.4918 89.0654V165.541" stroke="#8BB73F" stroke-width="5" stroke-linecap="round"/>
<path opacity="0.2" d="M96.9562 124.581C92.2779 128.305 82.7496 137.585 82.0621 144.917" stroke="#8BB73F" stroke-width="5" stroke-linecap="round"/>
<path opacity="0.2" d="M66.8844 123.436C71.3717 128.018 80.5755 139.017 81.492 146.349" stroke="#8BB73F" stroke-width="5" stroke-linecap="round"/>
<path opacity="0.2" d="M81.777 119.139C84.1638 112.551 90.3124 99.1468 95.8118 98.2303" stroke="#8BB73F" stroke-width="5" stroke-linecap="round"/>
<path opacity="0.2" d="M67.4567 98.2305C72.4213 103.004 82.2361 113.869 81.7779 119.139" stroke="#8BB73F" stroke-width="5" stroke-linecap="round"/>
<path d="M134.765 159.811C136.006 158.284 138.202 153.682 137.057 147.495" stroke="#EDEDED" stroke-width="5"/>
<path d="M142.5 154.656C145.268 153.797 151.78 153.11 155.675 157.234" stroke="#EDEDED" stroke-width="5"/>
<path d="M117.867 175.565C123.882 170.983 139.348 150.933 158.539 148.928" stroke="#EDEDED" stroke-width="5"/>
<path d="M124.74 169.264C129.609 168.214 139.691 167.316 141.066 172.128" stroke="#EDEDED" stroke-width="5"/>
<path d="M-34.7974 353.449V9.13769C-34.7974 5.82399 -32.1111 3.1377 -28.7974 3.1377H33.4262C36.4908 3.1377 39.0322 5.45813 39.7861 8.42849C43.3092 22.3094 55.6773 42.3562 85.5007 40.9457C113.707 39.6116 121.941 22.5974 122.924 10.0427C123.209 6.39987 126.008 3.1377 129.662 3.1377H188.055C191.369 3.1377 194.055 5.82399 194.055 9.1377V353.449C194.055 356.763 191.369 359.449 188.055 359.449H-28.7974C-32.1111 359.449 -34.7974 356.763 -34.7974 353.449Z" stroke="#EDEDED" stroke-width="5"/>
<path d="M-8.64283 139.889C-8.71149 174.94 22.4698 193.371 56.167 189.567C59.3059 189.213 61.4615 186.279 60.8966 183.172C53.1456 140.528 17.3993 132.854 -3.79257 134.611C-6.54455 134.839 -8.63742 137.128 -8.64283 139.889Z" stroke="#EDEDED" stroke-width="5"/>
<path opacity="0.2" d="M78.8135 65.2984C38.4305 95.5529 58.556 147.569 77.3641 175.594C79.6075 178.937 84.4404 178.84 86.6687 175.488C130.873 108.976 99.2978 75.7882 85.2798 65.2542C83.3618 63.8129 80.7336 63.8599 78.8135 65.2984Z" stroke="#8BB73F" stroke-width="5"/>
<path d="M168.572 135.765C133.215 131.084 112.531 161.074 104.438 182.092C103.077 185.628 105.671 189.314 109.459 189.366C155.598 189.993 170.684 160.593 173.08 141.506C173.437 138.668 171.408 136.141 168.572 135.765Z" stroke="#EDEDED" stroke-width="5"/>
</svg>
