<svg width="49" height="49" viewBox="0 0 49 49" fill="none" xmlns="http://www.w3.org/2000/svg">
<path d="M32.4945 17.3468C22.9622 13.0731 25.4533 16.331 22.3578 18.5587C22.1259 19.2052 17.334 25.1992 15.5818 25.0969C13.3917 24.9691 13.1377 27.7927 14.6013 27.136C16.0649 26.4793 16.2521 29.2116 15.7301 31.8813C15.2081 34.5509 21.7255 40.8721 26.5448 34.8661C31.3641 28.8602 32.6185 27.324 34.4812 29.9663C36.3439 32.6087 37.9396 32.2433 37.7836 29.9663C37.6277 27.6894 36.1485 27.8598 39.6566 25.0969C42.4631 22.8867 33.9823 17.7643 32.4945 17.3468Z" fill="#96D5DD"/>
<circle cx="24.1035" cy="24.9551" r="24" fill="#60C8D2"/>
<path d="M33.5524 15.1628C18.9213 12.4495 14.3653 20.7557 13.9161 25.2479C14.4532 26.2973 15.0583 28.5252 13.182 29.042C10.8367 29.6881 13.9421 33.9813 14.6264 32.4467C15.3107 30.9121 18.7493 34.9015 21.4031 39.0683C24.0569 43.2351 26.7474 35.2673 24.427 24.5019C22.1067 13.7365 32.8928 25.8493 37.9022 29.0654C42.9116 32.2814 42.7606 30.3503 39.8951 27.0258C37.0296 23.7013 39.061 26.2108 39.2866 20.7657C39.467 16.4096 35.539 15.2154 33.5524 15.1628Z" fill="#96D5DD"/>
<path d="M5.65903 10.9143C-0.704577 19.1989 0.606237 28.324 2.0571 31.8509C2.63241 32.2261 3.65681 33.3968 3.15188 35.0777C2.52072 37.1789 5.20883 38.0793 4.90866 36.5035C4.6085 34.9276 7.30998 35.3779 9.78635 36.5035C12.2627 37.6291 10.3867 30.0499 5.65903 23.9716C0.931381 17.8932 9.26106 19.0189 12.2627 17.8182C15.2644 16.6175 14.514 15.3418 12.2627 14.9666C10.0115 14.5914 11.6624 14.9666 9.78635 10.9143C8.28552 7.67256 6.40946 9.5636 5.65903 10.9143Z" fill="#96D5DD"/>
<path d="M19.7383 1.96836C16.0994 1.31421 20.3005 5.2733 22.8559 7.33462C23.4693 7.43683 24.7062 7.96833 24.7471 9.27667C24.7982 10.9121 31.1866 12.5986 29.3468 10.1966C27.5069 7.79457 30.5733 8.30564 33.1287 7.64125C35.684 6.97685 32.9243 3.80819 31.7488 2.53052C30.5733 1.25284 26.6892 1.7128 26.0759 1.96836C25.4626 2.22392 24.287 2.78606 19.7383 1.96836Z" fill="#96D5DD"/>
<path d="M13.1145 27.4755C14.0751 32.0043 17.203 32.822 18.6468 32.6648C19.5157 32.7074 22.1252 31.2816 23.3214 30.5634C23.7217 31.0065 25.4057 31.8071 28.9395 31.464C32.4733 31.1209 32.8136 27.061 32.542 25.0739L32.156 23.1011C35.7241 19.2928 34.2717 16.6539 33.0995 15.8105C33.0423 14.5096 32.2589 11.3503 29.5828 9.12017C26.9067 6.89008 22.2983 9.09147 20.3286 10.4709C19.0489 9.78134 15.8171 8.64484 13.1277 9.61557C10.4382 10.5863 11.3407 15.1792 12.1281 17.3543C7.42774 21.1283 10.8272 25.6743 13.1145 27.4755Z" fill="#8BB73F"/>
<path d="M12.3927 17.4538C12.4554 17.7227 12.7241 17.89 12.9931 17.8274C13.262 17.7647 13.4293 17.4959 13.3667 17.227L12.3927 17.4538ZM21.9545 11.7657L21.7104 12.202L21.979 12.3522L22.2341 12.1802L21.9545 11.7657ZM34.6398 17.3404L34.141 17.3747L34.1542 17.567L34.2931 17.7007L34.6398 17.3404ZM33.6195 24.5463L33.25 24.2095L33.0655 24.4119L33.1367 24.6763L33.6195 24.5463ZM33.6047 26.4143C33.6765 26.681 33.9509 26.8389 34.2175 26.7671C34.4842 26.6953 34.6421 26.421 34.5703 26.1543L33.6047 26.4143ZM34.4428 28.9974C34.5072 28.7288 34.3416 28.459 34.073 28.3947C33.8045 28.3304 33.5346 28.496 33.4703 28.7645L34.4428 28.9974ZM24.7842 31.815L25.0109 31.3694L24.7288 31.2258L24.4783 31.4194L24.7842 31.815ZM14.7335 28.5875L15.2158 28.4557L15.1654 28.2712L15.0046 28.1674L14.7335 28.5875ZM14.185 18.8899C14.3926 18.7078 14.4133 18.3919 14.2312 18.1843C14.0492 17.9767 13.7333 17.956 13.5256 18.138L14.185 18.8899ZM20.4909 28.0843C20.2669 28.2459 20.2164 28.5584 20.378 28.7823C20.5396 29.0063 20.8521 29.0568 21.076 28.8952L20.4909 28.0843ZM28.2407 27.2593C28.4793 27.3981 28.7854 27.3173 28.9243 27.0786C29.0632 26.8399 28.9823 26.5339 28.7437 26.395L28.2407 27.2593ZM26.4797 29.2919C26.5986 29.5411 26.897 29.6467 27.1462 29.5278C27.3955 29.4089 27.5011 29.1104 27.3822 28.8612L26.4797 29.2919ZM24.1289 26.4257C23.8532 26.4103 23.6172 26.6214 23.6019 26.8971C23.5865 27.1728 23.7976 27.4088 24.0733 27.4241L24.1289 26.4257ZM28.145 21.6644C27.9404 21.4789 27.6242 21.4944 27.4387 21.6989C27.2532 21.9035 27.2687 22.2197 27.4732 22.4052L28.145 21.6644ZM29.2607 24.7733C29.2607 25.0494 29.4846 25.2733 29.7607 25.2733C30.0368 25.2733 30.2607 25.0494 30.2607 24.7733H29.2607ZM21.2344 23.3216C21.0268 23.5037 21.0061 23.8196 21.1882 24.0272C21.3702 24.2348 21.6861 24.2555 21.8938 24.0734L21.2344 23.3216ZM31.1899 22.4359C31.4654 22.4549 31.7041 22.247 31.7232 21.9715C31.7422 21.6961 31.5343 21.4573 31.2589 21.4383L31.1899 22.4359ZM19.4357 17.4335C19.1631 17.4772 18.9775 17.7337 19.0212 18.0063C19.0649 18.279 19.3214 18.4646 19.5941 18.4208L19.4357 17.4335ZM22.4346 18.5224C22.6553 18.6884 22.9688 18.6439 23.1347 18.4232C23.3006 18.2025 23.2562 17.889 23.0355 17.7231L22.4346 18.5224ZM23.0166 20.8923C23.0338 21.1679 23.2712 21.3774 23.5468 21.3602C23.8224 21.3431 24.0319 21.1057 24.0147 20.8301L23.0166 20.8923ZM20.0653 13.6844C19.8287 13.5421 19.5215 13.6186 19.3792 13.8552C19.2369 14.0919 19.3133 14.3991 19.55 14.5414L20.0653 13.6844ZM17.2706 18.503C16.9945 18.503 16.7706 18.7268 16.7706 19.003C16.7706 19.2791 16.9945 19.503 17.2706 19.503V18.503ZM15.4767 20.9666C15.2108 21.0412 15.0557 21.3172 15.1304 21.5831C15.205 21.849 15.481 22.004 15.7469 21.9294L15.4767 20.9666ZM19.7956 40.0303C19.7956 40.3065 20.0195 40.5303 20.2956 40.5303C20.5718 40.5303 20.7956 40.3065 20.7956 40.0303L19.7956 40.0303ZM29.4145 17.5265C29.6794 17.4482 29.8306 17.1701 29.7524 16.9053C29.6742 16.6405 29.3961 16.4892 29.1312 16.5674L29.4145 17.5265ZM13.3667 17.227C13.2122 16.5634 13.1689 15.6205 13.3231 14.6498C13.4774 13.6786 13.822 12.7248 14.4028 12.0067C14.9722 11.3027 15.7804 10.8077 16.9285 10.7428C18.0965 10.6768 19.6589 11.0544 21.7104 12.202L22.1986 11.3293C20.0542 10.1297 18.299 9.66375 16.872 9.74441C15.425 9.82621 14.361 10.4682 13.6252 11.3779C12.9009 12.2735 12.5075 13.4102 12.3355 14.4929C12.1635 15.576 12.2056 16.6503 12.3927 17.4538L13.3667 17.227ZM22.2341 12.1802C24.8428 10.4213 27.7068 9.7623 29.9368 10.4811C32.1126 11.1825 33.8577 13.2573 34.141 17.3747L35.1386 17.3061C34.8365 12.9147 32.9223 10.3928 30.2436 9.52935C27.619 8.68333 24.4331 9.49139 21.675 11.3511L22.2341 12.1802ZM34.2931 17.7007C35.1091 18.4858 35.6359 19.1299 35.6436 19.9941C35.6514 20.8852 35.1069 22.1721 33.25 24.2095L33.9891 24.8831C35.8761 22.8126 36.6549 21.2789 36.6435 19.9853C36.6319 18.6647 35.7968 17.7597 34.9865 16.9801L34.2931 17.7007ZM33.1367 24.6763L33.6047 26.4143L34.5703 26.1543L34.1023 24.4163L33.1367 24.6763ZM33.4703 28.7645C33.1924 29.9252 32.5358 31.3102 31.2776 32.0431C30.0508 32.7578 28.0957 32.9391 25.0109 31.3694L24.5574 32.2606C27.8152 33.9184 30.1536 33.8552 31.781 32.9072C33.377 31.9775 34.1353 30.2818 34.4428 28.9974L33.4703 28.7645ZM24.4783 31.4194C22.8005 32.7167 20.9137 33.5906 19.2758 33.3732C17.7165 33.1662 16.1649 31.9277 15.2158 28.4557L14.2512 28.7194C15.2538 32.3869 17.0199 34.0825 19.1442 34.3645C21.1899 34.636 23.3525 33.5539 25.09 32.2105L24.4783 31.4194ZM15.0046 28.1674C13.8735 27.4375 12.5085 26.0982 12.0084 24.4722C11.762 23.6712 11.7241 22.7988 12.0261 21.8766C12.3294 20.9504 12.9868 19.9407 14.185 18.8899L13.5256 18.138C12.2259 19.278 11.4472 20.4313 11.0758 21.5653C10.7031 22.7033 10.7518 23.7881 11.0526 24.7662C11.647 26.6986 13.2191 28.2053 14.4624 29.0077L15.0046 28.1674ZM21.076 28.8952C21.8573 28.3314 23.1316 27.5925 24.4896 27.1673C25.8622 26.7376 27.2122 26.6607 28.2407 27.2593L28.7437 26.395C27.3522 25.5852 25.661 25.7527 24.1908 26.213C22.706 26.6779 21.3359 27.4745 20.4909 28.0843L21.076 28.8952ZM27.3822 28.8612C27.1754 28.4279 26.7795 27.8555 26.2416 27.3757C25.7037 26.896 24.9825 26.4732 24.1289 26.4257L24.0733 27.4241C24.6248 27.4548 25.1397 27.7329 25.576 28.122C26.0122 28.5111 26.3286 28.9754 26.4797 29.2919L27.3822 28.8612ZM27.4732 22.4052C27.8148 22.715 28.2779 23.1431 28.6548 23.6017C28.8427 23.8304 28.9993 24.055 29.107 24.2648C29.2165 24.4779 29.2607 24.647 29.2607 24.7733H30.2607C30.2607 24.43 30.1464 24.0996 29.9966 23.808C29.8452 23.5131 29.6419 23.2279 29.4274 22.9668C28.9991 22.4457 28.4865 21.9741 28.145 21.6644L27.4732 22.4052ZM21.8938 24.0734C22.199 23.8057 23.112 23.2933 24.6862 22.8988C26.2424 22.5089 28.4095 22.2437 31.1899 22.4359L31.2589 21.4383C28.3797 21.2392 26.107 21.5119 24.4431 21.9288C22.7971 22.3413 21.7097 22.9047 21.2344 23.3216L21.8938 24.0734ZM19.5941 18.4208C19.9794 18.3591 20.5994 18.2938 21.1905 18.3C21.4861 18.3031 21.7612 18.3239 21.99 18.3671C22.2288 18.4122 22.3688 18.473 22.4346 18.5224L23.0355 17.7231C22.789 17.5378 22.472 17.4405 22.1755 17.3845C21.869 17.3266 21.5307 17.3035 21.2009 17.3C20.5414 17.2932 19.8636 17.3648 19.4357 17.4335L19.5941 18.4208ZM24.0147 20.8301C23.9624 19.9916 23.7053 18.6565 23.1063 17.3128C22.5072 15.9687 21.5476 14.5758 20.0653 13.6844L19.55 14.5414C20.7999 15.2931 21.6455 16.4919 22.193 17.72C22.7406 18.9485 22.9713 20.166 23.0166 20.8923L24.0147 20.8301ZM21.6718 25.5112C21.571 24.3832 21.2496 22.6857 20.5996 21.2536C19.9653 19.8562 18.9153 18.503 17.2706 18.503V19.503C18.28 19.503 19.084 20.334 19.689 21.6669C20.2782 22.9651 20.5814 24.5439 20.6757 25.6002L21.6718 25.5112ZM15.7469 21.9294C16.1694 21.8109 16.8376 21.5943 17.4845 21.3253C18.1083 21.066 18.796 20.7249 19.1858 20.3341L18.4779 19.6278C18.2433 19.863 17.7275 20.1413 17.1006 20.402C16.4968 20.653 15.8673 20.857 15.4767 20.9666L15.7469 21.9294ZM20.7956 40.0303C20.7956 33.9816 20.7271 29.0059 21.7897 25.1885C22.3165 23.2958 23.1157 21.7157 24.3219 20.4461C25.527 19.1777 27.1652 18.1909 29.4145 17.5265L29.1312 16.5674C26.7456 17.2722 24.9441 18.3393 23.5969 19.7573C22.2508 21.1742 21.385 22.9132 20.8263 24.9204C19.7178 28.9027 19.7956 34.0494 19.7956 40.0303L20.7956 40.0303Z" fill="#353535"/>
</svg>
