<svg width="49" height="49" viewBox="0 0 49 49" fill="none" xmlns="http://www.w3.org/2000/svg">
<path d="M32.4945 17.347C22.9622 13.0733 25.4533 16.3313 22.3578 18.559C22.1259 19.2055 17.334 25.1994 15.5818 25.0972C13.3917 24.9694 13.1377 27.7929 14.6013 27.1362C16.0649 26.4795 16.2521 29.2119 15.7301 31.8815C15.2081 34.5511 21.7255 40.8723 26.5448 34.8664C31.3641 28.8605 32.6185 27.3243 34.4812 29.9666C36.3439 32.6089 37.9396 32.2436 37.7836 29.9666C37.6277 27.6896 36.1485 27.86 39.6566 25.0972C42.4631 22.8869 33.9823 17.7645 32.4945 17.347Z" fill="#96D5DD"/>
<circle cx="24.1035" cy="24.9551" r="24" fill="#60C8D2"/>
<path d="M33.5524 15.1629C18.9213 12.4497 14.3653 20.7558 13.9161 25.248C14.4532 26.2974 15.0583 28.5253 13.182 29.0422C10.8367 29.6882 13.9421 33.9814 14.6264 32.4468C15.3107 30.9122 18.7493 34.9016 21.4031 39.0684C24.0569 43.2352 26.7474 35.2675 24.427 24.502C22.1067 13.7366 32.8928 25.8495 37.9022 29.0655C42.9116 32.2815 42.7606 30.3504 39.8951 27.0259C37.0296 23.7014 39.061 26.2109 39.2866 20.7658C39.467 16.4097 35.539 15.2155 33.5524 15.1629Z" fill="#96D5DD"/>
<path d="M5.65903 10.9145C-0.704577 19.199 0.606237 28.3241 2.0571 31.851C2.63241 32.2262 3.65681 33.3969 3.15188 35.0778C2.52072 37.179 5.20883 38.0795 4.90866 36.5036C4.6085 34.9277 7.30998 35.378 9.78635 36.5036C12.2627 37.6292 10.3867 30.05 5.65903 23.9717C0.931381 17.8934 9.26106 19.019 12.2627 17.8183C15.2644 16.6177 14.514 15.3419 12.2627 14.9667C10.0115 14.5915 11.6624 14.9667 9.78635 10.9145C8.28552 7.67268 6.40946 9.56373 5.65903 10.9145Z" fill="#96D5DD"/>
<path d="M19.7383 1.96836C16.0994 1.31421 20.3005 5.2733 22.8559 7.33462C23.4693 7.43683 24.7062 7.96833 24.7471 9.27667C24.7982 10.9121 31.1866 12.5986 29.3468 10.1966C27.5069 7.79457 30.5733 8.30564 33.1287 7.64125C35.684 6.97685 32.9243 3.80819 31.7488 2.53052C30.5733 1.25284 26.6892 1.7128 26.0759 1.96836C25.4626 2.22392 24.287 2.78606 19.7383 1.96836Z" fill="#96D5DD"/>
<g clip-path="url(#clip0_1303_773)">
<path d="M16.1576 30.2659C15.8237 31.7683 16.9226 35.8767 17.5138 37.7432C20.8641 38.0678 27.7596 38.557 28.5386 37.9171C29.3176 37.2772 29.7674 31.4368 29.8949 28.5965L27.3561 29.0834L22.8698 37.7432L17.5138 23.9711C17.2008 25.4433 16.4914 28.7635 16.1576 30.2659Z" fill="#8BB73F"/>
<path d="M9.97479 27.6472C9.97475 27.974 13.2089 28.6685 14.826 28.9749L15.6942 29.4343L17.4815 23.5107L20.8007 28.1577C22.8093 27.7832 27.2248 27.0853 28.818 27.2896C30.8095 27.5449 34.6905 28.2087 35.5075 27.6472C36.3246 27.0856 35.5075 20.6 34.6905 19.2723C34.0369 18.2102 34.4181 13.7233 34.6905 11.6126C33.2096 8.49761 25.2945 11.6126 22.4859 12.5829C19.6773 13.5531 16.5113 14.268 15.3368 13.8595C14.1623 13.451 10.4344 12.1233 9.97479 11.6126C9.51515 11.102 9.97479 12.5828 9.97479 12.8892V27.6472Z" fill="#8BB73F"/>
<path d="M16.9644 30.499L14.1897 30.1314C14.1897 30.1314 11.6128 29.7357 11.5023 29.2922C11.3918 28.8488 10.7932 12.1626 11.5023 12.9693C12.2114 13.776 16.1745 16.3662 19.4772 15.5533C23.6056 14.537 31.0644 9.85715 36.2089 12.9693V20.2364C36.2089 20.2364 37.6153 28.9747 36.7806 29.2922C35.9458 29.6098 28.6127 27.0185 22.363 29.6098" stroke="#353535"/>
<path d="M19.6963 37.9937C18.3837 36.1094 16.4479 30.9351 18.836 24.1265L21.9329 30.5091L24.5233 37.9937L29.1236 28.638L31.31 28.638C31.8604 30.3317 32.2084 34.0304 29.6679 37.9937" stroke="#353535"/>
</g>
<defs>
<clipPath id="clip0_1303_773">
<rect width="30" height="30" fill="white" transform="translate(9.10352 9.95508)"/>
</clipPath>
</defs>
</svg>
