<svg width="49" height="49" viewBox="0 0 49 49" fill="none" xmlns="http://www.w3.org/2000/svg">
<path d="M32.4945 17.347C22.9622 13.0733 25.4533 16.3313 22.3578 18.559C22.1259 19.2055 17.334 25.1994 15.5818 25.0972C13.3917 24.9694 13.1377 27.7929 14.6013 27.1362C16.0649 26.4795 16.2521 29.2119 15.7301 31.8815C15.2081 34.5511 21.7255 40.8723 26.5448 34.8664C31.3641 28.8605 32.6185 27.3243 34.4812 29.9666C36.3439 32.6089 37.9396 32.2436 37.7836 29.9666C37.6277 27.6896 36.1485 27.86 39.6566 25.0972C42.4631 22.8869 33.9823 17.7645 32.4945 17.347Z" fill="#96D5DD"/>
<circle cx="24.1035" cy="24.9551" r="24" fill="#60C8D2"/>
<path d="M33.5524 15.1629C18.9213 12.4497 14.3653 20.7558 13.9161 25.248C14.4532 26.2974 15.0583 28.5253 13.182 29.0422C10.8367 29.6882 13.9421 33.9814 14.6264 32.4468C15.3107 30.9122 18.7493 34.9016 21.4031 39.0684C24.0569 43.2352 26.7474 35.2675 24.427 24.502C22.1067 13.7366 32.8928 25.8495 37.9022 29.0655C42.9116 32.2815 42.7606 30.3504 39.8951 27.0259C37.0296 23.7014 39.061 26.2109 39.2866 20.7658C39.467 16.4097 35.539 15.2155 33.5524 15.1629Z" fill="#96D5DD"/>
<path d="M5.65903 10.9145C-0.704577 19.199 0.606237 28.3241 2.0571 31.851C2.63241 32.2262 3.65681 33.3969 3.15188 35.0778C2.52072 37.179 5.20883 38.0795 4.90866 36.5036C4.6085 34.9277 7.30998 35.378 9.78635 36.5036C12.2627 37.6292 10.3867 30.05 5.65903 23.9717C0.931381 17.8934 9.26106 19.019 12.2627 17.8183C15.2644 16.6177 14.514 15.3419 12.2627 14.9667C10.0115 14.5915 11.6624 14.9667 9.78635 10.9145C8.28552 7.67268 6.40946 9.56373 5.65903 10.9145Z" fill="#96D5DD"/>
<path d="M19.7383 1.96836C16.0994 1.31421 20.3005 5.2733 22.8559 7.33462C23.4693 7.43683 24.7062 7.96833 24.7471 9.27667C24.7982 10.9121 31.1866 12.5986 29.3468 10.1966C27.5069 7.79457 30.5733 8.30564 33.1287 7.64125C35.684 6.97685 32.9243 3.80819 31.7488 2.53052C30.5733 1.25284 26.6892 1.7128 26.0759 1.96836C25.4626 2.22392 24.287 2.78606 19.7383 1.96836Z" fill="#96D5DD"/>
<path d="M15.4821 24.4568C15.0705 23.4622 16.5253 20.8271 17.3042 19.6338C17.5328 19.9696 18.0716 20.7399 18.3974 21.1343C18.8047 21.6273 19.1476 24.7568 19.1048 25.3784C19.0619 26.0001 17.5829 26.2787 17.3042 26.4931C17.0255 26.7074 15.9966 25.7 15.4821 24.4568Z" fill="#8BB73F"/>
<path d="M22.8553 18.5233C22.5028 19.0018 23.275 20.0026 23.7051 20.4432C24.6808 21.2301 26.714 22.9045 27.0413 23.3073C27.4505 23.8109 28.2373 23.8109 29.6536 23.6535C31.0699 23.4962 35.9484 17.2015 36.7037 16.2572C37.4591 15.313 37.3017 13.7708 36.9555 13.2673C36.6093 12.7637 33.3046 10.2773 32.4233 9.55337C31.5421 8.82947 30.8182 9.71073 30.6923 9.80515C30.5664 9.89958 29.874 11.5048 29.811 9.99406C29.7606 8.78547 29.0137 8.75608 28.6465 8.89246L25.09 12.7636C24.2087 13.6974 22.4398 15.7033 22.4146 16.2572C22.3831 16.9497 23.7051 16.2887 24.1457 16.4775C24.5862 16.6664 23.2959 17.9253 22.8553 18.5233Z" fill="#8BB73F"/>
<path d="M10.1192 26.0046C9.23187 25.413 9.1025 26.6824 9.14873 27.3911C9.99596 30.0407 11.8106 35.7095 12.2912 37.1883C12.7718 38.6671 14.6789 38.7288 15.5723 38.5747C19.8856 38.7596 28.6044 39.1108 28.9741 39.0368C29.4363 38.9444 34.3349 29.6556 34.5197 28.5927C34.7046 27.5298 33.8265 26.4206 32.7636 26.0046C31.7007 25.5886 30.0833 29.8404 28.9741 30.3488C28.0869 30.7554 26.3246 28.5464 25.5544 27.3911C24.4761 28.1921 22.1346 29.9051 21.3952 30.3488C20.4709 30.9033 19.177 29.7018 17.4671 28.3154C16.0992 27.2063 13.9703 29.2088 13.0768 30.3488C12.4607 29.1472 11.0065 26.5962 10.1192 26.0046Z" fill="#8BB73F"/>
<path d="M15.6897 39.4079C14.2061 39.3055 11.8691 31.85 10.8857 28.1351C10.8857 26.1622 12.3875 27.3131 13.1384 28.1351C14.3421 31.1133 16.7756 37.0956 16.8817 37.1982C16.9878 37.3008 25.3617 37.4757 29.5355 37.5494C30.2101 35.6814 31.8476 31.3035 33.0136 28.7426C34.471 25.5401 35.8955 28.1341 36.2268 28.7426C36.4917 29.2295 32.8922 36.311 31.0593 39.7912C26.5532 39.7066 17.1733 39.5102 15.6897 39.4079Z" stroke="#353535"/>
<path d="M14.4307 31.1776C15.8219 30.8573 18.8693 29.0311 18.8693 29.0311C19.7032 29.9061 20.6899 30.6323 21.7841 31.1766C23.5332 32.0222 26.223 29.6502 27.3491 28.3586C28.155 29.8637 30.1316 32.5923 31.589 31.4651" stroke="#353535" stroke-linecap="round" stroke-linejoin="round"/>
<path d="M17.9411 25.3179C16.7735 24.1906 18.007 21.7951 18.7691 20.7385C20.2527 22.9675 20.3593 24.464 20.227 24.9338C19.9512 25.5303 19.1077 26.4442 17.9411 25.3179Z" stroke="#353535"/>
<path d="M37.1914 17.3172C35.0513 19.5432 30.5566 24.2015 29.7009 25.0291C29.3584 25.3697 28.0012 25.171 27.3657 25.0291C26.2957 23.9788 24.029 21.8409 23.5233 21.6904C23.0176 21.5399 23.0208 20.3107 23.0856 19.7155L24.1557 17.7406C24.0259 17.5997 23.5329 17.4584 22.5989 18.0228C21.6648 18.5872 21.788 17.7878 21.9663 17.3175L28.8735 10.1231C29.1493 10.0917 29.6231 10.2172 29.3115 10.9694C29.1968 11.2269 29.1728 11.5136 29.2431 11.7855C29.3135 12.0574 29.4742 12.2995 29.7007 12.4745C30.122 12.1767 30.9845 11.4588 31.0623 10.9694C31.1402 10.48 31.8729 10.7657 32.2299 10.9694C33.7867 12.2236 36.9576 14.8534 37.1914 15.3423C37.4251 15.8312 37.2889 16.8629 37.1914 17.3172Z" stroke="#353535"/>
<path d="M30.9924 23.6189C29.5459 22.5514 26.8184 20.2827 27.4809 19.7439C28.3091 19.0714 31.2241 15.0685 31.8204 15.4207C32.2973 15.7024 34.5147 17.7786 35.5637 18.7832" stroke="#353535"/>
</svg>
