<svg width="122" height="122" viewBox="0 0 122 122" fill="none" xmlns="http://www.w3.org/2000/svg">
<path d="M24.6793 55.8592C22.0471 56.8621 18.5078 60.824 17.0672 62.6796C17.808 65.9269 19.6901 73.7047 21.2925 78.8377C22.8948 83.9707 27.9202 88.1846 30.2326 89.65C31.383 90.2103 33.5651 91.1807 33.0911 90.5802C32.4986 89.8295 35.0336 84.611 37.0981 83.9812C39.1625 83.3514 42.2433 80.17 41.7542 78.2443C41.2652 76.3187 44.0504 70.9027 43.5067 69.1452C42.9629 67.3876 34.7466 60.0651 32.4179 58.9354C30.0893 57.8057 32.6622 57.8991 32.5074 55.8033C32.3527 53.7075 27.9695 54.6055 24.6793 55.8592Z" fill="#96D5DD"/>
<path d="M28.3912 78.4514C25.8407 81.4891 21.576 75.4898 19.7625 72.1104C20.0662 73.543 21.0827 77.4039 22.7192 81.3864C24.7648 86.3646 29.6875 89.2603 30.3568 90.125C31.0261 90.9897 32.6087 91.5479 33.3828 89.1691C34.1569 86.7904 34.2441 87.6081 36.9885 84.3174C39.733 81.0266 40.5503 81.9434 41.1796 80.0097C41.8089 78.0761 40.6358 78.2522 42.9579 74.545C45.28 70.8379 42.5703 71.1647 42.8907 69.0376C43.211 66.9104 37.8224 64.0411 34.9599 62.5518C32.0975 61.0624 33.0149 64.2432 37.5434 68.0412C42.0719 71.8393 37.0276 70.1978 31.4007 69.2034C25.7739 68.2091 31.5794 74.6542 28.3912 78.4514Z" fill="#60C8D2"/>
<path d="M57.7993 53.0101C57.0209 54.395 59.2978 59.732 60.5335 62.2274C60.8646 62.6082 62.2147 63.1021 64.9658 62.0315C68.4047 60.6933 73.3601 64.7632 77.4513 68.5519C81.5426 72.3406 76.206 72.3787 78.7523 72.5247C81.2986 72.6708 88.5065 70.2383 91.0127 70.5077C93.5188 70.7772 96.8078 65.7044 92.2659 62.042C87.724 58.3795 93.0028 56.002 95.3512 57.1757C97.2299 58.1147 100.011 56.2804 101.167 55.2459C101.331 53.3426 101.37 48.0766 100.212 42.2389C98.7641 34.9419 93.1338 28.3315 91.0695 26.7041C89.4181 25.4022 84.9556 21.8737 82.9307 20.2721C80.3798 22.6503 75.0067 27.5083 73.9215 27.915C72.565 28.4234 72.5663 30.1335 72.8035 31.3504C73.0407 32.5674 72.045 34.4597 72.0945 36.0588C72.144 37.6579 80.0825 40.33 83.4097 40.5936C86.7368 40.8572 86.7142 43.4438 87.2285 46.478C87.6399 48.9054 83.4614 47.8459 81.3207 47.0128L73.0499 44.3213L69.565 44.9619C65.9674 47.0676 58.5776 51.6252 57.7993 53.0101Z" fill="#96D5DD"/>
<path d="M71.74 56.6695C67.0128 52.4535 64.0346 58.2529 63.1363 61.6796L62.9722 62.184C63.4193 62.1436 65.0364 62.298 67.9285 63.2391C71.5436 64.4156 71.1273 64.8378 74.9732 67.0192C78.8192 69.2005 77.4039 70.6924 79.2048 72.3012C81.0056 73.91 81.5528 72.2285 83.5272 70.7326C85.5016 69.2367 87.4333 69.5864 88.6944 69.9968C89.9554 70.4072 92.6805 68.3187 93.4466 65.9647C94.2127 63.6107 94.3768 63.1062 91.9701 62.7879C89.5633 62.4696 91.7919 61.3353 91.9361 58.0351C92.0803 54.7349 95.0896 57.2018 97.6058 57.1838C100.122 57.1659 99.1772 54.0692 97.3863 53.8583C95.5954 53.6474 93.2767 53.9156 90.868 53.3177C88.4593 52.7198 88.8349 54.4226 86.8451 57.68C84.8553 60.9375 85.9482 61.2932 86.6407 64.3078C87.3333 67.3224 82.1461 65.2625 79.2369 65.0596C76.3278 64.8567 77.6489 61.9395 71.74 56.6695Z" fill="#60C8D2"/>
<path d="M100.655 75.0043C101.279 73.6202 101.83 72.2042 102.306 70.7622C105.277 61.7005 104.571 52.0321 101.638 42.9581C98.7037 33.8842 93.6933 25.8724 85.9792 20.2655C78.2651 14.6587 68.392 13.2236 58.8555 13.2338C49.3191 13.2439 40.6109 14.6989 32.9088 20.3222C25.2067 25.9455 19.4869 33.8671 16.5724 42.9473C13.658 52.0275 13.6991 61.7982 16.6899 70.8535C19.6806 79.9089 25.4668 87.7821 33.216 93.3404C40.9651 98.8987 48.9415 99.9127 58.4777 99.8426L64.4944 111.415C64.6894 111.821 64.9646 112.183 65.3035 112.48C65.6423 112.776 66.0378 113.001 66.466 113.141C66.8942 113.28 67.3464 113.332 67.795 113.291C68.2436 113.251 68.6793 113.12 69.0757 112.906L95.8488 101.235C99.5907 99.2176 101.41 93.6403 102.725 89.5978C104.041 85.5553 103.921 81.2174 102.083 77.3841C101.677 76.5509 101.199 75.7547 100.655 75.0043ZM98.2925 72.4048C96.9362 71.2357 95.3831 70.3169 93.7055 69.6911C94.3281 68.8939 94.9644 68.1113 95.564 67.3016C95.9565 66.7744 96.2146 66.1594 96.3159 65.51C96.4171 64.8605 96.3586 64.1962 96.1453 63.5744C95.9632 63.0046 95.6422 62.489 95.2111 62.0742C94.78 61.6594 94.2524 61.3585 93.6759 61.1986C93.2678 61.0763 92.925 60.7969 92.7229 60.4219C92.5208 60.0468 92.4759 59.6069 92.5982 59.1988C92.7205 58.7907 92.9999 58.4478 93.3749 58.2457C93.75 58.0436 94.1899 57.9988 94.598 58.1211L96.1251 58.618C96.879 58.8686 97.691 58.886 98.4549 58.6679C99.2188 58.4498 99.8992 58.0064 100.407 57.3955L101.292 56.3324C101.353 60.8926 100.664 65.4318 99.2518 69.7683C98.9606 70.6632 98.6347 71.54 98.2864 72.4028L98.2925 72.4048ZM100.977 51.7006L97.9356 55.3381C97.837 55.4522 97.7068 55.5346 97.5615 55.5748C97.4162 55.6149 97.2622 55.6111 97.119 55.5638L95.5919 55.0669C94.369 54.696 93.0487 54.8261 91.9217 55.4287C90.7946 56.0312 89.9531 57.0568 89.5822 58.2798C89.2113 59.5027 89.3414 60.823 89.9439 61.95C90.5465 63.0771 91.572 63.9186 92.795 64.2895C92.87 64.31 92.9379 64.3506 92.9913 64.407C93.0447 64.4634 93.0816 64.5334 93.098 64.6093C93.1413 64.7384 93.1532 64.876 93.1326 65.0106C93.112 65.1452 93.0595 65.2729 92.9796 65.3831C92.1149 66.5507 91.2135 67.6963 90.3039 68.8256C87.1038 68.4047 83.9038 68.4361 81.0612 69.9649L80.1923 70.9662L79.7896 70.1276C78.3286 67.074 75.9046 63.5725 72.8813 62.0498C69.858 60.5272 66.4062 61.0694 63.0829 61.7135C61.9061 60.422 58.4635 56.8293 58.1193 55.1162C57.7751 53.4032 60.5423 53.6343 61.1289 51.9885C62.0704 49.6047 64.2231 48.8728 66.5508 47.8001C68.8784 46.7275 71.2017 45.3967 73.6255 46.2297L82.1772 49.0126C83.3355 49.4074 84.5993 49.3576 85.723 48.8728C86.8467 48.3881 87.7501 47.5029 88.2577 46.3894C88.5137 45.7734 88.6405 45.1113 88.6303 44.4443C88.6201 43.7773 88.473 43.1195 88.1983 42.5116C87.9235 41.9037 87.5269 41.3587 87.033 40.9103C86.5391 40.4619 85.9584 40.1197 85.3268 39.9048L75.019 36.5504C74.2371 36.3149 73.5597 35.818 73.1004 35.1428C72.641 34.4676 73.609 33.3743 73.6771 32.5605C73.7737 31.7116 73.0073 31.212 73.6571 30.6574L83.134 22.4028C88.0039 25.7533 91.9392 27.6863 95.0134 32.7351C98.0876 37.7839 100.231 45.8346 100.972 51.6991L100.977 51.7006ZM52.2867 16.0284C55.1069 15.6777 60.1223 15.0074 62.9545 15.2415L61.974 18.2544C61.8761 18.5516 61.6943 18.8142 61.4507 19.0106C61.207 19.2069 60.9118 19.3287 60.6005 19.3612L55.3792 19.8372C55.115 19.8577 54.8498 19.8134 54.6066 19.7081C54.3635 19.6028 54.1497 19.4396 53.984 19.2329C53.8182 19.0261 53.7055 18.782 53.6555 18.5218C53.6056 18.2615 53.62 17.993 53.6975 17.7396L52.2867 16.0284ZM36.2364 22.2408L41.2483 23.8718C41.592 23.9904 41.8951 24.2037 42.1227 24.4873C42.3503 24.7708 42.493 25.1129 42.5344 25.4741C42.5758 25.8353 42.5142 26.2009 42.3567 26.5285C42.1991 26.8562 41.9521 27.1326 41.6442 27.3259L31.939 35.4465C30.6622 36.2325 29.3594 35.4493 28.8938 36.8745C28.64 37.6516 28.0883 38.2963 27.3597 38.6671C26.6312 39.0379 25.7853 39.1045 25.0076 38.8523L22.3016 37.9717C25.5229 31.6214 30.3211 26.2047 36.2364 22.2408ZM18.3916 63.7911L23.5702 58.0337C24.1417 57.3975 24.8856 56.941 25.7117 56.7196C26.5377 56.4983 28.5595 55.7879 29.3725 56.053C30.4894 56.4189 31.4169 57.2105 30.8047 58.9897L31.0828 59.5362C31.6164 60.5971 32.3935 61.5167 33.3507 62.2197L39.8054 66.9885C40.8906 67.7878 41.6963 68.9087 42.1081 70.1921C42.52 71.4754 40.844 74.0778 40.4266 75.3593L40.3106 79.6348C40.1197 80.2297 39.7838 80.7677 39.3332 81.2004C38.8825 81.6331 38.3313 81.9468 37.7291 82.1132C36.6143 82.4204 35.5935 83 34.7586 83.8C33.9237 84.5999 33.3009 85.595 32.9464 86.6956L32.3501 88.5281C24.9969 90.4552 20.0304 73.4076 18.3916 63.7911ZM46.627 96.5518C42.4782 95.203 38.5677 93.2095 35.039 90.6444L36.0006 87.6895C36.1914 87.0946 36.5273 86.5566 36.9779 86.1239C37.4286 85.6913 37.9799 85.3776 38.582 85.2111C39.6968 84.904 40.7176 84.3243 41.5525 83.5244C42.3874 82.7244 43.7412 82.4898 44.0957 81.3892L44.634 76.7284C45.261 74.8068 45.7864 71.1393 45.1699 69.2143C44.5534 67.2893 43.346 65.6075 41.7193 64.4077L36.4042 58.8986C35.8506 58.4921 35.4016 57.9599 35.094 57.3458L34.8159 56.7993C34.2529 55.6959 33.4301 54.7459 32.4183 54.0312C31.4065 53.3164 30.2361 52.8584 27.8588 53.4303C26.6306 53.2684 25.3816 53.4076 24.2192 53.8358C23.0568 54.264 22.0159 54.9684 21.1863 55.8883L17.8967 59.5465C17.5436 54.2635 18.2044 48.9617 19.8435 43.927C20.1785 42.8977 20.5608 41.8991 20.9672 40.9151L24.0214 41.909C25.6084 42.421 27.3336 42.2832 28.8192 41.5259C30.3049 40.7686 31.4299 39.4534 31.9479 37.8684C32.176 37.1699 32.6443 36.5749 33.2696 36.1891L43.3228 30.0659C44.1391 29.5415 44.7918 28.7984 45.2066 27.9213C45.6213 27.0441 45.7815 26.0682 45.6689 25.1045C45.5563 24.1408 45.1754 23.2281 44.5696 22.4702C43.9638 21.7123 43.1574 21.1398 42.2422 20.8176L39.8828 20.0499C43.3419 18.2028 47.0425 16.8491 50.8769 16.028L50.6433 16.7457C50.3965 17.5024 50.3416 18.3085 50.4836 19.0916C50.6255 19.8748 50.9598 20.6104 51.4564 21.2323C51.9702 21.8385 52.6176 22.3174 53.3477 22.6311C54.0778 22.9449 54.8707 23.0851 55.6641 23.0407L60.8879 22.557C61.8251 22.468 62.7159 22.1076 63.4513 21.5199C64.1867 20.9322 64.7347 20.1428 65.0281 19.2483L66.2069 15.6261C71.1656 16.4303 75.9391 18.1199 80.2997 20.6141L71.5686 28.2113C70.3024 29.279 71.0648 31.0532 70.8765 32.6988C70.7046 34.2567 69.5097 35.5628 70.3718 36.8717C71.2339 38.1806 72.5261 39.1472 74.0251 39.6046L84.3329 42.959C84.5366 43.0247 84.7247 43.1315 84.8855 43.2727C85.0464 43.4139 85.1766 43.5866 85.2682 43.7801C85.3771 43.9864 85.4372 44.2149 85.4439 44.4481C85.4506 44.6813 85.4037 44.9129 85.3067 45.1251C85.1135 45.499 84.791 45.7899 84.3992 45.9436C84.0074 46.0973 83.5731 46.1033 83.1772 45.9604L74.6255 43.1775C71.4056 42.0878 68.1224 44.0865 65.0436 45.5275C61.9647 46.9684 59.3282 47.7401 58.1021 50.9106C57.4046 52.8747 57.1954 54.979 57.4926 57.042C57.7899 59.105 57.2514 60.9165 58.475 62.6038C58.0983 62.77 59.0543 63.086 58.686 63.2836C54.9767 65.4266 52.2111 68.8886 50.9405 72.9797C49.6699 77.0708 49.4347 82.8218 51.2774 86.6891L57.2566 97.2318C53.3087 97.1188 50.3846 97.7679 46.627 96.5518ZM92.3478 98.4714L67.5756 110.073L66.3707 109.681L58.0856 94.3549L54.718 83.9518C53.2214 80.834 52.9547 77.2668 53.9709 73.9612C54.9872 70.6556 57.2118 67.8543 60.2014 66.1157C61.6433 65.33 63.2303 64.8464 64.8654 64.6944C66.5005 64.5424 68.1494 64.7253 69.7114 65.2317C71.2735 65.7381 72.716 66.5576 73.9509 67.6401C75.1857 68.7225 76.1871 70.0452 76.8937 71.5275L78.0237 73.8728C78.224 74.2579 78.5674 74.5488 78.9801 74.6831C79.3928 74.8174 79.8418 74.7843 80.2303 74.5909L82.5165 73.3624C83.959 72.5766 85.5466 72.0935 87.1822 71.9424C88.8179 71.7914 90.4671 71.9756 92.0291 72.4839C93.5911 72.9922 95.0329 73.8139 96.2664 74.8986C97.4999 75.9834 98.4991 77.3084 99.2029 78.7925C100.677 81.8777 99.6085 84.9881 98.5505 88.2393C97.4924 91.4905 96.2605 96.1228 93.2533 97.7498L92.3478 98.4714Z" fill="#8BB73F"/>
<path d="M85.4251 89.2882C85.1419 88.9716 84.5163 88.7818 84.0921 88.7574C83.668 88.733 83.3158 88.9956 82.9981 89.2776C81.7151 90.241 80.2085 90.8628 78.6195 91.0848C77.0304 91.3067 75.4407 91.0305 73.9428 90.4555C72.394 90.0384 70.9466 89.3264 69.7925 88.2125C68.6384 87.0985 67.7856 85.7101 67.314 84.177C67.2257 83.7601 66.9754 83.3955 66.6182 83.1631C66.2611 82.9308 65.7697 82.6631 65.3528 82.7514C64.936 82.8397 64.5147 82.8332 64.2824 83.1904C64.0501 83.5476 63.4976 84.6238 64.1706 84.8429C64.755 86.9306 66.1529 88.267 67.6851 89.8008C69.2172 91.3346 70.8322 93.0141 72.9193 93.6007C74.9519 94.3547 77.1443 94.5731 79.2857 94.2348C81.4271 93.8965 83.4455 93.0129 85.1466 91.6689C85.4605 91.3835 85.64 91.0077 85.6614 90.584C85.6828 90.1603 85.7086 89.6038 85.4251 89.2882Z" fill="#F8D010"/>
<path d="M71.8168 81.4202C72.2218 81.552 72.6626 81.5175 73.0422 81.3243C73.4218 81.1311 73.709 80.7951 73.8408 80.3901L74.3378 78.863C74.4696 78.458 74.7088 78.0102 74.5156 77.6306C74.3224 77.251 73.8031 76.6928 73.3981 76.561C72.9931 76.4292 72.4619 76.7416 72.0823 76.9348C71.7027 77.128 71.4154 77.4641 71.2836 77.8691L70.3619 79.6045C70.2301 80.0095 70.6894 80.242 70.8826 80.6215C71.0757 81.0011 71.4118 81.2884 71.8168 81.4202Z" fill="#6E6E6E"/>
<path d="M80.9791 84.4022C81.3841 84.534 81.8249 84.4996 82.2045 84.3064C82.584 84.1132 82.8713 83.7771 83.0031 83.3721L83.5001 81.845C83.6319 81.44 83.5974 80.9992 83.4042 80.6197C83.211 80.2401 82.875 79.9528 82.4699 79.821C82.0649 79.6892 81.5741 79.407 81.1945 79.6002C80.8149 79.7933 80.5174 80.1395 80.3856 80.5445L79.949 82.3782C79.8172 82.7832 79.8517 83.224 80.0448 83.6036C80.238 83.9832 80.5741 84.2704 80.9791 84.4022Z" fill="#6E6E6E"/>
</svg>
