<svg xmlns="http://www.w3.org/2000/svg" xmlns:xlink="http://www.w3.org/1999/xlink" width="216.332" height="222.673" viewBox="0 0 216.332 222.673">
  <defs>
    <clipPath id="clip-path">
      <rect id="Rectangle_1175" data-name="Rectangle 1175" width="70" height="70" transform="translate(78.486 78.233)" fill="#fff"/>
    </clipPath>
  </defs>
  <g id="Group_24542" data-name="Group 24542" transform="translate(-0.777 -0.852)">
    <path id="Path_18481" data-name="Path 18481" d="M114.9,223.525a122.32,122.32,0,0,1-18.686-1.178l.054-.429a2.639,2.639,0,0,1-1.2.252c-.345,0-.549-.083-.224-.317a2.771,2.771,0,0,1-.83.107,34.815,34.815,0,0,1-4.259-.716q.333-.014.692-.014c.242,0,.491.005.747.013s.526-.011.8-.011.541,0,.819.01c1.12.028,2.314.109,3.513.228a59.461,59.461,0,0,1,6.707,1.061c-.39-.272.316-.4,1.009-.4.673,0,1.335.126.966.372,2.994-.615,5.424-.152,8.692-.515-.308.2-.3.344.286.44a4.71,4.71,0,0,1,2.372-.528,7.449,7.449,0,0,1,1.25.1c.063.005.118.008.169.008.568,0,.42-.324.928-.352a11.455,11.455,0,0,1-2.733-.572c-.573.046-1.145.094-1.72.137a11.537,11.537,0,0,0-1.953.287.119.119,0,0,1,.016-.146c-1.7.121-3.416.238-5.154.366a1.286,1.286,0,0,0,.08-.52c-.844.078-1.732.114-2.641.114-.645,0-1.3-.018-1.959-.052-2.024-.215-4.07-.525-5.912-.74-.7-.083-1.35-.3-1.1-.307h0q-.107,0-.219,0c-1.866,0-4.789-.472-4.905-1.471a.616.616,0,0,1-.485.223,3.343,3.343,0,0,1-1.11-.366,3.778,3.778,0,0,0-1.5-.367c-.074,0-.149,0-.226.01.513-.726-1.727-1.287-3.109-1.287a3.106,3.106,0,0,0-.623.053c.524.648,2.156,1.055,3.459,1.167a2.62,2.62,0,0,1-.719.09,10.745,10.745,0,0,1-2.627-.5,10.616,10.616,0,0,0-2.529-.5,1.753,1.753,0,0,0-.9.2c-2.7-.754-4-2.137-6.616-2.475.324-.275.6-.485.02-.914a2.015,2.015,0,0,0-.569-.132c-.4,0,.026.492-.513.659-2.583-1.184-6.083-1.524-9.163-3.69a1.4,1.4,0,0,0-.378-.084c-.143,0-.12.09-.119.181s-.022.18-.255.18a26.534,26.534,0,0,1-3.133-1.488,8.782,8.782,0,0,0-1.977-1c-.019-.438-.447-.892-1.511-1.386a.118.118,0,0,1,.086-.031,2.643,2.643,0,0,1,.716.335c.351-.243-.37-.54-.522-.81a.292.292,0,0,0-.049,0,.2.2,0,0,0-.141.057.188.188,0,0,1-.129.057c-.111,0-.315-.091-.792-.434a.19.19,0,0,1,.1-.025,1.014,1.014,0,0,1,.243.045,1.071,1.071,0,0,0,.243.045c.117,0,.2-.06.174-.28.886.309,1.435.884,1.835.884a.433.433,0,0,0,.374-.252c.308.845,1,1.045,1.816,1.227a5.335,5.335,0,0,1,2.7,1c.216-1.1-2.582-.744-2.553-1.756-.9-.41-1.368-.165-2.061-.866a.124.124,0,0,1,.105-.046,1.31,1.31,0,0,1,.467.182,1.325,1.325,0,0,0,.468.181.172.172,0,0,0,.057-.009c-.215-.537-1.653-1.035-2.161-1.268-.061.127.238.272.41.409-.383-.09-2.126-.978-1.423-.978h.053a5.092,5.092,0,0,0-1.271-.356.712.712,0,0,0-.142.014c-.652-.364-.707-.663-.31-.663l.048,0a.907.907,0,0,0-.39-.122c-.23,0-.211.228.172.495-.856-.124-.905-.813-2-1.551.249.354.323.492.28.492-.144,0-1.613-1.572-2.145-1.712a.559.559,0,0,1-.008.526c-.406-.362.123-.6-.671-1.015-1.21-.06-3.463-2.592-5.822-3.377l.257-.348c-.621-.6-.9-.493-1.429-.894a1.334,1.334,0,0,0,.412.851l-.02,0c-.246,0-.787-.719-1.412-.9a.3.3,0,0,1,.147-.032,1.284,1.284,0,0,1,.229.03,1.281,1.281,0,0,0,.229.03c.135,0,.245-.053.281-.26a4.092,4.092,0,0,1-1.826-1.734c-.113-.09-.176-.126-.207-.126-.126,0,.239.572-.156.576-.449-.77-.97-1.659-1.575-1.659a.773.773,0,0,0-.5.209c-.885-1.248-2.744-.7-4.86-3.034a2.025,2.025,0,0,0,.431.146c.117,0-.224-.262-.346-.655-.433-.173-.8-.165-1.2-.37A3.439,3.439,0,0,0,30.874,188a.3.3,0,0,1,.247-.118l.058,0,.049,0c.077,0,.109-.036.051-.3-.847-.227-1.037-.633-2.056-1.148.388-.127.431-.666-.759-1.244.164-.444-1.046-1.4-.62-1.744-.15-.185-.261-.23-.36-.23a.594.594,0,0,0-.134.02.653.653,0,0,1-.133.019c-.118,0-.254-.063-.451-.353.227-.319.225-.469.41-.469a1.715,1.715,0,0,1,.418.094,4.335,4.335,0,0,1-1.022-1.345c-.43.2.336.859-.267.995-1.1-1.148-3.116-4.273-2.516-4.514a.3.3,0,0,0-.207-.109c-.153,0-.272.181-.411.25-.669-.793-.11-1.008-.01-1.437.568.98.846.4,1.415,1.374-.47-1.8-1.529-2.112-2.476-3.735-.27.441-.191,1.053.61,2.006A6.356,6.356,0,0,1,21.3,174.63c.226-.13.035-.461.29-.575-.563-1.029-.9-.692-1.4-1.4a.229.229,0,0,1,.169-.065.724.724,0,0,1,.137.017.815.815,0,0,0,.137.017.229.229,0,0,0,.188-.086c-1.736-.747-2.44-2.167-3.207-3.571a12.134,12.134,0,0,0-2.9-4.15c.809.677.836.124,1.735.907.106-.144-.121-.487-.257-.487a.064.064,0,0,0-.02,0c1.205-.523-1.089-2.865-2.017-4.321.578.1,1.167,1.194,1.831,1.824a2.525,2.525,0,0,0-.413-1.183c-.154-.275-.345-.479-.541-.479a.349.349,0,0,0-.249.12,6.246,6.246,0,0,0-1-1.985c-.024-.131-.021-.185,0-.185a2.708,2.708,0,0,1,.414.62c.189.309.4.62.527.619a.076.076,0,0,0,.058-.026c.2-.915-1.35-3.354-1.474-3.6-.278-.542-.551-1.045-.528-1.045,0,0,.017.016.042.051-.87-1.238-.588-2.133-.929-2.92-.125-.292-.723-.4-.983-1.064-.607-1.868-1.831-5.835-3.633-8.394.026-.263.312-.288.216-.668.588.231-.051.738.338,1.352.635-.494-.2-2.313-.541-3.328-.088.22.033.659-.26.672-.218-1.326.083-3.719-1.037-4.309-.217-.553.061-.566.272-.658a11.274,11.274,0,0,0-.633-1.826l-.036,0c-.22,0-.168.3-.1.615-.913-.93-.277-2.01-1.175-3.414h.013c.573,0,.048-1.19.371-1.513a46.685,46.685,0,0,1-1.617-6.655c-.227-1.282-.422-2.6-.571-3.866-.1-1.272-.089-2.5-.069-3.6-1-1.951-.147-4.135-.788-6.3.156-.577.165-1.4.653-1.4h0a1.859,1.859,0,0,1-.128-1.645c0-.18-.022-.243-.054-.243s-.088.084-.154.168-.143.168-.229.168a.189.189,0,0,1-.141-.08c.336-2.212-.825-3.057-.826-5,.916.328.365,1.744.91,2.51a9.005,9.005,0,0,0,.437-3.581c.107.151.218.292.412.292h.007c-.528-1.064-.262-2.326.052-3.85-.012-.124-.033-.164-.065-.164s-.07.039-.118.078a.281.281,0,0,1-.169.078.173.173,0,0,1-.08-.02c.378-2.019.652-4.025.886-6.107a33.782,33.782,0,0,1,1.235-6.459c.041-.374-.3-.289-.5-.373a23.738,23.738,0,0,1,.855-2.952c-.16.214-.25.3-.287.3a6.014,6.014,0,0,1,1.035-2.129c.1-.5-.436-.276-.426-.671.1-.286.19-.37.282-.37a.409.409,0,0,1,.2.083.417.417,0,0,0,.208.083c.108,0,.225-.09.359-.4-.432-.806.148-1.786.278-3.372.053-.1.086-.147.106-.147a15.758,15.758,0,0,1-.181,1.568.317.317,0,0,0,.153.045c.483,0,.57-1.512.946-2.33.218-.562-.45-.26-.6-.46.416-.989,1.041-.638,1.371-2.2.037-.236.005-.3-.055-.3a.384.384,0,0,0-.152.063.386.386,0,0,1-.159.063c-.062,0-.1-.059-.091-.256.949-.667,1.465-3.156,2.372-4.475.144.1-.058.516-.15.83.477-.078.224-.866.475-1.3a.76.76,0,0,0-.461.421A10.839,10.839,0,0,1,11.229,63.5a.365.365,0,0,1,.209-.12c.1,0,.122.15.146.3s.053.3.168.3a.5.5,0,0,0,.281-.16c-.177-.146-.7-.435.173-1.41.145.4-.144,1.133.5,1.133.028,0,.058,0,.09,0,.111-.3.233-.431.36-.442.2-.45.1-.522-.043-.522a.92.92,0,0,0-.1.008.9.9,0,0,1-.1.008c-.12,0-.173-.065.056-.458a.453.453,0,0,0,.335.2c.5,0,.918-1.26,1.383-1.836.278.162-.433,1.069-.558,1.535a.287.287,0,0,0,.127.031c.346,0,.649-.681.959-1.332.081-.087.128-.125.151-.125.142,0-.768,1.569-.572,1.709.831-1.319,2.619-4.939,2.132-6.167.305-.526.961-1.163.628-1.508,1.645-1.113,2.335-4.019,3.148-4.769.01.388-.342,1-.317,1.375l.043,0a.9.9,0,0,0,.325-.089.9.9,0,0,1,.325-.089.34.34,0,0,1,.208.069A38.5,38.5,0,0,1,24.357,46.6a23.187,23.187,0,0,0,3-4.291c1.9-1.4,2.073-2.411,4.154-4.22-1.136,1.3-2.517,3.144-4.086,5a58.2,58.2,0,0,0-4.369,5.672c-.543.824-.92,2.58-1.789,2.58a.74.74,0,0,1-.243-.044c-.511.9-1.3,1.976-1.112,2.449-.4.525-.783.23-1.193,1.186-.086.2-.008.3-.142.533-.1.177-.011.2.116.2h.123c.177,0,.356.032.269.362-.213.492-1.326.349-.737.828a22.472,22.472,0,0,0-2.813,4.5,48.511,48.511,0,0,0-2.569,6.023c-1.045.59-1.709,3.258-2.048,4.428a.113.113,0,0,0,.047.011c.142,0,.234-.315.328-.629s.185-.629.328-.629c.047,0,.1.034.158.112a8.808,8.808,0,0,0-.577,2.071c-.088-.143-.179-.206-.271-.206-.623,0-1.288,2.914-1.451,3.626a.213.213,0,0,0,.035,0c.372,0,.507-1.043.793-1.728C10.5,77.322,8.263,80.45,7.858,83.8a.155.155,0,0,0-.066-.016c-.122,0-.194.18-.267.36s-.145.36-.266.36H7.247a14.846,14.846,0,0,1-.424,3.8,14.835,14.835,0,0,0-.526,3.68,27.212,27.212,0,0,0-.991,4.792c-.053,1.439.009,2.923.083,5.081a.547.547,0,0,1,.484-.257.939.939,0,0,1,.1.006c-.587-.591.156-.978.362-1.586a2.023,2.023,0,0,1-.106-.8c-.329.386-.33,1.457-.8,1.567.082-.81.49-.936.393-2.124a.734.734,0,0,1,.306-.066,1.231,1.231,0,0,1,.124.007c.037,0,.071.007.1.007.169,0,.233-.113.245-.969.079.6.438.74.347,1.614h.015c.482,0,.61-1.472.686-2.6a3.649,3.649,0,0,0,.007-1.287c-.038,0-.1.216-.186.75-.275-.66.511-2.729.086-2.729a.322.322,0,0,0-.162.063c.027-1.886.834-2.194.96-3.622.1-1.12-.464-1.686-.454-2.757,0,.044.284,0,.283.046C8.17,86.434,7.783,84.8,8.8,84.8h.009c-.469.573-.541,1.893.026,1.893h.007c-.326-1.469,1.617-5.216,1.775-8.027.05-.151.129-.188.218-.188s.181.035.267.036a14.626,14.626,0,0,1,.5-2.433c.268-.8.619-1.6.947-2.37a19.852,19.852,0,0,0,1.5-4.248l.408.143c-.209-.96.19-1.513.772-2.529-.272,1.2.319.6-.32,2.129.71-1.338.969-2.961,2.067-3.7a.633.633,0,0,0-.274-.1c-.084,0-.164.045-.237.178-.026-.413.982-1.606,1.388-1.977-.017-.257.352-1.334.133-1.334-.045,0-.115.046-.219.155.847-1.68,1.7-3.59,2.609-5.458.427.248.036.983.427.983a.716.716,0,0,0,.243-.057c-.989,1.809-2.148,3.082-1.979,4.816-.064.113-.133.147-.2.147a1.853,1.853,0,0,1-.3-.085c-.09.272.186.275.042.586.557-.438,2.2-2.737,1.668-3.526.475-.522.926-1.463,1.4-1.915.559.411.943.6.248,2.134-.232-.146.278-.808-.053-.886a.211.211,0,0,0-.161-.1c-.09,0-.174.081-.258.163s-.169.162-.259.162a.152.152,0,0,1-.064-.014c-.123.445-.686,1.775-.389,1.775a.46.46,0,0,0,.24-.132c-.069.773-.5.333-.965.693.12.577.2.794-.419,1.228a3.134,3.134,0,0,0,.2.93,28.289,28.289,0,0,0-1.43,2.858c-.485,1.107-.853,2.411-1.323,3.782-.094-.087-.047-.292-.186-.339a11.638,11.638,0,0,1-.936,3.485.705.705,0,0,0,.262.078c.09,0,.172-.046.236-.189a27.113,27.113,0,0,0-.864,3.017,28.374,28.374,0,0,0-.464,3.225.306.306,0,0,0-.175-.072c-.461,0-.289,1.908-1.146,2.378.212.442-.126,1.474.339,1.642-.086.283-.139.379-.182.379s-.078-.108-.126-.216-.109-.216-.212-.216c-.064,0-.143.042-.245.152-.18,1,.305,2.235-.145,3.086-.03.059-.466.058-.481.174-.072.649.268,1.08.155,1.831.011-.078-.248-.258-.246-.3-.023.363.117,1.132.057,1.552-.1.7-.806,1.365-.9,2.193-.086.743.459,1.35.434,2.1-.026,1.3-1.085,2.4-.572,3.508-.041.754-.417.837-.508,1.493.268,2.487.136,4.779.414,7.6.227.173.741.8,1.047.8.125,0,.216-.1.239-.386-.014,1.179.314,3.05.723,3.05.12,0,.247-.16.374-.547a1.234,1.234,0,0,0-.168-1.029c-.013,0-.023.015-.027.05.159-1.719.5-4.04-.168-5.925.485-5.6.8-10.938,2.386-15.914a.676.676,0,0,0,.217.037c1.238,0,1.736-3.768,1.633-5.2,1.232-4.1,2.417-8.223,3.97-12.7a.346.346,0,0,1,.183-.091c.093,0,.11.132.22.246.2-.5.186-.768-.128-.842.732-.545,1.455-3.117,2.125-3.117a.32.32,0,0,1,.222.1c.067-.543-.314-.782.336-1.731.194.287.267.268.427.276.082-.2.145-.381.234-.59a3.944,3.944,0,0,1,.412,1.181,13.567,13.567,0,0,0,1.538-2.326c-.125-.1-.161-.863-.322-.863-.055,0-.125.09-.219.326-.134-.74.838-.731,1.168-.769.968-1.63,2.337-2.405,2.321-3.96.891-.222,1.666-1.626,2.326-1.626a.46.46,0,0,1,.272.091c.09-.171.085-.219.033-.219a.619.619,0,0,0-.149.041.644.644,0,0,1-.191.041.181.181,0,0,1-.188-.161c.277-.5.429-.651.526-.651.08,0,.122.1.164.208s.085.208.165.208c.059,0,.138-.056.251-.207-.707,2.13-2.92,2.258-3.06,4.286-.011-.188-.057-.227-.134-.227a.76.76,0,0,0-.09.009.808.808,0,0,1-.112.009l-.043,0c-.022.947-2.094,1.9-1.322,2.55a11.367,11.367,0,0,0-2.852,4.636,2.181,2.181,0,0,1-1.176,1.911,17.935,17.935,0,0,1-1.15,5.658c-.436,1.526-1.009,3.1-1.389,4.8.007-.027.024-.065.026-.088.049-.093.083-.132.107-.132.109,0,.011.79.077.925a1.627,1.627,0,0,0-.469.686l-.013.069-.015-.005c-.215.479-.411,1.012-.733,1.137a9.846,9.846,0,0,1,.485-1.225c-.6.037-.989,1.812-.86,2.36h.038c.283,0,.3-.259.279-.519s-.062-.519.1-.519a.633.633,0,0,1,.3.129c-.147.852-.31,1.683-.476,2.494a.865.865,0,0,1,.255-.242c-.674,1.29-.364,2.223-.561,3.508a.41.41,0,0,1,.176.1l.026-.021A10.1,10.1,0,0,1,23.2,83.546a8.843,8.843,0,0,0,1.012-1.7c.254-.412-.176-.559-.277-.832a.78.78,0,0,1,.1-.92,4.072,4.072,0,0,1,1.1-.777c.1-1.072.825-2.027.7-3.456-.586.024-1.038.66-1.384,1.756-.289.045-.612-.061-.844.231-.417-.151.31-.528.2-.665l.036,0c.387,0,1.02-.775,1.44-1.508.051-.25-.219-.239-.116-.531-.681.2-.512.718-1.037,1.635-.532-.441.788-.952.274-1.644h-.02c-.827,0-1.125,1.595-1.53,2.235.052-1.637,1.858-4.246,2.371-6.215.6-.613,1.095-1.694,1.648-2.337-.081.513-.695.618-.385.806.053-.089.094-.124.129-.124.063,0,.1.115.139.231.177-.274.379-.33.528-.8l-.375-.156a1.175,1.175,0,0,1,.832-.483,1.113,1.113,0,0,1,.768.4c-.223,1.251.256,1.865-.675,3.712,1.533-.643,1.032-3.546,1.6-4.322.542.007-.3.926.249.926A.749.749,0,0,0,29.8,69a1.427,1.427,0,0,0-.409,1.563c.229-.339,1.079-1.533.373-1.829A6.155,6.155,0,0,0,31.3,66.157c.347.213.038.843.262,1.13.24-.054.452-.326.65-.7-.292.9.4,1.18.374,1.909a1.291,1.291,0,0,1,.784-.525.346.346,0,0,1,.083.01,1.553,1.553,0,0,1,.97-.895c.878-.265,1-.732.978-1.462a3.867,3.867,0,0,1,.294-2.043.562.562,0,0,1-.249.07.351.351,0,0,1-.115-.019c-.509-.047.2-.728-.17-.85a4.485,4.485,0,0,1,.907-1.2,4.555,4.555,0,0,1,.012-1.207c.071-.365-.19-.664-.41-.965-.208.313-.418.626-.626.944a.366.366,0,0,1,.165.1A1.22,1.22,0,0,1,35.2,61.9a.3.3,0,0,1-.182.107A.04.04,0,0,1,35,62c-.087-.047-.2-.144-.207-.226-.019-.343-.015-.687,0-1.029-.373.574-.745,1.146-1.128,1.742.165-.966,1.305-2.472,1.751-3.752a.657.657,0,0,1,.082-.254,2.382,2.382,0,0,0,.105-.676c.134-.249.2-.336.243-.336s.062.127.107.244A8.916,8.916,0,0,0,36.1,56.36a1.352,1.352,0,0,1,.371-.852,2.289,2.289,0,0,1,.971-.156,7.848,7.848,0,0,1,.485-.8.8.8,0,0,0,.023-.931.458.458,0,0,0-.432-.267,1.382,1.382,0,0,0-.444.1,4.936,4.936,0,0,0-.569.359.135.135,0,0,1-.06.011c-.073,0-.172-.031-.183-.064a2.739,2.739,0,0,1-.148-.45,6.338,6.338,0,0,0-.613.828c-.555.857-1.066,1.987-1.875,2.21-.148,1.312-1.317,2.718-2.018,4.528a1.5,1.5,0,0,1,.209-1.493c.032.212.07.3.115.3.193,0,.514-1.671,1.092-2.047.06-.161-.116-.6-.266-.6a.073.073,0,0,0-.03.007c.375-.424.973-1.321,1.65-2.25a9.492,9.492,0,0,1,2.107-2.155,2.544,2.544,0,0,1,.215-.23c-.335-.836,1.074-1.118.824-1.857-.088,0-.177-.007-.266-.007a1.293,1.293,0,0,0-1.117.434c-.442.587-1.89.8-.882,2.03a.63.63,0,0,1-.215.187.957.957,0,0,1-.284.044,1.6,1.6,0,0,1-.651-.178c-.894-.4-1.833-.7-2.755-1.045-.552.353-1.108.7-1.66,1.054a2.539,2.539,0,0,0-.26.461.745.745,0,0,0-.078-.237c-.349.227-.7.451-1.039.69a1.133,1.133,0,0,0-.419.851c.09,1.247-.9,1.752-1.623,2.39a1.166,1.166,0,0,1-.812.27c-.376,0-.779-.1-1.149-.123-.287-.018-.4-.252-.273-.429A21.082,21.082,0,0,1,25.569,54.8l.16-.179a16.362,16.362,0,0,1,.635-3.539c.653-.82,1.378-1.992.883-2.492.393-.473.7-.12,1.117-.815.241-.818-.694-.367.583-1.785a.62.62,0,0,0-.168-.747c-.8.178-1.579,2.18-1.995,2.18-.067,0-.125-.053-.172-.174-.406.429.015.452-.215.795a.093.093,0,0,0,.072.038c.091,0,.2-.152.307-.3s.215-.3.307-.3c.051,0,.1.047.135.166-.035.4-.372.786-.673.786a.359.359,0,0,1-.3-.172c-.645,1.168-.144,1.721-1.021,3.042-.094-.332.147-.859.56-1.485-.071-.12-.145-.157-.221-.157a.542.542,0,0,0-.179.044.54.54,0,0,1-.179.044.217.217,0,0,1-.169-.083,15.186,15.186,0,0,0,1.244-2.941.161.161,0,0,0,.158.133c.357,0,1.191-.953,2.083-1.905s1.841-1.905,2.43-1.905a.455.455,0,0,1,.147.023,2.412,2.412,0,0,1,.506-.919A3.9,3.9,0,0,0,33.6,40.738c1.615-.3,3.692-2.255,4.873-2.255h.006a3.129,3.129,0,0,0-1.131,1.466c.011,0,.033-.016.066-.051A30.224,30.224,0,0,1,34.9,42.718l-2.849,3.23a22,22,0,0,0-2.955,4.116,2.95,2.95,0,0,1,.3-.082,3.355,3.355,0,0,1,.487-.606,3.935,3.935,0,0,0-.139.554c.089-.007.177-.016.269-.016a1.19,1.19,0,0,1,.16.01,2.146,2.146,0,0,0,.284.016c.068,0,.136,0,.2,0s.136,0,.2,0a1.97,1.97,0,0,1,.324.023,4.329,4.329,0,0,0,.7.06,2.616,2.616,0,0,0,2.271-1.185,2.1,2.1,0,0,1,1.812-.976,3.905,3.905,0,0,1,1.192.215,19.45,19.45,0,0,1,2.114.838A4.49,4.49,0,0,0,40.3,47.831a.11.11,0,0,1,.08-.035c.082,0,.178.085.274.17s.195.17.281.17c.1,0,.191-.123.239-.514.625.057-.28.985-.876.985a.443.443,0,0,1-.188-.038,6.566,6.566,0,0,1-.375.544,1.362,1.362,0,0,0,.49.117.384.384,0,0,0,.3-.118,1.444,1.444,0,0,1,.444-.355c.08-.074.152-.151.237-.222-.019.023-.056.079-.108.158a.94.94,0,0,1,.313-.053,1.49,1.49,0,0,1,.6.153,1.935,1.935,0,0,1,.274-1.374A2.163,2.163,0,0,0,40.5,45c-.288-.074-.509-.427-.749-.664-.072-.071-.165-.209-.139-.272a.418.418,0,0,1,.27-.19,3.025,3.025,0,0,1,.686-.09,1.541,1.541,0,0,1,1.182.5,2.247,2.247,0,0,1,.759-.245c.258,0,.446.179.484.769.01.157.069.225.152.225a.511.511,0,0,0,.317-.2c.2-.225-.038-.863.362-.863a.778.778,0,0,1,.266.061,2,2,0,0,0,.569.178c.167,0,.264-.122.254-.516-.021-.775.194-1.228,1.038-1.42a.677.677,0,0,1,.152-.018.644.644,0,0,1,.149.017.694.694,0,0,0,.075.018c.026,0-.011-.04-.122-.207a.612.612,0,0,0-.25-.219c-.3-.13-.612-.234-.917-.354a7.5,7.5,0,0,0-2.42-.9h-.032c-.66.012-1.312.74-1.958,1.164-.887.583-1.55,1.458-2.448,2.037a1.291,1.291,0,0,1-.285.32c.015-.076.022-.132.028-.186a3.4,3.4,0,0,1-.5.262,1.238,1.238,0,0,0-.618.764c-.123.434-.274.8-.7.8a.912.912,0,0,1-.156-.014.653.653,0,0,1-.141-.051c-.624.49-1.351.97-1.766,1.371.421-.572.846-1.16,1.265-1.693a1.543,1.543,0,0,0-.2-.123c-.194-.095-.439-.082-.638-.169-.3-.129-.355-.391-.134-.45,1.361-.361,1.434-1.881,2.418-2.627a15.578,15.578,0,0,1,2.633-2.051c.238-1.085,1.144-1.655,1.848-2.375.928-.95,1.719-2.125,3.277-2.125h.034c.182,0,.412-.213.539-.386.714-.977,1.751-.868,2.772-.9,1.181-.035,1.412-.259,1.841-1.528.513-1.518.752-1.646,2.329-2.607a3.71,3.71,0,0,1,1.872-.635,2.032,2.032,0,0,1,.982.248,3.966,3.966,0,0,0,1.96.438c.3,0,.606-.018.91-.036s.606-.037.91-.037l.166,0h0c.088,0,.178-.129.268-.2a3.625,3.625,0,0,0-.454-.356c-.218-.122-.86-.178-.419-.475.994-.67,2.216-.984,3.056-1.927a1.307,1.307,0,0,1,1.06-.393c.175,0,.353.013.527.018.136,0,.27.008.4.008a2.272,2.272,0,0,0,2.025-.853,2.79,2.79,0,0,1,2.242-1.233,2.907,2.907,0,0,1,.391.027.45.45,0,0,0,.059,0,2.349,2.349,0,0,0,.847-.36c1.1-.536,2.172-1.116,3.285-1.615,1-.451,2.04-.832,3.072-1.218A2.582,2.582,0,0,0,77.051,19.7c.055-.193.139-.259.239-.259a.8.8,0,0,1,.35.144.8.8,0,0,0,.356.145.2.2,0,0,0,.094-.022c.686-.348,1.028-1.226,1.929-1.278.088,0,.168-.143.252-.219-.08-.073-.152-.2-.241-.212a14.3,14.3,0,0,0-2-.212A3.927,3.927,0,0,0,76.7,18a2.856,2.856,0,0,1-.805.268.721.721,0,0,1-.562-.336c-.5-.616-1.111-1.138-1.6-1.759-.188-.239-.219-.818.138-.858.506-.056.908-.629,1.438-.629a.994.994,0,0,1,.657.294c.368.324,1.1.2,1.575.445a.975.975,0,0,0,.422.134c.255,0,.34-.237.449-.578s.416-.421.772-.511A12.081,12.081,0,0,0,82.3,13.463a1.6,1.6,0,0,1,.8-.257,1.491,1.491,0,0,1,1.025.554c.4-.133.789-.267,1.169-.411a.22.22,0,0,1,.187-.135.25.25,0,0,1,.1.024c.387-.149.774-.3,1.151-.454.385-.83.771-1.66,1.2-2.465s1.79-1,1.444-2.3c-.017-.065.322-.247.512-.342a9.368,9.368,0,0,1,4.169-1.438,4.615,4.615,0,0,1,.544.032,6.5,6.5,0,0,1,2.88-.748,1.8,1.8,0,0,0,1.077-.726,7.408,7.408,0,0,1,2.481-1.683,2.772,2.772,0,0,1,1.43-.291c.336,0,.734.022,1.223.06.265.02.537.054.8.054a1.555,1.555,0,0,0,1.135-.4.432.432,0,0,1,.294-.144c.2,0,.348.2.541.272a2.641,2.641,0,0,0,.762.21.39.39,0,0,0,.182-.039,7.171,7.171,0,0,1,3.487-.664c.184,0,.369,0,.553,0s.37,0,.555,0c.338,0,.675-.006,1.011-.028s.652-.034.978-.034c.128,0,.255,0,.382.006h.04c.564,0,.668-.422.833-.841a.712.712,0,0,1,.612-.434.31.31,0,0,1,.205.067,2.932,2.932,0,0,0,2.032.639c.225,0,.451-.01.677-.021s.449-.021.671-.021c.07,0,.141,0,.211,0,.434.015.878.051,1.319.051A3.429,3.429,0,0,0,123.239.9a5.128,5.128,0,0,0,1.277.273,1.475,1.475,0,0,0,.837-.252.122.122,0,0,1,.066-.015c.153,0,.457.138.49.248a1.279,1.279,0,0,0,1.227,1.079,1.658,1.658,0,0,0,.253-.02,2.772,2.772,0,0,1,.431-.033,9.943,9.943,0,0,1,2.47.608,4.621,4.621,0,0,0,1.153.121c.237,0,.476-.009.716-.019s.478-.019.715-.019H133c1.229,1.249,3.109.167,4.393,1.225.312-.181.7-.517,1.021-.517a.455.455,0,0,1,.409.288,2.35,2.35,0,0,0,.593.725c.162.051.327.1.463.142a.634.634,0,0,1-.217.042c.181.127.371.245.573.371a4.094,4.094,0,0,1,1.227,1.162c.206.31.4.414.591.414.363,0,.705-.379,1.061-.409a.727.727,0,0,0,.694.67,3.318,3.318,0,0,0,.213.536c1.2,2.067,1.205,2.111,3.492,2.151a1.625,1.625,0,0,1,1.57.986,6.657,6.657,0,0,0,.5.894c.514.139,1.029.277,1.537.425.114.034.226.073.34.108a.622.622,0,0,1,.493-.294,1.383,1.383,0,0,0,.011.455c5.29,1.665,10.195,3.969,14.307,8,2.024.525,3.254,1.825,5.4,2.645.221.266.447.53.377.776.268.549-.661.821-1.158,1.045-1.4-1.861-1.968-.511-2.529-2.2-3.814-1.378-7.941-4.754-11.791-6.142a10.541,10.541,0,0,0-1.927-.548,3.613,3.613,0,0,1,1.224,1.362,3.12,3.12,0,0,0,1.949,1.166.248.248,0,0,0,.061.007.9.9,0,0,0,.335-.1.9.9,0,0,1,.323-.1c.148,0,.251.126.246.577-.011.911.61,1.411,1.157,1.978a.71.71,0,0,0,.556.242c.163,0,.339-.035.542-.05.049,0,.1-.005.147-.005a2.669,2.669,0,0,1,2.075,1.159c.068.091.126.189.188.284a1.892,1.892,0,0,1-.588.209h-.012a1.09,1.09,0,0,1-.6-.245.624.624,0,0,0-.381-.171c-.293,0-.443.373-.654.552-.428.363.024.566.205.782.364.435.748.856,1.15,1.257.231.23.532.606.766.606h.025a3.084,3.084,0,0,1,.375-.024c1.531,0,1.951,1.308,2.409,2.424a6.305,6.305,0,0,0,1.636,2.11,9.757,9.757,0,0,1,2.8,4.125c.039.13.3.194.486.278.095.506-.072,1.1.683,1.334,1.157.352,1.664,1.483,2.485,2.241a.85.85,0,0,1,.211.608c-.069,1.106.588,1.616,1.5,1.985a1.593,1.593,0,0,1,1.093,1.106c-.7.638-.033.937.338,1.284a1.567,1.567,0,0,0,.583.31.7.7,0,0,1,.584.7,4.648,4.648,0,0,0,.678,3.042c.124.123.246.261.37.388a2.929,2.929,0,0,0,.262.22c.012.042.034.074.048.115a26.422,26.422,0,0,1,1.836,2.186,5.411,5.411,0,0,0,.523.276,3.55,3.55,0,0,1,1.725,2.747c.013.058.03.108.044.164q.4.341.807.708a23.535,23.535,0,0,0,2.55,2.3c.613-.777-.377-3.015.73-3.015h.018c.23,1.135-.219,2-.2,3.032a59.041,59.041,0,0,0,5.465,7.649c.966,1.23,1.916,2.49,2.89,3.782a48.979,48.979,0,0,1,2.614,4.176c1.163-.486.185-2.334.99-3.055-.091.533.448,1.441.8,2.287.8-.506.791-1.526.724-2.6-.116-.158-.2-.217-.274-.217-.107,0-.175.136-.25.273s-.155.273-.287.273c-.082,0-.185-.054-.319-.2-.589-1.627-.628-2.9.565-3.373-.589-1.464-1.31-2.363-.523-3.335A53.41,53.41,0,0,0,194.09,51.06l-3.143-4.411c-.516-.747-1.009-1.528-1.5-2.337-.518-.79-1.022-1.623-1.516-2.515-1.273-1.555-2.969-3.3-4.5-5.106-1.628-1.7-3.08-3.486-4.158-4.809a24.329,24.329,0,0,1-3.375-2.576c-1.221-1.014-2.445-2.216-3.6-3.391,1.675.11,2.118,1.733,3.117,2.576,4.5,3.9,9.543,7.933,13.156,12.726,1.857,2.469,2.909,4.526,5.714,8.04.45.575.885.65,1.422,1.222,3.719,4.065,5.505,10.071,8.639,14.792.994-.821,1.23-2.213,1.025-3.8-3.271-6.488-5.7-9.2-8.335-12.846a3.336,3.336,0,0,1,.674-.071c2.091,0,3.58,2.118,5.858,4.811a8.716,8.716,0,0,1,.994,3.4,88.116,88.116,0,0,1,8.5,17.181,51.27,51.27,0,0,1,3.036,19c-.06-.167-.1-.233-.135-.233-.072,0-.072.361-.025.637-.41-1.238-.881-2.934-1.377-4.327a2.182,2.182,0,0,1,.713,1.391c.995-1.168-1.022-2.724.2-3.486-.164-.426-.261-.561-.354-.561-.134,0-.26.279-.566.372.034-1.108.638-1.542-.133-3.442a2.313,2.313,0,0,0-1.41-1.188c.186,1.379.745,1.465.927,2.848-.589.452-.733,1.385-1.078,2.14.21.339.561.271.64,1,.116.525.113.7.047.7s-.174-.142-.3-.285-.259-.285-.361-.285a.094.094,0,0,0-.023,0,16.189,16.189,0,0,0,.069,3.2c.139,1.044.5,1.916,1.295,2.177-.745,2.12-1.3,8.133.937,9.922a12.487,12.487,0,0,0-.362,4.135c.031.822.111,1.7.182,2.6.05.9.1,1.838.151,2.772.2,3.739-.045,7.573-1.8,9.532a22.91,22.91,0,0,1-.559,5,18.577,18.577,0,0,1-1.49,4.3,70.135,70.135,0,0,1-5.9,20.932A65.559,65.559,0,0,1,194.4,169.606a9.732,9.732,0,0,1-.555.88c-.237.21-.5.462-.784.734a20.057,20.057,0,0,1-1.125,2.314,1.484,1.484,0,0,1,.181.182l-.256.2-.094-.1c-.147.249-.294.5-.458.754a24.691,24.691,0,0,1-2.854,3.443,1.924,1.924,0,0,0,.838-.47.121.121,0,0,1,.084-.023h.036a8.477,8.477,0,0,0,1.08-1.432.57.57,0,0,1,.16-.024.638.638,0,0,1,.447.207,1.975,1.975,0,0,0-1.314,1.356l.115.044a.328.328,0,0,1,.174.25c-.01.207-.015.548-.126.6a3.843,3.843,0,0,1-1.519.337,3.143,3.143,0,0,1-.66-.07q-.4.6-.7,1.179a5.3,5.3,0,0,0,.606.317c.659.288.67,1.559.084,1.989a11.807,11.807,0,0,0-1.4.822,5.987,5.987,0,0,0-.749,1.258v.006a.235.235,0,0,0,.138.045.649.649,0,0,0,.411-.241c.38.168.007.393-.234.393a.2.2,0,0,1-.141-.044c-.1.084-.187.166-.267.247q-.062.267-.125.536a2.535,2.535,0,0,0,.407-.4l.3.311a4.262,4.262,0,0,0-.789.419,14.808,14.808,0,0,1-1.4,3.851.7.7,0,0,0,.234.036,1.376,1.376,0,0,0,.292-.035c.18-.152.366-.324.556-.508a.645.645,0,0,1-.125.379c.35-.141.723-.348,1.087-.526a1.272,1.272,0,0,1-.182.443c.263-.187.518-.391.788-.561a7.54,7.54,0,0,1,2.131-2.369.515.515,0,0,0,.11.487,14.916,14.916,0,0,0,2.486-2.83,6.684,6.684,0,0,1,2.519-2.307c-.03.616-.965.445-1.532,1.481h.009c1.062,0,2.31-1.345,3.313-2.4.276.478-.887,1.486-.308,1.858a7.328,7.328,0,0,0-2.174,1.732,29.4,29.4,0,0,1-2.113,2.38c-.174-.21.574-.681.276-.853-.95,1.233-1.57,1.788-2.215,2.567.1-.02.194-.043.289-.053a51.256,51.256,0,0,1,4.547-3.79,28.8,28.8,0,0,0,3.956-3.752c1.246-1.59,1.393-3.4,2.354-4.866,1.286-2.132,3.238-3,3.823-5.141a.611.611,0,0,1,.4-.14,1.474,1.474,0,0,1,.295.04,1.466,1.466,0,0,0,.295.041.72.72,0,0,0,.58-.325c1.112-3.916,4.96-8.352,6.835-13.7a49.626,49.626,0,0,0,2.349-15.252c.185-.793.48-.923.693-1.409-.2-1.989.2-2.944.379-5.133.249.268.368.328.5.328a1.2,1.2,0,0,0,.164-.019,1.478,1.478,0,0,1,.225-.019,1.719,1.719,0,0,1,.368.044c-.23.349-.57.265-.728,1.013-.341,1.042.312,1.1.39,1.733-1.948,2.543-.647,6.54-1.835,9.358a12.08,12.08,0,0,1,.467,4.531,23.109,23.109,0,0,1-1.243,5.233c-1.2,3.25-3.5,5.775-5.3,8.662-1.2,2.073-2.586,4.254-3.868,6.433a47.085,47.085,0,0,1-4.2,5.737c-.337.484.408.517-.019,1.04a19.945,19.945,0,0,1-5.729,6.5c-2.338,1.729-4.8,3.252-7.2,4.788a17.017,17.017,0,0,0-2.172,1.78c-.733.633-1.464,1.3-2.213,1.918-.175.148-.354.291-.533.43.048.1-.009.237-.431.563a.742.742,0,0,0-.161-.132,7.547,7.547,0,0,1-2.154,1.045c-.974.914-2.081,2.047-3.172,2.16-.23.248-.337.48-.179.671-1.112.613-2.114,1.188-3.065,1.75a47.524,47.524,0,0,1-6.678,4.335l-.055.036c-1.021.571-2.069,1.124-3.206,1.646a.859.859,0,0,1,.027-.1c-.339.15-.679.285-1.018.425q-.66.627-1.247,1.257c-.019-.038-.073-.055-.154-.055a2.731,2.731,0,0,0-.832.219c.06.279-.012.487-.242.487-.019,0-.039,0-.06,0a4.122,4.122,0,0,0-.584-.035H159.7c-.553.331-1,.729-.937,1.069a1.266,1.266,0,0,0-.159-.009c-1.117,0-4.283.968-4.706,1.828a1.245,1.245,0,0,0-.647-.167,3.961,3.961,0,0,0-1.451.4,1.034,1.034,0,0,1-.792.333,5.78,5.78,0,0,1-.748.246c-.07.075-.12.149-.108.176.176.386.375.761.573,1.137a6.341,6.341,0,0,1,1.467-.266c.228,0,.4.042.447.155a2.647,2.647,0,0,0-1.607.444.327.327,0,0,0-.248-.219c.093.175.186.349.275.526a1.206,1.206,0,0,1,.073.258.715.715,0,0,0,.311-.258,1.2,1.2,0,0,1,.251-.041c.319,0-.341.445-.044.581.859-.325.4-.806,1.354-1.119-.175.4-.694.769-.725,1.194.951-.316.8-.76,1.669-1.087.038.092.146.108.267.108l.1,0,.1,0c.163,0,.3.028.284.232-.082-.006-.16-.009-.232-.009-.867,0-1.066.407-1.813.93a.434.434,0,0,0,.143.019c.775,0,3.393-1.056,3.73-1.639h.01a2.675,2.675,0,0,0,.742-.191,2.7,2.7,0,0,1,.739-.189c.133,0,.226.045.252.167-.76.407-.869.072-1.628.477,0,.127.073.171.184.171a1.667,1.667,0,0,0,.454-.108c-.727.628-2.235.535-3.152,1.205-.367.205.172.13.162.4-.536.656-2.116.39-2.014,1.06a1.571,1.571,0,0,0-.231-.017c-1.211,0-3.13,1.27-4.271,1.727a2.528,2.528,0,0,0-.619-.073c-1.144,0-2.492.631-3.879.853a.964.964,0,0,0,.617.2c.646,0,1.514-.435,2.787-.671-.406.658-2.065.4-3.244,1.03.03-.161-.058-.215-.207-.215a2.722,2.722,0,0,0-.6.12,2.754,2.754,0,0,1-.6.119c-.185,0-.276-.085-.159-.355a7.378,7.378,0,0,1-3.59.771c-.9,1.366-4.884,1.245-5.935,1.944l-4.066.571-2.117.29-2.173.149Zm7.929-2.654c-.48,0-.925.115-1.077.462,1.035-.157,2.625-.166,2.2-.29A4.1,4.1,0,0,0,122.833,220.871Zm1.39-.67c-.252.035-.5.076-.757.109a3.916,3.916,0,0,0,1.786.434c.523,0,.98-.13,1.12-.483a6.506,6.506,0,0,1-.934.07A5.75,5.75,0,0,1,124.223,220.2Zm3.627-.279c-.593,0-1.4.2-1.163.586a3.748,3.748,0,0,0,1.606-.532A1.474,1.474,0,0,0,127.85,219.922Zm-5.088.473-.04,0h.055Zm6.447-.557c-.121.017-.253.041-.367.053a1.222,1.222,0,0,0,.9.234h.1A4.743,4.743,0,0,0,129.209,219.838Zm2.67-.334a2.468,2.468,0,0,0-.261.286,1.85,1.85,0,0,0,.54-.275.622.622,0,0,0-.128-.01h-.088Zm2.534-1.783a.336.336,0,0,0-.121.022,2.93,2.93,0,0,0-.367.2,4.8,4.8,0,0,1-.457.44c-.1.027-.2.046-.3.072-.155.111-.309.227-.463.346.017.118.142.21.491.25-.08-.2.437-.536,1.032-.536a1.4,1.4,0,0,1,.58.12l.059-.04a1.31,1.31,0,0,0,.061-.273A.569.569,0,0,0,134.413,217.721Zm5.121-.233a2.23,2.23,0,0,0-.553.12,2.973,2.973,0,0,0-.4.262c-.008.039-.03.061-.04.1.311-.074.676-.15,1.169-.241C139.758,217.549,139.68,217.488,139.534,217.488Zm2.644-.193a1.345,1.345,0,0,0-.551.082l.155.556a3.436,3.436,0,0,0,.385.023,3.212,3.212,0,0,0,1.743-.534,2.2,2.2,0,0,1-.26-.268,1.03,1.03,0,0,1-.68.369.779.779,0,0,1-.147-.015c-.066-.12.86-.5.366-.5a2.119,2.119,0,0,0-.219.015c-.061.256-.321.276-.618.276h-.174Zm-37.223-.386c.21,0,.31.068.86.58a2.13,2.13,0,0,0,.4.044c.467,0,.538-.238.954-.268a.4.4,0,0,0-.283-.174c-.074.022-.163.034-.234.058-.034-.022-.088-.037-.126-.057-.284.029-.6.1-.842.1a.968.968,0,0,1-.124-.008c.189-.088.375-.179.549-.276a7.772,7.772,0,0,0-1.666-.274.843.843,0,0,1-.576.168c-.051,0-.1,0-.163-.007a4.5,4.5,0,0,0,.953.12c.066,0,.121,0,.17-.005S104.917,216.909,104.955,216.909Zm8.366-.486c-.435.038-.87.072-1.3.1a26.943,26.943,0,0,0-4.664.447,6.167,6.167,0,0,0,1.956.528c.365-.029.228-.351.277-.566.041,0,.079,0,.114,0,.45,0,.395.248.417.46a21.926,21.926,0,0,1,2.845-.248l1.338-.011a2.373,2.373,0,0,0-.872-.67C113.393,216.453,113.358,216.436,113.321,216.423Zm28.9.327c-.755.239-1.562.3-2.321.5a1.025,1.025,0,0,0,.63.216,1.887,1.887,0,0,0,.523-.086c.042-.327.037-.377.167-.377.029,0,.064,0,.107,0s.1.005.158.005a4,4,0,0,0,1.136-.2A1.664,1.664,0,0,0,142.22,216.75Zm-26.483.3a.317.317,0,0,0-.123.024l.219-.011A.4.4,0,0,0,115.737,217.047Zm-14.695-.147c.648,0,1.093.089,2.107.148a6.091,6.091,0,0,0-1.259-.417c-.478.031-.918.076-1.257.131a.424.424,0,0,0,.03.147C100.8,216.9,100.924,216.9,101.042,216.9Zm45.448-.072a.569.569,0,0,1,.268.073.586.586,0,0,0,.27.072,1.238,1.238,0,0,0,.521-.155.51.51,0,0,1-.246-.337v-.044c-.385.115-.875.209-.9.4A.638.638,0,0,1,146.49,216.828Zm-43.3-.237h-.031a3.871,3.871,0,0,0,.649.06,2.559,2.559,0,0,0,.395-.029C103.864,216.6,103.526,216.591,103.186,216.591Zm39.666-.045a.482.482,0,0,0-.2.045l-.077.028.377-.063A.549.549,0,0,0,142.852,216.546Zm-43.162-.121a1.013,1.013,0,0,0-.194-.259c-.187.033-.4.054-.612.073A3.241,3.241,0,0,0,99.69,216.425Zm47.208-.883c.194,0,.1.372-.714.6.087.1.315.064.356.2a4.1,4.1,0,0,0,.762-.093.546.546,0,0,1,.416-.567,1.992,1.992,0,0,0,1.336-.939.289.289,0,0,0,.029-.254.465.465,0,0,0-.265-.192.706.706,0,0,0-.141-.015c-.424,0-.7.412-1.049.476a.365.365,0,0,1-.081.008c-.327,0-.706-.336-1.078-.425a.179.179,0,0,0-.034,0c-.158,0-.46.2-.473.318-.05.454-.063.913-.074,1.372.173-.033.347-.065.518-.1C146.609,215.647,146.795,215.542,146.9,215.542Zm-70.273-.963c-.449.717.52,1.239,1.506,1.75C78.145,215.667,77.025,215.176,76.625,214.579ZM90.641,215a8.928,8.928,0,0,1,1.958.422,5.234,5.234,0,0,0,1.062.139,1.753,1.753,0,0,0,1.036-.291l.027.01a.91.91,0,0,1-.255-.589c-1.091-.145-2.144-.34-3.166-.574-.034-.008-.066-.021-.1-.031.537.552,1.032.522,2.192.836a.5.5,0,0,1-.4.14c-.72,0-2.064-.7-3.009-.876,0-.08.055-.108.145-.108a2,2,0,0,1,.433.087,1.953,1.953,0,0,0,.433.088c.115,0,.177-.047.128-.19-.633-.169-1.242-.374-1.853-.574-.232.063-.328.171-.036.367.007.079-.046.106-.13.106a1.6,1.6,0,0,1-.331-.06,1.6,1.6,0,0,0-.331-.06c-.12,0-.176.056-.082.246-.443-.217.018-.265.092-.421-2-.148-4.307-1.124-6.315-1.309.346-.126.369-.258-.142-.492-.1.331-1.649.05-1,.573a1.181,1.181,0,0,1-.188.013,2.451,2.451,0,0,1-1.385-.4c-.278.032-.273.283-.51.738a12.262,12.262,0,0,0,2.556.515c.384,0,.606-.1.512-.388.491.148.056.506.671.623.129.005.255.007.38.007.209,0,.416-.005.63-.011s.434-.01.67-.01a14.959,14.959,0,0,1,3.243.372.227.227,0,0,1-.206.077,2.541,2.541,0,0,1-.486-.078,2.534,2.534,0,0,0-.486-.077c-.141,0-.233.043-.226.175a11.48,11.48,0,0,0,2.736.414,1.548,1.548,0,0,0,.788-.14,1.235,1.235,0,0,0,.676.753A1.937,1.937,0,0,1,90.641,215Zm-16.426-1.13c-.378.348.856.918,1.489.918.229,0,.38-.074.348-.261C75.586,214.018,75.119,214.325,74.215,213.872Zm13.416-.932c-.063.082-.024.152.367.318a1.4,1.4,0,0,0,.088-.152C87.932,213.054,87.782,213,87.631,212.94Zm-1.709-.681a1.411,1.411,0,0,0-.485.209c.3.015.886.293,1.169.293.092,0,.153-.029.16-.107-.1-.036-.137-.069-.148-.1C86.384,212.458,86.153,212.359,85.922,212.259Zm-9.479-.477a4.373,4.373,0,0,0-.654.052c.777.212,1.66.9,2.253.9a.53.53,0,0,0,.361-.125c-.942-.406-.659-.441-.226-.441h.282a2.192,2.192,0,0,0,.372-.022A16.147,16.147,0,0,0,76.442,211.782Zm2.075-.229a2.158,2.158,0,0,1,.876.23,1.955,1.955,0,0,0,.666.231.332.332,0,0,0,.258-.114c-.455-.073-1.288-.556-1.669-.556-.132,0-.21.058-.2.21Zm-3.931-1.09h-.05a3.8,3.8,0,0,0,1.8.724c.146,0,.25-.038.284-.128C75.539,210.835,75.273,210.463,74.587,210.463Zm-3.641.2a.889.889,0,0,0-.283.04,1.4,1.4,0,0,0,1,.44c.195,0,.348-.061.38-.209A3.078,3.078,0,0,0,70.946,210.658Zm-10.387-.96-.127,0c.7.47.9.868,1.648.868.043,0,.089,0,.136,0C61.512,210.1,61.324,209.7,60.559,209.7Zm5.873-.871c-.377,0-.512.291-.3.57a11.888,11.888,0,0,1,2,.935c.172-.8-2.065-.805-.97-1.245A1.459,1.459,0,0,0,66.432,208.827Zm.075.9.073.038-.073-.038c-.752-.4-1.619-1.2-2.2-1.2a.489.489,0,0,0-.231.053c.467-.446-.982-.821-1.246-1.241-.012.485-.614.175-.627.659C63.323,208.787,64.9,208.9,66.506,209.727Zm92.827-.976c-.178.013-.355.03-.53.059a6.22,6.22,0,0,1-.654.326.529.529,0,0,1-.063.51C158.49,209.355,158.945,209.029,159.333,208.751ZM57.309,207.432a.226.226,0,0,0-.2.09c.275.229.41.454.281.664a6.054,6.054,0,0,1,1.651,1.126c.472-.286-.662-.64-1.095-.966.564-.014-.048-.355.513-.369A3.044,3.044,0,0,0,57.309,207.432Zm105.544-4.694a.724.724,0,0,0-.492.2c-.706.657-.931,1-.82,1.6a13.583,13.583,0,0,0,1.991-1.336.264.264,0,0,0-.035-.112A.822.822,0,0,0,162.853,202.738Zm2.449-1.264a1.421,1.421,0,0,0-.954.992A12.643,12.643,0,0,0,165.3,201.474ZM44.677,196.647a1.66,1.66,0,0,1,.909.444,1.7,1.7,0,0,0,.972.444h.017c-1.221-1.3-3.045-2.162-4.081-3.291l-.445.57c1.077.394,1.344.92,2.411,1.868A.7.7,0,0,1,44.677,196.647ZM169.8,195.9h-.027c-.551.03-.664.415-.7.85A7.106,7.106,0,0,0,169.8,195.9ZM42.018,194.4c-.631-.934-2.182-1.983-3.745-3.7a.9.9,0,0,1-.457.124c-.891,0-1.788-1.263-2.475-1.417a4.311,4.311,0,0,0,3.474,2.359C39.241,192.847,40.887,194.38,42.018,194.4Zm-.492-3.04a.592.592,0,0,0-.275.063c.129.346.986,1.208,1.38,1.208a.171.171,0,0,0,.14-.061c-.222-.228-.078-.372.069-.515A2.337,2.337,0,0,0,41.527,191.364Zm-6.437-.428c.38.244.978,1.058,1.267,1.058a.12.12,0,0,0,.083-.031c-.527-.549-1.064-1.827-1.654-1.827a.388.388,0,0,0-.125.02c.5.427.935.818.651.818A.941.941,0,0,1,35.09,190.936Zm149.507-.78c-.743.358-1.53.639-1.649,1.236a.6.6,0,0,0,.122.065l.379-.322C183.826,190.792,184.211,190.473,184.6,190.156ZM39.585,188.782c-.225.165.017.443-.178.616.817.527,1.158,1.386,1.555,1.386a.32.32,0,0,0,.161-.047A13.593,13.593,0,0,0,39.585,188.782Zm-3.885-.09a.19.19,0,0,0-.173.107l1.023.932.29-.322C36.48,189.23,35.991,188.692,35.7,188.692Zm-6.051-3.06c0-.379-.087-1.487-.435-1.535.192.262.177.326.085.326a.9.9,0,0,1-.166-.028.929.929,0,0,0-.188-.028c-.083,0-.146.029-.149.128.209.261.559.571.47.723-.285-.275-.624-.74-.832-.74a.133.133,0,0,0-.04.006C28.891,185.4,28.934,184.93,29.649,185.632Zm163.881-2.777c-.172.067-1.1.713-.9.991C193.024,183.663,193.765,183.35,193.53,182.855Zm-6.955-1.82c-.049.118-.1.236-.143.354a.372.372,0,0,0,.169-.118A.168.168,0,0,0,186.575,181.035Zm-160.31-.559c-.1,0-.018.305.12.507a.384.384,0,0,1,.281-.1,1.267,1.267,0,0,1,.232.028c-.246-.276.017-.358-.159-.606a.16.16,0,0,1-.054.011c-.135,0-.213-.225-.288-.452-.265.123.015.487.017.724C26.344,180.508,26.3,180.476,26.265,180.476Zm-.5-1.206c-.249,0-.309.136-.536.5.237.295.422.407.563.407.3,0,.4-.49.376-.845A2.148,2.148,0,0,0,25.76,179.27Zm.409-6.32c-.873-1.078-2.1-2.687-3.122-4.139-1-1.468-1.928-2.686-2.517-2.778.635.737,1.552,2.194,2.538,3.62A17.5,17.5,0,0,0,26.17,172.95Zm-3.687-2.938a.2.2,0,0,0-.106.029,4.029,4.029,0,0,0,.854,1.4l.348-.258C23.193,170.667,22.788,170.012,22.483,170.012Zm-.957-1.039c-.355.148,0,.7.235,1.174l.351-.252ZM19,168.72l-.02,0c.557.707-.7.666.356,1.107-.061.04-.023.242.108.242a.122.122,0,0,0,.041-.006c-.156-.291.026-.387.206-.483C19.459,169.255,19.207,168.72,19,168.72Zm-1.224-6.4h-.034c.458.454.968,1.655,1.4,1.655a.233.233,0,0,0,.1-.024C18.566,163.375,18.5,162.322,17.779,162.322ZM9.435,129.633c.635,3.2,1.456,5.913,1.949,9.059,1.122,1.474,1.859,6.28,3.321,7.2a2.411,2.411,0,0,0-.2-2.176.563.563,0,0,1-.294.1c-.2,0-.38-.178-.518-.633a.706.706,0,0,0,.377.123.678.678,0,0,0,.387-.135,6.763,6.763,0,0,1-1.217-2.892.411.411,0,0,0-.1-.016c-.478,0,.523,1.3.148,1.391-.9-1.817-.5-1.767-.867-3.579-.088-.133-.15-.184-.2-.184-.074,0-.106.132-.131.265s-.045.264-.094.264c-.029,0-.069-.046-.127-.165.412-.664-.37-1.447.064-1.947-.788-2.652-.9-2.817-1.682-5.252.2-.094.537-.038.493-.392-.316-.026-.331-1.191-.656-1.191a.185.185,0,0,0-.088.025c.037.472.2,1.071.044,1.339a9.388,9.388,0,0,0-.912-3.007.412.412,0,0,0-.3-.189c-.244,0-.491.37-.7,1.2a1,1,0,0,1,.512-.26c.182,0,.325.173.563.559-.439.068-.241,1.578.189,1.578a.143.143,0,0,0,.029,0C9.568,130.519,9.186,129.732,9.435,129.633Zm5.29,10.948c-.322-1.015-.026-1.676-.8-1.908C14.138,139.25,14.368,140.505,14.725,140.581Zm-.846-7c.358.614,0,1.47.389,1.47a.455.455,0,0,0,.146-.029C14.35,134.356,14.313,133.826,13.878,133.576Zm-4.427-.4c-.405-.99.214-.882-.186-1.871-.279.009-.234.369-.492.4C9.015,132.126,9.153,132.983,9.452,133.178Zm8.2-1.686c-.049-.281.152-.315.353-.349a31.966,31.966,0,0,1-.779-3.394l-.321-3a11.988,11.988,0,0,0-1.513-5.04c-.008.514.423,1.562.121,1.717a.278.278,0,0,1-.1.019.4.4,0,0,1-.219-.09.4.4,0,0,0-.22-.09.265.265,0,0,0-.071.01c.107.421-.207,1.285.234,1.463-.114-.4.071-1.02.272-1.02.061,0,.123.057.179.193.187,1.362.353,3.131.615,4.883l.217,1.3c.112.422.232.836.359,1.235A13.572,13.572,0,0,0,17.651,131.492Zm-12.317-28.3a10.053,10.053,0,0,0-.352,1.605c-.01.353.245.244.272.535a33.1,33.1,0,0,0-.212,8.125c.092,1.339.223,2.644.381,3.881.08.619.161,1.22.258,1.8.03.123.057.235.087.357l-.452.06c.654,3,.209,5.536,1.31,8.254.677-1.219-.4-4.693-.359-6.76.7.469.2,3.657.9,4.733-.07-.564-.026-.728.082-.728a.79.79,0,0,1,.3.16.785.785,0,0,0,.4.159.317.317,0,0,0,.165-.045,5.078,5.078,0,0,0-.542-3.4c.013.467.375,1.382.03,1.382a.321.321,0,0,1-.108-.021,12.721,12.721,0,0,0-.772-3.114h.02a.571.571,0,0,1,.235.058.485.485,0,0,0,.16.059c.075,0,.112-.1.117-.461-.468-.31.1-.935-.038-1.59a.116.116,0,0,0-.05-.012c-.087,0-.173.1-.257.195s-.163.2-.235.2-.122-.075-.172-.292a5.178,5.178,0,0,0,.57-2.192c-1.037-3.813-1.021-8.48-1.083-11.068-.027.232-.148.279-.294.279-.048,0-.1-.005-.149-.01C5.524,104.525,5.778,103.262,5.334,103.194ZM196.62,127.131a.3.3,0,0,0-.079.312c0,.012.071.021.13.021h.03C196.674,127.353,196.648,127.241,196.62,127.131ZM9.729,127.15c-.5-1.531-.162-3.068-.921-3.824A28.5,28.5,0,0,0,8.7,127.1a.692.692,0,0,1,.347-.1C9.29,127,9.487,127.141,9.729,127.15Zm2.212-2.294a.278.278,0,0,0-.107.023.677.677,0,0,0,.527.927.472.472,0,0,0,.065,0C12.3,125.383,12.215,124.856,11.941,124.856Zm-.778-1.419c.2.705.431,1,.637,1,.229,0,.431-.365.539-.953-.2-.713-.44-2.541-.784-4.04-.306-1.226-.535-2.25-1.015-2.25a.587.587,0,0,0-.356.158,23.544,23.544,0,0,0,.662,2.965c.207.825.389,1.71.64,3.318l-.027,0C11.336,123.642,11.277,123.466,11.163,123.437Zm-3.029-4.524c-.545.185.153,2.01-.22,2.425.36.124.515.8.873.925C8.892,120.89,7.882,120.109,8.133,118.913Zm6.091-8.692a14.256,14.256,0,0,0-.095,5.312c.129.876.257,1.747.38,2.585a23.451,23.451,0,0,1,.422,2.4c.989-.138-.6-2.321.016-3.223.338.546-.071,2.134.657,2.134a.7.7,0,0,0,.176-.026c-.315-1.475-.185-.671-.067-1.467-.523-.813-.368-1.253-.5-3.126a.2.2,0,0,0-.095-.027c-.139,0-.228.191-.3.381s-.121.381-.184.381c-.032,0-.068-.05-.111-.175.242-.459-.245-.743.225-1.008a.475.475,0,0,0,.394.173.559.559,0,0,0,.468-.251c-.453-.828-.393-3.322-1.115-4.324-.054.669.289,1.931-.023,2.213h-.006c-.229,0-.115-.676-.323-.718-.023.191.024.484-.116.5C13.893,111.042,14.542,110.728,14.224,110.221ZM8.7,118.049a.179.179,0,0,0-.06.012c-.063.171-.536.858-.043,1.054-.024-.232,0-.309.06-.309s.13.071.207.142.154.142.207.142.084-.076.06-.307h0c-.128,0-.173-.184-.216-.367S8.829,118.049,8.7,118.049Zm-.188-5.633c-.536,0-.472,3.715-.034,5.4.447-2.177-.288-3.9.246-5.242C8.648,112.466,8.577,112.416,8.515,112.416Zm199.561-3.48c-.143,0-.295.1-.435.356.146.51-.338,1.593.1,1.835,1.772.283,4,2.381,5.729,3.087.26-.448.052-.627.6-1.232-2.33-.374-2.9-2.691-5.4-2.968C208.764,109.621,208.449,108.936,208.076,108.936Zm6.767,4.315c-.294.1-.548-.006-.9.406-.1.357-.075.547.042.547C214.128,114.2,214.43,113.9,214.843,113.251ZM7.784,103.232c.1,1.53.009,3.249-.035,4.806a19.769,19.769,0,0,0,.358,3.8c.005-.409-.166-1.1.1-1.1a.31.31,0,0,1,.135.042C7.835,108.024,8.851,105.056,7.784,103.232Zm-.929-1.383a.426.426,0,0,0-.17.042,9.975,9.975,0,0,1,.2,3.547,11.459,11.459,0,0,0,.241,4.089c.3-.346.619-3.958.226-3.958-.061,0-.138.086-.236.284.131-1.574.04-1.936.273-3.415C7.151,102.337,7.15,101.849,6.855,101.849Zm-.734-.236c-.09.156-.391,1.251-.056,1.328C6.248,102.543,6.617,101.837,6.121,101.613Zm.908-1.591a.293.293,0,0,0-.114.028c-.092.8-.041,1.366.351,1.366a.573.573,0,0,0,.163-.027c.087-1.165.405-1.861.964-2.054-.109.661-.236.9.081,1.306.068-.528.321-.679.482-1.016-.22-1.4-.621-2.127-.117-3.916-1.176.652-.871,2.823-1.373,4.894C7.211,100.588,7.293,100.022,7.029,100.022Zm181.789-.91c.264,0-.141,1.426.113,1.47,1.343-1.98-.376-1.194.391-2.656.015-.025.028-.05.041-.075-.015.026-.028.051-.041.075-.373.648-1.283,1.216-1.2,2.01C188.509,99.33,188.714,99.112,188.818,99.112Zm8.963.932a1.059,1.059,0,0,0-.124.437C197.7,100.335,197.742,100.189,197.781,100.044Zm-.118-3.124a2.111,2.111,0,0,1,.01.791c0,.065,0,.132,0,.2a1.428,1.428,0,0,0,.324.925A3.332,3.332,0,0,0,197.663,96.92Zm-8.445-.408c-.054,0-.121.042-.2.138.159.248-.389,1.133.045,1.133a.461.461,0,0,0,.08-.008C189.425,97.25,189.442,96.512,189.218,96.512Zm7.793-3.909-.071.044c-.615.481-.627.806-.166,1.7a3.936,3.936,0,0,1,.206.58c-.579.192-.8.573-.434,1.124a2.178,2.178,0,0,0,.827.841c.011-.479.026-.946.029-1.4a.561.561,0,0,1-.358-.537c.117,0,.234-.006.348-.012A7.88,7.88,0,0,0,197.011,92.6ZM8.388,91.659c-.331,0-.608,1.118-.342,1.332.043-.193.139-.246.256-.246a.964.964,0,0,1,.212.034,2.465,2.465,0,0,0,0-1.06A.188.188,0,0,0,8.388,91.659Zm188.18-1.151a12.182,12.182,0,0,0-.22-2.2,23.313,23.313,0,0,0-.812-3.239.776.776,0,0,0-.125,1.221c.613.844-.2,2.075.776,2.84.133.1.146.417.14.632A1.033,1.033,0,0,0,196.568,90.508ZM23.6,68.967c-.064.094-.128.193-.192.285a22.052,22.052,0,0,0-1.453,2.489,27.371,27.371,0,0,1-2.391,6.666,26.1,26.1,0,0,0-1.827,6.858,12.574,12.574,0,0,1,1.315-.162,1.153,1.153,0,0,1,.576.129c.168-1.424.867-3.789.255-3.789a.53.53,0,0,0-.263.1c-.236-1.633,2.819-4.065,2.05-5.781a19.126,19.126,0,0,0,1-2.9c.274-.91.475-1.8.677-2.742C23.423,69.744,23.509,69.357,23.6,68.967Zm-7.77,4.938c-.071.45-.664,1.374-.37,1.5C15.755,75.146,16.2,74.027,15.829,73.906ZM13.652,71.84c-.1.542-.743,1.582-.473,1.785C13.408,72.641,14.4,72.2,13.652,71.84ZM33.332,68.7a2.529,2.529,0,0,0-.146.56.314.314,0,0,0,.1.031v0a.55.55,0,0,0,.045-.316A1.688,1.688,0,0,1,33.332,68.7ZM18.487,63.6c-.319.5-.587,1.5-.363,1.5.048,0,.118-.045.215-.15C18.141,64.835,19.244,63.651,18.487,63.6Zm19-8.177c.022.062.042.126.064.188.028-.047.057-.1.086-.142l-.149-.046-.025-.072-.047.049Zm1.552-.55-.1.206.2.224.215-.209-.156-.11Zm-.758-4.231a.4.4,0,0,0,.267.538,10.682,10.682,0,0,1-.746.778h0a.429.429,0,0,0,.065-.007.367.367,0,0,1,.064-.007h.028a1.22,1.22,0,0,0,.145.009.6.6,0,0,0,.636-.778A.615.615,0,0,0,38.276,50.64Zm5.782-12.215c-.115,0-.357.244-.4.4-.05.176.058.575.123.581,1.286.11,2.12,1.109,3.211,1.588a.184.184,0,0,0,.073.013c.077,0,.169-.032.25-.04a.942.942,0,0,1,.076-.061c.05-.061.1-.108.152-.166l.008-.01c.05-.208.142-.557.051-.625a9.894,9.894,0,0,0-3.524-1.682Zm3.636-.076c-.04.481.338.707.64.962a.885.885,0,0,0,.495.169h0c.185,0,.19-.657,0-.855a1,1,0,0,0-.787-.29c-.117,0-.236.008-.355.014l0-.046-.072-.006a4.144,4.144,0,0,0-.216-.453c0-.007-.019-.009-.041-.009-.064,0-.18.025-.183.044-.063.383.19.4.44.418l.026.054Zm1.7-1.943-.31.52h0l.274.583c.107-.182.292-.362.3-.548S49.487,36.591,49.392,36.405Zm2.671-2.656c-.02,0-.034,0-.038.009a4.132,4.132,0,0,0-.222.449l-.068.007-.005.045c-.306.013-.612.014-.915.05-.088.011-.162.136-.242.208.127.123.235.317.384.355a1.03,1.03,0,0,0,.251.035c.345,0,.513-.238.522-.648l.049,0,.024-.049c.246-.022.494-.044.442-.414C52.242,33.775,52.125,33.75,52.063,33.75Zm7.9-2.167c-.174,0-.433.084-.451.168-.07.316.122.4.339.4a1.1,1.1,0,0,0,.165-.013,1.75,1.75,0,0,0,.5-.252h0c-.082-.053-.161-.121-.242-.178a.591.591,0,0,0-.25-.118A.407.407,0,0,0,59.958,31.582Z" fill="#8bb73f"/>
    <path id="Path_18482" data-name="Path 18482" d="M42.718,47.618c-33.409,43.494-26.527,91.4-18.91,109.917a15.067,15.067,0,0,1,5.748,16.94c-3.314,11.031,10.8,15.759,9.223,7.486s12.607-5.91,25.608,0,3.152-33.882-21.668-65.793,18.911-26,34.669-32.305,11.819-13,0-14.971-3.152,0-13-21.274C56.507,30.6,46.658,40.526,42.718,47.618Z" fill="rgba(150,213,221,0.91)"/>
    <path id="Path_18483" data-name="Path 18483" d="M94.762,14.25c-19.1-3.434,2.951,17.351,16.368,28.173,3.22.537,9.714,3.327,9.929,10.2.268,8.586,33.807,17.44,24.148,4.83s6.439-9.928,19.855-13.416-1.073-20.124-7.245-26.831-26.562-4.293-29.782-2.951S118.643,18.543,94.762,14.25Z" fill="rgba(150,213,221,0.91)"/>
    <path id="Path_18484" data-name="Path 18484" d="M94.94,209.228c76.643,15.133,94.834-24.579,97.465-48.135-2.756-5.541,7.819-7.733,16.254-13.5,4.348-2.972-1.378-21.2-3.1-29.852-2.542-12.773-5.341,4.6-19.019-17.438s-36.164,2.6-24.638,59.251-48.188,2.513-74.29-14.674-22.852-11.945-16.29,10.143c8.134,27.379,1.515,11.881,0,40.452C70.11,218.333,84.515,208.831,94.94,209.228Z" fill="rgba(150,213,221,0.91)"/>
    <g id="Group_24561" data-name="Group 24561" clip-path="url(#clip-path)">
      <path id="Path_18485" data-name="Path 18485" d="M100.433,108.23c19.937-4.211,37.762-2.711,40.8-.252a3.582,3.582,0,0,0,6.939,1.72,6.3,6.3,0,0,0-1.376-6.279c-6.367-7.047-38.464-3.282-53.993,0-8.344,1.762-5.094-1.143-5.893-1.475a1.626,1.626,0,0,1,.1-.246,3.581,3.581,0,0,0-6.225-3.543,7.36,7.36,0,0,0,.135,7.932C83.6,109.795,89.8,110.477,100.433,108.23Z" fill="#353535"/>
      <path id="Path_18486" data-name="Path 18486" d="M99.239,126.136c19.936-4.211,37.764-2.709,40.8-.252a3.582,3.582,0,0,0,6.938,1.72,6.293,6.293,0,0,0-1.376-6.278c-6.366-7.048-19.759-4.756-35.289-1.475-8.344,1.762-23.111,2.549-23.61,1.068a2.246,2.246,0,0,1-.986-1.9,2.907,2.907,0,0,0-1.232-4.26,3.584,3.584,0,0,0-4.9,1.3,7.362,7.362,0,0,0,.135,7.933C82.4,127.7,88.605,128.383,99.239,126.136Z" fill="#353535"/>
    </g>
  </g>
</svg>
