<svg width="32" height="33" viewBox="0 0 32 33" fill="none" xmlns="http://www.w3.org/2000/svg">
<path d="M29.3333 4.15039H2.66669C1.19594 4.15039 0 5.34633 0 6.81708V25.4838C0 26.9545 1.19594 28.1504 2.66669 28.1504H29.3334C30.8041 28.1504 32 26.9545 32 25.4837V6.81708C32 5.34633 30.8041 4.15039 29.3333 4.15039ZM2.66669 5.4837H29.3334C29.4316 5.4837 29.5182 5.51952 29.6104 5.53977C27.3017 7.6527 19.6464 14.656 16.9675 17.0696C16.7579 17.2585 16.42 17.4837 16.0001 17.4837C15.5801 17.4837 15.2423 17.2585 15.0319 17.069C12.3533 14.6557 4.69756 7.65208 2.38925 5.53989C2.48163 5.51964 2.56838 5.4837 2.66669 5.4837ZM1.33331 25.4837V6.81708C1.33331 6.68645 1.37269 6.56795 1.40794 6.44858C3.17494 8.06583 8.51644 12.9523 11.9799 16.1019C8.52769 19.0673 3.18481 24.1328 1.40375 25.8312C1.37231 25.7178 1.33331 25.607 1.33331 25.4837ZM29.3333 26.8171H2.66669C2.56019 26.8171 2.4655 26.78 2.36606 26.7562C4.2065 25.0017 9.58337 19.9071 12.9749 17.0056C13.4171 17.4067 13.8209 17.7724 14.1393 18.0593C14.6888 18.5554 15.332 18.8171 16 18.8171C16.668 18.8171 17.3112 18.5553 17.86 18.0599C18.1785 17.7729 18.5827 17.4069 19.0251 17.0056C22.4168 19.9068 27.7929 25.001 29.6339 26.7562C29.5345 26.78 29.4399 26.8171 29.3333 26.8171ZM30.6667 25.4837C30.6667 25.6069 30.6277 25.7178 30.5963 25.8312C28.8146 24.132 23.4723 19.067 20.0201 16.102C23.4837 12.9524 28.8244 8.06633 30.5921 6.44845C30.6273 6.56783 30.6667 6.68639 30.6667 6.81702V25.4837Z" fill="#6E6E6E"/>
</svg>
