<svg id="Layer_2" height="512" viewBox="0 0 24 24" width="512" xmlns="http://www.w3.org/2000/svg"><g fill="rgb(0,0,0)"><path d="m18.4883 1.9893h-7.4854c-.5527 0-1 .4478-1 1s.4473 1 1 1h7.4854c.8428 0 1.5283.6836 1.5283 1.5239v12.9736c0 .8403-.6855 1.5239-1.5283 1.5239h-7.4854c-.5527 0-1 .4478-1 1s.4473 1 1 1h7.4854c1.9453 0 3.5283-1.5811 3.5283-3.5239v-12.9736c0-1.9429-1.583-3.5239-3.5283-3.5239z"/><path d="m5.2792 13.0034h9.6876c.5527 0 1-.4478 1-1s-.4473-1-1-1h-9.6665l3.062-3.2705c.3779-.4033.3574-1.0361-.0459-1.4136-.4033-.3779-1.0371-.3569-1.4131.0464l-4.5992 4.9117c-.1093.1022-.1937.2264-.2485.3686-.0258.0649-.0291.1337-.0407.2017-.0086.0528-.0314.1005-.0314.1556 0 .0021.0012.0039.0012.006-.0013.2474.0878.495.2693.6888l4.6494 4.9653c.1963.21.4629.3164.7295.3164.2451 0 .4902-.0894.6836-.27.4033-.3774.4238-1.0103.0459-1.4136z"/></g></svg>