<svg width="49" height="49" viewBox="0 0 49 49" fill="none" xmlns="http://www.w3.org/2000/svg">
<path d="M32.4945 17.347C22.9622 13.0733 25.4533 16.3313 22.3578 18.559C22.1259 19.2055 17.334 25.1994 15.5818 25.0972C13.3917 24.9694 13.1377 27.7929 14.6013 27.1362C16.0649 26.4795 16.2521 29.2119 15.7301 31.8815C15.2081 34.5511 21.7255 40.8723 26.5448 34.8664C31.3641 28.8605 32.6185 27.3243 34.4812 29.9666C36.3439 32.6089 37.9396 32.2436 37.7836 29.9666C37.6277 27.6896 36.1485 27.86 39.6566 25.0972C42.4631 22.8869 33.9823 17.7645 32.4945 17.347Z" fill="#96D5DD"/>
<circle cx="24.1035" cy="24.9551" r="24" fill="#60C8D2"/>
<path d="M33.5524 15.1629C18.9213 12.4497 14.3653 20.7558 13.9161 25.248C14.4532 26.2974 15.0583 28.5253 13.182 29.0422C10.8367 29.6882 13.9421 33.9814 14.6264 32.4468C15.3107 30.9122 18.7493 34.9016 21.4031 39.0684C24.0569 43.2352 26.7474 35.2675 24.427 24.502C22.1067 13.7366 32.8928 25.8495 37.9022 29.0655C42.9116 32.2815 42.7606 30.3504 39.8951 27.0259C37.0296 23.7014 39.061 26.2109 39.2866 20.7658C39.467 16.4097 35.539 15.2155 33.5524 15.1629Z" fill="#96D5DD"/>
<path d="M5.65903 10.9145C-0.704577 19.199 0.606237 28.3241 2.0571 31.851C2.63241 32.2262 3.65681 33.3969 3.15188 35.0778C2.52072 37.179 5.20883 38.0795 4.90866 36.5036C4.6085 34.9277 7.30998 35.378 9.78635 36.5036C12.2627 37.6292 10.3867 30.05 5.65903 23.9717C0.931381 17.8934 9.26106 19.019 12.2627 17.8183C15.2644 16.6177 14.514 15.3419 12.2627 14.9667C10.0115 14.5915 11.6624 14.9667 9.78635 10.9145C8.28552 7.67268 6.40946 9.56373 5.65903 10.9145Z" fill="#96D5DD"/>
<path d="M19.7383 1.96836C16.0994 1.31421 20.3005 5.2733 22.8559 7.33462C23.4693 7.43683 24.7062 7.96833 24.7471 9.27667C24.7982 10.9121 31.1866 12.5986 29.3468 10.1966C27.5069 7.79457 30.5733 8.30564 33.1287 7.64125C35.684 6.97685 32.9243 3.80819 31.7488 2.53052C30.5733 1.25284 26.6892 1.7128 26.0759 1.96836C25.4626 2.22392 24.287 2.78606 19.7383 1.96836Z" fill="#96D5DD"/>
<g clip-path="url(#clip0_1303_745)">
<path d="M30.3422 24.7871C33.115 24.6947 38.79 24.6301 39.3076 25.1107C39.9546 25.7115 41.341 28.854 40.8326 29.7783C40.426 30.5177 33.2691 31.1955 29.7415 31.442C32.9302 31.2571 39.4001 31.0722 39.7698 31.8117C40.2319 32.7359 40.7865 36.0633 39.7698 36.4792C38.7531 36.8951 35.7954 37.0337 36.0727 37.0337C36.35 37.0337 40.0932 36.6178 40.8326 38.0967C41.5721 39.5755 41.8494 40.9619 40.1395 41.1929C38.7716 41.3778 26.4142 41.27 20.4065 41.1929C19.513 40.3765 17.874 38.4017 18.4656 37.0337C19.205 35.3239 20.7761 34.6769 22.8557 34.8155C24.9353 34.9542 29.7415 35.3239 29.7415 34.3534V31.442V25.388L30.3422 24.7871Z" fill="#8BB73F"/>
<path d="M11.1696 18.9295L11.8473 30.6151C11.8473 30.696 11.9446 31.0153 12.3341 31.6448C12.8209 32.4317 19.7933 31.4245 21.367 31.6448C22.9407 31.8651 26.3083 30.6151 26.7175 30.1656C27.0448 29.806 26.5811 21.7696 26.3083 17.7964L27.8506 21.29C28.8157 20.3773 30.7587 18.4574 30.8091 18.0797C30.872 17.6076 29.7075 14.9009 28.48 13.2013C27.2526 11.5017 24.9865 10.4946 24.5458 10.1169C24.1052 9.73919 22.5 8.92088 22.2483 10.1169C21.9965 11.3129 20.2339 12.4774 19.8877 12.6348C19.5415 12.7921 17.6531 13.0125 16.5201 10.8723C15.6136 9.1601 14.8415 9.23565 14.5687 9.48745C10.9178 10.1925 7.8018 15.3205 6.7002 17.7964C7.62345 18.9085 9.58956 21.1263 10.068 21.1012C10.5464 21.076 11.0017 19.6429 11.1696 18.9295Z" fill="#8BB73F"/>
<path d="M28.1856 25.5008H36.3926C39.0687 25.5008 40.3177 32.2001 36.3926 32.2001H28.1856M29.2562 32.2001H36.9279C38.5338 32.2001 39.7827 38.1111 36.7495 38.1111L20.5148 38.5058M36.2133 38.1114H37.9994C39.1888 38.8996 40.6736 41.2639 37.8191 42.0523H19.4418C16.0535 42.4464 14.983 36.1413 19.0862 35.7472H34.9637M12.7332 20.4459L13.1568 31.6704C13.1516 31.9547 13.2563 32.23 13.4492 32.4389C13.6421 32.6478 13.9082 32.7741 14.192 32.7915H26.6316C27.4899 32.7915 28.1856 32.0049 28.1856 31.0349V20.068M12.7332 20.4459C12.7443 19.8311 12.7212 19.2162 12.664 18.604L12.7323 20.4459M12.7332 20.4459H12.7323M12.7323 20.4459C12.7097 21.4755 12.5613 22.4499 12.1275 22.5458C11.4138 22.7034 9.33226 20.6411 8.38086 19.5904C9.80921 16.3077 13.5559 10.0143 17.1241 11.1175C18.4323 13.6791 21.6201 17.265 23.9037 11.1175C26.2229 11.5116 31.1115 13.7579 32.1107 19.5889L29.2562 22.5449C28.9083 22.2705 28.2942 21.4371 28.1856 20.0671M28.1856 20.0671C28.1631 19.7768 28.1631 19.4853 28.1856 19.1951V20.0671ZM18.5521 16.8321V20.773M18.5521 23.9254V28.8509" stroke="#353535"/>
</g>
<defs>
<clipPath id="clip0_1303_745">
<rect width="36" height="36" fill="white" transform="translate(5.92188 8.52979)"/>
</clipPath>
</defs>
</svg>
