<svg width="1926" height="490" viewBox="0 0 1926 490" fill="none" xmlns="http://www.w3.org/2000/svg">
<g clip-path="url(#clip0_117_72)">
<path d="M3.40724 282.163C10.0702 311.988 198.535 179.264 443.169 227.817C748.962 288.509 774.287 294.739 835.88 277.423C873.181 266.937 932.805 232.196 932.805 268.383C932.805 295.451 929.758 323.539 1031.62 285.178C1045.6 279.912 1056.8 274.97 1065.63 270.387C1038.18 272.657 1021.39 268.11 1031.62 250.347C1049.6 219.107 1138.72 232.46 1065.63 270.387C1092.29 268.182 1129.01 259.548 1160.82 250.347C1225.38 231.672 1340.5 208 1383.45 224.486C1463.12 255.064 1702 261 1775.5 221.5C1860.25 208.189 1888.71 208.586 1921.89 205.807V803.155H2V271.714L3.40724 282.163Z" fill="white"/>
<path d="M1050.06 240.183L1052.14 232.305C1048.31 231.322 1044.29 231.43 1040.52 232.618C1036.75 233.805 1033.39 236.025 1030.82 239.024C1026.07 244.633 1028.12 245.046 1020.87 243.133C1022.34 245.319 1026.43 254.183 1028.77 254.8C1031.11 255.416 1039.04 249.72 1041.4 248.546L1035.32 246.942C1036.63 244.298 1038.81 242.186 1041.49 240.956C1044.18 239.725 1047.2 239.452 1050.06 240.182" fill="#8BB73F"/>
<path d="M1100.81 250.047C1098.97 248.158 1093.39 240.145 1090.98 239.949C1088.56 239.753 1081.76 246.762 1079.64 248.329L1085.98 248.843C1085.34 251.246 1084.03 253.416 1082.2 255.092C1080.36 256.768 1078.09 257.88 1075.64 258.294C1070.85 259.076 1072.3 261.676 1071.9 266.545C1075.49 266.818 1079.08 266.172 1082.35 264.668C1085.61 263.164 1088.44 260.852 1090.56 257.95C1095.29 251.433 1092.16 249.345 1100.81 250.047" fill="#8BB73F"/>
<path d="M191.586 121.449C191.019 120.478 190.161 119.71 189.133 119.254C188.105 118.797 186.96 118.675 185.859 118.904C179.656 120.088 173.408 120.418 166.771 120.768C139.329 120.635 111.34 132.494 95.1032 155.33C90.9568 155.947 86.8533 156.825 82.817 157.957C96.8719 146.116 108.229 131.642 117.642 113.988C147.012 99.6613 161.633 60.9804 159.845 29.9244C159.067 23.1598 157.107 0.127318 148.76 5.84279e-05C147.644 -0.00499641 146.552 0.318038 145.619 0.92897C144.685 1.5399 143.952 2.41176 143.511 3.43608C139.668 12.4586 134.323 21.3279 129.163 29.9046C115.37 51.7918 100.722 79.8705 110.756 106.638C110.469 107.757 110.521 108.936 110.906 110.025C111.291 111.114 111.992 112.063 112.919 112.752C105.085 127.254 95.8185 139.511 85.1206 149.522C86.0495 146.436 86.8321 143.293 87.5004 140.131C88.4018 140.02 89.2633 139.695 90.012 139.181C90.7606 138.667 91.3744 137.98 91.8013 137.179C109.14 106.096 103.788 64.1474 79.0319 38.5591C58.4044 25.9093 66.2434 99.0997 74.3172 115.234C76.1682 120.789 78.3133 126.573 81.2144 133.82C81.0274 134.721 81.0883 135.656 81.3908 136.526C81.6933 137.395 82.2259 138.166 82.932 138.757C79.7063 155.44 77.549 157.037 64.0221 166.752C51.1437 176.423 36.854 188.029 27.9016 200.958C28.5113 198.591 29.052 196.226 29.524 193.864C48.3569 171.792 50.2216 135.729 47.0211 106.938C45.462 101.11 43.7253 78.8532 35.9944 79.4964C35.0853 79.486 34.1878 79.7008 33.3818 80.1214C32.5757 80.5421 31.8863 81.1557 31.375 81.9074C10.0982 113.256 3.37324 155.345 22.5628 188.288C22.4908 189.198 22.6585 190.11 23.0492 190.935C23.4399 191.76 24.0399 192.468 24.7895 192.989C22.7746 203.36 19.3835 213.415 14.7062 222.888C14.5547 223.17 14.4696 223.482 14.4575 223.802C14.4453 224.122 14.5064 224.44 14.6361 224.733C13.5159 225.286 -6.17583 283.905 1.96804 284.999C2.56049 285.02 3.13935 284.819 3.59126 284.435C4.04316 284.051 4.33554 283.513 4.41113 282.925C6.03032 271.084 8.43218 259.364 11.6009 247.841C14.9928 242.465 18.886 237.661 24.7841 233.882C46.6652 253.428 86.0434 235.406 104.456 217.701C109.273 212.367 123.869 198.722 120.363 191.71C116.367 185.983 107.364 191.137 101.645 190.965C74.1831 195.515 31.8535 196.304 22.9522 229.364C20.3835 231.001 17.9704 232.871 15.7434 234.95C25.6437 205.294 46.3284 184.997 70.4613 167.92C78.3575 164.312 86.4191 161.392 95.1612 160.233C116.017 182.687 157.235 168.174 176.425 147.877C180.867 142.572 195.171 128.434 191.589 121.448L191.586 121.449ZM28.5067 225.096C45.081 194.556 86.1836 199.252 115.623 192.786C115.944 192.802 116.255 192.903 116.524 193.079C116.794 193.255 117.011 193.499 117.155 193.786C117.299 194.074 117.363 194.394 117.342 194.715C117.322 195.036 117.216 195.345 117.036 195.612C103.159 222.175 55.9552 252.002 28.0678 231.878C32.1236 229.628 36.3849 227.77 40.7938 226.33C44.2359 228.932 70.4811 229.117 70.0932 223.193C69.5461 220.33 66.0278 221.571 64.0419 221.959C59.9707 222.838 55.812 223.248 51.6474 223.178C54.3389 221.778 94.4487 215.703 81.552 210.204C71.0412 213.812 60.1388 216.225 49.3316 218.838C51.9149 215.517 62.5659 213.564 61.6004 209.874C58.2154 203.95 42.1685 218.082 39.4838 221.702C35.1748 223.098 30.9958 224.867 26.994 226.989C27.2793 226.211 27.8103 225.546 28.5067 225.096ZM17.938 167.076C10.653 138.749 17.7467 105.579 35.9884 83.3119C51.1376 114.527 45.7173 156.59 30.5733 187.836C31.759 179.622 32.149 171.312 31.7377 163.022C33.6428 159.313 42.7644 134.486 36.4204 134.034C32.534 134.111 33.2397 146.938 31.2797 150.367C31.1906 144.004 31.2797 136.369 33.6977 128.6C33.8182 128.241 33.8499 127.857 33.7901 127.483C33.7302 127.108 33.5806 126.754 33.354 126.45C24.4466 119.451 26.8005 157.983 26.9209 162.309C23.7402 156.379 22.607 149.927 21.4746 143.393C21.3287 142.887 21.023 142.442 20.6033 142.125C20.1835 141.807 19.6723 141.633 19.1458 141.63C15.328 142.107 17.4854 148.07 17.8161 150.57C19.3852 158.225 22.5149 165.474 27.01 171.866C26.9034 176.704 26.5254 181.532 25.8777 186.328C22.4042 180.283 19.7348 173.811 17.9373 167.075L17.938 167.076ZM74.7561 40.5777C100.48 63.3938 104.87 105.712 88.3912 135.463C91.7263 115.922 90.1052 95.8571 83.6765 77.1051C82.2195 74.1842 80.6794 63.534 75.9335 67.4272C74.6609 70.7299 77.9757 74.2924 78.7263 77.525C81.6253 85.6073 83.579 93.998 84.5483 102.53C82.6432 99.7558 80.985 89.6833 76.2772 93.3235C75.0046 95.6774 77.5498 98.3179 78.3514 100.487C81.1511 105.832 82.7164 111.742 85.3119 117.157C85.246 121.84 84.8953 126.514 84.2618 131.155C73.8082 103.5 61.8907 68.2784 74.7546 40.5746L74.7561 40.5777ZM114.974 106.895C100.175 69.2096 133.018 37.1226 147.022 4.935C147.607 3.57324 149.701 3.36978 150.299 4.84584C164.538 40.0885 152.361 86.4842 120.656 108.168C122.278 104.815 123.842 101.341 125.345 97.7456C128.947 95.9639 151.636 60.9758 142.779 61.2243C140.069 61.632 139.827 65.5191 138.625 67.5042C136.549 72.5312 134.064 77.3789 131.193 81.9981C133.242 73.8984 137.773 64.5323 137.773 55.4793C137.453 55.139 137.047 54.8912 136.598 54.7619C136.149 54.6326 135.673 54.6265 135.221 54.7442C134.769 54.862 134.357 55.0993 134.028 55.4313C133.7 55.7632 133.466 56.1775 133.353 56.6307C131.676 63.7504 129.783 70.6285 127.709 77.2141C126.704 73.9815 127.779 64.5589 123.599 63.8144C123.031 63.7916 122.477 63.9918 122.055 64.3724C121.633 64.7529 121.376 65.2834 121.34 65.8506C121.416 69.961 122.829 74.7009 123.017 78.5766C125.053 90.1504 119.454 99.6369 114.745 109.232C114.607 109.065 114.503 108.873 114.44 108.666C114.376 108.459 114.353 108.242 114.374 108.026C114.394 107.811 114.456 107.602 114.558 107.41C114.659 107.219 114.797 107.049 114.963 106.911C114.968 106.906 114.973 106.9 114.979 106.896L114.974 106.895ZM103.656 158.993C108.707 158.356 113.836 157.72 118.926 156.859C122.928 160.149 153.66 159.374 153.329 152.596C152.502 149.568 148.99 151.489 146.966 151.864C142.097 153.236 137.066 153.947 132.007 153.976C134.475 153.639 169.499 139.819 155.791 137.91C146.247 142.428 137.69 148.014 127.363 150.292C129.268 147.747 141.45 138.328 134.311 136.797C131.983 137.185 130.869 139.883 129.266 141.365C125.821 145.24 122.094 148.855 118.114 152.179C112.247 153.139 106.455 153.763 100.598 154.558C124.526 124.908 152.772 126.009 186.977 122.65C188.389 122.65 188.958 124.326 188.319 125.481C177.796 144.894 159.732 160.705 137.927 165.693C125.558 168.589 109.295 169.027 99.5863 159.573C100.94 159.369 102.297 159.181 103.659 159.006V158.988L103.656 158.993Z" fill="#8BB73F"/>
<path d="M1.51233 282.366C8.17533 312.191 196.64 179.468 441.275 228.021C747.067 288.713 772.392 294.942 833.985 277.627C871.286 267.14 930.91 232.399 930.91 268.587C930.91 295.654 927.863 323.743 1029.72 285.381C1159.4 236.541 1049.88 215.536 1029.72 250.55C1009.57 285.565 1094.36 269.226 1158.92 250.55C1223.48 231.875 1334.23 208.35 1381.56 224.689C1428.89 241.029 1550.49 266.429 1719.53 236.772C1761.54 226.952 1861.98 230.999 1917.88 224.688" stroke="#8BB73F" stroke-width="2"/>
<path fill-rule="evenodd" clip-rule="evenodd" d="M1618.24 282.804C1611.3 388.809 1789.65 346.224 1836.22 432.423C1861.99 480.132 1915.99 490.505 1959.08 490.264V206.097C1825.29 203.749 1622.88 211.963 1618.24 282.804Z" fill="#ECF4DB"/>
<path fill-rule="evenodd" clip-rule="evenodd" d="M1633.35 277.767C1630.73 275.101 1628.43 272.111 1626.54 268.886C1625.38 266.905 1624.35 264.793 1624.01 262.519C1623.68 260.244 1624.12 257.771 1625.62 256.029C1627.09 254.311 1629.4 253.467 1630.81 251.7C1633.27 248.628 1632.15 244.153 1630.99 240.393C1629.76 236.4 1628.62 232.325 1628.5 228.153C1628.39 224.509 1629.21 220.575 1631.9 218.117C1633.16 216.964 1634.74 216.222 1636.05 215.118C1638.84 212.749 1640.04 209.004 1640.71 205.4C1641.37 201.796 1641.66 198.054 1643.17 194.716C1644.01 192.864 1645.32 191.1 1647.2 190.342C1650.16 189.153 1653.63 190.855 1655.53 193.414C1657.43 195.973 1658.13 199.192 1658.88 202.288C1659.64 205.385 1660.55 208.592 1662.73 210.915C1664.92 213.244 1668.17 214.443 1670.09 216.995C1671.09 218.322 1671.66 219.93 1671.99 221.556C1673.78 230.436 1668.77 239.555 1670.17 248.506C1670.56 251.034 1671.46 253.464 1671.87 255.989C1672.66 260.908 1671.54 265.973 1669.62 270.568C1668.7 272.766 1667.55 274.951 1665.7 276.452C1663.55 278.188 1660.73 278.806 1658.01 279.255C1654.26 279.876 1650.46 280.286 1646.66 280.475C1642.1 280.704 1636.6 280.967 1633.35 277.767Z" fill="#A3C951"/>
<path fill-rule="evenodd" clip-rule="evenodd" d="M1645.62 298.051C1645.62 298.051 1646.2 281.199 1642.86 259.115C1641.96 253.115 1642.14 255.484 1642.14 255.484C1642.14 255.484 1644.46 259.115 1644.9 264.636C1645.33 270.157 1649.4 253.595 1645.62 244.879C1641.85 236.164 1643.73 229.045 1643.73 229.045C1643.73 229.045 1644.89 238.197 1647.22 242.409C1649.55 246.622 1652.89 214.371 1653.18 210.74C1653.47 207.108 1654.34 208.56 1654.34 208.56C1654.34 208.56 1652.89 232.242 1651 239.939C1649.11 247.637 1647.37 285.848 1651.29 298.051H1645.62Z" fill="#546B21"/>
<path fill-rule="evenodd" clip-rule="evenodd" d="M1811.91 355.113C1810.1 353.264 1808.51 351.19 1807.19 348.953C1806.39 347.58 1805.67 346.114 1805.44 344.537C1805.21 342.959 1805.52 341.244 1806.55 340.036C1807.57 338.844 1809.18 338.259 1810.16 337.033C1811.86 334.902 1811.08 331.798 1810.28 329.19C1809.43 326.421 1808.64 323.595 1808.55 320.701C1808.48 318.174 1809.04 315.445 1810.91 313.74C1811.79 312.941 1812.88 312.425 1813.79 311.66C1815.73 310.017 1816.56 307.419 1817.02 304.92C1817.48 302.42 1817.68 299.825 1818.73 297.509C1819.31 296.224 1820.22 295.001 1821.52 294.475C1823.57 293.65 1825.98 294.831 1827.3 296.606C1828.62 298.381 1829.11 300.613 1829.63 302.761C1830.15 304.909 1830.78 307.133 1832.29 308.745C1833.81 310.36 1836.07 311.191 1837.4 312.962C1838.1 313.882 1838.49 314.997 1838.72 316.125C1839.96 322.285 1836.48 328.609 1837.45 334.818C1837.73 336.571 1838.35 338.257 1838.63 340.008C1839.18 343.42 1838.4 346.933 1837.07 350.12C1836.43 351.644 1835.63 353.16 1834.35 354.201C1832.87 355.405 1830.91 355.834 1829.02 356.145C1826.42 356.576 1823.79 356.86 1821.15 356.991C1817.99 357.15 1814.17 357.333 1811.91 355.113Z" fill="#A3C951"/>
<path fill-rule="evenodd" clip-rule="evenodd" d="M1820.43 369.182C1820.43 369.182 1820.83 357.493 1818.52 342.176C1817.89 338.014 1818.01 339.657 1818.01 339.657C1818.01 339.657 1819.62 342.176 1819.93 346.005C1820.23 349.834 1823.05 338.347 1820.43 332.302C1817.81 326.257 1819.12 321.319 1819.12 321.319C1819.12 321.319 1819.92 327.667 1821.53 330.589C1823.15 333.51 1825.47 311.142 1825.67 308.623C1825.87 306.104 1826.47 307.111 1826.47 307.111C1826.47 307.111 1825.47 323.537 1824.16 328.876C1822.85 334.214 1821.64 360.718 1824.36 369.182H1820.43Z" fill="#546B21"/>
<path fill-rule="evenodd" clip-rule="evenodd" d="M1914.16 211.155C1911.54 208.49 1909.24 205.5 1907.35 202.275C1906.19 200.294 1905.16 198.182 1904.82 195.907C1904.49 193.633 1904.93 191.16 1906.42 189.418C1907.9 187.7 1910.21 186.856 1911.62 185.089C1914.08 182.017 1912.95 177.541 1911.8 173.781C1910.57 169.789 1909.43 165.714 1909.31 161.541C1909.2 157.898 1910.01 153.963 1912.71 151.506C1913.97 150.353 1915.55 149.61 1916.85 148.507C1919.65 146.138 1920.85 142.393 1921.51 138.789C1922.18 135.185 1922.46 131.443 1923.98 128.105C1924.82 126.252 1926.12 124.489 1928.01 123.73C1930.97 122.541 1934.44 124.244 1936.34 126.803C1938.23 129.361 1938.94 132.58 1939.69 135.677C1940.45 138.774 1941.36 141.98 1943.54 144.304C1945.72 146.633 1948.98 147.831 1950.9 150.384C1951.9 151.71 1952.47 153.318 1952.8 154.945C1954.58 163.825 1949.58 172.944 1950.98 181.894C1951.37 184.423 1952.27 186.853 1952.68 189.378C1953.47 194.296 1952.35 199.362 1950.43 203.956C1949.51 206.154 1948.35 208.34 1946.5 209.841C1944.36 211.577 1941.54 212.195 1938.82 212.644C1935.06 213.265 1931.27 213.674 1927.47 213.864C1922.91 214.093 1917.41 214.356 1914.16 211.155Z" fill="#A3C951"/>
<path fill-rule="evenodd" clip-rule="evenodd" d="M1926.43 231.442C1926.43 231.442 1927.01 214.589 1923.67 192.506C1922.76 186.505 1922.94 188.874 1922.94 188.874C1922.94 188.874 1925.27 192.506 1925.7 198.027C1926.14 203.548 1930.21 186.985 1926.43 178.27C1922.66 169.555 1924.54 162.435 1924.54 162.435C1924.54 162.435 1925.7 171.588 1928.02 175.8C1930.35 180.012 1933.7 147.762 1933.99 144.13C1934.28 140.499 1935.15 141.951 1935.15 141.951C1935.15 141.951 1933.7 165.633 1931.81 173.33C1929.92 181.027 1928.17 219.239 1932.1 231.442H1926.43Z" fill="#546B21"/>
<path fill-rule="evenodd" clip-rule="evenodd" d="M1729.51 190.363C1728.34 188.694 1726.51 187.642 1724.99 186.288C1721.4 183.087 1719.7 178.276 1718.85 173.547C1717.99 168.818 1717.86 163.966 1716.72 159.299C1716.33 157.681 1715.75 155.991 1714.44 154.97C1712.7 153.619 1710.07 153.891 1708.29 155.196C1706.52 156.501 1705.51 158.629 1705.03 160.778C1704.55 162.927 1704.54 165.149 1704.36 167.344C1703.97 172.199 1702.76 176.983 1700.8 181.44C1699.5 184.384 1697.77 187.294 1695.05 189.009C1693.33 190.094 1691.28 190.659 1689.78 192.038C1687.75 193.918 1687.2 197.012 1687.76 199.72C1688.33 202.432 1689.85 204.837 1691.47 207.087C1692.31 208.246 1693.18 209.395 1693.7 210.725C1694.46 212.669 1694.39 214.818 1694.34 216.906C1694.22 221.978 1694.3 227.101 1695.47 232.038C1696.13 234.798 1697.2 237.601 1699.35 239.445C1702.59 242.217 1707.41 242.126 1711.55 241.117C1712.65 240.848 1713.75 240.521 1714.82 240.126C1717.9 239.815 1720.82 238.953 1723.26 237.045C1727.79 233.496 1729.27 227.275 1729.38 221.522C1729.5 215.772 1728.55 209.967 1729.5 204.293C1729.9 201.933 1730.62 199.631 1730.88 197.253C1731.13 194.872 1730.88 192.322 1729.51 190.363Z" fill="#C7DE96"/>
<path fill-rule="evenodd" clip-rule="evenodd" d="M1706.84 261.247C1706.84 261.247 1710.61 245.412 1707.71 231.61C1707.71 231.61 1709.06 233.933 1709.26 231.029C1709.45 228.125 1707.27 209.674 1704.8 205.024C1702.33 200.374 1701.17 193.402 1701.17 193.402H1702.33C1702.33 193.402 1704.51 201.102 1707.27 204.734C1710.03 208.365 1710.61 172.773 1710.61 172.773L1711.48 173.501C1711.48 173.501 1712.41 201.539 1709.26 207.207C1709.26 207.207 1708.87 210.694 1710.61 217.013C1712.36 223.332 1722.96 204.593 1722.96 204.593L1723.98 205.464C1723.98 205.464 1717.88 215.634 1712.58 222.607C1707.27 229.58 1714.83 261.253 1714.83 261.253H1706.84V261.247Z" fill="#546B21"/>
<path fill-rule="evenodd" clip-rule="evenodd" d="M1778.3 280.324C1776.48 278.475 1774.89 276.401 1773.58 274.164C1772.77 272.791 1772.05 271.325 1771.82 269.748C1771.59 268.17 1771.9 266.455 1772.93 265.247C1773.96 264.055 1775.56 263.47 1776.54 262.244C1778.24 260.113 1777.46 257.009 1776.66 254.401C1775.81 251.632 1775.02 248.806 1774.93 245.912C1774.86 243.384 1775.42 240.656 1777.29 238.951C1778.17 238.152 1779.26 237.636 1780.17 236.871C1782.11 235.228 1782.94 232.63 1783.4 230.131C1783.86 227.631 1784.06 225.036 1785.11 222.72C1785.69 221.435 1786.6 220.212 1787.91 219.686C1789.96 218.861 1792.37 220.042 1793.68 221.817C1795 223.592 1795.49 225.824 1796.01 227.972C1796.53 230.12 1797.16 232.344 1798.68 233.956C1800.19 235.571 1802.45 236.402 1803.78 238.173C1804.48 239.093 1804.87 240.208 1805.1 241.336C1806.34 247.496 1802.86 253.82 1803.83 260.029C1804.11 261.782 1804.73 263.468 1805.01 265.219C1805.56 268.631 1804.78 272.144 1803.45 275.331C1802.81 276.855 1802.02 278.371 1800.73 279.412C1799.25 280.616 1797.29 281.045 1795.4 281.356C1792.8 281.787 1790.17 282.071 1787.53 282.202C1784.37 282.361 1780.55 282.544 1778.3 280.324Z" fill="#A3C951"/>
<path fill-rule="evenodd" clip-rule="evenodd" d="M1786.81 294.395C1786.81 294.395 1787.21 282.706 1784.9 267.389C1784.27 263.227 1784.39 264.87 1784.39 264.87C1784.39 264.87 1786 267.389 1786.31 271.218C1786.61 275.047 1789.43 263.56 1786.81 257.515C1784.19 251.47 1785.5 246.532 1785.5 246.532C1785.5 246.532 1786.3 252.88 1787.92 255.802C1789.53 258.723 1791.85 236.354 1792.05 233.836C1792.25 231.317 1792.86 232.324 1792.86 232.324C1792.86 232.324 1791.85 248.75 1790.54 254.088C1789.23 259.427 1788.02 285.931 1790.74 294.395H1786.81Z" fill="#546B21"/>
<path fill-rule="evenodd" clip-rule="evenodd" d="M1748.31 312.377C1748.9 310.841 1749.21 309.203 1749.23 307.56C1749.25 305.904 1748.89 304.089 1747.6 303.05C1746.39 302.076 1744.71 302.035 1743.17 301.863C1740.52 301.568 1737.71 300.599 1736.29 298.346C1735.55 297.169 1735.26 295.762 1735.13 294.377C1734.84 291.265 1735.28 288.127 1735.16 285.004C1735.03 281.879 1734.25 278.59 1732 276.418C1729.75 274.249 1725.72 273.747 1723.58 276.024C1722.88 276.772 1722.44 277.731 1722.1 278.7C1721.22 281.23 1720.97 283.933 1720.32 286.53C1719.32 290.48 1717.38 294.139 1715.17 297.564C1713.87 299.579 1712.44 301.589 1711.89 303.927C1711.34 306.298 1711.76 308.783 1711.54 311.208C1711.21 314.846 1709.48 318.181 1708.07 321.55C1706.66 324.919 1705.54 328.662 1706.49 332.189C1707.25 335.012 1709.29 337.358 1711.67 339.055C1714.05 340.752 1716.78 341.88 1719.49 342.993L1719.35 342.657C1719.79 343.026 1720.27 343.352 1720.76 343.621C1723.54 345.136 1726.85 345.295 1730.01 345.139C1733.22 344.98 1736.55 344.482 1739.18 342.636C1741.81 340.791 1743.48 337.258 1742.31 334.269C1741.93 333.315 1741.3 332.482 1740.89 331.548C1739.5 328.444 1740.64 324.775 1742.4 321.863C1744.32 318.661 1746.98 315.866 1748.31 312.377Z" fill="#DAE9B8"/>
<path fill-rule="evenodd" clip-rule="evenodd" d="M1726.2 286.086C1726.2 286.086 1728.03 313.318 1724.19 316.24C1720.35 319.165 1717.24 304.909 1717.24 304.909V306.116C1717.24 306.116 1717.97 318.068 1722.91 325.562C1727.84 333.056 1723.46 358.762 1723.46 358.762H1730.4C1730.4 358.762 1724.92 334.517 1730.4 330.679C1735.89 326.841 1736.25 325.929 1736.25 325.929V324.283C1736.25 324.283 1730.4 330.13 1729.49 327.39C1728.57 324.649 1742.28 313.318 1742.28 308.383H1740.45C1740.45 308.383 1730.44 326.78 1727.68 322.424C1724.92 318.068 1729.83 299.933 1727.68 287.365L1726.2 286.086Z" fill="#546B21"/>
<path fill-rule="evenodd" clip-rule="evenodd" d="M1933.52 443.163C1930.9 440.497 1928.61 437.508 1926.71 434.283C1925.55 432.302 1924.52 430.19 1924.19 427.915C1923.85 425.641 1924.29 423.168 1925.79 421.425C1927.26 419.707 1929.58 418.864 1930.99 417.097C1933.44 414.025 1932.32 409.549 1931.16 405.789C1929.94 401.797 1928.8 397.722 1928.67 393.549C1928.56 389.905 1929.38 385.971 1932.07 383.513C1933.33 382.361 1934.92 381.618 1936.22 380.515C1939.02 378.145 1940.21 374.401 1940.88 370.797C1941.54 367.193 1941.83 363.451 1943.34 360.113C1944.18 358.26 1945.49 356.496 1947.37 355.738C1950.33 354.549 1953.81 356.252 1955.7 358.81C1957.6 361.369 1958.3 364.588 1959.06 367.685C1959.81 370.781 1960.72 373.988 1962.9 376.311C1965.09 378.641 1968.34 379.839 1970.27 382.392C1971.27 383.718 1971.83 385.326 1972.16 386.952C1973.95 395.833 1968.94 404.952 1970.34 413.902C1970.73 416.43 1971.63 418.861 1972.04 421.386C1972.83 426.304 1971.71 431.37 1969.79 435.964C1968.87 438.162 1967.72 440.348 1965.87 441.849C1963.72 443.585 1960.9 444.202 1958.18 444.652C1954.43 445.272 1950.64 445.682 1946.84 445.872C1942.27 446.101 1936.77 446.364 1933.52 443.163Z" fill="#A3C951"/>
<path fill-rule="evenodd" clip-rule="evenodd" d="M1887.45 199.594C1888.03 198.058 1888.34 196.42 1888.36 194.777C1888.38 193.12 1888.02 191.305 1886.73 190.267C1885.52 189.293 1883.84 189.252 1882.3 189.08C1879.65 188.785 1876.84 187.816 1875.42 185.563C1874.68 184.386 1874.39 182.978 1874.27 181.594C1873.98 178.482 1874.41 175.344 1874.29 172.221C1874.17 169.096 1873.38 165.807 1871.13 163.635C1868.88 161.466 1864.85 160.964 1862.71 163.24C1862.01 163.989 1861.57 164.948 1861.23 165.917C1860.35 168.447 1860.1 171.149 1859.45 173.746C1858.45 177.697 1856.51 181.356 1854.3 184.781C1853 186.796 1851.57 188.806 1851.03 191.144C1850.47 193.515 1850.89 195.999 1850.67 198.425C1850.34 202.063 1848.61 205.398 1847.2 208.767C1845.79 212.135 1844.67 215.878 1845.62 219.406C1846.39 222.229 1848.42 224.575 1850.8 226.272C1853.18 227.969 1855.91 229.097 1858.62 230.21L1858.48 229.874C1858.92 230.243 1859.4 230.569 1859.89 230.838C1862.67 232.353 1865.98 232.512 1869.14 232.355C1872.35 232.197 1875.68 231.699 1878.31 229.853C1880.94 228.007 1882.61 224.475 1881.44 221.485C1881.06 220.532 1880.43 219.698 1880.02 218.765C1878.63 215.661 1879.78 211.992 1881.53 209.08C1883.45 205.877 1886.11 203.083 1887.45 199.594Z" fill="#DAE9B8"/>
<path fill-rule="evenodd" clip-rule="evenodd" d="M1865.33 173.305C1865.33 173.305 1867.16 200.536 1863.32 203.459C1859.48 206.384 1856.37 192.127 1856.37 192.127V193.335C1856.37 193.335 1857.1 205.287 1862.04 212.781C1866.97 220.274 1862.59 245.981 1862.59 245.981H1869.53C1869.53 245.981 1864.05 221.736 1869.53 217.898C1875.02 214.06 1875.38 213.147 1875.38 213.147V211.501C1875.38 211.501 1869.53 217.349 1868.62 214.609C1867.7 211.868 1881.41 200.536 1881.41 195.601H1879.58C1879.58 195.601 1869.57 213.998 1866.81 209.643C1864.05 205.287 1868.96 187.151 1866.81 174.584L1865.33 173.305Z" fill="#546B21"/>
<path fill-rule="evenodd" clip-rule="evenodd" d="M1893.72 388.422C1892.55 386.752 1890.71 385.701 1889.19 384.347C1885.61 381.146 1883.9 376.334 1883.05 371.605C1882.2 366.876 1882.06 362.025 1880.93 357.357C1880.54 355.74 1879.96 354.049 1878.65 353.028C1876.91 351.677 1874.27 351.949 1872.5 353.255C1870.73 354.56 1869.72 356.688 1869.24 358.837C1868.76 360.986 1868.74 363.208 1868.57 365.403C1868.18 370.257 1866.97 375.041 1865 379.498C1863.71 382.442 1861.98 385.352 1859.26 387.067C1857.54 388.152 1855.48 388.718 1853.99 390.097C1851.96 391.977 1851.4 395.07 1851.97 397.779C1852.53 400.49 1854.06 402.896 1855.68 405.146C1856.51 406.305 1857.39 407.454 1857.91 408.784C1858.67 410.728 1858.6 412.877 1858.55 414.965C1858.43 420.036 1858.51 425.16 1859.68 430.096C1860.33 432.857 1861.41 435.66 1863.56 437.503C1866.8 440.276 1871.61 440.184 1875.75 439.176C1876.86 438.907 1877.95 438.579 1879.02 438.185C1882.11 437.873 1885.03 437.011 1887.47 435.104C1891.99 431.555 1893.47 425.334 1893.59 419.581C1893.7 413.831 1892.76 408.026 1893.71 402.352C1894.1 399.992 1894.82 397.69 1895.08 395.312C1895.34 392.93 1895.09 390.381 1893.72 388.422Z" fill="#C7DE96"/>
<path fill-rule="evenodd" clip-rule="evenodd" d="M1871.04 459.305C1871.04 459.305 1874.82 443.471 1871.91 429.669C1871.91 429.669 1873.27 431.992 1873.46 429.088C1873.65 426.184 1871.48 407.732 1869.01 403.083C1866.54 398.433 1865.38 391.46 1865.38 391.46H1866.54C1866.54 391.46 1868.72 399.161 1871.48 402.792C1874.24 406.424 1874.82 370.832 1874.82 370.832L1875.69 371.56C1875.69 371.56 1876.61 399.598 1873.46 405.265C1873.46 405.265 1873.07 408.753 1874.82 415.072C1876.56 421.39 1887.17 402.651 1887.17 402.651L1888.19 403.523C1888.19 403.523 1882.08 413.693 1876.78 420.666C1871.48 427.639 1879.03 459.311 1879.03 459.311H1871.04V459.305Z" fill="#546B21"/>
<path fill-rule="evenodd" clip-rule="evenodd" d="M1924.97 263.297C1923.8 261.627 1921.96 260.576 1920.44 259.222C1916.86 256.021 1915.15 251.209 1914.3 246.48C1913.45 241.751 1913.32 236.9 1912.18 232.232C1911.79 230.615 1911.21 228.924 1909.9 227.903C1908.16 226.552 1905.52 226.824 1903.75 228.13C1901.98 229.435 1900.97 231.563 1900.49 233.712C1900.01 235.861 1900 238.083 1899.82 240.278C1899.43 245.132 1898.22 249.916 1896.26 254.373C1894.96 257.317 1893.23 260.227 1890.51 261.942C1888.79 263.027 1886.73 263.593 1885.24 264.972C1883.21 266.852 1882.66 269.945 1883.22 272.654C1883.79 275.365 1885.31 277.771 1886.93 280.021C1887.76 281.18 1888.64 282.329 1889.16 283.659C1889.92 285.603 1889.85 287.752 1889.8 289.84C1889.68 294.911 1889.76 300.035 1890.93 304.971C1891.58 307.732 1892.66 310.535 1894.81 312.378C1898.05 315.151 1902.86 315.059 1907.01 314.051C1908.11 313.782 1909.2 313.454 1910.27 313.06C1913.36 312.748 1916.28 311.886 1918.72 309.979C1923.24 306.43 1924.72 300.209 1924.84 294.456C1924.96 288.706 1924.01 282.901 1924.96 277.227C1925.35 274.867 1926.07 272.565 1926.34 270.187C1926.59 267.805 1926.34 265.256 1924.97 263.297Z" fill="#C7DE96"/>
<path fill-rule="evenodd" clip-rule="evenodd" d="M1902.29 334.18C1902.29 334.18 1906.07 318.346 1903.16 304.544C1903.16 304.544 1904.52 306.867 1904.71 303.963C1904.91 301.059 1902.73 282.607 1900.26 277.958C1897.79 273.308 1896.63 266.335 1896.63 266.335H1897.79C1897.79 266.335 1899.97 274.036 1902.73 277.667C1905.49 281.299 1906.07 245.707 1906.07 245.707L1906.94 246.435C1906.94 246.435 1907.86 274.473 1904.71 280.14C1904.71 280.14 1904.33 283.628 1906.07 289.947C1907.82 296.265 1918.42 277.526 1918.42 277.526L1919.44 278.398C1919.44 278.398 1913.34 288.568 1908.03 295.541C1902.73 302.514 1910.29 334.186 1910.29 334.186H1902.29V334.18Z" fill="#546B21"/>
</g>
<defs>
<clipPath id="clip0_117_72">
<rect width="1926" height="490" fill="white"/>
</clipPath>
</defs>
</svg>
