<svg width="49" height="49" viewBox="0 0 49 49" fill="none" xmlns="http://www.w3.org/2000/svg">
<path d="M32.4945 17.347C22.9622 13.0733 25.4533 16.3313 22.3578 18.559C22.1259 19.2055 17.334 25.1994 15.5818 25.0972C13.3917 24.9694 13.1377 27.7929 14.6013 27.1362C16.0649 26.4795 16.2521 29.2119 15.7301 31.8815C15.2081 34.5511 21.7255 40.8723 26.5448 34.8664C31.3641 28.8605 32.6185 27.3243 34.4812 29.9666C36.3439 32.6089 37.9396 32.2436 37.7836 29.9666C37.6277 27.6896 36.1485 27.86 39.6566 25.0972C42.4631 22.8869 33.9823 17.7645 32.4945 17.347Z" fill="#96D5DD"/>
<circle cx="24.1035" cy="24.9551" r="24" fill="#60C8D2"/>
<path d="M33.5524 15.1629C18.9213 12.4497 14.3653 20.7558 13.9161 25.248C14.4532 26.2974 15.0583 28.5253 13.182 29.0422C10.8367 29.6882 13.9421 33.9814 14.6264 32.4468C15.3107 30.9122 18.7493 34.9016 21.4031 39.0684C24.0569 43.2352 26.7474 35.2675 24.427 24.502C22.1067 13.7366 32.8928 25.8495 37.9022 29.0655C42.9116 32.2815 42.7606 30.3504 39.8951 27.0259C37.0296 23.7014 39.061 26.2109 39.2866 20.7658C39.467 16.4097 35.539 15.2155 33.5524 15.1629Z" fill="#96D5DD"/>
<path d="M5.65903 10.9145C-0.704577 19.199 0.606237 28.3241 2.0571 31.851C2.63241 32.2262 3.65681 33.3969 3.15188 35.0778C2.52072 37.179 5.20883 38.0795 4.90866 36.5036C4.6085 34.9277 7.30998 35.378 9.78635 36.5036C12.2627 37.6292 10.3867 30.05 5.65903 23.9717C0.931381 17.8934 9.26106 19.019 12.2627 17.8183C15.2644 16.6177 14.514 15.3419 12.2627 14.9667C10.0115 14.5915 11.6624 14.9667 9.78635 10.9145C8.28552 7.67268 6.40946 9.56373 5.65903 10.9145Z" fill="#96D5DD"/>
<path d="M19.7383 1.96836C16.0994 1.31421 20.3005 5.2733 22.8559 7.33462C23.4693 7.43683 24.7062 7.96833 24.7471 9.27667C24.7982 10.9121 31.1866 12.5986 29.3468 10.1966C27.5069 7.79457 30.5733 8.30564 33.1287 7.64125C35.684 6.97685 32.9243 3.80819 31.7488 2.53052C30.5733 1.25284 26.6892 1.7128 26.0759 1.96836C25.4626 2.22392 24.287 2.78606 19.7383 1.96836Z" fill="#96D5DD"/>
<path d="M15.6475 20.885C13.5305 21.5364 10.2381 26.635 9.42383 27.9921C11.1202 28.829 15.6393 29.8272 16.9103 30.3028C20.3809 31.6015 23.3709 37.1723 25.574 36.4799C25.7776 34.9871 31.3123 30.8981 33.3479 29.7445C34.9765 28.8217 37.6411 23.8705 37.7542 21.9706C35.42 22.4049 26.2329 17.7637 24.0615 15.6602C22.1389 17.1304 17.7645 20.2336 15.6475 20.885Z" fill="#8BB73F"/>
<path d="M9.3125 32.3407C9.3125 32.3407 13.9006 22.8282 20.8649 20.6186C27.8292 18.4089 30.0399 7.19629 30.0399 7.19629" stroke="#353535" stroke-linecap="round" stroke-linejoin="round"/>
<path d="M12.3247 15.5518C12.3247 15.5518 22.8855 15.6897 27.8309 21.0679C32.7764 26.446 43.873 23.7105 43.873 23.7105" stroke="#353535" stroke-linecap="round" stroke-linejoin="round"/>
<path d="M12.7695 37.5257C12.7695 37.5257 17.3576 28.0132 24.3219 25.8036C31.2862 23.594 33.4969 12.3813 33.4969 12.3813" stroke="#353535" stroke-linecap="round" stroke-linejoin="round"/>
<path d="M9.08639 20.875C9.08639 20.875 19.6472 21.013 24.5927 26.3911C29.5381 31.7693 40.6347 29.0338 40.6347 29.0338" stroke="#353535" stroke-linecap="round" stroke-linejoin="round"/>
<path d="M16.2256 42.7098C16.2256 42.7098 20.8137 33.1973 27.778 30.9877C34.7423 28.7781 36.953 17.5654 36.953 17.5654" stroke="#353535" stroke-linecap="round" stroke-linejoin="round"/>
<path d="M5.84811 26.1988C5.84811 26.1988 16.4089 26.3367 21.3544 31.7148C26.2998 37.093 37.3964 34.3575 37.3964 34.3575" stroke="#353535" stroke-linecap="round" stroke-linejoin="round"/>
</svg>
