<svg xmlns="http://www.w3.org/2000/svg" width="120" height="120" viewBox="0 0 120 120">
  <g id="Group_24561" data-name="Group 24561" transform="translate(-0.316)">
    <path id="Path_18376" data-name="Path 18376" d="M81.462,41.635c-23.831-10.684-17.6-2.539-25.342,3.03-.58,1.616-12.56,16.6-16.94,16.346-5.475-.319-6.11,6.739-2.451,5.1s4.127,5.189,2.822,11.863,14.989,22.477,27.037,7.462S81.772,66.578,86.429,73.184s8.646,5.692,8.256,0S90.6,67.917,99.368,61.01C106.384,55.485,85.182,42.679,81.462,41.635Z" transform="translate(-0.997 -0.656)" fill="#96d5dd"/>
    <circle id="Ellipse_199" data-name="Ellipse 199" cx="60" cy="60" r="60" transform="translate(0.316 0)" fill="#60c8d2"/>
    <path id="Path_18377" data-name="Path 18377" d="M84.106,36.176C47.529,29.393,36.139,50.158,35.016,61.389c1.343,2.623,2.856,8.193-1.835,9.485-5.863,1.615,1.9,12.348,3.611,8.512S47.1,85.523,53.733,95.94s13.361-9.5,7.56-36.416,21.164,3.368,33.688,11.409,12.146,3.212,4.982-5.1-2.085-2.038-1.521-15.65C98.893,39.293,89.073,36.307,84.106,36.176Z" transform="translate(-0.997 -0.656)" fill="#96d5dd"/>
    <path id="Path_18378" data-name="Path 18378" d="M14.373,25.555C-1.536,46.266,1.741,69.078,5.368,77.9A7.175,7.175,0,0,1,8.1,85.963c-1.578,5.253,5.142,7.5,4.392,3.564s6-2.814,12.194,0,1.5-16.134-10.318-31.33,9.005-12.382,16.509-15.384,5.628-6.191,0-7.129-1.5,0-6.191-10.131C20.939,17.45,16.249,22.178,14.373,25.555Z" transform="translate(-0.997 -0.656)" fill="#96d5dd"/>
    <path id="Path_18379" data-name="Path 18379" d="M49.571,3.188c-9.1-1.635,1.405,8.262,7.794,13.416,1.533.256,4.626,1.584,4.728,4.855.128,4.089,16.1,8.3,11.5,2.3s3.066-4.727,9.455-6.388S82.536,7.788,79.6,4.593,66.948,2.549,65.415,3.188,60.943,5.232,49.571,3.188Z" transform="translate(-0.997 -0.656)" fill="#96d5dd"/>
    <path id="Path_18380" data-name="Path 18380" d="M50.469,28.523c-5.564,0-1.4,7.557,1.374,11.335l-2.934,3.95.444,4.465H61.8c2.748-2.885-1.145-6.812-3.435-8.415a41,41,0,0,0,4.122-6.527,5.6,5.6,0,0,0-.687-4.208A95.541,95.541,0,0,0,50.469,28.523Z" transform="translate(-0.997 -0.656)" fill="#8bb73f"/>
    <path id="Path_18381" data-name="Path 18381" d="M45.488,72.575c.612-8.506,11.736-18.491,17.861-22.413-.773-1.031-7.9-2.146-13.739-1.975-4.671.137-9.5,5.381-11.335,7.986a230.575,230.575,0,0,0-6.269,23.1c-3.092,14,.773,12.967,3.091,15.972,1.855,2.4,11.822,2.891,16.573,2.834C49.781,93.127,44.3,89.091,45.488,72.575Z" transform="translate(-0.997 -0.656)" fill="#8bb73f"/>
    <path id="Path_18382" data-name="Path 18382" d="M50.007,48.414c-1.2-1.981-1.957-4.927.926-6.642,3.6-2.143,9.156-3.02,10.423,0s1.186,6.492,0,7.753" transform="translate(-0.997 -0.656)" fill="none" stroke="#353535" stroke-width="3"/>
    <path id="Path_18383" data-name="Path 18383" d="M53.245,40.588c-2.432-3.383-6.4-7.955-5.273-11.039.669-1.833,13.435-1.822,14.595,0,1.572,2.469-2.6,7.493-4.062,10.368" transform="translate(-0.997 -0.656)" fill="none" stroke="#353535" stroke-width="3"/>
    <path id="Path_18384" data-name="Path 18384" d="M55.641,62.227c-10.984,10.984-4.577,24.028,0,29.177,5.721,4,21.588,10.938,29.606-1.144,10.441-15.733.858-24.028.715-25.172S69.371,48.5,55.641,62.227Z" transform="translate(-0.997 -0.656)" fill="#8bb73f" stroke="#353535" stroke-width="3"/>
    <path id="Path_18385" data-name="Path 18385" d="M50.922,97.7c-3.528,0-11.07-.229-13.015-1.144-2.431-1.144-6.722-1.859-6.293-9.726.343-6.293,3.29-19.118,4.72-24.743C38.892,52.021,48.891,44.464,63.079,50.07" transform="translate(-0.997 -0.656)" fill="none" stroke="#353535" stroke-linecap="round" stroke-width="3"/>
    <path id="Path_18386" data-name="Path 18386" d="M61.792,84.4c4.863-2.765,14.789-9.039,15.59-12.014" transform="translate(-0.997 -0.656)" fill="none" stroke="#353535" stroke-width="3"/>
    <path id="Path_18387" data-name="Path 18387" d="M61.241,69.908c-1.012,1.012-.092,2.53.571,3.057a2.926,2.926,0,0,0,3.011,0c.949-.407,1.285-2.2.228-3.383A3.212,3.212,0,0,0,61.241,69.908Z" transform="translate(-0.997 -0.656)" fill="none" stroke="#353535" stroke-width="3"/>
    <path id="Path_18388" data-name="Path 18388" d="M75.375,83.056c-1.012,1.012-.092,2.53.571,3.057a2.925,2.925,0,0,0,3.011,0c.949-.407,1.285-2.2.228-3.383A3.212,3.212,0,0,0,75.375,83.056Z" transform="translate(-0.997 -0.656)" fill="none" stroke="#353535" stroke-width="3"/>
  </g>
</svg>
