<svg xmlns="http://www.w3.org/2000/svg" width="48" height="48" viewBox="0 0 48 48">
  <g id="Group_24587" data-name="Group 24587" transform="translate(-0.103 -0.001)">
    <path id="Path_23479" data-name="Path 23479" d="M32.494,16.393c-9.532-4.274-7.041-1.016-10.137,1.212-.232.646-5.024,6.64-6.776,6.538-2.19-.128-2.444,2.7-.981,2.039s1.651,2.076,1.129,4.745,6,8.991,10.815,2.985,6.074-7.542,7.936-4.9,3.458,2.277,3.3,0-1.635-2.107,1.873-4.869C42.463,21.933,33.982,16.81,32.494,16.393Z" fill="#96d5dd"/>
    <circle id="Ellipse_207" data-name="Ellipse 207" cx="24" cy="24" r="24" transform="translate(0.103 0.001)" fill="#60c8d2"/>
    <path id="Path_23480" data-name="Path 23480" d="M33.552,14.209C18.921,11.5,14.365,19.8,13.915,24.294c.537,1.049,1.142,3.277-.734,3.794-2.345.646.76,4.939,1.444,3.4s4.123,2.455,6.777,6.622,5.344-3.8,3.024-14.566S32.892,24.9,37.9,28.111s4.858,1.285,1.993-2.04-.834-.815-.609-6.26C39.466,15.456,35.538,14.261,33.552,14.209Z" fill="#96d5dd"/>
    <path id="Path_23481" data-name="Path 23481" d="M5.659,9.96C-.705,18.245.606,27.37,2.057,30.9a2.87,2.87,0,0,1,1.095,3.227c-.631,2.1,2.057,3,1.757,1.426s2.4-1.126,4.878,0,.6-6.454-4.127-12.532,3.6-4.953,6.6-6.153,2.251-2.476,0-2.852-.6,0-2.476-4.052C8.285,6.719,6.409,8.61,5.659,9.96Z" fill="#96d5dd"/>
    <path id="Path_23482" data-name="Path 23482" d="M19.738,1.014C16.1.36,20.3,4.319,22.855,6.381a2.166,2.166,0,0,1,1.891,1.942c.051,1.635,6.44,3.322,4.6.92s1.226-1.891,3.782-2.555-.2-3.833-1.38-5.111-5.06-.818-5.673-.562S24.286,1.832,19.738,1.014Z" fill="#96d5dd"/>
    <path id="Path_23483" data-name="Path 23483" d="M13.132,39.485H33c.425,0,.845,0,.885-.428S31.22,7.4,30.949,6.178c-.216-.98-.667-1.188-.866-1.17-4.526-.019-13.84-.084-14.879-.2s-1.186.5-1.13.815c-.828,8.552-2.637,26.627-3.254,30.506S12.1,39.985,13.132,39.485Z" fill="#8bb73f"/>
    <path id="Path_23484" data-name="Path 23484" d="M15.476,16.065c2.541-1.667,8.333-5.938,11.179-9.685" fill="none" stroke="#353535" stroke-width="1"/>
    <path id="Path_23485" data-name="Path 23485" d="M14.231,24.155C20.005,19.211,31.809,8.878,32.836,7.1" fill="none" stroke="#353535" stroke-width="1"/>
    <path id="Path_23486" data-name="Path 23486" d="M13.532,32.321C19.948,28.7,33,20.912,33.886,18.75" fill="none" stroke="#353535" stroke-width="1"/>
    <path id="Path_23487" data-name="Path 23487" d="M12.773,38.745c7.1-2.943,21.381-9.307,21.754-11.229" fill="none" stroke="#353535" stroke-width="1"/>
    <path id="Path_23488" data-name="Path 23488" d="M20.121,40.787c.643-.24,14.407-2.762,15.457-4.744" fill="none" stroke="#353535" stroke-width="1"/>
    <path id="Path_23489" data-name="Path 23489" d="M15.134,40.84H35c.425,0,.845,0,.885-.428S33.222,8.759,32.951,7.533c-.216-.98-.667-1.188-.866-1.17-4.527-.019-13.84-.084-14.879-.2s-1.186.5-1.13.815c-.828,8.552-2.638,26.627-3.254,30.506S14.106,41.34,15.134,40.84Z" fill="none" stroke="#353535" stroke-width="1"/>
    <path id="Path_23490" data-name="Path 23490" d="M21.92,6.417c-.193-1.032-.358-3.1.535-3.1h3.88a7.072,7.072,0,0,1,.485,3.1" fill="none" stroke="#353535" stroke-width="1"/>
    <path id="Path_23491" data-name="Path 23491" d="M21.582,41.171c-.113,1.1-.271,3.326,0,3.445a43.714,43.714,0,0,0,4.8,0c.146-1.149.349-3.445,0-3.445" fill="none" stroke="#353535" stroke-width="1"/>
    <path id="Path_23492" data-name="Path 23492" d="M16.877,6.367c4.963,5.11,15.4,15.339,17.46,15.379,2.57.05,3.491-1.1,3.395-2.6s3.589-1.1,3.638.449" fill="none" stroke="#353535" stroke-width="1"/>
    <path id="Path_23493" data-name="Path 23493" d="M15.26,13.16c5.228,5.347,16.375,15.782,19.133,14.749" fill="none" stroke="#353535" stroke-width="1"/>
    <path id="Path_23494" data-name="Path 23494" d="M14.527,23.28C20.7,28.232,33.494,37.813,35.336,36.521" fill="none" stroke="#353535" stroke-width="1"/>
  </g>
</svg>
