<svg xmlns="http://www.w3.org/2000/svg" xmlns:xlink="http://www.w3.org/1999/xlink" width="48" height="48" viewBox="0 0 48 48">
  <defs>
    <clipPath id="clip-path">
      <rect id="Rectangle_1226" data-name="Rectangle 1226" width="36" height="36" transform="translate(5.922 7.576)" fill="#fff"/>
    </clipPath>
  </defs>
  <g id="Group_24588" data-name="Group 24588" transform="translate(-0.103 -0.001)">
    <path id="Path_23495" data-name="Path 23495" d="M32.494,16.393c-9.532-4.274-7.041-1.016-10.137,1.212-.232.646-5.024,6.64-6.776,6.538-2.19-.128-2.444,2.7-.981,2.039s1.651,2.076,1.129,4.745,6,8.991,10.815,2.985,6.074-7.542,7.936-4.9,3.458,2.277,3.3,0-1.635-2.107,1.873-4.869C42.463,21.933,33.982,16.81,32.494,16.393Z" fill="#96d5dd"/>
    <circle id="Ellipse_208" data-name="Ellipse 208" cx="24" cy="24" r="24" transform="translate(0.103 0.001)" fill="#60c8d2"/>
    <path id="Path_23496" data-name="Path 23496" d="M33.552,14.209C18.921,11.5,14.365,19.8,13.915,24.294c.537,1.049,1.142,3.277-.734,3.794-2.345.646.76,4.939,1.444,3.4s4.123,2.455,6.777,6.622,5.344-3.8,3.024-14.566S32.892,24.9,37.9,28.111s4.858,1.285,1.993-2.04-.834-.815-.609-6.26C39.466,15.456,35.538,14.261,33.552,14.209Z" fill="#96d5dd"/>
    <path id="Path_23497" data-name="Path 23497" d="M5.659,9.96C-.705,18.245.606,27.37,2.057,30.9a2.87,2.87,0,0,1,1.095,3.227c-.631,2.1,2.057,3,1.757,1.426s2.4-1.126,4.878,0,.6-6.454-4.127-12.532,3.6-4.953,6.6-6.153,2.251-2.476,0-2.852-.6,0-2.476-4.052C8.285,6.719,6.409,8.61,5.659,9.96Z" fill="#96d5dd"/>
    <path id="Path_23498" data-name="Path 23498" d="M19.738,1.014C16.1.36,20.3,4.319,22.855,6.381a2.166,2.166,0,0,1,1.891,1.942c.051,1.635,6.44,3.322,4.6.92s1.226-1.891,3.782-2.555-.2-3.833-1.38-5.111-5.06-.818-5.673-.562S24.286,1.832,19.738,1.014Z" fill="#96d5dd"/>
    <g id="Group_24682" data-name="Group 24682" clip-path="url(#clip-path)">
      <path id="Path_23499" data-name="Path 23499" d="M30.342,23.833c2.773-.092,8.448-.157,8.965.324.647.6,2.033,3.743,1.525,4.668-.407.739-7.563,1.417-11.091,1.664,3.189-.185,9.659-.37,10.028.37.462.924,1.017,4.252,0,4.668a19.746,19.746,0,0,1-3.7.555c.277,0,4.021-.416,4.76,1.063s1.017,2.865-.693,3.1c-1.368.185-13.725.077-19.733,0-.893-.816-2.532-2.791-1.941-4.159.739-1.71,2.31-2.357,4.39-2.218s6.886.508,6.886-.462V24.434Z" fill="#8bb73f"/>
      <path id="Path_23500" data-name="Path 23500" d="M11.17,17.976l.678,11.686a3.006,3.006,0,0,0,.487,1.03c.487.787,7.459-.22,9.033,0a10.755,10.755,0,0,0,5.351-1.479c.327-.36-.136-8.4-.409-12.369l1.542,3.493a19.929,19.929,0,0,0,2.958-3.21,14.641,14.641,0,0,0-2.329-4.878c-1.227-1.7-3.493-2.707-3.934-3.084s-2.046-1.2-2.3,0-2.014,2.361-2.361,2.518A2.923,2.923,0,0,1,16.52,9.918c-.906-1.712-1.679-1.637-1.951-1.385C10.918,9.238,7.8,14.367,6.7,16.843c.923,1.112,2.889,3.33,3.368,3.3S11,18.689,11.17,17.976Z" fill="#8bb73f"/>
      <path id="Path_23501" data-name="Path 23501" d="M28.185,24.547h8.207c2.676,0,3.925,6.7,0,6.7H28.185m1.07,0h7.672c1.606,0,2.855,5.911-.178,5.911l-16.235.395m15.7-.394H38c1.189.788,2.674,3.152-.18,3.941H19.441c-3.388.394-4.459-5.911-.356-6.305H34.963m-22.23-15.3.424,11.224a1.1,1.1,0,0,0,1.035,1.121h12.44a1.665,1.665,0,0,0,1.554-1.757V19.114m-15.452.378a16.632,16.632,0,0,0-.069-1.842l.068,1.842m0,0h0m0,0c-.023,1.03-.171,2-.6,2.1-.714.158-2.8-1.9-3.747-2.955,1.428-3.283,5.175-9.576,8.743-8.473,1.308,2.562,4.5,6.148,6.78,0a10.4,10.4,0,0,1,8.207,8.471l-2.854,2.956a3.613,3.613,0,0,1-1.07-2.478m0,0a5.616,5.616,0,0,1,0-.872Zm-9.634-3.235v3.941m0,3.152V27.9" fill="none" stroke="#353535" stroke-width="1"/>
    </g>
  </g>
</svg>
