<svg xmlns="http://www.w3.org/2000/svg" width="48" height="48" viewBox="0 0 48 48">
  <g id="Group_24589" data-name="Group 24589" transform="translate(-0.103 -0.001)">
    <path id="Path_23502" data-name="Path 23502" d="M32.494,16.393c-9.532-4.274-7.041-1.016-10.137,1.212-.232.646-5.024,6.64-6.776,6.538-2.19-.128-2.444,2.7-.981,2.039s1.651,2.076,1.129,4.745,6,8.991,10.815,2.985,6.074-7.542,7.936-4.9,3.458,2.277,3.3,0-1.635-2.107,1.873-4.869C42.463,21.933,33.982,16.81,32.494,16.393Z" fill="#96d5dd"/>
    <circle id="Ellipse_209" data-name="Ellipse 209" cx="24" cy="24" r="24" transform="translate(0.103 0.001)" fill="#60c8d2"/>
    <path id="Path_23503" data-name="Path 23503" d="M33.552,14.209C18.921,11.5,14.365,19.8,13.915,24.294c.537,1.049,1.142,3.277-.734,3.794-2.345.646.76,4.939,1.444,3.4s4.123,2.455,6.777,6.622,5.344-3.8,3.024-14.566S32.892,24.9,37.9,28.111s4.858,1.285,1.993-2.04-.834-.815-.609-6.26C39.466,15.456,35.538,14.261,33.552,14.209Z" fill="#96d5dd"/>
    <path id="Path_23504" data-name="Path 23504" d="M5.659,9.96C-.705,18.245.606,27.37,2.057,30.9a2.87,2.87,0,0,1,1.095,3.227c-.631,2.1,2.057,3,1.757,1.426s2.4-1.126,4.878,0,.6-6.454-4.127-12.532,3.6-4.953,6.6-6.153,2.251-2.476,0-2.852-.6,0-2.476-4.052C8.285,6.719,6.409,8.61,5.659,9.96Z" fill="#96d5dd"/>
    <path id="Path_23505" data-name="Path 23505" d="M19.738,1.014C16.1.36,20.3,4.319,22.855,6.381a2.166,2.166,0,0,1,1.891,1.942c.051,1.635,6.44,3.322,4.6.92s1.226-1.891,3.782-2.555-.2-3.833-1.38-5.111-5.06-.818-5.673-.562S24.286,1.832,19.738,1.014Z" fill="#96d5dd"/>
    <path id="Path_23506" data-name="Path 23506" d="M15.482,23.5c-.412-.995,1.043-3.63,1.822-4.823.229.336.767,1.106,1.093,1.5.407.493.75,3.622.707,4.244s-1.522.9-1.8,1.115S16,24.746,15.482,23.5Z" fill="#8bb73f"/>
    <path id="Path_23507" data-name="Path 23507" d="M22.855,17.569c-.353.479.42,1.479.85,1.92.976.787,3.009,2.461,3.336,2.864.409.5,1.2.5,2.612.346s6.295-6.452,7.05-7.4a2.985,2.985,0,0,0,.252-2.99c-.346-.5-3.651-2.99-4.532-3.714a1.225,1.225,0,0,0-1.731.252c-.126.094-.818,1.7-.881.189-.05-1.209-.8-1.238-1.165-1.1l-3.557,3.871c-.881.934-2.65,2.94-2.675,3.494-.031.693,1.29.032,1.731.22S23.3,16.971,22.855,17.569Z" fill="#8bb73f"/>
    <path id="Path_23508" data-name="Path 23508" d="M10.119,25.051c-.887-.592-1.017.678-.97,1.386.847,2.65,2.662,8.318,3.142,9.8s2.388,1.541,3.281,1.386c4.313.185,13.032.536,13.4.462.462-.093,5.361-9.381,5.545-10.444a2.6,2.6,0,0,0-1.756-2.588c-1.063-.416-2.68,3.836-3.789,4.344-.887.407-2.65-1.8-3.42-2.958-1.078.8-3.42,2.514-4.159,2.958-.924.555-2.218-.647-3.928-2.033-1.368-1.109-3.5.893-4.39,2.033C12.46,28.193,11.006,25.642,10.119,25.051Z" fill="#8bb73f"/>
    <path id="Path_23509" data-name="Path 23509" d="M15.69,38.454c-1.484-.1-3.821-7.558-4.8-11.273,0-1.973,1.5-.822,2.253,0,1.2,2.978,3.637,8.961,3.743,9.063s8.48.278,12.654.351c.675-1.868,2.312-6.246,3.478-8.807,1.457-3.2,2.882-.609,3.213,0,.265.487-3.335,7.568-5.167,11.049C26.553,38.753,17.173,38.556,15.69,38.454Z" fill="none" stroke="#353535" stroke-width="1"/>
    <path id="Path_23510" data-name="Path 23510" d="M14.43,30.223a24.454,24.454,0,0,0,4.439-2.146,10.458,10.458,0,0,0,2.915,2.146c1.749.846,4.439-1.526,5.565-2.818.806,1.505,2.782,4.234,4.24,3.107" fill="none" stroke="#353535" stroke-linecap="round" stroke-linejoin="round" stroke-width="1"/>
    <path id="Path_23511" data-name="Path 23511" d="M17.941,24.364c-1.168-1.127.066-3.523.828-4.579,1.484,2.229,1.59,3.726,1.458,4.2A1.3,1.3,0,0,1,17.941,24.364Z" fill="none" stroke="#353535" stroke-width="1"/>
    <path id="Path_23512" data-name="Path 23512" d="M37.192,16.363c-2.14,2.226-6.635,6.884-7.49,7.712-.342.341-1.7.142-2.335,0a27.377,27.377,0,0,0-3.842-3.339c-.506-.151-.5-1.38-.438-1.975l1.07-1.975c-.13-.141-.623-.282-1.557.282s-.811-.235-.632-.705l6.907-7.194c.276-.031.75.094.438.846a1.24,1.24,0,0,0-.068.816,1.276,1.276,0,0,0,.458.689c.421-.3,1.284-1.016,1.362-1.505s.81-.2,1.168,0a47.15,47.15,0,0,1,4.961,4.373A3.984,3.984,0,0,1,37.192,16.363Z" fill="none" stroke="#353535" stroke-width="1"/>
    <path id="Path_23513" data-name="Path 23513" d="M30.992,22.665c-1.447-1.068-4.174-3.336-3.512-3.875.828-.673,3.743-4.676,4.34-4.323.477.282,2.694,2.358,3.743,3.363" fill="none" stroke="#353535" stroke-width="1"/>
  </g>
</svg>
