<svg xmlns="http://www.w3.org/2000/svg" width="120" height="120" viewBox="0 0 120 120">
  <g id="Group_24563" data-name="Group 24563" transform="translate(-0.219)">
    <path id="Path_18399" data-name="Path 18399" d="M81.462,41.635c-23.831-10.684-17.6-2.539-25.342,3.03-.58,1.616-12.56,16.6-16.94,16.346-5.475-.319-6.11,6.739-2.451,5.1s4.127,5.189,2.822,11.863,14.989,22.477,27.037,7.462S81.772,66.578,86.429,73.184s8.646,5.692,8.256,0S90.6,67.917,99.368,61.01C106.384,55.485,85.182,42.679,81.462,41.635Z" transform="translate(-0.063 -0.656)" fill="#96d5dd"/>
    <circle id="Ellipse_201" data-name="Ellipse 201" cx="60" cy="60" r="60" transform="translate(0.219 0)" fill="#60c8d2"/>
    <path id="Path_18400" data-name="Path 18400" d="M84.106,36.176C47.529,29.393,36.139,50.158,35.016,61.389c1.343,2.623,2.856,8.193-1.835,9.485-5.863,1.615,1.9,12.348,3.611,8.512S47.1,85.523,53.733,95.94s13.361-9.5,7.56-36.416,21.164,3.368,33.688,11.409,12.146,3.212,4.982-5.1-2.085-2.038-1.521-15.65C98.893,39.293,89.073,36.307,84.106,36.176Z" transform="translate(-0.063 -0.656)" fill="#96d5dd"/>
    <path id="Path_18401" data-name="Path 18401" d="M14.373,25.555C-1.536,46.266,1.741,69.078,5.368,77.9A7.175,7.175,0,0,1,8.1,85.963c-1.578,5.253,5.142,7.5,4.392,3.564s6-2.814,12.194,0,1.5-16.134-10.318-31.33,9.005-12.382,16.509-15.384,5.628-6.191,0-7.129-1.5,0-6.191-10.131C20.939,17.45,16.249,22.178,14.373,25.555Z" transform="translate(-0.063 -0.656)" fill="#96d5dd"/>
    <path id="Path_18402" data-name="Path 18402" d="M49.571,3.188c-9.1-1.635,1.405,8.262,7.794,13.416,1.533.256,4.626,1.584,4.728,4.855.128,4.089,16.1,8.3,11.5,2.3s3.066-4.727,9.455-6.388S82.536,7.788,79.6,4.593,66.948,2.549,65.415,3.188,60.943,5.232,49.571,3.188Z" transform="translate(-0.063 -0.656)" fill="#96d5dd"/>
    <path id="Path_18403" data-name="Path 18403" d="M63.18,39.868c-19.118,3.5-24.469,18.725-24.755,25.9,4.38-3.332,23.327,2.38,28.183,3.332,3.885.762,18.63-5.776,25.517-9.14C90.442,51.8,82.3,36.364,63.18,39.868Z" transform="translate(-0.063 -0.656)" fill="#8bb73f"/>
    <path id="Path_18404" data-name="Path 18404" d="M41.758,70.715c-1.828.381-7.744,6.379-10.473,9.331L47.47,95.089l6.094-3.142c-.444-.286,1.142-.476,11.044,1.047s17.075-8,19.423-12.949c2.6-1.618,8.683-6.055,12.187-10.853s-3.364-3.205-7.236-1.809l-12.473,10-4.57-3.333H55.182C53.088,68.906,44.043,70.239,41.758,70.715Z" transform="translate(-0.063 -0.656)" fill="#8bb73f"/>
    <path id="Path_18405" data-name="Path 18405" d="M29.971,79.252c-1.693-1.432-4.83-1.953-6.186,0,4.612,5.372,14.65,16.636,17.906,18.719s4.938,4.178,5.372,2.93c.76-.434,2.181-1.66,1.791-3.093C48.365,96.018,32.087,81.042,29.971,79.252Z" transform="translate(-0.063 -0.656)" fill="none" stroke="#353535" stroke-width="3"/>
    <path id="Path_18406" data-name="Path 18406" d="M31.053,80.11l7.76-7.76c3.4-2.328,10.93-5.1,16.961,2.439H73.291c2.476,1.293,6.164,4.612,1.109,7.539H54.444" transform="translate(-0.063 -0.656)" fill="none" stroke="#353535" stroke-width="3"/>
    <path id="Path_18407" data-name="Path 18407" d="M76.395,78.67,89.476,66.919c2.809-1.219,8.274-3.434,6.323,3.838l-8.607,6.412-7.8,9.534c-1.367,1.035-5.9,6.4-10.425,6.047s-12.453-.813-15.853-1c-1.885.85-5.765,2.882-6.208,4.213" transform="translate(-0.063 -0.656)" fill="none" stroke="#353535" stroke-width="3"/>
    <path id="Path_18408" data-name="Path 18408" d="M38.761,67.045c-.271-4.232.847-14.031,7.488-19.37,8.3-6.674,16.929-12.046,34.02-4.4A30.86,30.86,0,0,1,92.641,60.7M49.012,65.479c1.515-1.737,4.324-5.743,3.437-7.871s-5.174-6.208-7.206-7.982" transform="translate(-0.063 -0.656)" fill="none" stroke="#353535" stroke-linejoin="round" stroke-width="3"/>
    <path id="Path_18409" data-name="Path 18409" d="M65.115,69.868c-.185-3.215-4.489-9.985,5.621-9.9,1.072.3,10.076.451,11.673-2.742a25.3,25.3,0,0,1,5.1-6.762" transform="translate(-0.063 -0.656)" fill="none" stroke="#353535" stroke-width="3"/>
    <path id="Path_18410" data-name="Path 18410" d="M54.111,41.864c.961,2.956,3.991,8.714,8.425,8.093,5.543-.776,7.317-4.545,11.308-2.993,3.193,1.242,5.765-1.7,6.652-3.326M65.647,38.971c-.428-1.535-.5-5.214,2.458-6.723A70.593,70.593,0,0,1,75.655,29m-18.5,0c2.844.478,8.169,4.6,8.532,10.458" transform="translate(-0.063 -0.656)" fill="none" stroke="#353535" stroke-width="3"/>
    <path id="Path_18411" data-name="Path 18411" d="M75.795,23.64c-3.745.242-5.7,4.933-5.574,7.248,2.19,1.837,6.6,3.322,10.038,0a6.841,6.841,0,0,1,8.522-.755C86.818,27.113,80.476,23.338,75.795,23.64Z" transform="translate(-0.063 -0.656)" fill="none" stroke="#353535" stroke-width="3"/>
    <path id="Path_18412" data-name="Path 18412" d="M54.893,23.941c7.188,0,7.626,5.033,6.946,7.55-.15.808-.758,2.8-1.979,3.416-1.485.227-6.809-.4-8.742-2.51s-5.436-2.441-6.946-2.341C45.38,27.339,51.823,24.847,54.893,23.941Z" transform="translate(-0.063 -0.656)" fill="none" stroke="#353535" stroke-width="3"/>
  </g>
</svg>
