<svg xmlns="http://www.w3.org/2000/svg" width="48" height="48" viewBox="0 0 48 48">
  <g id="Group_24586" data-name="Group 24586" transform="translate(-0.103 -0.001)">
    <path id="Path_23468" data-name="Path 23468" d="M32.494,16.393c-9.532-4.274-7.041-1.016-10.137,1.212-.232.646-5.024,6.64-6.776,6.538-2.19-.128-2.444,2.7-.981,2.039s1.651,2.076,1.129,4.745,6,8.991,10.815,2.985,6.074-7.542,7.936-4.9,3.458,2.277,3.3,0-1.635-2.107,1.873-4.869C42.463,21.933,33.982,16.81,32.494,16.393Z" fill="#96d5dd"/>
    <circle id="Ellipse_206" data-name="Ellipse 206" cx="24" cy="24" r="24" transform="translate(0.103 0.001)" fill="#60c8d2"/>
    <path id="Path_23469" data-name="Path 23469" d="M33.552,14.209C18.921,11.5,14.365,19.8,13.916,24.294c.537,1.049,1.142,3.277-.734,3.794-2.345.646.76,4.939,1.444,3.4s4.123,2.455,6.777,6.622,5.344-3.8,3.024-14.566S32.892,24.9,37.9,28.111s4.858,1.285,1.993-2.04-.834-.815-.609-6.26C39.466,15.456,35.539,14.261,33.552,14.209Z" fill="#96d5dd"/>
    <path id="Path_23470" data-name="Path 23470" d="M5.659,9.96C-.705,18.245.606,27.37,2.057,30.9a2.87,2.87,0,0,1,1.095,3.227c-.631,2.1,2.057,3,1.757,1.426s2.4-1.126,4.878,0,.6-6.454-4.127-12.532,3.6-4.953,6.6-6.153,2.251-2.476,0-2.852-.6,0-2.476-4.052C8.285,6.719,6.409,8.61,5.659,9.96Z" fill="#96d5dd"/>
    <path id="Path_23471" data-name="Path 23471" d="M19.738,1.014C16.1.36,20.3,4.319,22.855,6.381a2.166,2.166,0,0,1,1.891,1.942c.051,1.635,6.44,3.322,4.6.92s1.226-1.891,3.782-2.555-.2-3.833-1.38-5.111-5.06-.818-5.673-.562S24.287,1.832,19.738,1.014Z" fill="#96d5dd"/>
    <path id="Path_23472" data-name="Path 23472" d="M15.647,19.931c-2.117.651-5.409,5.75-6.224,7.107,1.7.837,6.216,1.835,7.486,2.311,3.471,1.3,6.461,6.87,8.664,6.177.2-1.493,5.738-5.582,7.774-6.735,1.629-.923,4.293-5.874,4.406-7.774-2.334.434-11.521-4.207-13.693-6.31C22.139,16.176,17.764,19.279,15.647,19.931Z" fill="#8bb73f"/>
    <path id="Path_23473" data-name="Path 23473" d="M9.313,31.387S13.9,21.874,20.866,19.664,30.041,6.242,30.041,6.242" fill="none" stroke="#353535" stroke-linecap="round" stroke-linejoin="round" stroke-width="1"/>
    <path id="Path_23474" data-name="Path 23474" d="M12.325,14.6s10.561.138,15.506,5.516,16.042,2.643,16.042,2.643" fill="none" stroke="#353535" stroke-linecap="round" stroke-linejoin="round" stroke-width="1"/>
    <path id="Path_23475" data-name="Path 23475" d="M12.769,36.572s4.588-9.513,11.552-11.722S33.5,11.427,33.5,11.427" fill="none" stroke="#353535" stroke-linecap="round" stroke-linejoin="round" stroke-width="1"/>
    <path id="Path_23476" data-name="Path 23476" d="M9.087,19.921s10.561.138,15.506,5.516S40.635,28.08,40.635,28.08" fill="none" stroke="#353535" stroke-linecap="round" stroke-linejoin="round" stroke-width="1"/>
    <path id="Path_23477" data-name="Path 23477" d="M16.226,41.756s4.588-9.513,11.552-11.722,9.175-13.422,9.175-13.422" fill="none" stroke="#353535" stroke-linecap="round" stroke-linejoin="round" stroke-width="1"/>
    <path id="Path_23478" data-name="Path 23478" d="M5.848,25.245s10.561.138,15.506,5.516S37.4,33.4,37.4,33.4" fill="none" stroke="#353535" stroke-linecap="round" stroke-linejoin="round" stroke-width="1"/>
  </g>
</svg>
