<svg xmlns="http://www.w3.org/2000/svg" width="120" height="120" viewBox="0 0 120 120">
  <g id="Group_24560" data-name="Group 24560" transform="translate(0.116)">
    <path id="Path_18365" data-name="Path 18365" d="M81.462,41.635c-23.831-10.684-17.6-2.539-25.342,3.03-.58,1.616-12.56,16.6-16.94,16.346-5.475-.319-6.11,6.739-2.451,5.1s4.127,5.189,2.822,11.863,14.989,22.477,27.037,7.462S81.772,66.578,86.429,73.184s8.646,5.692,8.256,0S90.6,67.917,99.368,61.01C106.384,55.485,85.182,42.679,81.462,41.635Z" transform="translate(-0.53 -0.656)" fill="#96d5dd"/>
    <circle id="Ellipse_198" data-name="Ellipse 198" cx="60" cy="60" r="60" transform="translate(-0.116 0)" fill="#60c8d2"/>
    <path id="Path_18366" data-name="Path 18366" d="M84.106,36.176C47.529,29.393,36.139,50.158,35.016,61.389c1.343,2.623,2.856,8.193-1.835,9.485-5.863,1.615,1.9,12.348,3.611,8.512S47.1,85.523,53.733,95.94s13.361-9.5,7.56-36.416,21.164,3.368,33.688,11.409,12.146,3.212,4.982-5.1-2.085-2.038-1.521-15.65C98.893,39.293,89.073,36.307,84.106,36.176Z" transform="translate(-0.53 -0.656)" fill="#96d5dd"/>
    <path id="Path_18367" data-name="Path 18367" d="M14.373,25.555C-1.536,46.266,1.741,69.078,5.368,77.9A7.175,7.175,0,0,1,8.1,85.963c-1.578,5.253,5.142,7.5,4.392,3.564s6-2.814,12.194,0,1.5-16.134-10.318-31.33,9.005-12.382,16.509-15.384,5.628-6.191,0-7.129-1.5,0-6.191-10.131C20.939,17.45,16.249,22.178,14.373,25.555Z" transform="translate(-0.53 -0.656)" fill="#96d5dd"/>
    <path id="Path_18368" data-name="Path 18368" d="M49.571,3.188c-9.1-1.635,1.405,8.262,7.794,13.416,1.533.256,4.626,1.584,4.728,4.855.128,4.089,16.1,8.3,11.5,2.3s3.066-4.727,9.455-6.388S82.536,7.788,79.6,4.593,66.948,2.549,65.415,3.188,60.943,5.232,49.571,3.188Z" transform="translate(-0.53 -0.656)" fill="#96d5dd"/>
    <path id="Path_18369" data-name="Path 18369" d="M101.116,46.9H80.234l3.1-12.256H36.6s-6.12,16.391-5.051,21.415S26.5,77.469,26.5,77.469l7.408.808c1.032-2.694,4.714-8.081,11.179-8.081s6.016,4.849,4.983,7.273H78.085A8.4,8.4,0,0,1,88.021,70c5.231.725,5.867,5.092,5.149,7.472H99.5c1.3-3.367,4.094-10.613,4.848-12.66.943-2.559.27-12.526,0-15.623A2.412,2.412,0,0,0,101.116,46.9Z" transform="translate(-0.53 -0.656)" fill="#8bb73f" stroke="#353535" stroke-width="3"/>
    <path id="Path_18370" data-name="Path 18370" d="M86.166,70.321c-6.091.807-7.919,4.984-8.072,6.971-.428,2.507.312,7.521,6.7,7.521s8.225-5.381,8.347-8.072C93.352,74.265,92.257,69.513,86.166,70.321Z" transform="translate(-0.53 -0.656)" fill="#8bb73f" stroke="#353535" stroke-width="3"/>
    <path id="Path_18371" data-name="Path 18371" d="M42.764,71.715c-6.09.807-7.919,4.984-8.072,6.971-.428,2.507.312,7.521,6.7,7.521s8.225-5.381,8.347-8.072C49.949,75.66,48.854,70.908,42.764,71.715Z" transform="translate(-0.53 -0.656)" fill="#8bb73f" stroke="#353535" stroke-width="3"/>
    <path id="Path_18372" data-name="Path 18372" d="M76.81,59.4l14.309-1.1c.7-.4,2.2-.734,2.568,1.1.459,2.293.642,3.578,2.568,3.578h7.888" transform="translate(-0.53 -0.656)" fill="none" stroke="#353535" stroke-width="3"/>
    <path id="Path_18373" data-name="Path 18373" d="M17.323,35.553c4.285.461,13.171,1.107,14.436,0" transform="translate(-0.53 -0.656)" fill="none" stroke="#8bb73f" stroke-linecap="round" stroke-width="3"/>
    <path id="Path_18374" data-name="Path 18374" d="M16.136,50.186H28" transform="translate(-0.53 -0.656)" fill="none" stroke="#8bb73f" stroke-linecap="round" stroke-width="3"/>
    <path id="Path_18375" data-name="Path 18375" d="M83.231,34.821c-3.322,13.378-10.967,41.5-10,42.469" transform="translate(-0.53 -0.656)" fill="none" stroke="#353535" stroke-width="3"/>
  </g>
</svg>
