<svg xmlns="http://www.w3.org/2000/svg" width="120" height="120" viewBox="0 0 120 120">
  <g id="Group_24559" data-name="Group 24559" transform="translate(-0.451)">
    <path id="Path_18356" data-name="Path 18356" d="M81.462,41.635c-23.831-10.684-17.6-2.539-25.342,3.03-.58,1.616-12.56,16.6-16.94,16.346-5.475-.319-6.11,6.739-2.451,5.1s4.127,5.189,2.822,11.863,14.989,22.477,27.037,7.462S81.772,66.578,86.429,73.184s8.646,5.692,8.256,0S90.6,67.917,99.368,61.01C106.384,55.485,85.182,42.679,81.462,41.635Z" transform="translate(-0.018 -0.656)" fill="#96d5dd"/>
    <circle id="Ellipse_197" data-name="Ellipse 197" cx="60" cy="60" r="60" transform="translate(0.451 0)" fill="#60c8d2"/>
    <path id="Path_18357" data-name="Path 18357" d="M84.106,36.176C47.529,29.393,36.139,50.158,35.016,61.389c1.343,2.623,2.856,8.193-1.835,9.485-5.863,1.615,1.9,12.348,3.611,8.512S47.1,85.523,53.733,95.94s13.361-9.5,7.56-36.416,21.164,3.368,33.688,11.409,12.146,3.212,4.982-5.1-2.085-2.038-1.521-15.65C98.893,39.293,89.073,36.307,84.106,36.176Z" transform="translate(-0.018 -0.656)" fill="#96d5dd"/>
    <path id="Path_18358" data-name="Path 18358" d="M14.373,25.555C-1.536,46.266,1.741,69.078,5.368,77.9A7.175,7.175,0,0,1,8.1,85.963c-1.578,5.253,5.142,7.5,4.392,3.564s6-2.814,12.194,0,1.5-16.134-10.318-31.33,9.005-12.382,16.509-15.384,5.628-6.191,0-7.129-1.5,0-6.191-10.131C20.939,17.45,16.249,22.178,14.373,25.555Z" transform="translate(-0.018 -0.656)" fill="#96d5dd"/>
    <path id="Path_18359" data-name="Path 18359" d="M49.571,3.188c-9.1-1.635,1.405,8.262,7.794,13.416,1.533.256,4.626,1.584,4.728,4.855.128,4.089,16.1,8.3,11.5,2.3s3.066-4.727,9.455-6.388S82.536,7.788,79.6,4.593,66.948,2.549,65.415,3.188,60.943,5.232,49.571,3.188Z" transform="translate(-0.018 -0.656)" fill="#96d5dd"/>
    <path id="Path_18360" data-name="Path 18360" d="M57.548,60.787c-8.514-4.894-26.084-14.109-29.782-16.275,0,8.179.015,25.889.015,28.946v4.224c8.246,4.559,25.342,13.878,27.756,14.683s3.956.335,4.425,0c-.2-8.649-.388-27.769-.388-29.759C59.574,61.692,58.554,61.055,57.548,60.787Z" transform="translate(-0.018 -0.656)" fill="#8bb73f" stroke="#353535" stroke-width="3"/>
    <path id="Path_18361" data-name="Path 18361" d="M90.478,45.435c-.767-.329-20.981,10.5-30.844,15.843l.3,30.979L93.08,76.8c.137-7.99.329-24.684,0-27.533C92.669,45.709,91.436,45.846,90.478,45.435Z" transform="translate(-0.018 -0.656)" fill="#8bb73f" stroke="#353535" stroke-width="3"/>
    <path id="Path_18362" data-name="Path 18362" d="M27.708,44.512c.767,0,20.718-11.176,30.58-16.472a11.994,11.994,0,0,1,3.7.959c1.425.657,20.167,11.636,28.934,16.339a.741.741,0,0,0,.092.022c.036,0,.034.005,0,0-.176-.006-1.254.064-3.822,1.72-3.4,2.192-20.384,10.27-28.146,14.288Z" transform="translate(-0.018 -0.656)" fill="#8bb73f"/>
    <path id="Path_18363" data-name="Path 18363" d="M27.708,44.512c.767,0,20.718-11.176,30.58-16.472a11.994,11.994,0,0,1,3.7.959c1.425.657,20.167,11.636,28.934,16.339.457.137-.333-.45-3.73,1.742S66.807,57.349,59.045,61.367Z" transform="translate(-0.018 -0.656)" fill="none" stroke="#353535" stroke-width="3"/>
    <path id="Path_18364" data-name="Path 18364" d="M45.274,34.751c.548.329,20.958,12.008,31.094,17.807v13.15" transform="translate(-0.018 -0.656)" fill="none" stroke="#353535" stroke-linecap="round" stroke-width="3"/>
  </g>
</svg>
