<svg xmlns="http://www.w3.org/2000/svg" width="120" height="120" viewBox="0 0 120 120">
  <g id="Group_24558" data-name="Group 24558" transform="translate(0)">
    <path id="Path_18350" data-name="Path 18350" d="M81.462,41.635c-23.831-10.684-17.6-2.539-25.342,3.03-.58,1.616-12.56,16.6-16.94,16.346-5.475-.319-6.11,6.739-2.451,5.1s4.127,5.189,2.822,11.863,14.989,22.477,27.037,7.462S81.772,66.578,86.429,73.184s8.646,5.692,8.256,0S90.6,67.917,99.368,61.01C106.384,55.485,85.182,42.679,81.462,41.635Z" transform="translate(-0.485 -0.656)" fill="#96d5dd"/>
    <circle id="Ellipse_196" data-name="Ellipse 196" cx="60" cy="60" r="60" transform="translate(0 0)" fill="#60c8d2"/>
    <path id="Path_18351" data-name="Path 18351" d="M84.106,36.176C47.529,29.393,36.139,50.158,35.016,61.389c1.343,2.623,2.856,8.193-1.835,9.485-5.863,1.615,1.9,12.348,3.611,8.512S47.1,85.523,53.733,95.94s13.361-9.5,7.56-36.416,21.164,3.368,33.688,11.409,12.146,3.212,4.982-5.1-2.085-2.038-1.521-15.65C98.893,39.293,89.073,36.307,84.106,36.176Z" transform="translate(-0.485 -0.656)" fill="#96d5dd"/>
    <path id="Path_18352" data-name="Path 18352" d="M14.373,25.555C-1.536,46.266,1.741,69.078,5.368,77.9A7.175,7.175,0,0,1,8.1,85.963c-1.578,5.253,5.142,7.5,4.392,3.564s6-2.814,12.194,0,1.5-16.134-10.318-31.33,9.005-12.382,16.509-15.384,5.628-6.191,0-7.129-1.5,0-6.191-10.131C20.939,17.45,16.249,22.178,14.373,25.555Z" transform="translate(-0.485 -0.656)" fill="#96d5dd"/>
    <path id="Path_18353" data-name="Path 18353" d="M49.571,3.188c-9.1-1.635,1.405,8.262,7.794,13.416,1.533.256,4.626,1.584,4.728,4.855.128,4.089,16.1,8.3,11.5,2.3s3.066-4.727,9.455-6.388S82.536,7.788,79.6,4.593,66.948,2.549,65.415,3.188,60.943,5.232,49.571,3.188Z" transform="translate(-0.485 -0.656)" fill="#96d5dd"/>
    <path id="Path_18354" data-name="Path 18354" d="M33.011,66.957c2.4,11.322,10.221,13.366,13.831,12.973,2.172.107,8.7-3.458,11.687-5.253,1,1.108,5.211,3.109,14.045,2.251s9.685-11.007,9.006-15.975l-.965-4.932C89.535,46.5,85.9,39.9,82.974,37.795a25.166,25.166,0,0,0-8.792-16.726c-6.69-5.575-18.211-.072-23.136,3.377-3.2-1.724-11.279-4.565-18-2.138s-4.467,13.909-2.5,19.347C18.794,51.089,27.293,62.454,33.011,66.957Z" transform="translate(-0.485 -0.656)" fill="#8bb73f"/>
    <path id="Path_18355" data-name="Path 18355" d="M30.964,41.959a1.5,1.5,0,0,0,2.922-.68ZM55.112,27.682l-.732,1.309.806.451.765-.516ZM86.825,41.619l-1.5.1.04.577.417.4ZM84.274,59.634l-1.109-1.01-.553.607.214.793ZM84,64.369a1.5,1.5,0,1,0,2.9-.78Zm2.58,6.451a1.5,1.5,0,0,0-2.917-.7Zm-24.39,6.986.68-1.337-.847-.431-.751.581ZM37.059,69.737l1.447-.4-.151-.554-.482-.311ZM35.853,45.681a1.5,1.5,0,0,0-1.978-2.255Zm15.453,22.6a1.5,1.5,0,1,0,1.756,2.433Zm19.4-1.644a1.5,1.5,0,1,0,1.509-2.593Zm-4.5,4.973a1.5,1.5,0,0,0,2.708-1.292Zm-5.637-7.523a1.5,1.5,0,1,0-.167,3ZM70.756,52.244a1.5,1.5,0,1,0-2.015,2.222ZM73.127,60.2a1.5,1.5,0,0,0,3,0ZM53.147,56.384a1.5,1.5,0,1,0,1.978,2.255Zm25.036-1.777a1.5,1.5,0,0,0,.207-2.993Zm-29.408-13a1.5,1.5,0,1,0,.475,2.962Zm7.386,3.169a1.5,1.5,0,0,0,1.8-2.4Zm1.356,5.74a1.5,1.5,0,1,0,2.994-.187Zm-7-18.25a1.5,1.5,0,0,0-1.546,2.571ZM43.4,44.276a1.5,1.5,0,0,0,0,3ZM38.85,50.444a1.5,1.5,0,1,0,.811,2.888Zm10.615,47.9a1.5,1.5,0,0,0,3,0Zm24.368-56.02a1.5,1.5,0,0,0-.85-2.877ZM33.886,41.279a17.405,17.405,0,0,1-.105-6.347,13.827,13.827,0,0,1,2.647-6.49,8.116,8.116,0,0,1,6.134-3.067c2.856-.161,6.713.76,11.819,3.617l1.465-2.618c-5.384-3.012-9.821-4.2-13.453-3.994a11.111,11.111,0,0,0-8.3,4.176,16.8,16.8,0,0,0-3.277,7.906,20.373,20.373,0,0,0,.146,7.5ZM55.951,28.926c6.485-4.372,13.564-5.982,19.04-4.217C80.3,26.422,84.625,31.5,85.329,41.722l2.993-.206c-.76-11.047-5.588-17.463-12.41-19.663-6.66-2.147-14.705-.089-21.638,4.585ZM85.785,42.7c2.041,1.964,3.281,3.509,3.3,5.556.019,2.127-1.284,5.283-5.919,10.368l2.217,2.021c4.725-5.184,6.731-9.08,6.7-12.415-.03-3.416-2.195-5.743-4.219-7.691ZM82.826,60.024,84,64.369l2.9-.78-1.17-4.345Zm.832,10.1c-.687,2.871-2.3,6.256-5.365,8.039-2.967,1.728-7.759,2.211-15.428-1.691l-1.361,2.674c8.188,4.166,14.13,4.038,18.3,1.61,4.075-2.373,6-6.69,6.772-9.932Zm-22.39,6.5c-4.18,3.232-8.828,5.364-12.821,4.834-3.757-.5-7.582-3.481-9.942-12.112l-2.894.791C38.132,79.35,42.6,83.7,48.053,84.427c5.216.692,10.692-2.065,15.05-5.435Zm-23.4-8.142c-2.8-1.807-6.16-5.113-7.387-9.1a10.248,10.248,0,0,1,.043-6.338,17.142,17.142,0,0,1,5.325-7.357l-1.978-2.255a20.092,20.092,0,0,0-6.2,8.678,13.247,13.247,0,0,0-.059,8.154c1.51,4.908,5.492,8.716,8.628,10.74Zm15.189,2.232a31.436,31.436,0,0,1,8.462-4.284c3.407-1.067,6.7-1.236,9.177.207l1.509-2.593c-3.57-2.077-7.883-1.636-11.583-.477a34.428,34.428,0,0,0-9.321,4.714Zm15.845-.4A12.716,12.716,0,0,0,66,66.521a9.023,9.023,0,0,0-5.434-2.438l-.167,3A6.049,6.049,0,0,1,64,68.76a9.741,9.741,0,0,1,2.2,2.846Zm-.166-15.847a29.337,29.337,0,0,1,2.928,2.965,9.4,9.4,0,0,1,1.1,1.613,2.679,2.679,0,0,1,.356,1.157h3a5.6,5.6,0,0,0-.688-2.527,12.363,12.363,0,0,0-1.452-2.148,32.208,32.208,0,0,0-3.231-3.282ZM55.125,58.639c.721-.632,2.96-1.9,6.877-2.882a52.165,52.165,0,0,1,16.181-1.15l.207-2.993a55.136,55.136,0,0,0-17.117,1.233c-4.133,1.036-6.895,2.457-8.126,3.537ZM49.25,44.567a25.22,25.22,0,0,1,3.949-.3,11.511,11.511,0,0,1,1.955.163,2.651,2.651,0,0,1,1.008.342l1.8-2.4a5.444,5.444,0,0,0-2.254-.892,14.457,14.457,0,0,0-2.48-.215,28.184,28.184,0,0,0-4.455.337Zm11.261,5.761a27.279,27.279,0,0,0-2.292-8.879,19.982,19.982,0,0,0-7.7-9.183l-1.546,2.571A17,17,0,0,1,55.48,42.67a24.307,24.307,0,0,1,2.038,7.845Zm-5.858,11.7a35.324,35.324,0,0,0-2.7-10.725c-1.593-3.51-4.28-7.023-8.55-7.023v3c2.365,0,4.313,1.947,5.818,5.263a32.35,32.35,0,0,1,2.445,9.752ZM39.66,53.332a41.04,41.04,0,0,0,4.372-1.52,14.258,14.258,0,0,0,4.334-2.532l-2.124-2.119a11.791,11.791,0,0,1-3.362,1.881,38.09,38.09,0,0,1-4.031,1.4Zm12.8,45.012c0-15.139-.169-27.535,2.476-37.037a27.123,27.123,0,0,1,6.271-11.751c2.977-3.134,7.032-5.58,12.621-7.231l-.85-2.877a30.582,30.582,0,0,0-13.946,8.042A30.1,30.1,0,0,0,52.05,60.5c-2.783,10-2.586,22.907-2.586,37.842Z" transform="translate(-0.485 -0.656)" fill="#353535"/>
  </g>
</svg>
