<svg xmlns="http://www.w3.org/2000/svg" width="120" height="120" viewBox="0 0 120 120">
  <g id="Group_24562" data-name="Group 24562" transform="translate(0.232)">
    <path id="Path_18389" data-name="Path 18389" d="M81.462,41.635c-23.831-10.684-17.6-2.539-25.342,3.03-.58,1.616-12.56,16.6-16.94,16.346-5.475-.319-6.11,6.739-2.451,5.1s4.127,5.189,2.822,11.863,14.989,22.477,27.037,7.462S81.772,66.578,86.429,73.184s8.646,5.692,8.256,0S90.6,67.917,99.368,61.01C106.384,55.485,85.182,42.679,81.462,41.635Z" transform="translate(-0.53 -0.656)" fill="#96d5dd"/>
    <circle id="Ellipse_200" data-name="Ellipse 200" cx="60" cy="60" r="60" transform="translate(-0.232 0)" fill="#60c8d2"/>
    <path id="Path_18390" data-name="Path 18390" d="M84.106,36.176C47.529,29.393,36.139,50.158,35.016,61.389c1.343,2.623,2.856,8.193-1.835,9.485-5.863,1.615,1.9,12.348,3.611,8.512S47.1,85.523,53.733,95.94s13.361-9.5,7.56-36.416,21.164,3.368,33.688,11.409,12.146,3.212,4.982-5.1-2.085-2.038-1.521-15.65C98.893,39.293,89.073,36.307,84.106,36.176Z" transform="translate(-0.53 -0.656)" fill="#96d5dd"/>
    <path id="Path_18391" data-name="Path 18391" d="M14.373,25.555C-1.536,46.266,1.741,69.078,5.368,77.9A7.175,7.175,0,0,1,8.1,85.963c-1.578,5.253,5.142,7.5,4.392,3.564s6-2.814,12.194,0,1.5-16.134-10.318-31.33,9.005-12.382,16.509-15.384,5.628-6.191,0-7.129-1.5,0-6.191-10.131C20.939,17.45,16.249,22.178,14.373,25.555Z" transform="translate(-0.53 -0.656)" fill="#96d5dd"/>
    <path id="Path_18392" data-name="Path 18392" d="M49.571,3.188c-9.1-1.635,1.405,8.262,7.794,13.416,1.533.256,4.626,1.584,4.728,4.855.128,4.089,16.1,8.3,11.5,2.3s3.066-4.727,9.455-6.388S82.536,7.788,79.6,4.593,66.948,2.549,65.415,3.188,60.943,5.232,49.571,3.188Z" transform="translate(-0.53 -0.656)" fill="#96d5dd"/>
    <path id="Path_18393" data-name="Path 18393" d="M26.053,54.07c-.851,6.334,5.234,9.069,8.382,9.645.293.058,9.07-1.369,9.258-8.513.15-5.715-4.692-8.216-7.131-8.751C33.414,46.351,26.9,47.736,26.053,54.07Z" transform="translate(-0.53 -0.656)" fill="#8bb73f" stroke="#353535" stroke-width="3"/>
    <path id="Path_18394" data-name="Path 18394" d="M78.137,52.715c-.524,6.811,5.5,9.664,8.573,10.24,2.48-.159,8.845-2.009,9.56-8.011s-4.936-8.619-7.238-9.195C85.619,45.234,78.661,45.9,78.137,52.715Z" transform="translate(-0.53 -0.656)" fill="#8bb73f" stroke="#353535" stroke-width="3"/>
    <path id="Path_18395" data-name="Path 18395" d="M47.087,92.543H75.06c2.622,0,7.605-3.724,6.206-12.291s-9.441-16-21.067-16.7S41.055,72.035,39.657,82C38.538,89.973,44.144,92.351,47.087,92.543Z" transform="translate(-0.53 -0.656)" fill="#8bb73f" stroke="#353535" stroke-width="3"/>
    <path id="Path_18396" data-name="Path 18396" d="M48.492,49.963c-1,7.144,7.124,11.47,11.312,12.74,3.255.576,10.676.97,12.057-8.412,1.726-11.728-9.616-13.5-10.687-13.972S49.743,41.033,48.492,49.963Z" transform="translate(-0.53 -0.656)" fill="#8bb73f" stroke="#353535" stroke-width="3"/>
    <path id="Path_18397" data-name="Path 18397" d="M74.867,68.657c1.508-2.441,5.784-5.239,11.966-5.239,9.12,0,14.883,1.965,15.657,14.824" transform="translate(-0.53 -0.656)" fill="none" stroke="#353535" stroke-linecap="round" stroke-width="3"/>
    <path id="Path_18398" data-name="Path 18398" d="M46.488,68.714c-4.138-4.079-16.407-9.3-25.218,0-1.632,1.806-3.034,5.875-2.754,10.141" transform="translate(-0.53 -0.656)" fill="none" stroke="#353535" stroke-linecap="round" stroke-width="3"/>
  </g>
</svg>
