<svg xmlns="http://www.w3.org/2000/svg" xmlns:xlink="http://www.w3.org/1999/xlink" width="48" height="48" viewBox="0 0 48 48">
  <defs>
    <clipPath id="clip-path">
      <rect id="Rectangle_1227" data-name="Rectangle 1227" width="30" height="30" transform="translate(9.103 9.001)" fill="#fff"/>
    </clipPath>
  </defs>
  <g id="Group_24590" data-name="Group 24590" transform="translate(-0.103 -0.001)">
    <path id="Path_23514" data-name="Path 23514" d="M32.494,16.393c-9.532-4.274-7.041-1.016-10.137,1.212-.232.646-5.024,6.64-6.776,6.538-2.19-.128-2.444,2.7-.981,2.039s1.651,2.076,1.129,4.745,6,8.991,10.815,2.985,6.074-7.542,7.936-4.9,3.458,2.277,3.3,0-1.635-2.107,1.873-4.869C42.463,21.933,33.982,16.81,32.494,16.393Z" fill="#96d5dd"/>
    <circle id="Ellipse_210" data-name="Ellipse 210" cx="24" cy="24" r="24" transform="translate(0.103 0.001)" fill="#60c8d2"/>
    <path id="Path_23515" data-name="Path 23515" d="M33.552,14.209C18.921,11.5,14.365,19.8,13.915,24.294c.537,1.049,1.142,3.277-.734,3.794-2.345.646.76,4.939,1.444,3.4s4.123,2.455,6.777,6.622,5.344-3.8,3.024-14.566S32.892,24.9,37.9,28.111s4.858,1.285,1.993-2.04-.834-.815-.609-6.26C39.466,15.456,35.538,14.261,33.552,14.209Z" fill="#96d5dd"/>
    <path id="Path_23516" data-name="Path 23516" d="M5.659,9.96C-.705,18.245.606,27.37,2.057,30.9a2.87,2.87,0,0,1,1.095,3.227c-.631,2.1,2.057,3,1.757,1.426s2.4-1.126,4.878,0,.6-6.454-4.127-12.532,3.6-4.953,6.6-6.153,2.251-2.476,0-2.852-.6,0-2.476-4.052C8.285,6.719,6.409,8.61,5.659,9.96Z" fill="#96d5dd"/>
    <path id="Path_23517" data-name="Path 23517" d="M19.738,1.014C16.1.36,20.3,4.319,22.855,6.381a2.166,2.166,0,0,1,1.891,1.942c.051,1.635,6.44,3.322,4.6.92s1.226-1.891,3.782-2.555-.2-3.833-1.38-5.111-5.06-.818-5.673-.562S24.286,1.832,19.738,1.014Z" fill="#96d5dd"/>
    <g id="Group_24683" data-name="Group 24683" clip-path="url(#clip-path)">
      <path id="Path_23518" data-name="Path 23518" d="M16.158,29.312c-.334,1.5.765,5.611,1.356,7.477,3.35.325,10.246.814,11.025.174s1.229-6.48,1.356-9.321l-2.539.487-4.486,8.66L17.514,23.017C17.2,24.489,16.491,27.809,16.158,29.312Z" fill="#8bb73f"/>
      <path id="Path_23519" data-name="Path 23519" d="M9.975,26.693c0,.327,3.234,1.021,4.851,1.328l.868.459,1.787-5.924L20.8,27.2c2.009-.374,6.424-1.072,8.017-.868,1.992.255,5.873.919,6.69.358s0-7.047-.817-8.375c-.654-1.062-.272-5.549,0-7.66-1.481-3.115-9.4,0-12.2.97s-5.975,1.685-7.149,1.277-4.9-1.736-5.362-2.247,0,.97,0,1.277Z" fill="#8bb73f"/>
      <path id="Path_23520" data-name="Path 23520" d="M16.965,29.545l-2.775-.368s-2.577-.4-2.687-.839-.709-17.13,0-16.323,4.672,3.4,7.975,2.584c4.128-1.016,11.587-5.7,16.732-2.584v7.267s1.406,8.738.572,9.056-8.168-2.274-14.418.318" fill="none" stroke="#353535" stroke-width="1"/>
      <path id="Path_23521" data-name="Path 23521" d="M19.7,37.04c-1.313-1.884-3.249-7.059-.86-13.867l3.1,6.383,2.59,7.485,4.6-9.356h2.186a11.343,11.343,0,0,1-1.642,9.356" fill="none" stroke="#353535" stroke-width="1"/>
    </g>
  </g>
</svg>
