<svg xmlns="http://www.w3.org/2000/svg" width="48" height="48" viewBox="0 0 48 48">
  <g id="Group_24591" data-name="Group 24591" transform="translate(-0.103 -0.001)">
    <path id="Path_23522" data-name="Path 23522" d="M32.494,16.393c-9.532-4.274-7.041-1.016-10.137,1.212-.232.646-5.024,6.64-6.776,6.538-2.19-.128-2.444,2.7-.981,2.039s1.651,2.076,1.129,4.745,6,8.991,10.815,2.985,6.074-7.542,7.936-4.9,3.458,2.277,3.3,0-1.635-2.107,1.873-4.869C42.463,21.933,33.982,16.81,32.494,16.393Z" fill="#96d5dd"/>
    <circle id="Ellipse_211" data-name="Ellipse 211" cx="24" cy="24" r="24" transform="translate(0.103 0.001)" fill="#60c8d2"/>
    <path id="Path_23523" data-name="Path 23523" d="M33.552,14.209C18.921,11.5,14.365,19.8,13.915,24.294c.537,1.049,1.142,3.277-.734,3.794-2.345.646.76,4.939,1.444,3.4s4.123,2.455,6.777,6.622,5.344-3.8,3.024-14.566S32.892,24.9,37.9,28.111s4.858,1.285,1.993-2.04-.834-.815-.609-6.26C39.466,15.456,35.538,14.261,33.552,14.209Z" fill="#96d5dd"/>
    <path id="Path_23524" data-name="Path 23524" d="M5.659,9.96C-.705,18.245.606,27.37,2.057,30.9a2.87,2.87,0,0,1,1.095,3.227c-.631,2.1,2.057,3,1.757,1.426s2.4-1.126,4.878,0,.6-6.454-4.127-12.532,3.6-4.953,6.6-6.153,2.251-2.476,0-2.852-.6,0-2.476-4.052C8.285,6.719,6.409,8.61,5.659,9.96Z" fill="#96d5dd"/>
    <path id="Path_23525" data-name="Path 23525" d="M19.738,1.014C16.1.36,20.3,4.319,22.855,6.381a2.166,2.166,0,0,1,1.891,1.942c.051,1.635,6.44,3.322,4.6.92s1.226-1.891,3.782-2.555-.2-3.833-1.38-5.111-5.06-.818-5.673-.562S24.286,1.832,19.738,1.014Z" fill="#96d5dd"/>
    <path id="Path_23526" data-name="Path 23526" d="M12.938,30.99c-.872.057-1.216,2.266-1.279,3.363-.211,1.569,1.563,2.345,2.321,2.7s2.842-1.066,3.245-1.729-.142-2.416-.64-3.482S14.027,30.919,12.938,30.99Z" fill="#8bb73f"/>
    <path id="Path_23527" data-name="Path 23527" d="M33.509,30.99c-.872.057-1.216,2.266-1.279,3.363-.211,1.569,1.563,2.345,2.321,2.7s2.842-1.066,3.245-1.729-.142-2.416-.639-3.482S34.6,30.919,33.509,30.99Z" fill="#8bb73f"/>
    <path id="Path_23528" data-name="Path 23528" d="M7.047,29.2c.163,1.144,1.736,1.532,2.5,1.583A3.621,3.621,0,0,1,11.9,27.715c1.675-.49,3.489,1.838,4.187,3.064h12.92A4.3,4.3,0,0,1,32.478,27.2c3.115-.613,2.655,2.962,3.472,3.575a3.592,3.592,0,0,0,1.94.613c.034-2.723.082-8.252,0-8.579a31.423,31.423,0,0,0-2.757-4.545c-.97-1.277-3.575-.766-4.545-.766a3.459,3.459,0,0,1-1.583-.357V15.153c0-2.043-.766-2.145-2.145-2.5s-16.9-.2-17.669-.357a3.319,3.319,0,0,0-3.268,2.349c-.613,1.889.715,6.741.613,9.09A25.4,25.4,0,0,0,7.047,29.2Z" fill="#8bb73f"/>
    <path id="Path_23529" data-name="Path 23529" d="M34.653,31.537c-.276-.253-.65.211-.8.474-.021,0-.124.111-.369.554-.306.554.7.712.816,1.053s.867-.632,1.173-.83S35,31.853,34.653,31.537Z" fill="none" stroke="#353535" stroke-width="1"/>
    <path id="Path_23530" data-name="Path 23530" d="M31.537,25.161a28.557,28.557,0,0,1,0-4.16c.855-.052,2.612-.155,2.807-.155a25.651,25.651,0,0,1,2.526,3.386l.412.929c-1.048.072-3.256.213-3.705.213A17.343,17.343,0,0,1,31.537,25.161Z" fill="none" stroke="#353535" stroke-width="1"/>
    <path id="Path_23531" data-name="Path 23531" d="M8.1,26.305c7.223-.375,21.939-.51,22.613-.2" fill="none" stroke="#353535" stroke-width="1"/>
    <path id="Path_23532" data-name="Path 23532" d="M8.641,31.566c-.947-.539-.829-5.329-.651-7.656-.237-3.123-.652-7.156-.415-8.087a3.091,3.091,0,0,1,1.659-1.776c5.411-.1,16.742-.245,18.78,0s2.153,1.286,1.955,1.776l.3,2.882a24.43,24.43,0,0,1,5.438.455c1.057.28,3.567,5.12,3.567,5.12l.355,4.776c0,.886-.086,2.274,0,3.185.136,1.439-.637,1.075-1.672.546-.25-1.4-.229-2.687-1.046-3.126-5.116-2.75-5.991,2.274-5.754,2.58.19.245-9.163.1-13.863,0v-1.1c-3.7-4.263-5.648-1.041-6.161,1.1A5.619,5.619,0,0,1,8.641,31.566Z" fill="none" stroke="#353535" stroke-width="1"/>
    <path id="Path_23533" data-name="Path 23533" d="M11.894,31.975c-.044,2.818,1.814,3.485,2.749,3.466,2.7-.545,2.885-2.537,2.639-3.466A2.783,2.783,0,0,0,14.368,29.5,2.347,2.347,0,0,0,11.894,31.975Z" fill="none" stroke="#353535" stroke-width="1"/>
    <path id="Path_23534" data-name="Path 23534" d="M31.892,32.726c.059,1.61,1.747,2.283,2.583,2.419,2.95-.836,2.988-2.361,2.639-3.018a2.862,2.862,0,0,0-2.508-2.709C32.331,29.4,31.848,31.615,31.892,32.726Z" fill="none" stroke="#353535" stroke-width="1"/>
    <path id="Path_23535" data-name="Path 23535" d="M30.368,18.547l.645,13.766" fill="none" stroke="#353535" stroke-width="1"/>
    <path id="Path_23536" data-name="Path 23536" d="M14.833,31.84c-.388-.727-.858.18-1.045.725,0,.263.28.475.867.659S15.318,32.749,14.833,31.84Z" fill="none" stroke="#353535" stroke-width="1"/>
  </g>
</svg>
