<svg xmlns="http://www.w3.org/2000/svg" width="226.508" height="231.79" viewBox="0 0 226.508 231.79">
  <path id="leadership" d="M62.6,182.877V171.623l-19.959-11.2-.764,19.426c0,1.678-.6,16.763-2.275,16.763a3.039,3.039,0,0,1-3.038-3.038V155.239c0-1.078.483-5.708,1.414-6.251s2.168,3.073,3.112,3.6l26.034,14.606a3.038,3.038,0,0,1,1.553,2.651l-1.553,9.679c0,1.677.192,6.391-1.486,6.391a3.039,3.039,0,0,1-3.038-3.038ZM6.717,151.927V115.71c0-10.327,10.2-14.95,20.307-14.95h2.526c-4.035-3.723-6.67-9.71-6.67-16.471,0-10.373,6.231-23.566,16.26-23.566S55.4,73.917,55.4,84.29c0,6.761-2.636,12.747-6.671,16.471H72.576a7.756,7.756,0,0,0,2.659-.437l11.353-3.835,7.667-2.677,16.59-5.86a7.877,7.877,0,0,0,3.588-2.482l5.323-6.329c6.007-7.147,10.751-12.792,19.6-12.792l7.962-.086c-4.661-3.692-7.774-10.206-7.774-17.632,0-10.568,6.348-17.133,16.565-17.133s16.566,6.565,16.566,17.133c0,7.294-3,13.714-7.521,17.439h18.479l.047-17.961a10.208,10.208,0,0,1,7.61-9.877V3.038c0-1.678-.327-3.038,1.351-3.038H221.8c1.062,0,4.061.19,4.611,1.1s-1.426,2.4-1.917,3.344L221.3,10.577l3.195,6.135c.491.942,1.729,3,1.177,3.906s-2.809.536-3.872.536c0,0-22.541-1.741-24.431,0s0,17.149,0,17.149c4.184,1.321,5.273,4.185,5.273,8.8L204.615,76.3a10.466,10.466,0,0,1-10.448,10.459l-12.737.509a8.885,8.885,0,0,0-8.939,8.84l-2.838,20.634,28.021,14.173c.94.544-1.521,6.773-1.521,7.857l3.038,20.181a3.038,3.038,0,1,1-6.077,0V135.294l-25.183-14.559a3.04,3.04,0,0,1-1.517-2.631v-22a14.956,14.956,0,0,1,14.9-14.914l12.737-.509a4.413,4.413,0,0,0,4.492-4.385V48.11c0-2.345-4.172-7.505-6.518-7.505-2.621,0-2.261,5.04-2.261,7.505l-.04,18.559a5.777,5.777,0,0,1-5.7,5.756H139.393c-5.8,0-8.953,3.449-14.984,10.625l-5.327,6.331a13.823,13.823,0,0,1-6.213,4.3L101.74,97.616c.855.891,5.471,2.2,5.974,3.406.693,1.663-3,3.168-3.215,4.909l15.9-4.909a7.867,7.867,0,0,0,3.725-2.381l8.429-9.376c.843-.938,5.826-7.378,7-6.925s-1.7,7.7-1.7,8.957V170.72c0,1.677-.128,7.746-1.806,7.746s-4.271-6.069-4.271-7.746v-71.5l-3.131,3.483a13.8,13.8,0,0,1-6.45,4.124l-24.163,7.461h-.008l-17.364,6.195a13.777,13.777,0,0,1-4.828.833H67.644a8.6,8.6,0,0,0-8.532,8.55V145.3L83.7,159.513a3.04,3.04,0,0,1,1.517,2.631v20.732c0,1.678-1.083,6.724-2.761,6.724s-3.316-5.046-3.316-6.724V163.9L54.553,149.684a3.04,3.04,0,0,1-1.517-2.631V129.865A14.673,14.673,0,0,1,67.644,115.24h8.179c1.023,0,2.356-3.911,3.313-4.253l16.97-2.465a4.093,4.093,0,0,0,2.114-2.215c.356-.868,2.442-1.869,2.158-2.893-.009-.041-.965-2.346-1.035-2.514-.892-2.141-4.487-.964-6.619-.078-.063.027-15.544,5.259-15.544,5.259a13.806,13.806,0,0,1-4.6.757H27.025c-1.456,0-14.23.249-14.23,8.873L9.546,145.3c0,3.885,5.927,13.784,9.622,14.983V120.258c0-1.678-2.3-9.021-.624-9.021s6.7,7.344,6.7,9.021v43.561c0,.007,0,.013,0,.02s0,.013,0,.02v29.719c0,1.677,1.58,8.694-.1,8.694s-5.98-7.016-5.98-8.694l.875-17.611c-7.091-1.368-13.326-16.8-13.326-24.039ZM196.3,15.077c4.856,2.25,20.495,0,20.495,0l-3.467-2.888c-.459-.879,1.4-2.137,1.855-3.016l1.612-3.1H197.368S191.44,12.827,196.3,15.077ZM143.757,44.505c0,8.141,6.571,21.844,12.355,21.844s10.3-13.7,10.3-21.844c0-9.621-6.383-9.5-10.3-9.5S143.757,34.885,143.757,44.505ZM28.957,84.29c0,7.921,4.567,14.365,10.183,14.365S49.326,92.212,49.326,84.29c0-9.344-6.382-17.622-10.185-17.622S28.957,74.946,28.957,84.29Zm151.256,82.8c1.677,0,2.064-6.47,2.064-8.148v-17.53a3.037,3.037,0,0,0-1.553-2.651l-26.635-14.941a3.039,3.039,0,0,0-4.524,2.651v44.242c0,1.678,1.54,7.747,3.218,7.747s2.859-6.07,2.859-7.747V131.666L176.2,143.2v15.75c0,1.678,2.335,8.148,4.012,8.148Zm41.4,9.39-54.5-3.038a3.039,3.039,0,0,0-3.038,3.038v9.147L113.4,187.612c-1.678,0-4.015-.618-4.015,1.059V195.8l-50.268,3.038c-1.677,0-4.422-1.678-4.422,0v8.442H3.038A3.039,3.039,0,0,0,0,210.317V221.8c0,1.677,1.361,6.8,3.038,6.8S4,221.144,4,219.466l2.076-6.111H54.69V221.8a3.039,3.039,0,0,0,3.038,3.038c.53,0-.551,4.067,0,3.76.823-.449,3.039-5.651,3.039-6.8V201.874h48.614V221.8c0,1.678,1.36,6.8,3.038,6.8s3.039-5.121,3.039-6.8V191.709h48.614V221.8c0,1.678,2.888,9.99,4.566,9.99s1.511-8.313,1.511-9.99V179.524h48.614V221.8c0,1.678,2.863,8.041,4.54,8.041s1.536-6.363,1.536-8.041V176.485c0-1.678-1.548,0-3.226,0Z" fill="#8bb73f"/>
</svg>
