<svg width="103" height="90" viewBox="0 0 103 90" fill="none" xmlns="http://www.w3.org/2000/svg">
<path d="M50.0642 20.0769C45.3452 20.9416 40.5926 21.816 36.1458 23.6136C31.6993 25.4111 27.5264 28.212 24.8036 32.2898C23.1065 34.8313 22.0282 37.7729 20.9656 40.6829C26.3004 40.512 31.462 38.0135 34.9713 33.9036C37.4278 31.0267 39.1232 27.3906 42.0649 25.0651C44.5051 23.1358 47.6851 22.2132 49.6985 19.8042" fill="#8BB73F"/>
<path d="M50.6257 20.1525C50.6793 24.5316 51.3454 28.923 52.5958 33.1422C52.9052 34.1866 53.2579 35.2359 53.8558 36.1398C54.612 37.2829 55.7094 38.1198 56.745 38.9908C61.385 42.8927 65.1655 47.9287 67.6813 53.5589C69.8382 51.6028 69.1611 47.937 68.3093 45.0044C66.7112 39.504 64.929 33.6938 60.8015 29.8486C57.4112 26.6903 52.5054 24.8936 50.7546 20.5293" fill="#8BB73F"/>
<path d="M63.3524 2.25628C61.2091 2.6905 59.066 3.12485 56.9225 3.55937C52.4337 4.46918 47.8627 5.40949 43.8958 7.72086C40.0846 9.94125 36.9751 13.3499 33.0016 15.2474C30.6964 16.3482 28.0797 16.9585 26.2402 18.7698C30.0224 19.3741 33.9157 19.6623 37.5876 18.7214C47.2892 16.2358 53.6469 5.76327 63.4661 3.77278" fill="#8BB73F"/>
<path d="M63.0413 2.79261C61.8397 4.30335 61.8698 6.76752 62.1553 8.86625C63.1517 16.1876 65.369 23.2965 67.5761 30.3603C68.4092 33.0272 69.3805 35.8944 71.5885 37.506C72.8479 33.0855 72.5976 28.2536 71.4871 23.7098C70.3762 19.166 68.438 14.8673 66.3338 10.6982C65.0472 8.14849 63.6703 5.55405 63.0413 2.79261Z" fill="#8BB73F"/>
<path d="M72.921 -4.72725C66.4421 -2.22623 59.8033 0.306611 52.8294 0.34621C45.154 0.389766 37.4147 -2.60054 29.8789 -1.29688C36.8469 -6.4854 45.6399 -8.97747 54.3061 -8.22072C58.5551 -7.84958 62.741 -6.72976 66.9871 -6.30708C70.6897 -5.9389 74.424 -6.10605 78.0509 -6.80241" fill="#8BB73F"/>
<path d="M78.1796 -7.20934C73.3669 -4.16742 69.995 1.20261 69.198 7.09547C68.8682 9.53326 68.9586 12.0237 69.0495 14.4986C69.2367 19.5873 69.4241 24.6761 69.6113 29.7653C74.2826 23.8252 76.8349 16.0664 76.691 8.24139C76.6465 5.82108 76.354 3.39094 76.5347 0.985549C76.7601 -2.01035 77.711 -4.86259 78.6537 -7.67662" fill="#8BB73F"/>
<path d="M46.8278 34.5791C47.6078 36.6108 50.1138 37.0759 51.8009 38.382C53.6045 39.7779 54.4247 42.127 55.5754 44.1415C57.3974 47.3307 60.1681 49.8143 62.2456 52.8317C65.0118 56.8488 66.4488 61.6502 67.8397 66.3536C63.614 63.4318 59.3579 60.4853 55.7259 56.7776C52.0936 53.0696 48.4136 48.6571 47.6603 43.4608C46.9797 38.7671 46.8278 34.5791 46.8278 34.5791Z" fill="#8BB73F"/>
<path d="M45.7947 35.5792C44.1423 39.4452 42.4697 43.3874 42.0197 47.6336C41.5897 51.6885 42.2979 55.8085 43.0029 59.859C43.9932 65.5461 44.9835 71.2331 45.9736 76.9201C48.3241 66.5159 48.9086 55.6197 47.6919 44.8849C47.3698 42.0446 46.922 39.189 47.1134 36.3531" fill="#8BB73F"/>
<path d="M47.7853 32.4053C42.77 36.2177 36.6067 38.9663 33.5435 44.6242C32.2427 47.027 31.6116 49.7933 30.3148 52.1983C29.3253 54.0329 27.9541 55.6313 26.3208 56.8535C31.3274 55.1784 36.7616 53.1527 39.3399 48.3763C40.0125 47.1304 40.4489 45.758 40.9331 44.4145C42.2938 40.6382 44.0571 37.0333 46.1805 33.6864" fill="#8BB73F"/>
<path d="M47.1141 54.2875C46.9113 52.0955 46.6593 49.9064 46.5568 47.7059C46.4565 45.557 46.4513 43.4039 46.5584 41.255C46.7736 36.9341 47.4707 32.6687 48.5672 28.4857C49.6525 24.346 51.1698 20.322 53.1327 16.517C55.1372 12.6313 57.5832 8.95043 60.7874 5.94684C64.2914 2.66213 68.6363 0.462334 72.476 -2.38295C76.2659 -5.19184 79.8144 -8.40642 82.8731 -12.0028C84.2813 -13.6585 85.5778 -15.426 86.6481 -17.3201C87.7644 -19.2957 88.57 -21.4052 89.164 -23.5916C89.7469 -25.7358 90.1752 -27.9215 90.8481 -30.0411C91.4197 -31.8414 92.2341 -33.5294 93.2363 -35.1286C95.0767 -38.065 97.4136 -40.6458 99.4988 -43.4043C100.527 -44.7632 101.512 -46.1678 102.328 -47.6679C103.128 -49.1357 103.837 -50.803 104.085 -52.4674C104.21 -53.305 104.272 -54.1535 104.309 -55.0008C104.345 -55.8487 103.027 -55.8086 102.992 -54.9676C102.922 -53.3424 102.407 -51.6642 101.756 -50.1805C101.089 -48.6633 100.237 -47.2318 99.2934 -45.8726C97.3064 -43.0118 94.9416 -40.4348 92.9256 -37.5935C91.9127 -36.1661 90.9797 -34.6728 90.2561 -33.0773C89.3398 -31.0568 88.784 -28.9073 88.2583 -26.7609C87.7308 -24.6081 87.2206 -22.4367 86.3283 -20.3997C85.4599 -18.4177 84.3198 -16.5592 83.0091 -14.8405C80.2207 -11.1848 76.806 -7.94788 73.195 -5.11602C71.2916 -3.62335 69.2946 -2.26814 67.2651 -0.955066C65.2275 0.363421 63.1744 1.67016 61.2846 3.19845C54.3766 8.78453 50.2225 17.166 47.763 25.5532C45.3293 33.8525 44.6588 42.7562 45.7757 51.3292C45.9113 52.37 46.1064 53.3905 46.3503 54.4108C46.4518 54.8349 47.1548 54.727 47.1141 54.2875Z" fill="#68A44D"/>
<path d="M86.9177 -18.5189C86.8244 -15.7889 89.1584 -13.6788 91.0665 -11.7503C94.8827 -7.89378 97.7686 -2.97613 99.0552 2.36758C100.32 7.62303 100.03 13.0839 99.7315 18.4434C96.7882 14.1727 92.3298 11.2287 89.4365 6.92134C87.0272 3.33436 85.8468 -1.02343 85.5601 -5.34396C85.2732 -9.6642 85.8375 -13.9722 86.661 -18.1782" fill="#8BB73F"/>
</svg>
