<svg xmlns="http://www.w3.org/2000/svg" width="329.67" height="372.655" viewBox="0 0 329.67 372.655"><g transform="translate(-1568.867 -365.643)"><g transform="translate(1850.723 365.643)"><path d="M72.974,294.348S69.3,278.115,60.267,274.589c-9.77-3.746-10.8,5.509-.881,12.781A47.2,47.2,0,0,0,72.974,294.348Z" transform="translate(-52.426 -273.728)" fill="#8bb73f"/><g transform="translate(26.397 7.477)"><path d="M93.091,311.668s9.108-13.956,5.289-22.918c-4.113-9.623-11.459-3.893-9.77,8.3A47.582,47.582,0,0,0,93.091,311.668Z" transform="translate(-88.362 -283.907)" fill="#8bb73f"/></g><g transform="translate(10.447 30.915)"><path d="M92.1,329.54s-16.527,2.277-22.918-5.068c-6.9-7.786,1.4-12.047,11.679-5.289A47.515,47.515,0,0,1,92.1,329.54Z" transform="translate(-66.649 -315.815)" fill="#8bb73f"/></g><g transform="translate(10.1 9.181)"><path d="M66.34,287.162a132.059,132.059,0,0,1,19.833,24.461A113.383,113.383,0,0,1,98.367,340.05a201.713,201.713,0,0,1,4.481,19.98c.147.661,1.175.367,1.028-.294a160.978,160.978,0,0,0-9.108-33.569A111.9,111.9,0,0,0,79.489,300.09a168,168,0,0,0-12.34-13.736c-.514-.441-1.322.367-.808.808Z" transform="translate(-66.176 -286.226)" fill="#4c492b"/></g></g><g transform="translate(1720.84 630.027)"><g transform="translate(11.532 74.924)"><path d="M495.117,430.273a26.9,26.9,0,0,1-.441,3.159l-.22.882a32.055,32.055,0,0,1-5.583,12.487h0c-.147.22-.367.441-.514.661a23.681,23.681,0,0,1-4.187,3.893,3.111,3.111,0,0,1-.514.367,21.676,21.676,0,0,1-9.623,3.379h0c-.22,0-.514.073-.735.073h0c-.735.073-1.543.073-2.351.073a24.77,24.77,0,0,1-8.741-1.469c-.147-.073-.367-.147-.514-.22a23.492,23.492,0,0,1-8.521-5.876,4.2,4.2,0,0,1-.514-.588,33.2,33.2,0,0,1-4.848-7.492,3.582,3.582,0,0,1-.22-.514A36.633,36.633,0,0,1,444.8,430.2h50.317Z" transform="translate(-444.8 -430.2)" fill="#9e4f2e"/></g><g transform="translate(14.25 74.924)"><g transform="translate(0 0.073)"><path d="M455.992,430.3c-1.836,3.6-4.113,7.125-7.272,9.4a3.581,3.581,0,0,1-.22-.514c2.938-2.13,5.142-5.436,6.9-8.888h.588Z" transform="translate(-448.5 -430.3)" fill="#1e1d12"/></g><g transform="translate(4.995 0.073)"><path d="M465.216,430.3a25.35,25.35,0,0,0-7.2,9.035,20.506,20.506,0,0,0-2.2,8.447,4.2,4.2,0,0,1-.514-.588,21.6,21.6,0,0,1,1.763-7.125,26.463,26.463,0,0,1,7.2-9.77Z" transform="translate(-455.3 -430.3)" fill="#1e1d12"/></g><g transform="translate(35.593 0.073)"><path d="M497.943,451.382a3.112,3.112,0,0,1-.514.367,24.479,24.479,0,0,1,6.1-21.449h.735A24.245,24.245,0,0,0,497.943,451.382Z" transform="translate(-496.955 -430.3)" fill="#1e1d12"/></g><g transform="translate(14.103 12.846)"><path d="M483.126,455.557a43.937,43.937,0,0,1-3.085,4.187h0c-.22,0-.514.073-.735.073a67.48,67.48,0,0,0,4.26-5.95c.735-1.175,2.13-2.938,1.616-4.407-.661-1.91-3.232-1.1-4.628-.661-5.068,1.763-8.888,5.656-12.34,9.7-.147-.073-.367-.147-.514-.22a54.256,54.256,0,0,1,4.922-5.142,24.01,24.01,0,0,1,6.684-4.407c1.689-.735,4.7-1.91,6.1,0C486.945,450.782,484.227,453.867,483.126,455.557Z" transform="translate(-467.7 -447.689)" fill="#1e1d12"/></g><g transform="translate(40.768 3.232)"><path d="M510.317,434.6l-.22.881a17.92,17.92,0,0,0-5.583,12.487h0c-.147.22-.367.441-.514.661A18.615,18.615,0,0,1,510.317,434.6Z" transform="translate(-504 -434.6)" fill="#1e1d12"/></g><g transform="translate(15.922)"><path d="M490.908,430.273c-1.028.955-2.057,1.91-3.159,2.791a82.07,82.07,0,0,1-8.227,6.1,32.052,32.052,0,0,1-4.334,2.571,3.647,3.647,0,0,1-3.673-.073c-2.351-1.763-1.1-5.289-.073-7.419a15.541,15.541,0,0,1,2.865-4.04h.808a15.349,15.349,0,0,0-3.526,5.068,6.812,6.812,0,0,0-.735,4.481c.588,2.13,2.644,2.2,4.334,1.4a46.043,46.043,0,0,0,7.346-4.7A68.292,68.292,0,0,0,490.1,430.2h.808Z" transform="translate(-470.176 -430.2)" fill="#1e1d12"/></g></g><g transform="translate(11.459 73.529)"><path d="M495.09,429.769c0,.808-11.239,1.469-25.2,1.469s-25.2-.661-25.2-1.469,11.239-1.469,25.2-1.469S495.09,428.961,495.09,429.769Z" transform="translate(-444.7 -428.3)" fill="#1e1d12"/></g><g transform="translate(20.976)"><path d="M486.189,350.53c-1.543,1.836-2.571,8.521-5.509,9.549-1.983.735-3.012-2.13.808-5.729a14.584,14.584,0,0,0,4.04-6.831,52.346,52.346,0,0,0-2.718-8.741c-2.2,2.057-5.8,4.995-6.831,3.6-1.1-1.543,2.2-6.317,4.04-8.741a17.635,17.635,0,0,0-2.865-3.232,9.546,9.546,0,0,0-6.1-2.2,8.3,8.3,0,0,0-4.628,1.689c1.983,3.893,4.922,10.578,2.865,12.047-1.91,1.4-4.628-4.04-6.391-8.154a36.272,36.272,0,0,0-4.775,13.81,8.82,8.82,0,0,0,2.718,2.938c3.746,2.718,8.227,8.154,5.95,9.329-2.2,1.249-4.554-1.983-6.244-4.848a12.576,12.576,0,0,0-2.865-3.452c0,.881-.073,1.689,0,2.5.588,15.573,15.793,15.573,15.793,15.573S488.833,366.25,486.189,350.53Zm-19.172.294c-1.543,0-3.893-2.791-4.995-4.407-1.1-1.543-.22-2.644.881-2.351h.073C464.446,344.581,469,350.824,467.017,350.824Zm13.3-3.746h0c1.1-.294,1.983.441,1.469,1.763-.661,1.836-1.543,2.5-2.865,1.836C478.035,350.31,478.77,347.519,480.312,347.078Z" transform="translate(-457.656 -328.2)" fill="#8bb73f"/><g transform="translate(13.706 18.061)"><path d="M476.965,353.164c1.322,6.758.881,13.736.441,20.567-.514,7.419-1.322,14.838-1.028,22.257a58.063,58.063,0,0,0,1.689,12.34c.073.367.588.22.514-.147-3.6-14.618-.294-29.529-.147-44.294a60.571,60.571,0,0,0-.881-10.945.319.319,0,0,0-.588.22Z" transform="translate(-476.315 -352.787)" fill="#1e1d12"/></g></g><g transform="translate(0 30.682)"><path d="M457.6,380.937c-.147,2.351,2.938,8.374,1.249,10.945-1.175,1.763-3.673.073-2.718-5.142a14.678,14.678,0,0,0-.735-7.86,52.711,52.711,0,0,0-7.346-5.436c-.588,2.938-1.763,7.419-3.379,6.9-1.763-.588-1.91-6.391-1.91-9.476a15.269,15.269,0,0,0-4.187-.881,9.021,9.021,0,0,0-6.17,1.836,7.994,7.994,0,0,0-2.718,4.113c3.893,1.983,10.21,5.656,9.4,8.08-.735,2.277-6.17-.514-9.99-2.865a34.98,34.98,0,0,0,4.334,13.956,7.974,7.974,0,0,0,3.893.735c4.628,0,11.459,1.763,10.357,4.04s-4.848,1.1-7.86-.22a11.432,11.432,0,0,0-4.334-1.1c.514.734.955,1.4,1.469,2.057,9.623,12.194,21.963,3.232,21.963,3.232S469.06,392.029,457.6,380.937Zm-15.279,11.532c-1.249.881-4.848,0-6.611-.588-1.836-.588-1.763-1.983-.661-2.424h.073C436.519,388.943,443.938,391.294,442.322,392.469Zm8.521-10.871h0c.735-.881,1.836-.881,2.277.588.514,1.836.22,2.938-1.249,3.159C450.916,385.491,449.888,382.847,450.843,381.6Z" transform="translate(-429.1 -369.97)" fill="#8bb73f"/><g transform="translate(14.657 15.673)"><path d="M449.161,391.743a72.127,72.127,0,0,1,9.99,10.651,53.979,53.979,0,0,1,5.436,9.623c1.1,2.424,2.13,4.848,3.232,7.272.147.294.588.073.441-.294-1.763-3.967-3.379-8.007-5.436-11.826a49.136,49.136,0,0,0-6.684-9.329,91.508,91.508,0,0,0-6.611-6.464c-.294-.22-.661.147-.367.367Z" transform="translate(-449.053 -391.307)" fill="#1e1d12"/></g></g><g transform="translate(37.506 33.562)"><g transform="translate(0.079)"><path d="M484.4,407.687s12.194,9.035,21.963-3.085a20.8,20.8,0,0,0,1.469-2.057,11.234,11.234,0,0,0-4.334,1.028c-3.012,1.322-6.831,2.5-7.86.22-1.1-2.277,5.73-4.04,10.357-3.967a8.694,8.694,0,0,0,3.893-.735,36.344,36.344,0,0,0,4.407-13.956c-3.82,2.277-9.329,5.068-9.99,2.791-.735-2.424,5.583-6.023,9.476-8.007a7.994,7.994,0,0,0-2.718-4.113,9.085,9.085,0,0,0-6.17-1.91,15.207,15.207,0,0,0-4.26.881c0,3.085-.147,8.888-1.91,9.476-1.616.514-2.791-3.967-3.305-6.9A58.133,58.133,0,0,0,488,382.786a14.664,14.664,0,0,0-.808,7.86c.955,5.215-1.616,6.9-2.791,5.068-1.689-2.571,1.4-8.594,1.322-10.945C474.268,395.787,484.4,407.687,484.4,407.687Zm23.873-14.25h0c1.1.441,1.175,1.836-.661,2.424s-5.436,1.4-6.611.514C499.39,395.273,506.809,392.922,508.278,393.437ZM491.53,389.25c-1.469-.294-1.763-1.322-1.249-3.232.441-1.4,1.543-1.469,2.2-.588v.073C493.513,386.752,492.411,389.4,491.53,389.25Z" transform="translate(-480.267 -373.891)" fill="#8bb73f"/></g><g transform="translate(0 15.658)"><path d="M499.067,395.275A92.3,92.3,0,0,0,489,405.265a44.952,44.952,0,0,0-5.509,8.741c-1.175,2.351-2.2,4.775-3.305,7.125-.147.294.294.588.441.294a112.346,112.346,0,0,1,5.509-11.165,44.691,44.691,0,0,1,6.831-8.447c2.13-2.13,4.334-4.113,6.538-6.17.22-.22-.147-.588-.441-.367Z" transform="translate(-480.16 -395.207)" fill="#1e1d12"/></g></g></g><g transform="translate(1568.867 456)"><g transform="translate(53.456 35.22)"><g transform="translate(0 9.503)"><path d="M426.675,148.622l-.22.514-.22.514-.441,1.028c-.294.661-.588,1.322-.955,1.983l-1.983,3.967c-.661,1.322-1.4,2.644-2.13,3.893-.735,1.322-1.543,2.571-2.351,3.893-.441.661-.808,1.249-1.249,1.91s-.881,1.249-1.322,1.91c-.955,1.249-1.91,2.5-3.012,3.746-.588.588-1.175,1.249-1.836,1.836a27.475,27.475,0,0,1-2.13,1.836,14.745,14.745,0,0,1-2.865,1.689,7.312,7.312,0,0,1-1.91.661l-1.1.22c-.147,0-.441.073-.661.073h-.661a11.623,11.623,0,0,1-2.351-.22,10.981,10.981,0,0,1-1.836-.514,12.954,12.954,0,0,1-2.865-1.322c-.808-.441-1.616-.955-2.277-1.4-.735-.514-1.4-.955-2.057-1.469-1.322-1.028-2.5-2.057-3.6-3.085-1.175-1.028-2.2-2.13-3.305-3.232-2.13-2.2-4.113-4.407-6.023-6.684-.955-1.175-1.91-2.277-2.791-3.452L373.2,155.16l-.661-.881-.367-.441-.367-.514a5.9,5.9,0,0,1,1.4-8.227,5.82,5.82,0,0,1,7.86,1.028l.073.147,1.322,1.543,1.322,1.616c.881,1.028,1.763,2.13,2.718,3.159,1.836,2.057,3.673,4.113,5.509,6.1.955.955,1.91,1.91,2.865,2.791s1.91,1.763,2.865,2.571a24.954,24.954,0,0,0,2.718,1.983c.441.22.808.441,1.028.514a.569.569,0,0,0,.22.073h-.441a4.831,4.831,0,0,0,.881-.441,6.131,6.131,0,0,0,1.175-.881c.441-.367.881-.735,1.322-1.175a30.258,30.258,0,0,0,2.571-2.718c.441-.514.881-1.028,1.249-1.543.441-.514.881-1.028,1.249-1.543.808-1.028,1.616-2.13,2.5-3.232.808-1.1,1.616-2.2,2.424-3.379.808-1.1,1.543-2.277,2.351-3.452.367-.588.808-1.175,1.175-1.763l1.1-1.689.073-.073a4.212,4.212,0,0,1,5.8-1.175A4.169,4.169,0,0,1,426.675,148.622Z" transform="translate(-370.708 -142.873)" fill="#e69482"/></g><g transform="translate(28.268 33.004)"><path d="M411.254,174.965a7.717,7.717,0,0,0-2.057,3.6c-.073.367.441.514.514.147a7.383,7.383,0,0,1,1.91-3.379c.294-.22-.073-.661-.367-.367Z" transform="translate(-409.19 -174.867)" fill="#a8494a"/></g><g transform="translate(27.084 34.344)"><path d="M408.109,178.313a2.82,2.82,0,0,1,1.763-1.1c.367-.073.22-.588-.147-.514a3.862,3.862,0,0,0-2.057,1.322c-.294.294.22.514.441.294Z" transform="translate(-407.58 -176.69)" fill="#a8494a"/></g><g transform="translate(48.828)"><path d="M446.671,130.277a6.546,6.546,0,0,1,3.82,3.526c1.469,3.012,2.057,4.04,1.028,5.73-.808,1.4-2.865,1.028-3.526.881a.322.322,0,0,1-.22-.073V141c-.073,1.249-.588,3.967-3.379,4.628a7.9,7.9,0,0,1-5.362-.808,3.273,3.273,0,0,1-1.836-2.791c-.073-2.351.073-6.391,1.983-8.447,2.718-3.012,3.232-3.085,4.481-3.526A6,6,0,0,1,446.671,130.277Z" transform="translate(-437.181 -129.936)" fill="#e69482"/></g><g transform="translate(55.967 4.081)"><path d="M448.883,137.187a3.853,3.853,0,0,1-1.689.588.294.294,0,1,1,0-.588,3.113,3.113,0,0,0,2.424-1.543.316.316,0,0,1,.514.367A4.682,4.682,0,0,1,448.883,137.187Z" transform="translate(-446.9 -135.491)" fill="#a8494a"/></g><g transform="translate(57.143 5.991)"><path d="M450.483,139.787a3.853,3.853,0,0,1-1.689.588.294.294,0,1,1,0-.588,3.113,3.113,0,0,0,2.424-1.543.316.316,0,0,1,.514.367A3.743,3.743,0,0,1,450.483,139.787Z" transform="translate(-448.5 -138.091)" fill="#a8494a"/></g><g transform="translate(58.225 8.41)"><path d="M452.931,142.351a4.045,4.045,0,0,1-2.718.514c-.147-.073-.294-.22-.22-.367s.22-.294.367-.22h0a3.077,3.077,0,0,0,2.718-.808c.147-.147.294-.073.441,0,.147.147.073.294,0,.441A1.54,1.54,0,0,1,452.931,142.351Z" transform="translate(-449.973 -141.385)" fill="#a8494a"/></g><g transform="translate(55.645 5.675)"><path d="M450.456,142.464a.322.322,0,0,1-.22-.073v.661a19.479,19.479,0,0,1-3.746-4.922.329.329,0,1,1,.588-.294A20.284,20.284,0,0,0,450.456,142.464Z" transform="translate(-446.461 -137.661)" fill="#a8494a"/></g><g transform="translate(51.365 3.426)"><path d="M445.384,139.521c-1.249.808-4.04-1.1-4.628-1.469-.147-.073-.147-.294-.073-.441s.294-.147.441-.073c1.4.955,3.526,2.057,4.04,1.4a1.264,1.264,0,0,0,.073-1.028,4.92,4.92,0,0,0-2.571-2.718.3.3,0,0,1,.147-.588,5.294,5.294,0,0,1,2.938,3.085,1.74,1.74,0,0,1-.147,1.616Q445.494,139.522,445.384,139.521Z" transform="translate(-440.634 -134.6)" fill="#a8494a"/></g><g transform="translate(53.201 8.127)"><path d="M443.623,146.95a.316.316,0,0,1-.367-.514h0a5.473,5.473,0,0,0,1.983-5.068.333.333,0,1,1,.661-.073,6.061,6.061,0,0,1-2.277,5.656Z" transform="translate(-443.134 -141)" fill="#a8494a"/></g><g transform="translate(51.266 7.319)"><path d="M442.63,140.414a.072.072,0,0,0-.073.073l-1.689.367a.3.3,0,0,1-.147-.588l1.689-.367a.4.4,0,0,1,.367.22A.557.557,0,0,1,442.63,140.414Z" transform="translate(-440.5 -139.9)" fill="#a8494a"/></g></g><g transform="translate(89.296 42.387)"><g transform="translate(13.487 17.439)"><path d="M438.33,173.619a.561.561,0,0,1-.367-.147.465.465,0,0,1,.073-.661l11.826-9.255a.452.452,0,0,1,.514-.073l13.883,7.272a.444.444,0,0,1-.367.808l-13.663-7.125-11.606,9.108A.555.555,0,0,1,438.33,173.619Z" transform="translate(-437.861 -163.434)" fill="#1e1d12"/></g><g transform="translate(0 22.558)"><path d="M487.152,272.43a5.423,5.423,0,0,1-.441,1.322,3.578,3.578,0,0,0-.22.514c-1.249,2.351-4.481,6.1-12.855,4.26-.147-.073-.367-.073-.514-.147h0c-.588-.147-1.175-.294-1.836-.514a49.7,49.7,0,0,0-8.521-2.057c-.22,0-.441-.073-.588-.073-4.481-.514-7.713.147-13.075,1.322-.22.073-.441.073-.661.147-1.836.441-3.893.881-6.317,1.4h0c-.22.073-.441.073-.588.147h0c-.881.147-1.836.367-2.865.588-17.335,3.305-19.172-4.481-19.172-4.481s1.91-9.329,4.554-17.335c.147-.514.367-1.1.514-1.616.073-.22.147-.441.22-.735.808-2.571,1.543-5.068,2.13-7.492h0c.073-.22.147-.514.22-.735.881-3.379,1.543-6.611,2.13-9.7.073-.22.073-.441.147-.735a149.88,149.88,0,0,0,2.057-16.968v-.588c.147-2.5.147-4.628.147-6.391v-.588c0-3.085-.147-4.775-.147-4.775-4.995-5.73-4.775-12.928-3.967-17.409,0-.22.073-.367.073-.588a27.146,27.146,0,0,1,.955-3.526v-10.8c.588-1.469,2.791-2.5,4.628-3.159.147-.073.294-.073.441-.147a22.544,22.544,0,0,1,2.424-.661s.441,9.916,7.566,12.781c.22.073.367.147.588.22h0a13.416,13.416,0,0,0,3.159.588c5.289.22,7.786-3.746,8.962-7.492a1.728,1.728,0,0,0,.147-.588,24.313,24.313,0,0,0,.881-5.95s5.95-.588,6.978,1.616c1.028,2.277-1.028,7.492,2.791,13.369a7.341,7.341,0,0,1,.588,1.028,2.609,2.609,0,0,1,.294.661,15.481,15.481,0,0,1,1.249,3.82c0,.22.073.367.073.588a21.114,21.114,0,0,1-1.616,10.578h0c-.073.147-.147.367-.22.514-.514,1.1-.881,1.763-.881,1.763l2.13,7.052.147.514,1.543,5.142.147.514,1.983,6.464.147.514,4.113,13.516.22.661,2.865,9.623.22.661,4.187,13.81.147.588Z" transform="translate(-419.5 -170.403)" fill="#1e1d12"/><g transform="translate(5.142 1.467)"><g transform="translate(33.539 45.542)"><path d="M494.152,266.353c-.881-.294-1.763-.514-2.644-.735-4.848-1.249-9.77-2.424-13.663-5.729a15.15,15.15,0,0,1-5.656-10.284c-.514-7.419,5.73-12.781,12.267-15.205l.147.514a20.2,20.2,0,0,0-9.329,6.611,11.847,11.847,0,0,0-1.91,11.092c1.4,4.187,4.848,7.419,8.741,9.4,3.746,1.836,7.86,2.5,11.753,3.673Z" transform="translate(-472.16 -234.4)" fill="#605e4b"/></g><g transform="translate(3.918 47.305)"><path d="M432.544,255.017l-.294.147c-.294.147-.588-.294-.294-.441a6.458,6.458,0,0,1,.735-.441c4.04-2.351,8.741-5.8,7.346-11.018a8.834,8.834,0,0,0-5.289-5.876V236.8a9.438,9.438,0,0,1,5.8,6.317C442.019,248.847,436.8,252.519,432.544,255.017Z" transform="translate(-431.834 -236.8)" fill="#605e4b"/></g><g transform="translate(19.025 4.775)"><path d="M468.119,188.89c-1.175.514-2.351-.367-3.452-.514-2.5-.367-1.175,3.159-1.689,4.481a2.911,2.911,0,0,1-3.232,1.543c-3.085-.441-5.583-3.526-6.758-6.17a12.713,12.713,0,0,1-.588-1.983c.22.073.367.147.588.22h0a10.847,10.847,0,0,0,1.322,3.085,10.5,10.5,0,0,0,3.012,3.232c1.322.881,3.305,1.763,4.7.514,1.175-1.1.22-2.865.661-4.26a1.8,1.8,0,0,1,1.836-1.249c1.028.073,2.13.955,3.159.661,1.543-.441.955-2.791.661-3.893a11.571,11.571,0,0,0-3.232-5.068,1.729,1.729,0,0,0,.147-.588,11.431,11.431,0,0,1,3.967,6.978C469.368,186.98,469.221,188.376,468.119,188.89Z" transform="translate(-452.4 -178.9)" fill="#605e4b"/></g><g transform="translate(2.791 17.474)"><path d="M440.8,218.748a10.372,10.372,0,0,1-6.317.881v-.588a9.476,9.476,0,0,0,7.125-1.543c2.351-1.763,3.306-5.656.808-7.713-2.2-1.836-6.244-.073-7.933-2.865a3.029,3.029,0,0,1,.294-3.232c.881-1.469,1.91-2.791.955-4.554-1.175-2.2-3.306-2.571-5.436-2.277,0-.22.073-.367.073-.588a5.347,5.347,0,0,1,5.583,2.2,3.671,3.671,0,0,1,.147,4.04,15.936,15.936,0,0,0-1.4,2.424,2.272,2.272,0,0,0,1.249,2.571c1.763.955,3.82.441,5.656,1.175a4.364,4.364,0,0,1,2.5,2.718C445.211,214.487,443.522,217.352,440.8,218.748Z" transform="translate(-430.3 -196.188)" fill="#605e4b"/></g><g transform="translate(3.967)"><path d="M438.364,180.774a5.185,5.185,0,0,1-6.464,2.13v-.514a4.686,4.686,0,0,0,6.611-3.893c.073-2.13-1.175-4.04-1.983-5.95.147-.073.294-.073.441-.147C438.144,175.118,440.127,177.836,438.364,180.774Z" transform="translate(-431.9 -172.4)" fill="#605e4b"/></g><g transform="translate(2.277 72.139)"><path d="M487.189,290.288a7.976,7.976,0,0,0-2.277.073c-1.983.367-3.82,1.175-5.729,1.689a21.537,21.537,0,0,1-21.963-7.346c-1.91-2.351-3.012-5.215-4.628-7.713a11.778,11.778,0,0,0-7.786-5.509,19.428,19.428,0,0,0-9.4.514,26.906,26.906,0,0,0-5.8,2.424c.073-.22.147-.514.22-.735a25.389,25.389,0,0,1,7.272-2.644,19.1,19.1,0,0,1,9.329.294,12.956,12.956,0,0,1,6.831,5.509c1.763,2.791,2.938,5.8,5.142,8.3a20.967,20.967,0,0,0,7.492,5.362,21.264,21.264,0,0,0,9.035,1.689,19.021,19.021,0,0,0,4.554-.735,50.784,50.784,0,0,1,5.436-1.616,7.475,7.475,0,0,1,2.2-.073Z" transform="translate(-429.6 -270.608)" fill="#605e4b"/></g><g transform="translate(0 82.041)"><path d="M444.2,307.823c-.073.367-.147.735-.22,1.028h0c-.22.073-.441.073-.588.147a4.135,4.135,0,0,0-.147-3.6c-1.543-2.718-5.583-2.865-6.758-5.876-1.175-2.938,1.616-5.656,2.718-8.154.808-1.689.881-3.526-.514-4.922a7.9,7.9,0,0,0-5.509-1.763,15.866,15.866,0,0,0-6.684,1.469c.073-.22.147-.441.22-.735a15.716,15.716,0,0,1,7.786-1.249,7.731,7.731,0,0,1,4.775,1.983,4.376,4.376,0,0,1,.881,4.481c-.955,2.938-5.215,6.611-2.351,9.7,1.249,1.322,3.085,1.983,4.554,3.085A5.13,5.13,0,0,1,444.2,307.823Z" transform="translate(-426.5 -284.088)" fill="#605e4b"/></g><g transform="translate(23.726 95.448)"><path d="M473.2,310.9c-.22,0-.441-.073-.588-.073a31.937,31.937,0,0,0-1.836-4.334c-1.028-1.983-2.791-4.775-5.362-3.085-1.91,1.249-3.379,3.526-4.481,5.436a16.755,16.755,0,0,0-1.469,3.305c-.22.073-.441.073-.661.147a20.584,20.584,0,0,1,2.057-4.481,19.584,19.584,0,0,1,2.351-3.159,7.384,7.384,0,0,1,2.644-2.13c2.2-.808,3.893,1.1,4.848,2.791A23.648,23.648,0,0,1,473.2,310.9Z" transform="translate(-458.8 -302.34)" fill="#605e4b"/></g><g transform="translate(48.554 100.629)"><path d="M506.116,310.647a3.578,3.578,0,0,0-.22.514,9.223,9.223,0,0,0-7.492-.735,8.8,8.8,0,0,0-5.289,5.068c-.147-.073-.367-.073-.514-.147a9.972,9.972,0,0,1,5.436-5.362A9.723,9.723,0,0,1,506.116,310.647Z" transform="translate(-492.6 -309.393)" fill="#605e4b"/></g><g transform="translate(17.746 41.695)"><path d="M461.267,229.263a17.928,17.928,0,0,0-7.419,5.583c-1.689,2.2-3.82,5.656-3.012,8.594a3.293,3.293,0,0,0,2.938,2.424,6.557,6.557,0,0,0,4.554-1.616c2.865-2.057,6.023-4.922,7.272-8.3a5.764,5.764,0,0,0-.367-5.142,3.738,3.738,0,0,0-3.967-1.543c-.367.073-.22.588.147.514a3.346,3.346,0,0,1,3.82,2.13,5.885,5.885,0,0,1-.514,4.7c-1.322,2.718-3.82,4.995-6.17,6.831a7.3,7.3,0,0,1-4.26,1.91,2.936,2.936,0,0,1-3.085-2.938c-.073-2.5,1.543-5.215,3.012-7.125a16.726,16.726,0,0,1,7.125-5.436c.441-.22.294-.735-.073-.588Z" transform="translate(-450.659 -229.162)" fill="#605e4b"/></g><g transform="translate(30.603 73.042)"><path d="M468.263,275.85a15.782,15.782,0,0,0,4.775,6.391c1.91,1.469,4.848,3.232,7.346,2.571a2.834,2.834,0,0,0,2.057-2.351,5.31,5.31,0,0,0-1.249-3.893c-1.689-2.5-4.187-5.215-7.052-6.317a4.907,4.907,0,0,0-4.407.22,2.93,2.93,0,0,0-1.469,3.379c.073.367.588.22.514-.147-.441-2.057,1.4-3.452,3.232-3.452,1.763,0,3.379,1.1,4.7,2.13a23.767,23.767,0,0,1,3.526,3.673c.955,1.249,2.057,2.865,1.543,4.554-1.028,3.452-5.95.808-7.713-.441a14.207,14.207,0,0,1-5.289-6.611c-.147-.147-.661-.073-.514.294Z" transform="translate(-468.162 -271.837)" fill="#605e4b"/></g><g transform="translate(24.084 14.985)"><path d="M479.57,218.216a7.5,7.5,0,0,1-2.791-.735A7.793,7.793,0,0,1,473.033,213c-.441-1.249-.955-3.232-2.718-3.159-1.1.073-1.91,1.175-2.644,1.836a4.189,4.189,0,0,1-4.995.147c-1.616-.881-3.232-2.5-3.379-4.481-.147-2.13,1.469-3.893,3.085-5.142a27.407,27.407,0,0,1,5.729-3.232c2.2-.955,4.407-1.836,6.538-2.938a9.6,9.6,0,0,0,3.82-3.232,2.608,2.608,0,0,1,.294.661c-1.689,2.424-5.583,3.967-7.86,4.995a62.447,62.447,0,0,0-5.95,2.791c-1.91,1.1-4.113,2.571-4.848,4.7-.808,2.424,1.175,4.554,3.159,5.583,1.322.661,2.718.881,3.893-.073.661-.514,1.175-1.1,1.836-1.616a2.519,2.519,0,0,1,3.673.808c.661,1.028.808,2.277,1.4,3.305a7.6,7.6,0,0,0,1.763,2.277,6.936,6.936,0,0,0,3.673,1.616Z" transform="translate(-459.287 -192.8)" fill="#605e4b"/></g><g transform="translate(40.325 19.392)"><path d="M484.264,209.965h0a3.581,3.581,0,0,1-.22.514,6.866,6.866,0,0,1-2.644-5.215,6.8,6.8,0,0,1,4.407-6.464c0,.22.073.367.073.588a6.19,6.19,0,0,0-3.893,5.95A5.92,5.92,0,0,0,484.264,209.965Z" transform="translate(-481.397 -198.8)" fill="#605e4b"/></g><g transform="translate(12.892 17.696)"><path d="M448.054,196.5a4.377,4.377,0,0,0-3.967,3.673,4.513,4.513,0,0,0,3.232,4.7,3.294,3.294,0,0,0,4.334-3.012,4.766,4.766,0,0,0-3.6-5.362c-.294-.073-.441.441-.073.514a4.1,4.1,0,0,1,3.159,4.407,3.606,3.606,0,0,1-1.1,2.571,3.135,3.135,0,0,1-2.791.294,4.117,4.117,0,0,1-2.644-3.82,3.832,3.832,0,0,1,3.452-3.379c.367-.073.367-.588,0-.588Z" transform="translate(-444.051 -196.49)" fill="#605e4b"/></g><g transform="translate(45.221 52.447)"><path d="M495.289,258.565c-3.746-1.249-6.831-4.187-7.2-8.374a7.433,7.433,0,0,1,2.718-6.391l.147.514-.661.661a6.963,6.963,0,0,0-1.543,5.95c.588,3.452,3.232,5.8,6.317,6.978Z" transform="translate(-488.062 -243.8)" fill="#605e4b"/></g></g></g><g transform="translate(20.714)"><g transform="translate(3.599)"><path d="M456.126,141.608a3.36,3.36,0,0,0-3.305-1.91,1.114,1.114,0,0,1-.22.955,2.516,2.516,0,0,1,2.644,1.4,2.441,2.441,0,0,1,.147,2.13,5.429,5.429,0,0,1-2.424,2.351.6.6,0,0,0-.294.441l.881,10.651a.474.474,0,0,0,.441.441h.073a.491.491,0,0,0,.441-.514l-.881-10.357a5.555,5.555,0,0,0,2.644-2.718A3.563,3.563,0,0,0,456.126,141.608Z" transform="translate(-452.6 -139.693)" fill="#1e1d12"/></g><g transform="translate(0 0.886)"><path d="M448.949,140.9a3.085,3.085,0,0,0-1.249,2.277.479.479,0,0,0,.955.073,2.385,2.385,0,0,1,1.4-1.91A2.9,2.9,0,0,1,448.949,140.9Z" transform="translate(-447.7 -140.9)" fill="#1e1d12"/></g></g></g><g transform="translate(9.693 5.523)"><path d="M373.839,93.028a2.172,2.172,0,0,0-1.4-2.2c-3.305-1.249-14.177-3.673-39.886,4.628-26.811,8.668-26.517,19.98-9.843,15.719,5.876-1.469,34.3-8.3,39.813-9.916C371.855,98.61,373.692,95.084,373.839,93.028Z" transform="translate(-311.13 -89.507)" fill="#5c6bbc"/></g><g transform="translate(6.953 17.517)"><g transform="translate(104 69.302)"><path d="M317.316,118.5h-7.86l-2.057,3.6v24.093h11.9V122.1Zm-4.187,3.526a1.175,1.175,0,1,1,1.175-1.175A1.16,1.16,0,0,1,313.13,122.026Z" transform="translate(-307.4 -118.5)" fill="#fff"/></g><g transform="translate(105.836 79.656)"><g transform="translate(0 2.795)"><path d="M310.414,136.694l-.514-.294h1.689l.882,1.469-.514-.294-.661,1.175a2.393,2.393,0,0,0-.294.955v.073l-.955-1.616S309.606,137.5,310.414,136.694Z" transform="translate(-309.9 -136.4)" fill="#8bb73f"/></g><g transform="translate(4.26 4.704)"><path d="M316.508,141.351v.588l-.808-1.469.881-1.469v.588h1.4a2.033,2.033,0,0,0,.955-.22h0l-.955,1.616C318.051,140.983,317.61,141.718,316.508,141.351Z" transform="translate(-315.7 -139)" fill="#8bb73f"/></g><g transform="translate(4.114)"><path d="M317.7,133.7l.441-.294-.808,1.469h-1.689l.514-.294-.661-1.175a1.308,1.308,0,0,1,.955-.808C317.116,132.525,317.7,133.7,317.7,133.7Z" transform="translate(-315.5 -132.596)" fill="#8bb73f"/></g><g transform="translate(1.386 5.292)"><path d="M314,139.8v1.689h-1.469a.757.757,0,0,1-.735-.735,1.207,1.207,0,0,1,.294-.955Z" transform="translate(-311.787 -139.8)" fill="#8bb73f"/></g><g transform="translate(5.509 2.501)"><path d="M317.4,136.881l1.469-.881.735,1.322a.98.98,0,0,1-.441,1.1c-.514.367-.808.22-.808.22Z" transform="translate(-317.4 -136)" fill="#8bb73f"/></g><g transform="translate(1.249 0.003)"><path d="M311.6,134.363l.735-1.322A.815.815,0,0,1,313,132.6h1.836a3.753,3.753,0,0,0-.735.881c-.367.588-.955,1.689-.955,1.689Z" transform="translate(-311.6 -132.6)" fill="#8bb73f"/></g></g><g transform="translate(109.333 60)"><path d="M317.187,107.205c.073-.073.22-.147.294-.22-.22-.735-.661-1.322-1.322-1.1-.514.147-.735.808-.881,1.322a19.32,19.32,0,0,0-.441,2.865,31.419,31.419,0,0,0-.073,5.876h0v.441c0,.367.661.367.588,0a35.606,35.606,0,0,1-.073-4.848c.073-.881.147-1.763.294-2.644a6.431,6.431,0,0,1,.441-2.057c.367-.735.735-.073.881.588A1.014,1.014,0,0,0,317.187,107.205Z" transform="translate(-314.661 -105.836)" fill="#1e1d12"/></g></g><g transform="translate(24.068 0)"><path d="M360.009,89.489s-4.481-9.843-16.6-6.978A15.6,15.6,0,0,0,330.7,97.2S350.753,95.953,360.009,89.489Z" transform="translate(-330.7 -81.988)" fill="#5c6bbc"/></g><g transform="translate(24.664 5.053)"><path d="M331.577,137.225c-.735-3.085,5.068-7.639,1.616-21.669-1.469-6.023-3.6-23.212,8.888-26.077s22.845,4.628,20.935,16.234c-1.763,10.871,6.9,28.941,4.554,32.541Z" transform="translate(-331.511 -88.867)" fill="#1e1d12"/></g><g transform="translate(18.926 40.923)"><path d="M323.847,152.465a20.347,20.347,0,0,0,.22,2.2c.147.955,1.4,2.791,2.865,5.362,3.746,6.611,9.99,17.482,12.267,25.342a18.108,18.108,0,0,1,.808,3.967c.808,8.888-3.746,17.189-3.746,17.189,22.845,14.1,41.5,13.148,41.5,13.148s-.294-7.566-5.068-22.183a92.912,92.912,0,0,1-3.085-12.414c0-.147-.073-.367-.073-.514v-.22a26.769,26.769,0,0,1-.367-6.1,18.094,18.094,0,0,1,.955-3.673c.073-.147.147-.367.22-.514.735-1.91,1.616-3.746,2.2-5.73,0-.073.073-.147.073-.294,0-.073.073-.22.073-.294s.073-.147.073-.294a13.06,13.06,0,0,0,.514-2.865v-1.028a1.089,1.089,0,0,0-.073-.514,9.171,9.171,0,0,0-1.249-3.526c-.147-.22-.22-.367-.367-.588a34.206,34.206,0,0,0-3.306-3.893c0-.073-.073-.073-.073-.147-.073-.147-.22-.367-.294-.514a7.494,7.494,0,0,1-.22-2.938c.073-.808.147-1.689.147-2.644v-.661a9.861,9.861,0,0,0-.294-2.571c-.881-3.452-3.305-3.379-6.391-3.6a4.96,4.96,0,0,1-1.028-.147,1.362,1.362,0,0,1-.514-.147,22.188,22.188,0,0,1-5.362-2.351l-14.1-1.616s-.881,2.277-5.95,4.7a3.581,3.581,0,0,1-.514.22,22.05,22.05,0,0,1-2.644,1.028c-5.95,2.13-7.272,5.142-7.346,8.007A1.878,1.878,0,0,1,323.847,152.465Z" transform="translate(-323.7 -137.7)" fill="#f8d010"/></g><g transform="translate(19 45.11)"><g transform="translate(42.089 12.634)"><path d="M381.1,165.081c-.073,4.407,3.305,7.2,6.758,9.4,0-.073.073-.147.073-.294,0-.073.073-.22.073-.294-3.305-2.13-6.611-4.921-6.317-9.108a4.967,4.967,0,0,1,1.836-3.673c-.073-.147-.22-.367-.294-.514A5.954,5.954,0,0,0,381.1,165.081Z" transform="translate(-381.098 -160.6)" fill="#5f2418"/></g><g transform="translate(0 0.588)"><path d="M323.873,154.19c3.673,1.689,9.182,3.6,11.092-1.1a10.543,10.543,0,0,0,.22-6.391,10.313,10.313,0,0,0-.955-2.5,3.582,3.582,0,0,1-.514.22,10.844,10.844,0,0,1,1.175,5.215c0,2.644-1.028,5.583-4.04,5.8a9.952,9.952,0,0,1-4.113-.735c-1.028-.367-1.983-.735-2.938-1.175A2.034,2.034,0,0,1,323.873,154.19Z" transform="translate(-323.8 -144.2)" fill="#5f2418"/></g><g transform="translate(27.411 31.363)"><path d="M361.178,209.164c.147.881.735,1.175,1.4,1.689.294.22.661-.147.367-.367-.588-.441-1.249-.808-1.322-1.616a6.429,6.429,0,0,1,.147-1.175,4.454,4.454,0,0,1,1.983-2.2c1.469-.808,3.232-1.028,4.7-1.763,2.351-1.1,3.526-3.232,2.571-5.73-.514-1.322-1.322-2.5-1.763-3.82a5.5,5.5,0,0,1,.661-4.407c1.91-3.012,5.583-3.6,8.815-2.791a6.251,6.251,0,0,1,1.249.441c.073-.147.147-.367.22-.514a11.705,11.705,0,0,0-2.865-.735c-3.085-.367-6.244.588-7.933,3.305a5.8,5.8,0,0,0-.881,3.967,16.739,16.739,0,0,0,1.689,4.113c.881,1.91.735,3.82-1.1,5.142-1.469,1.028-3.232,1.249-4.848,1.91a5.215,5.215,0,0,0-2.938,2.644A4.229,4.229,0,0,0,361.178,209.164Z" transform="translate(-361.117 -186.097)" fill="#5f2418"/></g><g transform="translate(42.748 42.678)"><path d="M385.158,213.547c.22.294.588-.147.367-.367-1.836-2.2-3.526-4.922-2.865-7.933a4.57,4.57,0,0,1,2.277-3.159c.073,0,.147-.073.22-.073,0-.147-.073-.367-.073-.514a4.887,4.887,0,0,0-2.571,2.571C381.044,207.523,382.954,210.976,385.158,213.547Z" transform="translate(-381.997 -201.5)" fill="#5f2418"/></g><g transform="translate(14.445 26.709)"><path d="M343.491,183.83a6.61,6.61,0,0,1,5.215-4.04c2.277-.22,5.289.808,5.876,3.232.661,2.791-2.938,3.452-4.04,5.362-.955,1.543.441,2.571,1.543,3.452a4.378,4.378,0,0,1,1.616,2.644,3.744,3.744,0,0,1-4.554,4.113c-.367-.073-.22-.588.147-.514a3.287,3.287,0,0,0,3.746-2.057,3.562,3.562,0,0,0-1.4-3.893,4.47,4.47,0,0,1-1.836-2.2,2.768,2.768,0,0,1,.955-2.644c.881-.881,2.2-1.4,2.938-2.424,1.249-1.616-.22-3.452-1.836-4.113a5.932,5.932,0,0,0-7.786,3.159c-.22.367-.735.22-.588-.073Z" transform="translate(-343.465 -179.76)" fill="#5f2418"/></g><g transform="translate(26.745 26.785)"><path d="M379.375,180.4a33.467,33.467,0,0,1-18.951,1.763c-.367-.073-.22-.588.147-.514a33.037,33.037,0,0,0,18.658-1.763c.367-.147.514.367.147.514Z" transform="translate(-360.21 -179.864)" fill="#5f2418"/></g><g transform="translate(29.924)"><path d="M368.183,161.764c3.159.367,5.436-2.571,6.684-4.995,1.028-1.91,2.13-4.7,3.893-6.317v-.661a12.406,12.406,0,0,0-2.865,3.6c-1.469,2.791-2.644,6.464-5.95,7.639a3.867,3.867,0,0,1-4.04-.808c-1.322-1.249-.955-3.012.22-4.26,1.763-1.91,4.995-2.571,5.95-5.142.588-1.469,0-3.012-.514-4.407a5.49,5.49,0,0,1-.441-2.865,1.362,1.362,0,0,1-.514-.147v.147c-.294,2.2,1.4,4.187,1.175,6.391-.441,3.452-5.289,3.967-6.831,6.831C363.628,159.119,365.685,161.47,368.183,161.764Z" transform="translate(-364.537 -143.4)" fill="#5f2418"/></g><g transform="translate(13.13 10.641)"><path d="M348.965,159.072h0c-.294-.147-.073-.588.294-.514a7.92,7.92,0,0,1,4.113,3.452c.955,1.91.588,4.481-1.543,5.436-2.5,1.1-5.215-.441-7.272-1.689-1.983-1.249-3.893-3.6-2.277-5.95,1.543-2.2,4.775-2.351,7.052-1.249.22.22-.073.735-.367.514-2.2-1.1-6.464-.735-6.758,2.351-.147,1.689,1.175,2.938,2.5,3.746a13.6,13.6,0,0,0,4.04,1.91,4.145,4.145,0,0,0,3.893-.808,3.384,3.384,0,0,0,.514-3.6,8.407,8.407,0,0,0-4.187-3.6,4.209,4.209,0,0,1,.294-.514h0c.294.22,0,.735-.294.514Z" transform="translate(-341.675 -157.886)" fill="#5f2418"/></g></g><g transform="translate(36.24 48.57)"><path d="M363.6,148.323a2.377,2.377,0,0,1-1.175,2.718c-1.322.808-3.159.588-4.7.514a29.543,29.543,0,0,1-10.284-2.644c-.367-.147-.073-.661.294-.514a27.411,27.411,0,0,0,7.933,2.351,25.231,25.231,0,0,0,4.113.294c1.4,0,3.82-.661,3.232-2.571a.3.3,0,0,1,.588-.147Z" transform="translate(-347.27 -148.11)" fill="#5f2418"/></g><g transform="translate(27.197 64.013)"><path d="M335.5,169.256a100.323,100.323,0,0,1,13.148,34.451c.073.367-.514.514-.588.147a100.939,100.939,0,0,0-13.075-34.3.3.3,0,0,1,.514-.294Z" transform="translate(-334.96 -169.134)" fill="#5f2418"/></g><g transform="translate(27.636 8.162)"><g transform="translate(24.231 13.809)"><path d="M369.393,111.9s1.469-.073,1.983,1.836c.514,1.836-.073,5.068-1.983,4.922C367.483,118.437,369.393,111.9,369.393,111.9Z" transform="translate(-368.544 -111.899)" fill="#a8494a"/></g><g transform="translate(23.239 18.434)"><path d="M367.2,120.99a2.614,2.614,0,1,1,2.791,2.424A2.58,2.58,0,0,1,367.2,120.99Zm.735-.073a1.842,1.842,0,1,0,1.689-1.983A1.924,1.924,0,0,0,367.933,120.917Z" transform="translate(-367.195 -118.195)" fill="#fff"/></g><g transform="translate(6.642 22.845)"><g transform="translate(14.985 6.17)"><line fill="#e69482"/></g><path d="M344.6,137.422a11.824,11.824,0,0,0,8.741,4.7c7.125.22,7.566-2.938,7.566-2.938a11.841,11.841,0,0,1-.881-2.865c-.073-.367-.147-.735-.22-1.175a28.577,28.577,0,0,1-.22-3.746v-1.1c-4.995-.588-9.182-2.277-12.34-5.509l-.808-.367-.514-.22-.073.294.22.881A17.74,17.74,0,0,1,344.6,137.422Z" transform="translate(-344.6 -124.2)" fill="#e69482"/></g><g transform="translate(13.106 26.811)"><path d="M353.4,129.6c1.322,2.2,4.114,6.023,8.741,6.978a28.577,28.577,0,0,1-.22-3.746V131.8c-.073,0-.22.073-.294.073C359.056,132.391,355.971,131.363,353.4,129.6Z" transform="translate(-353.4 -129.6)" fill="#1e1d12"/></g><g transform="translate(1.28 0.646)"><path d="M337.3,109.934a6.148,6.148,0,0,0,6.023,5.656h.073l.22.441c0,.073.073.147.073.22h0c2.424,4.407,8.962,6.684,12.414,6.611a7.09,7.09,0,0,0,2.351-.441c3.6-1.028,4.04-6.023,3.232-9.77a12.153,12.153,0,0,0-.441-1.543v-.073s.955-5.362,1.1-7.713c.294-4.481-2.5-8.962-12.34-9.329s-11.9,5.876-12.414,9.108c-.073.514.22,3.746.735,4.26A2.929,2.929,0,0,0,337.3,109.934Z" transform="translate(-337.3 -93.979)" fill="#e69482"/></g><g transform="translate(23.679 17.85)" opacity="0.5"><path d="M367.8,118.281c0,.367.881.661,2.057.661a12.159,12.159,0,0,0-.441-1.543C368.459,117.547,367.725,117.914,367.8,118.281Z" transform="translate(-367.793 -117.4)" fill="#a8494a"/></g><g transform="translate(12.592 18.426)" opacity="0.5"><path d="M357.695,118.857c0,.441-1.028.881-2.424.955s-2.5-.22-2.571-.661c0-.441,1.028-.881,2.424-.955S357.621,118.416,357.695,118.857Z" transform="translate(-352.7 -118.185)" fill="#a8494a"/></g><g transform="translate(7.303 20.979)"><path d="M345.5,122.938h.073l.22.441c0,.073.073.147.073.22h0a4.073,4.073,0,0,0,1.322-.588,2.447,2.447,0,0,0,.661-.808.378.378,0,0,0-.661-.367,2.125,2.125,0,0,1-.808.808,3.025,3.025,0,0,1-.588.22C345.72,122.938,345.647,122.938,345.5,122.938Z" transform="translate(-345.5 -121.661)" fill="#a8494a"/></g><g transform="translate(2.965 20.053)"><path d="M344.814,122.53a2.61,2.61,0,0,1-.735.147v.073a1.842,1.842,0,1,1-3.673.294,1.9,1.9,0,0,1,1.4-1.91c.22-.294.22-.514-.073-.735a2.6,2.6,0,1,0,3.085,2.351Z" transform="translate(-339.594 -120.4)" fill="#fff"/></g><g transform="translate(17.954 20.935)"><path d="M360,121.6s.367,3.085,3.012,3.085a2.694,2.694,0,0,0,2.718-2.571Z" transform="translate(-360 -121.6)" fill="#fff"/></g><g transform="translate(19.589 24.406)"><path d="M363.088,127.115a1.051,1.051,0,0,1-.808-.441.208.208,0,0,1,.294-.294.944.944,0,0,0,1.028.22c.147-.073.22,0,.294.147s0,.22-.147.294A.982.982,0,0,1,363.088,127.115Z" transform="translate(-362.225 -126.325)" fill="#a8494a"/></g><g transform="translate(15.567 14.466)"><path d="M359.872,114.855a.4.4,0,0,1-.367-.22c-.147-.367-.514-1.028-.955-1.1a1.718,1.718,0,0,0-1.175.514.364.364,0,0,1-.514-.514,2.8,2.8,0,0,1,1.763-.735c.955.073,1.469,1.4,1.543,1.543a.308.308,0,0,1-.22.441C359.945,114.855,359.945,114.855,359.872,114.855Z" transform="translate(-356.75 -112.794)" fill="#1e1d12"/></g><g transform="translate(22.141 14.661)"><path d="M366.067,114.926h-.073a.4.4,0,0,1-.294-.441c0-.147.294-1.249,1.1-1.4a2.32,2.32,0,0,1,1.543.367.367.367,0,1,1-.441.588c-.147-.073-.588-.367-.881-.22-.294.073-.514.588-.514.881C366.361,114.779,366.288,114.926,366.067,114.926Z" transform="translate(-365.7 -113.059)" fill="#1e1d12"/></g><g transform="translate(3.281)"><path d="M340.814,97.287a11.219,11.219,0,0,1,8.374-4.187c4.995,0,9.623,1.543,12.34,4.04a6.816,6.816,0,0,1,2.277,4.334c.514,5.142-.588,4.187-.588,4.187a9.963,9.963,0,0,0-.22-1.175h0c-.147-.661-.367-1.689-.661-3.232-.881-3.673-12.708-3.452-11.753-1.1a3.332,3.332,0,0,1,.073.735,5.1,5.1,0,0,1-.367,1.91c-.073,0-.22.073-.294.073a12.306,12.306,0,0,0-2.938,1.1h0c-.073.073-1.836,1.469-1.469,3.379s1.175,4.407-.147,3.967a3.371,3.371,0,0,1-1.836-1.983h0a6.529,6.529,0,0,0-2.938-1.983C339.933,104.045,339.639,100.519,340.814,97.287Z" transform="translate(-340.024 -93.1)" fill="#1e1d12"/></g><g transform="translate(2.786 5.944)"><path d="M340.048,101.639c3.452-1.4,9.329.881,10.357,1.4a5.1,5.1,0,0,1-.367,1.91c-.073,0-.22.073-.294.073a12.305,12.305,0,0,0-2.938,1.1h0c-.073.073-1.836,1.469-1.469,3.379s1.175,4.407-.147,3.967a3.371,3.371,0,0,1-1.836-1.983h0a6.529,6.529,0,0,0-2.938-1.983C338.873,106.854,339.24,104.21,340.048,101.639Z" transform="translate(-339.35 -101.192)" fill="#1e1d12"/></g><g transform="translate(0 2.644)"><path d="M339.849,100.226s-1.983,3.159-.441,8.154a5.461,5.461,0,0,0-2.5,0c-.808.367-1.836-2.571-1.1-5.362.661-2.791,4.334-6.317,4.334-6.317S340.51,99.271,339.849,100.226Z" transform="translate(-335.557 -96.7)" fill="#1e1d12"/></g><g transform="translate(20.085 15.426)"><path d="M364.222,118.728c.073,0,.147,0,.147-.073l1.322-.881a.382.382,0,0,0,.147-.294c0-.073-.073-.22-.147-.22a4.434,4.434,0,0,1-2.2-2.938.3.3,0,1,0-.588.147,4.955,4.955,0,0,0,2.057,3.085l-.882.588c-.147.073-.147.294-.073.441S364.149,118.728,364.222,118.728Z" transform="translate(-362.9 -114.1)" fill="#a8494a"/></g><g transform="translate(13.4 10.06)"><path d="M358.428,108.415a.753.753,0,0,0,.441-1.4,1.933,1.933,0,0,0-1.469-.147,5.331,5.331,0,0,0-3.6,3.012,13.837,13.837,0,0,1,3.82-1.543A2.512,2.512,0,0,1,358.428,108.415Z" transform="translate(-353.8 -106.796)" fill="#1e1d12"/></g><g transform="translate(21.451 10.109)"><path d="M365.6,108.433a.7.7,0,0,1-.441-1.322,2.32,2.32,0,0,1,1.469-.22c2.718.514,2.865,2.424,2.865,2.424a11.524,11.524,0,0,0-3.085-.955A3.293,3.293,0,0,1,365.6,108.433Z" transform="translate(-364.76 -106.862)" fill="#1e1d12"/></g><g transform="translate(3.309 15.839)"><path d="M344.277,119.024a.316.316,0,0,1-.294-.294c-.588-2.5-3.6-3.379-3.673-3.379a.348.348,0,1,1,.22-.661c.147.073,3.452,1.028,4.187,3.893.073.22-.073.367-.294.441Z" transform="translate(-340.062 -114.662)" fill="#a8494a"/></g><g transform="translate(4.043 17.189)"><path d="M341.383,118.263c-.073,0-.073,0-.147-.073a.421.421,0,0,1-.147-.514,2.362,2.362,0,0,1,2.13-1.175.367.367,0,1,1,0,.735,1.71,1.71,0,0,0-1.469.808C341.677,118.263,341.53,118.336,341.383,118.263Z" transform="translate(-341.061 -116.5)" fill="#a8494a"/></g></g><g transform="translate(3.28 116.955)"><g transform="translate(3.305)"><path d="M306.9,391.051l8.741-.22c4.554-15.94,15.058-42.824,25.342-78.45,1.1-2.718,1.91-5.142,2.718-7.492a185.251,185.251,0,0,0,4.628-18.364c.441-2.2.955-4.481,1.543-7.052,1.175-5.436,2.057-10.063,2.718-13.516.22-1.1.367-2.057.514-2.865.294-1.91.514-3.012.514-3.012a10.624,10.624,0,0,0-1.028-4.628c-3.452-8.521-14.765-19.686-18.584-11.239a160.324,160.324,0,0,0-6.978,19.172c-1.4,4.848-2.5,9.549-3.379,13.957-.514,2.718-1.028,5.362-1.4,7.933-1.028,6.317-1.616,12.047-1.983,16.234-.441,4.628-.514,7.492-.514,7.492-3.159,11.312-6.17,33.422-7.346,42.9C311.16,361.3,306.9,391.051,306.9,391.051Z" transform="translate(-306.9 -241.208)" fill="#e69482"/></g><g transform="translate(0 146.17)"><path d="M302.4,456.287v.22a4.517,4.517,0,0,0,.073,1.028,5.806,5.806,0,0,0,.073,1.028l20.935.073a14.338,14.338,0,0,0,0-1.983,10.485,10.485,0,0,0-3.746-7.786c-3.967-3.085-2.424-2.424-3.232-3.82-.073-.147-.808-2.5-.881-2.718-.661-1.469-1.322-2.13-5.068-2.13-4.995,0-5.436,2.424-5.95,3.673a20.782,20.782,0,0,0-.808,2.938c-.147.514-.22,1.1-.367,1.689-.294,1.469-.588,2.938-.808,4.187A20.151,20.151,0,0,0,302.4,456.287Z" transform="translate(-302.4 -440.2)" fill="#1e1d12"/><g transform="translate(0 6.611)"><path d="M302.4,458.676v.22a4.517,4.517,0,0,0,.073,1.028,6.248,6.248,0,0,0,2.2-2.791c1.322-3.526-.661-7.786-.735-7.933h-.073c-.147.514-.22,1.1-.367,1.689.441,1.469,1.028,3.893.22,5.95A5.322,5.322,0,0,1,302.4,458.676Z" transform="translate(-302.4 -449.2)" fill="#6a6440"/></g><g transform="translate(0 16.307)"><path d="M302.4,462.4a12.242,12.242,0,0,0,.147,1.983l20.935.073a14.338,14.338,0,0,0,0-1.983Z" transform="translate(-302.4 -462.4)" fill="#6a6440"/></g><g transform="translate(6.817 4.795)"><path d="M312.356,448.25h.147a10.656,10.656,0,0,1,4.848-.073.606.606,0,1,0,.294-1.175,12.39,12.39,0,0,0-5.509.073.651.651,0,0,0-.441.735A.785.785,0,0,0,312.356,448.25Z" transform="translate(-311.681 -446.728)" fill="#fff"/></g><g transform="translate(6.156 2.738)"><path d="M311.456,445.45h.147a10.655,10.655,0,0,1,4.848-.073.606.606,0,1,0,.294-1.175,12.39,12.39,0,0,0-5.509.073.651.651,0,0,0-.441.735C311.015,445.23,311.236,445.45,311.456,445.45Z" transform="translate(-310.781 -443.928)" fill="#fff"/></g><g transform="translate(7.699 6.852)"><path d="M313.556,451.05h.147a10.656,10.656,0,0,1,4.848-.073.606.606,0,1,0,.294-1.175,12.389,12.389,0,0,0-5.509.073.651.651,0,0,0-.441.735C313.115,450.83,313.336,451.05,313.556,451.05Z" transform="translate(-312.881 -449.528)" fill="#fff"/></g><g transform="translate(8.8 8.982)"><path d="M315.056,453.95h.147a10.656,10.656,0,0,1,4.848-.073.606.606,0,0,0,.294-1.175,12.39,12.39,0,0,0-5.509.073.651.651,0,0,0-.441.735A.706.706,0,0,0,315.056,453.95Z" transform="translate(-314.381 -452.428)" fill="#fff"/></g></g><g transform="translate(21.74 68.598)"><path d="M342.356,338.419h.147a.514.514,0,0,0,0-1.028c-.073,0-5.583-.073-9.7-2.718a.53.53,0,0,0-.588.881A21.627,21.627,0,0,0,342.356,338.419Z" transform="translate(-331.996 -334.596)" fill="#a8494a"/></g></g><g transform="translate(52.128 116.401)"><path d="M368.9,262.818c0,.955.073,1.983.073,2.938.22,4.554.588,8.815,1.175,12.855.367,2.865.881,5.509,1.322,8.08a135.685,135.685,0,0,0,5.215,19.1c.881,2.5,1.469,3.82,1.469,3.82-6.758,11.679,4.7,36.654,6.538,45.983s5.362,36.36,5.362,36.36l10.21-.514C397.4,350.3,397.18,310.05,397.18,310.05v-6.538c-.073-5.436-.367-10.724-.661-15.646-.367-5.215-.881-10.137-1.4-14.618-.514-3.967-1.028-7.566-1.543-10.724-1.543-9.7-3.012-15.5-3.012-15.5-2.057-7.566-19.906-10.21-21.082.881-.22,2.5-.441,4.921-.514,7.346C368.9,257.823,368.9,260.394,368.9,262.818Z" transform="translate(-368.9 -240.454)" fill="#e69482"/><g transform="translate(18.99 149.404)"><path d="M428.8,460.267l-33.569.073a5.607,5.607,0,0,1-.441-1.836c-.22-2.865.661-7.346,1.1-10.21.073-.367.073-.661.147-.955a7.61,7.61,0,0,0,.073-1.175c0-2.351,2.057-1.91,2.057-1.91,3.379,3.305,7.272-1.689,9.476-.073,0,0,.955.661,3.673,3.085,2.644,2.424,7.2,3.967,11.092,5.583,4.995,2.057,6.391,4.113,6.684,5.583A3.033,3.033,0,0,1,428.8,460.267Z" transform="translate(-394.753 -443.849)" fill="#1e1d12"/><g transform="translate(0.035 14.582)"><path d="M428.81,465.536l-33.569.073a5.607,5.607,0,0,1-.441-1.836l34.3-.073A3.033,3.033,0,0,1,428.81,465.536Z" transform="translate(-394.8 -463.7)" fill="#6a6440"/></g><g transform="translate(1.063 3.49)"><path d="M398.991,461.6h-1.028a7.142,7.142,0,0,0,1.763-5.362,9.177,9.177,0,0,0-3.526-6.684c.073-.367.073-.661.147-.955a10.042,10.042,0,0,1,4.187,7.566A7.526,7.526,0,0,1,398.991,461.6Z" transform="translate(-396.2 -448.6)" fill="#6a6440"/></g><g transform="translate(15.442 3.765)"><path d="M416.307,450.609a.537.537,0,0,1-.514-.441.526.526,0,0,1,.367-.661l2.13-.514a.535.535,0,0,1,.294,1.028l-2.13.514A.227.227,0,0,1,416.307,450.609Z" transform="translate(-415.775 -448.975)" fill="#fff"/></g><g transform="translate(13.091 1.929)"><path d="M413.107,448.109a.537.537,0,0,1-.514-.441.526.526,0,0,1,.367-.661l2.13-.514a.535.535,0,1,1,.294,1.028l-2.13.514C413.181,448.109,413.181,448.109,413.107,448.109Z" transform="translate(-412.574 -446.475)" fill="#fff"/></g><g transform="translate(17.498 4.94)"><path d="M419.107,452.209a.537.537,0,0,1-.514-.441.526.526,0,0,1,.367-.661l2.13-.514a.535.535,0,1,1,.294,1.028l-2.13.514C419.254,452.209,419.181,452.209,419.107,452.209Z" transform="translate(-418.574 -450.574)" fill="#fff"/></g><g transform="translate(19.629 6.116)"><path d="M422.007,453.809a.537.537,0,0,1-.514-.441.526.526,0,0,1,.367-.661l2.13-.514a.535.535,0,0,1,.294,1.028l-2.13.514C422.081,453.809,422.081,453.809,422.007,453.809Z" transform="translate(-421.475 -452.174)" fill="#fff"/></g><g transform="translate(21.906 7.218)"><path d="M425.107,455.309a.537.537,0,0,1-.514-.441.526.526,0,0,1,.367-.661l2.13-.514a.535.535,0,1,1,.294,1.028l-2.13.514C425.181,455.309,425.181,455.309,425.107,455.309Z" transform="translate(-424.574 -453.674)" fill="#fff"/></g><g transform="translate(24.403 8.099)"><path d="M428.507,456.509a.537.537,0,0,1-.514-.441.526.526,0,0,1,.367-.661l2.13-.514a.535.535,0,0,1,.294,1.028l-2.13.514C428.581,456.509,428.581,456.509,428.507,456.509Z" transform="translate(-427.975 -454.875)" fill="#fff"/></g></g><g transform="translate(20.475 70.826)"><path d="M400.76,338.656a5.81,5.81,0,0,0,3.012-.588.53.53,0,1,0-.588-.881c-.073,0-1.763,1.1-5.729-.294a.512.512,0,1,0-.367.955A11.929,11.929,0,0,0,400.76,338.656Z" transform="translate(-396.774 -336.874)" fill="#a8494a"/></g></g><g transform="translate(11.654 96.454)"><g transform="translate(0 0.809)"><path d="M313.8,288.369a54.339,54.339,0,0,0,5.583,1.983l.661.22c1.91.588,4.26,1.175,6.9,1.763.22.073.441.073.588.147,1.175.22,2.351.514,3.673.735.147,0,.367.073.514.073A109.454,109.454,0,0,0,355.3,294.76h.661c1.469-.073,3.012-.22,4.481-.294.22,0,.441-.073.661-.073a103.71,103.71,0,0,0,26.738-6.244l-.22-1.763c0-.22-.073-.514-.073-.735-.294-2.644-.661-5.215-1.028-7.786h0c-.073-.294-.073-.588-.147-.808-.294-1.763-.514-3.452-.808-5.142-.073-.294-.073-.661-.147-.955-.294-1.689-.588-3.379-.955-5.068-.073-.367-.147-.808-.22-1.175-1.249-6.023-2.571-11.753-4.114-17.189l-.22-.881c-.441-1.616-.881-3.232-1.4-4.775-.073-.294-.22-.588-.294-.955-.441-1.543-.955-3.085-1.4-4.554-.073-.294-.22-.588-.294-.881-.955-3.012-1.983-5.95-3.012-8.815a3.072,3.072,0,0,0-.294-.735c-1.4-3.967-2.865-7.86-4.334-11.532,0,0-17.776,4.334-31.733.294,0,0-1.1,1.91-2.5,4.775-.073.22-.22.367-.294.588-1.028,2.057-2.2,4.554-3.305,7.2-.073.22-.147.367-.22.588-.514,1.175-.955,2.351-1.4,3.452,0,.073-.073.147-.073.22-.073.147-.073.294-.147.441-.588,1.689-1.469,4.628-2.5,8.3-.073.147-.073.367-.147.514-.367,1.4-.808,2.865-1.249,4.481-.073.147-.073.367-.147.514h0c-1.249,4.407-2.571,9.4-3.967,14.324-.073.22-.073.367-.147.588-.441,1.763-.955,3.452-1.4,5.215a2.144,2.144,0,0,0-.147.661c-.661,2.571-1.4,5.068-1.983,7.346h0c-.073.22-.073.441-.147.588-.22.881-.441,1.763-.661,2.571-.073.22-.073.367-.147.588h0c-.441,1.763-.881,3.379-1.249,4.775a2.145,2.145,0,0,0-.147.661C314.314,286.313,313.8,288.369,313.8,288.369Z" transform="translate(-313.8 -214.4)" fill="#f8d010"/></g><g transform="translate(52.441 5.088)"><path d="M385.2,220.5c.22,4.04,4.04,6.317,7.419,7.566a3.07,3.07,0,0,0-.294-.735c-3.232-1.322-6.391-3.085-6.611-6.831C385.712,220.133,385.124,220.133,385.2,220.5Z" transform="translate(-385.191 -220.225)" fill="#5f2418"/></g><g transform="translate(47.592 6.707)"><path d="M378.6,222.775a15.054,15.054,0,0,0,4.628,8.007c3.232,3.085,7.272,5.142,10.945,7.639-.073-.294-.22-.588-.294-.881-.661-.441-1.4-.881-2.057-1.322-5.215-3.232-11.459-6.9-12.634-13.516C379.038,222.261,378.524,222.408,378.6,222.775Z" transform="translate(-378.59 -222.43)" fill="#5f2418"/></g><g transform="translate(56.345 30.594)"><path d="M393.22,262.552c3.893,4.7,7.786,9.329,11.679,14.03-.073-.367-.147-.808-.22-1.175-.955-1.175-1.983-2.351-2.938-3.526-2.13-2.571-4.26-5.068-6.391-7.639-1.1-1.322-2.277-2.571-3.305-4.04-.808-1.175-1.543-3.232-.073-4.26,1.175-.808,2.865-.294,4.113.073a12.766,12.766,0,0,1,3.526,1.616c.294.22.661.441.955.661l-.22-.881a18.579,18.579,0,0,0-1.616-.955c-1.836-.955-5.436-2.424-7.346-.735C389.106,257.778,391.824,260.863,393.22,262.552Z" transform="translate(-390.506 -254.948)" fill="#5f2418"/></g><g transform="translate(46.718 67.464)"><path d="M377.4,318.48c.22,0,.441-.073.661-.073.073-.147.22-.367.294-.514,1.469-2.424,2.5-5.142,4.187-7.492a10.88,10.88,0,0,1,7.786-4.628c5.289-.661,9.99,1.763,14.324,4.554,0-.22-.073-.514-.073-.735a32.313,32.313,0,0,0-6.1-3.232c-5.289-2.057-11.826-1.763-15.719,2.865C380.559,311.869,379.31,315.542,377.4,318.48Z" transform="translate(-377.4 -305.142)" fill="#5f2418"/></g><g transform="translate(1.469 68.755)"><path d="M315.8,307.488a17.746,17.746,0,0,1,3.305,5.068,22.23,22.23,0,0,1,.881,2.351l.661.22a6.464,6.464,0,0,0-.367-1.1,19.622,19.622,0,0,0-4.26-7.125A.834.834,0,0,0,315.8,307.488Z" transform="translate(-315.8 -306.9)" fill="#5f2418"/></g><g transform="translate(17.442 72.009)"><path d="M337.585,318.947c.147,0,.367.073.514.073a3.566,3.566,0,0,1,0-1.249c.147-1.469,1.175-3.159,2.718-3.379,1.469-.22,2.791.661,4.04,1.175a9.3,9.3,0,0,0,4.04.514c2.791-.22,4.7-1.983,7.052-3.305a5.568,5.568,0,0,1,4.407-.808,3.915,3.915,0,0,1,2.277,3.012,8.751,8.751,0,0,1-.955,5.583h.661a8.466,8.466,0,0,0,.661-6.391c-.955-2.718-3.673-3.452-6.244-2.351a32.991,32.991,0,0,0-4.334,2.718,8.46,8.46,0,0,1-5.8,1.028c-2.644-.441-5.509-3.085-7.86-.441A4.334,4.334,0,0,0,337.585,318.947Z" transform="translate(-337.545 -311.33)" fill="#5f2418"/></g><g transform="translate(2.865 63.319)"><path d="M317.7,300.088h0a26.193,26.193,0,0,1,10.284,14.838c.22.073.441.073.588.147A26.747,26.747,0,0,0,317.847,299.5,1.384,1.384,0,0,1,317.7,300.088Z" transform="translate(-317.7 -299.5)" fill="#5f2418"/></g><g transform="translate(5.876 47.069)"><path d="M321.8,283.05a20.016,20.016,0,0,0,4.922,3.673,20.849,20.849,0,0,0,16.234,1.322c5.142-1.689,9.549-4.922,14.4-7.346a24.708,24.708,0,0,1,7.86-2.571,20.819,20.819,0,0,1,9.476,1.322c5.068,1.91,9.182,5.362,13.075,9.035-.073-.294-.073-.661-.147-.955-4.04-3.746-8.374-7.125-13.589-8.962a20.476,20.476,0,0,0-8.668-1.1,24.05,24.05,0,0,0-7.125,2.057c-4.922,2.277-9.329,5.583-14.471,7.492a20.413,20.413,0,0,1-17.189-1.1,18.638,18.638,0,0,1-4.628-3.6A2.173,2.173,0,0,1,321.8,283.05Z" transform="translate(-321.8 -277.377)" fill="#5f2418"/></g><g transform="translate(7.492 31.513)"><path d="M324,271.552a17.914,17.914,0,0,0,6.17,2.5c2.351.367,4.775-.22,6.023-2.424a8.122,8.122,0,0,0,.367-6.538c-1.4-4.113-4.7-6.831-8.374-8.888-.073.147-.073.367-.147.514h0a21.694,21.694,0,0,1,4.26,3.085c2.2,2.057,4.114,4.922,4.187,8.007.073,3.305-1.91,6.023-5.436,5.8a14.452,14.452,0,0,1-6.9-2.571A1.362,1.362,0,0,0,324,271.552Z" transform="translate(-324 -256.2)" fill="#5f2418"/></g><g transform="translate(17.262 13.37)"><path d="M337.3,232.161a10.481,10.481,0,0,0,3.452,2.424c3.967,1.836,8.374,1.91,12.634,1.836a59.5,59.5,0,0,1,13,1.175,47.672,47.672,0,0,1,18.511,8.668c-.073-.294-.22-.588-.294-.955a43.353,43.353,0,0,0-6.611-4.113A49.967,49.967,0,0,0,355,235.76c-4.481,0-9.108.294-13.3-1.469a13.483,13.483,0,0,1-4.187-2.791A3.417,3.417,0,0,1,337.3,232.161Z" transform="translate(-337.3 -231.5)" fill="#5f2418"/></g><g transform="translate(20.788 5.877)"><path d="M342.1,221.741a15.3,15.3,0,0,0,3.159,3.746c4.187,3.526,9.843,4.7,15.132,5.068,2.057.147,4.481-.22,5.068-2.5.661-2.5-1.175-4.554-2.718-6.244-.22-.294-.661.147-.441.441a9.239,9.239,0,0,1,2.644,4.04,3.049,3.049,0,0,1-2.2,3.673,12.886,12.886,0,0,1-4.113-.073c-1.616-.22-3.159-.441-4.775-.808-4.554-1.1-9.182-3.6-11.459-7.786C342.32,221.3,342.247,221.52,342.1,221.741Z" transform="translate(-342.1 -221.3)" fill="#5f2418"/></g><g transform="translate(35.907 23.746)"><path d="M368.131,260.077c2.718,2.057,6.538,3.6,9.623,1.469,3.159-2.2,2.13-6.391.294-9.108a17.453,17.453,0,0,0-8.3-6.391,4.917,4.917,0,0,0-4.407.22,5.532,5.532,0,0,0-2.644,4.407C362.475,254.642,365.267,257.874,368.131,260.077Zm-4.775-9.035a4.969,4.969,0,0,1,2.277-4.113,4.142,4.142,0,0,1,3.452-.514l.073.073c.147.073.22.073.367.147.073.073.147.073.294.147a.138.138,0,0,0,.22,0,16.923,16.923,0,0,1,7.566,6.023c1.763,2.571,2.865,6.758-.514,8.594-3.085,1.689-6.538-.073-9.035-2.057C365.56,257.213,363.136,254.421,363.357,251.042Z" transform="translate(-362.683 -245.625)" fill="#5f2418"/></g><g transform="translate(23.971 41.176)"><path d="M346.923,279.892a3.629,3.629,0,0,0,3.232.735,15.761,15.761,0,0,0,7.492-3.746c1.543-1.4,4.628-4.407,3.012-6.684-.735-1.1-2.13-.881-3.232-.661a18.144,18.144,0,0,0-3.967,1.4,16.42,16.42,0,0,0-5.8,4.7c-.147.147-.22.294-.294.367C346.7,277.174,345.895,278.717,346.923,279.892Zm.441-2.718c.073-.073.22-.367.294-.441a16.039,16.039,0,0,1,6.391-5.509,15.845,15.845,0,0,1,4.113-1.322c1.028-.147,2.13.073,2.351,1.249a3.357,3.357,0,0,1-.881,2.571,15.527,15.527,0,0,1-6.391,5.289,9.36,9.36,0,0,1-4.187,1.1c-.881,0-1.836-.294-2.057-1.249A3.522,3.522,0,0,1,347.364,277.174Z" transform="translate(-346.433 -269.355)" fill="#5f2418"/></g><g transform="translate(13.002 17.557)"><path d="M331.5,246.676c2.424,1.4,4.481,3.746,6.684,5.362,2.351,1.689,5.656,3.012,8.521,1.616,2.2-1.175,3.526-4.04,1.983-6.244a8.72,8.72,0,0,0-3.452-2.644c-1.689-.881-3.379-1.763-4.995-2.718a18.726,18.726,0,0,1-5.876-4.848c0,.073-.073.147-.073.22-.073.147-.073.294-.147.441a17.47,17.47,0,0,0,4.481,3.893c1.469.955,3.012,1.689,4.481,2.5a21.762,21.762,0,0,1,4.187,2.5c3.085,2.644.441,6.758-3.085,6.9s-6.244-2.424-8.741-4.554a19.132,19.132,0,0,0-3.967-2.938A.621.621,0,0,1,331.5,246.676Z" transform="translate(-331.5 -237.2)" fill="#5f2418"/></g><g transform="translate(3.746 56.171)"><path d="M318.9,294.346a38.56,38.56,0,0,0,3.6,2.424,24.8,24.8,0,0,0,7.346,3.085,29.164,29.164,0,0,0,9.108.22c6.611-.735,12.928-3.085,18.951-5.876,3.232-1.469,6.464-3.159,9.99-3.746a19.886,19.886,0,0,1,10.5,1.322,33.679,33.679,0,0,1,9.623,6.023c-.073-.294-.073-.588-.147-.808a30.85,30.85,0,0,0-10.284-6.023,20.788,20.788,0,0,0-9.476-1.028c-3.379.514-6.464,1.983-9.549,3.379-6.17,2.865-12.708,5.509-19.539,6.244a29.338,29.338,0,0,1-9.476-.294,24.525,24.525,0,0,1-7.713-3.526c-.955-.588-1.836-1.249-2.718-1.91C318.973,293.905,318.973,294.125,318.9,294.346Z" transform="translate(-318.9 -289.768)" fill="#5f2418"/></g><g transform="translate(21.215)"><path d="M376.778,213.961a5.888,5.888,0,0,1,1.689,5.73,67.164,67.164,0,0,1-35.773-.881c-.073-.661.073-4.481,2.424-5.509C345.119,213.226,358.561,217.56,376.778,213.961Z" transform="translate(-342.681 -213.299)" fill="#5f2418"/></g></g><g transform="translate(24.068 2.99)"><path d="M362.653,94.1s-10.5-2.865-19.1.808c-8.594,3.746-12.855,8.227-12.855,8.227s1.249-8.888,7.639-13.589c6.538-4.848,16.821-5.73,24.314,4.554" transform="translate(-330.7 -86.059)" fill="#5c6bbc"/></g><g transform="translate(24.068 3.899)"><path d="M359.568,89.943a4.413,4.413,0,0,0-2.13-2.644s-15.719-.367-26,7.2l-.735,3.012A84.98,84.98,0,0,1,359.568,89.943Z" transform="translate(-330.7 -87.296)" fill="#20276c"/></g><g transform="translate(0 48.636)"><path d="M330.3,201.9a26.242,26.242,0,0,0,1.91-4.114l-2.2-1.763-3.232-2.644c-1.1-.881-2.13-1.763-3.232-2.644s-2.13-1.763-3.159-2.644-2.057-1.763-3.085-2.718c-1.028-.881-2.057-1.836-3.012-2.718-.955-.955-1.91-1.836-2.718-2.791-.441-.441-.808-.955-1.175-1.4-.147-.147-.22-.294-.367-.441l.147-.147.661-.735c1.836-2.057,3.673-4.113,5.583-6.17l5.656-6.244c1.836-2.057,3.746-4.187,5.583-6.317h0a6.191,6.191,0,0,0-9.182-8.3c-1.983,2.057-3.82,4.187-5.73,6.317-1.836,2.13-3.673,4.334-5.509,6.538s-3.6,4.407-5.362,6.758l-.661.881-.661.881-.367.441c-.147.147-.22.367-.367.514l-.367.514-.147.22-.073.073-.073.147-.073.147c-.147.22-.22.367-.367.588a6.471,6.471,0,0,0-.735,2.5,5.659,5.659,0,0,0,.073,1.983,7.144,7.144,0,0,0,.367,1.469l.441,1.1a16.011,16.011,0,0,0,.881,1.616c.294.441.588.881.881,1.249a24.045,24.045,0,0,0,1.763,1.983c.588.588,1.175,1.175,1.763,1.689,1.175,1.028,2.351,1.983,3.526,2.938s2.351,1.836,3.526,2.644c1.175.881,2.351,1.689,3.6,2.5,1.175.808,2.424,1.616,3.6,2.424,1.249.808,2.424,1.543,3.673,2.277s2.424,1.469,3.673,2.2c.588.367,1.249.735,1.836,1.1l1.616.881A10.542,10.542,0,0,1,330.3,201.9ZM309,176.627c-.073-.147-.147-.294-.073-.294l.073.073v.22Z" transform="translate(-297.934 -148.2)" fill="#e69482"/><g transform="translate(27.758 47.759)"><g transform="translate(3.931)"><path d="M344.4,213.352s-2.351-.661-3.159.955c-.735,1.616,1.175,5.436,1.983,6.684s1.322-2.2.735-3.673a3.317,3.317,0,0,1-.22-2.351Z" transform="translate(-341.075 -213.218)" fill="#e69482"/></g><g transform="translate(0.993 5.221)"><path d="M340.546,220.527s-2.5-.808-3.305.808c-.735,1.616,1.175,5.436,1.983,6.684s1.322-2.2.735-3.673a2.612,2.612,0,0,1-.147-2.2Z" transform="translate(-337.075 -220.325)" fill="#e69482"/></g><g transform="translate(0 9.057)"><path d="M338.5,225.586s-2.351-.367-2.718,1.175c-.441,1.543,1.836,4.554,2.718,5.583s.808-2.13.147-3.305a2.262,2.262,0,0,1-.441-1.91Z" transform="translate(-335.724 -225.548)" fill="#e69482"/></g><g transform="translate(2.682 2.723)"><path d="M342.846,217.127s-2.5-.808-3.305.808c-.735,1.616,1.175,5.436,1.983,6.684s1.322-2.2.735-3.673a2.612,2.612,0,0,1-.147-2.2Z" transform="translate(-339.375 -216.925)" fill="#e69482"/></g></g><g transform="translate(7.639 28.852)"><path d="M312.643,187.788a5.208,5.208,0,0,0-4.187.294c-.294.147,0,.661.294.441a4.747,4.747,0,0,1,3.746-.22c.294.073.441-.441.147-.514Z" transform="translate(-308.334 -187.479)" fill="#a8494a"/></g><g transform="translate(8 27.693)"><path d="M309.1,186.488a2.09,2.09,0,0,1,1.543.881c.147.294.588.073.441-.294A2.485,2.485,0,0,0,309.1,185.9c-.367.073-.367.588,0,.588Z" transform="translate(-308.825 -185.9)" fill="#a8494a"/></g></g></g><g transform="translate(1792.459 457.1)"><g transform="translate(0 0)"><g transform="translate(7.573 110.478)"><g transform="translate(0 21.754)"><g transform="translate(46.391 110.697)"><path d="M594.248,417l4.187,3.526-4.848,7.566-4.187-3.452Z" transform="translate(-589.4 -417)" fill="#e69482"/></g><g transform="translate(47.768 112.918)"><g transform="translate(0.112)"><path d="M594.566,454.751,612.2,427.058a4.488,4.488,0,0,0-1.322-1.322c-2.2-1.689-6.464-3.305-9.035-4.407a8.62,8.62,0,0,1-.808-.367c-.441-.22-.808-.367-1.028-.514a1.708,1.708,0,0,0-2.718.661c.955,4.554-5.215,5.068-4.995,7.786,0,0,.073,1.175.661,4.628s-.514,8.007-1.175,12.047c-.881,5.215.073,7.419,1.1,8.447A2.308,2.308,0,0,0,594.566,454.751Z" transform="translate(-591.427 -420.023)" fill="#60c8d2"/></g><g transform="translate(1.487 5.712)"><path d="M595.063,456.815l17.629-27.693a4.488,4.488,0,0,0-1.322-1.322L593.3,456.08A2.518,2.518,0,0,0,595.063,456.815Z" transform="translate(-593.3 -427.8)" fill="#6a6440"/></g><g transform="translate(9.788 0.938)"><path d="M613.929,430.262l.514-.808a7.209,7.209,0,0,1-5.362-1.322,9.152,9.152,0,0,1-3.673-6.464,8.606,8.606,0,0,1-.808-.367,9.769,9.769,0,0,0,4.113,7.419A7.174,7.174,0,0,0,613.929,430.262Z" transform="translate(-604.6 -421.3)" fill="#6a6440"/></g><g transform="translate(1.028 13.26)"><path d="M595.191,438.9a.547.547,0,0,0-.073-.661.491.491,0,0,0-.735,0l-1.543,1.469a.519.519,0,0,0,.735.735l1.543-1.469C595.191,438.975,595.191,438.975,595.191,438.9Z" transform="translate(-592.675 -438.075)" fill="#fff"/></g><g transform="translate(0.808 10.762)"><path d="M594.891,435.5a.547.547,0,0,0-.073-.661.491.491,0,0,0-.734,0l-1.543,1.469a.519.519,0,0,0,.735.735l1.543-1.469Z" transform="translate(-592.375 -434.675)" fill="#fff"/></g><g transform="translate(0.955 15.61)"><path d="M595.091,442.1a.547.547,0,0,0-.073-.661.491.491,0,0,0-.735,0l-1.542,1.469a.519.519,0,0,0,.734.735l1.543-1.469A.072.072,0,0,0,595.091,442.1Z" transform="translate(-592.575 -441.275)" fill="#fff"/></g><g transform="translate(0.808 17.961)"><path d="M594.891,445.3a.547.547,0,0,0-.073-.661.491.491,0,0,0-.734,0l-1.543,1.469a.519.519,0,0,0,.735.735l1.543-1.469A.072.072,0,0,0,594.891,445.3Z" transform="translate(-592.375 -444.475)" fill="#fff"/></g><g transform="translate(0.514 20.459)"><path d="M594.491,448.7a.547.547,0,0,0-.073-.661.491.491,0,0,0-.734,0l-1.543,1.469a.519.519,0,0,0,.735.735l1.543-1.469Z" transform="translate(-591.975 -447.875)" fill="#fff"/></g><g transform="translate(0 22.956)"><path d="M593.791,452.1a.547.547,0,0,0-.073-.661.491.491,0,0,0-.735,0l-1.543,1.469a.519.519,0,0,0,.735.735l1.543-1.469A.072.072,0,0,1,593.791,452.1Z" transform="translate(-591.275 -451.275)" fill="#fff"/></g></g><path d="M579.834,376.189c-2.5,5.362-7.786,10.945-7.786,10.945-.367-.22-.735-.367-1.028-.588-.734-.441-1.469-.808-2.13-1.249-.367-.22-.735-.441-1.028-.661a41.609,41.609,0,0,1-9.623-8.815c-.808-.955-1.542-1.91-2.277-2.865a.072.072,0,0,0-.073-.073c-1.763-2.2-3.526-4.554-5.215-6.831-.588-.735-1.1-1.543-1.689-2.277a372.962,372.962,0,0,1-21.743-34.891L526.8,328v-.22c-2.2-16.6,2.718-45.1,4.995-56.561.073-.367.147-.661.22-.955.514-2.5.808-3.967.808-3.967l3.967,1.4.955.367,16.748,5.876-.441,2.791-7.639,44.44a64.9,64.9,0,0,1,8.007,10.21c.441.735.881,1.4,1.322,2.13.073.073.073.147.147.22.147.294.367.588.514.881.22.367.441.735.661,1.175,2.057,3.6,3.967,7.272,5.509,10.578,2.13,4.554,7.86,14.25,12.194,21.375.955,1.543,1.836,3.012,2.571,4.26.22.441.514.808.735,1.175C579.173,375.087,579.834,376.189,579.834,376.189Z" transform="translate(-526.245 -266.3)" fill="#1e1d12"/><g transform="translate(41.616 105.776)"><path d="M582.9,422.861c.367.22.735.441,1.028.661L590.392,415l.588-.808,2.057-2.718c-.22-.367-.441-.735-.735-1.175l-1.983,2.644-.588.808Z" transform="translate(-582.9 -410.3)" fill="#605e4b"/></g><g transform="translate(0.555 58.783)"><path d="M527,349.025v.22l.441.881a20.89,20.89,0,0,0,6.9-2.718.581.581,0,0,0-.661-.955A19.27,19.27,0,0,1,527,349.025Z" transform="translate(-527 -346.326)" fill="#605e4b"/></g><g transform="translate(15.656 9.314)"><path d="M547.662,326.153c.073.073,8.447,8.374,32.688,52.741.22.367.441.808.661,1.175l.588-.808c-.22-.367-.441-.808-.661-1.175-22.477-41.135-31.145-50.978-32.467-52.447,1.983-7.272,8.007-44.514,8.3-46.13.073-.22-.147-.441-.367-.514a.431.431,0,0,0-.514.367c-.073.367-6.464,39.739-8.3,46.277A.6.6,0,0,0,547.662,326.153Z" transform="translate(-547.559 -278.98)" fill="#605e4b"/></g></g><g transform="translate(5.55 1.554)"><g transform="translate(0.859)"><path d="M584.354,248.055s1.249,11.9-1.469,18.511-37.9,3.232-46.938-2.718c-3.673-2.424,4.187-25.048,4.187-25.048Z" transform="translate(-534.969 -238.8)" fill="#1e1d12"/></g><g transform="translate(0 11.371)"><path d="M533.8,268.031a11.741,11.741,0,0,0,1.543-.367,13.713,13.713,0,0,0,2.351-1.1,11.459,11.459,0,0,0,2.057-1.689c3.893-3.893,4.995-9.77,5.068-10.063a.447.447,0,0,0-.881-.147c0,.073-1.175,6.17-5.142,9.916a13.511,13.511,0,0,1-1.616,1.249,9.9,9.9,0,0,1-2.2,1.028c-.294.073-.661.22-.955.294A2.569,2.569,0,0,0,533.8,268.031Z" transform="translate(-533.8 -254.28)" fill="#605e4b"/></g><g transform="translate(21.669 4.775)"><path d="M563.3,268.953a.423.423,0,0,0,.441.441h0a.423.423,0,0,0,.441-.441c.073-1.616.147-3.305.294-4.995,0-.294.073-.588.073-.881.367-5.436.808-10.8,1.175-14.544,0-.294.073-.588.073-.881q.11-1.212.22-2.2c-.294-.073-.588-.073-.881-.147-.073.588-.147,1.4-.22,2.2,0,.294-.073.588-.073.881-.367,3.746-.808,9.035-1.175,14.471,0,.294-.073.588-.073.881C563.52,265.574,563.447,267.263,563.3,268.953Z" transform="translate(-563.3 -245.3)" fill="#605e4b"/></g><g transform="translate(20.197 5.362)"><path d="M561.519,263.435a11.7,11.7,0,0,0,1.542.588l.881.22c.294.073.588.073.881.147a3.583,3.583,0,0,0,1.543-.22,2.045,2.045,0,0,0,1.028-1.4c.294-1.689,1.028-8.594,1.469-13.516,0-.294.073-.588.073-.881.073-.808.147-1.469.22-2.13a3.687,3.687,0,0,1-.881-.147c-.073.588-.147,1.322-.22,2.13,0,.294-.073.588-.073.881-.441,4.922-1.175,11.826-1.469,13.442a.929.929,0,0,1-.514.735,3.356,3.356,0,0,1-1.91,0l-.881-.22a7.168,7.168,0,0,1-1.249-.514.5.5,0,0,0-.441.881Z" transform="translate(-561.296 -246.1)" fill="#605e4b"/></g></g><g transform="translate(27.66)"><g transform="translate(2.938 147.95)"><path d="M578.331,438.467l-.881,7.052h-9.035L567.9,438.1Z" transform="translate(-567.9 -438.1)" fill="#e69482"/></g><g transform="translate(1.983 18.465)"><path d="M566.6,269.3V390.5l.147,1.91h13.442c.147-.881.441-2.277.881-4.113.073-.367.22-.808.294-1.249,1.763-7.419,4.775-20.053,5.289-31,.735-15.719.514-35.993.514-35.993,1.543-11.679,3.967-36.948,5.142-49.876,0-.294.073-.588.073-.881.367-4.334.661-7.052.661-7.052-2.13-.881-6.1-.294-10.284.881a4.143,4.143,0,0,0-.881.294A116.065,116.065,0,0,0,566.6,269.3Z" transform="translate(-566.6 -261.822)" fill="#1e1d12"/></g><g transform="translate(1.207 89.462)"><path d="M565.585,358.861c-.22,12.634.514,25.269.294,37.976a.4.4,0,0,0,.808,0c.22-12.634-.514-25.269-.294-37.976.073-.514-.808-.514-.808,0Z" transform="translate(-565.543 -358.475)" fill="#605e4b"/></g><g transform="translate(1.983 143.69)"><path d="M566.6,432.3v1.249h14.471c.073-.367.22-.808.294-1.249Z" transform="translate(-566.6 -432.3)" fill="#605e4b"/></g><g transform="translate(1.983 79.417)"><path d="M566.6,344.8v1.175a22.817,22.817,0,0,0,5.068.514,50.888,50.888,0,0,0,6.023-.441.562.562,0,0,0-.22-1.1C577.4,344.873,570.86,345.975,566.6,344.8Z" transform="translate(-566.6 -344.8)" fill="#605e4b"/></g><g transform="translate(14.177 31.009)"><path d="M583.2,392.829h.955c.073-.367.147-.808.22-1.249,1.175-6.244,3.379-18,4.481-25.636,1.543-10.651.808-40.107.808-41.282,1.175-10.137,3.6-44.881,3.673-45.248a.479.479,0,0,0-.955-.073c0,.367-2.424,35.112-3.673,45.248v.073c0,.294.808,30.41-.808,41.135-1.1,7.639-3.306,19.539-4.481,25.783C583.347,392.021,583.273,392.462,583.2,392.829Z" transform="translate(-583.2 -278.9)" fill="#605e4b"/></g><g transform="translate(0 151.77)"><path d="M563.9,458.946v.22a3.882,3.882,0,0,0,.073.955,8.536,8.536,0,0,1,.073.955h20.347a14.338,14.338,0,0,0,0-1.983,9.977,9.977,0,0,0-3.673-7.492c-3.82-2.938-2.351-2.351-3.159-3.673-.073-.147-.808-2.424-.881-2.571-.661-1.4-1.249-2.057-4.922-2.057-4.848,0-5.289,2.351-5.8,3.6a22.189,22.189,0,0,0-.808,2.865c-.147.514-.22,1.028-.367,1.616-.294,1.4-.588,2.865-.735,4.04C563.973,456.6,563.9,457.918,563.9,458.946Z" transform="translate(-563.9 -443.3)" fill="#60c8d2"/><g transform="translate(0 6.391)"><path d="M563.9,461.255v.22a3.882,3.882,0,0,0,.073.955,5.55,5.55,0,0,0,2.13-2.718c1.249-3.452-.661-7.492-.734-7.713H565.3c-.147.514-.22,1.028-.367,1.616a9.336,9.336,0,0,1,.22,5.729A4.136,4.136,0,0,1,563.9,461.255Z" transform="translate(-563.9 -452)" fill="#6a6440"/></g><g transform="translate(0 15.866)"><path d="M563.9,464.9a12.242,12.242,0,0,0,.147,1.983h20.347a14.35,14.35,0,0,0,0-1.983Z" transform="translate(-563.9 -464.9)" fill="#6a6440"/></g><g transform="translate(6.67 4.869)"><path d="M573.582,451.377h.147a10.02,10.02,0,0,1,4.7-.073.606.606,0,0,0,.735-.367.59.59,0,0,0-.441-.735,11.468,11.468,0,0,0-5.289.073.611.611,0,0,0-.441.735A.749.749,0,0,0,573.582,451.377Z" transform="translate(-572.981 -449.928)" fill="#fff"/></g><g transform="translate(6.303 2.665)"><path d="M573.083,448.377h.147a10.021,10.021,0,0,1,4.7-.073.606.606,0,0,0,.735-.367.59.59,0,0,0-.441-.735,11.468,11.468,0,0,0-5.289.073.611.611,0,0,0-.441.735A.582.582,0,0,0,573.083,448.377Z" transform="translate(-572.481 -446.928)" fill="#fff"/></g><g transform="translate(7.552 6.632)"><path d="M574.783,453.85h.147a10.021,10.021,0,0,1,4.7-.073.606.606,0,0,0,.294-1.175,11.469,11.469,0,0,0-5.289.073.611.611,0,0,0-.441.735A.689.689,0,0,0,574.783,453.85Z" transform="translate(-574.181 -452.328)" fill="#fff"/></g><g transform="translate(8.58 8.688)"><path d="M576.182,456.65h.147a10.021,10.021,0,0,1,4.7-.073.606.606,0,0,0,.294-1.175,11.469,11.469,0,0,0-5.289.073.6.6,0,0,0,.147,1.175Z" transform="translate(-575.581 -455.128)" fill="#fff"/></g></g><g transform="translate(11.555)"><g transform="translate(3.191 12.852)"><path d="M583.993,254.709a24.811,24.811,0,0,0,2.5,6.611,14.663,14.663,0,0,0,4.628,5.142,10.709,10.709,0,0,0,5.8,1.689c0-.294.073-.588.073-.881a9.726,9.726,0,0,1-5.362-1.543,14.161,14.161,0,0,1-4.26-4.628,23.757,23.757,0,0,1-2.5-6.538c-.073-.22-.294-.441-.514-.367A.391.391,0,0,0,583.993,254.709Z" transform="translate(-583.974 -254.18)" fill="#605e4b"/></g><path d="M588.055,267.914c-.22,0-.441.073-.661.073a4.8,4.8,0,0,1-3.746-1.763c-5.729-6.317-3.673-28.133-3.6-29.015a.592.592,0,0,1,1.175.147c0,.22-2.057,22.183,3.305,28.133a3.534,3.534,0,0,0,2.865,1.322c3.379,0,8.668-4.407,9.182-13.883a.625.625,0,1,1,1.249.073c-.294,5.95-2.351,9.476-3.967,11.386A9.727,9.727,0,0,1,588.055,267.914Z" transform="translate(-579.63 -236.684)" fill="#fff"/></g></g></g><g transform="translate(0 34.169)"><g transform="translate(0 14.103)"><path d="M536.477,197.91a3.932,3.932,0,0,1-.367.808,15.737,15.737,0,0,1-3.6,4.628,28,28,0,0,1-9.4,4.995,40.674,40.674,0,0,1-3.673-5.215c-.073-.147-.22-.367-.294-.514-2.277-4.04-4.334-9.549-2.5-14.25.441-1.175,1.1-2.644,1.91-4.334.073-.147.147-.367.22-.514.808-1.689,1.689-3.673,2.718-5.656h0c.147-.22.22-.514.367-.735,1.469-3.012,3.012-6.17,4.554-9.255.147-.22.22-.441.367-.661,1.249-2.5,2.5-4.922,3.526-7.052a1.843,1.843,0,0,1,.294-.514c1.322-2.571,2.351-4.7,3.085-6.023h0c.147-.367.367-.661.441-.881l.367-.735h0l1.836,24.02.073.808.955,12.781A15.987,15.987,0,0,1,536.477,197.91Z" transform="translate(-515.936 -152)" fill="#96d5dd"/></g><g transform="translate(7.907 64.85)"><path d="M528.1,221.757a.7.7,0,1,1-.735-.661A.635.635,0,0,1,528.1,221.757Z" transform="translate(-526.7 -221.085)" fill="#20276c"/></g><g transform="translate(4.088 59.274)"><path d="M522.308,220.844a15.953,15.953,0,0,1,10.578-6.538c.514-.073.294-.881-.22-.808a16.9,16.9,0,0,0-11.092,6.9c-.294.441.367.881.735.441Z" transform="translate(-521.5 -213.494)" fill="#20276c"/></g><g transform="translate(10.478 60.894)"><path d="M533.432,219.96c-.955-1.689-1.322-2.571-2.277-4.26H530.2c.955,1.689,1.689,3.012,2.644,4.7Z" transform="translate(-530.2 -215.7)" fill="#20276c"/></g><g transform="translate(1.934 14.618)"><g transform="translate(3.696 14.691)"><path d="M528.228,180.046a14.819,14.819,0,0,1-4.628,3.305c.147-.22.22-.514.367-.735a1.607,1.607,0,0,0,.367-.22,11.805,11.805,0,0,0,3.673-2.865,5.348,5.348,0,0,0,.514-6.17c.147-.22.22-.441.367-.661a6.633,6.633,0,0,1,.881,2.644A5.685,5.685,0,0,1,528.228,180.046Z" transform="translate(-523.6 -172.7)" fill="#8798fb"/></g><g transform="translate(0 30.998)"><path d="M524.615,199.748c-.881,2.791-4.334,3.6-5.289,6.391-.881,2.571,2.424,4.04,1.763,6.611a3.755,3.755,0,0,1-.955,1.763c-.073-.147-.22-.367-.294-.514v-.073c1.1-1.4.808-2.791-.147-4.113a4.263,4.263,0,0,1-1.1-3.012,5.4,5.4,0,0,1,1.69-3.012c1.175-1.1,2.644-1.91,3.452-3.379a2.928,2.928,0,0,0-1.028-4.114,6.824,6.824,0,0,0-3.379-.881c.073-.147.147-.367.22-.514a7.153,7.153,0,0,1,2.5.441C523.88,196.075,525.276,197.691,524.615,199.748Z" transform="translate(-518.569 -194.9)" fill="#8798fb"/></g><g transform="translate(7.955 27.252)"><path d="M535.79,189.8c-3.379.147-6.464,2.057-6.391,5.8a4.874,4.874,0,0,0,1.836,3.967,3.55,3.55,0,0,0,3.967.147c.294-.22,0-.661-.294-.441a3.116,3.116,0,0,1-3.746-.441,4.527,4.527,0,0,1-1.249-3.82c.294-3.159,3.012-4.481,5.8-4.628.441,0,.441-.588.073-.588Z" transform="translate(-529.398 -189.8)" fill="#8798fb"/></g><g transform="translate(12.437)"><path d="M539.467,159.164a2.025,2.025,0,0,1-1.249,1.1,3.861,3.861,0,0,1-2.718-.073,1.84,1.84,0,0,1,.294-.514,3.3,3.3,0,0,0,1.616.22,1.337,1.337,0,0,0,.808-.294c1.175-.661.955-2.5.808-3.746-.073-.441-.073-.955-.147-1.4h0c0-.294-.073-.588-.073-.881h0c.147-.367.367-.661.441-.881v.294c.147,1.175.22,2.424.367,3.6A3.791,3.791,0,0,1,539.467,159.164Z" transform="translate(-535.5 -152.7)" fill="#8798fb"/></g></g><g transform="translate(14.298)"><path d="M593.8,163.725l-.514,4.481-.22,1.836L591.3,186.569l-2.057,19.319-.073.661L587.48,220.8l-52.08,2.865c1.983-11.018,3.012-15.646,3.673-20.2.073-.661.22-1.322.294-2.057.147-1.175.294-2.277.367-3.452.073-.661.073-1.322.147-2.057.073-1.175.073-2.277.073-3.379a17.922,17.922,0,0,0-.073-1.983,30.444,30.444,0,0,0-.588-4.7s-.367-.294-.881-.808a71.875,71.875,0,0,1-.22-13.148c.294-4.848-1.322-18.658,1.4-25.269a5.855,5.855,0,0,1,.588-1.175h0a12.891,12.891,0,0,1,1.763-2.2,14.591,14.591,0,0,1,1.983-1.616c.661-.441,1.4-.881,2.13-1.322a48,48,0,0,1,4.334-2.2c.367-.22.808-.367,1.175-.588a6.068,6.068,0,0,0,.955-.514c.441-.22.955-.514,1.4-.735a14.089,14.089,0,0,0,2.865-1.983l.073-.073,14.25-1.4s.441.22,1.175.514c.514.22,1.175.588,1.983.881.735.367,1.616.735,2.571,1.175a40.075,40.075,0,0,0,8.668,2.571C593.724,139.411,595.119,147.858,593.8,163.725Z" transform="translate(-535.4 -132.8)" fill="#fff"/></g><g transform="translate(11.359 3.526)"><path d="M556.081,148.765a158.369,158.369,0,0,0-3.82,31.218c-.147,11.018-3.232,27.84-5.142,37.315a.27.27,0,0,1-.073.22c-.073.22-.073.367-.147.588-.147.735-.294,1.4-.367,2.057-.514,2.938-.735,5.142-.735,5.142-6.684,1.028-13,.514-14.4-.073,0,0,.441-1.983,1.028-4.995.147-.735.294-1.543.514-2.424.073-.22.073-.514.147-.808q.22-.992.441-2.2c.073-.22.073-.441.147-.661.147-.661.294-1.4.441-2.13.294-1.4.588-2.865.881-4.334.22-1.249.514-2.5.735-3.746.294-1.616.588-3.159.808-4.628v-.147c.881-4.995,1.1-3.967.881-4.995a29.611,29.611,0,0,1-.073-3.085v-.588c0-1.836.073-3.746,0-4.334a71.876,71.876,0,0,1-.22-13.148v-1.469c0-3.673-.441-9.916-.147-15.5v-.588a48.865,48.865,0,0,1,.661-5.142h0a12.175,12.175,0,0,1,.441-1.543c.147-.367.22-.661.367-1.028h0a5.858,5.858,0,0,1,.588-1.175h0a12.785,12.785,0,0,1,2.5-3.085,3.2,3.2,0,0,1,.514-.441,27.616,27.616,0,0,1,6.17-4.04c.147-.073.367-.147.514-.22a20.853,20.853,0,0,1,2.791-1.175c0,.22-.073.441-.073.661a11.347,11.347,0,0,0,2.351,8.3c.073.073.147.22.22.294A12.132,12.132,0,0,0,556.081,148.765Z" transform="translate(-531.4 -137.6)" fill="#60c8d2"/></g><g transform="translate(13.563 4.848)"><g transform="translate(3.344 32.342)"><path d="M539.428,184.509a2.348,2.348,0,0,1,3.379.661,6.632,6.632,0,0,1,.955,3.305,50.5,50.5,0,0,0,.955,6.684c.367,1.616.808,3.526,2.13,4.7a3.883,3.883,0,0,0,4.407.441c.294-.147,0-.661-.294-.441a3.362,3.362,0,0,1-3.6-.294,5.619,5.619,0,0,1-1.616-2.865,33.164,33.164,0,0,1-1.322-7.052c-.147-1.836-.147-3.893-1.542-5.289a2.759,2.759,0,0,0-3.82-.294c-.294.294.073.735.367.441Z" transform="translate(-538.953 -183.429)" fill="#8798fb"/></g><g transform="translate(1.69 51.923)"><path d="M537.288,211.933a1.528,1.528,0,0,1,2.057-1.322,3.031,3.031,0,0,1,1.836,2.057c.514,1.322.588,2.791,1.4,4.04a3.2,3.2,0,0,0,2.571,1.616c.441,0,.955-.22,1.4-.073a1.713,1.713,0,0,1,1.175.955,4.806,4.806,0,0,1,.367,2.865c0,.367.514.367.588,0,.073-1.543-.073-3.82-1.91-4.334a2.126,2.126,0,0,0-1.175,0,2.424,2.424,0,0,1-1.983-.514,5.8,5.8,0,0,1-1.543-3.232c-.367-1.469-1.028-3.379-2.644-3.82a2.1,2.1,0,0,0-2.718,1.836.3.3,0,0,0,.588-.073Z" transform="translate(-536.7 -210.086)" fill="#8798fb"/></g><g transform="translate(0 68.166)"><path d="M547.181,232.714c-3.746.147-1.983,6.611-5.656,7.419-1.689.367-3.305-.955-4.995-.808a5.541,5.541,0,0,0-2.13.661c.073-.22.073-.441.147-.661a2.632,2.632,0,0,1,.808-.294,5.647,5.647,0,0,1,2.2-.22,18.654,18.654,0,0,1,2.718.735c2.938.661,3.232-2.791,3.893-4.7a3.348,3.348,0,0,1,3.012-2.644A.258.258,0,1,1,547.181,232.714Z" transform="translate(-534.4 -232.2)" fill="#8798fb"/></g><g transform="translate(10.354 28.788)"><path d="M555.33,180.508a4.258,4.258,0,0,0-4.187-1.836A3.351,3.351,0,0,0,548.5,182.2c.147,3.6,2.938,6.9,6.023,8.374.294.147.588-.294.294-.441a10.336,10.336,0,0,1-5.362-6.023c-.514-1.469-.735-3.452.808-4.481,1.616-1.028,3.526-.147,4.554,1.175.22.22.735-.073.514-.294Z" transform="translate(-548.495 -178.592)" fill="#8798fb"/></g><g transform="translate(8.227)"><path d="M554.488,145.864a4.678,4.678,0,0,0-.955,3.232c.22,1.836.661,3.452.294,5.289a10.855,10.855,0,0,1-2.057,4.7,4.39,4.39,0,0,1-3.452,1.91,2.668,2.668,0,0,1-2.5-2.351c-.588-3.673,3.452-6.611,2.424-10.357-.441-1.689-2.2-2.5-2.644-4.187a3.2,3.2,0,0,1,.514-.441,4.446,4.446,0,0,0,.588,1.543c.955,1.322,2.057,2.057,2.2,3.746.294,3.232-2.424,5.656-2.571,8.815a2.869,2.869,0,0,0,.735,2.277,2.443,2.443,0,0,0,2.718.147,7.257,7.257,0,0,0,3.012-3.893,10.249,10.249,0,0,0,.588-4.921c-.147-1.4-.735-2.865-.22-4.187.22-.588.661-1.1.955-1.689.661-1.028.22-1.983-.294-2.938s-1.028-1.91-1.543-2.938c.147-.073.367-.147.514-.22.294.588.588,1.1.881,1.689A13.834,13.834,0,0,1,555,143.881,3.105,3.105,0,0,1,554.488,145.864Z" transform="translate(-545.6 -139.4)" fill="#8798fb"/></g></g><g transform="translate(7.246 63.977)"><path d="M537.7,221.295a23.307,23.307,0,0,1-5.142,10.945c-1.175-.808-6.1-4.554-6.758-5.876l7.86-6.391C534.688,219.679,535.349,220.266,537.7,221.295Z" transform="translate(-525.8 -219.897)" fill="#e69482"/></g><g transform="translate(12.417 54.454)"><path d="M539.642,217.413c-2.057-3.452-4.04-6.9-6.023-10.284a.429.429,0,0,0-.734.441c2.057,3.452,4.04,6.9,6.023,10.284.294.441,1.028,0,.734-.441Z" transform="translate(-532.84 -206.932)" fill="#20276c"/></g><g transform="translate(14.587 25.269)"><path d="M538.59,167.641c-.514,10.8-1.91,21.6-2.791,32.394-.073.514.808.514.808,0,.881-10.8,2.2-21.6,2.791-32.394.073-.588-.808-.588-.808,0Z" transform="translate(-535.794 -167.2)" fill="#20276c"/></g><g transform="translate(14.145 65.081)"><path d="M542.543,222.722a25.568,25.568,0,0,1-7.272,11.606,6.382,6.382,0,0,1,.881-4.334,20.877,20.877,0,0,0,4.113-8.594Z" transform="translate(-535.192 -221.4)" fill="#20276c"/></g><g transform="translate(12.902 82.931)"><path d="M547.677,245.994a.27.27,0,0,1-.073.22c-.073.22-.073.367-.147.588-4.848.147-10.431-.073-13.956-.294.073-.22.073-.514.147-.808C537.32,245.92,542.9,246.141,547.677,245.994Z" transform="translate(-533.5 -245.7)" fill="#20276c"/></g><g transform="translate(11.506 86.09)"><path d="M546.658,250c-.514,2.938-.661,5.142-.661,5.142-6.684,1.028-13,.514-14.4-.147,0,0,.441-1.983,1.028-4.921C536.3,250.294,542.471,250.588,546.658,250Z" transform="translate(-531.6 -250)" fill="#2fa8b4"/></g><g transform="translate(24.141 12.561)"><path d="M548.8,220.931h.588c3.159-11.532,5.95-34.744,6.023-42.971.073-8.815,3.012-25.562,3.379-27.693a.322.322,0,0,1,.073-.22l-.294-.073-.294-.073c0,.22-3.379,18.658-3.452,28.06C554.75,186.187,551.885,209.546,548.8,220.931Z" transform="translate(-548.8 -149.9)" fill="#20276c"/></g><g transform="translate(17.944 29.951)"><rect width="10.945" height="1.763" transform="matrix(-1, -0.004, 0.004, -1, 10.945, 1.808)" fill="#20276c"/></g><g transform="translate(33.102 1.175)"><path d="M600.666,164.737v4.187c0,1.763,0,3.526-.073,5.215-.073,1.469-.147,2.938-.22,4.334-.147,2.424-.294,5.215-.367,8.154-.073,2.277-.073,4.554-.147,6.758v.661c-.073,3.305-.147,6.317-.22,8.668a30.375,30.375,0,0,1-.294,3.526c-.367,2.057-1.1,7.639-1.689,12.414,0,.294-.073.514-.073.808-.073.588-.147,1.175-.22,1.689-.367,2.938-.661,5.068-.661,5.068L561,224.162s.294-2.057.808-5.362c.073-.588.22-1.249.294-1.983.073-.294.073-.514.147-.808,1.91-12.781,5.289-36.948,4.922-43.486-.514-9.035,1.983-23.212,1.983-23.212l3.085-3.967.367-.441,8.227-10.5s1.469.661,3.379,1.4a2.61,2.61,0,0,1,.661.294,35.69,35.69,0,0,0,6.17,1.91,3.79,3.79,0,0,1,.808.147c.367.073.661.147,1.028.22a16.189,16.189,0,0,1,3.967,1.469h0a6.043,6.043,0,0,1,2.791,2.791c.955,2.057.881,8.741,1.1,19.613h0a16.61,16.61,0,0,0,.073,1.91C600.666,164.149,600.666,164.37,600.666,164.737Z" transform="translate(-561 -134.4)" fill="#60c8d2"/></g><g transform="translate(40.127 2.497)"><g transform="translate(0.443 34.908)"><path d="M572.587,185.028a4.149,4.149,0,0,1,6.538,2.865c.367,3.012-2.571,4.113-3.673,6.538a5.668,5.668,0,0,0-.367,3.305,15.115,15.115,0,0,0,1.543,3.526,3.4,3.4,0,0,1-.955,4.26,3.155,3.155,0,0,1-4.04-.514c-.22-.22-.661.147-.367.367a3.662,3.662,0,0,0,5.289.073,3.753,3.753,0,0,0,1.028-2.865,9.2,9.2,0,0,0-1.322-3.305,5.381,5.381,0,0,1-.22-4.628c.588-1.322,1.836-2.13,2.718-3.305a4.686,4.686,0,0,0-6.391-6.758c-.367.147-.073.661.22.441Z" transform="translate(-571.167 -183.723)" fill="#8798fb"/></g><g transform="translate(13.118 35.035)"><path d="M603.538,186.984a8.191,8.191,0,0,0-7.933-2.938c-2.644.514-5.583,3.159-3.82,5.95.955,1.543,2.791,2.865.881,4.554-1.249,1.1-2.938,1.4-3.746,2.938-1.469,2.718.514,5.8,3.305,6.464a6.186,6.186,0,0,0,4.922-1.175,21.381,21.381,0,0,1,2.424-1.91,2.384,2.384,0,0,1,3.159.441c.22.294.661,0,.441-.294a2.5,2.5,0,0,0-2.571-1.028,7.047,7.047,0,0,0-3.232,1.983,5.728,5.728,0,0,1-5.215,1.469,4.217,4.217,0,0,1-3.159-3.893c0-2.057,1.543-2.865,3.159-3.82.955-.588,1.983-1.469,1.983-2.644s-1.028-2.057-1.616-2.938c-1.249-1.689-.441-3.673,1.249-4.7,3.085-1.91,7.272-.735,9.4,1.983.22.22.588-.147.367-.441Z" transform="translate(-588.422 -183.896)" fill="#8798fb"/></g><g transform="translate(9.016)"><path d="M598.6,138.7a9.364,9.364,0,0,0-3.012,1.689h0a13.215,13.215,0,0,0-2.5,2.865c-.955,1.469-1.543,3.673-2.718,5.142a4.744,4.744,0,0,1-1.616,1.322,4.325,4.325,0,0,1-5.509-2.5c-1.1-2.644.147-5.583,2.057-7.492a20.61,20.61,0,0,1,4.775-3.526,2.61,2.61,0,0,1,.661.294,16.453,16.453,0,0,0-5.95,4.7c-1.616,2.277-2.13,6.17.735,7.786a3.324,3.324,0,0,0,4.04-.441,4.36,4.36,0,0,0,.955-1.322h0a15.433,15.433,0,0,0,.955-1.91,15.212,15.212,0,0,1,2.424-3.82,11.577,11.577,0,0,1,3.82-3.012A5,5,0,0,0,598.6,138.7Z" transform="translate(-582.839 -136.2)" fill="#8798fb"/></g><g transform="translate(0 65.506)"><path d="M571.913,240.82a7.382,7.382,0,0,1-.881-3.526c0-1.1.294-2.865,1.322-3.526,1.469-.955,3.232,1.249,4.848.514,1.322-.588,1.469-2.351,1.175-3.6a17.246,17.246,0,0,1-1.028-3.305c-.073-.808.367-1.689,1.322-1.469a3.506,3.506,0,0,1,1.616,1.322c.22.294.588-.147.367-.367-.588-.735-1.4-1.616-2.5-1.469a1.585,1.585,0,0,0-1.4,1.543c-.147,1.322.661,2.5,1.028,3.673s.294,3.379-1.4,3.305c-1.1,0-1.983-.808-3.012-.881a2.134,2.134,0,0,0-2.057,1.175,7.629,7.629,0,0,0,.147,6.9c.147.367.588.073.441-.294Z" transform="translate(-570.564 -225.378)" fill="#8798fb"/></g><g transform="translate(16.711 72.479)"><path d="M593.965,243.927a2.74,2.74,0,0,1,2.277-3.526c1.028-.073,2.13.441,3.159-.147a3.316,3.316,0,0,0,1.322-1.983,11.35,11.35,0,0,1,.514-1.689c.294-.735,1.249-1.689,2.13-.955.294.22.661-.147.367-.367a1.8,1.8,0,0,0-2.571.367c-1.028,1.175-.588,3.526-2.13,4.26-.881.367-1.836,0-2.791.073a3.081,3.081,0,0,0-1.616.588,3.244,3.244,0,0,0-1.175,3.6c.073.294.588.147.514-.22Z" transform="translate(-593.314 -234.87)" fill="#8798fb"/></g><g transform="translate(4.877 18.83)"><path d="M585.869,161.883a11,11,0,0,0-7.566,1.91c-1.542,1.175-1.542,3.379.514,3.967,2.277.661,5.142-.367,6.978-1.689.808-.588,1.616-1.322,1.469-2.424a2.05,2.05,0,0,0-1.4-1.763c-.294-.147-.367.441-.073.514a1.592,1.592,0,0,1,.367,2.644,7,7,0,0,1-2.2,1.4c-1.469.661-3.893,1.4-5.436.514a1.519,1.519,0,0,1-.073-2.644,7.059,7.059,0,0,1,2.424-1.322,13.036,13.036,0,0,1,5.068-.661c.22.147.22-.441-.073-.441Z" transform="translate(-577.203 -161.834)" fill="#8798fb"/></g></g><g transform="translate(65.276 34.818)"><path d="M605.241,230.517h-.147A.492.492,0,0,1,604.8,230c3.746-12.487,2.424-48.995,2.351-49.362a.466.466,0,0,1,.367-.441h0a.465.465,0,0,1,.441.367c0,.367,1.322,37.021-2.424,49.656A.269.269,0,0,1,605.241,230.517Z" transform="translate(-604.8 -180.2)" fill="#20276c"/></g><g transform="translate(34.204 82.773)"><path d="M597.979,247.993c0,.294-.073.514-.073.808a277.242,277.242,0,0,0-35.405-2.5c.073-.294.073-.514.147-.808A249.189,249.189,0,0,1,597.979,247.993Z" transform="translate(-562.5 -245.484)" fill="#20276c"/></g><g transform="translate(33.102 85.499)"><path d="M597.287,251.476c-.367,2.938-.588,5.142-.588,5.142L561,254.561s.294-2.057.808-5.362A335.036,335.036,0,0,1,597.287,251.476Z" transform="translate(-561 -249.196)" fill="#2fa8b4"/></g><g transform="translate(36.775 11.532)"><path d="M566,219.9h.588c2.938-12.12,4.7-33.349,4.7-43.779,0-11.973,2.865-27.325,2.865-27.472l-.294-.073-.294-.073a1.794,1.794,0,0,0-.073.514c-.514,2.791-2.791,16.234-2.791,27.105C570.775,186.55,569.012,207.852,566,219.9Z" transform="translate(-566 -148.5)" fill="#20276c"/></g><g transform="translate(45.276 30.089)"><rect width="10.945" height="1.763" transform="translate(10.945 1.808) rotate(-179.763)" fill="#20276c"/></g><g transform="translate(48.968 5.81)"><g transform="translate(7.632)"><path d="M630.827,181.544a9.3,9.3,0,0,0-.294-1.91,5.118,5.118,0,0,0-.441-1.4,1.044,1.044,0,0,1-.147-.441,4.487,4.487,0,0,1-.367-.881l-.294-.514-1.1-2.057-1.1-1.983a5.476,5.476,0,0,0-.514-.881,1.537,1.537,0,0,0-.294-.441c-.147-.22-.22-.441-.367-.661-.367-.661-.734-1.322-1.1-1.91l-1.1-1.91q-2.314-3.856-4.628-7.492l-2.351-3.673-2.424-3.673c-.441-.735-.955-1.4-1.469-2.13-.073-.147-.22-.294-.294-.441a8.908,8.908,0,0,0-.734-1.028l-1.249-1.836c-.441-.588-.808-1.175-1.249-1.836a9.575,9.575,0,0,0-4.113-3.159h0a9.206,9.206,0,0,0-6.978.22h0c-.441.22-.808.441-1.249.661a4.08,4.08,0,0,0-.588.441,8.9,8.9,0,0,0-3.305,5.656h0a6.321,6.321,0,0,0-.073,1.175,9.1,9.1,0,0,0,1.469,5.215h0c.367.588.808,1.175,1.175,1.763l1.249,1.763,2.424,3.6,2.13,3.085.367.514.073.147h0l2.424,3.452,4.7,6.684.22.367,1.175,1.616.294.441.955,1.4c.367.588.808,1.175,1.175,1.763l1.1,1.616c-.294.367-.734.808-1.1,1.249l-.514.514-.514.514c-.514.514-1.1,1.028-1.69,1.543l-1.763,1.543c-.588.514-1.175.955-1.836,1.469h0c-.22.147-.441.367-.661.514-.661.514-1.4,1.028-2.057,1.543-1.1.808-2.277,1.616-3.379,2.424-.588.367-1.175.808-1.689,1.175l-1.689,1.175-.22.147a5.94,5.94,0,0,0-2.13,7.052,5.809,5.809,0,0,0,7.566,3.159l.588-.22.514-.22,1.028-.441a17.573,17.573,0,0,0,2.057-.955c.441-.22.955-.441,1.4-.661.881-.441,1.836-.881,2.718-1.322a.256.256,0,0,0,.147-.073,1.842,1.842,0,0,0,.514-.294c1.1-.588,2.277-1.175,3.379-1.836,1.4-.808,2.718-1.616,4.04-2.5a46.675,46.675,0,0,0,4.04-2.938l1.543-1.322a1.948,1.948,0,0,1,.441-.367h0a20.136,20.136,0,0,0,2.057-2.2,19.083,19.083,0,0,0,1.616-2.2,4.947,4.947,0,0,1,.514-.808,11.551,11.551,0,0,0,.955-2.13l.22-.661a2.144,2.144,0,0,0,.147-.661,11.409,11.409,0,0,0,.294-1.543A4.238,4.238,0,0,0,630.827,181.544Z" transform="translate(-592.991 -140.709)" fill="#96d5dd"/></g><g transform="translate(16.087 8.441)"><g transform="translate(7.675)"><path d="M632.469,174.677c-2.5,1.763-5.436,3.746-8.154,1.616-2.571-2.057-.294-5.142-.147-7.639.147-2.057-1.543-2.865-3.232-3.452a9.616,9.616,0,0,1-3.673-1.836,7.186,7.186,0,0,1-1.836-7.786,7.1,7.1,0,0,1,3.012-3.379c.073.147.22.294.294.441a6.2,6.2,0,0,0-3.232,5.142,6.789,6.789,0,0,0,4.848,6.611c2.057.661,4.407,1.469,4.334,4.04-.073,2.424-2.644,6.023.441,7.639,2.5,1.322,4.922-.367,7.125-1.91A.793.793,0,0,0,632.469,174.677Z" transform="translate(-614.949 -152.2)" fill="#8798fb"/></g><g transform="translate(0 13.225)"><path d="M613.829,185.92l-.294-.441a3.259,3.259,0,0,0,.808-5.8,20.2,20.2,0,0,1-2.057-1.4,2.99,2.99,0,0,1-.955-1.616c-.294-1.689,1.836-4.334-.22-5.509a5.1,5.1,0,0,0-3.305-.22,3.059,3.059,0,0,0-2.718,2.351h0v.073c-.073.367-.588.367-.588,0a2.144,2.144,0,0,1,.147-.661c.661-2.13,3.452-2.718,5.509-2.424a2.981,2.981,0,0,1,2.13,1.175h0c.073.073.073.147.147.294a3.911,3.911,0,0,1-.073,2.424c-.073.22-.147.514-.22.735a2.863,2.863,0,0,0,0,2.2c.073.147.147.22.22.367a5.476,5.476,0,0,0,1.249,1.028,6.6,6.6,0,0,1,2.424,2.057A3.99,3.99,0,0,1,613.829,185.92Z" transform="translate(-604.5 -170.204)" fill="#8798fb"/></g><g transform="translate(9.291 40.672)"><path d="M631.363,211.265a1.947,1.947,0,0,1-.441.367,14.706,14.706,0,0,0-1.983-2.277,3.289,3.289,0,0,0-2.2-1.175c-1.175,0-1.4.955-1.469,1.91a3.5,3.5,0,0,1-.514,2.424,4.163,4.163,0,0,1-2.571,1.322,5.234,5.234,0,0,0-3.526,1.983,5.337,5.337,0,0,0-.808,4.407,1.842,1.842,0,0,0-.514.294,6.1,6.1,0,0,1,.735-4.775,5.373,5.373,0,0,1,2.644-2.13c1.689-.588,3.967-.514,4.114-2.791.073-1.1-.147-2.351.955-3.012a2.728,2.728,0,0,1,2.938.514A16.792,16.792,0,0,1,631.363,211.265Z" transform="translate(-617.148 -207.57)" fill="#8798fb"/></g><g transform="translate(4.188 35.332)"><path d="M616.15,206.25a17.237,17.237,0,0,1-1.616,3.305,5.076,5.076,0,0,1-1.689,1.836,1.061,1.061,0,0,1-.514.147c-2.277.514-2.424-2.424-1.836-5.656.22-.147.441-.367.661-.514a26.4,26.4,0,0,0-.367,3.379,3.247,3.247,0,0,0,.147,1.469,1.239,1.239,0,0,0,1.91.441c.073-.073.147-.073.22-.147A12.185,12.185,0,0,0,616,205a16.337,16.337,0,0,0,.514-4.187l.514-.514A14.656,14.656,0,0,1,616.15,206.25Z" transform="translate(-610.201 -200.3)" fill="#8798fb"/></g></g><g transform="translate(13.509 53.976)"><path d="M606.947,225.289a.465.465,0,0,1-.441-.367c-.441-6.023-5.289-9.916-5.362-9.99a.419.419,0,0,1,.514-.661,15.684,15.684,0,0,1,5.656,10.5.489.489,0,0,1-.367.514Z" transform="translate(-600.991 -214.191)" fill="#20276c"/></g><g transform="translate(11.012 55.937)"><path d="M598.038,220.122a.561.561,0,0,1-.367-.147.355.355,0,0,1,.073-.514,47.606,47.606,0,0,1,4.407-2.571.378.378,0,1,1,.367.661,42.31,42.31,0,0,0-4.334,2.5C598.185,220.122,598.112,220.122,598.038,220.122Z" transform="translate(-597.591 -216.861)" fill="#20276c"/></g><g transform="translate(15.866 61.831)"><path d="M605.6,225.557a.7.7,0,1,1-.734-.661C605.228,224.822,605.522,225.116,605.6,225.557Z" transform="translate(-604.2 -224.885)" fill="#20276c"/></g><g transform="translate(42.464 37.602)"><path d="M643.414,195.132v1.763q-.11.881-.22,1.543a2.172,2.172,0,0,0-.147.735l-.22.661a11.554,11.554,0,0,1-.955,2.13,3.034,3.034,0,0,1-.514.808c-.955-2.644-2.057-7.786,1.469-10.871.147.441.294.881.441,1.4C643.267,193.883,643.414,194.544,643.414,195.132Z" transform="translate(-640.409 -191.9)" fill="#20276c"/></g><g transform="translate(28.677 40.31)"><path d="M622.051,197.726a.4.4,0,0,1-.367-.22c-.073-.147-.073-.441.147-.514a10.972,10.972,0,0,1,4.995-1.4.406.406,0,0,1-.073.808c-1.983-.147-4.481,1.249-4.554,1.249S622.125,197.726,622.051,197.726Z" transform="translate(-621.64 -195.586)" fill="#20276c"/></g><g transform="translate(29.804 39.402)"><path d="M623.561,196.811h0a.338.338,0,0,1-.367-.441,4.506,4.506,0,0,1,1.249-1.91.364.364,0,0,1,.514.514,3.005,3.005,0,0,0-1.028,1.469A.347.347,0,0,1,623.561,196.811Z" transform="translate(-623.174 -194.35)" fill="#20276c"/></g><g transform="translate(11.165 17.549)"><path d="M609.7,181.348,597.8,164.6v1.322l11.312,15.94a.557.557,0,0,0,.294.147.27.27,0,0,0,.22-.073A.589.589,0,0,0,609.7,181.348Z" transform="translate(-597.8 -164.6)" fill="#20276c"/></g><g transform="translate(1.836 57.532)"><path d="M593.694,219.229l5.656,9.329c-1.469,3.012-4.26,4.7-7.492,5.876,0,0-6.464-5.95-6.538-10.431l1.91-1.249-1.983-.22-.147-2.351C585.026,220.037,591.05,218.494,593.694,219.229Z" transform="translate(-585.099 -219.031)" fill="#e69482"/></g><g transform="translate(0 57.95)"><path d="M585.1,219.6s-.22,9.476,7.052,14.985l-2.351,1.322s-6.17-4.775-7.2-15.573Z" transform="translate(-582.6 -219.6)" fill="#20276c"/></g></g></g><g transform="translate(21.713)"><path d="M568.711,87.544c6.464,3.746,3.893,9.4,3.893,9.4l-8.007,1.4-14.544,2.571s-3.6-2.938-.294-5.876c0,0-4.407-.955-4.26-3.82s3.526-1.249,3.526-1.249-2.277-1.836-.808-3.159c1.469-1.249,4.628,1.836,4.628,1.836S562.834,84.165,568.711,87.544Z" transform="translate(-545.495 -86.283)" fill="#1e1d12"/><g transform="translate(11.83 22.122)"><path d="M576.511,127.418c-.514,2.277-3.893,5.068-5.8,5.73a10.628,10.628,0,0,1-8.521-.588l-.367-4.554-.073-.955-.147-1.763,10.357-8.154.588-.441.367-.294.147.367.22.441-.073.22C574.455,121.762,574.675,124.407,576.511,127.418Z" transform="translate(-561.6 -116.4)" fill="#e69482"/></g><g transform="translate(11.977 29.615)"><path d="M562.094,133.872a12.042,12.042,0,0,0,7.346-7.272c-2.057,1.91-4.554,3.305-6.9,3.305a2.5,2.5,0,0,1-.735-.073Z" transform="translate(-561.8 -126.6)" fill="#1e1d12"/></g><g transform="translate(4.187 18.303)"><path d="M552.668,111.2a1.982,1.982,0,0,0-1.469,1.983c-.073,1.763,1.028,4.481,2.718,3.967S552.668,111.2,552.668,111.2Z" transform="translate(-551.195 -111.2)" fill="#a8494a"/></g><g transform="translate(4.458 2.375)"><path d="M570.909,110.733h0a1.044,1.044,0,0,0-.147.441.27.27,0,0,1-.073.22,3.579,3.579,0,0,1-.294.808c-1.616,4.26-6.611,8.815-11.092,8.594-.294,0-.514-.073-.735-.073-4.26-.661-5.729-5.436-5.509-9.108v-.441a4.536,4.536,0,0,0-.073-.661c-.073-.367-.073-.808-.147-1.4-.22-1.689-.588-4.113-1.1-6.464C550.856,98.466,553.206,92,561.8,89.945c6.831-1.689,10.5,1.91,11.753,5.656a13.06,13.06,0,0,1,.514,2.865,14.3,14.3,0,0,1-.514,3.746,2.344,2.344,0,0,1,2.277,1.836C576.932,106.619,573.921,110.219,570.909,110.733Z" transform="translate(-551.564 -89.516)" fill="#e69482"/></g><g transform="translate(18.759 8.455)" opacity="0.5"><path d="M578.795,104.409a6.659,6.659,0,0,1-2.5,1.249l-1.689,2.277-2.057-1.175s.808-2.644-.588-3.379a2.129,2.129,0,0,1-.808-2.5s5.436-3.232,7.639-3.085a13.056,13.056,0,0,1,.514,2.865A24.043,24.043,0,0,1,578.795,104.409Z" transform="translate(-571.033 -97.793)" fill="#a8494a"/></g><g transform="translate(4.411 0.972)"><path d="M551.5,97.3s5.8-4.481,9.4-3.159a9.41,9.41,0,0,1,4.995,4.113s6.758.881,8.227-.955c1.469-1.763-.955-8.447-6.17-9.476C562.812,86.867,555.32,88.924,551.5,97.3Z" transform="translate(-551.5 -87.607)" fill="#1e1d12"/></g><g transform="translate(6.339 18.171)"><g transform="translate(1.505 0.197)"><path d="M556.193,112.472c.147.588.441,1.028.735.955s.441-.588.367-1.175c-.147-.588-.441-1.028-.734-.955C556.267,111.3,556.12,111.885,556.193,112.472Z" transform="translate(-556.174 -111.289)" fill="#1e1d12"/></g><path d="M556.971,111.667h0c.147-.147.073-.22,0-.294a2.647,2.647,0,0,0-2.791.147.156.156,0,0,0,.22.22,2.326,2.326,0,0,1,2.424-.147A.228.228,0,0,0,556.971,111.667Z" transform="translate(-554.125 -111.021)" fill="#1e1d12"/></g><g transform="translate(14.103 20.534)" opacity="0.5"><path d="M564.7,115.312c.073.367,1.1.588,2.351.441s2.2-.661,2.13-1.028-1.1-.588-2.351-.441S564.625,114.871,564.7,115.312Z" transform="translate(-564.695 -114.237)" fill="#a8494a"/></g><g transform="translate(5.807 21.976)" opacity="0.5"><path d="M553.547,117.6c.881-.22,1.4-.588,1.4-.881-.073-.294-.661-.514-1.543-.514C553.473,116.788,553.547,117.3,553.547,117.6Z" transform="translate(-553.4 -116.2)" fill="#a8494a"/></g><g transform="translate(21.416 22.882)"><path d="M574.76,117.923a1.866,1.866,0,0,0,.735.588,3.094,3.094,0,0,0,1.322.294.27.27,0,0,1,.073-.22.932.932,0,0,0,.073-.441h-.294a1.826,1.826,0,0,1-.588-.073,1.848,1.848,0,0,1-.881-.514.346.346,0,0,0-.441-.073C574.613,117.556,574.613,117.776,574.76,117.923Z" transform="translate(-574.65 -117.434)" fill="#a8494a"/></g><g transform="translate(6.005 17.421)"><path d="M559.2,126.16a2.5,2.5,0,0,0,.734.073c4.407.22,9.476-4.334,11.092-8.594a1.413,1.413,0,0,0-1.1-1.1v-5.362L567.869,110s-1.175,4.848-2.791,5.289c-1.616.367-5.436.147-6.978,1.249,0,0-2.791-.661-4.407.514C553.472,120.724,554.867,125.5,559.2,126.16Z" transform="translate(-553.67 -110)" fill="#1e1d12"/></g><g transform="translate(8.598 23.959)"><path d="M562.195,118.9s.294,2.865-2.057,3.379a2.423,2.423,0,0,1-2.938-1.763Z" transform="translate(-557.2 -118.9)" fill="#fff"/></g><g transform="translate(11.389 27.454)"><path d="M561.808,124.5a1.319,1.319,0,0,0,.661-.514c.073-.073,0-.22-.073-.294s-.22,0-.294.073a.941.941,0,0,1-.881.367.22.22,0,0,0,0,.441A1.826,1.826,0,0,0,561.808,124.5Z" transform="translate(-561 -123.659)" fill="#605e4b"/></g><g transform="translate(23.877 16.731)"><path d="M578.367,113.644c.147-.073.22-.147.22-.294.073-2.277,2.571-3.673,2.644-3.673a.329.329,0,0,0-.294-.588c-.147.073-2.865,1.543-2.938,4.26a.488.488,0,0,0,.294.367A.072.072,0,0,1,578.367,113.644Z" transform="translate(-578 -109.061)" fill="#a8494a"/></g><g transform="translate(24.665 18.412)"><path d="M581.223,112.562c.073,0,.073,0,.073-.073a.346.346,0,0,0,.073-.441,2.172,2.172,0,0,0-2.057-.661.3.3,0,0,0,.147.588,1.656,1.656,0,0,1,1.469.441C581,112.562,581.15,112.635,581.223,112.562Z" transform="translate(-579.073 -111.348)" fill="#a8494a"/></g><g transform="translate(7.202 16.447)"><path d="M558.238,115.524a.158.158,0,0,0,.147-.147.353.353,0,0,0-.147-.441l-1.91-1.028,1.469-.661c.073-.073.147-.147.147-.22l1.175-3.967a.3.3,0,0,0-.588-.147l-1.1,3.82-1.91.881c-.147.073-.22.147-.22.294a.382.382,0,0,0,.147.294l2.424,1.4A.8.8,0,0,1,558.238,115.524Z" transform="translate(-555.3 -108.673)" fill="#a8494a"/></g><g transform="translate(10.715 13.26)"><path d="M564.723,107.027a1.6,1.6,0,0,0,.367-.22.845.845,0,0,0,0-1.249,4.2,4.2,0,0,0-4.481-.881.888.888,0,0,0,.735,1.616,2.375,2.375,0,0,1,2.424.514A1.169,1.169,0,0,0,564.723,107.027Z" transform="translate(-560.082 -104.335)" fill="#1e1d12"/></g><g transform="translate(5.1 13.969)"><path d="M553.512,108.459a1.307,1.307,0,0,0,.588-.514c.294-.735,1.469-.881,1.836-.881a.881.881,0,1,0,0-1.763,3.619,3.619,0,0,0-3.452,2.057.993.993,0,0,0,.514,1.175A1.655,1.655,0,0,0,553.512,108.459Z" transform="translate(-552.438 -105.3)" fill="#1e1d12"/></g><g transform="translate(12.05 17.197)"><g transform="translate(1.055 0.216)"><path d="M563.383,111.172c.147.588.441,1.028.735.955s.441-.588.367-1.175c-.147-.588-.441-1.028-.735-.955S563.236,110.585,563.383,111.172Z" transform="translate(-563.336 -109.989)" fill="#1e1d12"/></g><path d="M564.691,110.507a.072.072,0,0,0,.073-.073c.073-.073,0-.147,0-.22a2.523,2.523,0,0,0-2.791-.147.164.164,0,0,0,.147.294,2.38,2.38,0,0,1,2.424.147C564.618,110.58,564.691,110.58,564.691,110.507Z" transform="translate(-561.9 -109.695)" fill="#1e1d12"/></g><g transform="translate(19.027 32.039)"><path d="M571.84,148.043a37.789,37.789,0,0,1-.367-7.566,24.076,24.076,0,0,1,.955-5.436s4.481-1.983,6.023-5.142c0,0,5.289,1.4,5.509,3.673C583.96,133.573,577.79,145.693,571.84,148.043Z" transform="translate(-571.398 -129.9)" fill="#96d5dd"/></g><g transform="translate(9.258 34.387)"><path d="M560.891,133.1s-2.791-.22-2.791,3.893c-.073,8.154,5.068,10.578,5.068,10.578l1.175-4.187a25.6,25.6,0,0,0,.735-6.391S560.964,136.4,560.891,133.1Z" transform="translate(-558.099 -133.097)" fill="#96d5dd"/></g></g></g><g transform="translate(59.133 40.487)"><g transform="translate(0 67.358)"><path d="M643.348,263.584c-.588,21.522-19.833,28.427-34.6,19.319-16.968-10.431-11.459-44.22-11.459-44.22l2.13-.294.588-.073,36.36-4.922.588-.073,1.4-.22A78.47,78.47,0,0,1,643.348,263.584Z" transform="translate(-596.438 -233.1)" fill="#8bb73f"/><g transform="translate(13.425 15.289)"><path d="M625.135,253.977a11.592,11.592,0,1,0,12.708,10.357A11.605,11.605,0,0,0,625.135,253.977Zm-2.2,1.469a23.217,23.217,0,0,0-1.322,1.983,15.34,15.34,0,0,0-1.249,3.012l-3.526.367A10.443,10.443,0,0,1,622.931,255.446Zm-6.538,6.317,3.746-.367a12.827,12.827,0,0,0-.294,4.114l-4.114.441A10.038,10.038,0,0,1,616.393,261.764Zm-.588,5.068,4.113-.441a14.337,14.337,0,0,0,1.028,3.967l-3.82.367A9.1,9.1,0,0,1,615.806,266.832Zm1.836,4.848,3.6-.367a13.014,13.014,0,0,0,2.351,3.452c.514.514,1.028.955,1.543,1.4A10.9,10.9,0,0,1,617.642,271.68Zm9.329,4.407a10.805,10.805,0,0,1-4.7-4.922l4.187-.441Zm-.661-6.244-4.481.441a13.693,13.693,0,0,1-1.028-3.967l5.142-.514Zm-.514-4.995-5.068.514a15.334,15.334,0,0,1,.367-4.114l4.334-.441Zm-.514-4.995-3.893.441c.294-.808.661-1.616,1.028-2.424a13.751,13.751,0,0,1,2.057-2.865.442.442,0,0,0,.294-.073Zm11.606,3.82-3.967.441a14.558,14.558,0,0,0-1.175-3.967l3.6-.367A12,12,0,0,1,636.887,263.673Zm-2.2-4.775-3.452.367a13.1,13.1,0,0,0-1.836-2.644,16.754,16.754,0,0,0-1.616-1.616A10.346,10.346,0,0,1,634.684,258.9Zm-8.962-4.04h.441a13.777,13.777,0,0,1,4.114,4.481l-4.04.441Zm.588,5.876,4.407-.441a14.686,14.686,0,0,1,1.249,3.967l-5.215.514Zm.514,4.922,5.215-.514a12.825,12.825,0,0,1-.22,4.114l-4.628.441Zm1.1,10.431-.588-5.436,4.26-.441a11.632,11.632,0,0,1-1.4,3.232A11.868,11.868,0,0,1,627.926,276.087Zm1.836-.514a13.517,13.517,0,0,0,1.249-1.616,14.057,14.057,0,0,0,1.616-3.893l3.526-.367A10.519,10.519,0,0,1,629.762,275.573Zm3.085-6.464a15.234,15.234,0,0,0,.147-4.114l3.967-.441a11.087,11.087,0,0,1-.441,4.114Z" transform="translate(-614.714 -253.914)" fill="#fff"/></g><g transform="translate(2.483 0.22)"><path d="M641.307,259.4c-.147,7.052-1.836,15.058-7.492,19.833-5.289,4.481-13,4.775-19.172,2.13-7.052-3.085-11.165-10.137-13.148-17.262-2.277-8.374-1.763-17.115-1.175-25.636l.588-.073c-.661,9.108-1.249,18.511,1.616,27.325,2.351,7.125,6.978,13.663,14.4,15.94,6.538,2.057,14.1.661,18.511-4.848,4.848-6.023,5.509-14.177,5.215-21.6a103.877,103.877,0,0,0-3.379-21.743l.588-.073A91.689,91.689,0,0,1,641.307,259.4Z" transform="translate(-599.817 -233.4)" fill="#6a6440"/></g><g transform="translate(30.484 3.259)"><path d="M637.983,238.905a1.773,1.773,0,1,0,2.13-1.322A1.772,1.772,0,0,0,637.983,238.905Z" transform="translate(-637.937 -237.537)" fill="#6a6440"/></g><g transform="translate(11.606 5.977)"><path d="M612.283,242.605a1.773,1.773,0,1,0,2.13-1.322A1.772,1.772,0,0,0,612.283,242.605Z" transform="translate(-612.237 -241.237)" fill="#6a6440"/></g></g><g transform="translate(0.082)"><g transform="translate(9.88 63.612)"><path d="M613.967,239.312c-1.028-3.82-1.983-7.492-2.938-11.312-.367.147-.661.514-1.028.588.955,3.82,1.91,7.2,2.938,11.018C613.085,240.34,614.113,240.047,613.967,239.312Z" transform="translate(-610 -228)" fill="#1e1d12"/></g><path d="M617.3,151.9c-1.763-4.04-4.407-8.154-8.594-9.916-4.04-1.689-8.374.441-10.431,4.187-2.571,4.628-1.69,10.357-1.028,15.352q1.212,8.594,2.865,17.189c.955,4.922,2.057,9.843,3.232,14.765.294-.294.661-.514.955-.808-.661-2.791-1.322-5.656-1.91-8.447-1.175-5.362-2.2-10.724-3.085-16.16-.441-2.865-.881-5.73-1.249-8.668a33.679,33.679,0,0,1-.22-8.154c.514-4.187,3.306-9.035,8.227-8.741,4.554.294,7.786,4.922,9.623,8.594a41.981,41.981,0,0,1,2.2,4.921c.073,0-.367-.808,0,0,.661,1.4,1.91,2.865,2.571,4.04A52.048,52.048,0,0,0,617.3,151.9Z" transform="translate(-596.549 -141.401)" fill="#1e1d12"/><g transform="translate(29.126 51.344)"><path d="M639.946,233.337c-.808-7.346-1.689-14.691-2.791-22.037a14.127,14.127,0,0,1-.955,1.249c1.028,6.9,1.836,13.81,2.644,20.788C638.918,234,640.02,234,639.946,233.337Z" transform="translate(-636.2 -211.3)" fill="#1e1d12"/></g></g></g></g></g></svg>