<svg xmlns="http://www.w3.org/2000/svg" width="250.7" height="372.564" viewBox="0 0 250.7 372.564"><g transform="translate(0 -515)"><g transform="translate(-84.6 422.864)"><rect width="168.7" height="115.5" transform="translate(84.6 349)" fill="#5b5b5b"/><path d="M167,349a119.244,119.244,0,0,1-5.6,15.1,69.306,69.306,0,0,1-4.1,7.6,18.87,18.87,0,0,1-5.2,5.7c-4.4,2.8-9.5.9-11.7-3.7-2.1-4.5-1.6-10.2-.2-14.8a27.01,27.01,0,0,1,5.4-10h1.5a26.021,26.021,0,0,0-6,11.2c-1.1,4.5-1.6,10.3,1.2,14.3a6.583,6.583,0,0,0,6.5,3,10.443,10.443,0,0,0,6.2-4.5c5.3-7.1,8.3-15.7,10.9-24.1H167Z" fill="#f0f0f0"/><path d="M168.1,384.2a25.6,25.6,0,1,0,25.6,25.6A25.649,25.649,0,0,0,168.1,384.2Zm-5.2,2.7a26.907,26.907,0,0,0-3.3,4.1,32.031,32.031,0,0,0-3.4,6.3h-7.9A22.853,22.853,0,0,1,162.9,386.9ZM147,399.3h8.3a34.122,34.122,0,0,0-1.7,9h-9.1A25.141,25.141,0,0,1,147,399.3Zm-2.4,11h9.1a36.87,36.87,0,0,0,1.3,9h-8.4A21.487,21.487,0,0,1,144.6,410.3Zm3,11.1h8a29.641,29.641,0,0,0,4.5,8.2,25.756,25.756,0,0,0,3.2,3.4A24.453,24.453,0,0,1,147.6,421.4Zm19.5,11.8a24.519,24.519,0,0,1-9.3-11.9h9.3Zm0-13.9h-10a36.836,36.836,0,0,1-1.4-9H167v9Zm0-11H155.8a27.726,27.726,0,0,1,1.8-9h9.6v9Zm0-11.1h-8.7a31.97,31.97,0,0,1,2.9-5.1,29.946,29.946,0,0,1,5.2-5.8h.7v10.9Zm24.5,11.1h-8.8a31.138,31.138,0,0,0-1.7-9h8.1A23.142,23.142,0,0,1,191.6,408.3ZM188,397.2h-7.7a38.3,38.3,0,0,0-3.4-6.3,43.115,43.115,0,0,0-3.2-4A24.445,24.445,0,0,1,188,397.2Zm-18.9-10.9a2.768,2.768,0,0,1,.9.1,31.279,31.279,0,0,1,8,10.9h-8.9Zm0,13h9.8a27.726,27.726,0,0,1,1.8,9H169.1Zm0,11h11.6a32.6,32.6,0,0,1-1.4,9H169.1v-9Zm0,23.1v-12h9.5a29.846,29.846,0,0,1-3.8,6.8A21.824,21.824,0,0,1,169.1,433.4Zm4.2-.6a32.6,32.6,0,0,0,3.1-3.3,28.278,28.278,0,0,0,4.5-8.2h7.8A23.573,23.573,0,0,1,173.3,432.8Zm8.2-13.5a36.87,36.87,0,0,0,1.3-9h8.9a23.55,23.55,0,0,1-2,9Z" fill="#ede4db"/><path d="M111,464.6h-1.1a36.676,36.676,0,0,0-9.9-27.2,34.805,34.805,0,0,0-15.4-9.5v-1.1a19.756,19.756,0,0,1,2.6.8c11.4,4.1,20,14.4,22.8,26A37.025,37.025,0,0,1,111,464.6Z" fill="#fff"/><path d="M138.9,349c-.5.3-1,.6-1.6.9a35.033,35.033,0,0,0-9.6,8.8,50.614,50.614,0,0,0-6.3,12.5c-3.1,8.3-6,16.6-12.4,23-5.9,5.9-14.6,9.5-23,7.5a6.47,6.47,0,0,1-1.3-.4v-1.2a19.618,19.618,0,0,0,8,1c9.1-.8,16.4-7.1,21-14.7,4.6-7.7,6.4-16.6,10.7-24.5a35.436,35.436,0,0,1,12.5-13h2Z" fill="#fff"/><path d="M125.9,389.7A35.573,35.573,0,0,0,112.8,403c-2.4,4.5-5.2,11.8-.7,15.9,5.1,4.7,12.3.7,16.4-3.1,4.7-4.4,9-11,8.9-17.6a10.482,10.482,0,0,0-3.8-8.2c-2.3-1.8-5.1-1.5-7.7-.3-.6.3-.1,1.1.5.8,2.6-1.2,5.4-1.3,7.5.8a10.212,10.212,0,0,1,2.7,7.6c-.3,5.8-3.9,11.5-7.9,15.4-3.9,3.8-11,8.5-16,3.7-4-3.9-.9-11,1.3-15a35.1,35.1,0,0,1,12.5-12.6c.4-.2-.1-1-.6-.7Z" fill="#fff"/><path d="M115.3,349a32.713,32.713,0,0,1-6.8,9.7A60.678,60.678,0,0,1,96,368.2a23.065,23.065,0,0,1-11.4,3.2v-1.1h.5c4.9,0,9.4-2.3,13.3-4.9a55.457,55.457,0,0,0,10.8-9.1A29.761,29.761,0,0,0,114,349h1.3Z" fill="#fff"/><path d="M217.8,349c-3.6,4.4-6.9,9.2-10.5,13.5-5.5,6.6-12.9,13.4-21.8,14.4a12.377,12.377,0,0,1-11.3-4.2c-2.7-3.3-3.8-7.7-3.9-11.9a21.951,21.951,0,0,1,3.1-11.8h1.3a21.33,21.33,0,0,0-2.2,18.1c1.4,4.3,4.4,7.9,9,8.7,4.5.8,9.2-.9,13.1-3.2,8.3-4.9,13.8-13.1,19.6-20.6.8-1,1.5-2,2.4-3Z" fill="#fff"/><path d="M253.3,438.9v1.3a20.032,20.032,0,0,0-10.5-4.6c-6.6-.8-14,2.4-16.9,8.5-1.9,4-1.3,8.5-1.3,12.8a21.811,21.811,0,0,1-1.2,7.7h-1.1a8.78,8.78,0,0,0,.7-2.3c1.1-4.6,0-9.3.6-13.9a14.683,14.683,0,0,1,4.5-9,18.774,18.774,0,0,1,18.8-3.9A26.231,26.231,0,0,1,253.3,438.9Z" fill="#fff"/><path d="M203.9,464.6h-1.1a45.227,45.227,0,0,0-3.4-7,40.387,40.387,0,0,0-3.8-5.4c-1.4-1.7-3.2-3.3-5.6-3.2-4.1.2-6.8,3.8-10.2,5.7a15.711,15.711,0,0,1-10,1.6c-7.7-1-13.9-5.9-21.2-8a21.856,21.856,0,0,0-20.6,4.8,24.8,24.8,0,0,0-7.2,11.6h-1.1a25.684,25.684,0,0,1,9.1-13.7,22.686,22.686,0,0,1,20.9-3.5c7.8,2.5,14.9,8.2,23.4,7.9a14.617,14.617,0,0,0,6.2-1.6,60.025,60.025,0,0,0,5.1-3.7c2.9-2,6.6-3.1,9.7-.8a18.1,18.1,0,0,1,3.7,4.1,38.367,38.367,0,0,1,3.2,5A39.216,39.216,0,0,1,203.9,464.6Z" fill="#fff"/><path d="M253.3,413.3v1.1a16.087,16.087,0,0,0-3.7.7c-3.3,1.2-6,3.5-8.9,5.4-5.2,3.4-11.8,5.1-17.9,3.4a10.026,10.026,0,0,1-6.4-4.8,6.947,6.947,0,0,1,.3-7.1c1.6-2.3,4.2-3.7,6.1-5.7,1.2-1.3,2.3-3.1,1.9-5a4.759,4.759,0,0,0-2.6-3.1c-5.1-2.9-13,1.3-16.9-4.3-3.7-5.3,1.1-11.4,4.3-15.5a118.922,118.922,0,0,1,12.8-13.8,122.43,122.43,0,0,1,21-15.5h2.2a119.884,119.884,0,0,0-25.6,19.2,102.8,102.8,0,0,0-12.2,14.2c-1.8,2.7-3.4,6-2.3,9.3,1.1,3.1,4.4,4,7.4,4.1,3.1.1,6.3-.4,9.2.9,2.1,1,3.9,2.9,3.9,5.3,0,6.2-8.9,7.4-9.2,13.3-.2,3.5,2.6,6.1,5.7,7.2a17.805,17.805,0,0,0,9.7.4,25.337,25.337,0,0,0,9-4.1,50.9,50.9,0,0,1,7.4-4.6A15.209,15.209,0,0,1,253.3,413.3Z" fill="#fff"/><path d="M253.3,400.9v2a10.989,10.989,0,0,1-9.8,4,13.027,13.027,0,0,1-9.4-6.2,17.99,17.99,0,0,1-2.2-13c1.5-8.9,7.8-16.7,15.7-20.9.6-.3,1.2.6.5.9a30.555,30.555,0,0,0-10.2,8.7c-4.8,6.5-7.6,16.2-3,23.6,2,3.2,5.4,5.8,9.4,5.9a9.667,9.667,0,0,0,8.9-4.8C253.2,401,253.2,401,253.3,400.9Z" fill="#fff"/><path d="M276.1,389.4l9.6,15.1,11.4-7.4L289,381.4Z" fill="#a05232"/><path d="M334.6,396l-40.4,26.5a5.841,5.841,0,0,1-2-1.9c-2.5-3.2-5-9.4-6.7-13.2a13.4,13.4,0,0,0-.6-1.2c-.3-.6-.6-1.1-.8-1.5a2.538,2.538,0,0,1,1-4c6.7,1.3,7.4-7.7,11.4-7.5,0,0,1.7.1,6.8.8,5.1.8,11.8-.9,17.7-2,7.6-1.4,11-.1,12.4,1.5A4.051,4.051,0,0,1,334.6,396Z" fill="#1e1d12"/><path d="M334.6,396l-40.4,26.5a5.841,5.841,0,0,1-2-1.9l41.2-27.1A4.051,4.051,0,0,1,334.6,396Z" fill="#6a6440"/><path d="M298.4,419.9l-1.2.8a10.676,10.676,0,0,0-2.1-7.9,13.488,13.488,0,0,0-9.6-5.3,13.4,13.4,0,0,0-.6-1.2,14.956,14.956,0,0,1,11.1,5.8A12.17,12.17,0,0,1,298.4,419.9Z" fill="#6a6440"/><path d="M304.2,397a.769.769,0,0,1-1-.1.785.785,0,0,1,0-1.1l2.1-2.3a.778.778,0,0,1,1.1,1.1l-2.1,2.3A.1.1,0,0,0,304.2,397Z" fill="#fff"/><path d="M300,396.6a.769.769,0,0,1-1-.1.785.785,0,0,1,0-1.1l2.1-2.3a.778.778,0,0,1,1.1,1.1l-2.1,2.3Z" fill="#fff"/><path d="M307.7,396.8a.769.769,0,0,1-1-.1.785.785,0,0,1,0-1.1l2.1-2.3a.778.778,0,1,1,1.1,1.1l-2.1,2.3A.1.1,0,0,0,307.7,396.8Z" fill="#fff"/><path d="M311.1,396.5a.769.769,0,0,1-1-.1.785.785,0,0,1,0-1.1l2.1-2.3a.778.778,0,1,1,1.1,1.1l-2.1,2.3C311.2,396.5,311.2,396.5,311.1,396.5Z" fill="#fff"/><path d="M314.7,396a.769.769,0,0,1-1-.1.785.785,0,0,1,0-1.1l2.1-2.3a.778.778,0,0,1,1.1,1.1l-2.1,2.3A.1.1,0,0,1,314.7,396Z" fill="#fff"/><path d="M318.4,395.2a.769.769,0,0,1-1-.1.785.785,0,0,1,0-1.1l2.1-2.3a.778.778,0,0,1,1.1,1.1l-2.1,2.3Z" fill="#fff"/><path d="M168.4,315.3s-.5,11.4,7.5,27.5,56.5,7.2,68.5,2.1c0,0-.2,4.6,9.2,16.8,10.7,13.9,25.2,36,25.2,36l17-5.8s-31.3-64.5-37.6-70.1-57.8-2.4-57.8-2.4S182.5,320.8,168.4,315.3Z" fill="#e69482"/><path d="M212.3,345.4a113.936,113.936,0,0,0,37-7l-.7-.7c-1.6,7.4,3.8,13.9,7.6,19.6,4.5,6.9,8.8,13.9,12.9,21.1,2.3,4.1,4.6,8.3,6.8,12.6.3.6,1.3.1,1-.6-3.7-7-7.6-14-11.6-20.8-2-3.4-4.1-6.8-6.3-10.1-2.1-3.2-4.4-6.3-6.3-9.6-2.1-3.5-3.9-7.8-3-11.9a.6.6,0,0,0-.7-.7,115.238,115.238,0,0,1-36.7,6.9c-.7.1-.7,1.2,0,1.2Z" fill="#a8494a"/><path d="M291.6,383.8c-5.6,1.9-10.6,5.4-16.2,7.3a.571.571,0,0,0,.3,1.1c5.6-1.9,10.6-5.4,16.2-7.3a.571.571,0,0,0-.3-1.1Z" fill="#a8494a"/><path d="M209.3,244.5s16,28.7,24,39c0,0,7.8-3.8,18.8-9.8s16.4-8.8,16.4-8.8l7.7,8.6s-37.3,29.8-46.4,31c-9.1,1.1-27.8-33.9-27.8-33.9S201.4,248.5,209.3,244.5Z" fill="#a05232"/><path d="M233,283.7c-.9,2.6-1.9,5.2-2.8,7.8-.2.5.6.7.7.2.9-2.6,1.9-5.2,2.8-7.8.1-.4-.6-.6-.7-.2Z" fill="#45110c"/><path d="M232.7,284.7c-1.3,1.4-2.6,2.7-3.8,4.1-.3.4.2.9.5.5,1.3-1.4,2.6-2.7,3.8-4.1.4-.4-.2-.9-.5-.5Z" fill="#45110c"/><path d="M202,319.3c-13.1,12.7-36.3,7.9-56-1.5a182.253,182.253,0,0,0,3.9-31.5,84.687,84.687,0,0,0-.1-8.6c-.1-1.1-.1-2.3-.2-3.5s-.2-2.4-.3-3.7c-.1-1.2-.2-2.4-.4-3.6-.1-.8-.2-1.5-.3-2.3-.1-.5-.1-.9-.2-1.4V263c-.1-.4-.1-.7-.2-1.1a15.719,15.719,0,0,0-.4-2.3c-.3-1.8-.6-3.6-1-5.4-2.3-11-.6-22.6,10.6-24l2.4-.3c5.3-.6,9.6-.7,10.8-.8h.3l21.6,6.3,2.1.6c3,1,5.4,1.9,7.4,2.7a26.4,26.4,0,0,1,4.2,2.3c4.7,3.4,4,7.2,3.9,14.7v.5c0,1.3,0,2.6.1,3.8.1,1.4.2,2.8.4,4.2.3,2.9.7,5.7,1.1,8.3.2,1.2.3,2.5.4,3.6.1,1.3.2,2.5.2,3.6a11.592,11.592,0,0,1-.5,3.4,3,3,0,0,1-.4,1,16.444,16.444,0,0,1-1.4,2.2,25.464,25.464,0,0,1-2.6,3,34.122,34.122,0,0,1-3.9,3.3,3.61,3.61,0,0,0-.5.4v.1a1.268,1.268,0,0,1-.1.6c-.1.8-.1,1.7-.2,2.8C202.7,297,200.6,304.5,202,319.3Z" fill="#b2aa7d"/><path d="M212.1,276.2l-57.7-11.8a13.424,13.424,0,0,0,4.4-2.6l52.9,10.8C211.8,273.9,212,275.1,212.1,276.2Z" fill="#d9d2a9"/><path d="M211.8,283.3l-62.4-12.8c-.1-1.2-.2-2.4-.4-3.6l63.3,12.9A17.32,17.32,0,0,1,211.8,283.3Z" fill="#d9d2a9"/><path d="M210,286.5a25.464,25.464,0,0,1-2.6,3l-57.5-11.8c-.1-1.1-.1-2.3-.2-3.5Z" fill="#d9d2a9"/><path d="M206.3,241.1a37.436,37.436,0,0,0,4,19.1c-.1-1.3-.1-2.5-.1-3.8v-.5C210.3,248.3,211,244.4,206.3,241.1Z" fill="#a05232"/><path d="M167.8,248.3c-2.5,9.6-12.9,18.7-19.1,16.2-.1-.5-.1-1.1-.2-1.6a4.253,4.253,0,0,0-.2-1.1c-.4-2.6-.9-5.2-1.4-7.7-2.3-11-.6-22.6,10.6-24l2.4-.3C165.4,232.3,170.6,237.3,167.8,248.3Z" fill="#a05232"/><path d="M170.4,289.7c.1.2.2.3.4.3h.3a30.3,30.3,0,0,1,19,1,34.538,34.538,0,0,0,12.8,2.8,1.268,1.268,0,0,1,.1-.6v-.1a2.22,2.22,0,0,0,.5-.4c-3.5.2-7.9-.6-13-2.7a30.59,30.59,0,0,0-19.7-1.1A.63.63,0,0,0,170.4,289.7Z" fill="#6a6440"/><path d="M192.5,264c6.4,1.3,9.3-5.3,9.3-5.4a.539.539,0,0,0-1-.4c-.1.3-2.5,5.9-8.1,4.8-5.9-1.2-16.8-12.8-16.9-12.9a.495.495,0,0,0-.7.7C175.5,251.3,186.3,262.8,192.5,264Z" fill="#6a6440"/><path d="M188.6,181.6s3.1-12.4-10.5-15.2c-11.4-2.3-18.9,12.7-13.8,27.9,6.9,20.6-7,26.7-14.5,22,0,0,8.6,10.4,21.2,7.4S188.6,181.6,188.6,181.6Z" fill="#1e1d12"/><path d="M188.6,181.6s-10.7.3-14.3,14.4c0,0-.1.7,1.8,1.6,0,0,7.2-12.4,12.3-13.3C188.4,184.3,189.5,182.8,188.6,181.6Z" fill="#9e4f2e"/><path d="M207,214.2s4.3-.1,6.7-5.7c3.8-9.2-.8-19.3-12.3-23.4-15.1-5.3-18.3-.9-22.6,4.5s-5.4,14.6-3.3,20.2c2,5.4,7.7,8.7,7.7,8.7Z" fill="#1e1d12"/><path d="M207.9,212.1a2.851,2.851,0,0,1,1.6,3.2c-.3,2.6-2.6,6.3-5,5.2C202.2,219.3,207.9,212.1,207.9,212.1Z" fill="#45110c"/><path d="M203.2,220.1a1.709,1.709,0,1,0,2.2-1A1.838,1.838,0,0,0,203.2,220.1Z" fill="#fff"/><line transform="translate(196 229.3)" fill="#e69482"/><path d="M173.8,230.7s1.7,7.2,8.6,10.2c8.8,3.8,10.9.1,10.9.1a13.768,13.768,0,0,1,.3-4c.1-.5.2-1,.3-1.6a44.864,44.864,0,0,1,1.6-4.8c.2-.4.3-.8.5-1.3v-.1c-5.9-3.2-10.4-7.4-12.7-13l-.8-.8-.5-.4-.2.3-.2,1.2C180.7,222.2,178.2,226.4,173.8,230.7Z" fill="#a05232"/><path d="M187.6,248.3c.2,0,.4.1.6.1a5.357,5.357,0,0,0,4.7-1.7c3.4-3.7,2-12,1.9-12.4a.51.51,0,0,0-1,.2c0,.1,1.3,8.2-1.7,11.5a4.194,4.194,0,0,1-3.8,1.3c-6.8-.6-14.3-17.8-14.4-18a.539.539,0,1,0-1,.4C173.3,230.5,180.4,246.8,187.6,248.3Z" fill="#fff"/><path d="M186.4,222.4c.5,3.4,2.2,9.6,7.5,13.1a44.864,44.864,0,0,1,1.6-4.8c.2-.4.3-.8.5-1.3a.6.6,0,0,1-.4-.1C192.1,228.6,188.8,225.9,186.4,222.4Z" fill="#1e1d12"/><path d="M176.8,203.8c-1.1,3.4.3,8.5,4.7,10.1h.1v1h0c.8,6.7,7.9,12.8,12.2,14.4a8.419,8.419,0,0,0,3.1.6c5,.6,8-5.5,8.9-10.6.1-.7.2-1.5.3-2.1v-.1s3.8-6.2,5.2-9.1c2.6-5.5,1.3-12.4-10.9-17.8s-17.8,1.4-20.1,5.2c-.4.6-1.6,4.8-1.2,5.7C177.9,201.3,177.2,202.6,176.8,203.8Z" fill="#a05232"/><path d="M198.3,212.9c-.2-.1-.4-.2-.4-.5,0-.5-.2-1.6-.7-1.8a3.018,3.018,0,0,0-1.8.1.515.515,0,0,1-.5-.9,3.4,3.4,0,0,1,2.6-.1c1.2.6,1.3,2.5,1.3,2.7a.472.472,0,0,1-.5.5Z" fill="#1e1d12"/><path d="M203.3,214.6a.1.1,0,0,1-.1-.1.618.618,0,0,1-.2-.7c.1-.2,1-1.5,2.1-1.4a3.021,3.021,0,0,1,1.8,1.2.5.5,0,0,1-.8.6,1.526,1.526,0,0,0-1.1-.7c-.4,0-.9.6-1.1.9A1.072,1.072,0,0,1,203.3,214.6Z" fill="#1e1d12"/><path d="M197.1,198a6.358,6.358,0,0,1-4.4,4.7h0c-2.1.6-3.9,1.2-3.7,3.5.2,2.9-1,4.5-2.6,4.1-2.8-.6-1.4-7-7-9.2,0,0-1.9-1.1-.5-4.6s10.9-11.7,20.1-8,16,11.1,14.1,17.8-2.9,4.9-2.9,4.9a50.236,50.236,0,0,0,1.1-5.9C212,200.3,197.1,194.6,197.1,198Z" fill="#1e1d12"/><path d="M178,212.1a1.551,1.551,0,1,0,2-.9A1.553,1.553,0,0,0,178,212.1Z" fill="#fff"/><g opacity="0.5"><path d="M203.7,217.5c-.2.5.8,1.3,2.2,1.8.1-.7.2-1.5.3-2.1C204.9,216.9,203.8,217,203.7,217.5Z" fill="#45110c"/></g><path d="M197,223c-.6-.3-.8-.7-.8-.8-.1-.1,0-.3.1-.4s.3,0,.4.1a1.225,1.225,0,0,0,1.1.6.3.3,0,1,1,0,.6A1.063,1.063,0,0,1,197,223Z" fill="#45110c"/><path d="M198,221.4h0a3.52,3.52,0,0,1-2.1-2.7.664.664,0,0,1,.4-.5.51.51,0,0,1,.5.4,2.794,2.794,0,0,0,1.5,2h0a2.349,2.349,0,0,0,2.3.1.447.447,0,1,1,.4.8A3.352,3.352,0,0,1,198,221.4Z" fill="#45110c"/><path d="M200.2,218.1h.2l2.1-.4a.319.319,0,0,0,.3-.3.6.6,0,0,0-.1-.4,5.869,5.869,0,0,1-1.3-4.7.4.4,0,1,0-.8,0,6.322,6.322,0,0,0,1.1,4.8l-1.4.3a.382.382,0,0,0-.3.5Z" fill="#45110c"/><path d="M200.2,205.9a.976.976,0,0,0,1.2-1.5,2.8,2.8,0,0,0-1.8-.9,7.09,7.09,0,0,0-6,2s3.7-.5,5.5,0A2.817,2.817,0,0,1,200.2,205.9Z" fill="#1e1d12"/><path d="M205.4,208.1a.968.968,0,0,1,.1-1.9,2.4,2.4,0,0,1,1.9.5c3.1,2,2.4,4.5,2.4,4.5a13.231,13.231,0,0,0-3.4-2.7A1.433,1.433,0,0,0,205.4,208.1Z" fill="#1e1d12"/><g opacity="0.5"><path d="M195.9,214.9c-.2.6-1.8.6-3.5,0-1.8-.6-3.1-1.5-2.9-2.1s1.8-.6,3.5,0C194.8,213.4,196.1,214.3,195.9,214.9Z" fill="#45110c"/></g><path d="M181.5,213.8h.1v1h0a4.2,4.2,0,0,0,1.9-.1,2.515,2.515,0,0,0,1.2-.7.5.5,0,0,0-.6-.8,2.513,2.513,0,0,1-1.4.6h-.9A.188.188,0,0,1,181.5,213.8Z" fill="#45110c"/><path d="M182.8,211.4a.55.55,0,0,1-.3-.5c.5-3.4-2.9-6-2.9-6.1a.5.5,0,0,1,.6-.8c.2.1,3.8,3,3.3,6.9,0,.3-.3.4-.5.4A.31.31,0,0,1,182.8,211.4Z" fill="#45110c"/><path d="M179.4,208.3a.1.1,0,0,1-.1-.1.494.494,0,0,1,.1-.7,3.52,3.52,0,0,1,3.2-.4c.2.1.4.4.3.6s-.4.4-.6.3a2.206,2.206,0,0,0-2.2.3Z" fill="#45110c"/><path d="M151.8,265.6c2.3,17.7,1.8,35.8-2.5,53.1-.1.5.6.7.7.2a142.765,142.765,0,0,0,2.5-53.3c0-.5-.8-.5-.7,0Z" fill="#6a6440"/><path d="M253.3,413.1l7.5,14.8,11.9-5.1-6.2-17.7Z" fill="#a05232"/><path d="M308.2,426.2l-41,21a5.771,5.771,0,0,1-1.7-2c-2-3.3-3.8-9.4-5-13.2-.1-.4-.3-.9-.4-1.2a11.639,11.639,0,0,0-.6-1.5,2.3,2.3,0,0,1,1.3-3.6c6.2,1.9,7.8-6.6,11.6-6a57.418,57.418,0,0,1,6.4,1.5c4.8,1.3,11.3.4,17-.1,7.4-.6,10.4,1.1,11.6,2.7A3.824,3.824,0,0,1,308.2,426.2Z" fill="#1e1d12"/><path d="M308.2,426.2l-41,21a5.771,5.771,0,0,1-1.7-2l41.8-21.5A3.926,3.926,0,0,1,308.2,426.2Z" fill="#605e4b"/><path d="M271.4,445l-1.2.6a10.25,10.25,0,0,0-1.2-7.7,13.412,13.412,0,0,0-8.5-6c-.1-.4-.3-.9-.4-1.2a14.13,14.13,0,0,1,9.9,6.7A11.14,11.14,0,0,1,271.4,445Z" fill="#605e4b"/><path d="M279.3,423.9a.651.651,0,0,1-.9-.2.792.792,0,0,1,.1-1.1l2.2-1.9a.781.781,0,0,1,1,1.2l-2.2,1.9A.31.31,0,0,1,279.3,423.9Z" fill="#fff"/><path d="M275.9,423.2a.651.651,0,0,1-.9-.2.792.792,0,0,1,.1-1.1l2.2-1.9a.781.781,0,0,1,1,1.2l-2.2,1.9C276,423.1,276,423.1,275.9,423.2Z" fill="#fff"/><path d="M282.6,424.1a.651.651,0,0,1-.9-.2.792.792,0,0,1,.1-1.1l2.2-1.9a.781.781,0,0,1,1,1.2l-2.2,1.9A.31.31,0,0,1,282.6,424.1Z" fill="#fff"/><path d="M285.9,424.2a.651.651,0,0,1-.9-.2.792.792,0,0,1,.1-1.1l2.2-1.9a.781.781,0,0,1,1,1.2l-2.2,1.9A.31.31,0,0,1,285.9,424.2Z" fill="#fff"/><path d="M289.3,424.1a.651.651,0,0,1-.9-.2.792.792,0,0,1,.1-1.1l2.2-1.9a.781.781,0,0,1,1,1.2l-2.2,1.9C289.4,424.1,289.4,424.1,289.3,424.1Z" fill="#fff"/><path d="M292.9,423.7a.651.651,0,0,1-.9-.2.792.792,0,0,1,.1-1.1l2.2-1.9a.781.781,0,0,1,1,1.2l-2.2,1.9A.349.349,0,0,1,292.9,423.7Z" fill="#fff"/><path d="M271.5,415l-15.2,5.7s-10.6-14.8-21.3-29c-14.4-19.3-16.6-28.4-19.5-39.8,0,0-41.6,7.1-61.5-1.4-8.3-3.5-12-8.1-12.2-14.7v-3a49.559,49.559,0,0,1,3.9-15.6s50.6,1.3,75.5,7.5a46.259,46.259,0,0,1,4.8,1.4,28.333,28.333,0,0,1,5.7,2.5c3,1.8,6.2,6,9.6,11.6.1.2.3.4.4.6C251.5,366.9,271.5,415,271.5,415Z" fill="#e69482"/><path d="M243.6,344.7a29.773,29.773,0,0,0-11-15.3c-5.9-4.3-13.2-6.3-20.3-7.5-4.3-.7-8.7-1.1-13.1-1.5-.7-.1-.7,1.1,0,1.1,13.5,1.1,28.9,2.7,38.2,13.8a27.188,27.188,0,0,1,5.2,9.6.513.513,0,1,0,1-.2Z" fill="#a8494a"/><path d="M254,417.2c-.2,0-.3-.2-.4-.3a.67.67,0,0,1,.3-.8l14.9-5.9a.517.517,0,0,1,.7.3.67.67,0,0,1-.3.8l-14.9,5.9Z" fill="#a8494a"/><path d="M257.8,415.7a.9.9,0,0,1-.5.1c-.1,0-.3-.1-.3-.2-.2-.3-17.8-27.1-26.5-38.8-7.9-10.6-10.9-25.2-11.5-28.3-4.3.7-31.1,4.9-54.5,1.3-10.6-1.6-16.5-6.1-19.6-9.5a27.816,27.816,0,0,1-3.1-4.3v-3a9.768,9.768,0,0,0,.8,1.9,21.708,21.708,0,0,0,3.2,4.7c3,3.3,8.6,7.5,18.8,9.1,25.1,3.9,54.4-1.4,54.7-1.4a.9.9,0,0,1,.5.1.52.52,0,0,1,.2.4c0,.2,2.7,16.7,11.4,28.4,8.8,11.8,26.4,38.6,26.6,38.9C258.1,415.1,258,415.5,257.8,415.7Z" fill="#a8494a"/><path d="M145.6,240.6s-16.6,31.8-22.9,48.5c-1.5,3.9-8.5,49.5-8.5,49.5l12.4,1.8,14.1-44.3s16.8-25.3,21.6-36.2C166.9,248.9,159.7,238.7,145.6,240.6Z" fill="#a05232"/><path d="M114.2,338.6a26.739,26.739,0,0,0-5.9,4.4c-2.5,2.5-16.8,4.5-16.7,6.1.1,1.5,19.6,0,19.6,0s8.5-.3,9.7.7,1.1,5.6,4.4,6.1,1.6-6.8,1.6-6.8l-.2-8.7Z" fill="#a05232"/><path d="M162.4,257a104.79,104.79,0,0,0-4.7,9.5c-.2.4.5.8.6.4,1.4-3.2,3.1-6.4,4.7-9.5.3-.5-.4-.9-.6-.4Z" fill="#45110c"/><path d="M129.8,293a.367.367,0,0,1-.1-.3c0-.2.2-.4.4-.3a28.325,28.325,0,0,1,10.1,3.1c.2.1.2.3.1.5s-.3.2-.5.1a27.909,27.909,0,0,0-9.8-3A.31.31,0,0,1,129.8,293Z" fill="#45110c"/><path d="M134,290.6a.446.446,0,0,1,0-.5.348.348,0,0,1,.5-.1,37.773,37.773,0,0,1,5.1,5.1c.1.2.1.4-.1.5s-.4.1-.5-.1a40.214,40.214,0,0,0-5-4.9Z" fill="#45110c"/><path d="M281.4,253.3a8.911,8.911,0,0,1,5.2,4.8c2,4.1,2.8,5.5,1.4,7.8-1.1,1.9-3.9,1.4-4.8,1.2a.438.438,0,0,1-.3-.1v.9c-.1,1.7-.8,5.4-4.6,6.3a10.761,10.761,0,0,1-7.3-1.1,4.456,4.456,0,0,1-2.5-3.8c-.1-3.2.1-8.7,2.7-11.5,3.7-4.1,4.4-4.2,6.1-4.8A8.357,8.357,0,0,1,281.4,253.3Z" fill="#a05232"/><path d="M280.8,260.7a5.246,5.246,0,0,1-2.3.8.4.4,0,0,1,0-.8,4.238,4.238,0,0,0,3.3-2.1.43.43,0,1,1,.7.5A6.373,6.373,0,0,1,280.8,260.7Z" fill="#45110c"/><path d="M282.5,263.3a5.246,5.246,0,0,1-2.3.8.4.4,0,1,1,0-.8,4.238,4.238,0,0,0,3.3-2.1.43.43,0,1,1,.7.5A6.372,6.372,0,0,1,282.5,263.3Z" fill="#45110c"/><path d="M285.2,265.6a5.507,5.507,0,0,1-3.7.7c-.2-.1-.4-.3-.3-.5s.3-.4.5-.3h0a4.189,4.189,0,0,0,3.7-1.1c.2-.2.4-.1.6,0,.2.2.1.4,0,.6A5.552,5.552,0,0,1,285.2,265.6Z" fill="#45110c"/><path d="M283.2,267a.438.438,0,0,1-.3-.1v.9a26.515,26.515,0,0,1-5.1-6.7.447.447,0,1,1,.8-.4A24.551,24.551,0,0,0,283.2,267Z" fill="#45110c"/><path d="M278.3,264.2c-1.7,1.1-5.5-1.5-6.3-2-.2-.1-.2-.4-.1-.6s.4-.2.6-.1c1.9,1.3,4.8,2.8,5.5,1.9a1.72,1.72,0,0,0,.1-1.4,6.7,6.7,0,0,0-3.5-3.7.412.412,0,1,1,.2-.8,7.207,7.207,0,0,1,4,4.2,2.369,2.369,0,0,1-.2,2.2C278.6,264,278.4,264.1,278.3,264.2Z" fill="#45110c"/><path d="M275,272a.43.43,0,1,1-.5-.7h0a7.451,7.451,0,0,0,2.7-6.9.453.453,0,0,1,.9-.1A8.171,8.171,0,0,1,275,272Z" fill="#45110c"/><path d="M274.6,263.5a.1.1,0,0,0-.1.1l-2.3.5a.412.412,0,0,1-.2-.8l2.3-.5a.55.55,0,0,1,.5.3A.4.4,0,0,1,274.6,263.5Z" fill="#45110c"/><path d="M264.4,300.2a.764.764,0,0,1-.5-.2.633.633,0,0,1,.1-.9l16.1-12.6a.616.616,0,0,1,.7-.1l16.6,8.7a.6.6,0,0,1-.5,1.1l-16.2-8.5-15.8,12.4A1.338,1.338,0,0,1,264.4,300.2Z" fill="#1e1d12"/><path d="M283.3,265.2a4.574,4.574,0,0,0-4.5-2.6,1.517,1.517,0,0,1-.3,1.3,3.425,3.425,0,0,1,3.6,1.9,3.323,3.323,0,0,1,.2,2.9,7.391,7.391,0,0,1-3.3,3.2.822.822,0,0,0-.4.6l1.2,14.5a.645.645,0,0,0,.6.6h.1a.669.669,0,0,0,.6-.7l-1.2-14.1a7.562,7.562,0,0,0,3.6-3.7A4.833,4.833,0,0,0,283.3,265.2Z" fill="#1e1d12"/><path d="M275.4,263.7a4.2,4.2,0,0,0-1.7,3.1.652.652,0,1,0,1.3.1,3.247,3.247,0,0,1,1.9-2.6A2.959,2.959,0,0,1,275.4,263.7Z" fill="#1e1d12"/><path d="M335.3,306c-1.5,8.5-4.9,15.9-12.1,20.9l-3.5-1.6-.8-.3-8.9-4h0l10.1,43,.2.7,1.2,5.2s-35.8,14.1-58.4,5.8l-.3-3.8-.1-.8L259.5,329v-.2l-.1.1-5.7,5.6-.6.6-1.9,1.9c-11.5-2-16-7.9-18.7-14.6.8-.7,1.6-1.5,2.4-2.2.2-.2.4-.3.6-.5A257.81,257.81,0,0,1,259.6,300c.2-.2.5-.3.7-.5,1.4-1,2.9-1.9,4.3-2.8,0,0,6.7,5.2,18.8,2.5s12.6-6,12.6-6l4.2,1.4.8.2,31,10,.7.2Z" fill="#8bb73f"/><path d="M266.6,364.3a32.661,32.661,0,0,0,4.7,4.4c.4.3.8-.4.4-.6a31.249,31.249,0,0,1-4.6-4.3c-.3-.4-.8.1-.5.5Z" fill="#aedc5f"/><path d="M274.8,355.6a14.872,14.872,0,0,0-1.9,4.5c-.1.5.6.7.7.2a16.316,16.316,0,0,1,1.8-4.3.361.361,0,1,0-.6-.4Z" fill="#aedc5f"/><path d="M291.4,360.1a18.132,18.132,0,0,0,4.1,3.2c.4.2.8-.4.4-.6a13.04,13.04,0,0,1-3.9-3.1c-.4-.3-.9.2-.6.5Z" fill="#aedc5f"/><path d="M305.6,353.1a9.127,9.127,0,0,1-2.4,3.7c-.4.3.2.9.5.5a9.576,9.576,0,0,0,2.6-4c.2-.4-.6-.6-.7-.2Z" fill="#aedc5f"/><path d="M309.4,357c1.3.9,2.7,1.7,4,2.6.4.3.8-.4.4-.6-1.3-.9-2.7-1.7-4-2.6-.4-.4-.8.3-.4.6Z" fill="#aedc5f"/><path d="M309.4,336.6c-.6,1.1-1.2,2.2-1.8,3.2-.2.4.4.8.6.4.6-1.1,1.2-2.2,1.8-3.2.3-.5-.4-.9-.6-.4Z" fill="#aedc5f"/><path d="M294.5,351.3c.8.6,1.7,1.2,2.5,1.7.4.3.8-.4.4-.6-.8-.6-1.7-1.2-2.5-1.7-.4-.3-.8.4-.4.6Z" fill="#aedc5f"/><path d="M284.1,352.4c-.8,1.5-1.5,3.1-2.3,4.6-.2.4.4.8.6.4.8-1.5,1.5-3.1,2.3-4.6.3-.4-.4-.8-.6-.4Z" fill="#aedc5f"/><path d="M263.8,346.6a19.12,19.12,0,0,0,4.5,2.3c.5.2.7-.6.2-.7a17.473,17.473,0,0,1-4.3-2.2c-.5-.3-.8.3-.4.6Z" fill="#aedc5f"/><path d="M263.4,331.1c1.3.6,2.7,1.2,4,1.7.4.2.8-.5.4-.6-1.3-.6-2.7-1.2-4-1.7a.361.361,0,1,0-.4.6Z" fill="#aedc5f"/><path d="M272.2,322.8a20.171,20.171,0,0,1-1.8,3.6c-.3.4.4.8.6.4a19.278,19.278,0,0,0,1.9-3.8c.2-.4-.5-.6-.7-.2Z" fill="#aedc5f"/><path d="M256.5,313.8l3.6,2.4c.4.3.8-.4.4-.6l-3.6-2.4c-.4-.3-.8.3-.4.6Z" fill="#aedc5f"/><path d="M251.2,317.5a9.407,9.407,0,0,1-1.7,3.1c-.3.4.2.9.5.5a11.118,11.118,0,0,0,1.8-3.4c.3-.4-.4-.6-.6-.2Z" fill="#aedc5f"/><path d="M249.7,327.8a11.4,11.4,0,0,1,3.4,1.5c.4.3.8-.4.4-.6a14.622,14.622,0,0,0-3.6-1.6c-.4-.1-.6.6-.2.7Z" fill="#8798fb"/><path d="M258.9,306.3a24.411,24.411,0,0,0,4.3,2.1c.5.2.7-.6.2-.7a19.48,19.48,0,0,1-4.1-2c-.4-.3-.8.3-.4.6Z" fill="#aedc5f"/><path d="M249.8,309c.5.9.9,1.9,1.4,2.8a.361.361,0,1,0,.6-.4c-.5-.9-.9-1.9-1.4-2.8-.1-.4-.8,0-.6.4Z" fill="#aedc5f"/><path d="M242.7,319.3v4.2c0,.5.7.5.8,0v-4.2c-.1-.5-.8-.5-.8,0Z" fill="#aedc5f"/><path d="M271.2,312.2a12.118,12.118,0,0,0,5.2,1.9c.5.1.7-.7.2-.7a14.254,14.254,0,0,1-5-1.8c-.5-.3-.9.3-.4.6Z" fill="#aedc5f"/><path d="M266,316.3a12.088,12.088,0,0,0,.6,3.8c.1.5.9.3.7-.2a11.325,11.325,0,0,1-.6-3.6c0-.5-.8-.5-.7,0Z" fill="#aedc5f"/><path d="M287.9,313.2a7.524,7.524,0,0,0,2.8-2.8c.2-.4-.4-.8-.6-.4a7.472,7.472,0,0,1-2.5,2.5.381.381,0,1,0,.3.7Z" fill="#aedc5f"/><path d="M294.6,315.6c1.2.9,2.4,1.8,3.6,2.6.4.3.8-.4.4-.6-1.2-.9-2.4-1.8-3.6-2.6-.4-.4-.7.3-.4.6Z" fill="#aedc5f"/><path d="M302,323.8c-1.3,1-2.6,2.1-3.9,3.1-.4.3.2.8.5.5,1.3-1,2.6-2.1,3.9-3.1.4-.3-.1-.8-.5-.5Z" fill="#aedc5f"/><path d="M302.6,330.9a26.377,26.377,0,0,1,4.9.8c.5.1.7-.6.2-.7a30.026,30.026,0,0,0-5.1-.8c-.5-.1-.5.6,0,.7Z" fill="#aedc5f"/><path d="M309.3,348.4c1.3-.5,2.7-1,4-1.5.4-.2.3-.9-.2-.7-1.3.5-2.7,1-4,1.5-.4.1-.2.9.2.7Z" fill="#aedc5f"/><path d="M306.3,306.3a34.857,34.857,0,0,1-2.2,5.3c-.2.4.4.8.6.4a27.842,27.842,0,0,0,2.2-5.4c.2-.6-.5-.8-.6-.3Z" fill="#aedc5f"/><path d="M295.8,303.9c.7,1,1.3,2,2,3,.3.4.9,0,.6-.4-.7-1-1.3-2-2-3-.3-.3-.9,0-.6.4Z" fill="#aedc5f"/><path d="M280,306.6c.3,1.1.7,2.3,1,3.4.1.5.9.3.7-.2-.3-1.1-.7-2.3-1-3.4-.1-.5-.9-.3-.7.2Z" fill="#aedc5f"/><path d="M303.4,300.3c.6-.7,1.2-1.4,1.9-2.2.3-.4-.2-.9-.5-.5-.6.7-1.2,1.4-1.9,2.2-.3.3.2.8.5.5Z" fill="#aedc5f"/><path d="M312.1,305.7c.9,1,1.8,2,2.8,3,.3.4.9-.2.5-.5-.9-1-1.8-2-2.8-3-.3-.4-.8.1-.5.5Z" fill="#aedc5f"/><path d="M318.6,318.6l-2.1,1.8c-.4.3.2.8.5.5l2.1-1.8c.4-.3-.1-.8-.5-.5Z" fill="#aedc5f"/><path d="M323.2,309.4c1.3-.4,2.6-.8,3.9-1.1.5-.1.3-.9-.2-.7-1.3.4-2.6.8-3.9,1.1-.4.1-.2.8.2.7Z" fill="#aedc5f"/><path d="M320.1,302.6a14.762,14.762,0,0,1-1.3,3.5c-.2.4.4.8.6.4a16.568,16.568,0,0,0,1.4-3.7c.2-.4-.5-.6-.7-.2Z" fill="#aedc5f"/><path d="M312.2,312.5c-.9.6-1.8,1.2-2.8,1.9-.4.3,0,.9.4.6.9-.6,1.8-1.2,2.8-1.9.4-.2,0-.8-.4-.6Z" fill="#aedc5f"/><path d="M301.8,364c1,1.1,2,2.2,3,3.2.3.4.9-.2.5-.5-1-1.1-2-2.2-3-3.2-.3-.4-.9.1-.5.5Z" fill="#aedc5f"/><path d="M286.1,364.4a15.439,15.439,0,0,1-2.8,2.9c-.4.3.2.8.5.5a15.333,15.333,0,0,0,2.8-2.9c.3-.4-.2-.9-.5-.5Z" fill="#aedc5f"/><path d="M300.8,294.9a25.535,25.535,0,0,1-4.7,4c-10.4,7-25.8,7.6-36.7,1.2.2-.2.5-.3.7-.5a35.61,35.61,0,0,0,22.2,3.7c6.5-1,13.3-3.8,17.8-8.7Z" fill="#20276c"/><path d="M332.5,305.1a37.172,37.172,0,0,1-4.4,10.5,41.955,41.955,0,0,1-8.5,9.8l-.8-.3a38.666,38.666,0,0,0,12.9-20.2Z" fill="#20276c"/><path d="M320.2,364.8c-3.2,1.4-6.5,2.6-9.8,3.7a106.892,106.892,0,0,1-27.4,5.1,72.021,72.021,0,0,1-20.2-1.6l-.1-.8a70.564,70.564,0,0,0,9.2,1.5c16.3,1.4,33.2-2,48.1-8.6Z" fill="#20276c"/><path d="M259.8,329c1.3-1.5,2.6-3,3.8-4.5.3-.4-.2-.9-.5-.5-1.3,1.5-2.6,3-3.8,4.5-.3.3.2.9.5.5Z" fill="#20276c"/><path d="M304.9,318.3c1.5,1,3.2,1.7,4.7,2.8.4.3.8-.4.4-.6-1.5-1-3.1-1.8-4.7-2.8-.4-.3-.8.3-.4.6Z" fill="#20276c"/><path d="M253.6,334.6l-.6.6a36.258,36.258,0,0,1-18.3-14.9c.2-.2.4-.3.6-.5A35.573,35.573,0,0,0,253.6,334.6Z" fill="#20276c"/><path d="M295.1,328l.6,8.3-7.5-3.9,2.2-1.4-6.2-8.6-2.6,5.8c-.9-.5-1.8-.8-2.7-1.3l3.7-8.1a1.594,1.594,0,0,1,1.2-.9,1.537,1.537,0,0,1,1.4.6l7.8,10.8Z" fill="#fff"/><path d="M301.6,343.2a1.594,1.594,0,0,1-1.2.9l-10.4,1,.3,2.7-7.6-3.3,6.6-5.1.3,2.7,7.9-.8-2.5-3.5a14.627,14.627,0,0,0,1.3-.9,12.5,12.5,0,0,0,1.2-.8l3.9,5.6A1.413,1.413,0,0,1,301.6,343.2Z" fill="#fff"/><path d="M275.1,343.5l5.6-.5.3,3-8.1.8a1.537,1.537,0,0,1-1.4-.6,1.6,1.6,0,0,1-.2-1.5l4.6-10.3-2.6-.9,6.5-5.2,1.5,8.1-2.5-.9Z" fill="#fff"/></g><g transform="translate(18.898 515)"><g transform="translate(32.621)"><path d="M659.8,388.648s3.673-16.234,12.708-19.759c9.77-3.746,10.8,5.509.881,12.781A48.2,48.2,0,0,1,659.8,388.648Z" transform="translate(-659.8 -368.028)" fill="#8bb73f"/></g><g transform="translate(15.819 7.477)"><path d="M643.151,405.968s-9.108-13.956-5.289-22.918c4.114-9.623,11.459-3.893,9.77,8.3A47.582,47.582,0,0,1,643.151,405.968Z" transform="translate(-636.926 -378.207)" fill="#8bb73f"/></g><g transform="translate(17.195 30.898)"><path d="M638.8,423.834s16.527,2.277,22.918-5.068c6.9-7.86-1.4-12.047-11.679-5.289A49.4,49.4,0,0,0,638.8,423.834Z" transform="translate(-638.8 -410.091)" fill="#8bb73f"/></g><g transform="translate(0 26.428)"><path d="M629.795,429.344s-14.1-8.815-14.4-18.584c-.294-10.431,8.815-8.374,12.341,3.379A47.372,47.372,0,0,1,629.795,429.344Z" transform="translate(-615.391 -404.006)" fill="#8bb73f"/></g><g transform="translate(7.72 9.217)"><path d="M660.277,380.74a136.883,136.883,0,0,0-19.98,24.607A115.284,115.284,0,0,0,627.957,434c-.735,2.644-1.4,5.289-2.057,7.933H627a147.933,147.933,0,0,1,6.464-20.788,106.538,106.538,0,0,1,15.279-26,153.961,153.961,0,0,1,12.267-13.589A.546.546,0,1,0,660.277,380.74Z" transform="translate(-625.9 -380.576)" fill="#4c492b"/></g></g></g></svg>