<svg id="Group_24620" data-name="Group 24620" xmlns="http://www.w3.org/2000/svg" width="162" height="162" viewBox="0 0 162 162">
  <path id="Path_23558" data-name="Path 23558" d="M109.32,55.321C77.148,40.9,85.555,51.893,75.108,59.411c-.783,2.182-16.955,22.411-22.869,22.066-7.392-.431-8.249,9.1-3.309,6.882s5.571,7.005,3.81,16.015,20.235,30.344,36.5,10.074,20.5-25.455,26.785-16.537,11.672,7.685,11.145,0-5.518-7.11,6.322-16.434C142.964,74.018,114.341,56.73,109.32,55.321Z" fill="#96d5dd"/>
  <circle id="Ellipse_213" data-name="Ellipse 213" cx="81" cy="81" r="81" fill="#60c8d2"/>
  <path id="Path_23559" data-name="Path 23559" d="M112.889,47.952c-49.38-9.157-64.757,18.876-66.272,34.037,1.813,3.542,3.855,11.061-2.478,12.805-7.916,2.18,2.565,16.67,4.875,11.491s13.915,8.285,22.872,22.348,18.037-12.828,10.206-49.162,28.572,4.548,45.479,15.4,16.4,4.337,6.726-6.884-2.815-2.751-2.054-21.128C132.851,52.16,119.594,48.129,112.889,47.952Z" fill="#96d5dd"/>
  <path id="Path_23560" data-name="Path 23560" d="M18.749,33.612C-2.729,61.573,1.7,92.37,6.592,104.273a9.688,9.688,0,0,1,3.695,10.891c-2.13,7.091,6.942,10.13,5.929,4.812s8.1-3.8,16.462,0,2.026-21.781-13.93-42.3S30.905,60.965,41.036,56.913s7.6-8.358,0-9.624-2.026,0-8.358-13.676C27.613,22.671,21.281,29.054,18.749,33.612Z" fill="#96d5dd"/>
  <path id="Path_23561" data-name="Path 23561" d="M66.267,3.418c-12.281-2.208,1.9,11.154,10.522,18.111,2.07.345,6.245,2.139,6.383,6.554.172,5.52,21.734,11.212,15.524,3.1s4.14-6.382,12.764-8.624-.69-12.937-4.657-17.249-17.076-2.76-19.146-1.9S81.618,6.178,66.267,3.418Z" fill="#96d5dd"/>
  <path id="Path_23562" data-name="Path 23562" d="M79.983,34.368C69.9,32.075,54,41.055,47.312,45.831,43.491,50.8,35.505,62.339,34.13,68.758c-1.72,8.024-1.72,5.159,1.719,21.781S51.9,113.466,56.483,116.331s26.366,7.452,42.988,0,18.915-19.487,21.207-33.243-5.731-26.366-10.89-33.244S92.593,37.234,79.983,34.368Z" fill="#8bb73f"/>
  <path id="Path_23563" data-name="Path 23563" d="M82.293,77.561c-1.376-.917-4.012,1.146-5.159,2.293a2.573,2.573,0,0,0-.573,1.72c0,1.146,1.146,2.866,1.72,4.012s2.866,1.72,5.159,1.146,2.866-2.866,2.293-5.159S84.012,78.707,82.293,77.561Z" fill="#f8d010"/>
  <path id="Path_23564" data-name="Path 23564" d="M80.979,43.792V54.109A32.528,32.528,0,0,1,89,56.975c2.293,1.376,5.159,3.248,6.3,4.012a48.644,48.644,0,0,0,4.585-4.012c2.292-2.293,4.012,0,4.585,0,.459,0,1.72-1.911,2.293-2.866a65.293,65.293,0,0,0-12.037-7.451A37.589,37.589,0,0,0,80.979,43.792Z" fill="#f8d010"/>
  <path id="Path_23565" data-name="Path 23565" d="M113.738,50.7a45.276,45.276,0,0,0-62.764-1.22c-.538.5-.145-.021-.072,1.875s1.337.57,1.875.072c7.9-7.311,23.212-11.222,28.944-11.337s22.09,4.434,30.142,12.485a42.349,42.349,0,0,1,12.485,30.142c0,11.386-4.434,19.461-12.485,27.513S93.106,123.66,81.72,123.66s-29.8-8.843-30.142-10.8S39.092,94.106,39.092,82.719A42.625,42.625,0,0,1,49.355,54.98c.477-.556.267-.919-.143-1.871s-1.393-.413-1.871.143a45.28,45.28,0,1,0,66.4-2.551Z" fill="#353535"/>
  <path id="Path_23566" data-name="Path 23566" d="M68.45,106.465c-.733,0-2.653,2.058-2.653,2.791V111.9a1.327,1.327,0,1,0,2.653,0v-2.641C68.45,108.523,69.183,106.465,68.45,106.465Z" fill="#353535"/>
  <path id="Path_23567" data-name="Path 23567" d="M94.989,106.465c-.733,0,0,2.058,0,2.791V111.9a1.327,1.327,0,1,0,2.653,0v-2.641C97.642,108.523,95.721,106.465,94.989,106.465Z" fill="#353535"/>
  <path id="Path_23568" data-name="Path 23568" d="M86.195,110.715a1.326,1.326,0,0,0-1.872.125c-.633.725,0,1.746-2.6,1.141s-1.97-.416-2.6-1.141a1.327,1.327,0,0,0-2,1.746,6.193,6.193,0,0,0,9.2,0A1.326,1.326,0,0,0,86.195,110.715Z" fill="#353535"/>
  <path id="Path_23569" data-name="Path 23569" d="M109.36,55.078a39.09,39.09,0,0,0-55.282,55.283,1.34,1.34,0,0,0,1.876,0l8.755-8.756a1.339,1.339,0,0,0,0-1.876,23.9,23.9,0,0,1-7.046-17.01c0-6.416.591-11.421,5.141-15.969s8.024-8.013,17.768-8.678S91.584,60.193,95.65,63.1L80.43,76.514c-2.879.6-5.589,2.007-5.589,5.06,0,3.495,3.383,7.484,6.878,7.484a6.349,6.349,0,0,0,6.206-5.049l5.593-6.346a1.327,1.327,0,1,0-1.99-1.754L87.6,80.362a6.375,6.375,0,0,0-3.525-3.525l19.391-17.089a.879.879,0,0,1,1.167.026.868.868,0,0,1,.056,1.2L94.93,72.047A1.327,1.327,0,0,0,96.92,73.8s3.374-6.284,4.794-4.019,4.061,7.856,4.061,12.937a23.9,23.9,0,0,1-7.046,17.01,1.34,1.34,0,0,0,0,1.876l8.756,8.756a1.339,1.339,0,0,0,1.876,0,39.093,39.093,0,0,0,0-55.283ZM61.918,100.645s-4.361,8.113-6.885,6.885-9.414-14.691-9.727-23.484l9.737-1.326C55.345,88.915,57.751,96.051,61.918,100.645ZM55.043,81.393H45.306a36.149,36.149,0,0,1,9.739-23.472l3.747,7.03C54.62,69.547,55.345,75.206,55.043,81.393Zm25.349-25.35c-6.187.3-12.992,3.589-17.588,7.762,0,0-6.3-7.206-5.883-7.759s14.691-9.425,23.472-9.739ZM85.4,82.72A3.727,3.727,0,0,1,81.719,86.4a3.689,3.689,0,0,1-3.685-3.685c0-1.872.535-3.6,2.4-3.767C82.551,78.766,85.4,80.59,85.4,82.72Zm16.309-24.962-4.026,3.547a26.284,26.284,0,0,0-14.642-5.262V46.307a36.166,36.166,0,0,1,23.484,9.727l-1.122,1.122c-.026-.011-.053-.019-.08-.029A3.579,3.579,0,0,0,101.714,57.758Zm1.42,8.993,3.546-4.025a3.533,3.533,0,0,0,.6-3.7s.228-2.1,2.521-.958,8.014,14.527,8.327,23.32L108.4,82.72C108.141,77.366,106.338,71.022,103.134,66.751Zm5.272,40.779c.955,2.831-6.886-6.885-6.886-6.885a26.492,26.492,0,0,0,6.876-16.6h9.737C117.82,92.839,107.451,104.7,108.406,107.53Z" fill="#353535"/>
</svg>
