<svg xmlns="http://www.w3.org/2000/svg" width="79.707" height="94.384" viewBox="0 0 79.707 94.384">
  <g id="surface1" transform="translate(-589.863 -350.025)">
    <path id="Path_106825" data-name="Path 106825" d="M1821.205,4375.688l9.517.319,2.457.082a.37.37,0,0,0,.374-.442l-.224-1.13a1.589,1.589,0,0,0-.925-1.148l-.186-.082-1.521-.663-1.347-1.924-8.216.523c-.029.417.105-1.509-.284,4.069a.371.371,0,0,0,.355.4" transform="translate(-1203.959 -3932.423)" fill="#60c8d2"/>
    <path id="Path_106826" data-name="Path 106826" d="M1818.207,4368.263l-.28,4.011a.3.3,0,0,0,.29.324h0l11.975.4a.3.3,0,0,0,.306-.362l-.224-1.13a1.52,1.52,0,0,0-.887-1.1l-1.707-.744a.08.08,0,0,1-.028-.023l-1.326-1.894Zm11.981,4.871-11.975-.4a.437.437,0,0,1-.42-.467l.284-4.07a.066.066,0,0,1,.063-.062l8.216-.523a.062.062,0,0,1,.059.028l1.337,1.909,1.69.738a1.652,1.652,0,0,1,.964,1.2l.224,1.13a.437.437,0,0,1-.442.522" transform="translate(-1200.969 -3929.4)" fill="#6772c0"/>
    <path id="Path_106827" data-name="Path 106827" d="M1821.205,4482.187l2.522.084a3.325,3.325,0,0,0-2.723-2.682l-.154,2.2a.37.37,0,0,0,.355.4" transform="translate(-1203.959 -4038.922)" fill="#100f0d"/>
    <path id="Path_106828" data-name="Path 106828" d="M1818.076,4476.68l-.149,2.127a.3.3,0,0,0,.29.324h0l2.438.082A3.259,3.259,0,0,0,1818.076,4476.68Zm2.661,2.67-2.524-.085a.437.437,0,0,1-.42-.468l.154-2.2a.068.068,0,0,1,.078-.062,3.4,3.4,0,0,1,2.778,2.737.067.067,0,0,1-.066.079" transform="translate(-1200.969 -4035.933)" fill="#100f0d"/>
    <path id="Path_106829" data-name="Path 106829" d="M2269.378,4491.24l2.457.083a.37.37,0,0,0,.374-.442l-.224-1.13a1.589,1.589,0,0,0-.925-1.149l-.186-.082a2.544,2.544,0,0,0-.543.331,2.573,2.573,0,0,0-.953,2.39" transform="translate(-1642.615 -4047.656)" fill="#100f0d"/>
    <path id="Path_106830" data-name="Path 106830" d="M2266.452,4488.171l2.4.081a.3.3,0,0,0,.306-.362l-.223-1.13a1.52,1.52,0,0,0-.886-1.1l-.159-.07a2.487,2.487,0,0,0-.5.309A2.52,2.52,0,0,0,2266.452,4488.171Zm2.4.215-2.457-.083a.067.067,0,0,1-.064-.058,2.648,2.648,0,0,1,1.535-2.792.066.066,0,0,1,.054,0l.186.082a1.653,1.653,0,0,1,.965,1.2l.224,1.129a.438.438,0,0,1-.443.522" transform="translate(-1639.63 -4044.653)" fill="#100f0d"/>
    <path id="Path_106831" data-name="Path 106831" d="M1943.7,4371l6.578.809-.774-1.105Zm0,0" transform="translate(-1324.113 -3932.423)" fill="#100f0d"/>
    <path id="Path_106832" data-name="Path 106832" d="M1941.481,4368.022l5.661.7-.666-.951Zm5.794.849-6.578-.81a.067.067,0,0,1,.005-.133l5.8-.3a.061.061,0,0,1,.058.028l.774,1.105a.067.067,0,0,1-.063.105" transform="translate(-1321.118 -3929.422)" fill="#100f0d"/>
    <path id="Path_106833" data-name="Path 106833" d="M593.091,4171.518l7.937,5.263,2.049,1.358a.37.37,0,0,0,.55-.18l.4-1.08a1.588,1.588,0,0,0-.186-1.463l-.115-.168-.947-1.361-.139-2.345-7.27-3.863L593,4171a.37.37,0,0,0,.1.523" transform="translate(-2.997 -3733.859)" fill="#60c8d2"/>
    <path id="Path_106834" data-name="Path 106834" d="M592.4,4164.814l-2.341,3.269a.3.3,0,0,0,.077.428h0l9.985,6.621a.3.3,0,0,0,.45-.147l.4-1.079a1.52,1.52,0,0,0-.178-1.4l-1.063-1.53a.067.067,0,0,1-.012-.034l-.136-2.307Zm7.647,10.429-9.986-6.621a.437.437,0,0,1-.113-.618l2.376-3.317a.067.067,0,0,1,.086-.02l7.27,3.863a.066.066,0,0,1,.036.055l.137,2.326,1.052,1.514a1.655,1.655,0,0,1,.193,1.525l-.4,1.079a.437.437,0,0,1-.65.213" transform="translate(0 -3730.907)" fill="#6772c0"/>
    <path id="Path_106835" data-name="Path 106835" d="M593.091,4239.387l2.1,1.4a3.325,3.325,0,0,0-.912-3.712L593,4238.863a.37.37,0,0,0,.1.523" transform="translate(-2.997 -3801.727)" fill="#100f0d"/>
    <path id="Path_106836" data-name="Path 106836" d="M591.3,4234.168l-1.242,1.733a.3.3,0,0,0,.077.428h0l2.033,1.348A3.259,3.259,0,0,0,591.3,4234.168Zm.864,3.668-2.1-1.4a.437.437,0,0,1-.113-.618l1.286-1.794a.067.067,0,0,1,.1-.012,3.394,3.394,0,0,1,.931,3.787.068.068,0,0,1-.1.032" transform="translate(0 -3798.725)" fill="#100f0d"/>
    <path id="Path_106837" data-name="Path 106837" d="M961.891,4513.068l2.049,1.358a.37.37,0,0,0,.55-.18l.4-1.08a1.587,1.587,0,0,0-.186-1.463l-.115-.168a2.583,2.583,0,0,0-2.7,1.532" transform="translate(-363.86 -4070.146)" fill="#100f0d"/>
    <path id="Path_106838" data-name="Path 106838" d="M958.978,4510.045l2,1.327a.3.3,0,0,0,.45-.147l.4-1.079a1.521,1.521,0,0,0-.178-1.4l-.1-.143a2.481,2.481,0,0,0-.59,0A2.521,2.521,0,0,0,958.978,4510.045Zm1.928,1.439-2.049-1.358a.068.068,0,0,1-.024-.083,2.653,2.653,0,0,1,2.119-1.576,2.624,2.624,0,0,1,.652,0,.065.065,0,0,1,.047.028l.115.167a1.655,1.655,0,0,1,.193,1.526l-.4,1.079a.438.438,0,0,1-.65.213" transform="translate(-360.862 -4067.148)" fill="#100f0d"/>
    <path id="Path_106839" data-name="Path 106839" d="M803.5,4224.65l5.172,3.96-.08-1.347Zm0,0" transform="translate(-208.943 -3789.58)" fill="#100f0d"/>
    <path id="Path_106840" data-name="Path 106840" d="M801.135,4222.068l4.462,3.417-.069-1.163Zm4.5,3.613-5.172-3.961a.067.067,0,0,1-.016-.089.068.068,0,0,1,.088-.024l5.092,2.613a.068.068,0,0,1,.036.056l.079,1.347a.067.067,0,0,1-.108.058" transform="translate(-205.948 -3786.597)" fill="#100f0d"/>
    <path id="Path_106841" data-name="Path 106841" d="M1734,962.957c-1.046,7.812-5.649,12.666-11.888,14.031a17.12,17.12,0,0,1-2.574.36,21.056,21.056,0,0,1-6.061-.537l.318-8.158c7.82,3.177,11.885-1.25,14.717-8.756l5.489,3.06" transform="translate(-1098.948 -596.507)" fill="#8bb73f"/>
    <path id="Path_106842" data-name="Path 106842" d="M1986.608,1539.885a17.121,17.121,0,0,1-2.574.36l-.124-4.815,2.7,4.455" transform="translate(-1363.44 -1159.403)" fill="#100f0d"/>
    <path id="Path_106843" data-name="Path 106843" d="M3481.486,356.627v40.779a2.437,2.437,0,0,1-2.438,2.436H3476.4a2.435,2.435,0,0,0,2.436-2.436V356.627a2.435,2.435,0,0,0-2.436-2.436h2.648a2.437,2.437,0,0,1,2.438,2.436" transform="translate(-2823.625 -4.099)" fill="#f8d010"/>
    <path id="Path_106845" data-name="Path 106845" d="M2268.6,356.617v40.777a2.437,2.437,0,0,1-2.437,2.437h-24.705a2.437,2.437,0,0,1-2.437-2.437V356.617a2.437,2.437,0,0,1,2.437-2.437h24.705a2.437,2.437,0,0,1,2.437,2.437" transform="translate(-1612.949 -4.088)" fill="#dadada"/>
    <path id="Path_106846" data-name="Path 106846" d="M2238.464,351.256a2.372,2.372,0,0,0-2.369,2.369V394.4a2.372,2.372,0,0,0,2.369,2.369h24.7a2.372,2.372,0,0,0,2.37-2.369V353.625a2.372,2.372,0,0,0-2.37-2.369Zm24.7,45.651h-24.7a2.507,2.507,0,0,1-2.5-2.5V353.625a2.507,2.507,0,0,1,2.5-2.5h24.7a2.507,2.507,0,0,1,2.5,2.5V394.4a2.507,2.507,0,0,1-2.5,2.5" transform="translate(-1609.956 -1.096)" fill="#100f0d"/>
    <path id="Path_106850" data-name="Path 106850" d="M2714.587,1658.114a3.524,3.524,0,1,1-3.523-3.524,3.523,3.523,0,0,1,3.523,3.524" transform="translate(-2071.182 -1275.947)" fill="#8bb73f"/>
    <path id="Path_106851" data-name="Path 106851" d="M2816.38,1712.968l-1.091-1.161a.067.067,0,1,1,.1-.092l1.046,1.113,3.27-3.015a.067.067,0,1,1,.091.1l-3.319,3.06a.067.067,0,0,1-.094,0" transform="translate(-2176.548 -1329.94)" fill="#100f0d"/>
    <path id="Path_106853" data-name="Path 106853" d="M1014.63,2351.738s7.962,4.234,12.143,4.232,1.188-7.375,1.188-7.375-8.487-.949-13.331,3.143" transform="translate(-415.441 -1954.621)" fill="#100f0d"/>
    <path id="Path_106854" data-name="Path 106854" d="M1276.051,2321.842l-10.039.536s-1.706-5.126-3.869-12.053c-.632-2.023-1.3-4.2-1.983-6.446-3.119-10.321-6.408-22.13-6.851-27.382l13.146-.537,9.594,45.882" transform="translate(-648.881 -1883.674)" fill="#5b5b5b"/>
    <path id="Path_106855" data-name="Path 106855" d="M1250.388,2273.51c.479,5.432,3.981,17.832,6.842,27.3.655,2.165,1.323,4.333,1.983,6.445,2.027,6.492,3.672,11.462,3.852,12l9.909-.53-9.567-45.75Zm12.629,45.885a.067.067,0,0,1-.064-.046c-.017-.051-1.73-5.207-3.869-12.055-.66-2.112-1.327-4.281-1.983-6.446-2.875-9.514-6.4-21.989-6.853-27.4a.067.067,0,0,1,.064-.073l13.146-.537a.062.062,0,0,1,.069.053l9.595,45.882a.068.068,0,0,1-.062.081l-10.039.536h0" transform="translate(-645.886 -1880.624)" fill="#100f0d"/>
    <path id="Path_106856" data-name="Path 106856" d="M1568.848,3461.61s-.621,4.557-1.536,8.333c-.632-2.023-1.3-4.2-1.983-6.446l3.518-1.887" transform="translate(-954.05 -3043.293)" fill="#100f0d"/>
    <path id="Path_106857" data-name="Path 106857" d="M1548.135,2458.611h-.009a.067.067,0,0,1-.057-.076,22.287,22.287,0,0,0-1.471-11.719,44.813,44.813,0,0,0-2.545-4.927c-.393-.69-.8-1.4-1.183-2.113a51.158,51.158,0,0,1-5.743-17.878.067.067,0,0,1,.058-.075.068.068,0,0,1,.075.058,51.019,51.019,0,0,0,5.728,17.831c.382.708.788,1.421,1.182,2.111a44.982,44.982,0,0,1,2.552,4.942,22.419,22.419,0,0,1,1.48,11.79.067.067,0,0,1-.066.058" transform="translate(-926.465 -2026.333)" fill="#100f0d"/>
    <path id="Path_106858" data-name="Path 106858" d="M701.926,2424.489c15.258-24.492,7.144-13.837,9.626-39.038,4.128.227,9.272-.244,13.4,0,1.7,17.811,4.2,21.4-13.763,43.944l-9.262-4.906" transform="translate(-109.603 -1990.69)" fill="#252525"/>
    <path id="Path_106859" data-name="Path 106859" d="M699.023,2421.488l9.149,4.846c16.22-20.364,15.711-25.11,14.2-39.174-.157-1.459-.319-2.967-.477-4.621-4.079-.234-9.193.223-13.278.007a77.057,77.057,0,0,0-.181,16.038C708.956,2404.5,709.036,2405.413,699.023,2421.488Zm9.136,4.991-9.262-4.906a.067.067,0,0,1-.026-.095c10.028-16.1,9.948-17,9.429-22.881a77.277,77.277,0,0,1,.187-16.128.067.067,0,0,1,.07-.06c4.113.225,9.284-.244,13.4,0a.067.067,0,0,1,.063.06c.16,1.676.324,3.2.483,4.677.759,7.053,1.26,11.713-.459,17.243s-5.72,11.93-13.8,22.073a.066.066,0,0,1-.084.017" transform="translate(-106.605 -1987.716)" fill="#100f0d"/>
    <path id="Path_106860" data-name="Path 106860" d="M1037.206,1369.552a57.53,57.53,0,0,1-3.083,12.94,12.92,12.92,0,0,0-3.066-1.161c-7.226-1.813-16.428.319-16.428.319,4.275-27.288,16.785-25.1,17.428-24.893,4.886,1.576,5.694,7.2,5.149,12.8" transform="translate(-415.441 -984.533)" fill="#8bb73f"/>
    <path id="Path_106861" data-name="Path 106861" d="M2583.94,1781.927s.257-1.694.747-1.628.113,1.616.113,1.616" transform="translate(-1950.296 -1398.893)" fill="#fff"/>
    <path id="Path_106862" data-name="Path 106862" d="M2580.942,1779a.067.067,0,0,1-.067-.077c.028-.18.286-1.757.822-1.685a.281.281,0,0,1,.2.128c.256.375-.019,1.522-.031,1.57a.067.067,0,0,1-.081.05.066.066,0,0,1-.049-.081c.086-.357.292-1.535-.075-1.535-.3,0-.559.956-.652,1.573a.068.068,0,0,1-.066.057" transform="translate(-1947.298 -1395.904)" fill="#100f0d"/>
    <path id="Path_106863" data-name="Path 106863" d="M2590.45,1745.3s.877-.763,1.181-1.02c.594-.5,2-1.7,2.275-1.4.336.364-1.564,2.013-1.564,2.013s.686-.218.557.436c.281-.274.669.262.293.594,0,0,.605.1.021.72a3.236,3.236,0,0,1-1.39.891,1.418,1.418,0,0,0-1.132.92l-.242-3.147" transform="translate(-1956.663 -1362.25)" fill="#fff"/>
    <path id="Path_106864" data-name="Path 106864" d="M2587.519,1742.377l.22,2.873a1.468,1.468,0,0,1,1.062-.737,3.184,3.184,0,0,0,1.362-.873c.234-.249.253-.389.228-.463-.039-.114-.209-.145-.211-.145a.067.067,0,0,1-.034-.117.319.319,0,0,0-.039-.545.157.157,0,0,0-.163.05.067.067,0,0,1-.113-.061c.032-.159.014-.27-.053-.33-.109-.1-.338-.053-.418-.029a.067.067,0,0,1-.064-.115c.432-.375,1.558-1.437,1.581-1.839a.1.1,0,0,0-.022-.077c-.242-.265-1.96,1.24-2.182,1.411C2588.4,1741.609,2587.666,1742.249,2587.519,1742.377Zm.1,3.124-.242-3.148a.068.068,0,0,1,.023-.056c.5-.439,1.187-1.023,1.207-1.041,1.22-1.03,2.084-1.658,2.343-1.379a.231.231,0,0,1,.057.176c-.025.445-1.03,1.4-1.455,1.781a.366.366,0,0,1,.424.408c.307-.1.59.354.332.69a.35.35,0,0,1,.205.2c.054.158-.033.359-.257.6a3.314,3.314,0,0,1-1.418.908,1.353,1.353,0,0,0-1.091.883.067.067,0,0,1-.128-.022" transform="translate(-1953.662 -1359.297)" fill="#100f0d"/>
    <path id="Path_106865" data-name="Path 106865" d="M1551.24,1533.4c4.94,9.407,14.49,12.65,23.885,6.534l-1.257-6.156c-7.539,2.745-13.545,2.548-16.233-5.453" transform="translate(-940.27 -1152.449)" fill="#8bb73f"/>
    <path id="Path_106866" data-name="Path 106866" d="M1558.421,1765.663a.064.064,0,0,1-.019,0,14.426,14.426,0,0,1-2.1-.811,18.393,18.393,0,0,1-8.132-8.285.067.067,0,1,1,.119-.062,18.261,18.261,0,0,0,8.071,8.226,14.3,14.3,0,0,0,2.076.8.067.067,0,0,1-.019.131" transform="translate(-937.263 -1375.586)" fill="#100f0d"/>
    <path id="Path_106867" data-name="Path 106867" d="M2657.509,1836.6a3.987,3.987,0,0,0-.429.382" transform="translate(-2021.83 -1453.961)" fill="#fff"/>
    <path id="Path_106868" data-name="Path 106868" d="M2654.038,1834.033a.067.067,0,0,1,0-.1,4,4,0,0,1,.437-.388.067.067,0,1,1,.079.109,3.984,3.984,0,0,0-.421.375.067.067,0,0,1-.1,0" transform="translate(-2018.836 -1450.964)" fill="#100f0d"/>
    <path id="Path_106869" data-name="Path 106869" d="M2684.829,1855.53a4,4,0,0,0-.429.382" transform="translate(-2048.55 -1472.475)" fill="#fff"/>
    <path id="Path_106870" data-name="Path 106870" d="M2681.367,1852.962a.067.067,0,0,1,0-.095,3.963,3.963,0,0,1,.437-.389.067.067,0,0,1,.079.109,3.966,3.966,0,0,0-.421.375.066.066,0,0,1-.095,0" transform="translate(-2045.565 -1469.478)" fill="#100f0d"/>
    <path id="Path_106871" data-name="Path 106871" d="M2697.929,1882.24a3.987,3.987,0,0,0-.429.382" transform="translate(-2061.363 -1498.599)" fill="#fff"/>
    <path id="Path_106872" data-name="Path 106872" d="M2694.457,1879.67a.067.067,0,0,1,0-.095,3.941,3.941,0,0,1,.437-.389.067.067,0,0,1,.079.109,3.972,3.972,0,0,0-.421.375.067.067,0,0,1-.095,0" transform="translate(-2058.367 -1495.6)" fill="#100f0d"/>
    <path id="Path_106873" data-name="Path 106873" d="M1926.295,2042.5a14.1,14.1,0,0,1-6.045-1.4c.019-.052.037-.1.057-.154a3.117,3.117,0,0,1,5.987,1.551" transform="translate(-1301.178 -1651.897)" fill="#100f0d"/>
    <path id="Path_106874" data-name="Path 106874" d="M2460.084,1896.5l-1.653-4.853a.067.067,0,0,1,.042-.085.069.069,0,0,1,.085.042l1.653,4.853a.067.067,0,0,1-.127.044" transform="translate(-1827.539 -1507.714)" fill="#100f0d"/>
    <path id="Path_106875" data-name="Path 106875" d="M2505.061,1857.46a.488.488,0,1,0,.634-.275A.489.489,0,0,0,2505.061,1857.46Zm.224.758a.623.623,0,1,1,.808-.349.623.623,0,0,1-.808.349" transform="translate(-1872.983 -1473.929)" fill="#100f0d"/>
    <path id="Path_106876" data-name="Path 106876" d="M1735.113,1065.094l-.145-2.163a2.456,2.456,0,0,1-.309-.832,3.136,3.136,0,0,1,2.058-3.458,2.284,2.284,0,0,1,3.028,1.816c.02.1.03.2.04.3.188.4.741.931.545,1.194a1.429,1.429,0,0,1-.855.195c-.294.93-.433,1.854-1.869,1.8l.074,3.636" transform="translate(-1119.616 -692.959)" fill="#fbcdcd"/>
    <path id="Path_106877" data-name="Path 106877" d="M1734.7,1064.62a.068.068,0,0,1-.067-.066l-.074-3.636a.066.066,0,0,1,.07-.068c1.27.047,1.443-.618,1.8-1.751a.068.068,0,0,1,.066-.047,1.42,1.42,0,0,0,.8-.168c.1-.138-.1-.437-.287-.7a2.785,2.785,0,0,1-.272-.446c-.01-.1-.02-.2-.039-.289a2.217,2.217,0,0,0-2.942-1.766,3.07,3.07,0,0,0-2.012,3.382,2.391,2.391,0,0,0,.3.809.068.068,0,0,1,.01.03l.145,2.163a.067.067,0,0,1-.062.071.069.069,0,0,1-.072-.062l-.144-2.147a2.534,2.534,0,0,1-.309-.841,3.208,3.208,0,0,1,2.1-3.534,2.351,2.351,0,0,1,3.115,1.869c.02.1.03.194.039.289.2.4.766.942.533,1.252-.126.169-.61.221-.86.222-.342,1.1-.537,1.826-1.849,1.8l.073,3.565a.067.067,0,0,1-.066.069h0" transform="translate(-1116.635 -689.936)" fill="#100f0d"/>
    <path id="Path_106878" data-name="Path 106878" d="M1694.486,988.366s-.834.8-2.653.169c-2-.7,1.143.75-.876,1.88a3.365,3.365,0,0,0-.951,1.437s-3.048-4.062-.131-4.758c0,0-1.405-.83,1.566-1.405s4.886,1.406,3.045,2.677" transform="translate(-1074.625 -621.632)" fill="#100f0d"/>
    <path id="Path_106879" data-name="Path 106879" d="M1745.383,1168.464a.773.773,0,1,0-.676.86" transform="translate(-1128.644 -799.828)" fill="#fff"/>
    <path id="Path_106880" data-name="Path 106880" d="M1740.792,1165.666a.84.84,0,0,1,1.669-.2.067.067,0,0,1-.133.016.706.706,0,1,0-.617.785.066.066,0,0,1,.075.059.067.067,0,0,1-.059.075.839.839,0,0,1-.934-.737" transform="translate(-1125.654 -796.84)" fill="#100f0d"/>
    <path id="Path_106881" data-name="Path 106881" d="M1934.124,1139.613a.2.2,0,1,0,.131-.256.2.2,0,0,0-.131.256" transform="translate(-1314.737 -772.017)" fill="#100f0d"/>
    <path id="Path_106882" data-name="Path 106882" d="M1908.048,1116.036a.068.068,0,0,1-.016-.094.7.7,0,0,1,.97-.165.067.067,0,0,1-.078.109.561.561,0,0,0-.783.133.067.067,0,0,1-.094.016" transform="translate(-1289.216 -748.838)" fill="#100f0d"/>
    <path id="Path_106883" data-name="Path 106883" d="M1829.136,1289.555a1.916,1.916,0,0,1-.946-.355,2.784,2.784,0,0,0,.943.924l0-.54v-.029" transform="translate(-1211.139 -918.579)" fill="#100f0d"/>
    <path id="Path_106884" data-name="Path 106884" d="M1825.415,1286.41a2.7,2.7,0,0,0,.639.585l0-.387A1.95,1.95,0,0,1,1825.415,1286.41Zm.672.763a2.868,2.868,0,0,1-.966-.945.067.067,0,0,1,.095-.091,1.872,1.872,0,0,0,.91.343.067.067,0,0,1,.066.068l0,.569a.067.067,0,0,1-.1.057" transform="translate(-1208.127 -915.572)" fill="#100f0d"/>
    <path id="Path_106885" data-name="Path 106885" d="M1906.34,1238.22a.826.826,0,0,0,.854.423" transform="translate(-1287.573 -868.718)" fill="#fff"/>
    <path id="Path_106886" data-name="Path 106886" d="M1904.078,1235.72a.9.9,0,0,1-.794-.469.067.067,0,0,1,.121-.058.759.759,0,0,0,.786.385.065.065,0,0,1,.075.059.067.067,0,0,1-.059.075,1.093,1.093,0,0,1-.13.008" transform="translate(-1284.578 -865.722)" fill="#100f0d"/>
    <path id="Path_106887" data-name="Path 106887" d="M814.745,3993.756l-7.339-4.428.1-.157,7.339,4.428-.1.158" transform="translate(-212.767 -3559.27)" fill="#100f0d"/>
    <path id="Path_106888" data-name="Path 106888" d="M1784.337,4206l-.007-.185,8.267-.328.007.184-8.267.33" transform="translate(-1168.242 -3770.841)" fill="#100f0d"/>
    <path id="Path_106889" data-name="Path 106889" d="M1011.761,2608.483l-.131-.129a36.276,36.276,0,0,0,10.135-22.006,38.064,38.064,0,0,0-.447-11.246l.179-.042a38.3,38.3,0,0,1,.451,11.306,36.462,36.462,0,0,1-10.187,22.116" transform="translate(-412.507 -2176.208)" fill="#100f0d"/>
    <path id="Path_106890" data-name="Path 106890" d="M1311.108,611.905a1.467,1.467,0,1,1,2.156-1.99.064.064,0,1,1-.095.087,1.338,1.338,0,1,0-1.967,1.815.064.064,0,0,1-.095.087" transform="translate(-705.03 -253.748)" fill="#100f0d"/>
    <path id="Path_106891" data-name="Path 106891" d="M4025.82,2008.992a.065.065,0,0,1-.062-.067.066.066,0,0,1,.067-.062,1.338,1.338,0,1,0,.107-2.674.065.065,0,0,1-.062-.067.071.071,0,0,1,.067-.062,1.467,1.467,0,1,1-.117,2.932" transform="translate(-3360.458 -1619.7)" fill="#100f0d"/>
    <path id="Path_106894" data-name="Path 106894" d="M3121.455,3181.187a2.234,2.234,0,0,1-1.569-2.381c.214-.98,1.191-1.525,2.215-1.968.927-.4,1.934-.909,2.161-1.861.293-1.23-.774-2.183-1.7-2.933l-.045-.037c-1.5-1.206-2.969-2.48-4.381-3.786a12.652,12.652,0,0,1-2.253-2.528c-2.2-3.529.4-6.615,3.548-6.666a6.912,6.912,0,0,1,5.155,2.562,9.876,9.876,0,0,1,2.345,5.213c.194,1.538.037,3.2.738,4.569.489.957,1.353,1.685,1.839,2.661.788,1.58.439,3.436.3,5.1a.062.062,0,0,1-.07.059.065.065,0,0,1-.059-.07c.133-1.629.484-3.48-.29-5.031-.476-.955-1.344-1.694-1.838-2.659-.717-1.4-.556-3.074-.751-4.612a9.744,9.744,0,0,0-2.314-5.145,6.786,6.786,0,0,0-5.055-2.519c-2.967.049-5.626,2.958-3.441,6.469a12.56,12.56,0,0,0,2.231,2.5c1.409,1.3,2.881,2.577,4.375,3.781l.045.037c.969.78,2.061,1.751,1.749,3.063-.241,1.01-1.28,1.536-2.236,1.95-.992.429-1.938.954-2.14,1.878a2.1,2.1,0,0,0,1.486,2.231,5.27,5.27,0,0,0,2.945-.076,21.725,21.725,0,0,0,3.4-1.136.064.064,0,1,1,.051.118,21.755,21.755,0,0,1-3.418,1.143,5.359,5.359,0,0,1-3.018.073" transform="translate(-2469.756 -2747.353)" fill="#8bb73f"/>
    <path id="Path_106895" data-name="Path 106895" d="M3512.058,3540.436a.064.064,0,0,1-.057-.071c.656-6-2.563-14.717-4.539-19.379a.064.064,0,0,1,.119-.05c1.981,4.674,5.207,13.415,4.549,19.443a.064.064,0,0,1-.071.057" transform="translate(-2853.537 -3101.278)" fill="#100f0d"/>
    <path id="Path_106896" data-name="Path 106896" d="M3738.4,3813.338c.555.119,1.023.555,1.591.534a1.216,1.216,0,0,0,1.2-.987c.048-.565-.421-1.026-.852-1.395s-.9-.823-.866-1.389a1.24,1.24,0,0,1,.523-.869,3.856,3.856,0,0,1,.932-.469q1.512-.6,2.98-1.31a7.1,7.1,0,0,0,1.622-.98,2.664,2.664,0,0,0,.946-1.6,2.461,2.461,0,0,0-1.737-2.508,3.876,3.876,0,0,0-3.165.52,5.5,5.5,0,0,0-2.11,2.4,7.658,7.658,0,0,1-1.16,2.345c-.424.436-1.01.686-1.429,1.125a3.75,3.75,0,0,0-1,2.674c.041.283-.144,1.34,2.522,1.91" transform="translate(-3076.925 -3376.422)" fill="#8bb73f"/>
    <path id="Path_106897" data-name="Path 106897" d="M3714.2,3977.817a.065.065,0,0,1-.051-.076c.646-3.356,3.831-7.526,5.672-9.712a.064.064,0,0,1,.1.083c-1.833,2.177-5,6.326-5.644,9.654a.065.065,0,0,1-.076.051" transform="translate(-3055.69 -3538.57)" fill="#100f0d"/>
    <path id="Path_106898" data-name="Path 106898" d="M2500.532,2890.577a1.467,1.467,0,1,1,2.156-1.99.064.064,0,0,1-.094.087,1.338,1.338,0,1,0-1.967,1.815.063.063,0,0,1,0,.091.064.064,0,0,1-.091,0" transform="translate(-1868.338 -2482.389)" fill="#100f0d"/>
    <path id="Path_106901" data-name="Path 106901" d="M2698.115,577.165a4.613,4.613,0,1,1-4.613-4.614,4.613,4.613,0,0,1,4.613,4.614" transform="translate(-2052.941 -217.665)" fill="#fff"/>
    <path id="Path_106902" data-name="Path 106902" d="M2690.51,569.622a4.546,4.546,0,1,0,4.546,4.547A4.551,4.551,0,0,0,2690.51,569.622Zm0,9.227a4.681,4.681,0,1,1,4.68-4.68,4.685,4.685,0,0,1-4.68,4.68" transform="translate(-2049.949 -214.669)" fill="#100f0d"/>
    <path id="Path_106903" data-name="Path 106903" d="M2848.2,653.245a1.166,1.166,0,1,1-1.166-1.167,1.166,1.166,0,0,1,1.166,1.167" transform="translate(-2206.475 -295.446)" fill="#fff"/>
    <path id="Path_106904" data-name="Path 106904" d="M2844.043,649.154a1.1,1.1,0,1,0,1.1,1.1A1.1,1.1,0,0,0,2844.043,649.154Zm0,2.333a1.234,1.234,0,1,1,1.234-1.233,1.235,1.235,0,0,1-1.234,1.233" transform="translate(-2203.482 -292.455)" fill="#100f0d"/>
    <path id="Path_106905" data-name="Path 106905" d="M2787.7,788.022a2.443,2.443,0,1,1,4.887,0" transform="translate(-2149.582 -426.015)" fill="#fff"/>
    <path id="Path_106906" data-name="Path 106906" d="M2789.594,785.1a.067.067,0,0,1-.067-.067,2.376,2.376,0,1,0-4.752,0,.067.067,0,1,1-.135,0,2.511,2.511,0,1,1,5.021,0,.068.068,0,0,1-.067.067" transform="translate(-2146.589 -423.024)" fill="#100f0d"/>
    <path id="Path_106907" data-name="Path 106907" d="M2524.582,1101.725v2.992a.5.5,0,0,1-.5.495h-16.831a.5.5,0,0,1-.495-.495v-2.992a.5.5,0,0,1,.495-.5h16.831a.5.5,0,0,1,.5.5" transform="translate(-1874.811 -734.736)" fill="#fff"/>
    <path id="Path_106908" data-name="Path 106908" d="M2504.262,1098.3a.429.429,0,0,0-.428.428v2.992a.429.429,0,0,0,.428.428h16.831a.428.428,0,0,0,.428-.428v-2.992a.428.428,0,0,0-.428-.428Zm16.831,3.983h-16.831a.563.563,0,0,1-.562-.562v-2.992a.563.563,0,0,1,.562-.562h16.831a.563.563,0,0,1,.562.562v2.992a.563.563,0,0,1-.562.562" transform="translate(-1871.818 -731.743)" fill="#100f0d"/>
    <path id="Path_106909" data-name="Path 106909" d="M2524.582,1372.095v2.992a.5.5,0,0,1-.5.5h-16.831a.5.5,0,0,1-.495-.5v-2.992a.5.5,0,0,1,.495-.495h16.831a.5.5,0,0,1,.5.495" transform="translate(-1874.811 -999.17)" fill="#fff"/>
    <path id="Path_106910" data-name="Path 106910" d="M2504.262,1368.674a.429.429,0,0,0-.428.428v2.992a.429.429,0,0,0,.428.428h16.831a.428.428,0,0,0,.428-.428V1369.1a.428.428,0,0,0-.428-.428Zm16.831,3.983h-16.831a.563.563,0,0,1-.562-.562V1369.1a.563.563,0,0,1,.562-.562h16.831a.563.563,0,0,1,.562.562v2.992a.563.563,0,0,1-.562.562" transform="translate(-1871.818 -996.177)" fill="#100f0d"/>
    <path id="Path_106911" data-name="Path 106911" d="M2574.708,1433.643a.644.644,0,1,1-.643-.643.643.643,0,0,1,.643.643" transform="translate(-1940.007 -1059.222)" fill="#fff"/>
    <path id="Path_106912" data-name="Path 106912" d="M2571.072,1430.074a.576.576,0,1,0,.576.576A.577.577,0,0,0,2571.072,1430.074Zm0,1.286a.71.71,0,1,1,.71-.71.712.712,0,0,1-.71.71" transform="translate(-1937.014 -1056.229)" fill="#100f0d"/>
    <path id="Path_106913" data-name="Path 106913" d="M2677.467,1433.643a.644.644,0,1,1-.643-.643.643.643,0,0,1,.643.643" transform="translate(-2040.511 -1059.222)" fill="#fff"/>
    <path id="Path_106914" data-name="Path 106914" d="M2673.832,1430.074a.576.576,0,1,0,.575.576A.577.577,0,0,0,2673.832,1430.074Zm0,1.286a.71.71,0,1,1,.71-.71.712.712,0,0,1-.71.71" transform="translate(-2037.518 -1056.229)" fill="#100f0d"/>
    <path id="Path_106915" data-name="Path 106915" d="M2780.237,1433.643a.644.644,0,1,1-.643-.643.643.643,0,0,1,.643.643" transform="translate(-2141.024 -1059.222)" fill="#fff"/>
    <path id="Path_106916" data-name="Path 106916" d="M2776.591,1430.074a.576.576,0,1,0,.576.576A.577.577,0,0,0,2776.591,1430.074Zm0,1.286a.71.71,0,1,1,.711-.71.712.712,0,0,1-.711.71" transform="translate(-2138.022 -1056.229)" fill="#100f0d"/>
    <path id="Path_106917" data-name="Path 106917" d="M2883,1433.643a.644.644,0,1,1-.644-.643.643.643,0,0,1,.644.643" transform="translate(-2241.528 -1059.222)" fill="#fff"/>
    <path id="Path_106918" data-name="Path 106918" d="M2879.352,1430.074a.576.576,0,1,0,.576.576A.577.577,0,0,0,2879.352,1430.074Zm0,1.286a.71.71,0,1,1,.71-.71.712.712,0,0,1-.71.71" transform="translate(-2238.526 -1056.229)" fill="#100f0d"/>
    <path id="Path_106919" data-name="Path 106919" d="M2569.344,1162.693v.945a.173.173,0,0,1-.173.173h-7.608a.173.173,0,0,1-.173-.173v-.945a.173.173,0,0,1,.173-.173h7.608a.173.173,0,0,1,.173.173" transform="translate(-1928.241 -794.681)" fill="#f8d010"/>
  </g>
</svg>
