<svg width="115" height="287" viewBox="0 0 115 287" fill="none" xmlns="http://www.w3.org/2000/svg">
<path d="M0.673233 14.7908C3.47723 4.31159 14.2269 -1.90379 24.6873 0.89934C26.9718 1.51437 29.0497 2.50789 30.8797 3.79709L31.4464 1.68587C31.7416 0.579996 32.875 -0.070519 33.9789 0.219256C35.0828 0.514945 35.7321 1.65039 35.437 2.75627L34.7109 5.4766L78.3058 24.5012C82.0366 26.1275 83.9728 30.1607 82.922 34.0993L82.5265 35.5836L91.8122 38.0733C94.9645 38.919 97.6032 41.0894 99.0554 44.0226C100.502 46.9558 100.62 50.374 99.3742 53.3959C98.0046 56.7254 95.1121 59.2328 91.6233 60.1022L80.6375 62.8521C79.0141 63.2601 77.7391 64.5138 77.3081 66.1283C76.7296 68.2927 77.7804 70.5459 79.8052 71.498C86.6528 74.7092 90.2066 82.3439 88.2526 89.6651C85.1121 101.398 88.4238 114.083 96.8948 122.776L116.44 142.836C117.237 143.652 117.219 144.965 116.405 145.763C116.003 146.154 115.484 146.355 114.964 146.355C114.427 146.355 113.89 146.148 113.489 145.728L93.9433 125.668C84.4628 115.934 80.7556 101.729 84.268 88.5947C85.7083 83.2191 83.0991 77.6069 78.0637 75.2474C74.2208 73.4496 72.2314 69.1621 73.3294 65.0579C74.1499 61.9887 76.5702 59.6054 79.6458 58.8366L90.6316 56.0867C92.8512 55.5308 94.693 53.9341 95.5607 51.817C96.3517 49.895 96.275 47.7187 95.3541 45.85C94.4332 43.9812 92.7567 42.6033 90.7496 42.0651L81.4581 39.5695L81.4522 39.5814C80.4958 43.171 77.2078 45.6312 73.5714 45.6312C73.2409 45.6312 72.9103 45.6134 72.5797 45.572L67.0661 44.886C66.1393 46.1693 64.7226 47.0209 63.1759 47.2574L57.8395 58.1092C58.5774 59.9661 58.7132 62.0005 58.1878 63.9698C57.5443 66.3826 55.9977 68.3933 53.843 69.6411L53.6482 69.7475L106.086 265.801L121.759 261.596C124.516 260.857 127.402 261.236 129.876 262.667C132.349 264.098 134.12 266.41 134.858 269.172L134.929 269.426C135.071 269.958 135 270.52 134.722 270.999C134.445 271.478 133.996 271.821 133.465 271.963L80.8736 286.079C80.6965 286.127 80.5135 286.15 80.3365 286.15C79.4274 286.15 78.5891 285.541 78.3412 284.619L78.2703 284.364C76.7414 278.658 80.1358 272.768 85.8323 271.242L102.09 266.877L49.6695 70.8889C49.5101 70.8948 49.3507 70.9066 49.1914 70.9066C48.3826 70.9066 47.568 70.8002 46.7651 70.5873C41.8006 69.2508 38.8431 64.1176 40.1713 59.1441C40.6376 57.3996 41.5763 55.9152 42.8041 54.762L42.751 44.4011C41.5113 43.585 40.5904 42.3135 40.248 40.7996L39.3331 36.7427C39.0792 35.631 39.7758 34.5192 40.8915 34.2649C42.0072 34.0106 43.1111 34.7143 43.3649 35.8261L44.2799 39.877C44.4393 40.5808 45.0237 41.113 45.738 41.1958L62.1134 43.1769C62.8159 43.2597 63.5006 42.899 63.8312 42.2721L65.8029 38.511C66.3341 37.4997 67.5856 37.1094 68.5951 37.6416C69.6045 38.1739 69.9941 39.4276 69.4628 40.4389L69.1795 40.9829L73.0874 41.4679C75.0649 41.7103 76.9421 40.4448 77.4616 38.5169L78.9315 33.0171C79.451 31.0773 78.4947 29.0903 76.6588 28.286L33.6365 9.5098L26.6294 35.7078L33.6483 36.5772C34.7817 36.7191 35.5845 37.7481 35.4429 38.8835C35.313 39.9303 34.4216 40.6991 33.3945 40.6991C33.3118 40.6991 33.2233 40.6931 33.1406 40.6813L25.5551 39.741L24.7877 42.6092C24.5397 43.5318 23.7074 44.1468 22.7924 44.1468C22.6153 44.1468 22.4382 44.1231 22.2552 44.0758C21.1513 43.7801 20.502 42.6447 20.7971 41.5388L21.3638 39.4276C19.1383 39.6287 16.842 39.4513 14.5575 38.8362C4.07935 36.039 -2.13078 25.27 0.673233 14.7908ZM86.9067 275.245C84.0141 276.02 82.0897 278.628 82.0425 281.49L130.159 268.575C129.592 267.622 128.79 266.83 127.81 266.262C126.293 265.387 124.522 265.151 122.827 265.606L86.9067 275.245ZM44.1618 60.2145C43.418 62.9881 45.0709 65.8444 47.8336 66.5896C49.1736 66.9503 50.5727 66.767 51.7769 66.0692C52.9812 65.3713 53.8371 64.2536 54.1972 62.9112C54.5573 61.5688 54.3743 60.1672 53.6777 58.9608C52.9871 57.7544 51.8655 56.8969 50.5255 56.5362C50.0768 56.4179 49.6223 56.3587 49.1736 56.3587C48.2763 56.3587 47.385 56.5953 46.5881 57.0566C45.3779 57.7485 44.5219 58.8721 44.1618 60.2145ZM46.8891 45.5129L46.9245 52.503C48.4121 52.1304 50.0119 52.1127 51.5939 52.5384C52.8985 52.8874 54.0792 53.5083 55.0886 54.3421L58.725 46.944L46.8891 45.5129Z" fill="#DBDBDB"/>
</svg>
