<svg width="161" height="154" viewBox="0 0 161 154" fill="none" xmlns="http://www.w3.org/2000/svg">
<path d="M51.773 91.123H7.76228C3.71737 91.123 0.426758 94.4054 0.426758 98.4376C0.426758 102.471 3.71737 105.752 7.76228 105.752H51.773C55.8167 105.752 59.1085 102.471 59.1085 98.4376C59.1085 94.4054 55.8167 91.123 51.773 91.123ZM51.773 101.573L7.76228 103.306C6.02823 103.306 4.61797 100.167 4.61797 98.4376C4.61797 96.7085 4.84818 94.0952 6.58222 94.0952C6.58222 94.0952 49.3635 92.8348 51.773 95.3035C54.1824 97.7721 54.9161 96.7085 54.9161 98.4376C54.9161 100.167 53.507 101.573 51.773 101.573Z" fill="#8BB73F"/>
<path d="M59.777 136.714L19.0617 133.568C15.0384 133.151 11.4254 136.075 11.0075 140.086C10.5894 144.098 13.5224 147.7 17.5456 148.117L60.7842 151.439C64.8063 151.856 68.957 150.145 69.375 146.133C69.7929 142.123 63.7991 137.13 59.777 136.714ZM61.7538 148.496L17.9788 143.96C16.254 143.782 13.7593 142.11 13.9386 140.39C14.1176 138.671 16.9038 137.546 18.6285 137.725L60.6888 141.097C62.4136 141.276 65.3841 143.983 65.205 145.701C65.0258 147.421 63.4786 148.674 61.7538 148.496Z" fill="#8BB73F"/>
<path d="M152.761 42.4024L148.972 48.0758C147.245 51.0934 146.211 52.911 146.287 56.3868L146.404 61.619C146.427 62.6653 147.216 63.5134 148.224 63.6449C148.328 63.6584 148.437 63.6642 148.545 63.6626C149.702 63.6362 151.96 63.4179 150.593 61.5274C149.226 59.6369 150.476 56.2952 150.476 56.2952C150.417 53.5741 151.099 50.8893 152.451 48.5295L154.347 45.2155C157.616 39.4987 157.626 32.6381 154.779 27.0174C155.312 26.2101 155.669 25.6537 155.82 25.3876C158.969 19.8831 157.039 12.8479 151.52 9.7078C146.174 6.67477 139.405 8.37397 136.117 13.4721C136.117 13.4721 138.416 9.45574 133.504 13.0252C128.592 16.5947 121.622 3.84566 120.623 3.3838C119.624 2.92195 118.865 1.91853 117.82 2.42016C116.779 2.92359 116.347 4.17444 116.853 5.21362C119.922 11.5026 125.881 15.9638 132.793 17.1425L134.098 17.3657C123.066 33.818 87.0586 116.591 85.2785 120.371C84.817 121.354 85.1866 122.529 86.1292 123.069C86.3755 123.211 86.6387 123.297 86.9039 123.332C87.659 123.43 88.4386 123.111 88.8979 122.448C91.1766 119.173 137.951 51.8918 151.968 31.2057C153.186 35.0897 154.889 38.6833 152.761 42.4024ZM93.9495 107.851C110.748 72.2214 137.808 18.9192 139.438 16.0687C140.957 13.4147 143.903 12.0683 146.771 12.4423C147.687 12.5617 148.593 12.8559 149.441 13.3392C151.145 14.3067 152.368 15.8783 152.885 17.7631C153.39 19.6089 153.157 21.537 152.233 23.2098C151.925 22.8512 151.599 22.5025 151.261 22.1641C151.399 21.2861 151.357 20.381 151.115 19.498C150.665 17.8583 149.524 17.1614 148.121 15.6501C146.718 14.1388 144.918 14.5921 143.276 15.04C141.631 15.4887 140.261 16.5462 139.415 18.023C137.672 21.0722 139.855 24.9723 142.911 26.7129C143.653 27.1329 143.325 27.3833 144.123 27.4874C145.909 27.7203 147.73 27.1811 149.106 26.0099C149.357 26.3042 156.99 15.0014 149.817 26.9178C142.643 38.8341 113.116 80.2338 93.9495 107.851ZM146.862 22.2586C146.572 22.7659 146.101 23.1313 145.536 23.2856C144.976 23.4392 144.006 24.9509 143.873 23.0748C143.741 21.1986 142.458 21.1416 143.057 20.0958C143.346 19.5872 143.817 19.2253 144.38 19.0708C144.668 18.9925 144.959 18.9726 145.243 19.0097C145.52 19.0458 145.794 19.137 146.044 19.2805C146.552 19.5699 146.918 20.0396 147.074 20.6026C147.226 21.164 147.151 21.7536 146.862 22.2586Z" fill="#8BB73F"/>
<path d="M148.758 120.771C141.698 120.771 136.802 127.525 136.802 134.566C136.802 141.606 141.698 146.308 148.758 146.308C155.819 146.308 160.69 140.58 160.69 133.54C160.69 126.499 155.819 120.771 148.758 120.771ZM148.758 143.62C143.183 143.62 139.741 139.563 139.741 134.004C139.741 128.446 143.183 123.46 148.758 123.46C154.333 123.46 158.867 127.981 158.867 133.54C158.867 139.099 154.333 143.62 148.758 143.62Z" fill="#8BB73F"/>
<path d="M150.78 129.508C150.78 130.622 149.875 131.524 148.758 131.524C147.641 131.524 147.539 129.764 146.736 129.508C145.934 129.251 147.641 127.492 148.758 127.492C149.875 127.492 150.78 128.394 150.78 129.508Z" fill="#8BB73F"/>
<path d="M150.78 137.572C150.78 138.686 149.875 139.048 148.758 139.048C147.641 139.048 146.737 138.686 146.737 137.572C146.737 136.459 147.641 135.556 148.758 135.556C149.875 135.556 150.78 136.459 150.78 137.572Z" fill="#8BB73F"/>
<path d="M146.737 133.541C146.737 134.654 145.831 135.557 144.714 135.557C143.598 135.557 142.693 134.654 142.693 133.541C142.693 132.427 143.804 130.825 144.714 131.524C145.625 132.224 146.737 132.427 146.737 133.541Z" fill="#8BB73F"/>
<path d="M154.823 133.541C154.823 134.654 153.919 135.556 152.802 135.556C151.685 135.556 150.78 134.654 150.78 133.541C150.78 132.427 151.626 132.3 152.802 131.524C153.978 130.748 154.823 132.427 154.823 133.541Z" fill="#8BB73F"/>
<path d="M48.2971 67.5269C59.2746 67.5269 69.5871 59.1579 69.5871 48.2106C69.5871 37.2645 60.6554 28.3584 49.6779 28.3584C38.6992 28.3584 29.7676 37.2645 29.7676 48.2106C29.7676 59.1579 37.3185 67.5269 48.2971 67.5269ZM51.2952 33.3613C59.9618 33.3613 65.3959 39.5676 65.3959 48.2106C65.3959 56.8537 58.3446 63.8836 49.6779 63.8836C41.0101 63.8836 33.96 56.8537 33.96 48.2106C33.96 39.5676 42.6274 33.3613 51.2952 33.3613Z" fill="#8BB73F"/>
<path d="M52.8211 41.9417C53.2307 43.4441 51.4144 45.0771 49.678 45.0771C47.9416 45.0771 46.5337 43.6732 46.5337 41.9417C46.5337 40.2115 47.9416 38.8076 49.678 38.8076C51.4144 38.8076 52.4115 40.4394 52.8211 41.9417Z" fill="#8BB73F"/>
<path d="M52.8211 54.4802C52.8211 56.2117 51.8102 58.1488 50.0738 58.1488C48.3373 58.1488 46.5337 56.2117 46.5337 54.4802C46.5337 52.7488 47.9416 52.3027 49.678 52.3027C51.4144 52.3027 52.8211 52.7488 52.8211 54.4802Z" fill="#8BB73F"/>
<path d="M46.5335 48.2102C46.5335 49.9417 45.1268 51.3455 43.3904 51.3455C41.654 51.3455 40.2461 49.9417 40.2461 48.2102C40.2461 46.4787 42.8578 44.3425 43.3904 45.0761C43.923 45.8096 46.5335 46.4787 46.5335 48.2102Z" fill="#8BB73F"/>
<path d="M59.1085 48.2104C59.1085 49.9419 57.7006 51.3457 55.9654 51.3457C54.2289 51.3457 52.821 49.9419 52.821 48.2104C52.821 46.4789 53.253 44.3877 54.9894 44.3877C56.7247 44.3877 59.1085 46.4789 59.1085 48.2104Z" fill="#8BB73F"/>
<path d="M40.299 109.914L20.1873 110.723C19.0288 110.723 18.0911 111.658 18.0911 112.813C18.0911 113.968 19.0288 114.902 20.1873 114.902C20.1873 114.902 40.8834 114.266 42.3413 114.902C43.7993 115.537 44.4375 113.968 44.4375 112.813C44.4375 111.658 41.4574 109.914 40.299 109.914Z" fill="#8BB73F"/>
<path d="M32.1631 123.261C32.1631 124.416 33.0997 125.351 34.2581 125.351H62.9994C64.1578 125.351 65.0944 124.416 65.0944 123.261C65.0944 122.106 64.1578 121.172 62.9994 121.172C62.9994 121.172 35.8366 122.487 34.2581 121.172C32.6796 119.857 32.1631 122.106 32.1631 123.261Z" fill="#8BB73F"/>
<path d="M15.8943 129.53C15.8943 130.685 18.1307 131.619 19.2892 131.619H31.8628C33.0212 131.619 33.959 130.685 33.959 129.53C33.959 128.375 32.8123 126.589 31.8628 127.44C30.9133 128.291 19.2892 127.44 19.2892 127.44C18.1307 127.44 15.8943 128.375 15.8943 129.53Z" fill="#8BB73F"/>
</svg>
