<svg width="155" height="155" viewBox="0 0 155 155" fill="none" xmlns="http://www.w3.org/2000/svg">
<path d="M120.441 49.1387L114.441 55.6387L146.441 87.6387L152.941 81.1387L120.441 49.1387Z" fill="#8BB73F"/>
<mask id="mask0_1_639" style="mask-type:luminance" maskUnits="userSpaceOnUse" x="0" y="0" width="155" height="155">
<path d="M0.440918 0.138687H154.441V154.139H0.440918V0.138687Z" fill="white"/>
</mask>
<g mask="url(#mask0_1_639)">
<path d="M92.6097 81.5701C62.0552 68.2067 73.0108 25.1035 88.581 25.1035C103.792 25.1035 98.1149 47.7166 84.5202 63.1289M77.7078 69.6405C72.0044 74.1655 65.5229 77.1387 58.8822 77.1387C47.2053 77.1387 39.0812 63.7521 53.7885 36.2631C63.2589 18.5615 65.598 2.39455 50.3575 2.39455C40.7526 2.39455 30.6795 9.3826 22.3066 33.4165M98.9538 128.518L77.9412 119.946M74.5039 101.194L93.9804 109.139M137.009 90.4624L111.52 80.0647M130.451 97.02L103.347 85.9633M97.5536 95.0129L107.682 119.842M114.452 113.812L99.2302 76.4995M143.07 85.6577L125.301 103.427M118.55 110.177L87.5551 141.173M116.339 58.9264L86.4241 88.8409M80.1092 95.1555L60.8238 114.441M129.245 58.0896L121.636 50.481C120.743 49.5883 119.296 49.5883 118.404 50.481L115.256 53.6287C114.363 54.5214 114.363 55.9688 115.256 56.8615L145.135 86.7408C146.028 87.6335 147.475 87.6335 148.368 86.7408L151.516 83.5931C152.408 82.7004 152.408 81.2531 151.516 80.3603L135.535 64.3798M55.5258 113.358L50.7831 118.101C49.8904 118.994 49.8904 120.441 50.7831 121.334L80.6624 151.213C81.5551 152.106 83.0025 152.106 83.8952 151.213L88.6379 146.47C89.5309 145.578 89.5309 144.13 88.6379 143.237L58.7589 113.358C57.8662 112.466 56.4188 112.466 55.5258 113.358ZM5.92907 86.5622C5.11907 88.4838 2.22796 87.497 2.76215 85.4811C8.10312 65.3177 15.1092 38.9605 15.6578 37.3528C16.5533 34.7303 19.405 33.3302 22.0275 34.2253C24.6503 35.1207 26.0504 37.9725 25.1553 40.595C24.6064 42.2026 14.0324 67.3419 5.92907 86.5622Z" stroke="#6E6E6E" stroke-width="2" stroke-miterlimit="10" stroke-linecap="round" stroke-linejoin="round"/>
</g>
<path d="M56.4409 113.139L50.4409 119.639L82.4409 151.639L88.9409 145.139L56.4409 113.139Z" fill="#8BB73F"/>
</svg>
