<svg xmlns="http://www.w3.org/2000/svg" width="126.981" height="108" viewBox="0 0 126.981 108">
  <g id="needle" transform="translate(0 -38.267)">
    <path id="Path_16614" data-name="Path 16614" d="M126.439,55.945a1.85,1.85,0,0,0-2.616,0L112.345,67.423A10.012,10.012,0,0,1,98.37,67.6c.2-.182.379-.358.545-.524a17.114,17.114,0,0,0,5.06-12,16.555,16.555,0,0,0-4.863-11.955,16.962,16.962,0,0,0-23.958.2c-.583.583-1.273,1.36-2.037,2.293a27.16,27.16,0,0,0-10.7-2.177h-.169A27.216,27.216,0,0,0,43,89.9l7.842,7.839L6.754,135.48,40.5,96.055a1.85,1.85,0,1,0-2.811-2.406L.823,136.719A3.265,3.265,0,0,0,1,141.236a3.265,3.265,0,0,0,4.517.175L53.471,100.36l17.375,17.364c-3.1,3.1-9.958,10.566-9.958,15.947a12.6,12.6,0,0,0,25.191,0c0-5.381-6.863-12.851-9.959-15.947l2.024-2.024a13.135,13.135,0,0,0,0-18.576L75.8,94.778a1.85,1.85,0,0,0-2.616,2.616l2.347,2.347a9.435,9.435,0,0,1,0,13.343l-2.045,2.045C69.054,110.7,54.465,96.124,46.91,88.571l9.043-10.564a80.074,80.074,0,0,0,9.709-14.261,113.613,113.613,0,0,1,8.511-13.472,23.645,23.645,0,0,1,4.874,3.749l6.159,6.159L83.55,61.838a2.232,2.232,0,0,1-3.153,0,2.269,2.269,0,0,1-.176-.2,1.85,1.85,0,0,0-2.6-.3,1.976,1.976,0,0,0,.158,3.117,5.937,5.937,0,0,0,8.386,0l5.8-5.8a5.93,5.93,0,0,0-8.386-8.386L82.052,51.8l-.389-.389a27.4,27.4,0,0,0-5.176-4.064c.47-.552.9-1.027,1.283-1.407a13.258,13.258,0,0,1,18.725-.2,12.881,12.881,0,0,1,3.78,9.3A13.435,13.435,0,0,1,96.3,64.465c-2.719,2.719-10.125,7.991-17.811,12.108a80.086,80.086,0,0,0-14.261,9.709L58.48,91.2a1.85,1.85,0,1,0,2.406,2.811l5.748-4.92a76.4,76.4,0,0,1,13.6-9.258A112.75,112.75,0,0,0,95.521,70l.041.041a13.717,13.717,0,0,0,19.4,0l11.478-11.478a1.851,1.851,0,0,0,0-2.617ZM86.2,52.884a2.23,2.23,0,0,1,3.154,3.154l-1.529,1.529-3.154-3.153ZM73.483,142.567a8.906,8.906,0,0,1-8.9-8.9c0-3.351,5.027-9.492,8.9-13.356,3.868,3.86,8.895,10,8.895,13.356a8.906,8.906,0,0,1-8.9,8.9ZM62.4,62a76.375,76.375,0,0,1-9.258,13.6L44.336,85.889A23.517,23.517,0,0,1,62.249,47.136h.169a23.515,23.515,0,0,1,8.352,1.521A116.556,116.556,0,0,0,62.4,62Z" transform="translate(0)" fill="#bbd294"/>
  </g>
</svg>
