<svg xmlns="http://www.w3.org/2000/svg" width="131" height="109" viewBox="0 0 131 109">
  <g id="Group_43171" data-name="Group 43171" transform="translate(-1203 -8469)">
    <rect id="Rectangle_1783" data-name="Rectangle 1783" width="131" height="109" rx="8" transform="translate(1203 8469)" fill="#f8d010"/>
    <g id="Group_33803" data-name="Group 33803" transform="translate(-19306.305 7488.56)">
      <g id="co2_1_" data-name="co2 (1)" transform="translate(20464.367 973.831)">
        <g id="Group_33803-2" data-name="Group 33803">
          <g id="Group_24741" data-name="Group 24741" transform="translate(84.443 33.996)">
            <g id="Group_24740" data-name="Group 24740">
              <path id="Path_23634" data-name="Path 23634" d="M98.96,55.932c.641-1.415,2.316-3.113,2.316-4.689a10.992,10.992,0,0,0-16.182-9.686,10.991,10.991,0,0,0-17.488,2.13A11,11,0,0,0,54.394,57.612a10.988,10.988,0,0,0,6.368,19.279q-.018.318-.019.638a10.988,10.988,0,0,0,19.983,6.31,10.988,10.988,0,0,0,18.746-6.861,11,11,0,0,0,8.539-10.714C108.012,61.417,103.46,57.342,98.96,55.932Zm-.88,18.715a1.27,1.27,0,0,0-1.112,1.285c0,.053,0,.107,0,.16a8.459,8.459,0,0,1-8.45,8.45c-2.762,0-5.629-.3-7.211-2.567-.259-.372-.612-2.6-1.062-2.561s-.407,3.185-.6,3.6c-1.385,2.961-4.648,2.967-7.915,2.967-4.659,0-10.038-3.253-10.038-7.912a17.31,17.31,0,0,1,.725-2.225c.077-.387.421-.7.161-1-.242-.276-.074-.247-.438-.247-.027,0-.323,0-.35,0-.192.012-.394.085-.57.085-4.659,0-8.1-4.088-8.1-8.747a8.478,8.478,0,0,1,3.518-6.861,1.27,1.27,0,0,0,.432-1.514A20.792,20.792,0,0,1,55.586,52.6c0-4.659,4.639-6.714,9.3-6.714a8.421,8.421,0,0,1,2.928.521,1.269,1.269,0,0,0,1.6-.677,8.46,8.46,0,0,1,7.731-5.035c2.633,0,4.3-1.11,5.914.975.41.53,1.933,2.955,2.487,2.579A8.45,8.45,0,0,1,97.316,55.932c-.243.363-1,1.9-.823,2.3s1.27-.394,1.7-.334a8.45,8.45,0,0,1-.117,16.752Z" transform="translate(-50.583 -38.156)" fill="#353535"/>
            </g>
          </g>
          <path id="Path_23635" data-name="Path 23635" d="M20.133,365.089a4.822,4.822,0,0,0-4.817-4.817c-1.334,0-2.047,1.912-2.945,2.849-.336-.074-1.207-1.485-1.557-1.485-2.656,0-3.964,2.161-3.964,4.817,0,2.413.931,4.417,3.249,4.763a4.818,4.818,0,0,0,9.073-3.243A4.818,4.818,0,0,0,20.133,365.089Zm-2.786,1.946c-.461.408-1.087.847-.766,1.373a2.272,2.272,0,0,1,.331,1.184c0,1.256-1.022,3.245-2.278,3.245-1.162,0-2.135-1.837-2.263-2.989a1.27,1.27,0,0,0-1.26-1.129c-.035,0-.07,0-.106,0-.072.006-.135.009-.191.009a2.278,2.278,0,0,1,0-4.555,2.256,2.256,0,0,1,.95.208,1.269,1.269,0,0,0,1.611-.487,2.266,2.266,0,0,1,1.941-1.085c1.256,0,3.5.108,3.5,1.364A6.544,6.544,0,0,1,17.347,367.035Z" transform="translate(72.15 -286.185)" fill="#353535"/>
          <g id="Group_24746" data-name="Group 24746" transform="translate(117.004 70.97)">
            <g id="Group_24745" data-name="Group 24745">
              <g id="Group_24744" data-name="Group 24744">
                <path id="Path_23636" data-name="Path 23636" d="M320.559,364.307c-.86.838-1.744,2.216-2.945,2.216-.8,0-1.834-1.124-2.52-1.517-.609-.348-2.5-1.38-2.847-.772s.977,2.628,1.586,2.976a7.121,7.121,0,0,0,8.5-1.085,1.269,1.269,0,1,0-1.772-1.818Z" transform="translate(-312.19 -360.373)" fill="#353535"/>
                <path id="Path_23637" data-name="Path 23637" d="M391.274,335.276c-.7-.078-1.238-.152-1.315.544-.011.1-.112.776-.13.875a1.269,1.269,0,0,0,1.026,1.473,1.284,1.284,0,0,0,.225.02,1.27,1.27,0,0,0,1.248-1.046c.027-.153-.044-.895-.026-1.049C392.38,335.4,391.971,335.354,391.274,335.276Z" transform="translate(-380.148 -335.228)" fill="#353535"/>
              </g>
            </g>
          </g>
          <g id="Group_24748" data-name="Group 24748" transform="translate(96.52 51.147)">
            <g id="Group_24747" data-name="Group 24747">
              <path id="Path_23638" data-name="Path 23638" d="M155.74,185.845c-.6,0-.449,1.967-.49,2.506-.083.913-.789.955-2.905.955-1.639,0-3.333-.683-2.925-2.535l-.545-7.05c0-1.826,1.831-1.8,3.428-1.8a2.145,2.145,0,0,1,2.427,2.22,1.737,1.737,0,0,0,1.418,1.35c.747,0,.781-.831.781-1.765,0-2.2-1.867-3.755-4.71-3.755-2.51,0-4.606,1.266-4.606,4.626v6.037c0,3.361,2.075,4.626,4.585,4.626,2.842,0,4.73-1.6,4.73-3.88C156.929,186.464,156.507,185.845,155.74,185.845Z" transform="translate(-147.614 -175.966)" fill="#353535"/>
            </g>
          </g>
          <g id="Group_24750" data-name="Group 24750" transform="translate(107.744 51.147)">
            <g id="Group_24749" data-name="Group 24749">
              <path id="Path_23639" data-name="Path 23639" d="M242.439,175.965c-2.635,0-4.647,1.266-4.647,4.627v6.037c0,3.361,2.013,4.626,4.647,4.626,2.614,0,4.668-1.266,4.668-4.626l-.408-6.193C246.7,177.075,245.053,175.965,242.439,175.965Zm2.469,10.664c0,1.826-.311,3.66-1.846,3.66-1.556,0-4.19-1.812-4.19-3.637l1.119-6.06c0-1.826.962-3.194,2.518-3.194,1.535,0,2.4,1.368,2.4,3.194Z" transform="translate(-237.792 -175.965)" fill="#353535"/>
            </g>
          </g>
          <g id="Group_24752" data-name="Group 24752" transform="translate(118.885 51.147)">
            <g id="Group_24751" data-name="Group 24751">
              <path id="Path_23640" data-name="Path 23640" d="M334.7,188.816l-5.985.645.138-.921c0-2.386,7.442-3.985,7.442-8.446a4.188,4.188,0,0,0-4.44-4.129c-2.261,0-4.253,1.452-4.253,3.672,0,.934.415,1.224,1,1.224.726,0,.577-.977.577-1.392,0-1.411,1.518-1.492,2.68-1.492,1.577,0,2.845,1.948,2.845,2.965,0,3.195-7.388,4.089-7.388,7.45v2.013c0,.436.56.726.975.726h7.386c.374,0,.961-.876.961-1.395S335.07,188.816,334.7,188.816Z" transform="translate(-327.308 -175.965)" fill="#353535"/>
            </g>
          </g>
        </g>
      </g>
    </g>
  </g>
</svg>
