<svg xmlns="http://www.w3.org/2000/svg" width="116.724" height="87.745" viewBox="0 0 116.724 87.745">
  <g id="Group_24704" data-name="Group 24704" transform="translate(0.001 0)">
    <path id="path14" d="M196.936-446.875a8.323,8.323,0,0,0-.866,2.221c-.348.962-.68,1.93-1.023,2.894q-.49,1.377-.973,2.757a9.61,9.61,0,0,0-.758,2.388.129.129,0,0,0,.239.065,11.986,11.986,0,0,0,.823-2.218c.358-.961.739-1.914,1.114-2.869.357-.909.729-1.814,1.062-2.732a7.15,7.15,0,0,0,.726-2.412.186.186,0,0,0-.344-.093h0" transform="translate(-171.672 462.609)" fill="#392621"/>
    <path id="path16" d="M638.2-454.486c-.319-1.839-1.51-3.6-2.363-5.236-.783-1.5-1.52-3.1-2.436-4.527-.221-.344-.775-.021-.549.321.86,1.3,1.56,2.764,2.3,4.13q.722,1.327,1.418,2.669a12.957,12.957,0,0,1,1.271,2.741c.057.234.4.132.356-.1h0" transform="translate(-542 477.302)" fill="#392621"/>
    <path id="path18" d="M390.716-389.752c-.258-1.925-2.245-3.459-3.047-4.1a2.676,2.676,0,0,0-.731-.367A14.728,14.728,0,0,1,388-398.965s-2.893-2.767-4.811,1.647c-1.3,3.074-.33,4.388-1.558,5.466s-2.17,4.5,1.756,5.13a7.132,7.132,0,0,0,1.417.1,1.876,1.876,0,0,0,.333.052c1.533.086,6.124-.5,5.582-3.179" transform="translate(-329.451 422.889)" fill="#12212b"/>
    <path id="path20" d="M197.4-468.63l.451.332a28.967,28.967,0,0,0-3.2-3.193,9.028,9.028,0,0,0-1.831-1.283,10.72,10.72,0,0,0-3.645-.83c-.386-.042-3.2-.15-1.925.872a7.121,7.121,0,0,0,1.724.539,49.6,49.6,0,0,0-5.216,1.576.741.741,0,0,0-.376.232c-.171.245.029.609.309.714a1.549,1.549,0,0,0,.868-.035c-.178.12-.415.106-.6.244a.418.418,0,0,0-.161.2.338.338,0,0,0,.112.34.724.724,0,0,0,.342.152,1.764,1.764,0,0,0,1.037-.1,1.488,1.488,0,0,0-.855.615.447.447,0,0,0,.176.559.5.5,0,0,0,.33.031,6,6,0,0,0,1.378-.374,3.66,3.66,0,0,0-.635.5.414.414,0,0,0-.117.164.285.285,0,0,0,.2.327,2.946,2.946,0,0,0,1.662-.364c.69-.313,1.428-.51,2.117-.838a6.177,6.177,0,0,1,1.94-.723c.69-.073,1.112.107,1.813.84a4.887,4.887,0,0,1,.941,1.612" transform="translate(-163.256 485.082)" fill="#f7ac95"/>
    <path id="path22" d="M574.039-489.274l-.411.381a28.978,28.978,0,0,1,2.81-3.536,9.028,9.028,0,0,1,1.673-1.484,10.717,10.717,0,0,1,3.526-1.24c.379-.085,3.16-.513,2.012.647a7.118,7.118,0,0,1-1.651.732,49.632,49.632,0,0,1,5.362.971.74.74,0,0,1,.4.188.516.516,0,0,1-.225.744,1.552,1.552,0,0,1-.866.064c.19.1.424.058.625.173a.419.419,0,0,1,.182.178.338.338,0,0,1-.072.351.723.723,0,0,1-.323.19,1.764,1.764,0,0,1-1.042.02,1.489,1.489,0,0,1,.92.513.448.448,0,0,1-.111.575.5.5,0,0,1-.324.068,5.99,5.99,0,0,1-1.412-.215,3.665,3.665,0,0,1,.688.424.411.411,0,0,1,.135.15.284.284,0,0,1-.159.347,2.944,2.944,0,0,1-1.692-.172c-.721-.232-1.477-.345-2.2-.592a6.182,6.182,0,0,0-2.01-.5c-.694.006-1.093.233-1.7,1.041a4.889,4.889,0,0,0-.751,1.709" transform="translate(-492.137 503.343)" fill="#f7ac95"/>
    <path id="path24" d="M267.352-435.831c-4.044-.585-7.04-4.049-9.076-7.592-2.761-4.807-4.86-9.647-9.5-12.994a4.12,4.12,0,0,0-2.621-1.016,4.5,4.5,0,0,0-2.1.963l-1.833,1.265c-1.069.738-.76,2.546-.677,3.632a19.583,19.583,0,0,0,1.387,6.171,15.486,15.486,0,0,0,2.915,4.006c1.467,1.618,2.867,3.288,4.359,4.882,2.44,2.609,4.874,5.394,5.953,8.8a48.017,48.017,0,0,1,2.021,6.981" transform="translate(-212.222 471.744)" fill="#f8d010"/>
    <path id="path26" d="M459.622-447.142a7.448,7.448,0,0,0,5.413-1.228,12.2,12.2,0,0,0,3.071-3.439,34.869,34.869,0,0,0,2.733-5.034c.849-1.925,1.524-3.929,2.515-5.785a10.824,10.824,0,0,1,4.2-4.588c1.61-.865,3.914.245,5.355,1.369,2.817,2.2,1.823,7.324.381,10.592s-4,5.885-6.445,8.494-4.874,5.394-5.954,8.8c-.659,2.08-1.8,3.777-2.1,5.938" transform="translate(-396.071 479.939)" fill="#f8d010"/>
    <path id="path28" d="M422.039-182.561c.318.318-.5,17.117,0,19.873,4.763.978,11.541,1.244,14.105.089.787-5.333.14-21.251.14-21.251l.054-10.3-9.181,2.485-5.118,9.1" transform="translate(-364.263 249.583)" fill="#12212b"/>
    <path id="path30" d="M357.095-182.561c.319.318-.5,17.117,0,19.873,4.763.978,11.189,1.156,13.754,0,.787-5.333.492-21.162.492-21.162l.054-10.3-9.181,2.485-5.118,9.1" transform="translate(-309.539 249.582)" fill="#12212b"/>
    <path id="path32" d="M445.376-106.986l.055-.677c.019-.226.044-.45.053-.676.022-.452.055-.9.067-1.355l.054-1.356.034-1.357c.033-1.809.067-3.619.084-5.429l.06-5.431.032-2.716.053-2.717c.056.9.083,1.81.121,2.716l.067,2.717c.038,1.812.036,3.624.021,5.436s-.068,3.625-.167,5.435a46.368,46.368,0,0,1-.535,5.412" transform="translate(-384.067 194.433)" fill="#e0af8a"/>
    <path id="path34" d="M366.4-99.848s.094,14.631.094,16.882" transform="translate(-317.52 170.12)" fill="none" stroke="#e0af8a" stroke-width="2.259"/>
    <path id="path36" d="M371.455-99.848s.094,14.751.094,17" transform="translate(-321.778 170.12)" fill="none" stroke="#e0af8a" stroke-width="2.259"/>
    <path id="path38" d="M413.351-298.682s6.328,2.444,10.713-.875,1.9-20.989,1.9-20.989l-5.914-1.539-1.966.289-2.105.938-3.385,1.9-.192,9.171.952,11.109" transform="translate(-356.279 357.385)" fill="#efdac3"/>
    <path id="path40" d="M430.3-357.007a4.91,4.91,0,0,0,.3,2.711c-1.363,1.659-1.8,2.039-2.658,1.766s-2.589-2.244-2.471-2.57a19.477,19.477,0,0,0-.362-3.008l.5-.5,4.686,1.6" transform="translate(-366.99 388.159)" fill="#f7ac95"/>
    <path id="path42" d="M341.223-313.009a9.924,9.924,0,0,0-.094-1.247,35.613,35.613,0,0,0-.68-3.559c-.13-.559-.344-1.137-.434-1.7-.111-.687-.1-1.39-.234-2.079-.071-.377-.157-.752-.244-1.127-.057-.248-.115-.5-.184-.742a16.387,16.387,0,0,0-.668-1.818.185.185,0,0,0-.075-.1.185.185,0,0,0-.14.01,8,8,0,0,1-2.537.454,2.4,2.4,0,0,0-1.637.785,18.072,18.072,0,0,1-1.522,1.13,12.07,12.07,0,0,0-1.6.891c-.6,4.478-2.852,8.325-3.693,12.648q-1.5,7.712-3.006,15.423c-.334,1.716-1.359,4.954-.376,6.609.914,1.537,4.2,1.542,5.772,1.876,3.354.716,6.935,1.417,10.135.182-.256-5.111.6-10.394.574-15.55-.018-3.822.64-9.333.64-12.089" transform="translate(-281.527 360.475)" fill="#f8d010"/>
    <path id="path44" d="M477.8-323.916c.629,3.016,1.2,7.206,1.7,10.245.27,1.613,1.492,18.076,1.849,23a1.493,1.493,0,0,1-1.339,1.594c-.629.063-1.224.087-1.832.113-1.525.065-3.049.108-4.576.11-1.873,0-4.155.232-5.975-.319-1.767-.536,1.24-10.847.872-15.735s-1.433-22.635-1.433-22.635v-1.632s10.477,3.445,10.729,5.261" transform="translate(-402.349 363.361)" fill="#f8d010"/>
    <path id="path46" d="M340.477-267.762h-.042a40.3,40.3,0,0,1-13.685-2.469l.1-.249a39.5,39.5,0,0,0,13.6,2.451h.035a1.4,1.4,0,0,0,1.385-1.258l0-.026c.088-.851.533-8.894.533-10.712,0-1.776.309-7.8.431-8.772a53.909,53.909,0,0,0,.355-7.165c-.153-1.855-1.86-8.26-1.877-8.324l.257-.069c.071.264,1.731,6.492,1.885,8.372a54.186,54.186,0,0,1-.356,7.22c-.121.968-.429,6.968-.429,8.739,0,1.823-.446,9.886-.534,10.74l-.135.012.133.014a1.671,1.671,0,0,1-1.65,1.5" transform="translate(-284.108 342.445)" fill="#122b3e"/>
    <path id="path48" d="M414.679-334.373a1.021,1.021,0,0,0-.245.208,4.559,4.559,0,0,0-.732,1.1,2.369,2.369,0,0,0,.876,2.73c1.985,1.393,4.476-2.535,4.476-2.535-1.578.192-2.465-1.362-3.3-2.358-.273.2-.488.457-.754.657-.1.076-.212.135-.316.2" transform="translate(-357.252 368.464)" fill="#60c8d2"/>
    <path id="path50" d="M418.743-277.737c.029.113-.178.264-.463.339s-.54.043-.569-.07.178-.265.463-.339.54-.043.569.07" transform="translate(-360.752 320.109)" fill="#122b3e"/>
    <path id="path52" d="M422.939-246.143c.007.116-.226.224-.521.241s-.538-.064-.544-.18.226-.224.521-.241.538.064.544.18" transform="translate(-364.263 293.547)" fill="#122b3e"/>
    <path id="path54" d="M421.1-209.969c.007.116-.226.224-.521.241s-.538-.064-.544-.18.227-.224.521-.241.538.064.544.181" transform="translate(-362.71 263.067)" fill="#122b3e"/>
    <path id="path56" d="M418.686-167.616c-.007.116-.251.2-.545.18s-.527-.125-.52-.241.251-.2.544-.18.527.125.52.242" transform="translate(-360.679 227.429)" fill="#122b3e"/>
    <path id="path58" d="M416.28-125.972c-.007.116-.251.2-.544.18s-.527-.125-.52-.242.251-.2.545-.18.527.125.52.241" transform="translate(-358.652 192.339)" fill="#193957"/>
    <path id="path60" d="M412.9-92.595c-.007.117-.25.2-.545.18s-.527-.125-.52-.242.251-.2.545-.18.527.125.52.241" transform="translate(-355.801 164.214)" fill="#122b3e"/>
    <path id="path62" d="M472.731-277.886c-1.148,0-2.165-.036-2.862-.093a.864.864,0,0,1-.793-.752,20.152,20.152,0,0,1,.165-3.922l.065-.6c.308-2.809.95-8.653.872-9.974-.018-.306-.069-1.12-.138-2.222-.264-4.217-.756-12.067-.756-13.015,0-1.184-.264-7.083-.266-7.143l.266-.012c0,.059.267,5.965.267,7.155,0,.94.51,9.085.755,13,.069,1.1.12,1.917.138,2.223.079,1.343-.564,7.2-.873,10.019l-.065.6a19.943,19.943,0,0,0-.166,3.862.6.6,0,0,0,.55.517,40.758,40.758,0,0,0,9.8-.49,3.824,3.824,0,0,1,1.427,0,6.537,6.537,0,0,0,.816.068v.267a6.727,6.727,0,0,1-.849-.07,3.56,3.56,0,0,0-1.33,0,34.213,34.213,0,0,1-7.027.589" transform="translate(-403.989 351.933)" fill="#193957"/>
    <path id="path64" d="M448.5-338.43s1.776,1.795,3.2,1.084.748-3.848-1.792-4.479a3.362,3.362,0,0,1-1.406,3.4" transform="translate(-386.703 374.02)" fill="#60c8d2"/>
    <path id="path66" d="M441.224-319.893c-.513.869-1.149,2.307-.486,2.879.03.026.131.108.179.082C441.2-317.076,441.292-318.49,441.224-319.893Zm-.327,3.323a.6.6,0,0,1-.392-.175c-1.2-1.041.638-3.692.717-3.8a.177.177,0,0,1,.193-.069.178.178,0,0,1,.13.158c.063.815.216,3.5-.467,3.847a.4.4,0,0,1-.181.043" transform="translate(-379.619 356.154)" fill="#60c8d2"/>
    <path id="path68" d="M448.127-320.292c.292,1.374.736,2.72,1.051,2.787.056.012.13-.093.153-.125C449.826-318.354,448.845-319.583,448.127-320.292Zm1.062,3.143a.415.415,0,0,1-.085-.009c-.749-.16-1.285-2.8-1.431-3.6a.177.177,0,0,1,.086-.185.177.177,0,0,1,.2.018c.105.089,2.561,2.183,1.662,3.5a.533.533,0,0,1-.435.281" transform="translate(-386 356.444)" fill="#60c8d2"/>
    <path id="path70" d="M447.552-306.993a.177.177,0,0,1-.1-.029.177.177,0,0,1-.052-.246c.557-.858.208-6.964.026-9.245a.178.178,0,0,1,.163-.191.176.176,0,0,1,.191.163c.068.852.642,8.352-.082,9.467a.178.178,0,0,1-.149.081" transform="translate(-385.75 352.852)" fill="#60c8d2"/>
    <path id="path72" d="M450.4-305.3a.178.178,0,0,1-.16-.1c-.556-1.134-1.764-7.547-1.815-7.819a.178.178,0,0,1,.142-.208.178.178,0,0,1,.208.142,74.614,74.614,0,0,0,1.785,7.728.178.178,0,0,1-.081.238.176.176,0,0,1-.078.018" transform="translate(-386.637 350.094)" fill="#60c8d2"/>
    <path id="path74" d="M427.407-354.509c.168.122.337.24.514.345s.351.214.533.308a7.322,7.322,0,0,0,1.125.478,5.162,5.162,0,0,0,1.193.239l.305.016c.1,0,.2-.011.306-.015l.154-.005.152-.023c.1-.017.2-.031.308-.044a3.513,3.513,0,0,1-1.231.208,4.152,4.152,0,0,1-1.241-.207,5.338,5.338,0,0,1-1.138-.529,5,5,0,0,1-.98-.772" transform="translate(-368.925 384.707)" fill="#d55347"/>
    <path id="path76" d="M391.254-434.224a13.148,13.148,0,0,0,1.446-1.449,13.273,13.273,0,0,0,1.18-1.556,9.79,9.79,0,0,0,.507-.883c.067-.133.221-.741.331-.762a.409.409,0,0,1,.284.1,4.914,4.914,0,0,0,1.685.685,1.817,1.817,0,0,0,1.35-.144,1.737,1.737,0,0,0,.52-.594,4.531,4.531,0,0,0-.944-5.428c-1.657-1.668-4.576-1.564-5.322-.222-.914-.454-7.958.425-8.2,6.447s2.464,8.451,6.442,7a3.268,3.268,0,0,1-1.562-2.261c-.262-1.639,1.132-1.719,1.621-1.406a5.212,5.212,0,0,1,.658.471" transform="translate(-332.417 461.376)" fill="#12212b"/>
    <path id="path78" d="M412.331-410.212s1.656,7.39-3.142,8.361a6.117,6.117,0,0,1-5.335-2.523,2.594,2.594,0,0,1-2.816-2.292c-.052-1.649,1.884-1.087,2.271-.126.454.207,1.759-.961,3.058-2.61a6.514,6.514,0,0,0,1.342-2.915,6.2,6.2,0,0,0,4.622,2.1" transform="translate(-346.705 433.418)" fill="#f7ac95"/>
    <path id="path80" d="M449.43-364.846c.07.163-.146,1.457-.838,1.684a1.377,1.377,0,0,1-1.47-1.218,4.813,4.813,0,0,1,2.308-.466" transform="translate(-385.535 393.45)" fill="#fff"/>
    <path id="path82" d="M453.8-378.489c.144.282.583.226.68.571a.56.56,0,0,1-.388.657c-.045.013-.111-.032-.08-.083a2.887,2.887,0,0,1,.2-.25c.159-.207.063-.386-.119-.513a.763.763,0,0,1-.331-.365.022.022,0,0,1,.041-.016h0" transform="translate(-391.132 404.924)" fill="#612823"/>
    <path id="path84" d="M463.178-395.564c-.2-.249-.466-.284-.648.266-.115.346-.1,1.007.375,1.05.729.066.595-.91.273-1.316" transform="translate(-398.47 419.447)" fill="#392621"/>
    <path id="path86" d="M465.755-393.117c-.088-.11-.206-.126-.287.118-.051.154-.045.446.166.466.323.03.264-.4.121-.584" transform="translate(-400.974 417.304)" fill="#fff"/>
    <path id="path88" d="M457.469-403.738c.26-.463,1.333-.934,1.679-.311a.051.051,0,0,1-.072.069.872.872,0,0,0-.849-.156,2.138,2.138,0,0,0-.721.428c-.018.015-.048-.008-.036-.029h0" transform="translate(-394.254 426.704)" fill="#2d1e1b"/>
    <path id="path90" d="M434.109-398.35c.26-.463,1.333-.933,1.679-.311a.051.051,0,0,1-.072.069.872.872,0,0,0-.849-.156,2.142,2.142,0,0,0-.721.428c-.018.015-.048-.008-.036-.029h0" transform="translate(-374.571 422.164)" fill="#2d1e1b"/>
    <path id="path92" d="M437.229-388.156c-.22-.263-.52-.3-.727.284-.13.367-.119,1.065.415,1.109.816.067.67-.965.312-1.393" transform="translate(-376.531 413.213)" fill="#392621"/>
    <path id="path94" d="M440.114-385.574c-.1-.116-.23-.132-.322.126-.058.163-.053.473.184.492.362.03.3-.428.138-.618" transform="translate(-379.335 410.951)" fill="#fff"/>
    <path id="path96" d="M529.342-312.753a3.145,3.145,0,0,0-.119-2,4.374,4.374,0,0,0-.937-2.062c-.076-.077-.244-.025-.231.1a12.376,12.376,0,0,0,.579,1.987,6.384,6.384,0,0,0,.552,1.98.091.091,0,0,0,.156,0h0" transform="translate(-453.735 352.977)" fill="#122b3e"/>
    <path id="path98" d="M348.9-247.5a8.4,8.4,0,0,0,.214-2.014A3.771,3.771,0,0,0,349-251.29a.181.181,0,0,0-.311,0,3.818,3.818,0,0,0-.238,1.772,8.348,8.348,0,0,0,.075,2.014.2.2,0,0,0,.379,0h0" transform="translate(-302.372 297.805)" fill="#122b3e"/>
    <path id="path100" d="M219.143-450.783a47.717,47.717,0,0,0-.325-9.416,6.457,6.457,0,0,0-1.014-2.992c-.441-.6-1.285-1.427-2.085-1.142a.187.187,0,0,0-.082.309,6.15,6.15,0,0,0,1.012.635,3.353,3.353,0,0,1,1.148,1.6,15.066,15.066,0,0,1,.645,3.57,45.777,45.777,0,0,1,.188,7.433c-.017.33.493.328.513,0h0" transform="translate(-190.436 477.298)" fill="#392621"/>
    <path id="path102" d="M96.761-345.545l-36.335-4.3L68.3-398.666,100.38-395l-3.619,49.453" transform="translate(-60.427 421.021)" fill="#96d5dd"/>
    <path id="path182" d="M197.144-269.127a.268.268,0,0,0,0,.536.268.268,0,0,0,0-.536" transform="translate(-174.68 312.761)" fill="#bc531f"/>
    <path id="path184" d="M198-279.343a.268.268,0,0,0,0,.536.268.268,0,0,0,0-.536" transform="translate(-175.398 321.37)" fill="#bc531f"/>
    <path id="path186" d="M198-287.858a.268.268,0,0,0,0,.536.268.268,0,0,0,0-.536" transform="translate(-175.398 328.544)" fill="#bc531f"/>
    <path id="path188" d="M238.439-262.387a.268.268,0,0,0,0,.536.268.268,0,0,0,0-.536" transform="translate(-209.476 307.082)" fill="#bc531f"/>
    <path id="path190" d="M244.4-267.921a.268.268,0,0,0,0,.536.268.268,0,0,0,0-.536" transform="translate(-214.497 311.745)" fill="#bc531f"/>
    <path id="path192" d="M160.527-266.858a.268.268,0,0,0,0,.536.268.268,0,0,0,0-.536" transform="translate(-143.825 310.849)" fill="#bc531f"/>
    <path id="path194" d="M155.419-273.669a.268.268,0,0,0,0,.536.268.268,0,0,0,0-.536" transform="translate(-139.52 316.588)" fill="#bc531f"/>
    <path id="path196" d="M136.634-233.366a.268.268,0,0,0,0,.536.268.268,0,0,0,0-.536" transform="translate(-123.691 282.628)" fill="#bc531f"/>
    <path id="path198" d="M124.288-234.218a.268.268,0,0,0,0,.536.268.268,0,0,0,0-.536" transform="translate(-113.288 283.346)" fill="#bc531f"/>
    <path id="path200" d="M111.533-234.643h-.067a.271.271,0,0,0-.268.268.273.273,0,0,0,.268.268h.067a.271.271,0,0,0,.268-.268.273.273,0,0,0-.268-.268" transform="translate(-102.477 283.704)" fill="#bc531f"/>
    <path id="path202" d="M249.932-232.515a.268.268,0,0,0,0,.536.268.268,0,0,0,0-.536" transform="translate(-219.161 281.911)" fill="#bc531f"/>
    <path id="path204" d="M261-233.793a.268.268,0,0,0,0,.536.268.268,0,0,0,0-.536" transform="translate(-228.488 282.987)" fill="#bc531f"/>
    <path id="path206" d="M273.772-235.5a.268.268,0,0,0,0,.536.268.268,0,0,0,0-.536" transform="translate(-239.249 284.422)" fill="#bc531f"/>
    <path id="path208" d="M133.227-211.655a.268.268,0,0,0,0,.536.268.268,0,0,0,0-.536" transform="translate(-120.821 264.334)" fill="#bc531f"/>
    <path id="path210" d="M121.751-205.27h-.067a.271.271,0,0,0-.268.268.273.273,0,0,0,.268.268h.067a.271.271,0,0,0,.268-.268.273.273,0,0,0-.268-.268" transform="translate(-111.086 258.953)" fill="#bc531f"/>
    <path id="path212" d="M246.544-207.825h-.067a.271.271,0,0,0-.268.268.273.273,0,0,0,.268.268h.067a.271.271,0,0,0,.268-.268.273.273,0,0,0-.268-.268" transform="translate(-216.241 261.106)" fill="#bc531f"/>
    <path id="path214" d="M257.546-201.015a.273.273,0,0,0-.268.268v.067a.271.271,0,0,0,.268.268.273.273,0,0,0,.268-.268v-.067a.271.271,0,0,0-.268-.268" transform="translate(-225.569 255.368)" fill="#bc531f"/>
    <path id="path216" d="M208.259-191.518a2.592,2.592,0,0,0-.588.768,5.949,5.949,0,0,1-2.176,2.037,8.064,8.064,0,0,1-2.62.857,3.345,3.345,0,0,0,.816-.752,10.426,10.426,0,0,1,2.038-1.753,3.64,3.64,0,0,1,.6-.329,9.1,9.1,0,0,0,1.93-.827" transform="translate(-179.727 247.365)" fill="#60c8d2"/>
    <path id="path218" d="M215.516-189.333c.672-.362,1.237-.867,1.886-1.265a8.113,8.113,0,0,0,1.522-1.231c.061-.061-.033-.155-.095-.095a10.927,10.927,0,0,1-1.635,1.3c-.583.394-1.1.887-1.705,1.243a.027.027,0,0,0,.027.047h0" transform="translate(-190.344 247.722)" fill="#eaeaea"/>
    <path id="path220" d="M202.738-186.51a8.93,8.93,0,0,0-1.844.786,8.988,8.988,0,0,1-2.4.808,4.957,4.957,0,0,0,1.27.036,2.5,2.5,0,0,0,1.228-.489c.243-.188.457-.432.7-.62a3.8,3.8,0,0,1,.991-.511" transform="translate(-176.038 243.145)" fill="#60c8d2"/>
    <path id="path222" d="M193.91-199.093c-1.007-.281-1.661-1.347-2.582-1.851a5.881,5.881,0,0,0-2.689-.5,6.151,6.151,0,0,1,1.306,1c.213.214.415.445.645.634a6.087,6.087,0,0,0,3.32.717" transform="translate(-167.731 255.731)" fill="#60c8d2"/>
    <path id="path224" d="M224.115-186.04a.009.009,0,0,0,0-.018.009.009,0,0,0,0,.018h0" transform="translate(-197.617 242.764)" fill="#4a762c"/>
    <path id="path226" d="M183.5-195.963a5.641,5.641,0,0,1-.915-.011,3.519,3.519,0,0,1-1.288-.346c-.487-.251-.9-.655-1.393-.886a4.591,4.591,0,0,0-1.721-.316,7.018,7.018,0,0,1,1.547-.072,2.088,2.088,0,0,1,1.42.523c.152.158.392.266.545.423a2.187,2.187,0,0,0,1.294.648" transform="translate(-158.921 252.497)" fill="#60c8d2"/>
    <path id="path228" d="M165.554-190.431c.774.236,1.545.48,2.319.713a17.763,17.763,0,0,0,2.333.643,6.243,6.243,0,0,0,1.9-.035,13.234,13.234,0,0,0,2.464-.549c.04-.015.039-.086-.011-.081-.71.074-1.407.313-2.11.443a6.39,6.39,0,0,1-2.5.049c-1.475-.311-2.935-.827-4.384-1.244a.032.032,0,0,0-.017.062h0" transform="translate(-148.259 246.502)" fill="#eaeaea"/>
    <path id="path230" d="M166.562-181.9c-.435,0-.79.414-1.142.737a3.938,3.938,0,0,1-1.1.72,6.744,6.744,0,0,1-1.982.424c-.6.066-1.951.278-1.951.278a6.084,6.084,0,0,1,1.877-1.122,24.591,24.591,0,0,1,3.892-.981" transform="translate(-143.929 239.265)" fill="#60c8d2"/>
    <path id="path232" d="M165.193-179.532a21,21,0,0,1,2.637-.642c.84-.206,1.531-.743,2.351-1.013.046-.015.042-.1-.012-.09-.84.109-1.494.752-2.307.964a20.968,20.968,0,0,0-2.693.695c-.053.021-.03.108.024.086h0" transform="translate(-147.93 238.735)" fill="#eaeaea"/>
    <path id="path234" d="M174.837-181.428a3.2,3.2,0,0,0-.877.9,4.747,4.747,0,0,1-.627.6,7.433,7.433,0,0,1-2.1,1.217,2.547,2.547,0,0,1-.677.172,6.189,6.189,0,0,0,1.092-.633,6.388,6.388,0,0,1,.979-.753c.1-.049.2-.086.305-.133a2.87,2.87,0,0,0,.352-.2,14.692,14.692,0,0,0,1.248-.958" transform="translate(-152.497 238.862)" fill="#60c8d2"/>
    <path id="path236" d="M157.187-198.643a2.757,2.757,0,0,1-.573-.311l-.716-.465a8.639,8.639,0,0,0-2.876-1.4,5.271,5.271,0,0,1,1.952-.086,2.563,2.563,0,0,1,1.664,1.032c.161.23.287.495.455.717a2.554,2.554,0,0,0,.8.732" transform="translate(-137.719 255.321)" fill="#60c8d2"/>
    <path id="path238" d="M163.663-198.182c.71.047,1.194.71,1.7,1.138a7.462,7.462,0,0,0,1.395.948.025.025,0,0,0,.025-.043,11.621,11.621,0,0,1-1.873-1.42,1.872,1.872,0,0,0-1.245-.653c-.02,0-.019.029,0,.03h0" transform="translate(-146.673 253.005)" fill="#eaeaea"/>
    <path id="path240" d="M157.6-191.749a4.306,4.306,0,0,1-1.328-.167,9.281,9.281,0,0,0-2.543-.765,4.7,4.7,0,0,1,1.189,0c.184,0,.369,0,.552.017a3.217,3.217,0,0,1,1.828.8" transform="translate(-138.317 248.382)" fill="#60c8d2"/>
    <path id="path242" d="M200.32-196.633c-.429-.063-.871-.022-1.3-.108a3.411,3.411,0,0,1-1.222-.614c-.6-.426-1.053-1.191-1.869-1.16a.064.064,0,0,0,0,.127,2.372,2.372,0,0,1,1.393.826,5.04,5.04,0,0,0,.872.613,3.687,3.687,0,0,0,2.118.362c.025,0,.034-.042.006-.046h0" transform="translate(-173.824 253.262)" fill="#eaeaea"/>
    <text id="text252" transform="matrix(0.995, 0.105, -0.105, 0.995, 8.58, 61.383)" fill="#3b3b3b" font-size="6" font-family="Montserrat-Regular, Montserrat"><tspan x="0" y="6">Natural</tspan></text>
    <path id="path312" d="M609.452-476.17a45.679,45.679,0,0,1-1.009-7.754,16.839,16.839,0,0,1,.163-3.827,2.751,2.751,0,0,1,.76-1.58,1.963,1.963,0,0,1,1.675-.215.263.263,0,0,0,.226-.394,1.567,1.567,0,0,0-2.244-.111c-1.026.739-1.225,2.162-1.3,3.329a31.25,31.25,0,0,0,1.391,10.645.175.175,0,0,0,.336-.093h0" transform="translate(-520.83 499.27)" fill="#392621"/>
    <path id="path314" d="M601.162-359.2l-36.67,1.891.447-48.542,30.913-1.259,5.31,47.91" transform="translate(-484.438 429.03)" fill="#9ad320"/>
    <text id="text324" transform="translate(83.392 55.242) rotate(-4)" fill="#4a762c" font-size="6" font-family="Segoe UI"><tspan x="0" y="6">Eco </tspan><tspan x="0" y="14">friendly</tspan></text>
    <path id="path326" d="M716.677-211.459a2.846,2.846,0,0,1-1.187,1.413,1.722,1.722,0,0,1-.952.2c-.155-.014-.756-.12-.766-.343-.008-.184.4-.253.524-.3.357-.123.7-.292,1.047-.438q.662-.279,1.334-.531" transform="translate(-610.227 264.168)" fill="#548a2f"/>
    <path id="path328" d="M716.958-220.311a3.318,3.318,0,0,1-.653,1.206,2.078,2.078,0,0,1-.836.577c-.438.157-.278-.08-.1-.329a4.909,4.909,0,0,1,1.589-1.454" transform="translate(-611.42 271.627)" fill="#548a2f"/>
    <path id="path330" d="M705.976-223.567a12.841,12.841,0,0,0-1.236,1.706,5.675,5.675,0,0,1-.665.816c-.181.179-.536.55-.8.557a2.148,2.148,0,0,1,.3-.906,4.193,4.193,0,0,1,.6-.932,4.1,4.1,0,0,1,1.807-1.242" transform="translate(-601.377 274.371)" fill="#548a2f"/>
    <path id="path332" d="M701.337-197.421c.8-.049,1.6,0,2.4-.061-.119.008-.406.313-.521.385a4.46,4.46,0,0,1-.623.324,4.669,4.669,0,0,1-1.323.342,4.578,4.578,0,0,1-1.382-.059c-.139-.028-.554-.068-.641-.187-.124-.172.159-.322.287-.381a5.13,5.13,0,0,1,1.8-.364" transform="translate(-597.964 252.391)" fill="#548a2f"/>
    <path id="path334" d="M681.465-186.317c1.718.776,4.142,1.031,5.5.143a9.791,9.791,0,0,0-4.22-.489c-.288.052-.572.13-.863.158a1.471,1.471,0,0,1-.854-.137l.189.177" transform="translate(-582.64 243.344)" fill="#548a2f"/>
    <path id="path336" d="M655.62-188.534a3.76,3.76,0,0,0,1.023.505,4.419,4.419,0,0,0,2.2-.152,16.731,16.731,0,0,0-2.7-1.175q-.688-.23-1.395-.4c-.088-.021-.576-.191-.64-.125-.105.109.106.291.174.355a9.881,9.881,0,0,0,1.336.993" transform="translate(-559.929 245.999)" fill="#548a2f"/>
    <path id="path338" d="M682.688-212.255a2.7,2.7,0,0,1,1.184-.856,8.046,8.046,0,0,1,1.428-.379c-.536.511-.989,1.1-1.488,1.652a7.759,7.759,0,0,1-.756.737c-.132.11-.707.638-.886.574-.13-.046.051-.62.076-.72a2.781,2.781,0,0,1,.441-1.009" transform="translate(-583.559 265.879)" fill="#548a2f"/>
    <path id="path340" d="M651.539-204.043a9.648,9.648,0,0,1,2.562.379,5.713,5.713,0,0,1-2.43.673,11.943,11.943,0,0,1-1.437,0c-.247-.012-.5-.024-.742-.048-.2-.019-.271-.03-.154-.215a2.015,2.015,0,0,1,1-.585,4.106,4.106,0,0,1,1.2-.209" transform="translate(-555.886 257.921)" fill="#548a2f"/>
    <path id="path342" d="M649.958-220.549c-.774.649-1.414,1.444-2.162,2.121a9.153,9.153,0,0,1-3.48,1.756,10.407,10.407,0,0,1-4.236.4,29.244,29.244,0,0,1-4.247-.735.108.108,0,0,0-.057.208,20.742,20.742,0,0,0,4.2.773,10.463,10.463,0,0,0,4.4-.406,9.523,9.523,0,0,0,3.3-1.65c.853-.724,1.5-1.66,2.318-2.421.03-.028-.014-.07-.044-.044h0" transform="translate(-544.441 271.834)" fill="#6da52e"/>
    <path id="path344" d="M616.543-201.364a13.665,13.665,0,0,1,5.13,1.485c1.819.875,3.464,2.359,5.623,2.049.093-.014.084-.159,0-.18a34.885,34.885,0,0,1-5.18-1.845c-.114-.048-.163.138-.051.185a34.883,34.883,0,0,0,5.182,1.84v-.18c-2.248.324-4.042-1.417-5.972-2.259a10.142,10.142,0,0,0-4.732-1.18.042.042,0,0,0,0,.085h0" transform="translate(-528.264 255.752)" fill="#6da52e"/>
    <path id="path346" d="M656.514-189.642A15.007,15.007,0,0,0,654-190.8a12.615,12.615,0,0,0-2.7-.758c-.131-.022-.187.179-.055.2a12.575,12.575,0,0,1,2.612.712,23.844,23.844,0,0,0,2.631,1.068.033.033,0,0,0,.026-.061h0" transform="translate(-557.477 247.403)" fill="#6da52e"/>
    <path id="path348" d="M655.863-189.468a4.668,4.668,0,0,1-1.518.243,3.641,3.641,0,0,1-1.411-.484,8.807,8.807,0,0,1-1.207-.848,5.832,5.832,0,0,0-1.093-.829.066.066,0,0,0-.08.1,7.858,7.858,0,0,0,1.332,1.126,6.437,6.437,0,0,0,1.414.864,2.857,2.857,0,0,0,2.591-.106.037.037,0,0,0-.029-.068h0" transform="translate(-556.943 247.26)" fill="#6da52e"/>
    <path id="path350" d="M646.992-202.405c-.96.488-2.2.3-3.248.4a23.15,23.15,0,0,0-2.945.473c-.119.027-.069.21.051.183a23.674,23.674,0,0,1,3.487-.526,6.338,6.338,0,0,0,2.711-.437c.062-.035.007-.126-.055-.094h0" transform="translate(-548.68 256.545)" fill="#6da52e"/>
    <path id="path352" d="M652.38-202.515a7.04,7.04,0,0,1-2.681.653c-.816.032-1.633.036-2.449.031a.093.093,0,0,0,0,.185c.953.01,1.912.013,2.864-.051a3.865,3.865,0,0,0,2.32-.749c.041-.036-.011-.088-.054-.07h0" transform="translate(-554.097 256.635)" fill="#6da52e"/>
    <path id="path354" d="M652.382-202.46c-.467-.027-.911.1-1.386.048a4.822,4.822,0,0,0-1.272.016,4.824,4.824,0,0,0-2.526.674c-.056.049.016.133.077.1a7.727,7.727,0,0,1,2.67-.625,8.9,8.9,0,0,1,1.415.031,4.75,4.75,0,0,0,1.03-.181c.037-.008.026-.061-.009-.064h0" transform="translate(-554.112 256.588)" fill="#6da52e"/>
    <path id="path356" d="M652.212-204.464a1.474,1.474,0,0,0-.518-.133c-.3-.046-.591-.143-.894-.188a5.4,5.4,0,0,0-1.517.02,5.671,5.671,0,0,0-1.442.313c-.375.16-.583.5-.917.719a.047.047,0,0,0,.024.086c.26.018.365-.17.539-.339a2.4,2.4,0,0,1,1.363-.516,6.694,6.694,0,0,1,1.73-.12c.313.028.6.122.907.171.23.037.461.021.689.073.051.012.088-.062.037-.089h0" transform="translate(-553.879 258.581)" fill="#6da52e"/>
    <path id="path358" d="M676.114-191.222a11.242,11.242,0,0,1-2.335.3,10.2,10.2,0,0,1-2.184-.311,9.584,9.584,0,0,1-1.941-.584c-.552-.259-1.078-.591-1.65-.8-.059-.022-.088.065-.041.1a11.162,11.162,0,0,0,3.876,1.51,8.24,8.24,0,0,0,4.294-.133.036.036,0,0,0-.019-.07h0" transform="translate(-571.608 248.3)" fill="#6da52e"/>
    <path id="path360" d="M686.693-186.1c-1.087-.15-2.2.034-3.291-.112a14.281,14.281,0,0,0-1.444-.2,9.425,9.425,0,0,1-1.365-.1c-.106-.019-.151.144-.045.162a6.586,6.586,0,0,0,1.064.1,12.009,12.009,0,0,1,1.756.207,10.6,10.6,0,0,0,1.435.076,14.052,14.052,0,0,0,1.875-.023c.054-.007.081-.1.014-.107h0" transform="translate(-582.181 243.151)" fill="#6da52e"/>
    <path id="path362" d="M686.773-185.922c-.453.107-.856.353-1.307.469a5.506,5.506,0,0,1-1.657.074,5.756,5.756,0,0,1-3.039-.955c-.092-.064-.179.086-.088.15a5.735,5.735,0,0,0,3.027.947,6.95,6.95,0,0,0,1.627-.037,6.467,6.467,0,0,0,1.476-.557c.052-.024.014-.1-.038-.091h0" transform="translate(-582.311 243.01)" fill="#6da52e"/>
    <path id="path364" d="M687.641-186.8c-.964-.174-1.937-.376-2.911-.485a15.2,15.2,0,0,0-2.963.173c-.058,0-.081.1-.015.109a3.248,3.248,0,0,0,1.116-.067,6.771,6.771,0,0,1,1.669-.086c1.037.086,2.051.417,3.1.418.034,0,.044-.055.008-.061h0" transform="translate(-583.213 243.826)" fill="#6da52e"/>
    <path id="path366" d="M693.341-198.875a6.925,6.925,0,0,1-3.362.94,13.325,13.325,0,0,1-1.708-.1,4.374,4.374,0,0,0-1.529-.117.052.052,0,0,0,0,.1,11.679,11.679,0,0,0,1.7.247,10.811,10.811,0,0,0,1.9.06,6.13,6.13,0,0,0,3.045-1.055.041.041,0,0,0-.042-.072h0" transform="translate(-587.419 253.569)" fill="#6da52e"/>
    <path id="path368" d="M700.616-198.9a5.514,5.514,0,0,1-2.442,1.19,7.47,7.47,0,0,1-2.756-.308.044.044,0,0,0-.033.079,4.785,4.785,0,0,0,2.81.385,4.481,4.481,0,0,0,2.492-1.255c.04-.047-.015-.135-.071-.092h0" transform="translate(-594.716 253.592)" fill="#6da52e"/>
    <path id="path370" d="M701.377-198.9c-.857.174-1.68.457-2.55.586-.82.122-1.649.17-2.469.281-.065.009-.047.11.015.111a16.182,16.182,0,0,0,2.5-.221,10.124,10.124,0,0,0,2.548-.649c.065-.028.016-.122-.046-.109h0" transform="translate(-595.519 253.582)" fill="#6da52e"/>
    <path id="path372" d="M701.11-199.043a7.729,7.729,0,0,0-1.363.1c-.442.037-.884.067-1.324.12a8.021,8.021,0,0,0-1.129.209c-.458.124-.88.343-1.347.428-.068.012-.053.127.016.121a6.787,6.787,0,0,0,1.194-.343,8.835,8.835,0,0,1,1.455-.259,10.615,10.615,0,0,0,2.51-.3.039.039,0,0,0-.01-.075h0" transform="translate(-595.168 253.715)" fill="#6da52e"/>
    <path id="path374" d="M680.495-214.2c-.664.5-1.351.97-1.981,1.514-.691.6-1.2,1.576-2.111,1.831a.064.064,0,0,0,.017.125c.863,0,1.321-.936,1.856-1.473a25.934,25.934,0,0,1,2.288-1.907c.051-.04-.018-.13-.07-.09h0" transform="translate(-578.701 266.487)" fill="#6da52e"/>
    <path id="path376" d="M684.881-214.013q-.8.739-1.582,1.489a7.53,7.53,0,0,1-1.732,1.482.05.05,0,0,0,.038.09,4.977,4.977,0,0,0,1.6-1.326,24.138,24.138,0,0,0,1.745-1.667.049.049,0,0,0-.069-.069h0" transform="translate(-583.07 266.332)" fill="#6da52e"/>
    <path id="path378" d="M684.673-214.039a5.248,5.248,0,0,0-3.378,3.017c-.015.036.04.064.064.037a23.38,23.38,0,0,1,1.4-1.894,9.518,9.518,0,0,1,1.935-1.1.032.032,0,0,0-.025-.059h0" transform="translate(-582.859 266.344)" fill="#6da52e"/>
    <path id="path380" d="M681.558-211.368c.366-1.069.694-1.993,1.845-2.391.486-.168.978-.321,1.461-.494.094-.034.089-.2-.025-.187a3.43,3.43,0,0,0-.89.288c-.306.119-.635.209-.933.343a3.125,3.125,0,0,0-1.536,2.419.04.04,0,0,0,.078.022h0" transform="translate(-583.017 266.68)" fill="#6da52e"/>
    <path id="path382" d="M696.5-220.1a14.481,14.481,0,0,0,2.247-2.315c.267-.328.49-.687.758-1.013a8.169,8.169,0,0,1,.894-.848.061.061,0,0,0-.059-.1c-.709.2-1.174,1.157-1.6,1.695a19.158,19.158,0,0,1-2.289,2.535c-.033.029.014.073.047.047h0" transform="translate(-595.626 275.055)" fill="#6da52e"/>
    <path id="path384" d="M705.529-224.222a1.917,1.917,0,0,0-1.181.758c-.288.365-.551.756-.824,1.132a8.531,8.531,0,0,0-.921,1.363c-.024.052.037.108.082.064a13.326,13.326,0,0,0,1.391-1.935,3.407,3.407,0,0,1,.783-.936c.218-.149.465-.243.687-.382.027-.017.019-.068-.017-.064h0" transform="translate(-600.811 274.922)" fill="#6da52e"/>
    <path id="path386" d="M703.559-221.254a3.626,3.626,0,0,0,1.459-1.281,17.15,17.15,0,0,1,1.355-1.832.081.081,0,0,0-.114-.114c-.988.952-1.432,2.551-2.727,3.163-.036.017-.01.078.027.064h0" transform="translate(-601.584 275.161)" fill="#6da52e"/>
    <path id="path388" d="M702.958-221.293a7.011,7.011,0,0,1,1.182-2.08,3.065,3.065,0,0,1,.76-.7,5.784,5.784,0,0,1,.9-.344.081.081,0,0,0-.043-.156,4.169,4.169,0,0,0-2.87,3.246c-.008.039.052.072.07.029h0" transform="translate(-601.055 275.215)" fill="#6da52e"/>
    <path id="path390" d="M704.549-210.319c1.48-.482,3.395-.4,4.483-1.7a.039.039,0,0,0-.056-.056,5.231,5.231,0,0,1-2.117,1.119,11.95,11.95,0,0,0-2.336.578c-.034.016-.01.073.026.061h0" transform="translate(-602.42 264.698)" fill="#6da52e"/>
    <path id="path392" d="M711.985-210.839a5.16,5.16,0,0,0,2.056-.137,2.752,2.752,0,0,0,1.3-1.222c.046-.083-.081-.158-.127-.074a2.583,2.583,0,0,1-1.424,1.237,8.655,8.655,0,0,1-1.8.13c-.041.005-.044.068,0,.067h0" transform="translate(-608.694 264.884)" fill="#6da52e"/>
    <path id="path394" d="M712.557-210.883c1.1-.374,2.123-.931,3.216-1.316.1-.035.056-.193-.043-.158-1.09.384-2.159.9-3.208,1.391-.046.022-.013.1.035.083h0" transform="translate(-609.155 264.929)" fill="#6da52e"/>
    <path id="path396" d="M712.88-210.564a2.082,2.082,0,0,0,1.789.144,3.288,3.288,0,0,0,1.433-1.448c.053-.085-.081-.163-.134-.078a3.552,3.552,0,0,1-1.142,1.3,2.088,2.088,0,0,1-1.916.035c-.034-.014-.063.032-.029.051h0" transform="translate(-609.463 264.61)" fill="#6da52e"/>
    <path id="path398" d="M713.987-218.657a15.07,15.07,0,0,1,1.008-1.172,2.743,2.743,0,0,1,.493-.449,3.88,3.88,0,0,0,.487-.312.048.048,0,0,0-.046-.079,2.6,2.6,0,0,0-1.02.754,5.324,5.324,0,0,0-.928,1.254,0,0,0,0,0,.007,0h0" transform="translate(-610.402 271.931)" fill="#6da52e"/>
    <path id="path400" d="M716.939-220.532a3.187,3.187,0,0,1-.757.929,8.608,8.608,0,0,0-.964.833.049.049,0,0,0,.059.076,6.142,6.142,0,0,0,1.033-.871,5.312,5.312,0,0,0,.7-.928c.029-.04-.043-.083-.066-.039h0" transform="translate(-611.435 271.829)" fill="#6da52e"/>
    <path id="path402" d="M715.039-218.8a2.727,2.727,0,0,0,1.153-.684,3.777,3.777,0,0,0,.681-1.216c.031-.068-.072-.128-.1-.059a3.781,3.781,0,0,1-.638,1.134,3.416,3.416,0,0,1-1.119.767c-.032.015-.009.067.024.057h0" transform="translate(-611.261 272.029)" fill="#6da52e"/>
    <path id="path404" d="M596-338.791a11.322,11.322,0,0,0-5.664-.455,14.815,14.815,0,0,0-5.742,1.624c-4.113,2.306-7.576,6.755-7.9,11.573-.34,5.06,2.655,10.1,6.332,13.368a15.083,15.083,0,0,0,13.5,3.246c4.395-1.016,7.737-4.769,9.147-8.936a15.047,15.047,0,0,0-2.878-14.25,18.2,18.2,0,0,0-6.119-4.76,11.96,11.96,0,0,0-7.716-1.224,14.088,14.088,0,0,0-6.611,4.023,13.434,13.434,0,0,0-3.524,6.618,15.866,15.866,0,0,0,.2,7.727,12.714,12.714,0,0,0,4.009,6.131,17.018,17.018,0,0,0,14.687,3.236,12.741,12.741,0,0,0,6.435-3.638,15.5,15.5,0,0,0,3.486-6.913,14.438,14.438,0,0,0,.418-4.33,12.244,12.244,0,0,0-.648-2.989,14.733,14.733,0,0,0-1.95-4.048c-2.965-4.128-8.535-5.645-13.4-5.535a19.284,19.284,0,0,0-7.418,1.544,11.621,11.621,0,0,0-4.985,4.539,17.1,17.1,0,0,0-1.466,14.639,8.645,8.645,0,0,0,1.69,2.824,11.181,11.181,0,0,0,2.9,2.144,16.862,16.862,0,0,0,7.49,2.145,21.5,21.5,0,0,0,8.242-1.4,11.162,11.162,0,0,0,5.742-4.421c1.13-1.918,1.258-4.187,1.5-6.345a15.968,15.968,0,0,0-.9-7.561c-3.158-8.187-15.177-8.9-21.389-4.008a9.652,9.652,0,0,0-3.109,4.143c-.029.076.093.109.122.034,1.336-3.534,4.8-5.7,8.331-6.59a15.677,15.677,0,0,1,11.492,1.331,10.247,10.247,0,0,1,4.631,5.57,16.2,16.2,0,0,1,.721,7.246c-.246,2.128-.428,4.374-1.578,6.242a11.419,11.419,0,0,1-6.092,4.42,21.6,21.6,0,0,1-7.9,1.2,16.723,16.723,0,0,1-7.375-2.2,10.746,10.746,0,0,1-2.839-2.16,8.934,8.934,0,0,1-1.72-3.113,16.646,16.646,0,0,1-.634-7.623c.629-4.578,3.122-9.316,7.605-11.111a20.228,20.228,0,0,1,15.584.366,11.98,11.98,0,0,1,4.8,3.92,14.424,14.424,0,0,1,1.834,3.823,11.763,11.763,0,0,1,.655,3.158,14.146,14.146,0,0,1-.461,4.113,15.713,15.713,0,0,1-3.463,6.86c-3.5,3.82-9.245,4.709-14.128,3.669-5.047-1.075-9.536-4.553-10.874-9.678a14.716,14.716,0,0,1,3.621-14.114,13.537,13.537,0,0,1,6.657-3.824,12.4,12.4,0,0,1,7.869,1.573,16.783,16.783,0,0,1,8.925,11.9,14.362,14.362,0,0,1-4.251,12.535,11.724,11.724,0,0,1-5.774,3.081,15.828,15.828,0,0,1-6.93-.081c-4.9-1.2-8.736-5.137-10.89-9.58a13.838,13.838,0,0,1-1.492-7.1,13.581,13.581,0,0,1,2.646-6.681,16.11,16.11,0,0,1,5.322-4.746,14.98,14.98,0,0,1,5.713-1.542,11.288,11.288,0,0,1,5.5.423c.023.01.043-.024.02-.034h0" transform="translate(-494.698 371.967)" fill="#82b029"/>
    <path id="path406" d="M647.681-309.468c1.218.031,2.444-.052,3.659-.125a5.6,5.6,0,0,0,2.495-.449.161.161,0,0,0,.08-.14c-.03-.525-.568-.67-.98-.92q-.536-.325-1.07-.653c-.238-.145-.718-.575-1.043-.554-.377.025-.738.434-1.006.649q-1.189.949-2.382,1.891a.151.151,0,0,0,0,.212l.092.092a.147.147,0,0,0,.173.022l.1-.052a.081.081,0,0,0,0-.139c.124.07,1.978-1.655,2.238-1.805a1.7,1.7,0,0,1,2.026.176c.321.194,1.1.462,1.129.88q.216.374-.287.309a9.122,9.122,0,0,1-1.015.121c-.5.045-1.007.065-1.51.1-.9.069-1.813.137-2.711.274-.062.01-.044.105.015.107h0" transform="translate(-554.291 349.147)" fill="#4a762c"/>
    <path id="path408" d="M665.084-319.326c.305-.392.546-1.4-.058-1.647a.577.577,0,0,0-.686.19c-.126.18-.155.456.077.545a.083.083,0,0,0,.1-.057c.039-.139.016-.283.151-.389.274-.214.466.214.458.417-.012.307-.145.586-.173.887a.077.077,0,0,0,.13.054h0" transform="translate(-568.493 356.485)" fill="#4a762c"/>
    <path id="path410" d="M694.021-305.194c.693.009,1.411-.009,2.1-.064a.055.055,0,0,0,.015-.108,2.316,2.316,0,0,0-.973-.04c-.382.02-.763.04-1.143.083a.065.065,0,0,0,0,.129h0" transform="translate(-593.531 343.358)" fill="#4a762c"/>
    <path id="path412" d="M627.617-298.9a5.983,5.983,0,0,0,2.15-.3.066.066,0,0,0-.035-.128,16.191,16.191,0,0,1-2.114.281.074.074,0,0,0,0,.147h0" transform="translate(-537.57 338.211)" fill="#4a762c"/>
    <path id="path426" d="M124.552-512.81a21.271,21.271,0,0,1,2.568-9.356,21.919,21.919,0,0,1,6.446-7.253c.123-.09.01-.295-.122-.208a20.99,20.99,0,0,0-9.115,16.818.111.111,0,0,0,.222,0h0" transform="translate(-113.542 532.286)" fill="#8bb73f"/>
    <path id="path428" d="M168.6-532.313a9.958,9.958,0,0,1,2.637-.145l-.187-.245a7.337,7.337,0,0,0-.116,2.24.136.136,0,0,0,.26,0c.115-.706.121-1.428.229-2.137a.2.2,0,0,0-.187-.245,7.66,7.66,0,0,0-2.7.29.125.125,0,0,0,.067.242h0" transform="translate(-150.717 534.993)" fill="#8bb73f"/>
    <path id="path430" d="M643.076-546.208a21.324,21.324,0,0,1,7.644,5.908A21.914,21.914,0,0,1,655-531.512c.037.153.261.087.233-.064a20.96,20.96,0,0,0-8.15-12.585,20.081,20.081,0,0,0-3.9-2.239c-.129-.057-.243.133-.112.192h0" transform="translate(-550.607 546.41)" fill="#8bb73f"/>
    <path id="path432" d="M710.7-464.524a9.935,9.935,0,0,1-.865,2.487l.265-.069a7.217,7.217,0,0,0-1.985-.945.136.136,0,0,0-.1.247c.61.378,1.278.661,1.894,1.032a.2.2,0,0,0,.265-.069,7.787,7.787,0,0,0,.777-2.649c.014-.141-.216-.171-.247-.033h0" transform="translate(-605.32 477.484)" fill="#8bb73f"/>
  </g>
</svg>
