<svg xmlns="http://www.w3.org/2000/svg" xmlns:xlink="http://www.w3.org/1999/xlink" width="59.803" height="94.409" viewBox="0 0 59.803 94.409">
  <defs>
    <linearGradient id="linear-gradient" x1="0.5" y1="1" x2="0.5" gradientUnits="objectBoundingBox">
      <stop offset="0" stop-color="#8bb73f"/>
      <stop offset="1" stop-color="#bce772"/>
    </linearGradient>
  </defs>
  <g id="Group_24707" data-name="Group 24707" transform="translate(0.001 0)">
    <g id="Group_24611" data-name="Group 24611" transform="translate(-0.001 0)">
      <path id="Path_23225" data-name="Path 23225" d="M366.258,175.474l.288,0,24.151.339c2.109.03,5.29,1.479,5.35,3.92.071,2.885-2.484,52.609-2.484,52.609s-2.991,1.775-9.5,1.787-19.035-.643-22.1-1.752c-1.553-.562-3.609-.771-4.63-2.232a4.8,4.8,0,0,1-.579-3.215c.128-1.421-.056-2.681-.043-4.1a171.512,171.512,0,0,1,2.26-22.9,77.894,77.894,0,0,0,1.254-13.825,40.043,40.043,0,0,1-.079-5.094c.158-1.725.745-4.4,2.571-5.1a9.462,9.462,0,0,1,3.543-.44" transform="translate(-350.542 -174.399)" fill="#a4dad6"/>
      <path id="Path_23227" data-name="Path 23227" d="M478.508,475.666a26.323,26.323,0,0,1,2.968-.754,15.413,15.413,0,0,1,8.438.7.689.689,0,0,0,.83-.256c.974.224,1.942.477,2.9.739a.7.7,0,0,0,.768-.912c-1.145-3.121.675-6.62,1.73-9.515a.771.771,0,0,0,.011-.509c.117-.169.237-.336.356-.5.24.137.4.151.469.023.284-.527.656-1.279,1.054-2.111l.151-.205a.684.684,0,0,0,.142-.413c1.115-2.364,2.311-5.058,2.311-5.058s-2.324-4.235-4.318-7.073-.9-3.6.1-4.961a3.12,3.12,0,0,1,2.861-1.032s6.348,5.321,7.946,7.132,1.162,2.118,2.743,6.224a6.7,6.7,0,0,1,.263.894c.969,4.079.581,8.305.081,12.42-.45,3.7-1.675,7.926-.123,11.521a16.042,16.042,0,0,0,1.177,2.093,87.91,87.91,0,0,1,8,16.424c-.011.635-2.566,2.551-3.065,3.046a8.286,8.286,0,0,1-3.37,2.456,69.811,69.811,0,0,1-8.608,2.685c-1.041.215-12.612,1.7-12.63.92a120.688,120.688,0,0,0-.959-12.753,10.444,10.444,0,0,0-.689-2.946c-.758-1.7-2.312-2.763-3.307-4.284s-1.848-3.207-2.82-4.768c-1.016-1.632-2.74-3.584-3.3-5.451-.069-.231-.9-1.7-2.107-3.772" transform="translate(-460.336 -416.272)" fill="#fbcdcd"/>
      <path id="Path_23228" data-name="Path 23228" d="M382.613,668.128a13.787,13.787,0,0,1,2.619.189c1.374.048,2.749.04,4.123.077l19.2.516-.95,6.536-23.608-2.973c-.616-.078-2.182-3.558-1.874-4.087a.671.671,0,0,1,.5-.257" transform="translate(-373.41 -618.466)" fill="#f4888e"/>
      <path id="Path_23229" data-name="Path 23229" d="M300.924,348.717a4.822,4.822,0,0,0-2.06.838,1.945,1.945,0,0,0-.745,1.98,2.786,2.786,0,0,0,1.137,1.319,15.427,15.427,0,0,0,5.757,2.806,3.4,3.4,0,0,0-3.882.928,6.839,6.839,0,0,0-1.535,3.925,3.768,3.768,0,0,0,.067,1.543,4.368,4.368,0,0,0,1.609,1.928c-.24.111-.51-.068-.774-.09-.484-.04-.852.467-.913.949a3.6,3.6,0,0,0,.7,2.177c1.221,2.085-.226,2.775-.428,4.885a4.859,4.859,0,0,0,.181,1.527,25.456,25.456,0,0,0,1.434,4.807c.18.4.435.837.866.925a1,1,0,0,0,1-.523,2.731,2.731,0,0,0,.295-1.154,25.906,25.906,0,0,0,.045-4.393c-.167-2.234,1.621-.841,2.32-2.127a1.244,1.244,0,0,0,.106-.63,6.757,6.757,0,0,0-1.3-3.816,2.812,2.812,0,0,0,1.505-3.2,5.569,5.569,0,0,0-2.171-3.078,1.62,1.62,0,0,0,.659.385c.084.025,1.229-8.252,1.292-9.01s.112-1.5.151-2.252c.048-.927.146-1.1-.82-1.112a19.869,19.869,0,0,0-4.493.457" transform="translate(-297.672 -330.154)" fill="#fbcdcd"/>
      <path id="Path_23230" data-name="Path 23230" d="M655.278,482.609c.218-2.794.2-5.6.392-8.395.049-.7.13-1.4.191-2.1s.074-1.384.068-2.076c-.012-1.362-.152-2.736-.035-4.1a16.648,16.648,0,0,0,.125-2.083,16.479,16.479,0,0,0-.264-2.026,19.54,19.54,0,0,0-.378-1.971c-.177-.643-.393-1.276-.611-1.906-.194-.559-.277-1.147-.483-1.7a7.327,7.327,0,0,0-.757-1.533,11.707,11.707,0,0,0-2.3-2.31c-.409-.344-.813-.693-1.19-1.072-.417-.42-.9-.769-1.307-1.2a7.9,7.9,0,0,1-.553-.72q-.285-.382-.6-.743a16.556,16.556,0,0,0-1.241-1.239,3.183,3.183,0,0,0-1.375-.853,2.7,2.7,0,0,0-1.363.121,4.618,4.618,0,0,0-1.337.628,4.035,4.035,0,0,0-1.028,1.148,2.935,2.935,0,0,0-.518,1.608,4.34,4.34,0,0,0,.362,1.566,8.113,8.113,0,0,0,.857,1.418l1.194,1.7q.608.866,1.217,1.73c.189.269.375.541.573.8a5.836,5.836,0,0,1,.468.668,2.243,2.243,0,0,1,.072,1.59,13.5,13.5,0,0,1-.519,1.681c-.451,1.264-.91,2.526-1.445,3.757a11.439,11.439,0,0,1-.889,1.629,10.888,10.888,0,0,0-.9,1.591,16.678,16.678,0,0,0-1.155,3.822,41.1,41.1,0,0,0-.323,4.14,19.837,19.837,0,0,1-.207,2.014c-.051.309.42.444.475.131l.033-.192c.054-.31-.421-.443-.475-.131q-.017.1-.033.192l.475.131a39,39,0,0,0,.324-4.065,16.636,16.636,0,0,1,.651-3.956c.191-.622.411-1.237.661-1.837a10.166,10.166,0,0,1,.885-1.564,11.331,11.331,0,0,0,.878-1.593c.263-.6.511-1.212.747-1.826s.461-1.234.683-1.854c.2-.555.407-1.108.551-1.68a4.136,4.136,0,0,0,.161-1.627,3.521,3.521,0,0,0-.8-1.423c-.8-1.109-1.577-2.24-2.363-3.361a7.86,7.86,0,0,1-1.594-2.924,2.339,2.339,0,0,1,.2-1.559,3.787,3.787,0,0,1,.975-1.256,3.859,3.859,0,0,1,1.211-.6,2.2,2.2,0,0,1,1.278-.116,3.428,3.428,0,0,1,1.27.9,14.654,14.654,0,0,1,1.231,1.278,15.71,15.71,0,0,0,1.134,1.41c.408.392.847.748,1.251,1.144.763.749,1.637,1.374,2.4,2.123a6.479,6.479,0,0,1,1.688,2.751c.084.278.125.567.2.847s.188.58.287.868c.214.619.418,1.246.577,1.882s.24,1.317.351,1.977a10.9,10.9,0,0,1,.2,1.97c-.011.687-.112,1.367-.156,2.052-.043.668,0,1.34.018,2.008a29.766,29.766,0,0,1-.048,4.055c-.285,2.742-.309,5.492-.437,8.244-.031.671-.07,1.342-.123,2.011-.025.316.468.315.493,0" transform="translate(-605.924 -418.749)" fill="#101517"/>
      <path id="Path_23231" data-name="Path 23231" d="M355.241,587.751c-.07,2.862-.371,5.723-.161,8.586q.04.547.105,1.092c.044.36.13.726.147,1.087.03.648-.289,1.263-.228,1.912a3.657,3.657,0,0,0,1.721,2.661,5.97,5.97,0,0,0,1.559.7,12.256,12.256,0,0,0,1.987.437c.747.1,1.5.144,2.256.195s1.506.091,2.26.124c2.985.133,5.973.157,8.959.278.747.03,1.5.052,2.243.123.7.067,1.393.18,2.083.309s1.385.276,2.079.409c.355.068.711.134,1.068.191.183.029.37.025.555.036s.362.021.543.029a4.805,4.805,0,0,0,1.092-.07c.311-.06.179-.535-.131-.475a4.55,4.55,0,0,1-1.07.048,8.867,8.867,0,0,1-1.074-.078c-.687-.117-1.369-.257-2.052-.393s-1.379-.272-2.075-.373-1.408-.161-2.118-.2c-2.938-.147-5.88-.174-8.819-.278-1.48-.052-2.959-.124-4.436-.241a16.713,16.713,0,0,1-2.1-.26,9.086,9.086,0,0,1-1.812-.535,3.685,3.685,0,0,1-2.1-2.077,2.313,2.313,0,0,1-.132-.764,5.464,5.464,0,0,1,.158-.934,2.92,2.92,0,0,0,.057-1c-.052-.355-.108-.708-.147-1.064a55.618,55.618,0,0,1,.043-8.45q.021-.518.034-1.036a.247.247,0,0,0-.493,0" transform="translate(-349.008 -545.827)" fill="#101517"/>
      <path id="Path_23232" data-name="Path 23232" d="M369.341,347.435c.207-1.743.505-3.472.78-5.205.279-1.758.537-3.522.661-5.3.035-.5.06-1,.071-1.5.009-.416.012-.83.05-1.244a.248.248,0,0,0-.246-.246.252.252,0,0,0-.246.246c-.072.8-.05,1.61-.1,2.413-.053.883-.142,1.763-.251,2.641-.218,1.751-.521,3.489-.8,5.231-.155.986-.3,1.975-.418,2.966a.248.248,0,0,0,.246.246.252.252,0,0,0,.246-.246" transform="translate(-361.484 -317.246)" fill="#101517"/>
      <path id="Path_23233" data-name="Path 23233" d="M420.834,197.82c.1-2.839.244-5.675.393-8.512.149-2.821.3-5.642.434-8.465s.231-5.657.271-8.488c.01-.652.019-1.3.023-1.955a9.321,9.321,0,0,0-.107-1.611,3.255,3.255,0,0,0-1.782-2.562,8.568,8.568,0,0,0-1.886-.406c-.689-.116-1.378-.23-2.069-.337s-1.359-.2-2.04-.288a9.2,9.2,0,0,0-.971-.062,3.148,3.148,0,0,1-.422-.015c-.174-.027-.346-.076-.521-.1a12.857,12.857,0,0,0-2.007-.137c-.7,0-1.389-.025-2.086-.063q-2.127-.117-4.258-.169c-2.819-.071-5.64-.063-8.459,0q-2.132.046-4.262.13a16.43,16.43,0,0,0-1.883.113,4.943,4.943,0,0,0-1.423.45,3.95,3.95,0,0,0-1.956,2.107,3.129,3.129,0,0,0-.147.953q-.036.522-.064,1.045-.057,1.059-.09,2.119c-.094,2.808-.111,5.62-.32,8.424q-.079,1.048-.2,2.092a.248.248,0,0,0,.246.246.252.252,0,0,0,.246-.246c.312-2.754.382-5.526.452-8.294.035-1.375.072-2.75.142-4.125q.026-.522.06-1.044a3.5,3.5,0,0,1,.116-.965,3.241,3.241,0,0,1,.766-1.191,4.158,4.158,0,0,1,2.534-1.125c.657-.061,1.325-.061,1.984-.085q1.03-.039,2.06-.068c2.772-.081,5.545-.115,8.318-.079q2.072.028,4.143.11,1.048.042,2.1.1c.683.038,1.361.052,2.045.058a11.18,11.18,0,0,1,1.98.149c.151.028.3.076.451.1a3.979,3.979,0,0,0,.45.011,8.85,8.85,0,0,1,.936.058c1.366.171,2.726.4,4.084.624a7.317,7.317,0,0,1,1.806.39,2.354,2.354,0,0,1,1.094,1.1,6.285,6.285,0,0,1,.436,3.024c-.047,2.776-.1,5.548-.215,8.322s-.262,5.549-.41,8.323-.3,5.55-.412,8.326q-.042,1.011-.079,2.023c-.012.317.481.316.493,0" transform="translate(-376.053 -164.597)" fill="#101517"/>
      <path id="Path_23234" data-name="Path 23234" d="M489.678,796.594a35.969,35.969,0,0,0-.813-8.1c-.268-1.337-.581-2.663-.906-3.987-.313-1.275-.682-2.545-.924-3.836a9.214,9.214,0,0,0-.376-1.564,4.387,4.387,0,0,0-.9-1.454,25.382,25.382,0,0,1-2.254-2.09,5.991,5.991,0,0,1-.41-.707c-.141-.263-.291-.522-.445-.777-.312-.515-.645-1.017-.983-1.515-.683-1-1.392-1.991-2-3.041a13.333,13.333,0,0,1-.808-1.607,3.249,3.249,0,0,0-.413-.739,6.019,6.019,0,0,1-.486-.68,5.818,5.818,0,0,1-.346-.864,8.445,8.445,0,0,0-.37-.886,8.563,8.563,0,0,1-.4-.855c-.1-.279-.17-.567-.288-.839a1.309,1.309,0,0,0-.2-.318.609.609,0,0,1-.164-.275l-.172.3c.073-.021.037,0,.024-.014a.2.2,0,0,1,.048.092c.108.3.584.168.475-.131s-.337-.521-.678-.422a.252.252,0,0,0-.172.3c.053.256.255.393.367.615a7.21,7.21,0,0,1,.282.817c.216.6.551,1.142.767,1.741a8.758,8.758,0,0,0,.346.886,4.133,4.133,0,0,0,.473.693,3.043,3.043,0,0,1,.426.7q.169.414.367.814c1.072,2.168,2.688,4,3.851,6.117.135.245.252.5.408.732a4.407,4.407,0,0,0,.492.6,14.4,14.4,0,0,0,1.181,1.02,5.5,5.5,0,0,1,1.079,1.1,4.368,4.368,0,0,1,.63,1.518c.127.556.207,1.121.343,1.676.161.654.325,1.308.488,1.961.327,1.312.65,2.625.937,3.946a39.46,39.46,0,0,1,1.034,8.044q0,.509-.011,1.015a.247.247,0,0,0,.493,0" transform="translate(-457.547 -702.876)" fill="#101517"/>
      <path id="Path_23235" data-name="Path 23235" d="M640.886,761.38a3.49,3.49,0,0,1,.186,1.3,6.383,6.383,0,0,0,.329,1.5c.163.506.317,1.01.439,1.528a10.454,10.454,0,0,0,.45,1.568,15.063,15.063,0,0,0,.467,1.52c.15.28.575.031.426-.249a10.946,10.946,0,0,1-.379-1.306,11.623,11.623,0,0,1-.464-1.552c-.122-.521-.266-1.029-.432-1.537a6.242,6.242,0,0,1-.344-1.457,4.136,4.136,0,0,0-.255-1.564.246.246,0,0,0-.425.249" transform="translate(-606.681 -702.223)" fill="#101517"/>
      <path id="Path_23236" data-name="Path 23236" d="M682.154,449.444a1.476,1.476,0,0,1-.653.909c-.327.206-.748.405-.786.84a2.761,2.761,0,0,0,.2,1,4.419,4.419,0,0,0,.463,1.1c.253.394.559.753.827,1.137a6.353,6.353,0,0,0,.774.964,1.575,1.575,0,0,0,2.208.169,1.248,1.248,0,0,0,.626-.787,3.019,3.019,0,0,0,.063-.7c-.011-.287-.087-.566-.121-.85a.254.254,0,0,0-.246-.246.248.248,0,0,0-.246.246c.028.235.083.465.109.7a2.589,2.589,0,0,1-.018.634c0-.025-.007.044-.008.053-.006.031-.012.062-.02.093s-.016.055-.025.083c0,.007-.02.047-.006.018s-.01.019-.014.024c-.014.024-.027.046-.042.068.03-.043-.019.02-.029.03a1.445,1.445,0,0,1-.119.106,1.624,1.624,0,0,1-.982.412,1.242,1.242,0,0,1-.769-.387,5.406,5.406,0,0,1-.679-.834c-.247-.353-.521-.687-.765-1.041a3.142,3.142,0,0,1-.323-.561c-.058-.138-.1-.287-.142-.43s-.1-.313-.142-.471c-.022-.079-.042-.159-.059-.24-.008-.037-.015-.074-.02-.111,0-.005-.006-.05,0-.012,0-.02,0-.04-.005-.059a.71.71,0,0,1,0-.094c-.005.063.01-.018.019-.034a.472.472,0,0,1,.138-.149c.153-.118.333-.2.49-.31a1.963,1.963,0,0,0,.776-1.135c.074-.308-.4-.44-.475-.131" transform="translate(-642.608 -421.208)" fill="#101517"/>
      <path id="Path_23239" data-name="Path 23239" d="M411.053,194.167c.182-.987.314-2.289-.641-2.937a4.581,4.581,0,0,0-1.789-.5q-1.108-.2-2.221-.363a84.034,84.034,0,0,0-17.629-.783q-2.2.135-4.386.384a18.907,18.907,0,0,0-3.143.385,2.74,2.74,0,0,0-2.012,2.21c-.131.693-.179,1.407-.259,2.108q-.128,1.127-.257,2.255l-1.039,9.12c-.339,2.978-.7,5.955-.975,8.94-.278,3.017-.4,6.04-.512,9.068-.107,2.995-.22,5.993-.543,8.974-.24,2.218-.393,4.477.764,6.485a8.746,8.746,0,0,0,1.012,1.387c.21.239.557-.111.349-.348a7.073,7.073,0,0,1-1.575-2.84,9.616,9.616,0,0,1-.208-3.108c.09-1.34.273-2.673.374-4.012.108-1.445.18-2.892.239-4.339.12-2.929.186-5.862.392-8.787.2-2.879.532-5.747.859-8.614q.5-4.384,1-8.767l.5-4.36q.125-1.1.251-2.205a3.839,3.839,0,0,1,.506-1.85,3.3,3.3,0,0,1,2.577-1.05c1.188-.1,2.37-.239,3.557-.348a84.047,84.047,0,0,1,17.093.184q2.155.244,4.295.6a20.051,20.051,0,0,1,2.016.375,1.3,1.3,0,0,1,1.012,1.065,4.186,4.186,0,0,1-.073,1.544c-.057.31.418.443.475.131" transform="translate(-367.461 -186.979)" fill="#101517"/>
      <path id="Path_23242" data-name="Path 23242" d="M789.452,810.682a23,23,0,0,0,1.765,4.1c.709,1.324,1.5,2.6,2.271,3.89a44.229,44.229,0,0,1,2.155,3.931c.631,1.345,1.131,2.745,1.69,4.121a20.416,20.416,0,0,0,2.033,3.986q.155.225.32.442a.254.254,0,0,0,.337.089.248.248,0,0,0,.089-.337,17.522,17.522,0,0,1-2.119-3.862c-.576-1.377-1.077-2.784-1.68-4.15a37.677,37.677,0,0,0-2.1-3.958c-.758-1.281-1.547-2.544-2.272-3.845a24.7,24.7,0,0,1-1.85-4.02q-.088-.259-.168-.521c-.093-.3-.569-.173-.475.131" transform="translate(-740.345 -746.252)" fill="#101517"/>
      <path id="Path_23254" data-name="Path 23254" d="M310.716,418.6a4.835,4.835,0,0,1-1.05.082,2.868,2.868,0,0,0-.906.092,1.506,1.506,0,0,0-.782.628,6.107,6.107,0,0,0-.6,1.279,13.663,13.663,0,0,0-.67,2.865,2.864,2.864,0,0,0,.136,1.494,14.785,14.785,0,0,0,2.359,3.528,5.628,5.628,0,0,0,2.459,1.392,2.788,2.788,0,0,0,1.433.022,2.4,2.4,0,0,0,1.013-.6,2.912,2.912,0,0,0,.852-2.187,4.131,4.131,0,0,0-1.044-2.461,7.511,7.511,0,0,0-2.224-1.675c-.2-.107-.4-.209-.605-.308a.253.253,0,0,0-.337.088.249.249,0,0,0,.089.337c1.478.724,3.077,1.7,3.53,3.4a2.558,2.558,0,0,1-.307,2.1,2.118,2.118,0,0,1-.731.686,1.9,1.9,0,0,1-1.118.207,3.823,3.823,0,0,1-1.238-.372,5.307,5.307,0,0,1-1.091-.677,7.751,7.751,0,0,1-1.64-1.971c-.233-.374-.453-.756-.67-1.139a2.6,2.6,0,0,1-.417-1.265,6.9,6.9,0,0,1,.179-1.363c.085-.449.185-.9.313-1.335a8.193,8.193,0,0,1,.459-1.238,4.315,4.315,0,0,1,.308-.566,1.12,1.12,0,0,1,.267-.281.786.786,0,0,1,.318-.137,1.546,1.546,0,0,1,.358-.041c.312-.011.624.005.936-.02a4.134,4.134,0,0,0,.555-.082c.31-.067.179-.543-.131-.475" transform="translate(-305.434 -393.561)" fill="#101517"/>
      <path id="Path_23255" data-name="Path 23255" d="M306.714,502.079a2.517,2.517,0,0,0-.76,2.839,5.439,5.439,0,0,0,.9,1.6c.373.489.772.96,1.173,1.427a13.844,13.844,0,0,0,2.674,2.511,2.654,2.654,0,0,0,1.64.6,1.179,1.179,0,0,0,.782-.38,2.118,2.118,0,0,0,.405-.769,5.557,5.557,0,0,0-.284-4.076.249.249,0,0,0-.337-.088.252.252,0,0,0-.088.337,5.043,5.043,0,0,1,.362,3.225c-.092.417-.227,1.057-.688,1.22a1.712,1.712,0,0,1-1.385-.391,12.231,12.231,0,0,1-2.481-2.249c-.366-.415-.721-.841-1.071-1.271a7.422,7.422,0,0,1-.934-1.369,2.75,2.75,0,0,1-.3-1.537,1.7,1.7,0,0,1,.648-1.206.253.253,0,0,0,.088-.337.248.248,0,0,0-.337-.089" transform="translate(-304.659 -468.782)" fill="#101517"/>
      <path id="Path_23256" data-name="Path 23256" d="M302.93,344.089c-1.375.142-2.76.053-4.138.139a10.287,10.287,0,0,0-2.04.308,4.876,4.876,0,0,0-1.807.832,2.654,2.654,0,0,0-.368,3.361,4.652,4.652,0,0,0,1.307,1.384,10.535,10.535,0,0,0,1.694,1A11.683,11.683,0,0,0,302,352.254c.317.017.316-.476,0-.493a11.033,11.033,0,0,1-3.709-.862,11.55,11.55,0,0,1-1.708-.9,5.283,5.283,0,0,1-1.326-1.135,2.353,2.353,0,0,1-.169-2.958,3.518,3.518,0,0,1,1.543-.82,8.781,8.781,0,0,1,1.9-.344c1.464-.117,2.937-.006,4.4-.157a.254.254,0,0,0,.246-.246.248.248,0,0,0-.246-.246" transform="translate(-294.151 -326.396)" fill="#101517"/>
      <path id="Path_23273" data-name="Path 23273" d="M607.906,1025.765c2.1-.245,4.205-.489,6.3-.792s4.169-.66,6.225-1.135a45.371,45.371,0,0,0,5.645-1.671,34.326,34.326,0,0,0,5.058-2.343,26.936,26.936,0,0,0,4.516-3.218q.257-.228.508-.463c.232-.218-.117-.566-.348-.349a25.736,25.736,0,0,1-4.372,3.281,32.637,32.637,0,0,1-4.936,2.405,43.6,43.6,0,0,1-5.465,1.707c-2.023.5-4.072.874-6.131,1.188s-4.143.564-6.22.806l-.78.091a.254.254,0,0,0-.246.247.249.249,0,0,0,.246.246" transform="translate(-576.483 -931.357)" fill="#101517"/>
      <path id="Path_23274" data-name="Path 23274" d="M311.99,557.979a8.561,8.561,0,0,0-1.164,2.339,3.529,3.529,0,0,0-.107,1.317,8.537,8.537,0,0,0,.325,1.378l.829,2.851q.206.705.41,1.41a1.8,1.8,0,0,0,.608,1.009,2.253,2.253,0,0,0,2.227.028.249.249,0,0,0,.088-.337.252.252,0,0,0-.337-.089,1.811,1.811,0,0,1-1.642.032,1.274,1.274,0,0,1-.474-.795q-.192-.659-.384-1.32l-.774-2.663a5.125,5.125,0,0,1-.345-2.467,7.445,7.445,0,0,1,1.168-2.446c.171-.268-.255-.516-.426-.249" transform="translate(-309.066 -519.1)" fill="#101517"/>
      <path id="Path_23275" data-name="Path 23275" d="M-5643.215,5416.047c-1.528,2.264-2.678,19.669-2.124,23.733s-2.771,16.622-1.293,18.1,26.5,2.124,26.5,2.124,5.448-6.926,4.156-8.865-5.171-7.019-5.264-8.588,2.124-5.448,5.264-3.417,2.678,2.585,2.678,2.585l.554-25.025s1.939-.831-2.494-1.662-24.608-.59-25.21-.554S-5641.686,5413.784-5643.215,5416.047Z" transform="translate(5655.918 -5410.934)" fill="#fff"/>
      <g id="credit-card" transform="matrix(0.999, 0.052, -0.052, 0.999, 17.208, 6.842)">
        <g id="Group_24608" data-name="Group 24608" transform="translate(0 0.612)">
          <g id="Group_24607" data-name="Group 24607" transform="translate(0 0)">
            <path id="Path_23276" data-name="Path 23276" d="M15.872,0A4.882,4.882,0,0,0,11.34,6.732L1.822,6.514c-.338,0-1.29.492-1.29.83L0,17.864c0,.338.879,1.3,1.217,1.3l17.1-.189c.338,0,.821-.823.821-.823l-.209-9.462A4.9,4.9,0,0,0,20.809,4.9,4.937,4.937,0,0,0,15.872,0Z" fill="url(#linear-gradient)"/>
          </g>
        </g>
        <g id="Group_24610" data-name="Group 24610" transform="translate(3.02 0)">
          <g id="Group_24609" data-name="Group 24609" transform="translate(0 0)">
            <path id="Path_23277" data-name="Path 23277" d="M1.836,15.912H.612a.612.612,0,1,0,0,1.224H1.836a.612.612,0,1,0,0-1.224Zm3.672,0H4.284a.612.612,0,1,0,0,1.224H5.508a.612.612,0,1,0,0-1.224Zm0-6.12H.612A.612.612,0,0,0,0,10.4v1.224a.612.612,0,0,0,.612.612h4.9a.612.612,0,0,0,.612-.612V10.4A.612.612,0,0,0,5.508,9.792Zm3.672,6.12H7.956a.612.612,0,1,0,0,1.224H9.18a.612.612,0,1,0,0-1.224Zm3.672,0H11.628a.612.612,0,1,0,0,1.224h1.224a.612.612,0,1,0,0-1.224ZM12.852,0A5.514,5.514,0,0,0,7.344,5.508c0,3.037,1.166,5.261,5.037,5.608A5.363,5.363,0,0,0,18.4,5.508,5.549,5.549,0,0,0,12.852,0Zm2.469,4.516L12.367,7.471a.612.612,0,0,1-.865,0L10.148,6.232a.866.866,0,0,1-.072-1.052.612.612,0,0,1,.865,0l.992.992,2.35-2.527a.84.84,0,0,1,1.037,0,.612.612,0,0,1,0,.865Z" transform="translate(0 0)" fill="#f0f0f0"/>
          </g>
        </g>
      </g>
    </g>
  </g>
</svg>
