<svg width="30" height="30" viewBox="0 0 30 30" fill="none" xmlns="http://www.w3.org/2000/svg">
<path d="M28.9439 23.6429L24.0461 18.7451C23.6481 18.3471 23.1173 18.128 22.5513 18.128C21.9854 18.128 21.4545 18.3471 21.0565 18.7451L19.111 20.6907C18.4422 21.0196 17.431 20.9478 16.2519 20.486C14.9465 19.9746 13.5578 19.0233 12.3418 17.8072C11.1258 16.5912 10.1745 15.2026 9.66308 13.8971C9.2012 12.718 9.12945 11.7068 9.45833 11.038L11.4038 9.09252C11.8018 8.69452 12.021 8.16364 12.021 7.5977C12.021 7.03177 11.8018 6.50089 11.4038 6.10289L6.50608 1.20508C6.10808 0.807078 5.5772 0.587891 5.01126 0.587891C4.44533 0.587891 3.91451 0.807078 3.51645 1.20508L1.47639 3.2452L1.44633 3.29327C0.137576 5.38227 0.1017 8.45039 1.34526 11.9325C2.57051 15.3634 4.95901 18.9665 8.07076 22.0783C11.1825 25.19 14.7856 27.5785 18.2165 28.8038C19.911 29.409 21.5071 29.7111 22.9405 29.7111C24.4525 29.7111 25.7834 29.3746 26.8558 28.7027L26.9039 28.6726L28.9441 26.6325C29.7681 25.8082 29.7681 24.4671 28.9439 23.6429ZM28.2368 25.9254L26.2778 27.8843C24.4535 28.998 21.7133 28.9908 18.5528 27.862C15.2585 26.6856 11.787 24.3804 8.77783 21.3711C5.76864 18.362 3.46345 14.8905 2.28695 11.5962C1.1582 8.43577 1.15089 5.69558 2.26464 3.8712L4.22358 1.91227C4.4327 1.70308 4.71245 1.58795 5.01126 1.58795C5.31008 1.58795 5.58983 1.70314 5.79901 1.91227L10.6968 6.81002C11.1311 7.24433 11.1311 7.95102 10.6968 8.38533L8.64576 10.4364L8.61126 10.4997C7.59101 12.3715 8.86258 15.7421 11.6348 18.5143C13.7643 20.6438 16.2466 21.8878 18.1318 21.8876C18.7006 21.8876 19.2155 21.7743 19.6494 21.5378L19.7127 21.5033L21.7637 19.4523C21.9728 19.2431 22.2526 19.128 22.5515 19.128C22.8503 19.128 23.13 19.2431 23.3391 19.4523L28.2369 24.35C28.6711 24.7843 28.6711 25.4911 28.2368 25.9254Z" fill="#6E6E6E"/>
</svg>
