<svg xmlns="http://www.w3.org/2000/svg" width="260.272" height="190.018" viewBox="0 0 260.272 190.018">
  <g id="Group_24537" data-name="Group 24537" transform="translate(5642.995 4172.575)">
    <path id="path16" d="M294.307-452.774a81.131,81.131,0,0,1-81.132,81.132,81.132,81.132,0,0,1-81.132-81.132,81.132,81.132,0,0,1,81.132-81.132,81.132,81.132,0,0,1,81.132,81.132" transform="translate(-5731.622 -3638.668)" fill="#fff3b9"/>
    <path id="path18" d="M308.978-241.5a13.152,13.152,0,0,0-.595-2.282c-.043-.13-.092-.26-.135-.389a39.141,39.141,0,0,0-4.44-8.7,18.127,18.127,0,0,0-1.942-2.472,8.554,8.554,0,0,0-3.115-2.2c-2.174-.839-5.051-.243-6.1,1.839a4.96,4.96,0,0,0-5.971-5.182c.627-.416.059-1.465-.676-1.644s-1.514.082-2.239-.1c-1.184-.3-1.779-1.563-2.5-2.547-2.715-3.694-9.237-3.456-11.671.427a9.92,9.92,0,0,0-7.485-1.314c-3.413.622-2.78,1.147-5.013-.184l-.784-.47c-.422-.255-.833-.5-1.244-.747-4.035-2.4-7.588-4.256-12.726-3.434a16.707,16.707,0,0,0-10.351,6.23c-1,1.271-1.579,3.509-2.742,4.538-1.368,1.211-3.364.562-4.505,2.39a3.085,3.085,0,0,1-.871,1.135,3.564,3.564,0,0,1-1.32.26c-1.585.243-2.639,1.736-3.413,3.137a2.3,2.3,0,0,1-.952,1.1,2.526,2.526,0,0,1-1.725-.141,11.725,11.725,0,0,0-9.394,1.741,5.692,5.692,0,0,0-2.434,3.926,5.735,5.735,0,0,0,.357,2.586v0c1.076,2.97,4.094,5.863,5.771,7.82a50.635,50.635,0,0,0,27.68,16.539q1.906.43,3.818.719c15.051,2.3,30.449-1.509,44.326-7.323a115.247,115.247,0,0,0,14.121-6.614q.438-.251.86-.519c.249-.146.5-.3.746-.46,1.125-.72,2.217-1.487,3.272-2.315,2.65-2.071,3.715-3.077,3.391-5.37" transform="translate(-5774.751 -3794.885)" fill="#3b2416"/>
    <path id="path20" d="M263.121-232.421c-1.165-1.692-3.21-1.042-4.322.361a13.783,13.783,0,0,1-.833,1.337c-.587.566-1.58.325-2.291.582a3.237,3.237,0,0,0-1.934,2.2.245.245,0,0,0,.406.237,3.906,3.906,0,0,1,3-1.141,2.379,2.379,0,0,0,1.336-.3c1.094-.771,1.923-4.65,3.942-2.741.349.33.987-.106.693-.534" transform="translate(-5803.949 -3817.264)" fill="#55351f"/>
    <path id="path22" d="M387.522-237.943a3.07,3.07,0,0,0-3.635-2.672c-.384-2.321-2.685-4.345-5.1-3.475a.343.343,0,0,0,.091.671c2.1.058,3.983,1.579,3.7,3.806-.068.533.62.816,1.021.586a1.6,1.6,0,0,1,2.346,1.084c.118,1.006,1.718,1,1.584,0" transform="translate(-5878.137 -3810.806)" fill="#55351f"/>
    <path id="path24" d="M429.566-218.487a3.867,3.867,0,0,0-1.928-2.589,1.731,1.731,0,0,0-2.388,1.01.387.387,0,0,0,.668.39c.267-.421,1.151-.167,1.483-.03.825.341,1.034,1.25,1.275,2.057a.553.553,0,0,0,.8.326c1.211-.617,1.963.283,2.723,1.036.283.28.913.1.86-.356-.2-1.7-2.03-2.207-3.493-1.845" transform="translate(-5905.868 -3824.497)" fill="#55351f"/>
    <path id="path26" d="M309.01-254.375a3.63,3.63,0,0,0-3.871.05c-.287.191-.114.73.25.592a3.39,3.39,0,0,1,3.03.369,3.192,3.192,0,0,1,1.084,1.087c.247.425.272.917.52,1.338a.492.492,0,0,0,.888-.116c.484-1.256-.9-2.75-1.9-3.321" transform="translate(-5834.42 -3804.498)" fill="#55351f"/>
    <path id="path28" d="M364.665-212.576c-.783-1.8-2.778-2.1-4.473-1.568a5.323,5.323,0,0,0-6.856-3.006.441.441,0,0,0,.234.85,4.754,4.754,0,0,1,5.569,3.215.69.69,0,0,0,1,.406c1.455-.7,2.758-.109,4.06.571a.345.345,0,0,0,.468-.467" transform="translate(-5862.971 -3826.713)" fill="#55351f"/>
    <path id="path30" d="M330.017-384.386c-.1-6.24-.134-12.492-.449-18.725-.624-12.335-1.141-24.653-1.642-36.993a.216.216,0,0,0-.432,0c-.1,12.338-.213,24.656-.434,36.993-.109,6.086.051,12.182.155,18.268a183.6,183.6,0,0,0,.822,18.725.882.882,0,0,0,1.763,0,178.473,178.473,0,0,0,.217-18.268" transform="translate(-5847.514 -3694.298)" fill="#bf783f"/>
    <path id="path32" d="M367.173-379.724c-4.17,2.661-7.966,5.111-12.888,6.193-4.575,1-9.416.476-13.9,1.969-3.153,1.055-6.393,4.424-7.772,7.853a9.514,9.514,0,0,0-.606,2.131,17.443,17.443,0,0,0,.346,5.349c.076.481.141.957.184,1.438.011.1.022.211.027.314.022.249.032.5.038.752a9.089,9.089,0,0,1-.059,1.211,1.51,1.51,0,0,1,.3-.769c1.031-1.321,4.386-.635,7.167.051a20.274,20.274,0,0,0,3.823.8c4.067-.384,7.566-2.542,10.7-5.03a37.323,37.323,0,0,0,8-8.913,28.056,28.056,0,0,0,3.331-6.344,13.894,13.894,0,0,0,2.282-6.436.659.659,0,0,0-.984-.568" transform="translate(-5850.416 -3730.258)" fill="#8bb73f"/>
    <path id="path34" d="M331.774-316.375c.247-.579.473-1.166.686-1.754h0c.01.1.021.2.027.3a15.2,15.2,0,0,0-.713,1.451" transform="translate(-5850.337 -3766.921)" fill="#956a2a"/>
    <path id="path36" d="M333.492-352.913c-.005-.1-.016-.2-.027-.3h0c1.791-4.932,2.756-9.987,8.662-12.011a47.7,47.7,0,0,1,6.564-1.34,32.507,32.507,0,0,0,18.332-10.593c.324,4.382-3.138,8.209-6.991,10.321-5.931,3.25-12.541,4.319-18.639,6.977-.547.239-1.076.49-1.58.757a15.7,15.7,0,0,0-6.322,6.193" transform="translate(-5851.343 -3731.834)" fill="#769a39"/>
    <path id="path38" d="M364.231-368.466c-6.335,4.129-13.415,6.1-20.264,9.126-5.324,2.354-13.868,7.455-13.144,14.395a.244.244,0,0,0,.477.065,17.021,17.021,0,0,1,2.522-5.965,19.778,19.778,0,0,1,4.274-4.142,40.544,40.544,0,0,1,9.356-4.76c5.842-2.26,12.392-3.969,17.172-8.21a.325.325,0,0,0-.393-.508" transform="translate(-5849.746 -3736.973)" fill="#7dcd4d"/>
    <path id="path40" d="M276.558-425.83c-5.03-1.687-14.873.433-16.793-6.257a.875.875,0,0,0-1.709.233c-.882,7.923,2.3,16.149,9.643,19.93,3.312,1.7,5.525,1.549,8.317,1.395a36.247,36.247,0,0,1,4.008-.054,7.949,7.949,0,0,1,3.791,1.217,8.674,8.674,0,0,1,1.439,1.114,7.591,7.591,0,0,1,.865.952c.054.065.108.135.157.206l.059.087a7.967,7.967,0,0,1,1.244,2.58c-.519-2.472-.892-5.084-1.4-7.62-1.2-6.025-3.153-11.606-9.627-13.78m11.033,21.444c.054.265.114.535.173.8a6.81,6.81,0,0,0-.173-.8" transform="translate(-5806.436 -3698.819)" fill="#8bb73f"/>
    <path id="path42" d="M324.083-372.952a8,8,0,0,1-2.3-2.208,8.675,8.675,0,0,1,1.434,1.111,7.6,7.6,0,0,1,.865.952l0,0c0,.048,0,.1,0,.142" transform="translate(-5844.398 -3733.023)" fill="#a6c050"/>
    <path id="path44" d="M327.612-369.862a1.5,1.5,0,0,1-.158-.063c0-.047,0-.095,0-.142.054.064.107.134.155.2l0,0" transform="translate(-5847.769 -3736.051)" fill="#956a2a"/>
    <path id="path46" d="M291.662-399.023a1.185,1.185,0,0,1-.149-.04l0,0c-.048-.069-.1-.138-.155-.2l0,0a7.6,7.6,0,0,0-.865-.952,8.678,8.678,0,0,0-1.434-1.111,38.52,38.52,0,0,0-3.712-4.53,22.281,22.281,0,0,0-8.133-4.193c-1.993-.541-4.115-.827-5.847-1.951-2.436-1.58-3.609-4.475-4.642-7.188a17.3,17.3,0,0,0,10.52,5.48,19.183,19.183,0,0,1,4.39.713A10.07,10.07,0,0,1,285-410.645a34.7,34.7,0,0,1,5.494,6.784c.995,1.739,1.574,3.472,1.167,4.838" transform="translate(-5811.67 -3706.849)" fill="#769a39"/>
    <path id="path48" d="M296.216-392.607a17.217,17.217,0,0,0-6.854-10.483c-4.369-3.157-9.969-3.88-14.726-6.284-.2-.1-.444.169-.25.325,3.644,2.936,8.4,3.433,12.454,5.607a19.4,19.4,0,0,1,8.926,10.96.234.234,0,0,0,.451-.124" transform="translate(-5816.184 -3712.674)" fill="#7dcd4d"/>
    <path id="path50" d="M344.44-498.909a.525.525,0,0,0-.974-.265c-1.677,2.958-5.6,5.143-8.659,6.4s-6.311,2.282-8.913,4.424c-6.2,5.095-4.705,14.078-1.687,20.492.022.049.049.1.07.151a4.574,4.574,0,0,1,.606-3.067,6.493,6.493,0,0,1,1.471-1.763c2.007-1.7,4.37-1.677,6.5-2.85a19.12,19.12,0,0,0,6.247-6.387c2.8-4.348,3.742-9.232,4.738-14.154a10.169,10.169,0,0,0,.617-2.98h-.016" transform="translate(-5844.286 -3659.158)" fill="#8bb73f"/>
    <path id="path52" d="M328.562-467c-2.164-2.573-1.256-6.673.949-9.21s5.368-3.985,8.257-5.7,5.755-4.02,6.608-7.273c-1,3.82-.525,6.331-3.851,9.078-4.807,3.971-11.757,5.647-11.963,13.108" transform="translate(-5847.693 -3665.249)" fill="#769a39"/>
    <path id="path54" d="M341.154-475.971c-3.792,4.312-15.343,8.128-12.754,15.792.073.216.454.2.424-.057-.969-8.173,8.686-10.039,12.5-15.6.069-.1-.089-.223-.169-.131" transform="translate(-5848.109 -3673.084)" fill="#7dcd4d"/>
    <path id="path56" d="M334.736-252.15a4.178,4.178,0,0,0-3.9-2.416c-.938-2.278-2.376-4.7-5.2-4.153-.412.08-.313.73.1.725,2.438-.037,3.424,2.234,4.12,4.177a.618.618,0,0,0,.578.44A4.791,4.791,0,0,1,334-251.721c.292.27.92.007.737-.429" transform="translate(-5846.533 -3802.187)" fill="#55351f"/>
    <path id="path58" d="M251.595-174.024c.979-2.357-.276-5.467-2.331-6.944a13.165,13.165,0,0,0-6.187-2c-2.261-.292-4.532-.519-6.793-.854a133.405,133.405,0,0,1-26.96-7.014q-4.154-1.558-8.194-3.38a134.7,134.7,0,0,1-16.858-9.1A131.41,131.41,0,0,1,172.8-211.5c-3.1-2.471-6.009-5.143-8.94-7.8v0c-.546-.492-1.092-.99-1.644-1.482-3.656-3.282-7.664-6.468-12.423-7.917-.162-.054-.33-.1-.5-.147-4.505-1.254-9.616-1-13.483,1.844a.851.851,0,0,0-.168,1.315l.114.119q3.918,4.056,7.907,8.048,1.33,1.33,2.666,2.65c9.41,9.323,19.091,18.377,28.945,27.209,1.633,1.455,3.267,2.92,4.911,4.359a13.92,13.92,0,0,0,5.024,3.045c2.125.665,4.348,1.06,6.517,1.557q3.448.8,6.9,1.6c9.183,2.126,18.372,4.273,27.582,6.317,6.187,1.379,13.98,3.375,20.167,1.033a12.972,12.972,0,0,0,5.36-3.759.313.313,0,0,0-.141-.509" transform="translate(-5733.62 -3819.562)" fill="#d09478"/>
    <path id="path60" d="M146.854-209.105q-5.347-5.292-10.575-10.7l.087-.015c3.983-.668,8.691,5.889,10.275,8.835a2.763,2.763,0,0,1,.377,1.019,1.568,1.568,0,0,1-.163.863" transform="translate(-5734.139 -3825.324)" fill="#e7c1b1"/>
    <path id="path62" d="M357.556-216.058a81.319,81.319,0,0,0-25.873-11.331,54.708,54.708,0,0,0-19.87-.886c-9.362,1.352-18.123,5.295-27.231,7.858-.784.222-1.574.433-2.363.633-5.825,1.46-11.8,1.936-17.653,3.261-.108.028-.222.049-.33.071-.687.146-1.357.292-2.039.438h-.005c-.135.027-.27.054-.4.087-.708.151-1.406.3-2.115.46h-.005c-.135.026-.276.059-.411.087-.579.13-1.152.254-1.725.384h-.005l-.3.065q-7.35,1.631-14.656,3.337c-.492.108-.979.222-1.466.341-.984.227-1.969.454-2.958.692q-6.952,1.638-13.872,3.38h-.005q-1.16.283-2.32.589c-.141.027-.287.07-.427.108-.076.016-.146.038-.222.054h-.005c-.422.109-.849.211-1.271.325-1.931.492-3.851.984-5.771,1.5a11.637,11.637,0,0,1-2.58.557,3.772,3.772,0,0,1-2.342-.973c-3.148-2.288-6.252-4.635-9.378-6.95-3.034-2.25-6.16-4.423-9.086-6.814-2.634-2.147-4.581-4.792-6.847-7.3-.2-.222-.406-.444-.617-.654a13.836,13.836,0,0,0-6.663-4.008,13.955,13.955,0,0,0-8.258.567,10.913,10.913,0,0,0-1.222.552,13.227,13.227,0,0,0-2.234,1.427.787.787,0,0,0-.124.969l.1.151a169.447,169.447,0,0,0,10.3,13.731,200.206,200.206,0,0,0,16.825,17.821,88.809,88.809,0,0,0,9.519,8.215c.059.043.124.086.184.129a31.461,31.461,0,0,0,4.067,2.423c.1.053.189.1.281.141a24.515,24.515,0,0,0,2.547,1.06,94.043,94.043,0,0,0,10.53,2.731q5.727,1.323,11.455,2.645,11.26,2.6,22.515,5.2l5.83,1.347a35.546,35.546,0,0,0,4.786.957c.124.016.254.027.379.032,3.429.195,6.522-2.244,9.362-3.845q10.181-5.76,20.389-11.476c3.315-1.866,6.582-3.867,9.978-5.576A17.378,17.378,0,0,1,309-193.311a16.4,16.4,0,0,1,5.809.281c20.487,4.062,38.323,15.116,53.553,29.107v-44.256a120.435,120.435,0,0,0-10.806-7.88" transform="translate(-5751.085 -3818.635)" fill="#e8b393"/>
    <path id="path64" d="M176.694-208.926a2.545,2.545,0,0,1-1.082,1.069,168.475,168.475,0,0,1-10.3-13.73c1.485-.94,4.591.418,6.808,3.11a56.257,56.257,0,0,1,3.524,4.765c.946,1.434,1.849,3.263,1.054,4.787" transform="translate(-5751.394 -3824.127)" fill="#e7c1b1"/>
    <path id="path66" d="M414.916-235.631c-2.093-1.011-4.2-1.984-6.36-2.871a112.328,112.328,0,0,0-13.212-4.478c-4.586-1.249-9.34-2.255-14.121-1.958-4.759.3-9.34,1.741-13.851,3.175q-2.977.949-5.938,1.936-4,1.33-7.988,2.737c-6.23,2.19-12.423,4.494-18.588,6.858-.838.314-1.671.638-2.5.957-2.142.823-4.273,1.655-6.409,2.488-4.424,1.725-8.886,3.374-13.261,5.224a15.233,15.233,0,0,0-6.106,4.154c-.049.065-.1.124-.141.184a7.875,7.875,0,0,0-1.255,2.39c-.065.2-.124.41-.178.622a6.393,6.393,0,0,0-.178,1.514v.005a5.6,5.6,0,0,0,.13,1.276v.011a6.061,6.061,0,0,0,4.337,4.581c2.623.779,5.441.384,8.15-.157l.054-.011c.914-.184,1.817-.389,2.693-.562q3.651-.739,7.285-1.552c.06-.011.114-.027.173-.038Q338.3-211.506,348.8-214.5c.957-.27,1.92-.552,2.893-.833l.087-.027c3.072-.9,6.2-1.817,9.356-2.482a40.343,40.343,0,0,1,10.162-1c.254.005.514.021.773.043l.043.114v.006a.7.7,0,0,0,.552.438,39.09,39.09,0,0,1,9.486,3.121l.022.011c1.741.773,3.467,1.59,5.214,2.347a120.345,120.345,0,0,0,13.98,4.986c9.719,2.872,19.67,4.938,29.329,8.02.552.173,1.109.357,1.655.536v-28.22c-6.014-2.293-11.655-5.387-17.436-8.194" transform="translate(-5834.319 -3810.394)" fill="#e8b393"/>
    <path id="path68" d="M327.077-185.383A4.629,4.629,0,0,0,322.7-187.6a12.515,12.515,0,0,0-3.878.757,25.5,25.5,0,0,0-6.279,3.3h-.005c-.162.118-.33.243-.492.367s-.308.244-.46.374l-.022.022c-.151.141-.308.281-.454.427-.076.07-.146.145-.216.222s-.141.151-.206.227a6.234,6.234,0,0,0-.411.535l-.038.054c-.076.119-.151.243-.222.368-.06.108-.119.216-.168.33l-.054.13a3.466,3.466,0,0,0-.13.329,3.906,3.906,0,0,0-.124.428,3.614,3.614,0,0,0,1.147,3.688c1.46,1.206,3.569,1.384,5.619,1.184a26.088,26.088,0,0,0,3.807-.708q.925-.228,1.833-.536c.606-.2,1.2-.432,1.785-.686h.005c.579-.249,1.147-.525,1.693-.823a7.028,7.028,0,0,0,2.109-1.411,3.008,3.008,0,0,0,.454-2.006,8.407,8.407,0,0,0-.919-4.359" transform="translate(-5837.058 -3844.508)" fill="#f7d7c9"/>
    <path id="path70" d="M324.835-177.671a8.136,8.136,0,0,1-1.1,2,23.249,23.249,0,0,1-3.62,1.227c-2.765.689-6.993,1.534-9.426-.476a3.621,3.621,0,0,1-1.144-3.692,6.866,6.866,0,0,1,3-3.814,25.6,25.6,0,0,1,6.282-3.3c4.466.442,7.935,2.892,6.006,8.058" transform="translate(-5837.061 -3845.617)" fill="#f2cbc0"/>
    <path id="path72" d="M385.631-176.7c-5.447-.919-10.428-3.657-15.9-4.39a24.48,24.48,0,0,0-8.354.671c-3.033.645-6.057,1.34-9.076,2.045q-9.315,2.177-18.555,4.664c-6.044,1.627-12.181,3.877-18.487,4.13-3.1.125-6.8-.184-9.264-2.3-2.175-1.869-2.839-5.847-.032-7.51a.1.1,0,0,0-.1-.168,4.405,4.405,0,0,0-1.937,4.644,6.515,6.515,0,0,0,4.052,4.639c5.542,2.5,12.244.879,17.812-.627,6.54-1.769,13.069-3.559,19.649-5.174q5.162-1.267,10.346-2.439a82.051,82.051,0,0,1,10.018-1.993,24.489,24.489,0,0,1,10.171,1.52c3.16,1.044,6.278,2.276,9.639,2.4.065,0,.082-.1.016-.116" transform="translate(-5833.744 -3848.292)" fill="#d19476"/>
    <path id="path74" d="M394.181-192.574a13.146,13.146,0,0,1-1.534-7.51c.017-.146-.21-.143-.228,0a11.038,11.038,0,0,0,1.608,7.6.089.089,0,0,0,.153-.089" transform="translate(-5886.322 -3837.021)" fill="#d19476"/>
    <path id="path76" d="M399.594-192.827A14.934,14.934,0,0,1,397.737-201c.017-.211-.308-.208-.328,0a12.324,12.324,0,0,0,1.959,8.3.131.131,0,0,0,.226-.131" transform="translate(-5889.308 -3836.448)" fill="#d19476"/>
    <path id="path78" d="M400.765-205.415c-.064-.164-.331-.1-.268.074a36.058,36.058,0,0,1,1.488,5.075c.371,1.728.453,3.489.772,5.22.016.089.142.06.149-.02.259-3.423-.9-7.205-2.141-10.349" transform="translate(-5891.179 -3833.861)" fill="#d19476"/>
    <path id="path80" d="M407.78-202.688a.126.126,0,0,0-.218.127,7.746,7.746,0,0,1,.782,5.724.088.088,0,0,0,.17.047,6.734,6.734,0,0,0-.734-5.9" transform="translate(-5895.373 -3835.502)" fill="#d19476"/>
    <path id="path82" d="M260.058-141.018a15.206,15.206,0,0,0-4.546,7.44.105.105,0,0,0,.2.056,18.3,18.3,0,0,1,4.468-7.37.088.088,0,0,0-.125-.125" transform="translate(-5805.006 -3872.178)" fill="#d19476"/>
    <path id="path84" d="M262.425-137.122a16.521,16.521,0,0,0-4.459,6.189c-.044.1.139.182.185.078a18.105,18.105,0,0,1,4.434-6.1c.109-.1-.051-.255-.161-.161" transform="translate(-5806.464 -3874.491)" fill="#d19476"/>
    <path id="path86" d="M264.344-126.925c-.707.9-1.374,1.825-2.051,2.745-.061.083.077.163.138.081.673-.916,1.357-1.822,2-2.76.035-.05-.047-.115-.086-.066" transform="translate(-5809.03 -3880.558)" fill="#d19476"/>
    <path id="path88" d="M271.71-132.908a31.448,31.448,0,0,1-5.513,6.379c-.169.139.071.369.238.239a18.266,18.266,0,0,0,5.521-6.474.143.143,0,0,0-.247-.144" transform="translate(-5811.325 -3876.973)" fill="#d19476"/>
    <path id="path148" d="M111.829-321.826A19.106,19.106,0,0,0,93.89-337.531c-3.4-10.27-13.181-18.642-24.327-18.421-10.411.211-19.892,8.356-21.455,18.556-.384.606-.735,1.233-1.065,1.866a11.532,11.532,0,0,0-11.563,7.139c-.865,2.217-.773,3.283-3.521,3.721a15.106,15.106,0,0,0-3.937,1.033A12.742,12.742,0,0,0,25-321.761H111.84l-.011-.065" transform="translate(-5668 -3744.438)" fill="#c7eff2"/>
    <path id="path150" d="M503.073-426.395c-2.644-7.328-9.453-13.483-17.561-13.342-7.453.13-14.418,6.3-14.964,13.7-2.666-.319-5.447,1.271-7.269,3.294a18.485,18.485,0,0,0-4.051,7.62h59.1a12.761,12.761,0,0,0-15.257-11.271" transform="translate(-5926.093 -3694.639)" fill="#c7eff2"/>
  </g>
</svg>
