<svg xmlns="http://www.w3.org/2000/svg" width="131" height="109" viewBox="0 0 131 109">
  <g id="Group_43170" data-name="Group 43170" transform="translate(-1007 -8469)">
    <rect id="Rectangle_1782" data-name="Rectangle 1782" width="131" height="109" rx="8" transform="translate(1007 8469)" fill="#96d5dd"/>
    <g id="Group_33802" data-name="Group 33802" transform="translate(-19276.113 7514.065)">
      <path id="Path_23626" data-name="Path 23626" d="M28.873,78.34c-1.354-1.146-3.864-1.563-4.949,0,3.69,4.3,11.72,13.309,14.325,14.976s3.95,3.343,4.3,2.344c.608-.347,1.745-1.328,1.432-2.474C43.588,91.753,30.566,79.773,28.873,78.34Z" transform="translate(20295.717 944.537)" fill="none" stroke="#353535" stroke-width="3"/>
      <path id="Path_23627" data-name="Path 23627" d="M31.191,77.405,37.4,71.2c2.72-1.862,8.744-4.08,13.569,1.951H64.982c1.981,1.035,4.931,3.689.887,6.031H49.9" transform="translate(20294.264 946.158)" fill="none" stroke="#353535" stroke-width="3"/>
      <path id="Path_23628" data-name="Path 23628" d="M70.636,75.4,81.1,66c2.247-.976,6.62-2.747,5.059,3.071L79.274,74.2l-6.24,7.627c-1.094.828-4.721,5.121-8.34,4.837s-9.963-.65-12.683-.8c-1.508.68-4.612,2.306-4.967,3.37" transform="translate(20291.094 947.007)" fill="none" stroke="#353535" stroke-width="3"/>
      <path id="Path_23629" data-name="Path 23629" d="M38.892,60.886c-.217-3.386.677-11.225,5.991-15.5,6.641-5.339,13.543-9.637,27.217-3.516A24.688,24.688,0,0,1,82,55.807m-34.9,3.826c1.212-1.389,3.459-4.594,2.749-6.3S45.7,48.369,44.078,46.95" transform="translate(20292.729 952.226)" fill="none" stroke="#353535" stroke-linejoin="round" stroke-width="3"/>
      <path id="Path_23630" data-name="Path 23630" d="M65.041,65.332c-.148-2.572-3.591-7.988,4.5-7.917.857.237,8.061.361,9.338-2.193a20.239,20.239,0,0,1,4.08-5.41" transform="translate(20287.664 950.038)" fill="none" stroke="#353535" stroke-width="3"/>
      <path id="Path_23631" data-name="Path 23631" d="M54.25,38.636c.769,2.365,3.193,6.971,6.74,6.474,4.434-.621,5.853-3.636,9.046-2.395,2.554.993,4.612-1.36,5.321-2.661m-11.88-3.734c-.342-1.228-.4-4.171,1.966-5.379a56.5,56.5,0,0,1,6.04-2.6m-14.8,0c2.275.383,6.535,3.679,6.825,8.366" transform="translate(20289.652 954.331)" fill="none" stroke="#353535" stroke-width="3"/>
      <path id="Path_23632" data-name="Path 23632" d="M74.817,22.98c-3,.193-4.56,3.946-4.459,5.8,1.752,1.47,5.277,2.658,8.031,0a5.473,5.473,0,0,1,6.818-.6C83.636,25.759,78.562,22.739,74.817,22.98Z" transform="translate(20286.432 955.407)" fill="none" stroke="#353535" stroke-width="3"/>
      <path id="Path_23633" data-name="Path 23633" d="M52.888,23.285c5.75,0,6.1,4.027,5.557,6.04-.12.647-.607,2.237-1.583,2.733-1.188.181-5.447-.317-6.994-2.008s-4.349-1.953-5.557-1.872C45.277,26,50.431,24.01,52.888,23.285Z" transform="translate(20291.641 955.343)" fill="none" stroke="#353535" stroke-width="3"/>
    </g>
  </g>
</svg>
