<svg width="172" height="268" viewBox="0 0 172 268" fill="none" xmlns="http://www.w3.org/2000/svg">
<g clip-path="url(#clip0_1_669)">
<path d="M266.803 214.976L241.816 73.2711C240.096 63.5116 233.591 55.4474 224.417 51.7L164.794 27.3453C162.226 26.2966 159.551 25.6479 156.856 25.3804L153.637 7.12383C152.887 2.86958 148.832 0.0295945 144.575 0.778963C140.321 1.52885 137.48 5.58598 138.23 9.84022L141.45 28.0988C139.045 29.256 136.785 30.7558 134.755 32.5841L128.002 38.6661L127.001 37.7577C124.947 35.8939 122.655 34.3691 120.213 33.1958L124.331 9.84022C125.081 5.58598 122.241 1.52885 117.987 0.778963C113.733 0.0264657 109.675 2.86906 108.925 7.12383L104.807 30.481C102.151 30.7459 99.5146 31.3826 96.9812 32.4068L36.8211 56.7188C27.5924 60.4484 21.0504 68.5272 19.3217 78.3305L0.683453 184.036C-2.06267 199.611 8.37426 214.516 23.9488 217.262L100.127 230.694L102.465 243.954C104.915 257.852 117.046 267.658 130.696 267.658C132.343 267.658 134.014 267.515 135.691 267.219L243.538 248.203C259.112 245.456 269.549 230.551 266.803 214.976ZM240.821 232.796L132.974 251.812C129.544 252.417 126.085 251.65 123.232 249.652C120.38 247.655 118.476 244.666 117.871 241.237L116.522 233.585L131.795 236.278C133.478 236.575 135.163 236.722 136.837 236.722C142.667 236.722 148.351 234.941 153.227 231.527C159.503 227.133 163.691 220.558 165.022 213.014L183.669 107.257C185.39 97.4971 182.035 87.6948 174.697 81.036L139.646 49.2324L145.223 44.2095C147.651 42.0234 150.798 40.8704 153.977 40.8704C155.634 40.8704 157.3 41.1844 158.877 41.8284L218.5 66.1831C222.67 67.8868 225.627 71.5518 226.409 75.988L251.396 217.693C252.645 224.772 247.901 231.547 240.821 232.796ZM16.0896 186.752L34.7289 81.0469C35.5148 76.5909 38.4882 72.9186 42.683 71.2233L101.837 47.3175L100.141 56.9336C99.3915 61.1879 102.232 65.245 106.486 65.9949C106.946 66.0762 107.403 66.1148 107.854 66.1148C111.578 66.1148 114.878 63.4443 115.548 59.6495L117.244 50.0297L164.185 92.6217C167.52 95.6484 169.045 100.104 168.263 104.54L149.615 210.297C149.01 213.726 147.107 216.714 144.254 218.712C141.402 220.71 137.942 221.476 134.512 220.872L26.6647 201.855C19.5856 200.607 14.8417 193.832 16.0896 186.752Z" fill="#F0F0F0"/>
<path d="M79.0426 182.577L77.7937 189.66C77.2936 192.496 79.1876 195.2 82.0239 195.7C82.3301 195.755 82.6346 195.78 82.9355 195.78C85.4183 195.78 87.6189 194 88.0648 191.47L89.3831 183.995C94.7424 183.979 99.8576 182.489 104.397 179.589C109.8 176.136 113.959 170.901 116.108 164.847C120.483 152.521 115.781 140.303 104.129 133.719C102.204 132.631 100.433 131.603 98.7948 130.621L104.005 101.072C107.667 102.422 109.775 104.644 111.178 106.126C111.578 106.547 111.955 106.946 112.341 107.303C114.456 109.258 117.755 109.128 119.71 107.014C121.665 104.9 121.536 101.6 119.421 99.6452C119.291 99.5242 119.017 99.2353 118.752 98.9558C116.862 96.958 112.909 92.7846 105.833 90.707L106.91 84.5983C107.41 81.762 105.516 79.0576 102.679 78.5575C99.843 78.0579 97.1386 79.9509 96.6385 82.7878L95.4531 89.5091C94.3789 89.5493 93.2676 89.6296 92.1068 89.7673C83.5216 90.7857 76.1974 96.6962 72.9914 105.193C70.0773 112.916 71.2637 121.055 76.0879 126.433C78.7798 129.434 82.2956 132.366 87.306 135.711L80.8537 172.304C75.7745 171.133 72.6785 169.493 67.7119 164.831C65.6124 162.86 62.3119 162.964 60.3408 165.064C58.3696 167.163 58.4733 170.464 60.5733 172.435C67.3333 178.78 72.2357 181.06 79.0426 182.577ZM106.279 161.358C104.244 167.091 98.8751 172.635 91.2411 173.458L96.8616 141.582C97.5542 141.981 98.266 142.387 98.9976 142.8C109.717 148.856 107.281 158.536 106.279 161.358ZM83.8517 119.468C81.6375 117 81.2151 112.94 82.7493 108.874C84.1803 105.082 87.7128 100.791 93.3349 100.124C93.4199 100.115 93.5012 100.108 93.5857 100.098L89.3096 124.35C87.0276 122.62 85.2451 121.021 83.8517 119.468Z" fill="#F0F0F0"/>
</g>
<defs>
<clipPath id="clip0_1_669">
<rect width="267" height="267" fill="white" transform="translate(0.243164 0.658203)"/>
</clipPath>
</defs>
</svg>
