<svg xmlns="http://www.w3.org/2000/svg" width="48" height="48" viewBox="0 0 48 48">
  <g id="Group_24585" data-name="Group 24585" transform="translate(-0.103 -0.001)">
    <path id="Path_23462" data-name="Path 23462" d="M32.494,16.393c-9.532-4.274-7.041-1.016-10.137,1.212-.232.646-5.024,6.64-6.776,6.538-2.19-.128-2.444,2.7-.981,2.039s1.651,2.076,1.129,4.745,6,8.991,10.815,2.985,6.074-7.542,7.936-4.9,3.458,2.277,3.3,0-1.635-2.106,1.873-4.869C42.463,21.933,33.982,16.81,32.494,16.393Z" fill="#96d5dd"/>
    <circle id="Ellipse_205" data-name="Ellipse 205" cx="24" cy="24" r="24" transform="translate(0.103 0.001)" fill="#60c8d2"/>
    <path id="Path_23463" data-name="Path 23463" d="M33.552,14.209C18.921,11.5,14.365,19.8,13.915,24.294c.537,1.049,1.142,3.277-.734,3.794-2.345.646.76,4.939,1.444,3.4s4.123,2.455,6.777,6.622,5.344-3.8,3.024-14.566S32.892,24.9,37.9,28.111s4.858,1.285,1.993-2.04-.834-.815-.609-6.26C39.466,15.455,35.538,14.261,33.552,14.209Z" fill="#96d5dd"/>
    <path id="Path_23464" data-name="Path 23464" d="M5.659,9.96C-.705,18.245.606,27.37,2.057,30.9a2.87,2.87,0,0,1,1.095,3.227c-.631,2.1,2.057,3,1.757,1.426s2.4-1.126,4.878,0,.6-6.454-4.127-12.532,3.6-4.953,6.6-6.153,2.251-2.476,0-2.852-.6,0-2.476-4.052C8.285,6.718,6.409,8.609,5.659,9.96Z" fill="#96d5dd"/>
    <path id="Path_23465" data-name="Path 23465" d="M19.738,1.014C16.1.36,20.3,4.319,22.855,6.381a2.166,2.166,0,0,1,1.891,1.942c.051,1.635,6.44,3.322,4.6.92s1.226-1.891,3.782-2.555-.2-3.833-1.38-5.111-5.06-.818-5.673-.562S24.286,1.832,19.738,1.014Z" fill="#96d5dd"/>
    <path id="Path_23466" data-name="Path 23466" d="M13.114,26.521c.961,4.529,4.089,5.347,5.532,5.189.869.043,3.478-1.383,4.675-2.1.4.443,2.084,1.244,5.618.9s3.874-4.4,3.6-6.39l-.386-1.973c3.568-3.808,2.116-6.447.944-7.291a10.066,10.066,0,0,0-3.517-6.69c-2.676-2.23-7.285-.029-9.254,1.351-1.28-.69-4.512-1.826-7.2-.855s-1.787,5.564-1,7.739C7.427,20.174,10.826,24.72,13.114,26.521Z" fill="#8bb73f"/>
    <path id="Path_23467" data-name="Path 23467" d="M12.392,16.5a.5.5,0,1,0,.974-.227Zm9.562-5.688-.244.436.269.15.255-.172Zm12.685,5.575-.5.034.013.192.139.134Zm-1.02,7.206-.369-.337-.185.2.071.264ZM33.6,25.46a.5.5,0,0,0,.966-.26Zm.838,2.583a.5.5,0,0,0-.973-.233Zm-9.659,2.818.227-.446-.282-.144-.25.194ZM14.733,27.633l.482-.132-.05-.184-.161-.1Zm-.549-9.7a.5.5,0,1,0-.659-.752ZM20.49,27.13a.5.5,0,0,0,.585.811Zm7.75-.825a.5.5,0,0,0,.5-.864Zm-1.761,2.033a.5.5,0,0,0,.9-.431Zm-2.351-2.866a.5.5,0,0,0-.056,1Zm4.016-4.761a.5.5,0,1,0-.672.741Zm1.116,3.109a.5.5,0,0,0,1,0Zm-8.026-1.452a.5.5,0,0,0,.659.752Zm9.955-.886a.5.5,0,0,0,.069-1Zm-11.754-5a.5.5,0,1,0,.158.987Zm3,1.089a.5.5,0,0,0,.6-.8Zm.582,2.37a.5.5,0,0,0,1-.062ZM20.065,12.73a.5.5,0,0,0-.515.857ZM17.27,17.549a.5.5,0,0,0,0,1Zm-1.794,2.464a.5.5,0,1,0,.27.963ZM19.8,39.076a.5.5,0,1,0,1,0Zm9.619-22.5a.5.5,0,0,0-.283-.959Zm-16.048-.3a7.062,7.062,0,0,1-.044-2.577,5.629,5.629,0,0,1,1.08-2.643,3.346,3.346,0,0,1,2.526-1.264,9.109,9.109,0,0,1,4.782,1.459l.488-.873A10.065,10.065,0,0,0,16.872,8.79a4.345,4.345,0,0,0-3.247,1.633,6.62,6.62,0,0,0-1.29,3.115,8.053,8.053,0,0,0,.057,2.961Zm8.867-5.047c2.609-1.759,5.473-2.418,7.7-1.7,2.176.7,3.921,2.776,4.2,6.894l1-.069c-.3-4.391-2.216-6.913-4.9-7.777-2.625-.846-5.81-.038-8.569,1.822Zm12.059,5.52a3.316,3.316,0,0,1,1.351,2.293c.008.891-.537,2.178-2.394,4.215l.739.674c1.887-2.071,2.666-3.6,2.654-4.9a4.265,4.265,0,0,0-1.657-3.005Zm-1.156,6.976L33.6,25.46l.966-.26L34.1,23.462Zm.334,4.088a5.118,5.118,0,0,1-2.193,3.279c-1.227.715-3.182.9-6.267-.674l-.454.891c3.258,1.658,5.6,1.595,7.224.647a6.109,6.109,0,0,0,2.662-3.91Zm-8.992,2.655c-1.678,1.3-3.565,2.171-5.2,1.954-1.559-.207-3.111-1.446-4.06-4.918l-.965.264c1,3.667,2.769,5.363,4.893,5.645,2.046.271,4.208-.811,5.946-2.154ZM15,27.213a7.337,7.337,0,0,1-3-3.7,4.2,4.2,0,0,1,.018-2.6,6.954,6.954,0,0,1,2.159-2.987l-.659-.752a7.939,7.939,0,0,0-2.45,3.427,5.2,5.2,0,0,0-.023,3.2,8.329,8.329,0,0,0,3.41,4.242Zm6.071.728a12.677,12.677,0,0,1,3.414-1.728,4.706,4.706,0,0,1,3.751.092l.5-.864a5.678,5.678,0,0,0-4.553-.182,13.672,13.672,0,0,0-3.7,1.871Zm6.306-.034a4.99,4.99,0,0,0-1.141-1.486,3.51,3.51,0,0,0-2.113-.95l-.056,1a2.518,2.518,0,0,1,1.5.7,4,4,0,0,1,.9,1.17Zm.091-6.456a11.84,11.84,0,0,1,1.182,1.2,3.866,3.866,0,0,1,.452.663,1.166,1.166,0,0,1,.154.509h1A2.141,2.141,0,0,0,30,22.854a4.843,4.843,0,0,0-.569-.841,12.8,12.8,0,0,0-1.282-1.3Zm-5.58,1.668a7.5,7.5,0,0,1,2.792-1.175,20.967,20.967,0,0,1,6.5-.463l.069-1a21.955,21.955,0,0,0-6.816.491,8.313,8.313,0,0,0-3.209,1.393Zm-2.3-5.653a10.19,10.19,0,0,1,1.6-.121,4.7,4.7,0,0,1,.8.067,1.142,1.142,0,0,1,.445.155l.6-.8a2.08,2.08,0,0,0-.86-.339,5.683,5.683,0,0,0-.975-.085,11.175,11.175,0,0,0-1.765.134Zm4.421,2.409a10.811,10.811,0,0,0-.908-3.517,7.893,7.893,0,0,0-3.041-3.628l-.515.857a6.9,6.9,0,0,1,2.643,3.179,9.821,9.821,0,0,1,.824,3.172Zm-2.343,4.681A14.032,14.032,0,0,0,20.6,20.3c-.634-1.4-1.684-2.751-3.329-2.751v1c1.01,0,1.813.831,2.418,2.164a13.039,13.039,0,0,1,.987,3.933Zm-5.925-3.582a16.317,16.317,0,0,0,1.738-.6,5.613,5.613,0,0,0,1.7-.991l-.708-.706a4.79,4.79,0,0,1-1.377.774,15.337,15.337,0,0,1-1.624.565Zm5.049,18.1c0-6.049-.068-11.024.994-14.842a10.948,10.948,0,0,1,2.532-4.742,11.14,11.14,0,0,1,5.093-2.92l-.283-.959A12.134,12.134,0,0,0,23.6,18.8a11.941,11.941,0,0,0-2.771,5.163C19.717,27.949,19.8,33.1,19.8,39.076Z" fill="#353535"/>
  </g>
</svg>
