<svg id="Group_24708" data-name="Group 24708" xmlns="http://www.w3.org/2000/svg" width="98.48" height="89.825" viewBox="0 0 98.48 89.825">
  <path id="path240" d="M871.215-2066.556l0-.772a21.887,21.887,0,0,1-2.39,5.578,11.9,11.9,0,0,1-2.981,3.979,9.611,9.611,0,0,1-6.253,1.808c-.307,1.435-1.155,4.569-1.584,6.241-.066.257.324.444.609.544a.3.3,0,0,0,.382-.181c.186-.5.615-1.708,1.165-3.548.388-1.3.584-1.623.932-1.847a2.826,2.826,0,0,1,2.367.019,2.079,2.079,0,0,1,1.185.856,1.772,1.772,0,0,1,.2,1,15.933,15.933,0,0,1-1.152,4.42.3.3,0,0,0,.182.4l.546.188a.3.3,0,0,0,.392-.212c.153-.61.511-2.068.978-4.155,1.013-4.531,3.316-3.691,3.318-3.914.02-3.077,2.184-8.351,2.849-10.041.074-.19-.541-.346-.744-.362" transform="translate(-834.764 2080.425)" fill="#f2f4f4"/>
  <path id="path246" d="M1048.155-2074.578a11.447,11.447,0,0,1,.121-1.3.508.508,0,0,0-.165-.46,13.038,13.038,0,0,1-4.643,1.821,12.78,12.78,0,0,1-2.293.208c2.819.626,5.3.977,6.39,1.116a.507.507,0,0,0,.572-.505c0-.219,0-.508.018-.877" transform="translate(-1010.319 2089.063)" fill="#f5fafc"/>
  <path id="path236" d="M858.587-2097.681a.3.3,0,0,0-.325.306,14,14,0,0,1-.256,3.629,32.417,32.417,0,0,1-1.883,5.853.544.544,0,0,0,.323.716,1.828,1.828,0,0,1,1.271,2.066c-.133.953-1.05,4.363-1.547,6.3-.066.257,1.012.4,1.069.244.186-.5.4-1.107.95-2.948.388-1.3.584-1.624.931-1.847a2.825,2.825,0,0,1,2.367.019,2.074,2.074,0,0,1,1.185.856,1.772,1.772,0,0,1,.2,1,13.938,13.938,0,0,1-1.031,4.111c-.065.161,1.093.375,1.137.2.153-.61.373-1.587.84-3.675,1.013-4.53,3.419-3.655,3.456-4.394.215-4.332,2.506-9.462,3.17-11.152a.3.3,0,0,0-.259-.412l-11.594-.872" transform="translate(-832.924 2109.517)" fill="#d8e1e5"/>
  <path id="path238" d="M859.192-2109.242a.3.3,0,0,0-.325.307,17.342,17.342,0,0,1-.405,3.61,42.843,42.843,0,0,1-1.871,6.353.3.3,0,0,0,.229.405,1.622,1.622,0,0,1,1.5,1.9c-.133.953-1.188,4.844-1.685,6.777-.066.257.324.444.609.544a.3.3,0,0,0,.382-.18c.186-.5.615-1.708,1.165-3.548.388-1.3.584-1.624.932-1.847a2.827,2.827,0,0,1,2.367.019,2.08,2.08,0,0,1,1.185.856,1.773,1.773,0,0,1,.2,1,15.933,15.933,0,0,1-1.152,4.419.3.3,0,0,0,.182.4l.546.188a.3.3,0,0,0,.392-.212c.153-.61.511-2.068.978-4.155,1.013-4.531,3.316-3.691,3.318-3.914.023-3.523,3.182-11,3.182-11l-11.728-1.918" transform="translate(-833.392 2120.596)" fill="#f9f9f9"/>
  <path id="path242" d="M909.877-2122.176c1.781.553,3.334.992,3.946,1.155a48.347,48.347,0,0,0,5.944,1.093c.871-1.788,1.577-3.093,1.577-3.093l-12.168-2.294a7.2,7.2,0,0,1-.329,2.814c.319.1.559.178,1.029.325" transform="translate(-883.494 2136)" fill="#ebf0f2"/>
  <path id="path244" d="M884.887-2141.834a.507.507,0,0,0-.574.284c-.085.186-.211.455-.394.84-.25.524-.43.893-.556,1.147a.507.507,0,0,0,.288.705,58.615,58.615,0,0,0,6.045,1.724c2.893.651,5.453,1.014,6.568,1.156a.507.507,0,0,0,.572-.505c0-.22,0-.508.018-.877a11.461,11.461,0,0,1,.121-1.3.507.507,0,0,0-.407-.578c-1-.188-3.373-.65-5.976-1.267-2.476-.587-4.795-1.118-5.706-1.326" transform="translate(-859.019 2151.844)" fill="#fff"/>
  <path id="Path_18569" data-name="Path 18569" d="M-1932.572,3935.764s33.485,29.19,96.155,6.794" transform="translate(1934.395 -3935.23)" fill="none" stroke="#707070" stroke-width="1"/>
  <path id="path20" d="M734.347-414.23c-22.669,0-41.045-1.864-41.045-4.164s18.377-4.164,41.045-4.164,41.046,1.864,41.046,4.164-18.377,4.164-41.046,4.164" transform="translate(-676.913 504.055)" fill="#e9e9e9"/>
  <path id="path22" d="M1795.319-2041.813c.113-.385,1.287-.532,3.416-.706,1.162-.1-.407-.011,5.9-.65,1.832-.186,2.819-.248,2.9-.061.207.479-2.314,2-4.352,2.759a7.493,7.493,0,0,1-5.549.184c-.979-.424-2.463-1.037-2.319-1.525" transform="translate(-1733.091 2057.438)" fill="#729600"/>
  <path id="path24" d="M1833.051-2043.235c-.072-.166-.856-.136-2.308,0a16.435,16.435,0,0,1-3.785,2.014,7.807,7.807,0,0,1-5.03.377c.4.2.848.388,1.222.55a7.493,7.493,0,0,0,5.549-.184c2.037-.764,4.558-2.28,4.352-2.759" transform="translate(-1758.604 2057.442)" fill="#718c00"/>
  <path id="path28" d="M1808.358-2023.1c-.185-.635-.617-2.792-1.479-7.106-1-5.006-1.434-11.22-2.013-10.766a11,11,0,0,1-12.021,1.4c-.667-.312.357,5.837.55,10.938.167,4.4.25,6.594.218,7.256a46.56,46.56,0,0,0,.1,7.02l4.6.182s.327-11.834,1.281-13.764a.966.966,0,0,1,1.41-.145c1.377,1.654,4.453,13.087,4.453,13.087l4.433-1.249a46.428,46.428,0,0,0-1.536-6.851" transform="translate(-1730.516 2055.187)" fill="#acd466"/>
  <path id="path30" d="M1921.007-1795.181a12.642,12.642,0,0,0-1.762-3.867c-.512-.712-1.376-1.914-2.086-1.74-.627.154-.858,1.313-1.062,2.683a56.032,56.032,0,0,0-.586,8.851c.015,1.228.026,3.03,0,5.255l.583.023s.327-11.834,1.281-13.765a.966.966,0,0,1,1.411-.145c1.377,1.655,4.453,13.087,4.453,13.087l.655-.185c-.685-2.523-1.21-4.509-1.574-5.9,0,0-.311-1.183-1.308-4.3" transform="translate(-1848.288 1824.985)" fill="#95b708"/>
  <path id="path32" d="M1794.5-1997.4c-.238-3.059-.562-3.75-.71-6.68-.048-.941-.063-1.821-.056-2.629-.291-.113-.585-.237-.882-.376-.667-.311.357,5.838.55,10.939.167,4.4.25,6.594.218,7.255a46.5,46.5,0,0,0,.1,7.02l.854.034c-.036-3.055-.032-5.546-.022-7.269.03-5.126.132-5.915-.053-8.293" transform="translate(-1730.521 2022.696)" fill="#8bb73f"/>
  <path id="path36" d="M2071.163-2023.1c-.185-.635-.617-2.792-1.479-7.106-1-5.006-1.434-11.22-2.013-10.766q-.4.313-.84.609a26.637,26.637,0,0,1,1.163,4.867c.052.394.184,1.5.433,3.09,0,0,.289,1.839.687,3.851.435,2.2,1.5,6.635,3.12,12.437l.466-.131a46.428,46.428,0,0,0-1.536-6.851" transform="translate(-1993.32 2055.187)" fill="#8dc11a"/>
  <path id="path38" d="M1799.17-2037.349a12.094,12.094,0,0,0,6.185-2.528c-.161-.8-.317-1.232-.485-1.1a11,11,0,0,1-12.021,1.4c-.185-.086-.24.326-.219,1.075a12.1,12.1,0,0,0,6.54,1.154" transform="translate(-1730.52 2055.192)" fill="#f4f7e7"/>
  <path id="path40" d="M1950.677-1969.307c.188-.2.807-.565,1.011-.387a1.2,1.2,0,0,1-.124,1.344c-.233.126-.836-.214-.961-.447a.61.61,0,0,1,.074-.51" transform="translate(-1881.9 1986.896)" fill="#cbea47"/>
  <path id="path42" d="M1915.295-1965.4c-.216-.164-.884-.434-1.058-.227a1.2,1.2,0,0,0,.329,1.309c.25.089.793-.339.882-.588a.612.612,0,0,0-.152-.493" transform="translate(-1846.99 1983.024)" fill="#cbea47"/>
  <path id="path44" d="M1941.148-1959.29a.277.277,0,0,1,.255-.3.277.277,0,0,1,.3.255.278.278,0,0,1-.255.3.277.277,0,0,1-.3-.256" transform="translate(-1872.864 1977.166)" fill="#c0e03b"/>
  <path id="path46" d="M1799.607-2070.814l-1.124.249-.9-4.06,1.125-.25.9,4.061" transform="translate(-1735.27 2087.658)" fill="#efb703"/>
  <path id="path114" d="M1287.514-2237.913a2.733,2.733,0,0,0-2.889,1.032,1.353,1.353,0,0,0-.181.859,1.505,1.505,0,0,0,1.5,1.181c.41-.043.434-.325,1.2-.882.917-.666,1.715-.056,1.779-.419a1.5,1.5,0,0,0-1.414-1.772" transform="translate(-1243.457 2243.97)" fill="#11226b"/>
  <path id="path118" d="M1342.48-2225.064a.784.784,0,0,0-.593.132c-.207.167-.34.491-.236.635.219.3,1.53-.11,1.527-.418,0-.171-.408-.325-.7-.349" transform="translate(-1298.265 2231.609)" fill="#213487"/>
  <path id="path122" d="M1286.8-2203.605c-.092-.313.718-.926,1.258-1.155,1.291-.548,3.185-.762,3.614-.177a.516.516,0,0,1,.007.573c-.365.545-1.65-.157-2.907.471-.469.235-.881.782-1.434.774-.268,0-.488-.313-.539-.486" transform="translate(-1245.723 2212.646)" fill="#efb703"/>
  <path id="path124" d="M1235.421-2041.155c-.721.152-1.389-.146-3.04-.649a8.208,8.208,0,0,0-4.831-.155c-1.173.2-7.426,1.295-3.142,2.665a36.762,36.762,0,0,0,5.341.761c1.091.127.607.034,3.388.293a17.17,17.17,0,0,0,2.706-.012c2.488-.481,7.309-6.755,8.117-7.68l-.765-.757a38.322,38.322,0,0,1-7.773,5.534" transform="translate(-1184.512 2060.644)" fill="#e85d5d"/>
  <path id="path126" d="M1696.992-2094.649c.318-.283,1.039-1.327,1.333-1.648.252-.275.3-.414.536-.536a1.718,1.718,0,0,1,.4-.134,3.735,3.735,0,0,1,.478-.058c.611-.057.564-.051.613-.057a1.5,1.5,0,0,1,.4-.039,1.772,1.772,0,0,1,.4.135c.223.081.236.069.42.134.123.043.67.237.651.363-.012.07-.195.095-.344.115a3.932,3.932,0,0,1-.765-.019,2.242,2.242,0,0,0-.555.019,1.783,1.783,0,0,0-.746.344c-.216.166-.2.235-.478.439-.222.166-.372.228-.363.249a1.261,1.261,0,0,0,.726-.249,3.842,3.842,0,0,1,.555-.363.406.406,0,0,1,.325-.057.265.265,0,0,1,.172.191c.018.15-.191.253-.593.554-.31.234-.227.2-.613.5a2.383,2.383,0,0,1-.746.478c-.315.052-.469-.11-.669.019a1.5,1.5,0,0,0-.422.507c-.26.481-1.327-.344-.72-.886" transform="translate(-1638.686 2108.982)" fill="#e85d5d"/>
  <path id="path128" d="M1234.274-1938.943c-.468-.117-1.053-.319-1.892-.576a8.208,8.208,0,0,0-4.831-.155c-1.173.2-7.426,1.295-3.142,2.665a36.744,36.744,0,0,0,5.341.761c1.091.127.607.034,3.388.293.026,0,.16.011.358.02a13.278,13.278,0,0,0,.758-2.855c.008-.051.014-.1.021-.153" transform="translate(-1184.512 1958.359)" fill="#12236d"/>
  <path id="path130" d="M1371.244-1801.615c.735-3.431,2.194-6.079,4.642-7.182,1.741-.784.039,5.031.126,6.372,1,15.411,5.428,19.448,5.894,22.015a4.776,4.776,0,0,1,0,1.727c-.779,4.17-4.187,22.6-4.3,26.406-.075,3.682,2.516,3.682,5.165,4.647a40.148,40.148,0,0,1-4.1.073,2.618,2.618,0,0,0-1.245.271c-.655.291-1.632-2.068-1.632-2.068-.488-3.65-1.229-14.875-.856-19.054.269-3.018,1.466-10.629,1.466-10.629a115.39,115.39,0,0,1-5.7-10.069c-1.719-4.175-.4-8.129.541-12.51" transform="translate(-1325.344 1832.714)" fill="#fb7574"/>
  <path id="path132" d="M1465.14-1918.009a17.417,17.417,0,0,1-.917,3.081l.175.016c.026,0,.16.011.358.02a13.275,13.275,0,0,0,.758-2.855c.008-.051.014-.1.021-.153-.123-.031-.254-.067-.395-.109" transform="translate(-1415.774 1937.315)" fill="#eff0f4"/>
  <path id="path134" d="M1249.44-1139.994a4.768,4.768,0,0,1,0,1.727c-.78,4.17-4.188,22.6-4.3,26.407.136,3.117.958,2.361.594,2.872-.166.232-.783,1.165-.869,1.2-.655.291-1.535-1.152-1.535-1.152-.488-3.65-1.228-14.875-.856-19.054.269-3.018,2.73-7.256,2.73-7.256s3.775-7.313,4.24-4.747" transform="translate(-1203.146 1192.178)" fill="#fb7574"/>
  <path id="path136" d="M1378.174-1485.955c.2,1.282-3.177,16.732-1.374,31.114-.245-.031-.971-.734-1.188-.852,0,0-1.166-13.376-.669-18.96.269-3.018,1.466-10.629,1.466-10.629a115.441,115.441,0,0,1-5.7-10.069,12.712,12.712,0,0,1-.613-7.018c2.942,5.5,7.877,15.12,8.077,16.415" transform="translate(-1325.35 1538.961)" fill="#f76f6f"/>
  <path id="path138" d="M1420.523-1661.313c1.741-.785,2.478.282,2.9,1.557,3.454,10.329,6.851,13.888,6.383,20.627-.293,4.231-5.3,24.208-5.417,28.015,0,.123,0,.241,0,.356-.15.044-.306.083-.469.114a5.058,5.058,0,0,1-1.6.05c-.445-4.809-.907-13.171-.6-16.651.269-3.017,1.466-10.628,1.466-10.628s-2.74-4.386-4.5-7.65c.865-5.263,1.059-15.442,1.833-15.791" transform="translate(-1372.134 1691.551)" fill="#96d5dd"/>
  <path id="path140" d="M1378.174-1485.955c.184,1.189-2.707,14.571-1.686,27.982a5.152,5.152,0,0,1-1.061-.044c-.307-4.081-.852-12.5-.483-16.637.269-3.018,1.466-10.629,1.466-10.629a115.441,115.441,0,0,1-5.7-10.069,12.712,12.712,0,0,1-.613-7.018c2.942,5.5,7.877,15.12,8.077,16.415" transform="translate(-1325.35 1538.961)" fill="#60c8d2"/>
  <path id="path142" d="M1498-388c1.535,1.092,2.774.315,2.876.038,1.755.818,5.035.834,5.076,2.257.009.339-7.9.437-8.116.04-.394-.727.158-2.276.164-2.336" transform="translate(-1447.856 470.933)" fill="#efb703"/>
  <path id="path144" d="M1501.672-339.024a33.586,33.586,0,0,0,5.1-.256.841.841,0,0,1,.052.27c.009.339-7.9.437-8.116.04a1.2,1.2,0,0,1-.1-.277c.948.113,1.972.193,3.063.222" transform="translate(-1448.73 424.24)" fill="#3ca5ce"/>
  <path id="path146" d="M1567.979-381.786a6.8,6.8,0,0,0,1.27.242.075.075,0,0,1,.068.081.077.077,0,0,1-.082.069,6.975,6.975,0,0,1-1.3-.247c-.241-.071-.746-.336-.98-.433l.092-.061a.074.074,0,0,1,.07-.007c.236.1.636.292.861.357" transform="translate(-1514.235 465.327)" fill="#fff"/>
  <path id="path148" d="M1229.709-1695.571c-7.727,7.03-3.56,14.614-2.671,18.842.689,3.275-1.963,6.562-2.757,11.034-1.465,8.252.8,20.642.8,20.642h2.465s1.643-17.037,5.426-28.566c1.6-4.883,3.724-17.995,2.027-23.028-.68-2.018-3.743-.329-5.289,1.077" transform="translate(-1185.337 1726.052)" fill="#96d5dd"/>
  <path id="path150" d="M1260.8-399.1c.036,0,.225.338.39.467a2.053,2.053,0,0,0,1.513.421c.6-.18.278-.971.421-.966a7.57,7.57,0,0,1,.895,1.273,4.3,4.3,0,0,0,.674.766c.412.384.531.372.644.613a.861.861,0,0,1-.03.858.68.68,0,0,1-.368.215,5.623,5.623,0,0,1-1.839.154,2.771,2.771,0,0,1-1.042-.154.945.945,0,0,1-.521-.368c-.1-.165-.054-.267-.184-.429s-.2-.115-.337-.276a.834.834,0,0,1-.184-.43,1.162,1.162,0,0,1,.061-.4c.051-.28-.053-.395-.123-.766a1.694,1.694,0,0,1,.031-.981" transform="translate(-1220.733 481.643)" fill="#efb703"/>
  <path id="path152" d="M1266.88-354.7a3.972,3.972,0,0,1-1.685-.061,2.3,2.3,0,0,1-.889-.4,2.55,2.55,0,0,1-.552-.644c-.138-.2-.289-.419-.452-.662,0,.016,0,.032-.008.049a1.17,1.17,0,0,0-.061.4.833.833,0,0,0,.184.43c.135.161.214.124.337.276s.088.263.184.429a.945.945,0,0,0,.521.368,2.77,2.77,0,0,0,1.042.154,5.622,5.622,0,0,0,1.839-.154.68.68,0,0,0,.368-.215.594.594,0,0,0,.115-.257,4.077,4.077,0,0,1-.943.288" transform="translate(-1223.138 440.712)" fill="#3ca5ce"/>
  <path id="path154" d="M1310.511-372.64a3.932,3.932,0,0,1-1.135-1.424.09.09,0,0,1,.056-.118h0a.089.089,0,0,1,.109.052,3.837,3.837,0,0,0,1.07,1.345.09.09,0,0,1,.029.114.089.089,0,0,1-.131.032" transform="translate(-1267.361 457.695)" fill="#fff"/>
  <path id="path156" d="M1224.961-1636.044a50.462,50.462,0,0,1,.834-7.864c.324-1.54.783-3.24,1.549-6.077,1.056-3.912,1.142-3.868,1.191-4.646.194-3.008-1.07-3.805-1.43-7.149a16.8,16.8,0,0,1,.715-6.553,21.281,21.281,0,0,1,3.324-6.917,10.2,10.2,0,0,0-1.436,1.078c-7.727,7.03-3.56,14.614-2.671,18.842.689,3.275-1.963,6.562-2.757,11.034-1.465,8.252.8,20.642.8,20.642h.828a70.4,70.4,0,0,1-.947-12.39" transform="translate(-1185.337 1704.651)" fill="#60c8d2"/>
  <path id="path158" d="M1203.48-1949.548a2.8,2.8,0,0,0-.994,1.165c-.1.146-.864,2.033,1.173,4.643,2.976,3.813,3.237,7.884,3.52,8.051a17.42,17.42,0,0,0,5.039.607c2.881.038,3.828-.659,4.038-1.2.15-.388-.694-1.274-.7-2.929-.008-1.3,1.852-4.23.812-6.2-.56-1.06-1.18-1.772-3.508-3.508a3.882,3.882,0,0,0-2.118-.787c-.862-.085-1.2-.04-2.224-.13-2.465-.214-3.574-.459-5.034.286" transform="translate(-1164.709 1968.025)" fill="#1b2b80"/>
  <path id="path160" d="M1203.48-1949.548a2.8,2.8,0,0,0-.994,1.165c-.1.146-.864,2.033,1.173,4.643,2.976,3.813,3.237,7.884,3.52,8.051a17.42,17.42,0,0,0,5.039.607c2.881.038,3.828-.659,4.038-1.2.15-.388-.694-1.274-.7-2.929-.008-1.3,1.852-4.23.812-6.2-.56-1.06-1.18-1.772-3.508-3.508a3.882,3.882,0,0,0-2.118-.787c-.862-.085-1.2-.04-2.224-.13-2.465-.214-3.574-.459-5.034.286" transform="translate(-1164.709 1968.025)" fill="#1b2b80"/>
  <path id="path162" d="M1288.718-1948.718c.53.431,2.34,1.858,3.058,1.47.7-.377.321-1.751.07-2.464-.573-.037-.951-.021-1.785-.094-1.137-.1-1.984-.2-2.712-.216a12.051,12.051,0,0,0,1.368,1.3" transform="translate(-1246.255 1967.997)" fill="#fff"/>
  <path id="path164" d="M1361.517-2118.956c-.774-.171-3.474.719-4.057,4.6-.162,1.08,3.043,3.068,4.73-2.833.2-.685-.282-1.681-.673-1.767" transform="translate(-1313.444 2129.925)" fill="#11226b"/>
  <path id="path166" d="M1303.43-2018.536c.833.069.17-1.355.118-1.636a2.919,2.919,0,0,1,.308-1.932l-2.978-1.944s-.164,2.265-.943,3.1c0,0,2.3,2.312,3.5,2.412" transform="translate(-1258.317 2038.945)" fill="#fb7574"/>
  <path id="path168" d="M1315.38-2023.942a1.14,1.14,0,0,0,.654.575.987.987,0,0,0,.617-.078,1.987,1.987,0,0,0,.85-.731l-3.421-2.032a15.1,15.1,0,0,0,1.3,2.266" transform="translate(-1271.876 2041.015)" fill="#e85d5d"/>
  <path id="path170" d="M1311.947-2151.817a7.218,7.218,0,0,0,.148-.988,2.52,2.52,0,0,0,.017-.3,3.186,3.186,0,0,0-3.743-1.993,2.854,2.854,0,0,0-1.739,1.459c-.353.741.021.962-.318,2.727a2.231,2.231,0,0,0-.069,1.1c.068.251.223.567,1.024,1.222.967.788,1.45,1.183,1.961,1.146a2.448,2.448,0,0,0,1.536-1.05,4.2,4.2,0,0,0,.695-1.155,12.149,12.149,0,0,0,.487-2.175" transform="translate(-1264.319 2164.638)" fill="#fb7574"/>
  <path id="path172" d="M1364.444-2076.185c-.118-.029-.248.079-.288.242a.273.273,0,0,0,.142.348c.118.029.247-.079.288-.243a.272.272,0,0,0-.142-.348" transform="translate(-1319.856 2088.918)" fill="#26275d"/>
  <path id="path174" d="M1415.8-2065.785c-.095-.023-.2.09-.244.253s0,.314.1.338.2-.09.244-.253,0-.314-.1-.337" transform="translate(-1369.118 2078.949)" fill="#26275d"/>
  <path id="path176" d="M1353.475-2088.762a.88.88,0,0,0-.209-.17c-.021-.013-.044-.025-.066-.037s-.046-.022-.069-.032a1.112,1.112,0,0,0-.151-.051,1.287,1.287,0,0,0-.155-.03,1.286,1.286,0,0,0-.152-.007,1.089,1.089,0,0,0-.263.033.808.808,0,0,0-.239.094s.1,0,.25.008c.073,0,.157.011.244.022.045,0,.09.014.135.021s.091.018.135.031.084.023.132.04l.065.022c.021.008.042.016.062.025a1.727,1.727,0,0,1,.215.108c.062.038.112.073.147.1l.056.042a.6.6,0,0,0-.028-.065.747.747,0,0,0-.108-.153" transform="translate(-1308.381 2101.28)" fill="#c44747"/>
  <path id="path178" d="M1414.883-2076a.857.857,0,0,0-.188-.127.827.827,0,0,0-.118-.05.764.764,0,0,0-.128-.029.718.718,0,0,0-.134-.01c-.021,0-.038,0-.064,0l-.064.009a.734.734,0,0,0-.221.08.684.684,0,0,0-.138.1.412.412,0,0,0-.045.05s.021-.008.057-.019a1.521,1.521,0,0,1,.148-.037,1.315,1.315,0,0,1,.2-.021h.056c.014,0,.039,0,.058,0a.892.892,0,0,1,.114.013c.039,0,.077.014.114.021s.074.018.11.029c.071.022.137.047.193.071.114.047.192.085.192.085a.711.711,0,0,0-.146-.175" transform="translate(-1367.432 2088.941)" fill="#c44747"/>
  <path id="path180" d="M1375.3-2027.125a.092.092,0,0,0-.12-.008.743.743,0,0,1-.75.133.681.681,0,0,1-.322-.3.092.092,0,0,0-.115-.041.088.088,0,0,0-.043.126.864.864,0,0,0,.41.378.807.807,0,0,0,.149.047.955.955,0,0,0,.786-.2.089.089,0,0,0,.006-.133" transform="translate(-1329.239 2042.106)" fill="#c44747"/>
  <path id="path182" d="M1389.495-2052.7l-.031.1a.238.238,0,0,1,.174.171.243.243,0,0,1-.174.258.279.279,0,0,1-.289-.085l-.084.071a.4.4,0,0,0,.217.128.374.374,0,0,0,.193-.01.35.35,0,0,0,.246-.384.347.347,0,0,0-.251-.255" transform="translate(-1343.765 2066.406)" fill="#ef6060"/>
  <path id="path186" d="M1272.477-2186.47a6.927,6.927,0,0,0-1.274-.248,3.372,3.372,0,0,0-2.163.352,4.219,4.219,0,0,0-1.319,6.032c1.481,2.082,1.752,1.02,1.505.616a.961.961,0,0,1-.1-.2,2.214,2.214,0,0,1-.094-1.246c.123-.487.327-2.98,1.363-3.269a6.691,6.691,0,0,1,1.814-.277.9.9,0,0,0,.267-1.757" transform="translate(-1226.735 2194.884)" fill="#1b2b80"/>
  <path id="path188" d="M1305.97-2149.529a3.771,3.771,0,0,0-4.906-.1,4.234,4.234,0,0,0-.675,1.129,3.835,3.835,0,0,0-.274,2.934c.18.548.95,1.352.734.692a2.24,2.24,0,0,1-.235-1.536c.091-.493.327-2.98,1.362-3.268,3.936-1.1,4.207,1.406,4.207,1.406a2.832,2.832,0,0,0,.1-.858,2.492,2.492,0,0,0-.318-.4" transform="translate(-1258.317 2160.123)" fill="#11226b"/>
  <path id="path190" d="M1298.592-2089.555c-.2.013-.324.244-.348.288-.049.093-.129.293.005.818.106.41.236.917.43.922.288.007.751-1.1.355-1.715-.034-.052-.212-.328-.442-.313" transform="translate(-1256.631 2101.728)" fill="#fb7576"/>
  <path id="path194" d="M1372.712-2183.039c-.747-.493-1.989-.895-2.649-.1-.687.827-.265,1.891.683,2.62a6.178,6.178,0,0,0,4.03,1.246s-.711-1.478-.767-1.685a3.532,3.532,0,0,0-1.3-2.082" transform="translate(-1325.205 2191.851)" fill="#233c7c"/>
  <path id="path196" d="M1410.712-2164.254c-.255-.171-.747-.447-.858-.328-.129.139.3.767.679,1.18.507.55,1.306,1.121,1.463.975.173-.161-.389-1.223-1.284-1.827" transform="translate(-1363.643 2173.662)" fill="#304d8e"/>
  <path id="path198" d="M1733.518-2037.633c.2-.178.888-1.161,1.605-1.907a5.34,5.34,0,0,1,.662-.636,3.809,3.809,0,0,1,.737-.432,3.587,3.587,0,0,1,1.094-.33c.188-.024.351-.113.483-.026a.272.272,0,0,1,.127.28c-.036.1-.186.132-.279.153a5.076,5.076,0,0,0-1.018.3c0,.008.743-.25,1.043.051.054.055.134.167.1.254-.042.116-.247.078-.3.2s.106.217.051.381a.633.633,0,0,1-.178.229s.19.219.153.356c-.027.1-.16.121-.306.178-.313.124-.344.277-.661.509a3.1,3.1,0,0,1-.814.381c-.614.23-.69.147-.991.331a2.84,2.84,0,0,0-.661.661c-.542.649-1.357-.493-.843-.941" transform="translate(-1673.713 2055.194)" fill="#f76969"/>
  <path id="path200" d="M1208.722-1875.592a15.176,15.176,0,0,0-1.549-4.349,15.183,15.183,0,0,0-2.085-3.4,6.729,6.729,0,0,0-1.43-1.37,5.963,5.963,0,0,0-1.389-.7,5.6,5.6,0,0,0,1.393,3.622c2.976,3.813,3.237,7.884,3.52,8.051a5.891,5.891,0,0,0,1.666.375,11.381,11.381,0,0,0-.125-2.232" transform="translate(-1164.711 1906.071)" fill="#11226b"/>
  <path id="path202" d="M1361.592-1972.308c-.735.056-1.358-.208-2.928-.923-2.183-.993-5.694,1.988-3.039,2.659,1.065.269.6.232,3.32.854a17.172,17.172,0,0,0,2.685.343c2.529-.15,9.608-7.6,10.531-8.412l-.55-.995a83.46,83.46,0,0,1-10.018,6.474" transform="translate(-1310.779 1995.561)" fill="#f76969"/>
  <path id="path204" d="M1212.916-1931.423c-.448-.178-1-.455-1.8-.82-1.866-.849-5.981-3.023-8.18-3.6a1.615,1.615,0,0,0-1.727.633c-.758,1.074-.917,3.154,1.673,4.405a36.631,36.631,0,0,0,5.195,1.455c1.065.27.6.113,3.32.735.025.006.157.032.351.067a13.254,13.254,0,0,0,1.127-2.731c.014-.049.027-.1.041-.149" transform="translate(-1163.231 1954.454)" fill="#304d8e"/>
  <path id="path206" d="M1454.6-1832.329a17.429,17.429,0,0,1-1.313,2.934l.171.039c.025.006.157.032.351.067a13.264,13.264,0,0,0,1.127-2.731c.014-.049.027-.1.041-.149-.118-.047-.243-.1-.377-.161" transform="translate(-1405.295 1855.198)" fill="#eff0f4"/>
  <path id="path210" d="M1378.879-2211.283c-.035-.2-.537-.278-1.122-.176s-1.03.347-1,.546.537.278,1.122.176,1.03-.347,1-.546" transform="translate(-1331.948 2218.604)" fill="#ffce33"/>
  <path id="path214" d="M1378.847-2207.623a1.593,1.593,0,0,1-.968.433c-.522.091-.978.038-1.094-.117a.162.162,0,0,0-.028.113c.035.2.537.278,1.122.176s1.03-.346,1-.546a.141.141,0,0,0-.028-.059" transform="translate(-1331.944 2214.885)" fill="#ffc215"/>
  <path id="path218" d="M1331.15-2211.283c.035-.2.537-.278,1.122-.176s1.03.347,1,.546-.537.278-1.122.176-1.03-.347-1-.546" transform="translate(-1288.233 2218.604)" fill="#ffce33"/>
  <path id="path222" d="M1331.175-2207.623a1.593,1.593,0,0,0,.968.433c.522.091.977.038,1.094-.117a.16.16,0,0,1,.028.113c-.035.2-.537.278-1.121.176s-1.03-.346-1-.546a.137.137,0,0,1,.028-.059" transform="translate(-1288.231 2214.885)" fill="#ffc215"/>
  <path id="path226" d="M1369.318-2208.055a.46.46,0,0,1-.46.46.46.46,0,0,1-.46-.46.46.46,0,0,1,.46-.46.46.46,0,0,1,.46.46" transform="translate(-1323.934 2215.74)" fill="#ffce33"/>
  <path id="path230" d="M1369.318-2208.055a.46.46,0,0,1-.46.46.46.46,0,0,1-.46-.46.46.46,0,0,1,.46-.46.46.46,0,0,1,.46.46" transform="translate(-1323.934 2215.74)" fill="#ffce33"/>
  <path id="path234" d="M1369.564-2206.8a.466.466,0,0,1,.02.135.46.46,0,0,1-.46.46.456.456,0,0,1-.246-.072.461.461,0,0,0,.44.325.46.46,0,0,0,.46-.46.459.459,0,0,0-.214-.388" transform="translate(-1324.393 2214.094)" fill="#f7be1c"/>
  <path id="path266" d="M301.34-2339.893c-.186.077-.179,1.674-.16,3.789,0,.226.007,1.027-.07,2.021a5.767,5.767,0,0,1-.117.869,5.836,5.836,0,0,1-.47,1.293c-.236.479-.266.4-.681,1.152a5.224,5.224,0,0,0-.517,1.151,2.4,2.4,0,0,0-.117.823,1.983,1.983,0,0,0,.212.775,1.92,1.92,0,0,0,1.48,1.034,1.893,1.893,0,0,0,1.457-.517,2.429,2.429,0,0,0,.493-.752,14.912,14.912,0,0,0,.541-1.433c.28-.721.4-.882.564-1.011.25-.194.36-.124.588-.328a1.594,1.594,0,0,0,.446-1.011,3.658,3.658,0,0,0-.094-1.057c-.036-.27-.047-.618-.071-1.316a39.885,39.885,0,0,0-.023-4.136c-.149-.24-2.777-1.627-3.458-1.345" transform="translate(-299.203 2341.691)" fill="#1b2b80"/>
  <path id="path270" d="M307.616-2315.251c-.036-.269-.047-.618-.07-1.316a39.9,39.9,0,0,0-.023-4.136,2.09,2.09,0,0,0-.985-.607,30.155,30.155,0,0,1-.027,3.8,19.268,19.268,0,0,1-.282,2.726,7.925,7.925,0,0,1-1.41,3.76c-.4.5-.632.8-1.034.94a2.119,2.119,0,0,1-1.74-.312,1.856,1.856,0,0,0,.1.22,1.92,1.92,0,0,0,1.48,1.033,1.889,1.889,0,0,0,1.457-.517,2.414,2.414,0,0,0,.493-.751,15.049,15.049,0,0,0,.541-1.433c.28-.721.4-.882.564-1.011.25-.194.36-.124.587-.329a1.592,1.592,0,0,0,.446-1.01,3.665,3.665,0,0,0-.094-1.058" transform="translate(-301.927 2323.844)" fill="#0a1e72"/>
  <path id="path274" d="M415.6-2281.259c-.186.077-.168,1.632-.149,3.747,0,.226.007,1.027-.071,2.021a5.767,5.767,0,0,1-.117.87,5.837,5.837,0,0,1-.47,1.292c-.236.479-.266.4-.682,1.151a5.237,5.237,0,0,0-.517,1.151,2.4,2.4,0,0,0-.118.823,1.991,1.991,0,0,0,.211.776,1.922,1.922,0,0,0,1.481,1.034,1.894,1.894,0,0,0,1.457-.517,2.438,2.438,0,0,0,.493-.752,14.943,14.943,0,0,0,.54-1.433c.28-.721.4-.882.564-1.01.25-.194.36-.124.587-.329a1.593,1.593,0,0,0,.447-1.01,3.663,3.663,0,0,0-.094-1.058c-.036-.269-.047-.618-.071-1.316a39.868,39.868,0,0,0-.023-4.135c-.149-.24-2.788-1.585-3.47-1.3" transform="translate(-408.725 2285.496)" fill="#1b2b80"/>
  <path id="path278" d="M421.89-2257.738c-.036-.269-.047-.618-.071-1.316a39.867,39.867,0,0,0-.023-4.136,9.835,9.835,0,0,0-1.029-.614,31.325,31.325,0,0,1,.017,3.808,19.278,19.278,0,0,1-.282,2.726,7.923,7.923,0,0,1-1.41,3.76c-.4.5-.632.8-1.034.94a2.118,2.118,0,0,1-1.74-.312,1.823,1.823,0,0,0,.1.22,1.918,1.918,0,0,0,1.48,1.034,1.891,1.891,0,0,0,1.457-.517,2.43,2.43,0,0,0,.493-.752,14.98,14.98,0,0,0,.54-1.434c.28-.72.4-.881.564-1.01.25-.195.36-.124.587-.329a1.592,1.592,0,0,0,.447-1.01,3.66,3.66,0,0,0-.094-1.057" transform="translate(-411.448 2268.729)" fill="#0a1e72"/>
  <path id="path282" d="M2246.008-2138.866a.8.8,0,0,1,.421-.414.717.717,0,0,1,.418,0,9.284,9.284,0,0,0,1.608.184,4.583,4.583,0,0,0,.824-.042,3.751,3.751,0,0,0,1.989-.717,4.529,4.529,0,0,0,.847-.8c.056-.085.107-.175.211-.208.289-.091.7.348.843.577.472.76-.113,2.279-1.036,3.144-1.563,1.466-4.457,1.4-5.573.126-.415-.473-.8-1.356-.552-1.847" transform="translate(-2164.973 2150.917)" fill="#3aa6dd"/>
  <path id="path286" d="M2149.4-2133.647a10.652,10.652,0,0,1,1.236-.326,13.566,13.566,0,0,0,3.639-1.126,2.032,2.032,0,0,0,.66-.455,23.5,23.5,0,0,0-.92-3.452c-.141-.4-.321-1.142-.68-2.625-.454-1.876-.353-1.756-.82-3.928-.115-.534-.145-1.083-.231-1.621-.075-.467-.11-.643-.02-.706.309-.217,1.473.686,2.2,1.21.6.436,1.51-2.52,1.129-2.753-.359-.219-.712-.359-1.457-.844a4.8,4.8,0,0,1-.813-.714,7.9,7.9,0,0,0-1.484-1.39,1.3,1.3,0,0,0-.25-.138c-.535-.172-.848.409-1.7.493a4.839,4.839,0,0,1-.737,0c-.369-.026-.632-.03-.632-.03s.314.161.133,1.044a2.426,2.426,0,0,1-.269.711,4.522,4.522,0,0,1-1.334,1.493,4.03,4.03,0,0,1-1.905.431,4.54,4.54,0,0,1-1.9-.634,3.058,3.058,0,0,1-.586-.483c-.418-.417-.427-.611-.425-.679a.445.445,0,0,1,.1-.268,3.1,3.1,0,0,0-.607.313,4.82,4.82,0,0,1-.642.364c-.784.353-1.343,0-1.723.418a1.25,1.25,0,0,0-.149.244,7.9,7.9,0,0,0-.6,1.943,4.82,4.82,0,0,1-.351,1.024c-.406.791-.914,1.04-.846,1.456.119.734,2.167,2.13,2.345,1.829.508-.851.93-2.176,1.306-2.141.11.01.166.18.333.623.192.51.438,1,.6,1.521.674,2.118.7,1.964,1.238,3.818.424,1.466.636,2.2.712,2.616a23.41,23.41,0,0,0,.915,3.454,2.033,2.033,0,0,0,.8.067,13.627,13.627,0,0,0,3.743-.763" transform="translate(-2060.958 2162.1)" fill="#6fbeef"/>
  <path id="path290" d="M2468.511-2072.492c-.171.128-.225.371-.094,1.536a34.257,34.257,0,0,0,.846,4.453c.41,1.684.345,1.438.427,1.76.537,2.1,1.281,4.453,1.871,6.232a1.8,1.8,0,0,0,.555-.4,23.41,23.41,0,0,0-.92-3.452c-.141-.4-.321-1.142-.68-2.625-.454-1.876-.353-1.756-.82-3.929-.115-.534-.145-1.082-.232-1.621-.075-.467-.11-.643-.02-.706.309-.217,1.473.687,2.2,1.21.163.118.348-.012.524-.27a6.8,6.8,0,0,0-.988-1.031c-.655-.552-2.117-1.571-2.667-1.159" transform="translate(-2378.137 2085.466)" fill="#5ab6e5"/>
  <path id="path294" d="M2187.734-1999.959a22.5,22.5,0,0,0-1.736-4.761c-.821-1.568-1.146-1.578-1.251-1.56-.335.057-.411.721-.935,2.148-.211.578-.416,1.059-.575,1.414.229.107.4.143.445.065.508-.851.93-2.176,1.306-2.141.11.011.167.18.333.623.193.511.438,1,.6,1.522.674,2.118.7,1.964,1.238,3.819.425,1.465.637,2.2.712,2.616a23.476,23.476,0,0,0,.915,3.453,1.921,1.921,0,0,0,.74.069c-.347-1.473-.735-3.113-1.141-4.806,0,0-.137-.574-.654-2.461" transform="translate(-2104.885 2021.918)" fill="#5ab6e5"/>
  <path id="path296" d="M2025.419-2097.961l-1.125.249-.9-4.06,1.125-.249.9,4.061" transform="translate(-1951.692 2113.675)" fill="#efb703"/>
  <path id="path300" d="M2190.94-2142.313l-1.125.249-.9-4.06,1.125-.25.9,4.06" transform="translate(-2110.329 2156.183)" fill="#efb703"/>
  <path id="path304" d="M932.421-2189.179l-1.135-.2.716-4.1,1.135.2-.716,4.1" transform="translate(-905 2201.325)" fill="#efb703"/>
  <path id="path308" d="M363.991-2377.938l-1.1-.347,1.254-3.965,1.1.347-1.254,3.965" transform="translate(-360.244 2382.25)" fill="#efb703"/>
  <path id="path312" d="M484.29-2328.82l-1.1-.347,1.254-3.965,1.1.347-1.254,3.966" transform="translate(-475.54 2335.175)" fill="#efb703"/>
  <path id="path318" d="M1154.127-2136.433l-1.135-.2.716-4.1,1.135.2-.716,4.1" transform="translate(-1117.486 2150.772)" fill="#efb703"/>
  <path id="path322" d="M2424.421-2210.419l-1.087.382-1.377-3.924,1.088-.381,1.376,3.924" transform="translate(-2333.679 2221.326)" fill="#efb703"/>
  <path id="path334" d="M291.48-2395.833a.522.522,0,0,0-.522-.522.522.522,0,0,0-.522.522.523.523,0,0,0,.522.523.523.523,0,0,0,.522-.523" transform="translate(-289.119 2396.441)" fill="#2984a8"/>
  <path id="path338" d="M2885.838-2342.528a.493.493,0,0,1,.493-.493.493.493,0,0,1,.493.493.493.493,0,0,1-.493.493.493.493,0,0,1-.493-.493" transform="translate(-2788.692 2350.004)" fill="#2984a8"/>
  <path id="path342" d="M1873.847-607.71c0,.352-4.568.638-10.2.638s-10.2-.286-10.2-.638,4.568-.638,10.2-.638,10.2.286,10.2.638" transform="translate(-1788.806 682.118)" fill="#4c7e89"/>
  <path id="path346" d="M1896.015-723.8c-.257-.439-.639-1.05-1.2-1.9-1.627-2.457-2.263-3.133-2.927-3.623a15.544,15.544,0,0,0-1.611-.988,6.458,6.458,0,0,0-1.061-.476c-.392-.131-1.346-.449-1.61-.11-.153.2.064.44-.073.586-.256.274-1.077-.528-2.159-.4-.493.057-1.09.313-1.171.7-.069.324.258.626.183.7-.116.106-.741-.734-1.354-.622-.422.076-.223.613-.238,1.081-.019.615-.895.539-1.035.813s.116.289-.447.667a1.483,1.483,0,0,0-.548.86.808.808,0,0,0-.769.018c-.233.222.112.622.037,1.391a2.2,2.2,0,0,1-.351.984l-.052,0c-.719.067-1.4.13-1.537.512a.893.893,0,0,0,.366.878c.43.341.861.1,2.115-.066.222.075.489.157.813.249,2.544.723,3.11.48,3.33.366a2.445,2.445,0,0,0,.457-.311c.681.062,1.2-.713,2.214-.6a2.587,2.587,0,0,1,.81.253,2.05,2.05,0,0,0,.069.333c.522,1.646,6.394,2.368,7.06.567.185-.5,1.186-1.247.695-1.848" transform="translate(-1812.4 799.723)" fill="#6baa80"/>
  <path id="path348" d="M1970.3-523.976a2.561,2.561,0,0,0-.81-.253,1.745,1.745,0,0,0-.466.011c.516.135.936.225,1.281.283,0-.013,0-.027-.006-.041" transform="translate(-1899.58 601.508)" fill="#549367"/>
  <path id="path352" d="M2038.014-723.8c-.257-.439-.639-1.05-1.206-1.9-1.627-2.457-2.263-3.133-2.927-3.623a15.552,15.552,0,0,0-1.61-.988,6.468,6.468,0,0,0-1.062-.476c-.392-.131-1.346-.449-1.61-.11-.153.2.063.44-.073.586-.257.274-1.077-.528-2.159-.4a1.465,1.465,0,0,0-1.148.62,6.722,6.722,0,0,1,.978.447,15.436,15.436,0,0,1,1.61.989c.665.49,1.3,1.166,2.928,3.623.566.854.948,1.465,1.2,1.9.491.6-.51,1.348-.7,1.848-.008.02-.017.04-.026.06,1.941.553,4.659.466,5.1-.725.185-.5,1.186-1.247.7-1.848" transform="translate(-1954.398 799.723)" fill="#549367"/>
  <path id="path354" d="M1907.436-661.023c-.129-.476.458-.718.549-1.647.076-.768-.27-1.169-.037-1.391s.878-.043,1.318.256c.923.629.589,1.486,1.318,2.159,1.042.964,2.808.209,3,.769.114.331-.408.872-.915,1.135-.22.114-.785.357-3.33-.366-1.632-.464-1.841-.689-1.9-.915" transform="translate(-1840.537 735.613)" fill="#9ac918"/>
  <path id="path356" d="M1874.186-604.052a.892.892,0,0,1-.366-.878c.138-.383.818-.446,1.537-.512a3.351,3.351,0,0,1,1.573.11c.612.221,1.252.706,1.171.951-.052.156-.369.134-1.025.183-1.874.139-2.383.55-2.891.146" transform="translate(-1808.312 679.374)" fill="#fff"/>
  <path id="path360" d="M2116.935-627.232a2.646,2.646,0,0,1-.073-1.025,2.061,2.061,0,0,1,.622-1.391c.678-.515,1.773-.11,2.269.073,1.143.422,1.5,1.057,2.012.878s.418-.9.842-1.061c.85-.32,3.138,1.875,2.708,3.037-.665,1.8-7.858,1.133-8.381-.512" transform="translate(-2041.253 702.774)" fill="#fff"/>
  <path id="path364" d="M2122.626-627.208c-.424.159-.327.883-.842,1.061a.6.6,0,0,1-.467-.04,2.086,2.086,0,0,1-.517.345c-.571.267-1.03.156-2.5.194-.551.014-1.036.044-1.437.076a2.6,2.6,0,0,0,.085.889c.523,1.645,7.716,2.313,8.381.512.43-1.162-1.859-3.357-2.708-3.038" transform="translate(-2041.271 700.224)" fill="#efeded"/>
  <path id="path368" d="M1949.556-762.542c.057-.052.153-.266-1.683-3.037-1.628-2.457-2.263-3.133-2.928-3.623a15.158,15.158,0,0,0-1.61-.988,6.418,6.418,0,0,0-1.061-.476c-.392-.131-1.347-.45-1.61-.11-.153.2.063.44-.073.585-.257.274-1.076-.529-2.159-.4-.493.057-1.09.312-1.171.7-.069.324.258.626.183.7-.115.106-.741-.734-1.354-.622a1.159,1.159,0,0,0-.8,1.061c-.02.614.578.933.439,1.208s-.79-.086-1.354.293a2.5,2.5,0,0,0-.732,1.757.7.7,0,0,0,0,.4c.25.6,1.564.838,1.866.439.193-.256-.158-.608.073-1.171.093-.227.287-.5.439-.476.24.044.079.807.439,1.025s.763-.375,1.757-.659c1.116-.318,1.84.072,2.123-.366.23-.357-.078-.88.073-.951s.388.386.8.732c.686.569,1.246.368,2.306.7a15.777,15.777,0,0,1,2.086,1.171c2.04,1.174,1.089.59,2.417,1.354,1.2.69,1.438.859,1.536.768" transform="translate(-1865.64 837.937)" fill="#fecb00"/>
  <path id="path370" d="M2026.813-639.588c.694.086,1.016.578,1.318.34.275-.216.262-.823.183-1.192a2.79,2.79,0,0,0-1.83-1.788c-.085-.033-.5-.091-1.318-.213a1.4,1.4,0,0,0-.878.043.924.924,0,0,0-.549.6,1.181,1.181,0,0,0,.659,1.107,2.024,2.024,0,0,0,.878.128c.013.094-1.44.21-1.537.766-.05.288.263.694.622.852.808.354,1.321-.78,2.452-.639" transform="translate(-1952.01 714.839)" fill="#5d8e07"/>
  <path id="path374" d="M1872.113-578.959a28.77,28.77,0,0,0,.665,3.382,10.01,10.01,0,0,0,.887,2.606,6.515,6.515,0,0,0,2.052,2.218,6.615,6.615,0,0,0,1.608.721,13.28,13.28,0,0,0,3.937.665,13.9,13.9,0,0,0,4.27-.555,7.092,7.092,0,0,0,2.995-1.442,6.934,6.934,0,0,0,1.774-2.939,25.2,25.2,0,0,0,.942-4.713l-9.565.948-9.565-.893" transform="translate(-1806.701 654.005)" fill="#3aaed6"/>
  <path id="path378" d="M2096.251-579.007a9.618,9.618,0,0,1-.98,4.689,9,9,0,0,1-4.806,4.547,7.975,7.975,0,0,1-1.581.4l.134,0a13.9,13.9,0,0,0,4.27-.555,7.091,7.091,0,0,0,2.994-1.442,6.936,6.936,0,0,0,1.775-2.939,25.24,25.24,0,0,0,.943-4.713l-2.749.008" transform="translate(-2014.458 654.005)" fill="#329ec9"/>
  <path id="path382" d="M1890.975-577.1c.174-1.045.268-1.91.268-1.91l-19.13.056s.087.749.332,1.932c2.095.343,4.762.582,7.011.713a46.034,46.034,0,0,0,11.519-.791" transform="translate(-1806.701 654.005)" fill="#3696c6"/>
  <path id="path386" d="M2007.707-765.571c-1.628-2.457-2.262-3.133-2.928-3.623a15.147,15.147,0,0,0-1.611-.988,6.4,6.4,0,0,0-1.061-.476,4.252,4.252,0,0,0-1.169-.261,8.518,8.518,0,0,1,1.873,1c2.462,1.737,3.686,4.6,3.29,4.917-.624.506-6.4-4.325-6.4-4.325s.816,2.252.222,2.735c-.228.186-.611.069-1.293-.148a15.211,15.211,0,0,1-2.329-.924,3.472,3.472,0,0,0-.239,2.03.554.554,0,0,0,.221.36c.355.214.763-.375,1.757-.659,1.115-.318,1.84.072,2.123-.366.23-.357-.078-.88.073-.952s.388.386.8.732c.686.569,1.246.368,2.306.7a15.766,15.766,0,0,1,2.086,1.171c2.04,1.174,1.089.59,2.416,1.354,1.2.69,1.438.859,1.537.769.057-.052.153-.266-1.683-3.037" transform="translate(-1925.474 837.928)" fill="#fcba00"/>
  <path id="path390" d="M1868.718-593.012c0,.352-4.568.638-10.2.638s-10.2-.286-10.2-.638c-.5.075,0,1.577,0,1.663,0,.352,4.568.917,10.2.917s10.2-.565,10.2-.917c0-.069.324-1.6,0-1.663" transform="translate(-1783.678 667.421)" fill="#4bc2e2"/>
  <path id="path392" d="M1998.189-723.458c.036-.087.737.113,1.164.277a3.809,3.809,0,0,1,1.83,1.248,9.275,9.275,0,0,1-2.994-1.525" transform="translate(-1927.533 792.461)" fill="#fcba00"/>
  <path id="path396" d="M2112.2-747.931a3.522,3.522,0,0,1,1.137.36,4.768,4.768,0,0,1,1.941,1.358,11.66,11.66,0,0,1-3.078-1.719" transform="translate(-2036.801 815.909)" fill="#fcba00"/>
  <path id="path398" d="M1942.533-672.682c-.1-.077-.387.136-.527.277-.487.494-.384,1.344-.222,1.386.237.063.97-1.493.749-1.663" transform="translate(-1873.346 743.793)" fill="#fcba00"/>
  <path id="path400" d="M2026.409-640.43c.515-.191.8-.385.915-.693a1,1,0,0,0-.023-.691,4.045,4.045,0,0,0-.817-.415c-.085-.033-.5-.091-1.317-.213a1.4,1.4,0,0,0-.878.043.924.924,0,0,0-.549.6,1.181,1.181,0,0,0,.659,1.107,2.025,2.025,0,0,0,.878.128c.011.078-.99.171-1.384.52a6.631,6.631,0,0,0,2.517-.381" transform="translate(-1952.01 714.839)" fill="#72a308"/>
</svg>
