<svg xmlns="http://www.w3.org/2000/svg" width="355.852" height="502.603" viewBox="0 0 355.852 502.603"><g transform="translate(-360.849 -97.267)"><path d="M583.358,1775.216c-2.111-2.689-5.935-3.279-9.35-3.143-4.281.173-8.846,1.361-11.555,4.682s-.725,12.129-.725,12.129c1.157,3.31,4.945,5.181,8.444,4.964s6.685-2.132,9.322-4.44a16.064,16.064,0,0,0,4.795-6.458,8.221,8.221,0,0,0-.931-7.733" transform="translate(-144.454 -1208.563)" fill="#ba8d5c"/><path d="M1233.432,1794.409c.6-5.15,6.085-9.351,11.11-8.076s7.745,8.218,4.546,12.3a11.551,11.551,0,0,1-5.612,3.5c-2.455.813-5.233,1.244-7.563.12s-3.764-4.3-2.291-6.433" transform="translate(-629.38 -1218.7)" fill="#ba8d5c"/><path d="M1517.169,1746.25c1-6.4,9.866-9.922,14.991-5.96s3.945,13.423-1.993,16.007c-3,1.308-6.478.955-9.646.122-4.023-1.061-8.318-3.413-9.164-7.486s4.719-8.4,7.541-5.339" transform="translate(-830.169 -1184.436)" fill="#ba8d5c"/><path d="M1066.994,1641.115c-3.441-1.041-7.029-.713-10.506-1.517-2.581-.6-5.078-1.815-7.675-2.277-5.76-1.024-11.987,2.155-15.316,8.7s-3.182,16.318.827,22.095c3.4,4.9,8.655,6.28,13.565,6.843a65.847,65.847,0,0,0,24.756-1.9c6.495-1.756,10.534-7.4,7.591-16.313-2.525-7.639-7.152-13.788-13.243-15.628" transform="translate(-483.701 -1111.199)" fill="#ba8d5c"/><path d="M1176.068,1417.743a28.715,28.715,0,0,1,6.472-14.876c1.985-2.511,4.245-4.78,6.884-5.826a26.178,26.178,0,0,1,7.366,9.788,20.289,20.289,0,0,1,1.954,8.053,17.427,17.427,0,0,1-4.4,11.4,23.378,23.378,0,0,1-5.133,4.271c-1.684,1.069-3.658,2.528-5.543,2.775-1.481.195-2.466-1.122-3.5-2.311a15.3,15.3,0,0,1-3.257-5.484,19.525,19.525,0,0,1-.846-7.789" transform="translate(-588.218 -937.944)" fill="#5aa834"/><path d="M1160.218,1607.036a10.764,10.764,0,0,0-3.276,3q-1.737,2.092-3.471,4.19c4.448-.855,8.763,1.943,13.2.991a3.41,3.41,0,0,0,2.6-1.592,10.476,10.476,0,0,0,.532-2.889c.178-1.631-.289-2.764-1.871-3.316-2.386-.832-5.323-1.564-7.711-.381" transform="translate(-571.972 -1089.036)" fill="#5aa834"/><path d="M1372.063,1618.837c3.1-2.539,7.516-2.642,11.358-1.64a.99.99,0,0,1,.654.379,1.063,1.063,0,0,1,.092.5,11.937,11.937,0,0,1-4.34,9.484,9.309,9.309,0,0,1-8.646,1.286,3.11,3.11,0,0,1-2.191-1.656,6.612,6.612,0,0,1,.22-4.028,9.051,9.051,0,0,1,2.854-4.329" transform="translate(-727.327 -1096.388)" fill="#5aa834"/><path d="M869.674,1048.328a5.633,5.633,0,0,1-1.938-1.019,7.344,7.344,0,0,1-1.985-3.257,21.748,21.748,0,0,1-.955-10.787,13.534,13.534,0,0,1,7.7,2.2,12.783,12.783,0,0,1,5.1,4.919,6.941,6.941,0,0,1,.19,6.2c-.7,1.314-2.7,1.718-4.006,1.971a8.343,8.343,0,0,1-4.113-.226" transform="translate(-363.45 -675.418)" fill="#5aa834"/><path d="M1038.491,1190.958a10.668,10.668,0,0,1,2.408-2.837,9.292,9.292,0,0,1,4.22-1.509c3.964-.6,8.265-.225,11.542,2.132a39,39,0,0,1-2.55,4.025,42.057,42.057,0,0,1-10.306,10.119c-1.757,1.208-3.714,1.893-5.788,1.077a4.875,4.875,0,0,1-3.1-4.139c-.206-2.753,1.548-5.654,2.937-7.875.209-.334.42-.662.638-.994" transform="translate(-486.41 -785.912)" fill="#5aa834"/><path d="M830.475,1278.27a27.478,27.478,0,0,0-21.21,11.168,16.82,16.82,0,0,0-3.371,7.781,23.6,23.6,0,0,0,1.041,8.415,25.187,25.187,0,0,0,3.024,7.953c.869,1.308,2.274,3.249,4.069,2.8a19.52,19.52,0,0,0,6.2-3.432,29.681,29.681,0,0,0,10.248-34.686" transform="translate(-321.091 -852.237)" fill="#5aa834"/><path d="M879.287,1570.907a3.868,3.868,0,0,0-3.756.994,6.6,6.6,0,0,0,3.034,2.884c1.045.482,2.658.735,3.426-.384a1.88,1.88,0,0,0-.643-2.48,5.519,5.519,0,0,0-2.062-1.013" transform="translate(-371.406 -1063.32)" fill="#5aa834"/><path d="M521.8,1646.4c-.6,5.7-1.069,12.544,3.545,16.742,3.785,3.444,9.233,4.045,13.987,2.77,3.783-1.016,8.013-3.354,9.676-7.188,1.95-4.493-1.558-8.357-5.186-10.458-5.945-3.444-12.978-3.054-19.518-2.2a21.949,21.949,0,0,0-2.5.34" transform="translate(-115.879 -1117.219)" fill="#5aa834"/><path d="M722.674,1403.817c-6.31-2.21-12.73-5.941-15.244-12.263,12.248-7.307,20.208-1.9,22.028-.571a9.618,9.618,0,0,1,3.515,8.229,11.25,11.25,0,0,1-.909,4.532c-.733,1.369-2.352,1.417-3.709,1.347a20.488,20.488,0,0,1-5.68-1.275" transform="translate(-250.1 -931.284)" fill="#90d356"/><path d="M1238.274,1527.567a25.136,25.136,0,0,1,12.485,2.531.694.694,0,0,1,.354.259.743.743,0,0,1-.025.576q-.994,3.044-1.982,6.085a13.661,13.661,0,0,1-2.063,4.437c-1.47,1.829-3.755,2.728-5.98,3.38-4.679,1.37-11.113,1.818-14.431-2.7-2.678-3.652.7-9.134,3.605-11.433a15.255,15.255,0,0,1,8.037-3.132" transform="translate(-624.065 -1032.079)" fill="#90d356"/><path d="M1082.062,1367.961a40.367,40.367,0,0,1,11.667-1.871c.276-.008.685,3.975.718,4.373a27.388,27.388,0,0,1-.025,4.582,27.061,27.061,0,0,1-2.283,8.752c-2.024,4.479-5.389,9.086-10.28,10.367a12.184,12.184,0,0,1-10.467-2.157,10.5,10.5,0,0,1-3.772-10.311c1.147-6.155,7.015-10.567,12.318-12.906.7-.306,1.406-.585,2.124-.83" transform="translate(-509.882 -915.61)" fill="#90d356"/><path d="M998.129,1092.407c1.667-4.886-.707-10.5-4.6-13.8s-9.011-4.668-14.017-5.4q.109,6.857.22,13.713a13.622,13.622,0,0,0,.884,5.609c.975,2.074,2.908,3.469,4.762,4.769,1.615,1.133,3.883,2.414,5.907,1.723a11.448,11.448,0,0,0,5.131-3.538,10.112,10.112,0,0,0,1.718-3.079" transform="translate(-446.438 -704.262)" fill="#90d356"/><path d="M609.983,1606.187c1.744-2.608,4.286-4.529,6.779-6.4,1.528-1.144,3.382-2.352,5.183-1.751-.452,2.436.4,4.922.347,7.4a10.837,10.837,0,0,1-4.5,8.379,11.782,11.782,0,0,1-7.243,2.152c-2.679-.1-2.718-3.168-2.358-5.339a11.429,11.429,0,0,1,1.8-4.44" transform="translate(-178.369 -1082.872)" fill="#90d356"/><path d="M1464.979,1664.809a20.288,20.288,0,0,0-5.979,8.925c-.262.713-.512,1.462-.832,2.157a2.294,2.294,0,0,0,1.375,3.171,2.136,2.136,0,0,0,.857.081c5.348-.618,10.776-3.38,13.034-8.357a19.244,19.244,0,0,0,1.425-6.411,2.253,2.253,0,0,0-2.246-2.455,12.624,12.624,0,0,0-7.633,2.89" transform="translate(-791.692 -1129.087)" fill="#90d356"/><path d="M584.732,244.781a5.094,5.094,0,0,0,.43-.722,7.153,7.153,0,0,0,1.809,1.888c1.925,1.42,4.864,2.912,7.933,1.952,2.165-.676,4.778-2.561,5.58-4.857.9-2.582-.7-5.994-2.577-8.073s-4.627-2.348-7.057-2.434a7.611,7.611,0,0,0-2.005.125.9.9,0,0,0-.5.073,7.059,7.059,0,0,0-1.008.548c-.086.053-.174.114-.269.182l-.07.05c-.046.033-.091.067-.138.1a8.33,8.33,0,0,0-2.69,3.007,8.2,8.2,0,0,0-.522,3.608c.005.253.023.509.039.768a10.112,10.112,0,0,1,.031,1.267,3.448,3.448,0,0,1-1.374,2.316,22.257,22.257,0,0,1-5.715,3.263c-.958.428-1.949.873-2.866,1.36-1.363.724-2.7,1.486-3.975,2.269-.151.091-.3.184-.455.273-.481.289-.977.584-1.469.943a4.614,4.614,0,0,0-.58.449,4.067,4.067,0,0,1-.782.08c-.182.009-.357.016-.513.034L447.158,266.995l-.05-.067a3.371,3.371,0,0,1-.5-.794,3.8,3.8,0,0,1,.7-.111c.167-.016.31-.03.419-.053l3.322-.659q10.93-2.176,21.861-4.346l109.681-21.78a.934.934,0,0,0,.678-.657,11.82,11.82,0,0,1,5.761-6.876c.279-.146.548-.271.809-.393a5.893,5.893,0,0,0,2.841-2.2,12.106,12.106,0,0,0,1.524-4.39,42.746,42.746,0,0,0,.228-10.6c-.1-1.27-.214-2.327-.353-3.319,1.725-3.733,3.333-7.588,4.893-11.335.789-1.89,1.6-3.844,2.42-5.754l39.972-93.309c.262-.612.8-1.125,1.063-1.125h.011c.1.007.209.148.3.385,0,.052-.008.116-.011.2,0,.034,0,.061-.006.078-.042.286-.111.587-.178.88l-.028.122c-.593,2.544-1.372,5.086-2.124,7.548l-.3.982c-3.24,10.632-6.779,21.335-10.2,31.683l-.075.225c-3.861,11.678-8.159,24.508-13.526,40.379-3.828,11.321-7.747,22.847-11.979,35.229q-1.963,5.745-3.931,11.485l-1.164,3.39c-.052.148-.117.307-.187.476a5.022,5.022,0,0,0-.387,1.222,1.657,1.657,0,0,0,.2,1.01l.145.323a23.1,23.1,0,0,1,1.832,5.064,8.109,8.109,0,0,1,.086,1.626,6.136,6.136,0,0,0,.373,2.639,14.5,14.5,0,0,0,2.511,3.56,53.951,53.951,0,0,0,8.376,7.58,21.188,21.188,0,0,0,3.482,2.224,3.908,3.908,0,0,0,.587.207c.128.038.251.075.351.114l.075.043a8.026,8.026,0,0,1,1.125,1.176c.078.091.153.18.223.259.462.537.916,1.06,1.356,1.6,3.371,4.131,6.578,8.321,9.838,12.606,8.262,10.855,16.307,21.73,23.843,31.938,7.243,9.818,15,20.4,23.724,32.342,4.93,6.756,8.986,12.327,12.764,17.532-.457.526-1.228,1.267-1.965,1.214-.022-.02-.05-.042-.081-.072l-.092-.089c-.189-.186-.379-.373-.565-.565-1.656-1.7-3.268-3.508-4.838-5.272l-.774-.866c-7.037-7.889-14.08-16.012-20.9-23.868l-.473-.546c-8.012-9.237-16.48-19.047-27.459-31.813-7.772-9.033-15.817-18.4-24.595-28.645q-6.389-7.457-12.771-14.918a1.7,1.7,0,0,0-1.335-.739C589.294,248.625,586.361,247.183,584.732,244.781Zm-1.313,1.363c2.331,3.153,6.094,4.356,9.055,4.8A10.362,10.362,0,0,1,583.1,246.4C583.21,246.314,583.318,246.228,583.42,246.144Zm2.436-6.8a6.2,6.2,0,0,1,2.905-4.718,2.94,2.94,0,0,1,.472-.148,7.351,7.351,0,0,1,1.541-.15,12.246,12.246,0,0,1,3.617.576,6.535,6.535,0,0,1,3.678,3.785,5.55,5.55,0,0,1,.761,3.4,4.616,4.616,0,0,1-1.468,2.15,6.658,6.658,0,0,1-4.966,2.074,9.485,9.485,0,0,1-5.01-2.459A5.225,5.225,0,0,1,585.856,239.349Zm105.461,115.3a0,0,0,0,1,0,0q-2-2.752-4-5.506-5.391-7.408-10.793-14.807c-5.117-7-9.907-13.544-14.646-19.991-5.865-7.981-11.054-15.01-15.868-21.491-3.911-5.264-9.086-12.213-14.445-19.272l-.153-.2c-3.3-4.349-6.712-8.847-10.219-13.145l-.334-.41a37.354,37.354,0,0,0-2.528-2.906,6.867,6.867,0,0,0-2.157-1.334,9.989,9.989,0,0,1-1.345-.693,46.932,46.932,0,0,1-10.158-9l-.086-.1a10.039,10.039,0,0,1-1.5-2.141c.175-1.021.309-2.038.4-3.017a8.57,8.57,0,0,0-.164-3.226,17.315,17.315,0,0,0-1.122-2.666,10.084,10.084,0,0,0-1.311-2.066l1.225-3.578q2.589-7.536,5.161-15.083c2.539-7.427,5.027-14.742,7.4-21.741,3.079-9.078,5.854-17.29,8.482-25.113,3.162-9.412,5.921-17.677,8.429-25.266,1.979-5.978,4.574-13.865,7.121-21.839,1.584-4.958,3.224-10.086,4.677-15.188l.1-.367c.348-1.217.7-2.472.96-3.739a3.4,3.4,0,0,0-.7-3.017,1.884,1.884,0,0,0-1.935-.368,3.82,3.82,0,0,0-2.274,2.55l-46.79,109.23-.105.239a3.066,3.066,0,0,0-.367,1.765,56.4,56.4,0,0,1,.409,10.771,14.147,14.147,0,0,1-1.389,5.826,3.69,3.69,0,0,1-.583.763.845.845,0,0,0-.174-.009,11.038,11.038,0,0,0-6.628,2.654,11.5,11.5,0,0,0-2.425,2.97l-.1.17a6.2,6.2,0,0,0-1.168,3.385l-.03.009c-.192.059-.359.109-.437.123l-124.857,24.8q-1.393.276-2.79.54l-.073.013c-1.889.362-3.843.739-5.783,1.167a1.719,1.719,0,0,0-1.4.933,2.926,2.926,0,0,0,.285,2.168c.152.3.709,1.317,1.517,1.49a4.178,4.178,0,0,0,1.61-.126c.209-.041.406-.08.561-.1l117.71-13.612c.09-.011.183-.018.3-.028a4.586,4.586,0,0,0,.682-.086.831.831,0,0,0,.183-.028,3.773,3.773,0,0,0,1.16-.642c.114-.08.227-.164.34-.237.811-.526,1.653-1.046,2.5-1.548,1.7-1.008,3.512-1.979,5.375-2.889.471-.232.947-.452,1.438-.676,1.093-.5,2.085-.972,3.033-1.529a12.932,12.932,0,0,0,3.724,3.622L581.883,526.6q-.023,1.854-.057,3.719c-.041,2.436-.083,4.952-.08,7.444,0,.106,0,.209,0,.317l0,.164a.907.907,0,0,0,.43.8.965.965,0,0,0,.965.011.92.92,0,0,0,.457-.8l3.383-275.595q.023-1.863.057-3.722c.038-2.254.078-4.582.08-6.926.075.034.149.061.222.089a11.9,11.9,0,0,0,4.036.793,11.746,11.746,0,0,0,1.986-.116,7.105,7.105,0,0,0,.88-.237l.151-.045a5.479,5.479,0,0,1,.55.688c.121.166.225.311.321.42l2.1,2.38c.195.217.389.434.58.655.028.453.023.921.016,1.378,0,.284-.007.571,0,.849l.234,16.366q.2,14.176.4,28.347.259,18.453.511,36.9.286,20.891.563,41.785.284,21.392.554,42.784c.195,15.52.354,28.478.5,40.785.159,13.654.278,24.745.379,34.906.078,8.1.159,16.722.2,25.358,0,.885.011,1.773.017,2.661l0,.234c.028,3.107.056,6.322-.053,9.47-.014.373.014,1.281.554,1.573a.64.64,0,0,0,.309.081.7.7,0,0,0,.409-.142c.685-.509.638-1.745.61-2.433,0-.078-.006-.145-.006-.189.028-1.812.028-3.647.025-5.42v-.262c-.008-7.154-.07-14.27-.128-21.148v-.148c-.1-11.174-.217-22.223-.32-31.554-.125-11.5-.273-24.074-.451-38.45q-.259-21.037-.534-42.071-.276-20.991-.56-41.982-.259-19.3-.529-38.614-.221-15.959-.445-31.921-.154-10.819-.309-21.639l-.081-5.765c7.051,8.237,14.055,16.408,20.828,24.294,11.116,12.945,20.349,23.665,29.057,33.743,8.61,9.963,17.042,19.706,25.536,29.349,2.839,3.224,6.055,6.876,9.289,10.372.5.537,1.03,1.111,1.587,1.654a2.048,2.048,0,0,0,1.578.7c1.528,0,2.915-1.442,3.605-2.3a1.322,1.322,0,0,0,.033-1.534" transform="translate(-60.523)" fill="#090d12"/><path d="M702.041,1668.157a5.9,5.9,0,0,1-1.844,3.438,9.125,9.125,0,0,1-3.528,1.868,26.831,26.831,0,0,1-9.216.8,38.4,38.4,0,0,1-4.688-.47,26.737,26.737,0,0,1-5.654-1.718c-3.748-1.562-7.225-3.716-10.852-5.54a29.033,29.033,0,0,0-11.365-3.513c-4.641-.251-9.175,1.2-13.334,3.19a104.664,104.664,0,0,0-12.5,7.436q-6.252,4.151-12.188,8.774a23.525,23.525,0,0,0-4.954,4.51c-1.132,1.578-1.663,3.666-.357,5.317a8.63,8.63,0,0,0,2.559,1.915c.993.579,1.993,1.144,3.009,1.679a38.914,38.914,0,0,0,6.546,2.8,19.778,19.778,0,0,0,12.393.125,13.794,13.794,0,0,0,5.094-3.129,21.1,21.1,0,0,0,3.253-4.37c1.814-3.073,3.271-6.545,5.938-8.978a9.939,9.939,0,0,1,5.351-2.514,15.19,15.19,0,0,1,6.41.69,36.077,36.077,0,0,1,6.258,2.658,56.578,56.578,0,0,1,5.76,3.338,14.137,14.137,0,0,1,4.514,4.654,12.959,12.959,0,0,1,1.573,5.462,15.265,15.265,0,0,1-3.522,10.823,18.3,18.3,0,0,1-10.278,5.821,21.445,21.445,0,0,1-5.935.365c-2.5-.192-4.951-.766-7.45-.949a11.8,11.8,0,0,0-6.438,1,8.7,8.7,0,0,0-3.782,3.831,5.525,5.525,0,0,0-.095,4.849c.247.518,1,.064.752-.448-1.723-3.6,2.052-7.327,5.237-8.1a19.333,19.333,0,0,1,7.373.125,37.1,37.1,0,0,0,6.745.632c7.749-.242,15.63-4.719,17.749-12.755a15.086,15.086,0,0,0-1.209-11.166c-2.178-3.842-6.287-5.982-10-7.964-3.8-2.029-8.048-3.975-12.427-3.858a10.961,10.961,0,0,0-5.771,1.754,13.977,13.977,0,0,0-3.647,3.7c-2.111,2.99-3.451,6.495-5.727,9.37a14.053,14.053,0,0,1-10.425,5.178c-4.527.262-8.909-1.244-12.923-3.265-1.049-.529-2.081-1.094-3.1-1.678a13.584,13.584,0,0,1-2.778-1.8c-1.719-1.656-.638-3.881.69-5.378a19.543,19.543,0,0,1,2.519-2.26q1.444-1.148,2.909-2.269,2.985-2.284,6.051-4.451c4.031-2.848,8.159-5.579,12.405-8.081,4.036-2.377,8.32-4.526,12.94-5.37a19.99,19.99,0,0,1,6.714-.12,25.763,25.763,0,0,1,5.653,1.64c3.736,1.52,7.2,3.65,10.787,5.481a32.321,32.321,0,0,0,11.07,3.663,40.054,40.054,0,0,0,9.183.109c2.721-.328,5.74-1.055,7.706-3.16a6.666,6.666,0,0,0,1.689-3.458c.1-.562-.744-.8-.839-.237" transform="translate(-180.369 -1129.866)" fill="#090d12"/><path d="M507.394,1668.731a38.891,38.891,0,0,0-19.694,14.342,20.426,20.426,0,0,0-3.251,6.65,11.245,11.245,0,0,0,.041,6.8,7.686,7.686,0,0,0,4.437,4.309c1.919.807,3.984,1.161,5.916,1.932,1.851.738,3.456,2.1,3.381,4.312-.092,2.761-2.425,5.189-4.546,6.625a16.348,16.348,0,0,1-7.238,2.6c-6.088.715-12-1.642-17.362-4.337-4.773-2.4-9.637-5.044-13.412-8.95a19.346,19.346,0,0,1-4.247-6.464,13.793,13.793,0,0,0-1.5-3.583,4.124,4.124,0,0,0-3.44-1.459,31.717,31.717,0,0,0-3.739.281,36.134,36.134,0,0,0-3.616.573,16.306,16.306,0,0,0-6.442,2.695,10.132,10.132,0,0,0-2.34,2.447,18.668,18.668,0,0,0-1.723,3.858,8.473,8.473,0,0,1-2.257,3.438,11.9,11.9,0,0,1-3.29,1.982,34.759,34.759,0,0,1-3.617,1.253c-.537.164-.309,1.024.232.86a19.937,19.937,0,0,0,6.95-3.174,8.492,8.492,0,0,0,2.395-3.084c.62-1.356.976-2.828,1.718-4.125,2.453-4.3,7.85-5.389,12.3-5.865a24.551,24.551,0,0,1,3.78-.237,3.374,3.374,0,0,1,1.944.621,3.714,3.714,0,0,1,1.061,1.595c.484,1.222.821,2.48,1.4,3.666a19.423,19.423,0,0,0,2.025,3.263c3.211,4.226,7.8,7.146,12.366,9.61,5.367,2.9,11.116,5.729,17.267,6.121,5.025.32,10.524-1.236,13.94-5.2,1.7-1.977,3.024-4.794,1.754-7.36-.868-1.754-2.726-2.589-4.459-3.162a33.345,33.345,0,0,1-5.884-2.038,6.54,6.54,0,0,1-3.368-5.178c-.528-5.111,2.549-9.869,5.71-13.5a38.261,38.261,0,0,1,13.235-9.813,36.1,36.1,0,0,1,3.812-1.445c.534-.167.307-1.03-.232-.857" transform="translate(-42.069 -1133.986)" fill="#090d12"/><path d="M989.306,1562.042q-.318,9.834-.636,19.667c-.1,3.232-.232,6.461-.308,9.693a32.313,32.313,0,0,0,.726,8.922,15.252,15.252,0,0,0,7.866,9.727,15.849,15.849,0,0,0,11.859,1.228c5.036-1.578,8.268-6.116,12.16-9.443,4.1-3.51,9.106-6.255,14.49-6.818a17.386,17.386,0,0,1,13.059,3.9,13.723,13.723,0,0,1,3.989,5.59c.874,2.355,1.15,5.022,2.711,7.057,1.509,1.965,3.889,2.678,6.213,3.006,2.578.362,5.158.5,7.714,1.052a42.086,42.086,0,0,1,14.946,6.475q1.679,1.157,3.238,2.475c.429.365,1.05-.264.615-.629A43.187,43.187,0,0,0,1073.87,1616a42.009,42.009,0,0,0-7.714-1.8c-2.447-.334-5.008-.3-7.358-1.147a6.307,6.307,0,0,1-2.865-2,10.44,10.44,0,0,1-1.62-3.591,20.346,20.346,0,0,0-2.737-6.525,17.319,17.319,0,0,0-11.561-6.731c-5.066-.724-10.2.793-14.584,3.357a35.919,35.919,0,0,0-6.314,4.746c-2.041,1.9-3.906,4.022-6.124,5.724a13.99,13.99,0,0,1-6.1,2.8,14.576,14.576,0,0,1-5.957-.234,15.166,15.166,0,0,1-9.688-7.138,18.141,18.141,0,0,1-1.973-7.786c-.183-3.109.017-6.238.117-9.348q.315-9.733.63-19.467.078-2.409.155-4.816a.436.436,0,0,0-.871,0" transform="translate(-452.81 -1056.702)" fill="#090d12"/><path d="M999.7,1642.35c-.858,6.277,4.5,11.01,9.875,12.7,7.628,2.4,15.662-1.147,23.32-1.567,5.6-.3,12.739,1.578,15.358,7.21,1.592,3.421.381,7.4,1.946,10.837a11.3,11.3,0,0,0,5.81,5.373,20.913,20.913,0,0,0,8.546,1.732,23.591,23.591,0,0,0,10.2-2.063c5.662-2.714,8.129-8.532,10.89-13.871a24.585,24.585,0,0,1,4.944-7.088,12.2,12.2,0,0,1,9.5-2.981c7.853.724,13.68,6.62,19.784,11.066a35.723,35.723,0,0,0,10,5.234,49.94,49.94,0,0,0,11.33,2.093c3.875.318,7.764.343,11.65.382l13.384.134q3.257.033,6.52.064a.446.446,0,0,0,0-.891c-8.491-.083-16.99-.067-25.48-.278-7.689-.192-15.676-.9-22.577-4.677-6.531-3.58-11.592-9.534-18.509-12.432a18.04,18.04,0,0,0-10.03-1.434,12.928,12.928,0,0,0-7.469,4.412c-3.764,4.365-5.309,10.188-8.744,14.785-4.206,5.632-11.516,7.3-18.142,6.486a16.151,16.151,0,0,1-8.285-3.215,9.247,9.247,0,0,1-2.519-3.182,14.683,14.683,0,0,1-.932-5.79,11.642,11.642,0,0,0-3.182-8.143,15.91,15.91,0,0,0-7.249-3.967c-7.216-1.926-14.389.807-21.574,1.495a19.388,19.388,0,0,1-10.311-1.383,13.149,13.149,0,0,1-6.559-6.227,8.423,8.423,0,0,1-.649-4.574c.075-.562-.763-.8-.841-.237" transform="translate(-460.944 -1114.731)" fill="#090d12"/><path d="M593.333,1693.395c-5.186-1.336-9.435,2.77-13.395,5.467a18.44,18.44,0,0,1-6.7,2.89,27.318,27.318,0,0,1-7.317.384,76.3,76.3,0,0,1-8.363-1.141c-.548-.1-.784.763-.232.86,4.85.86,9.829,1.69,14.752,1a18.777,18.777,0,0,0,6.82-2.286c2.214-1.278,4.146-2.992,6.3-4.376,2.32-1.49,5.14-2.647,7.905-1.935a.446.446,0,0,0,.232-.86" transform="translate(-141.557 -1151.612)" fill="#090d12"/><path d="M906.56,1642.573c-1.078,6.055.959,12.2-.277,18.239a11.51,11.51,0,0,1-3.4,6.458,10.323,10.323,0,0,1-6.938,2.311,32.076,32.076,0,0,1-8.754-1.559.446.446,0,0,0-.232.86c4.872,1.395,10.91,2.887,15.49-.173,4.612-3.079,5.32-9.225,5.051-14.384-.2-3.828-.783-7.706-.1-11.516.1-.562-.74-.8-.841-.237" transform="translate(-379.433 -1114.893)" fill="#090d12"/><path d="M944.43,1665.724c-1.067,4.885-.273,9.891.168,14.8.424,4.721.528,9.688-1.934,13.9-2.192,3.75-5.784,6.564-7.323,10.723a10.151,10.151,0,0,0-.289,6.161,12.731,12.731,0,0,0,3.084,5.342,15.751,15.751,0,0,0,5.241,3.652,16.464,16.464,0,0,0,6.961,1.222c5.431-.139,10.584-2.272,15.486-4.49,2.18-.985,4.532-1.96,6.138-3.842a29.762,29.762,0,0,0,2.11-3.207,11.881,11.881,0,0,1,2.422-2.667,20.925,20.925,0,0,1,6.472-3.444,14.952,14.952,0,0,1,7.655-.81,8.885,8.885,0,0,1,5.5,3.418,6.778,6.778,0,0,1,1.208,6.016c-.7,2.266-2.48,4.056-3.015,6.389a5.1,5.1,0,0,0,1.545,4.955,2.565,2.565,0,0,0,2.288.482.446.446,0,0,0-.231-.86c-1.723.454-2.728-1.659-2.839-3.1-.17-2.238,1.5-4.162,2.441-6.041a8.372,8.372,0,0,0,.949-3.218,7.243,7.243,0,0,0-.482-3.026,9.577,9.577,0,0,0-4.073-4.741c-4.4-2.575-9.927-1.141-14.211.944a16.186,16.186,0,0,0-5.626,4.215c-.782.972-1.356,2.082-2.038,3.124a8.8,8.8,0,0,1-2.572,2.569,23.527,23.527,0,0,1-3.115,1.637c-1.222.56-2.447,1.111-3.683,1.631a45.336,45.336,0,0,1-7.686,2.575,21.542,21.542,0,0,1-7.928.412,14.3,14.3,0,0,1-5.783-2.294c-3.336-2.233-6.039-6.052-5.666-10.3.385-4.365,3.9-7.541,6.354-10.812a17.717,17.717,0,0,0,3.048-5.949,23.757,23.757,0,0,0,.693-7.01c-.144-4.883-1.155-9.724-.888-14.62a21.831,21.831,0,0,1,.461-3.494c.122-.56-.718-.8-.84-.24" transform="translate(-414.108 -1131.603)" fill="#090d12"/><path d="M956.21,1459.444c-.606-8.279.523-16.533,1.374-24.75a240.2,240.2,0,0,0,1.291-24.856q0-6.982-.418-13.952c-.034-.571-.906-.576-.871,0a237.951,237.951,0,0,1,.171,24.9q-.282,6.205-.89,12.382c-.406,4.137-.914,8.262-1.27,12.4a87.6,87.6,0,0,0-.258,13.877c.042.568.913.573.871,0" transform="translate(-428.873 -936.8)" fill="#090d12"/><path d="M964.938,1370.981v-5.136a.436.436,0,0,0-.872,0v5.136a.436.436,0,0,0,.872,0" transform="translate(-435.295 -915.123)" fill="#090d12"/><path d="M941.432,1484.409a66.215,66.215,0,0,0,2.51-10.857,29.918,29.918,0,0,0-.136-10.063,13.95,13.95,0,0,0-2.127-4.994c-.323-.462-1.079-.017-.753.451a15.88,15.88,0,0,1,2.478,8.983A43.4,43.4,0,0,1,942.2,1478.3c-.458,1.979-1.015,3.933-1.606,5.874a.437.437,0,0,0,.841.239" transform="translate(-418.339 -982.151)" fill="#090d12"/><path d="M981.343,1393.211q-.938-11.016-1.158-22.075-.109-5.529-.037-11.057c.047-3.583.216-7.16.242-10.743a39.154,39.154,0,0,0-1.3-11.486.437.437,0,0,0-.84.237,36.468,36.468,0,0,1,1.271,10.272c.015,3.516-.169,7.029-.227,10.542q-.183,10.978.35,21.958.3,6.184.827,12.352c.048.568.92.573.871,0" transform="translate(-445.515 -895.006)" fill="#090d12"/><path d="M972.035,1588.241a77.041,77.041,0,0,1,.7-14.634c.08-.562-.758-.8-.84-.237a78.265,78.265,0,0,0-.734,14.871c.027.573.9.576.872,0" transform="translate(-440.355 -1064.954)" fill="#090d12"/><path d="M996.121,1368.1q.021-12.014.042-24.03.02-11.943.042-23.882c0-1.136,0-2.274.005-3.41,0-.924-.031-1.857.033-2.778.087-1.233.4-2.943,1.76-3.3a.446.446,0,0,0-.231-.86,3.378,3.378,0,0,0-2.214,2.795,23.286,23.286,0,0,0-.22,4.885q-.011,6.155-.022,12.313-.021,12.235-.042,24.472-.011,6.9-.024,13.8a.436.436,0,0,0,.871,0" transform="translate(-457.798 -875.007)" fill="#090d12"/><path d="M961.327,1741.818a21.812,21.812,0,0,1-2.16,16.474,13.246,13.246,0,0,0-1.372,3.129,5.587,5.587,0,0,0,1.288,5.086,7.17,7.17,0,0,0,4.679,2.363,8.151,8.151,0,0,0,5.3-1.612,13.616,13.616,0,0,0,3.924-4.446c.882-1.551,1.584-3.2,2.553-4.7a6.062,6.062,0,0,1,3.828-2.993c1.175-.214,2.38.022,3.563-.128a4.2,4.2,0,0,0,2.444-1.08,2.751,2.751,0,0,0,.688-1.152.437.437,0,0,0-.841-.237,2.443,2.443,0,0,1-1.857,1.487,16.365,16.365,0,0,1-3.3.145,6.024,6.024,0,0,0-4.382,2.283,23.235,23.235,0,0,0-2.645,4.432,16.847,16.847,0,0,1-3.14,4.563,8.749,8.749,0,0,1-4.829,2.528,6.134,6.134,0,0,1-4.736-1.456,4.821,4.821,0,0,1-1.772-4.471,10.294,10.294,0,0,1,1.241-3.059,29.175,29.175,0,0,0,1.433-2.909,23.876,23.876,0,0,0,1.259-12.842c-.09-.551-.2-1.1-.322-1.637-.127-.56-.968-.323-.841.237" transform="translate(-430.651 -1186.342)" fill="#090d12"/><path d="M1032.132,1774.6a8.523,8.523,0,0,1,.821-4.794.438.438,0,0,0-.752-.451,9.343,9.343,0,0,0-.941,5.245c.045.571.916.573.871,0" transform="translate(-483.756 -1206.458)" fill="#090d12"/><path d="M1339.959,1662.492c1.745-3.19,4.51-6.706,8.513-6.038.548.089.785-.768.231-.86a7.012,7.012,0,0,0-5.579,1.467,15.888,15.888,0,0,0-3.917,4.98c-.273.5.479.952.752.451" transform="translate(-705.963 -1124.451)" fill="#090d12"/><path d="M587.56,1717.2a4.323,4.323,0,0,0-3.241-3.736.446.446,0,0,0-.536.312.452.452,0,0,0,.3.548,2.827,2.827,0,0,1,.959.381,3.21,3.21,0,0,1,.8.671,2.475,2.475,0,0,1,.3.39,3.759,3.759,0,0,1,.272.49c.02.042.039.086.058.128-.026-.064.024.067.024.07.029.078.057.161.081.242s.048.184.067.276c.009.044.019.092.026.136,0,.025.006.047.01.07,0-.039,0-.033,0,.022a.454.454,0,0,0,.436.445.443.443,0,0,0,.436-.445" transform="translate(-160.864 -1166.272)" fill="#090d12"/><path d="M826,1815.671a14.213,14.213,0,0,1-6.036,12.661,12.4,12.4,0,0,1-3.721,1.754.446.446,0,0,0,.232.86,14.847,14.847,0,0,0,10.068-10.859,13.894,13.894,0,0,0,.328-4.415c-.05-.568-.921-.573-.871,0" transform="translate(-328.402 -1239.728)" fill="#090d12"/><path d="M928.85,1825.785c-1.428,3.432-2.882,7-2.553,10.812.049.568.921.573.871,0-.314-3.652,1.066-7.071,2.435-10.361.217-.521-.533-.977-.752-.451" transform="translate(-408.005 -1247.167)" fill="#090d12"/><path d="M433.366,1758.291a7.3,7.3,0,0,0-8.361-4.2,6.3,6.3,0,0,0-2.548,1.278c-.437.359.183.985.617.629,2.3-1.885,5.907-1.448,8.033.5a5.525,5.525,0,0,1,1.42,2.024c.207.526,1.05.3.839-.237" transform="translate(-44.35 -1195.469)" fill="#090d12"/><path d="M1577.787,1732.7a11.176,11.176,0,0,1,3.808-3.343,8.219,8.219,0,0,1,4.749-1.189c.559.056.554-.835,0-.891a9.033,9.033,0,0,0-5.189,1.308,12.106,12.106,0,0,0-4.12,3.666c-.323.47.431.916.752.448" transform="translate(-877.57 -1176.226)" fill="#090d12"/><path d="M415.79,1706.184c-.056,0-.148-.017-.028,0-.058-.008-.114-.02-.172-.034-.149-.033-.3-.078-.444-.122-.4-.125-.8-.273-1.191-.423-1.152-.44-2.288-.919-3.426-1.395-2.581-1.075-5.161-2.194-7.822-3.048a12.287,12.287,0,0,0-3.141-.646,43.311,43.311,0,0,0-7.3.493l-14.6,1.732-14.6,1.729-1.8.214c-.55.064-.557.958,0,.891l14.6-1.729q7.3-.868,14.6-1.732c2.4-.284,4.814-.646,7.234-.721.621-.02,1.242-.017,1.862.014.3.017.609.036.825.072a11.67,11.67,0,0,1,1.407.337,73.64,73.64,0,0,1,7.689,2.917c1.2.5,2.389,1,3.594,1.481a13.986,13.986,0,0,0,2.334.807,2.175,2.175,0,0,0,.375.05.446.446,0,0,0,0-.891" transform="translate(0 -1156.922)" fill="#090d12"/><path d="M851.355,1443.415a57.641,57.641,0,0,1-.449,5.985,8.2,8.2,0,0,1-2.331,4.666,9.839,9.839,0,0,1-10.458,1.963,43.648,43.648,0,0,1-5.26-2.912,15.95,15.95,0,0,0-5.421-2.007c-1.909-.312-3.962-.379-5.722-1.281a6.357,6.357,0,0,1-3.14-4.042c-.981-3.449.084-7.1,1.539-10.236,1.5-3.232,3.494-6.183,5.2-9.3a21.81,21.81,0,0,0,3.12-9.465,14.819,14.819,0,0,0-.969-5.64c-.725-2-1.707-3.883-2.449-5.874-1.651-4.429-1.418-9.225-1.435-13.885q-.026-7.437-.051-14.874-.007-1.837-.012-3.677a.436.436,0,0,0-.872,0q.028,7.687.053,15.378c.009,2.472,0,4.947.03,7.422a35.5,35.5,0,0,0,.638,7.143c.926,4.27,3.77,7.956,4.156,12.366.305,3.488-.938,6.8-2.518,9.83-1.691,3.235-3.76,6.252-5.362,9.54-1.567,3.215-2.76,6.831-2.143,10.461a8.091,8.091,0,0,0,2.314,4.6,9.679,9.679,0,0,0,5.4,2.107c1.016.148,2.036.262,3.039.484a12.634,12.634,0,0,1,2.875,1.027c1.794.888,3.438,2.06,5.215,2.984a11.753,11.753,0,0,0,5.63,1.487,10.863,10.863,0,0,0,5.334-1.531,9.045,9.045,0,0,0,3.748-4.1,16.29,16.29,0,0,0,1.009-5.568c.055-1.019-.2-2.035-.128-3.051.039-.573-.543-.571-.581,0" transform="translate(-329.408 -920.167)" fill="#090d12"/><path d="M1009.554,1512.62a10.234,10.234,0,0,0,4.318,4.643,19.3,19.3,0,0,0,6.057,2.016,15.824,15.824,0,0,0,7.474-.237,13.442,13.442,0,0,0,5.927-3.895,16.257,16.257,0,0,0,3.418-5.98,17.42,17.42,0,0,0,.529-7.614,47.548,47.548,0,0,0-2.11-8.17,58.193,58.193,0,0,1-2.18-8.254,40.768,40.768,0,0,1,.791-17.028q.267-1.023.59-2.029a.435.435,0,0,0-.838-.237,41.664,41.664,0,0,0-1.785,16.433,42.834,42.834,0,0,0,1.59,8.187c.777,2.636,1.723,5.22,2.408,7.884a21.479,21.479,0,0,1,.752,7.937,15.185,15.185,0,0,1-2.308,6.314,14.152,14.152,0,0,1-4.785,4.624,12.54,12.54,0,0,1-7.168,1.47,21.425,21.425,0,0,1-6.731-1.6,10.007,10.007,0,0,1-4.362-3.424,9.639,9.639,0,0,1-.835-1.489c-.237-.521-.985-.07-.752.448" transform="translate(-468.088 -987.364)" fill="#090d12"/><path d="M1199.223,1557.369a12.312,12.312,0,0,0-1.846-5.32c-.991-1.6-2.132-3.079-2.976-4.769a21.612,21.612,0,0,1-1.773-5.13,22.059,22.059,0,0,1,.223-10.08c-.07.008-.142.017-.209.022a2.906,2.906,0,0,1-.693-.022,22.856,22.856,0,0,0,3.335,18.412,17.473,17.473,0,0,1,2.731,5.061,16.7,16.7,0,0,1,.3,5.835,34.226,34.226,0,0,1-.724,5.075,7.6,7.6,0,0,1-1.954,3.858c-1.175,1.1-2.884,1.322-4.379,1.651a8.466,8.466,0,0,0-4.321,1.815c-.4.4.212,1.03.615.632a7.614,7.614,0,0,1,3.836-1.567,12.432,12.432,0,0,0,4.1-1.3c2.636-1.69,3.14-5.264,3.483-8.156a27.546,27.546,0,0,0,.25-6.016" transform="translate(-596.029 -1035.385)" fill="#090d12"/><path d="M1226.693,1597.17a8.051,8.051,0,0,1,3-4.841.468.468,0,0,0,.159-.609.437.437,0,0,0-.6-.159,8.955,8.955,0,0,0-3.4,5.373c-.114.56.726.8.841.237" transform="translate(-624.198 -1078.267)" fill="#090d12"/><path d="M813.683,1436.625a11.221,11.221,0,0,1-8.04-6.378c-.2-.532-1.037-.3-.84.237a12.041,12.041,0,0,0,8.881,7.032c.556.067.551-.824,0-.891" transform="translate(-320.345 -961.689)" fill="#090d12"/><path d="M1113.136,1567.932a2.765,2.765,0,0,1-.515.156,1.268,1.268,0,0,1-.253.025,8.532,8.532,0,0,1-6.653,5.629c-.551.083-.317.944.231.86a9.38,9.38,0,0,0,7.419-6.762c-.078.033-.153.064-.228.092" transform="translate(-537.284 -1061.197)" fill="#090d12"/><path d="M1075.864,1475.21a12.07,12.07,0,0,1-3.276-2.43,7.247,7.247,0,0,1-1.751-3.547c-.106-.565-.947-.326-.841.237a8.094,8.094,0,0,0,1.921,3.878,12.606,12.606,0,0,0,3.508,2.631c.5.267.938-.5.44-.768" transform="translate(-511.729 -989.807)" fill="#090d12"/><path d="M857.06,1526.4a5.434,5.434,0,0,0,3.917-3.705.437.437,0,0,0-.841-.237,4.546,4.546,0,0,1-3.308,3.082.452.452,0,0,0-.3.548.439.439,0,0,0,.535.312" transform="translate(-357.68 -1028.225)" fill="#090d12"/><path d="M941.4,1459.879a25.916,25.916,0,0,0,2.55-7.113,79.528,79.528,0,0,0,1.308-8.379,42.4,42.4,0,0,0,.205-9.181c-.312-3.054-.992-6.057-1.59-9.061q-1.028-5.157-2.055-10.317c-.112-.562-.953-.323-.841.237q.9,4.505,1.794,9.008c.592,2.973,1.267,5.943,1.679,8.947a38.909,38.909,0,0,1,.082,8.983c-.269,2.828-.648,5.682-1.2,8.468a26.511,26.511,0,0,1-2.686,7.956.438.438,0,0,0,.751.451" transform="translate(-418.35 -951.271)" fill="#090d12"/><path d="M994.655,1265.03c-2.143-.573-3.051-2.928-3.256-4.974a28.781,28.781,0,0,1-.085-3.7,7.832,7.832,0,0,1,.727-3.466,3.485,3.485,0,0,1,2.471-1.954c.548-.073.557-.966,0-.894a4.157,4.157,0,0,0-2.816,1.751,7.106,7.106,0,0,0-1.2,3.619,26.233,26.233,0,0,0,0,4.245,9.006,9.006,0,0,0,1.014,3.836,4.916,4.916,0,0,0,2.916,2.4.446.446,0,0,0,.231-.86" transform="translate(-454.305 -831.862)" fill="#090d12"/><path d="M999.651,1277.859a3.927,3.927,0,0,1-1.723-2.97c-.067-1.236,1.038-2.054,1.871-2.764.432-.365-.189-.994-.618-.629-1.055.9-2.245,1.935-2.116,3.491a4.883,4.883,0,0,0,2.146,3.644c.47.314.908-.457.44-.771" transform="translate(-459.1 -847.269)" fill="#090d12"/><path d="M944,1167.061c3.343-1.74,5.213-5.378,5.843-9.045.791-4.6-.375-9.195-1.444-13.643a58.51,58.51,0,0,1-1.412-7.494,44.27,44.27,0,0,1-.148-7.6,45.328,45.328,0,0,1,1.189-7.583,56.245,56.245,0,0,0,1.524-7.408c.384-3.8-.495-8.148-3.657-10.542a6.819,6.819,0,0,0-1.161-.7c-.5-.242-.947.526-.439.771,3.37,1.623,4.61,5.729,4.47,9.289a36.319,36.319,0,0,1-1.31,7.26,53.8,53.8,0,0,0-1.341,7.216,45.8,45.8,0,0,0,.92,14.782c1,4.518,2.5,9.1,2.166,13.8-.253,3.521-1.6,7.338-4.515,9.448a9.1,9.1,0,0,1-1.123.69c-.5.259-.06,1.03.439.768" transform="translate(-420.339 -725.753)" fill="#090d12"/><path d="M957.987,990.2a28.665,28.665,0,0,0,1.675-4.716,11.644,11.644,0,0,0,.123-4.822c-.306-1.623-.9-3.165-1.36-4.744a30.665,30.665,0,0,1-.972-4.783c-.8-6.564.25-13.178,1.128-19.676a103.312,103.312,0,0,0,1.063-11.18.436.436,0,0,0-.872,0c-.166,6.6-1.479,13.082-2.125,19.635a54.529,54.529,0,0,0-.213,9.752,34.179,34.179,0,0,0,.7,4.71c.356,1.6.9,3.126,1.358,4.691a11.822,11.822,0,0,1,.494,5.376,23.731,23.731,0,0,1-1.748,5.306c-.222.521.529.977.752.451" transform="translate(-429.69 -608.029)" fill="#090d12"/><path d="M967.371,1057.723a12.673,12.673,0,0,0,1.482-11.174c-.188-.537-1.03-.306-.841.237a11.811,11.811,0,0,1-1.394,10.487c-.324.47.432.916.752.451" transform="translate(-437.08 -684.802)" fill="#090d12"/><path d="M963.836,1110.81c3.46,2.628,4.726,7.224,4.136,11.469a61.252,61.252,0,0,1-1.946,7.486,46.428,46.428,0,0,0-1.36,16.717c.057.565.929.571.871,0a45.691,45.691,0,0,1,1.257-16.207,67.594,67.594,0,0,0,2.018-7.758,15.242,15.242,0,0,0-.5-6.728,11.581,11.581,0,0,0-4.032-5.749c-.451-.342-.886.432-.44.771" transform="translate(-434.994 -730.776)" fill="#090d12"/><path d="M943.116,1337.131a6.4,6.4,0,0,0,5.315-4.549.437.437,0,0,0-.841-.237,5.487,5.487,0,0,1-4.475,3.895.454.454,0,0,0-.436.445.443.443,0,0,0,.436.445" transform="translate(-419.862 -891.035)" fill="#090d12"/><path d="M993.567,1203.608a84.817,84.817,0,0,1-.515-8.493q-.023-2.125.063-4.254a15.054,15.054,0,0,1,.493-3.953,4.043,4.043,0,0,1,2.321-2.706c.526-.186.3-1.047-.234-.86-2.508.882-3.218,3.683-3.38,6.108a77.445,77.445,0,0,0-.033,9.042q.129,2.564.414,5.116c.063.565.935.571.871,0" transform="translate(-455.572 -783.716)" fill="#090d12"/><path d="M977.8,1142.094c-.11-2.72-.217-5.445-.065-8.165a32.517,32.517,0,0,1,1.438-7.889c1.393-4.473,3.3-9.014,2.225-13.788a8.874,8.874,0,0,0-3.492-5.487c-.468-.317-.9.454-.439.771,3.332,2.274,3.812,6.99,3.1,10.692a65.973,65.973,0,0,1-2.152,7.313,33.484,33.484,0,0,0-1.5,7.611,77.9,77.9,0,0,0,.015,8.942c.023.571.9.573.871,0" transform="translate(-444.472 -728.422)" fill="#090d12"/><path d="M977.938,1059.272a12.125,12.125,0,0,0,.682-5.654.456.456,0,0,0-.435-.448.445.445,0,0,0-.436.448,11.525,11.525,0,0,1-.651,5.415.455.455,0,0,0,.3.551.447.447,0,0,0,.536-.312" transform="translate(-444.683 -689.8)" fill="#090d12"/><path d="M966.716,914.117a19.075,19.075,0,0,1-.252-5.025c.046-.571-.826-.568-.871,0a19.983,19.983,0,0,0,.283,5.262c.105.562.945.325.84-.237" transform="translate(-436.351 -585.523)" fill="#090d12"/><path d="M980.029,575.084c.113,0,.227,0,.34.014l.085.009c.133.014-.045-.011.031,0,.055.012.112.02.167.032a3.725,3.725,0,0,1,.672.205l.014.005c.026.014.052.025.077.039a1.558,1.558,0,0,1,.152.078,2.889,2.889,0,0,1,.294.175c.048.034.095.064.14.1.008.005.094.07.059.042s.033.027.039.033a3.45,3.45,0,0,1,.268.251.433.433,0,0,0,.615,0,.462.462,0,0,0,0-.632,4.151,4.151,0,0,0-2.954-1.247.447.447,0,0,0,0,.893" transform="translate(-446.499 -344.159)" fill="#090d12"/><path d="M989.867,636.121a6.775,6.775,0,0,0,3.294-2.678.454.454,0,0,0-.156-.61.439.439,0,0,0-.6.159,5.169,5.169,0,0,1-.552.727,6.466,6.466,0,0,1-.685.654c-.059.048-.053.042-.122.094s-.131.1-.2.143q-.2.137-.408.261c-.139.082-.282.156-.427.226a3.859,3.859,0,0,1-.384.164.46.46,0,0,0-.3.548.439.439,0,0,0,.536.312" transform="translate(-453.515 -386.433)" fill="#090d12"/><path d="M1008.911,1672.473a11.622,11.622,0,0,0,9.774,7.806,9.874,9.874,0,0,0,4.61-1.063c.76-.345,1.5-.738,2.238-1.13a14.049,14.049,0,0,0,2.127-1.311c1.267-.98,2.219-2.311,3.483-3.3a29.158,29.158,0,0,1,8.112-4.031c1.7-.621,3.625-1.462,5.462-1.052a3.148,3.148,0,0,1,2.647,2.915.436.436,0,0,0,.871,0,3.728,3.728,0,0,0-1.9-3.2,5.808,5.808,0,0,0-4.435-.459,50.47,50.47,0,0,0-8.727,3.455,17.4,17.4,0,0,0-3.7,2.661c-.6.579-1.136,1.225-1.743,1.8a9.872,9.872,0,0,1-2,1.417,22.934,22.934,0,0,1-4.485,2.085,7.58,7.58,0,0,1-4.808-.15c-2.962-1.049-5.9-3.449-6.687-6.67a.437.437,0,0,0-.841.237" transform="translate(-467.645 -1133.051)" fill="#090d12"/><path d="M1088.065,1417.166c-2.336-1.69-3.043-5.047-2.594-7.8a8.531,8.531,0,0,1,1.776-4.056,15.307,15.307,0,0,1,4.078-3.443,37.472,37.472,0,0,1,5.531-2.62c-.178-.106-.356-.209-.534-.312,1.807,5.384-.585,11.681-5.064,14.9a11.418,11.418,0,0,1-4.187,1.888l.551.431a9.97,9.97,0,0,1,3.162-6.9c.415-.387-.2-1.016-.618-.632a10.893,10.893,0,0,0-3.416,7.53.442.442,0,0,0,.551.429c5.8-1.281,10.03-6.976,10.47-12.908a12.76,12.76,0,0,0-.61-4.975.44.44,0,0,0-.537-.312c-3.535,1.408-7.227,3.037-9.774,6.03a9.508,9.508,0,0,0-2.163,4.382,10.861,10.861,0,0,0,.136,4.844,7.612,7.612,0,0,0,2.8,4.292c.459.331.9-.44.44-.771" transform="translate(-522.187 -938.901)" fill="#090d12"/><path d="M1121.8,1524.625a9.367,9.367,0,0,0,7.555-5.481,9.274,9.274,0,0,0-1.158-9.356,9.023,9.023,0,0,0-4.382-3.2.421.421,0,0,0-.423.114,16.157,16.157,0,0,0-4.707,10.13,14.9,14.9,0,0,0,.54,5.673,2.686,2.686,0,0,0,1.67,1.957,2.779,2.779,0,0,0,2.227-.409c2.077-1.342,1.712-4.064,1.292-6.175-.111-.562-.949-.326-.838.237.317,1.6.771,3.867-.7,5.033a2,2,0,0,1-1.787.443c-.763-.259-.994-1.155-1.172-1.868a15.319,15.319,0,0,1,.888-9.749,14.748,14.748,0,0,1,3.2-4.643l-.423.117a8.614,8.614,0,0,1,5.531,6.408,8.309,8.309,0,0,1-2.873,7.964,7.971,7.971,0,0,1-4.443,1.91c-.557.047-.559.938,0,.891" transform="translate(-546.821 -1016.986)" fill="#090d12"/><path d="M1167.14,1596.245c-4.245-2.642-10.141-1.189-13.267,2.6a9.467,9.467,0,0,0-1.9,3.714.447.447,0,0,0,.42.562c3.2.014,6.233,1.375,9.434,1.425a7.571,7.571,0,0,0,6.283-3.087,4.377,4.377,0,0,0,.654-3.652.43.43,0,0,0-.3-.312,12.068,12.068,0,0,0-8.607,1.693c-.476.3-.039,1.075.44.771a11.161,11.161,0,0,1,7.937-1.6c-.1-.1-.2-.209-.3-.312.6,2.194-1.136,4.017-2.923,4.905-2.458,1.217-5.17.573-7.708,0a23.22,23.22,0,0,0-4.9-.721c.139.189.281.376.42.565,1.138-4.535,5.921-7.371,10.339-6.971a8.09,8.09,0,0,1,3.547,1.189c.479.3.919-.473.44-.771" transform="translate(-570.883 -1080.725)" fill="#090d12"/><path d="M1372.048,1635.767a10.984,10.984,0,0,1,6.041-6.829,10.162,10.162,0,0,1,9.092.562,10.6,10.6,0,0,1,3.853,3.714v-.451c-2.422,3.329-6.038,6.456-10.286,6.573a8.89,8.89,0,0,1-5.2-1.484,6.986,6.986,0,0,1-1.9-1.876c-.437-.657-1.322-2.054-.479-2.686a3.91,3.91,0,0,1,1.659-.534,11.371,11.371,0,0,1,2.016-.156,11.584,11.584,0,0,1,4.064.8c.523.2.752-.66.231-.86a12.231,12.231,0,0,0-3.972-.824,9.761,9.761,0,0,0-3.85.5,2.157,2.157,0,0,0-1.194.963,2.288,2.288,0,0,0,.067,1.876,7.452,7.452,0,0,0,1.7,2.572,9.35,9.35,0,0,0,5.568,2.542,10.832,10.832,0,0,0,6.4-1.442,18.89,18.89,0,0,0,5.929-5.518.45.45,0,0,0,0-.451,11.684,11.684,0,0,0-8.44-5.459,11.107,11.107,0,0,0-9.231,3.327,11.748,11.748,0,0,0-2.909,4.9.437.437,0,0,0,.841.237" transform="translate(-729.081 -1104.048)" fill="#090d12"/><path d="M1005.779,1200.179a8.512,8.512,0,0,0,5.264-4.863,16.2,16.2,0,0,0,.818-8.978c-.465-3.274-1.6-6.539-1.205-9.882.365-3.1,1.787-5.924,2.639-8.891.855-2.99,1.189-6.433-.473-9.2a.438.438,0,0,0-.752.448c1.42,2.369,1.217,5.284.56,7.87-.729,2.876-2.068,5.559-2.645,8.479a14.665,14.665,0,0,0-.175,4.521c.184,1.617.551,3.2.855,4.794.573,3,.977,6.211.075,9.186a8.082,8.082,0,0,1-5.192,5.66.446.446,0,0,0,.231.86" transform="translate(-465.005 -765.555)" fill="#090d12"/><path d="M1028.573,1242.788a8.251,8.251,0,0,0,4.423-7.282.436.436,0,0,0-.871,0,7.366,7.366,0,0,1-3.992,6.514c-.5.251-.064,1.022.44.768" transform="translate(-481.366 -821.067)" fill="#090d12"/><path d="M1041.3,1250.166a7.184,7.184,0,0,0,3.226,1.347c.944.142,2.333.27,3.082-.482.921-.924-.2-1.979-.977-2.458a5.806,5.806,0,0,0-2.962-.835,5.657,5.657,0,0,0-3.315,1.008c-.459.323-.025,1.094.44.768a4.957,4.957,0,0,1,5.818.12c.161.125.484.362.465.607-.011.167-.214.267-.345.32a3.752,3.752,0,0,1-1.687.125,6.484,6.484,0,0,1-3.3-1.292c-.454-.34-.891.434-.44.771" transform="translate(-490.204 -830.205)" fill="#090d12"/><path d="M923.784,1027.72a6.449,6.449,0,0,1-4.688-2.519,6.668,6.668,0,0,1-1.294-5.523c.226-1.183.614-2.327.833-3.51a9.263,9.263,0,0,0-.006-3.474c-.441-2.283-1.621-4.307-2.324-6.5-.662-2.066-1.015-4.674.43-6.495.35-.443-.263-1.078-.617-.632a7.175,7.175,0,0,0-1,6.088c.511,2.363,1.765,4.462,2.427,6.776a8.6,8.6,0,0,1,.291,3.739c-.2,1.255-.621,2.458-.865,3.705a8.038,8.038,0,0,0-.026,3.354,7.513,7.513,0,0,0,1.214,2.681,7.384,7.384,0,0,0,5.622,3.2c.561.022.56-.869,0-.894" transform="translate(-399.797 -650.649)" fill="#090d12"/><path d="M910.53,1071.941a2.983,2.983,0,0,1-2.945-.671,3.158,3.158,0,0,1-.871-2.9c.121-.56-.719-.8-.841-.237a4.091,4.091,0,0,0,1.1,3.764,3.857,3.857,0,0,0,3.793.9c.535-.167.307-1.027-.232-.86" transform="translate(-393.235 -700.37)" fill="#090d12"/><path d="M914.146,986.739a3.63,3.63,0,0,1,1.024-5,1.714,1.714,0,0,1,1.356-.226c.573.2.6.877.609,1.4q.029,1.1-.031,2.2a4.528,4.528,0,0,1-.3,1.59c-.189.42-.537.835-1.029.721-.287-.067-.773-.367-.563-.715a.439.439,0,0,0-.753-.451c-.767,1.272,1.016,2.455,2.108,1.949,1.414-.654,1.418-2.672,1.446-4.008a6.123,6.123,0,0,0-.253-2.682,1.746,1.746,0,0,0-1.676-.952,3.625,3.625,0,0,0-3.018,2.375,4.52,4.52,0,0,0,.331,4.245c.32.468,1.075.022.752-.448" transform="translate(-398.219 -637.408)" fill="#090d12"/><path d="M865.19,1493.6a5.039,5.039,0,0,1-1.793-5.233,9.3,9.3,0,0,1,3.91-5.27c-.2-.056-.4-.109-.6-.161a9.184,9.184,0,0,1,.7,9.145,8.115,8.115,0,0,1-.829,1.359c-.287.379-.62.832-1.1.465-.573-.44-.418-1.325-.326-1.946a4.046,4.046,0,0,0-.066-2.074c-.2-.526-1.046-.3-.84.237.524,1.364-.62,2.959.418,4.212a1.52,1.52,0,0,0,1.591.551c.557-.181.942-.785,1.262-1.25a10.061,10.061,0,0,0,1.53-7.2,9.314,9.314,0,0,0-1.586-3.945.436.436,0,0,0-.6-.159,11.129,11.129,0,0,0-3.865,4.465,6.777,6.777,0,0,0-.113,5.289,5.05,5.05,0,0,0,1.859,2.288c.472.315.909-.457.44-.768" transform="translate(-361.935 -999.442)" fill="#090d12"/><path d="M570.615,1700.971a3.807,3.807,0,0,0-.766-5.1,7.834,7.834,0,0,0-3.486-1.055q-2.117-.359-4.236-.724a.443.443,0,0,0-.536.312,7.8,7.8,0,0,0,.877,5.164,5.971,5.971,0,0,0,4.826,2.62,3.752,3.752,0,0,0,2.987-.7c.424-.376-.193-1-.617-.629-.774.688-2.051.509-2.981.356a5.078,5.078,0,0,1-2.814-1.281,6.274,6.274,0,0,1-1.436-5.3c-.18.106-.358.209-.536.312q1.835.313,3.671.629a11.838,11.838,0,0,1,3.363.763,2.868,2.868,0,0,1,.932,4.176c-.337.459.419.9.753.451" transform="translate(-144.787 -1152.299)" fill="#090d12"/><path d="M1601.469,1720.122a5.862,5.862,0,0,1,6.67-2.8,5.956,5.956,0,0,1,1.874.916c.092.07.3.178.331.3s-.081.326-.123.423a2.847,2.847,0,0,1-.554.821,6.028,6.028,0,0,1-3.925,1.484c-1.517.161-3.547.3-4.487-1.219a.439.439,0,0,0-.754.448c.983,1.59,2.878,1.857,4.565,1.726,1.737-.131,3.613-.359,4.977-1.576a3.276,3.276,0,0,0,1.164-2c.064-.869-1-1.4-1.651-1.723a6.7,6.7,0,0,0-4.758-.487,6.927,6.927,0,0,0-4.084,3.226.44.44,0,0,0,.755.451" transform="translate(-894.509 -1168.265)" fill="#090d12"/><path d="M960.063,652.636v23.011a.435.435,0,0,0,.871,0V652.636a.435.435,0,0,0-.871,0" transform="translate(-432.406 -400.456)" fill="#090d12"/><path d="M959.012,747.934a21.006,21.006,0,0,1,.073,3.107.436.436,0,1,0,.872,0,21.165,21.165,0,0,0-.074-3.107.453.453,0,0,0-.435-.446.446.446,0,0,0-.436.446" transform="translate(-431.646 -469.214)" fill="#090d12"/><path d="M801.106,638.825c3.879-.509,7.768-.965,11.635-1.558a42.752,42.752,0,0,0,10.176-2.611,22.7,22.7,0,0,0,5.075-2.912c.443-.341.009-1.114-.439-.769-5.623,4.335-12.876,5.175-19.647,6.066l-6.8.894c-.549.073-.556.964,0,.891" transform="translate(-317.4 -385.073)" fill="#090d12"/><path d="M1011.336,647.926c1.356,1.968,2.776,3.92,4.938,5.011,2.032,1.024,4.3,1.356,6.4,2.175a9.414,9.414,0,0,1,2.906,1.745,15.654,15.654,0,0,1,2.277,2.611c1.537,2.147,2.931,4.41,4.379,6.62q2.635,4.012,5.267,8.025c.312.476,1.066.028.752-.448q-2.33-3.554-4.663-7.11c-1.495-2.284-2.962-4.588-4.5-6.843a14.307,14.307,0,0,0-4.813-4.841c-1.993-1.066-4.242-1.414-6.344-2.182a9.245,9.245,0,0,1-3.282-1.974,20.513,20.513,0,0,1-2.567-3.241c-.323-.467-1.077-.022-.754.451" transform="translate(-469.349 -396.899)" fill="#090d12"/><path d="M983.313,470.359c1.978-4.028,1.438-8.624,1.762-12.973a20.36,20.36,0,0,1,.482-3.262,18.8,18.8,0,0,1,1.23-3.41c1.077-2.352,2.26-4.657,3.4-6.979q1.938-3.967,3.878-7.928c.251-.512-.5-.962-.752-.45-2.288,4.674-4.6,9.337-6.859,14.024a27.382,27.382,0,0,0-1.412,3.374,17.717,17.717,0,0,0-.7,3.266c-.281,2.224-.237,4.472-.325,6.711a17.653,17.653,0,0,1-1.453,7.176c-.251.512.5.964.753.451" transform="translate(-448.603 -243.81)" fill="#090d12"/><path d="M906.308,1666.7a13.235,13.235,0,0,0-1.807,6.8c-.105,2.547.064,5.094-.153,7.639-.421,4.933-2.121,9.994-6.042,13.148a11.27,11.27,0,0,1-2.85,1.684c-1.22.487-2.5.771-3.756,1.155a11.217,11.217,0,0,0-3.2,1.464,9.76,9.76,0,0,0-2.176,2.121,10.666,10.666,0,0,0-2.106,5.715,12.689,12.689,0,0,0,1.676,6.406c.982,2.013,2.112,4.206,1.62,6.528a6.618,6.618,0,0,1-3.747,4.638,5.276,5.276,0,0,1-1.449.4c-.549.07-.556.963,0,.894a7.122,7.122,0,0,0,5.1-3.382,7.386,7.386,0,0,0,.626-6.353c-.761-2.283-2.22-4.287-2.762-6.653a9.281,9.281,0,0,1,.757-6.041,8.926,8.926,0,0,1,4.282-4.29,29.454,29.454,0,0,1,3.816-1.219,13.956,13.956,0,0,0,3.327-1.4c4.2-2.544,6.555-7.28,7.4-12.068a43.923,43.923,0,0,0,.476-7.928,19.272,19.272,0,0,1,.9-7.241,8.8,8.8,0,0,1,.821-1.562c.313-.479-.441-.924-.752-.451" transform="translate(-376.006 -1132.389)" fill="#090d12"/><path d="M973.218,1672.671a73.97,73.97,0,0,0,1.85,11.48c.792,3.243,1.729,6.765,4.284,9.047a13.767,13.767,0,0,0,8.911,3.079,44.716,44.716,0,0,0,5.79-.328c1.812-.187,3.625-.356,5.442-.462a56.038,56.038,0,0,1,10.89.284,35.762,35.762,0,0,1,5.317,1.13,19.8,19.8,0,0,1,2.366.813,2.2,2.2,0,0,1,1.459,1.584,11.338,11.338,0,0,0,.356,2.35,3.994,3.994,0,0,0,1.331,1.676,6.624,6.624,0,0,0,4.677.994,21.764,21.764,0,0,0,4.535-.788,6.249,6.249,0,0,0,3.327-2.2c.974-1.367.963-3.1,1.475-4.649a8.134,8.134,0,0,1,2.522-3.574c2.606-2.235,6.032-2.94,9.262-3.675.866-.2,1.732-.4,2.589-.632a.446.446,0,0,0-.231-.86c-3.338.908-6.868,1.319-9.963,2.981a11.668,11.668,0,0,0-3.4,2.681,8.866,8.866,0,0,0-1.91,3.956c-.323,1.512-.557,3.04-1.809,4.062a8.236,8.236,0,0,1-3.8,1.461,13.327,13.327,0,0,1-5.136.262,3.457,3.457,0,0,1-2.842-2.714,6.2,6.2,0,0,0-.434-2.377,3.286,3.286,0,0,0-1.567-1.3,24.977,24.977,0,0,0-4.86-1.495,46.689,46.689,0,0,0-10.576-.985c-3.644.039-7.249.457-10.873.768-3.388.292-6.965.331-10.091-1.236a9.233,9.233,0,0,1-3.5-2.968,15.6,15.6,0,0,1-2.012-4.54,67.406,67.406,0,0,1-2.217-10.988q-.171-1.411-.285-2.831c-.046-.568-.919-.573-.872,0" transform="translate(-441.898 -1136.536)" fill="#090d12"/><path d="M1246.877,1727.955a11.281,11.281,0,0,1,2.3-.367c1.094-.092,2.194-.125,3.29-.131a56.642,56.642,0,0,1,6.971.354,22.614,22.614,0,0,1,6.79,1.974,14.549,14.549,0,0,1,3.814,2.611,20.9,20.9,0,0,0,3.268,2.723,6.184,6.184,0,0,0,2.191.829,9.806,9.806,0,0,0,3-.114c2.1-.312,4.19-.64,6.283-.963.554-.083.318-.944-.231-.86l-5.579.857c-1.662.253-3.307.5-4.86-.314a15.865,15.865,0,0,1-3.3-2.636,15.864,15.864,0,0,0-3.7-2.684,30.45,30.45,0,0,0-4.61-1.732,15.315,15.315,0,0,0-2.475-.509,53.411,53.411,0,0,0-6.837-.426c-1.267-.008-2.536.014-3.8.111a13.153,13.153,0,0,0-2.759.418c-.537.159-.309,1.022.231.86" transform="translate(-638.989 -1175.736)" fill="#090d12"/><path d="M740.293,1710.189c-4.634-1.651-9.233-3.4-13.886-5-2.562-.88-5.137-1.726-7.739-2.478a50.893,50.893,0,0,0-6.64-1.54c-6.571-.971-13.481-.651-19.691,1.918a18.408,18.408,0,0,0-7.246,4.91,10.139,10.139,0,0,0-2.016,3.689c-.394,1.375-.541,3.1.6,4.156a4.712,4.712,0,0,0,3.575.941,9.307,9.307,0,0,0,4.194-1.172,4.624,4.624,0,0,0,2.233-3.279,3.28,3.28,0,0,0-1.46-3.385,3.665,3.665,0,0,0-3.837.245,5.687,5.687,0,0,0-2.166,3.68,8.317,8.317,0,0,0,3.011,7.939,11.739,11.739,0,0,0,8.124,1.99c3.42-.253,6.683-1.453,10.071-1.915,1.622-.223,3.555-.429,5.076.334a4.3,4.3,0,0,1,2.1,2.528,6.417,6.417,0,0,1,.149,3.474,6.642,6.642,0,0,1-1.966,3.291c-2.2,2.1-5.293,2.859-8.2,3.188-3.307.376-6.7.331-9.888,1.439-5.008,1.745-9.656,5.854-10.981,11.249a12.272,12.272,0,0,0-.315,3.922c.047.568.919.573.872,0-.444-5.4,3.038-10.144,7.413-12.78a19.026,19.026,0,0,1,8.1-2.514c3.2-.323,6.484-.328,9.544-1.448,2.436-.894,4.862-2.514,5.906-5.039a6.992,6.992,0,0,0-.646-6.667c-1.889-2.536-5.351-2.188-8.086-1.732-3.208.535-6.334,1.645-9.6,1.8-2.676.131-5.6-.337-7.649-2.252a7.311,7.311,0,0,1-1.827-7.881,3.569,3.569,0,0,1,2.91-2.389,2.256,2.256,0,0,1,2.509,2.1c.2,3.115-3.255,4.234-5.695,4.379-1.079.061-2.539-.025-3.184-1.069-.731-1.183-.143-2.968.4-4.117a13.183,13.183,0,0,1,5.785-5.612c5.62-3.093,12.271-3.9,18.559-3.416a61.858,61.858,0,0,1,14.422,3.341c4.8,1.573,9.534,3.329,14.278,5.064.882.323,1.765.646,2.649.96.531.189.759-.674.232-.86" transform="translate(-232.318 -1157.046)" fill="#090d12"/><path d="M899.008,1590.565a9.534,9.534,0,0,1-8.959,3.61,7.551,7.551,0,0,1-4.668-2.45,4.085,4.085,0,0,1-.966-2.659,3.122,3.122,0,0,1,1.331-2.5,5.309,5.309,0,0,1,2.75-1.2,1.379,1.379,0,0,1,1.512,1.261,1.965,1.965,0,0,1-.78,1.812,2.446,2.446,0,0,1-2.4.017c-1.779-.888-2.245-3.148-2.229-5a6.43,6.43,0,0,1,.738-3.123,8.142,8.142,0,0,1,1.851-2.085c1.411-1.214,2.956-2.274,3.707-4.07a4.738,4.738,0,0,0,.384-2.525,3.7,3.7,0,0,0-1.238-2.091c-.2-.2-.626-.559-.421-.863.323-.47-.433-.916-.753-.448-.634.927.431,1.782,1,2.38a2.651,2.651,0,0,1,.453,2.558c-.58,2.163-2.5,3.3-4.043,4.688a7.493,7.493,0,0,0-1.966,2.569,8.148,8.148,0,0,0-.569,3.594c.1,2.166.908,4.518,3.039,5.356a3.231,3.231,0,0,0,2.843-.164,2.792,2.792,0,0,0,1.25-2.138,2.416,2.416,0,0,0-.9-2.2,3.15,3.15,0,0,0-3.138.017,6.139,6.139,0,0,0-2.691,2.085,4.231,4.231,0,0,0-.482,3.171c.477,2.2,2.441,3.675,4.406,4.41a10.388,10.388,0,0,0,10.767-2.458,10.1,10.1,0,0,0,.931-1.1c.338-.459-.419-.9-.752-.451" transform="translate(-377.19 -1061.354)" fill="#090d12"/><path d="M1062.108,1726c4.426-.568,8.855-1.088,13.281-1.651,2.194-.278,4.532-.418,6.545-1.439a5.308,5.308,0,0,0,3.018-4.54c.1-4.128-5.6-4.774-8.374-3.279a3.38,3.38,0,0,0-1.676,4.159,5.187,5.187,0,0,0,4.688,3c2.341.131,4.677-.774,7.01-.317a4.465,4.465,0,0,1,2.414,1.186,3.181,3.181,0,0,1,.838,2.528,5.545,5.545,0,0,1-3.711,4.4,17.568,17.568,0,0,1-3.271.916,5.576,5.576,0,0,0-2.519.941,1.975,1.975,0,0,0-.59,2.341,3.765,3.765,0,0,0,2.043,1.7c1.13.493,2.322.869,3.48,1.289q1.887.693,3.778,1.381c1.225.448,2.441.933,3.68,1.333a4.458,4.458,0,0,0,2.993.086,8.836,8.836,0,0,0,3.279-2.809c.779-.916,1.72-2.216,2.987-2.394,1.81-.256,2.75,1.951,3.928,2.937a6.839,6.839,0,0,0,5.7,1.169c2.216-.393,4.192-1.542,6.23-2.45a14.306,14.306,0,0,1,3.285-1.072c.551-.1.317-.96-.231-.86-4.1.74-7.714,4.3-12.062,3.574a4.773,4.773,0,0,1-2.5-1.169c-.677-.629-1.178-1.431-1.857-2.063a3.077,3.077,0,0,0-3.847-.476,14.382,14.382,0,0,0-2.884,2.915c-.908,1.022-1.993,2.1-3.443,2.035a6.283,6.283,0,0,1-1.793-.44c-.582-.209-1.161-.423-1.74-.635q-1.792-.651-3.577-1.306-1.754-.643-3.51-1.281a7.92,7.92,0,0,1-2.7-1.281,1.149,1.149,0,0,1-.05-1.876,6.036,6.036,0,0,1,2.514-.81,10.673,10.673,0,0,0,5.615-2.561,5.389,5.389,0,0,0,1.492-5.122,4.73,4.73,0,0,0-4.036-3.048c-2.263-.345-4.471.42-6.731.348-1.7-.056-3.9-.963-4.212-2.917-.253-1.623,1.13-2.636,2.491-2.987a6.871,6.871,0,0,1,2.361-.164,5.605,5.605,0,0,1,2.581.816c1.509,1.022,1.208,3.173.309,4.51-1.138,1.69-3.379,2.191-5.236,2.478-2.185.34-4.393.573-6.589.843-1.99.245-3.984.484-5.974.732q-1.708.213-3.418.434c-.548.07-.554.963,0,.891" transform="translate(-505.746 -1166.925)" fill="#090d12"/><path d="M953.828,1710.894a23.713,23.713,0,0,1,1.451,9.22,30.974,30.974,0,0,1-.529,4.707c-.293,1.562-.732,3.076-1.136,4.61-.733,2.767-1.229,5.863.481,8.371a5.423,5.423,0,0,0,2.789,2.21,3.69,3.69,0,0,0,3.38-.646,4.123,4.123,0,0,0,1.556-3.168,4.06,4.06,0,0,0-1.59-3.137c-2.074-1.615-4.86-.5-6,1.712a5.57,5.57,0,0,0,1.757,6.728c2.244,1.84,5.318,1.938,8,1.211a18.32,18.32,0,0,1,4.451-1.13,3.7,3.7,0,0,1,3.2,1.751c1.626,2.5.618,5.579-.866,7.873a16.375,16.375,0,0,1-11.752,7.14,15.351,15.351,0,0,1-6.923-.738,17.384,17.384,0,0,0-4.229-1.37,3.85,3.85,0,0,0-3.155,1.164,2.667,2.667,0,0,0-.285,3.207,5.8,5.8,0,0,0,2.979,2.146,20.5,20.5,0,0,0,8.771,1.086,69.581,69.581,0,0,0,8.856-1.347,28.854,28.854,0,0,0,7.847-2.447,13.542,13.542,0,0,0,3.285-2.383c1.061-1.049,1.968-2.258,3.087-3.249a5.594,5.594,0,0,1,3.586-1.57,2.51,2.51,0,0,1,2.475,1.648,1.961,1.961,0,0,1-.526,2.35c-.47.309-.033,1.08.44.771,1.784-1.169,1.25-3.939-.306-5.053a4.1,4.1,0,0,0-3.524-.387,8.128,8.128,0,0,0-3.36,2.18c-1.01,1.013-1.885,2.16-2.948,3.115a13.352,13.352,0,0,1-3.324,2.141,32.563,32.563,0,0,1-7.658,2.157,58.738,58.738,0,0,1-8.773,1.228,17.411,17.411,0,0,1-8.423-1.417c-.937-.47-2.092-1.3-2.029-2.508.06-1.116,1.23-1.793,2.2-1.932,1.382-.2,2.775.532,4.022,1.038a15.361,15.361,0,0,0,3.412.963,17.456,17.456,0,0,0,13.048-3.274,15.919,15.919,0,0,0,4.693-5.487c1.2-2.369,1.64-5.331.045-7.628a4.58,4.58,0,0,0-2.926-1.982,8.919,8.919,0,0,0-4.3.674c-2.633.871-5.673,1.356-8.124-.317-1.974-1.347-3.158-4.067-1.755-6.266a3.473,3.473,0,0,1,2.807-1.7,3.057,3.057,0,0,1,2.176,5.072,2.88,2.88,0,0,1-3.012.933,4.644,4.644,0,0,1-2.574-2.227,6.7,6.7,0,0,1-.774-3.875,23.118,23.118,0,0,1,.95-4.538,40.714,40.714,0,0,0,1.01-4.535,28.6,28.6,0,0,0,.043-9.07,22.269,22.269,0,0,0-1.15-4.267c-.2-.529-1.044-.3-.84.239" transform="translate(-420.829 -1164.04)" fill="#090d12"/><path d="M862.371,1765.536a7.358,7.358,0,0,1-4.009.284,5.776,5.776,0,0,1-3.669-1.726,11.367,11.367,0,0,1-.823-2.1,2.129,2.129,0,0,0-2.256-1.15,3.378,3.378,0,0,0-2.285,1.609,6.546,6.546,0,0,0-1.2,3.032,5.243,5.243,0,0,0,1.043,3.012c.6.974,1.172,1.963,1.679,2.993a31.143,31.143,0,0,1,2.349,6.525,8.583,8.583,0,0,1-.328,6.083,11.684,11.684,0,0,1-2.884,3.349c-2.333,2-5.148,3.677-6.7,6.456a9.058,9.058,0,0,0-.494,1.055c-.213.532.629.763.839.237,1.154-2.878,3.955-4.66,6.242-6.514a16.276,16.276,0,0,0,3.2-3.235,7.8,7.8,0,0,0,1.394-4.961,22.759,22.759,0,0,0-1.7-6.781,32.941,32.941,0,0,0-1.4-3.14c-.511-.994-1.1-1.932-1.67-2.9a5.137,5.137,0,0,1-.647-1.495,2.875,2.875,0,0,1,.191-1.634,5.076,5.076,0,0,1,1.732-2.539,1.444,1.444,0,0,1,2.171.493,9.8,9.8,0,0,0,.874,2.155,6.074,6.074,0,0,0,3.552,1.926,9.678,9.678,0,0,0,4.356.045,5.569,5.569,0,0,0,.886-.309c.513-.228.071-1-.439-.771" transform="translate(-347.76 -1200.455)" fill="#090d12"/><path d="M726.094,1723.172a5.338,5.338,0,0,0-2.62,2.2,3.059,3.059,0,0,0,.192,2.951c1.349,2.294,4.229,2.659,6.6,2.572a21.982,21.982,0,0,1,4.3.019,10.931,10.931,0,0,1,3.21,1.05,12.984,12.984,0,0,1,4.961,4.521,12.308,12.308,0,0,1,2.03,6.522,9.906,9.906,0,0,1-.632,3.655,5.835,5.835,0,0,1-2.544,3,21.627,21.627,0,0,1-4.053,1.7,33.805,33.805,0,0,1-4.4,1.133,32.358,32.358,0,0,1-4.454.512c-1.482.067-2.966.042-4.449.086-2.711.083-5.589.4-7.9,1.982a7.92,7.92,0,0,0-3.654,5.874,5.706,5.706,0,0,0,.195,1.737.437.437,0,0,0,.841-.237c-.634-2.375.69-4.668,2.444-6.141,2.093-1.757,4.852-2.183,7.476-2.3,1.46-.067,2.923-.045,4.383-.086a35.027,35.027,0,0,0,4.411-.409,33.229,33.229,0,0,0,8.457-2.505,7.541,7.541,0,0,0,3.156-2.363,8.483,8.483,0,0,0,1.419-3.574,12.406,12.406,0,0,0-.8-6.776,13.422,13.422,0,0,0-9.968-8.257c-2.691-.406-5.554.521-8.157-.487a3.892,3.892,0,0,1-2.372-2.216,2.2,2.2,0,0,1,.823-2.447,6.669,6.669,0,0,1,1.544-.946c.509-.242.067-1.011-.439-.771" transform="translate(-253.887 -1173.255)" fill="#090d12"/><path d="M1313.833,1705.763c-1.088-2.639.409-5.682,2.453-7.338a11.232,11.232,0,0,1,4.326-1.935,16.941,16.941,0,0,1,5.183-.5c3.032.176,6.806,1.091,8.438,3.995,1.414,2.519,1.147,5.668,1.528,8.452a10.256,10.256,0,0,0,1.25,3.958,6.731,6.731,0,0,0,3,2.653c2.583,1.158,5.593.888,8.273.27,3.293-.757,6.553-2.171,9.994-1.832a7.855,7.855,0,0,1,2.355.607c.665.3,1.481.721,1.205,1.59a2.38,2.38,0,0,0-.081,2.015,2.334,2.334,0,0,0,1.423,1.052c1.487.426,2.711-.534,3.7-1.564a14.793,14.793,0,0,1,1.707-1.634,9.67,9.67,0,0,1,1.834-1.086c2.792-1.269,6-1.267,9-1.077.741.047,1.481.109,2.222.178.56.053.554-.841,0-.891a28.824,28.824,0,0,0-9.329.223,11.263,11.263,0,0,0-4.078,1.818,13.156,13.156,0,0,0-1.732,1.587,6.047,6.047,0,0,1-1.823,1.509,1.873,1.873,0,0,1-1.72-.12,1.163,1.163,0,0,1-.484-.518,1.414,1.414,0,0,1,.131-1.027,1.849,1.849,0,0,0-.406-2.121,5.428,5.428,0,0,0-2.143-1.091c-3.4-1.03-7.012.142-10.3,1.072-2.748.779-5.787,1.406-8.591.532a6,6,0,0,1-3.24-2.338,9.294,9.294,0,0,1-1.325-4c-.384-2.856-.156-5.971-1.57-8.574-1.62-2.987-5.175-4.089-8.287-4.443a17.7,17.7,0,0,0-5.309.214,14.657,14.657,0,0,0-4.813,1.718,8.23,8.23,0,0,0-4.011,7.06,6.143,6.143,0,0,0,.47,2.043.432.432,0,0,0,.6.159.462.462,0,0,0,.156-.61" transform="translate(-686.807 -1153.009)" fill="#090d12"/><path d="M460.394,1723.2a14.436,14.436,0,0,1-4.642,2.943,38.881,38.881,0,0,0-4.975,2.489c-2.963,1.865-5.873,4.529-6.429,8.232a11.632,11.632,0,0,0,3.48,9.6c1.232,1.255,2.923,2.6,4.765,2.478a2.9,2.9,0,0,0,2.871-3.238c-.3-1.834-2.056-2.951-3.655-3.441-1.731-.532-3.567-.743-4.861-2.172a12.41,12.41,0,0,1-2.123-4.164,15.954,15.954,0,0,0-2.222-4.463c-2.208-2.809-5.761-4.1-9.067-4.952a68.349,68.349,0,0,0-13.074-2.018,94.744,94.744,0,0,0-13.71.393c-4.589.4-9.173.844-13.76,1.267q-1.647.155-3.3.306c-.553.05-.559.944,0,.891l13.185-1.219c4.346-.4,8.7-.824,13.064-.86a68.136,68.136,0,0,1,12.915,1.127,55.13,55.13,0,0,1,5.826,1.359,18.932,18.932,0,0,1,4.6,1.971,9.7,9.7,0,0,1,3.4,3.43,35.564,35.564,0,0,1,1.807,4.357,9.113,9.113,0,0,0,2.425,3.772c1.435,1.183,3.251,1.359,4.945,1.929,1.316.443,3.245,1.81,2.678,3.5a2.119,2.119,0,0,1-1.671,1.3,3.56,3.56,0,0,1-2.446-.573,11.214,11.214,0,0,1-3.647-3.719A10.678,10.678,0,0,1,445.14,1739a8.282,8.282,0,0,1,1.075-4.824,12.691,12.691,0,0,1,3.5-3.753,24.81,24.81,0,0,1,4.564-2.667,36.644,36.644,0,0,0,4.713-2.3,11.205,11.205,0,0,0,2.02-1.631c.4-.409-.22-1.038-.617-.632" transform="translate(-20.516 -1173.213)" fill="#090d12"/><path d="M1016.25,1804.3a9.273,9.273,0,0,1,4.471-1.345c.816-.064,1.634-.078,2.45-.083a3.437,3.437,0,0,1,2.349.657,5.974,5.974,0,0,1,1.409,7.107c-.727,1.442-2.26,2.3-2.72,3.9a.437.437,0,0,0,.841.239,5.156,5.156,0,0,1,1.384-2,7.415,7.415,0,0,0,1.292-1.782,7.07,7.07,0,0,0,.571-4.2,6.473,6.473,0,0,0-1.935-3.708,3.89,3.89,0,0,0-2.3-1.086,18.094,18.094,0,0,0-2.72.019,10.761,10.761,0,0,0-5.526,1.506c-.468.309-.033,1.083.44.768" transform="translate(-472.489 -1230.141)" fill="#090d12"/><path d="M1059.368,1790.77c2.628-1.865,3.689-5.03,5.211-7.761a12.7,12.7,0,0,1,3.115-3.8,11.5,11.5,0,0,1,4.468-2.2c1.8-.437,3.95-.468,5.47.763.437.354,1.058-.273.618-.629-2.82-2.286-7.054-1.25-9.874.5a12.6,12.6,0,0,0-3.758,3.613,40.505,40.505,0,0,0-2.386,4.41,11.511,11.511,0,0,1-3.3,4.326c-.457.323-.022,1.1.44.768" transform="translate(-503.609 -1211.29)" fill="#090d12"/><path d="M1168.521,1805.79a4.535,4.535,0,0,1,.6,3.622,9.274,9.274,0,0,1-1.829,3.36,27.566,27.566,0,0,0-2.389,3.121,2.134,2.134,0,0,0,.638,2.9c1.161.827,2.653.354,3.722-.393.462-.323.025-1.1-.44-.771-.835.585-2.088,1.105-2.956.292a1.158,1.158,0,0,1-.351-1.3,6.577,6.577,0,0,1,1.016-1.511c1.423-1.812,3.179-3.608,3.541-6.01a5.394,5.394,0,0,0-.8-3.755c-.309-.476-1.063-.031-.752.448" transform="translate(-579.991 -1232.437)" fill="#090d12"/><path d="M1192.9,1685.915a8.922,8.922,0,0,1,5.96,1.89c1.8,1.417,2.659,3.6,4.229,5.228,3.14,3.251,8.017,2.583,12,1.9,2.764-.473,5.654-.952,8.379-.02.532.181.76-.679.231-.86-4.671-1.6-9.429.688-14.158.554a8.287,8.287,0,0,1-5.662-2.041,16.71,16.71,0,0,1-2.077-2.748,12.061,12.061,0,0,0-2.141-2.5,9.759,9.759,0,0,0-6.756-2.3c-.557.028-.562.921,0,.891" transform="translate(-600.125 -1145.75)" fill="#090d12"/><path d="M739.843,1415.322c-.967-.234-1.542.676-2.209,1.2a6.178,6.178,0,0,1-2.327,1.086,9.263,9.263,0,0,1-5.432-.493,27.957,27.957,0,0,1-5.475-3.048q-2.7-1.779-5.279-3.733-2.921-2.213-5.67-4.646c-.1.239-.2.476-.295.715a24.568,24.568,0,0,1,11.474,1.448c.5.189.721-.615.222-.8a25.069,25.069,0,0,0-11.7-1.478c-.325.036-.595.448-.3.713a100.13,100.13,0,0,0,10.419,8.042c3.245,2.18,6.939,4.707,11.049,4.29a7.89,7.89,0,0,0,2.856-.821,6.355,6.355,0,0,0,1.24-.846c.295-.256.752-.924,1.2-.816.522.128.745-.679.222-.8" transform="translate(-253.925 -943.983)" fill="#090d12"/><path d="M1094.566,1410.549a18.659,18.659,0,0,0,8.722.053,14.033,14.033,0,0,0,7.31-3.956,20.493,20.493,0,0,0,3.97-7.566,24.806,24.806,0,0,0,1.072-8.449c-.031-.665.036-1.573-.521-2.049a3.857,3.857,0,0,0-2.074-.613,7.3,7.3,0,0,0-4.4,1,.418.418,0,0,0,.42.721,6.5,6.5,0,0,1,3.574-.913,4.437,4.437,0,0,1,1.8.351c.256.134.278.384.3.651.031.343.05.688.064,1.03a24.043,24.043,0,0,1-.963,7.756,20.811,20.811,0,0,1-3.452,7.024,12.568,12.568,0,0,1-6.609,4.02,17.7,17.7,0,0,1-9,.131.419.419,0,0,0-.223.807" transform="translate(-529.251 -931.376)" fill="#090d12"/><path d="M1194.686,1439.919c.3-2.274-.813-4.354-1.949-6.236-.6-.994-1.228-1.971-1.737-3.015a11.34,11.34,0,0,1-1.066-3.6c-.654-5.348,1.99-10.294,4.947-14.537,1.809-2.594,3.73-5.116,5.606-7.661l-.657.083c1.723,1.979,4.165,3.059,6.266,4.557a9.6,9.6,0,0,1,2.7,2.775,9.242,9.242,0,0,1,1.244,3.711c.693,5.879-3.335,11.027-7.263,14.924a42.6,42.6,0,0,1-7.909,6.183c.211.12.42.242.629.362a25.49,25.49,0,0,1,1.7-12.521c.2-.5-.607-.715-.8-.223a26.025,26.025,0,0,0-1.729,12.744.423.423,0,0,0,.629.359,43.873,43.873,0,0,0,7.383-5.64,34.843,34.843,0,0,0,5.815-6.948,15.078,15.078,0,0,0,2.458-8.259,9.912,9.912,0,0,0-3.276-7.285c-2.269-1.976-5.25-3.031-7.249-5.328a.421.421,0,0,0-.654.083c-1.707,2.313-3.435,4.61-5.1,6.948a37.229,37.229,0,0,0-4.078,6.9,18,18,0,0,0-1.573,7.586,12.808,12.808,0,0,0,.674,3.8,17.468,17.468,0,0,0,1.592,3.207c1.283,2.135,2.923,4.4,2.572,7.029-.031.225.211.415.417.418a.428.428,0,0,0,.418-.418" transform="translate(-597.615 -943.142)" fill="#090d12"/><path d="M1234.658,1538.344c-2.87-2.67-3.045-7.246-1.217-10.545,2.116-3.817,6.241-5.977,10.364-6.909a42.326,42.326,0,0,1,8.443-.835l-.4-.529a71.707,71.707,0,0,1-2.772,7.564,22.5,22.5,0,0,1-3.714,6.1,19.456,19.456,0,0,1-5.055,4.056,18.645,18.645,0,0,1-2.934,1.325,15.322,15.322,0,0,1-1.6.482c-.437.1-1.044.178-1.331-.259a1.568,1.568,0,0,1,.047-1.325,7.107,7.107,0,0,1,.849-1.5q1.294-1.954,2.589-3.914c.3-.448-.426-.869-.721-.42q-1.24,1.871-2.478,3.744a5.32,5.32,0,0,0-1.244,2.984,1.619,1.619,0,0,0,.576,1.23,2.044,2.044,0,0,0,1.665.317,14.449,14.449,0,0,0,3.318-1.108,20.433,20.433,0,0,0,10.136-9.941,64.788,64.788,0,0,0,3.474-9.12.42.42,0,0,0-.4-.529c-5.005.111-10.261.532-14.629,3.213-3.636,2.233-6.383,5.988-6.2,10.4a8.792,8.792,0,0,0,2.647,6.1c.4.365.986-.223.593-.59" transform="translate(-628.215 -1026.112)" fill="#090d12"/><path d="M620.761,1624.436c5.506-.582,10.767-5.064,11.115-10.8.119-1.935-.241-3.858-.209-5.793a.421.421,0,0,0-.628-.362,15.1,15.1,0,0,0-5.2,6.063c-1.1,2.249-1.838,4.671-3.112,6.834a11.683,11.683,0,0,1-1,1.461q-.272.334-.573.643a2.615,2.615,0,0,1-.728.654c-.116.042-.028.1-.128-.031a.981.981,0,0,1-.079-.217c-.05-.142-.1-.287-.135-.432a6.211,6.211,0,0,1-.2-1.041,7.682,7.682,0,0,1,.076-2.01,14.8,14.8,0,0,1,3.8-7.141c1.921-2.13,4.467-3.928,7.431-3.995a.418.418,0,0,0,0-.835,10.986,10.986,0,0,0-7.3,3.488,16.743,16.743,0,0,0-4.555,7.427,8.446,8.446,0,0,0-.09,4.22c.153.6.39,1.57,1.207,1.431.623-.106,1.164-.777,1.565-1.228,1.782-2,2.7-4.56,3.72-6.993a22.051,22.051,0,0,1,2.08-4.023,13.481,13.481,0,0,1,3.637-3.558l-.629-.359c-.026,1.609.212,3.2.231,4.813a9.55,9.55,0,0,1-.971,4.46,12,12,0,0,1-5.274,5.267,11.591,11.591,0,0,1-4.057,1.216c-.529.056-.535.894,0,.835" transform="translate(-186.306 -1089.76)" fill="#090d12"/><path d="M873.657,1054.591a8.167,8.167,0,0,1-11.69-4.231c-.537-1.442-.639-3-1.156-4.454-.135.175-.269.354-.4.529a28.775,28.775,0,0,1,8.153-.028,12.888,12.888,0,0,1,3.641,1.194,3.674,3.674,0,0,1,1.866,2.606,8.017,8.017,0,0,1-.595,4.242c-.18.507.626.724.806.223.826-2.319,1.295-5.428-.835-7.235a9.252,9.252,0,0,0-3.647-1.606,17.883,17.883,0,0,0-4.347-.543,47.685,47.685,0,0,0-5.041.312.423.423,0,0,0-.4.529c.5,1.4.611,2.906,1.1,4.309a9.139,9.139,0,0,0,1.854,3.1,8.98,8.98,0,0,0,6.738,2.945,9.17,9.17,0,0,0,4.377-1.169c.469-.262.049-.983-.421-.721" transform="translate(-360.187 -684.112)" fill="#090d12"/><path d="M1034.788,1193.478c-2.575-.988-3.352-4.2-2.723-6.637a11.669,11.669,0,0,1,2.188-4.159,26.89,26.89,0,0,1,3.366-3.552,28.714,28.714,0,0,1,3.981-2.968c.17-.106.342-.211.518-.314.07-.042.139-.081.209-.123l.1-.058c.147-.039.142-.1-.011-.178-.031.025.317.941.343,1.027a14.049,14.049,0,0,1,.434,2.06,15.194,15.194,0,0,1-1.25,8.257c-1.333,2.9-3.775,5.865-7,6.656-.523.128-.3.933.22.8,3.193-.782,5.718-3.563,7.182-6.392a16.046,16.046,0,0,0,1.718-9.02,15.235,15.235,0,0,0-.418-2.288c-.092-.351-.2-.7-.32-1.036-.128-.37-.256-.793-.721-.821-.384-.02-.81.326-1.119.515-.415.248-.824.509-1.225.78-.732.49-1.442,1.016-2.127,1.57a29.115,29.115,0,0,0-3.889,3.772,14.812,14.812,0,0,0-2.714,4.379,7.476,7.476,0,0,0-.131,5.125,5.528,5.528,0,0,0,3.165,3.4c.5.195.718-.613.22-.8" transform="translate(-483.603 -777.526)" fill="#090d12"/><path d="M798.295,1308.078a36,36,0,0,1-8.835-5.685,11.678,11.678,0,0,1-3.019-3.895,14.743,14.743,0,0,1-1.063-4.966c-.247-3.494-.341-7.146.783-10.506a23.123,23.123,0,0,1,4.662-7.719,69.01,69.01,0,0,1,7.623-7.2h-.591a39.143,39.143,0,0,1,8.025,15.545c1.507,5.891,1.694,12.455-1.216,17.964a15.916,15.916,0,0,1-6.061,6.447.418.418,0,0,0,.421.721c5.074-2.909,7.93-8.479,8.6-14.15.74-6.3-.891-12.853-3.6-18.518a40.024,40.024,0,0,0-5.577-8.6.429.429,0,0,0-.591,0c-4.784,4.05-9.847,8.452-12.19,14.439-1.33,3.4-1.339,7.012-1.177,10.606a19.9,19.9,0,0,0,.766,5.142,11.151,11.151,0,0,0,2.679,4.387,28.8,28.8,0,0,0,4.618,3.719,38.2,38.2,0,0,0,5.324,2.993c.484.226.909-.5.421-.721" transform="translate(-305.655 -844.389)" fill="#090d12"/></g></svg>