<svg xmlns="http://www.w3.org/2000/svg" xmlns:xlink="http://www.w3.org/1999/xlink" width="508.546" height="508.546" viewBox="0 0 508.546 508.546"><defs><clipPath id="a"><circle cx="179.8" cy="179.8" r="179.8" transform="translate(0.593 228.305) rotate(-45)" fill="#5b5b5b"/></clipPath></defs><g transform="translate(-0.593 25.968)"><path d="M219.7,117.8h1.9s1.1-10,2.8-15.9c1.7-5.8,4.2-15.6,6.6-19.8s10.1-18.3,10.1-18.3a51.435,51.435,0,0,0-5.2,6.3A101.369,101.369,0,0,0,224.3,95,117.5,117.5,0,0,0,219.7,117.8Z" fill="#8bb73f"/><path d="M235,72.9s4.5-6.2,9.4-7.2,3.1,1.9-.4,4.3S234.4,73.7,235,72.9Z" fill="#8bb73f"/><path d="M227.9,87a19.407,19.407,0,0,1,7-6.4c4.5-2.3,8.6-6,9.8-4.3s-3.4,6.6-7.8,7.8a44.119,44.119,0,0,0-9.1,4.1V87Z" fill="#8bb73f"/><path d="M224.7,96.6s1.2-3.3,5.7-5.8c4.5-2.4,11.1-5.2,12.4-3.5,1.3,1.6.9,3-2.9,4.4s-9.6,2.2-11.6,3.5c-2,1.4-3.6,2.5-3.6,2.5V96.6Z" fill="#8bb73f"/><path d="M222.5,107.3s3.1-3.2,5.4-5.4c2.3-2.1,12.6-7.4,13.1-5.6.5,1.7-7.7,7.6-10.7,8.7a71.847,71.847,0,0,0-7.8,4.1Z" fill="#8bb73f"/><path d="M229.8,82.1s1.3-1.8,1.4-7.4-.3-10.7-2.1-10.3c-1.9.4-.9,6.3-1.1,8.6a82.208,82.208,0,0,0,0,8.6,23.135,23.135,0,0,0,.7,4.3Z" fill="#8bb73f"/><path d="M225.3,95.4s.7-6.7,0-10.9-1.1-5-1.4-8.2-.6-3.8-1.9-2.3-.7,7.9,0,11.2.7,5.8,1.1,8.1a15.5,15.5,0,0,0,1.6,4.4Z" fill="#8bb73f"/><path d="M221.2,103.7s-3.5-5.4-4.1-8.4-1.5-7.3-3-7-.8,6.8,1.1,10.4,2,4.7,4.1,6.3a10.474,10.474,0,0,1,2.9,2.9Z" fill="#8bb73f"/><path d="M146.3,299.2l1.2-1.5a133.036,133.036,0,0,1-10.8-12c-3.6-4.9-9.7-12.9-11.6-17.4-1.8-4.5-8.2-19.2-8.2-19.2a42.412,42.412,0,0,0,1.8,8,93.369,93.369,0,0,0,12.5,24.4A113.693,113.693,0,0,0,146.3,299.2Z" fill="#7be7ff"/><path d="M120.3,259.5s-2.1-7.4.1-11.8c2.2-4.5,3.4-1.3,3.1,2.9C123.3,254.9,120.6,260.5,120.3,259.5Z" fill="#7be7ff"/><path d="M127.1,273.8a18.91,18.91,0,0,1-.7-9.4c1-5,.5-10.5,2.7-10.4s3.1,6.8,1.4,11a43.023,43.023,0,0,0-2.3,9.7Z" fill="#7be7ff"/><path d="M132.7,282.2a12.177,12.177,0,0,1-1.1-8c.8-5,2.8-11.9,4.8-12,2.1,0,2.9,1.1,1.7,5-1.2,3.8-4.2,8.9-4.3,11.3-.2,2.4-.3,4.4-.3,4.4Z" fill="#7be7ff"/><path d="M139.8,290.5s-.6-4.4-.9-7.5,2-14.5,3.6-13.8c1.7.7,1.2,10.7.3,13.8a74.506,74.506,0,0,0-1.6,8.7Z" fill="#7be7ff"/><path d="M124.4,269.3s-.6-2.1-4.9-5.6-8.6-6.3-9.4-4.6,4.4,4.6,6.1,6.2a78.551,78.551,0,0,0,6.8,5.3,24.092,24.092,0,0,0,3.8,2.1Z" fill="#7be7ff"/><path d="M132.1,281s-4.9-4.7-8.6-6.7-4.6-2.2-7.3-4-3.4-1.9-3,.1,5.8,5.4,8.8,6.9c3,1.4,5,3,7.1,4.1a14.89,14.89,0,0,0,4.4,1.4Z" fill="#7be7ff"/><path d="M136.1,289.4s-6.4-.5-9.1-1.9-6.7-3.3-7.3-1.9c-.7,1.4,4.9,4.8,8.8,5.6,4,.8,5,1.3,7.5.6a11.464,11.464,0,0,1,4.1-.5Z" fill="#7be7ff"/><path d="M101.3,217.8a90.089,90.089,0,0,1-6.2-8.2c-2.2-3.5-6.1-6-8.2-4.9s-9.1,5.9-15.3,5.4c-6.1-.5-9.2-1.6-10.7-3.2l-1.5-1.6a20.477,20.477,0,0,0,8.5-2.6c3.6-2.3,2.2-6.3-1.8-4.7s-8.4,3.9-11.8,2.4a23.541,23.541,0,0,1-5.7-4s7.6-.7,10.9-2.4,2.9-4.6-1.7-3.6-10.5,4.1-13.5-.9-1.8-12.7-1.8-12.7,2.6,3.8,6.5,4.9,7.2-.5,5.8-2.5c-1.4-2.1-9.8-2.8-11.2-6.2s-1.5-10.9-1.8-12.4c0,0,5.1,1.1,8.1-.2s7.5-3.6,8.8-1.1-.9,7.5.2,9.7,4.6,3.9,5,.6-2-8.9-2-8.9,6.2-3.6,9.6-.8,1.8,6.2,1.7,10.3c-.1,4,1.2,6.3,2.5,5.2s3.1-3.4,2.3-6.3a34.489,34.489,0,0,1-1-5.5s8.1.6,9.1,5.8-3.1,9.5-1.7,12.9,3.2,2.5,4.2.7,1.4-4.7,3.2-5.5l1.8-.8a17.518,17.518,0,0,1,1.7,13.6c-2.2,7.7-5.9,11.3-5.9,11.3s2.3,1.1,5.9,5a92.26,92.26,0,0,1,8,10.1C103.7,217.1,101.3,217.8,101.3,217.8Z" fill="#ffd230"/><path d="M90.8,205.2c-2.8-4.5-6.9-5.5-11.3-8-4.9-2.8-5.8-9-10.3-12.5-2.1-1.6-4.4-2.8-6.5-4.4-2.6-1.9-4.1-4.6-6.4-6.7a11.575,11.575,0,0,0-4-2c-4.7-1.9-7.7-4.7-9.1-9.9-.1-.3-.5-.2-.4.1a14.381,14.381,0,0,0,7.5,9.5c1.9.9,3.9,1,5.6,2.6a41.918,41.918,0,0,1,2.6,3.3,24.255,24.255,0,0,0,4.9,4.2c2.5,1.7,5.1,3.1,7.3,5.2,2.2,2.2,2.6,5.1,4.4,7.6,4,5.3,11.3,5.2,15.1,11.1.3.4.7.2.6-.1Z" fill="#83b6b1"/><path d="M71,185.7c-3.2-3.5-2.3-6.9-1.3-11.1a7.312,7.312,0,0,0,0-3.6c-.7-3.1-1.5-4.9-1.1-8.4a18.3,18.3,0,0,0,.3-4.7c0-.3-.5-.2-.4.1.4,2.9-1,5.5-.6,8.3.2,1.2.7,2.2,1,3.4.6,2.6.1,4.5-.4,7a9.465,9.465,0,0,0,2.3,9.2c.1.3.4,0,.2-.2Z" fill="#83b6b1"/><path d="M43.8,185.4c2.3,2.2,5.4,4.2,8.8,3.7a10.376,10.376,0,0,0,3.7-1.7c3.9-2,7.8-2.1,12-2.5a.251.251,0,0,0,0-.5c-3.3.3-7,.2-10.1,1.4-1,.4-1.8,1.1-2.8,1.6-4.7,2.1-7.9.8-11.2-2.3-.3-.2-.7.1-.4.3Z" fill="#83b6b1"/><path d="M50.7,196.4c2.7,1.8,7.1,1.4,10.2.9,5.3-.8,6.7-6.5,13.1-5.2.3.1.4-.4.1-.4a9.174,9.174,0,0,0-7.8,1.8c-2.3,1.8-3.7,3-6.8,3.4-2.5.3-6.5.5-8.6-.9-.2-.2-.4.2-.2.4Z" fill="#83b6b1"/><path d="M62,206.4a14.348,14.348,0,0,0,10.2-.2c4.2-1.5,7.6-5.5,12.4-5,.3,0,.3-.4,0-.5-3.1-.3-5.3.9-7.8,2.5-4.6,2.9-9.4,4.5-14.7,2.7a.257.257,0,0,0-.1.5Z" fill="#83b6b1"/><path d="M85,200.4c-8-5-3.9-12.3-5.2-19.7a9.16,9.16,0,0,1,1-6.3c.8-1.6,1-.9,1.5-2.6.8-2.5.1-5.1-.5-7.5-.1-.3-.5-.2-.4.1.9,3.7.8,6.3-1,9.8-.6,1.1-1.3,1.4-1.6,2.7-.3,1.5.3,2.6.6,4a18.446,18.446,0,0,1-.1,7.4,11.628,11.628,0,0,0,5.5,12.5c.2.2.5-.2.2-.4Z" fill="#83b6b1"/><path d="M307,118.8s-8,2.5-9.8-1.7,1.1-11.4,5.1-17.1,14.1-10.5,18-19,8.7-19.4,16.6-22.2,22.6-6.6,28.5-8.6a23.564,23.564,0,0,1,11.2-.9s-13,14.7-13.9,25-7.3,29.4-15.5,36-9.9,7.8-17.7,10.4-11.2,13.5-16.4,9.8c-5.1-3.7-4-10.5-4-10.5l-10.9,13.4-1.8-3.9Z" fill="#8bb73f"/><path d="M373.2,49.6c-14.4,6.1-23.6,18.9-31.6,31.8-2.7,4.3-5.3,8.8-9.6,11.6-2.7,1.8-5.9,2.8-8.6,4.8-6.5,4.9-10.4,14.1-14.6,20.9-.3.4.4.8.6.4,4.7-7.6,9.1-17.9,17.1-22.3,6.1-3.3,10.2-6.4,13.9-12.3,8.7-13.6,17.5-27.6,33-34.2.6-.3.2-.9-.2-.7Z" fill="#fad15b"/><path d="M327.4,107.9a18.005,18.005,0,0,1,5.2.4c.4.1,1.6.2,1.9.5.7.1.6.3-.2.7a1.613,1.613,0,0,1-1.8.6c-3,.4-6.5-.2-9.5-.5,0,.2.1.5.1.7,2.3-.8,8.7-2.6,10.8-.3l.3-.6a41.986,41.986,0,0,1-11.2-.7v.7a25.216,25.216,0,0,1,6.1-1.1c1,0,6.6-.1,4.6,1.7-1.1,1-11.7-.7-11.7-.3.1-.5-.7-.7-.7-.2v.3c0,.3.1.4.4.5,1.8.2,13.9,2.4,14.2-.9.3-3.5-11.3-1.2-12.9-.7a.365.365,0,0,0,0,.7,48.573,48.573,0,0,0,11.4.7c.3,0,.5-.4.3-.6-2.3-2.6-8.8-.9-11.6.1a.358.358,0,0,0,.1.7,56.527,56.527,0,0,0,10.1.5c1.3-.1,3.2,0,3.7-1.4a.6.6,0,0,0-.1-.4c-2.3-1.9-6.4-2.1-9.3-2-.7.2-.7.9-.2.9Z" fill="#fad15b"/><path d="M338.3,97.5a7.388,7.388,0,0,1,4.3-1.2c.6,0,2.2.1,1.7,1.2-.1.3-2,.4-2.3.4a86.178,86.178,0,0,1-8.7,1.1c.1.2.1.5.2.7a19.2,19.2,0,0,1,11-2c-.1-.2-.1-.5-.2-.7-2.7,1.7-6.7,1.4-9.8,1.5.1.2.1.5.2.7a16.529,16.529,0,0,1,4.4-1.6c.7-.1,1.5-.2,2.3-.3.4,0,3.4-.3,3.3-.3-.5-.2-.6.6-.2.7h.1c.2.1.3,0,.4-.2a.1.1,0,0,1,.1-.1.44.44,0,0,0-.1-.5c-1.3-.8-3.8-.5-5.2-.3a18.674,18.674,0,0,0-5.5,1.8.379.379,0,0,0,.2.7c3.2-.1,7.3.2,10.2-1.6a.379.379,0,0,0-.2-.7,20.45,20.45,0,0,0-11.4,2.1.379.379,0,0,0,.2.7,77.071,77.071,0,0,0,8.4-1c.9-.1,3.8-.1,4.1-1.5.3-1.1-1.2-1.4-2-1.5a8.546,8.546,0,0,0-6,1.2c-.3.3.1,1,.5.7Z" fill="#fad15b"/><path d="M316.9,92.2a19.632,19.632,0,0,1-2,7.9c.2,0,.3-.1.5-.1-.7-.5.3-3.4.5-4.1a16.821,16.821,0,0,1,1.6-3.9c-.2-.1-.5-.1-.7-.2.2,2.4-.6,5.9-2.3,7.6a2.092,2.092,0,0,1,.6.4c.3-1.8.7-3.6,1.1-5.4.1-.5-.6-.7-.7-.2-.4,1.8-.8,3.6-1.1,5.4-.1.3.3.7.6.4a11.044,11.044,0,0,0,2.5-8.2c0-.3-.5-.6-.7-.2a26,26,0,0,0-2.1,5.9c-.2,1-.7,2.4.3,3.1a.44.44,0,0,0,.5-.1,19.541,19.541,0,0,0,2.1-8.2c0-.6-.7-.6-.7-.1Z" fill="#fad15b"/><path d="M326.1,84.8c-.1.7-.2,4.5-.8,2.1a13.292,13.292,0,0,1-.2-4c.1-1.1.1-3,.7-3.9,0-.9.4-1.1,1.2-.5a12.252,12.252,0,0,1,.2,1.9c.1.8.4,7-1.6,5.9-.6-.3-.1-3.8,0-4.2a10.633,10.633,0,0,1,1.2-3.4c-.2,0-.5-.1-.7-.1a16.912,16.912,0,0,1-.7,9.2c.2,0,.5-.1.7-.1a7.79,7.79,0,0,1-.5-4.3c0-.5.5-4.5,1.1-4.5.5,0,.5-.7,0-.8-1.5,0-1.6,3.1-1.7,4-.3,2-.6,4.1.4,5.9a.388.388,0,0,0,.7-.1,18.457,18.457,0,0,0,.7-9.6.388.388,0,0,0-.7-.1,13.578,13.578,0,0,0-1.5,5.9c0,.9,0,3.1,1,3.5,2.7,1.1,2.3-6.7,2.2-7.7-.2-1.9-1.3-5.2-2.6-1.9a16.542,16.542,0,0,0-.9,7.3c.1,1.2,0,2.9,1.2,3.4a.6.6,0,0,0,.4-.1c.9-.8.8-2.8.9-3.9.1-.3-.6-.3-.7.1Z" fill="#fad15b"/><path d="M344.8,88.1a18.589,18.589,0,0,1,4.3-2,6.9,6.9,0,0,1,2.5-.4q.75-.3.9.3c.4.4.2.6-.7.6a28.978,28.978,0,0,1-4.2,1.2c-1.7.5-3.3,1-5,1.5.1.2.2.5.3.7,1.3-.6,2.6-1.1,3.9-1.7,1.4-.6,3.1-1.8,4.6-1.6,0-.2-.1-.5-.1-.7a20.59,20.59,0,0,1-7.2,2.5c.1.2.2.5.3.7a20.4,20.4,0,0,1,6.1-3c.5-.1.3-.9-.2-.7a20.048,20.048,0,0,0-6.2,3.1c-.4.3-.1.7.3.7a20.919,20.919,0,0,0,7.4-2.5c.3-.1.2-.6-.1-.7a5.591,5.591,0,0,0-3.3.8c-1.9.9-3.9,1.7-5.8,2.6-.4.2-.1.8.3.7,3.1-.9,6.1-1.8,9.2-2.7.8-.2,2.3-.5,2-1.6-.3-1.2-2.4-.8-3.2-.7a16.787,16.787,0,0,0-6.4,2.5c-.5,0-.1.6.3.4Z" fill="#fad15b"/><path d="M345.6,59.8A30.339,30.339,0,0,1,345,64c-.1.4-1.1,4-1.4,4-.6-.1,1.4-7.1,1.9-7.1l-.4-.4c0,1.4-.2,6.7-2.1,7.3.2.1.3.2.5.3-.8-2.1.6-5.5,1.4-7.5h-.7c.2.7.4,1.3.6,2,.1.5.9.3.7-.2-.2-.7-.4-1.3-.6-2a.365.365,0,0,0-.7,0c-.8,2.2-2.3,5.6-1.4,7.9a.462.462,0,0,0,.5.3c1.1-.3,1.4-1.4,1.8-2.5a17.135,17.135,0,0,0,.9-5.5.43.43,0,0,0-.4-.4c-1.1,0-1.7,3.1-2,3.8-.3.9-2,4.6-.8,5.4,2.1,1.4,3.5-8.3,3.6-9.5a.4.4,0,1,0-.8-.1Z" fill="#fad15b"/><path d="M351.9,75.3a6.39,6.39,0,0,1,5.3-3l-.3-.6a6.844,6.844,0,0,1-5.7,3l.3.6a9.881,9.881,0,0,1,3.5-2.2c.4-.2.3-.9-.2-.7a9.475,9.475,0,0,0-3.8,2.4.356.356,0,0,0,.3.6,7.829,7.829,0,0,0,6.4-3.4c.2-.2-.1-.6-.3-.6a7.236,7.236,0,0,0-6,3.4c-.4.5.2.9.5.5Z" fill="#fad15b"/><path d="M403.9,58.3s.9,13.8,2.7,20.1S410.7,96,410.7,96s-3.4-11.9-8.7-14.8-8.7-9.8-8.7-9.8-1.8,12.4,2.5,18.8,6.4,4.7,9.8,9.9c3.4,5.1,6.7,12.4,7.3,12.9s.7,17.1.7,17.1-4-16.1-9.2-22.7c-5.3-6.6-10.9-11.5-14.1-16.4-3.2-5-5.8-8.5-5.8-8.5s1.2,8.7,3.4,12.8,5.6,8.7,5.9,12.5,1.1,10.8,5,13.2c4,2.4,6.3,3.4,9,5.2s6.5,9.9,7.5,11.5,2.2,9.9,2.2,9.9-9.4-10.5-14.1-13.7-7.8-8.2-10.1-13.7a60.843,60.843,0,0,0-7.1-11.6s1.2,9.3,5.3,14.1,2.3,14.7,8,21.1,8.2,8.3,13.9,11.6c5.6,3.3,5.5,3.9,7.4,7.9s4.9,26.9,4.9,26.9l5.1.5s-4.5-17.7-5.6-23.5c-1.2-5.8-.3-16.5,4.8-20.1s9.5-11.5,8.6-20.8-2.1-18.6-2.7-20.3-1.8-1.7-1.8-1.7-3,21-5.9,26.8-5.6,15.6-6.6,19.6a19.67,19.67,0,0,0-.4,7.4l-2.7-21.6a20.445,20.445,0,0,0-1.2-4.7s4.8-11.8,6.5-18,4.5-9.8,3.1-17c-1.3-7.1-2-14.8-2-14.8s-1.2,10.2-3,13.9-1.4,11.6-3.2,15.3-4.2,6.3-3.9,9.6l-.7-16.9s5.3-9.6,6.1-16.6-.3-16,.2-17.2.3-7.9.3-7.9-4.4,9.3-6.2,12.6c-1.9,3.3-3.7,13-3.5,15.7a23.668,23.668,0,0,1,.1,3.6L409,83s2.8-6.7,2.2-12.6-3.2-9.2-4.5-12.3a60.881,60.881,0,0,0-2.9-5.6Z" fill="#ffd230"/><path d="M412.3,102.4c.3-5.8,3.2-10.6,4-16.3.7-5.3,3.5-10.2,3.4-15.6,0-.4-.7-.4-.6,0,.1,5.3-2.7,10.3-3.4,15.6-.8,5.7-3.7,10.5-4,16.3-.1.4.5.4.6,0Z" fill="#c8a31e"/><path d="M394.7,75.6c5,9.6,13.4,16,17.4,26.1.2.4.8.2.6-.2a44.8,44.8,0,0,0-6.5-11.7c-1.8-2.2-4.2-3.9-5.9-6.1a64.782,64.782,0,0,1-5.1-8.4c-.1-.4-.7-.1-.5.3Z" fill="#c8a31e"/><path d="M412.4,98.6c-1.7-7.1-5-15.7-4.1-23,.7-5.7-2.5-10.4-2.1-16a.3.3,0,0,0-.6,0c-.2,2.9.5,5.1,1.4,7.8,1.2,3.8.5,7,.5,10.9,0,6.6,2.9,14,4.4,20.4,0,.5.6.3.5-.1Z" fill="#c8a31e"/><path d="M415.1,128.2c2-5.2,4.8-9.6,6.5-15,.7-2.3,1.6-4.6,2.1-7,.6-2.7-.2-6.6,1.1-8.9a.335.335,0,0,0-.6-.3c-.9,1.7-.8,2.8-.8,4.6,0,3.5-.9,6.5-1.9,9.9-1.8,5.9-4.8,10.9-7,16.7-.1.2.5.4.6,0Z" fill="#c8a31e"/><path d="M386.3,86.4c-.1,3.5,1.6,5.9,3.5,8.7,2.8,4.4,5.7,8.8,8.6,13.2,4.7,7.3,9.3,14.7,15.3,21.1.3.3.7-.2.5-.5-5.6-5.9-9.8-12.6-14.2-19.4-2.1-3.3-4.2-6.5-6.4-9.8-2.5-3.9-6.8-8.6-6.6-13.4,0-.3-.7-.3-.7.1Z" fill="#c8a31e"/><path d="M422.6,157.6c-.2-7,3.5-10.8,7.4-16.2a12.934,12.934,0,0,0,2.9-7.5c0-1.6-.7-2.9-.9-4.4-.5-3,.6-5.8,1.7-8.6,1.5-3.8,1.5-8,1.5-12,0-.4-.7-.4-.6,0a46.583,46.583,0,0,1-.2,6.5c-.4,3.4-2,5.7-3,8.9-1.1,3.4.6,6.1.7,9.6.1,5.6-4.5,8.9-7.3,13.3a18.235,18.235,0,0,0-2.7,10.4c-.1.4.6.4.5,0Z" fill="#c8a31e"/><path d="M388.6,111.8q4.35,9,7.8,18.3c1.2,3.3,2.2,7,4.8,9.5a11.728,11.728,0,0,0,3,1.9c3.8,1.6,6.5,2.5,8.9,6.3,2.3,3.5,4.3,6.4,7.9,8.8.3.2.7-.3.3-.6-4.4-3-6.1-7.1-9.3-11-2.7-3.3-6.8-2.9-9.9-5.5-4-3.4-5.2-9.9-7.1-14.6-1.8-4.5-3.8-9-5.9-13.4-.1-.4-.7-.1-.5.3Z" fill="#c8a31e"/><path d="M413.7,127.5c1.9,8.5,3.8,16.9,5.8,25.4,1.6,7.1,2.9,14.4,6,21.1.2.4.7,0,.6-.3-3.3-7.2-4.6-15.1-6.4-22.8-1.8-7.8-3.6-15.7-5.3-23.5-.2-.5-.8-.4-.7.1Z" fill="#c8a31e"/><path d="M145.9,74.8s-4.7,6.8-9.1,9-11,4.5-14.7,15.4-1.2,14.1-3.4,18.6a175.015,175.015,0,0,0-8.8,19.7c-3.3,9.3-2.3,14.8-1.4,20.4s-3.6,8.4,2.5,13.8,9.1,6,11.3,9,11.1,13.2,11.1,13.2l3.9,1.2a76.983,76.983,0,0,1-6.2-6.6c-1.7-2.3-8.9-8.5-9.3-12.1-.5-3.5,3.8-9,5.6-20.2s-.4-10.3,3.7-16.2c4-5.8,4-10.7,4.9-16.3s3.2-4.6,5.4-11.8c2.2-7.3.1-19.9,2.1-25.3A60.308,60.308,0,0,0,145.9,74.8Z" fill="#7be7ff"/><path d="M144.2,75.4c.7,7.6-2.4,12.9-7,18.7-2.8,3.5-5.9,7.3-6.4,11.9a24.129,24.129,0,0,0,.4,5.4,15.553,15.553,0,0,1-2.6,11.1c-2.4,3.9-4.2,7.2-4.7,11.9-.3,3-.3,5.9-.8,8.9-.6,3.4-2.4,6.2-3.6,9.4-1.7,4.6-.8,9.2.2,13.8,2.1,10,5.4,18.4,13.9,24.6.3.2.6-.3.3-.5-9.7-7.1-14.9-20.6-14.7-32.5.1-5.4,3.8-9.6,4.7-14.8,1-6.1.2-11.9,3.5-17.5,1.8-3,4.2-6,4.8-9.5a17.474,17.474,0,0,0-.2-5.1c-.6-4.5-.2-8.1,2.3-12,5.2-8.1,11.6-13.3,10.7-23.8-.2-.4-.8-.4-.8,0Z" fill="#83b6b1"/><path d="M127.3,111.2c-1.2-2.6-2.2-5.5-3.9-7.8-.2-.3-.8,0-.5.3,1.7,2.2,2.7,5.2,3.9,7.8.1.4.6,0,.5-.3Z" fill="#83b6b1"/><path d="M137.8,105.8a11.433,11.433,0,0,1-3.2.7c.1.2.1.4.2.6a8.187,8.187,0,0,1,4-1,.3.3,0,0,0,0-.6,9.16,9.16,0,0,0-4.3,1.1c-.3.1-.1.6.2.6a9.828,9.828,0,0,0,3.4-.7c.2-.3.1-.9-.3-.7Z" fill="#83b6b1"/><path d="M127.3,98.6a4.957,4.957,0,0,1-.8-2.6c-.2.1-.4.1-.6.2a13.611,13.611,0,0,1,1.6,4.8c.2-.1.4-.1.6-.2-.3-1.1-.7-2.2-1-3.3-.1-.4-.7-.2-.6.2.3,1.1.7,2.2,1,3.3.1.4.7.2.6-.2a14.3,14.3,0,0,0-1.7-4.9c-.1-.3-.6-.2-.6.2a7.045,7.045,0,0,0,.9,2.9.363.363,0,0,0,.6-.4Z" fill="#83b6b1"/><path d="M132.8,96.3c-.1-1.5-.1-3-.1-4.4a.3.3,0,0,0-.6,0,31.956,31.956,0,0,0,.1,4.4c0,.4.7.4.6,0Z" fill="#83b6b1"/><path d="M127.5,119.6c-1.2-1.9-2.4-3.8-3.6-5.6l-.4.4a8.365,8.365,0,0,1,3.2,4.2c.2-.1.3-.2.5-.3a16.284,16.284,0,0,1-2.3-3.5c-.2-.4-.7,0-.5.3a22.548,22.548,0,0,0,2.4,3.6.3.3,0,0,0,.5-.3,9.982,9.982,0,0,0-3.5-4.6c-.3-.2-.6.2-.4.4,1.2,1.9,2.4,3.8,3.6,5.6.2.4.7.1.5-.2Z" fill="#83b6b1"/><path d="M137,114c-1.2.8-2.3,1.6-3.5,2.4-.3.2,0,.8.3.5,1.2-.8,2.3-1.6,3.5-2.4.4-.2,0-.7-.3-.5Z" fill="#83b6b1"/><path d="M133.6,122.4a7.066,7.066,0,0,0-2.5,1.1c-.3.2,0,.8.3.5a5.134,5.134,0,0,1,2.4-1c.4-.1.2-.7-.2-.6Z" fill="#83b6b1"/><path d="M133.8,127.4a5.827,5.827,0,0,0-4.3.2c-.3.2-.1.7.2.6a12.85,12.85,0,0,1,3.4-.7.3.3,0,0,0,0-.6,22.879,22.879,0,0,0-3.7.1c-.4,0-.4.7,0,.6,1.2-.1,2.5-.1,3.7-.1v-.6a15.278,15.278,0,0,0-3.6.7,1.421,1.421,0,0,1,.2.6,4.6,4.6,0,0,1,3.8-.2c.5.2.7-.4.3-.6Z" fill="#83b6b1"/><path d="M122.6,126.5c-1-2.2-1.9-4.3-3-6.4a2.186,2.186,0,0,0-.5.3,37.676,37.676,0,0,1,3.2,7.1,1.421,1.421,0,0,1,.6-.2c-.8-1.2-1.6-2.5-2.4-3.7-.2-.3-.7,0-.5.3.8,1.2,1.6,2.5,2.4,3.7.2.3.7.1.6-.2a39.446,39.446,0,0,0-3.2-7.3c-.2-.3-.7,0-.5.3,1,2.1,2,4.3,3,6.4-.1.4.4.1.3-.3Z" fill="#83b6b1"/><path d="M119.7,130.8a12.285,12.285,0,0,0-2.5-2.6,2.186,2.186,0,0,1-.3.5,8.408,8.408,0,0,1,3.3,3.7,1.756,1.756,0,0,0,.5-.4c-1.4-1.2-2.7-2.4-4-3.6-.3-.3-.7.2-.4.4a44.822,44.822,0,0,0,4,3.6.333.333,0,0,0,.5-.4,9.445,9.445,0,0,0-3.5-3.9c-.3-.2-.6.3-.3.5a8.415,8.415,0,0,1,2.2,2.4c.2.4.7.1.5-.2Z" fill="#83b6b1"/><path d="M129.7,134.2a19.268,19.268,0,0,1-2.4-.1c.1.2.1.4.2.6a5.338,5.338,0,0,1,2.5-.5v-.6a13.524,13.524,0,0,0-2.9.4c-.4.1-.2.7.2.6a12.606,12.606,0,0,1,2.8-.4.3.3,0,0,0,0-.6,4.612,4.612,0,0,0-2.8.6c-.3.1-.1.6.2.6a19.267,19.267,0,0,1,2.4.1c.2-.1.2-.7-.2-.7Z" fill="#83b6b1"/><path d="M119.7,139c-1.1-1-2.1-2.1-3.2-3.1-.3-.3-.7.2-.4.4,1.2,1.2,2.4,2.3,3.6,3.5l.4-.4c-1.6-1.6-3.3-3.1-4.9-4.7-.3-.3-.7.2-.4.4,1.6,1.6,3.3,3.1,4.9,4.7.3.3.7-.2.4-.4-1.2-1.2-2.4-2.3-3.6-3.5l-.4.4c1.1,1,2.1,2.1,3.2,3.1a.285.285,0,1,0,.4-.4Z" fill="#83b6b1"/><path d="M127.2,141.9a3.415,3.415,0,0,0-2.4.7c-.3.2.1.7.4.4a3.292,3.292,0,0,1,1.9-.6c.5.1.5-.5.1-.5Z" fill="#83b6b1"/><path d="M125.2,149.2c-.6.2-1.3.4-1.9.6-.4.1-.2.7.2.6.6-.2,1.3-.4,1.9-.6.4-.2.2-.8-.2-.6Z" fill="#83b6b1"/><path d="M118.4,148.2a13.26,13.26,0,0,1-4.2-4.9l-.4.4a13.264,13.264,0,0,1,4.5,4.9l.4-.4a19.381,19.381,0,0,1-6.6-5.8l-.4.4a12.446,12.446,0,0,1,4.5,3.7c.2.3.8,0,.5-.3a11.9,11.9,0,0,0-4.7-3.9c-.2-.1-.6.1-.4.4a20.629,20.629,0,0,0,6.8,6c.3.1.6-.1.4-.4a13.543,13.543,0,0,0-4.7-5.1c-.3-.2-.5.2-.4.4a12.786,12.786,0,0,0,4.4,5.1c.3.2.6-.3.3-.5Z" fill="#83b6b1"/><path d="M115.5,153.8a21.6,21.6,0,0,0-4.3-2.9.292.292,0,1,0-.3.5,18.954,18.954,0,0,0,3.3,2.2c.3.2.6-.3.4-.5a23.489,23.489,0,0,0-3.2-2.3c-.3-.2-.7.3-.3.5a34.571,34.571,0,0,1,3.1,2.2,1.756,1.756,0,0,1,.4-.5c-1.1-.7-2.2-1.4-3.3-2.2a2.186,2.186,0,0,1-.3.5,23.624,23.624,0,0,1,4.2,2.8c.1.4.6-.1.3-.3Z" fill="#83b6b1"/><path d="M123.6,156.1c-.4.2-.8.3-1.3.5-.4.1-.2.7.2.6.4-.2.8-.3,1.3-.5.3-.1.2-.7-.2-.6Z" fill="#83b6b1"/><path d="M115.3,163.5a9.214,9.214,0,0,0-4.5-2c-.4-.1-.6.5-.2.6a8.974,8.974,0,0,1,4.2,1.9c.4.2.8-.2.5-.5Z" fill="#83b6b1"/><path d="M371.2,224.4s-6.3-7.1-14.3-7.7c-8-.5-8.4-.5-12.3-2.1-3.9-1.5-6.4,1.9-15.7,1s-17.4-3.3-23.6-3.8a42.239,42.239,0,0,1-8.5-1.4,93.187,93.187,0,0,0,24.5-6.6c12.1-5.3,19.6-3.9,24.5-1.7,5,2.2,8.7,2.4,12.4,6,3.8,3.6,11.8,8.8,11.8,8.8s-16.3-19.8-18-30.1-3.5-10-3.1-18.6,2.7-12,2.6-20.9.5-17.9.6-18.4c.1-.6,8.7,11.9,8.9,18s5.8,14.3,8.2,18.9a24.4,24.4,0,0,1,2.1,15.1c-.9,4.6-.7,11.5,1,18.1s.9,17.3.9,17.3,5.3-9.4,4.4-18.6.3-25.2,3.9-31.5,4.1-11.6,6.8-16.5c2.6-4.9,3.8-6.3,5.9-10.4a112.562,112.562,0,0,1,6-10.1s-3.6,24.8-2.3,29.8c1.4,5,1.5,13.8-1,19.6s-2.3,7-6.5,13c-4.1,6-2.6,6.3-6.5,12.3a101.453,101.453,0,0,1-7.4,10.4,6.909,6.909,0,0,0-.9,2.8s4.5-4.8,7.5-6.1,9.5-5.2,12.6-11.8c3-6.6,6.4-13.9,13.6-16.9s10.5-3,14.4-6.3,3.6-5.1,8.1-6.2c4.5-1,10.5-3,10.5-3s-3.5,8.5-9.6,14.4-8.1,5.6-11.9,11.1-6.4,11.4-14.4,14.6-8.4,3.2-15.1,5.4c-6.7,2.3-7,3.2-10.1,4.9-3,1.7,5.5,3.8,11.9,3.5s16-4.1,25.5-5.1c9.4-1,11.6-.9,18.4,1.8,6.9,2.7,5.9,1.4,12.2,1.6s6.8,1.7,6.8,1.7-10,7-18.5,9.2c-8.4,2.2-21.9,7.1-29.4,4.9s-10.9-.6-15.8-4.7c-4.8-4.1-6.3-6-9.2-6.7-2.8-.7-7.1-2.3-8-1.3a1.929,1.929,0,0,0-.3,2s3.1,3.7-1.2,7.5-8.2,8.7-9.7,11.8-2,4-2,4l-3.5-6.1s3.2-3.8,5.6-5.2a36.255,36.255,0,0,0,8-6.8C373.5,227.7,371.2,224.4,371.2,224.4Z" fill="#8bb73f"/><path d="M352.8,130.7c2.5,5,3.6,9.2,3.1,14.7a43.391,43.391,0,0,0,.2,10.8c.7,4.1,2.1,8.1,3.1,12.2.9,3.6,1.2,7.2,2.2,10.8a38.746,38.746,0,0,0,3.7,8c2.8,4.9,3.1,9.2,2.9,14.6a41.756,41.756,0,0,0,4.3,20.3.361.361,0,1,0,.6-.4,39.491,39.491,0,0,1-4.2-14.7c-.3-4.2.6-8.5,0-12.6-1-6.8-6.1-11.9-7.4-18.8-1.5-8.2-5-16.5-5.2-24.9-.1-3.7,1-7.4.5-11-.4-3.4-1.9-6.5-3.4-9.5,0-.3-.6.1-.4.5Z" fill="#f1f1f1"/><path d="M373.8,222.9a76.11,76.11,0,0,1,2.2-12.5c1.5-4.9,4-8,6.9-12,3.7-5,3-10.2,3.5-16.1.8-8.2,3.7-16.5,5.7-24.5,2.2-8.7,4.5-17.3,8.2-25.5.2-.4-.4-.8-.6-.4a134.558,134.558,0,0,0-7.8,24c-2,8.1-4.8,16.3-5.9,24.6-.5,3.9,0,8-.9,11.8-1,4.4-4.3,7.1-6.6,10.7-3.8,5.9-4.6,13.1-5.4,19.9-.1.5.7.5.7,0Z" fill="#f1f1f1"/><path d="M376.6,212.6c1.6-4.3,5.7-5.1,8.2-8.5,2.3-3.1,3.3-6.9,5-10.3s4.7-6,6.3-9.5c1.8-4.1.1-8.7,1.9-12.8.2-.4-.5-.8-.6-.4-1.7,3.8-.4,7.7-1.5,11.6-1.3,4.4-5.4,7.8-7.3,12-1.8,4-3,8.4-6.6,11.2-3.1,2.4-4.7,2.8-6.1,6.6-.2.4.5.6.7.1Z" fill="#f1f1f1"/><path d="M385.4,164.2c-2.6,2.9-2.9,6.5-3.3,10.2-.7,6.4-1.2,12.8-1.7,19.3,0,.5.7.5.8,0,.4-4.5.7-9,1.2-13.5.5-5,0-11.5,3.7-15.4a.48.48,0,0,0-.7-.6Z" fill="#f1f1f1"/><path d="M353.9,177.9c.4,5.9,4.3,9.7,7.2,14.6,2.5,4.3,2.2,10,5.7,13.7.3.3.9-.2.5-.5-3.1-3.2-2.8-8.2-4.8-12-2.7-5.4-7.4-9.2-7.9-15.7,0-.6-.7-.6-.7-.1Z" fill="#f1f1f1"/><path d="M366.3,167.7c-.4,6,3.4,11.6,2,17.6-.1.5.6.7.7.2,1.5-6.1-2.4-11.7-2-17.8.1-.5-.7-.5-.7,0Z" fill="#f1f1f1"/><path d="M380,218.5c2.3-7.8,11.7-6.9,17.7-10,6.2-3.3,4.5-11,9.9-14.6,2.2-1.5,5-2.1,7.4-3.4a33.285,33.285,0,0,0,6.3-4.9c4.7-4.4,8.9-9.4,15.4-10.9.5-.1.3-.8-.2-.7-5.8,1.3-9.7,5.3-13.8,9.3-2.8,2.7-5.7,5.5-9.2,7.2-2.4,1.2-5.3,1.8-7.4,3.7-2,1.8-2.6,4.1-3.3,6.5-2,6.1-6,7.9-11.8,9.4-4.9,1.3-10,3-11.6,8.3-.2.4.5.6.6.1Z" fill="#f1f1f1"/><path d="M408,199.2c-1.6,2.7-2,7.3-5.7,8-.5.1-.3.8.2.7,4-.8,4.3-5.5,6.1-8.4.3-.3-.3-.7-.6-.3Z" fill="#f1f1f1"/><path d="M379.1,221.2c10.8,1.1,21.3,4.5,31.8,7.1,9.2,2.3,16.7-.6,25.6-3.2.5-.1.3-.9-.2-.7-4.7,1.3-9.5,3-14.3,4-5.6,1.1-10.9-.8-16.3-2.2-8.8-2.3-17.6-4.8-26.7-5.8-.4,0-.4.8.1.8Z" fill="#f1f1f1"/><path d="M403.1,223.8a53.559,53.559,0,0,1,16.4-2.1c4.6.1,8.9,1.1,13.4-.1.5-.1.3-.8-.2-.7-5.5,1.5-11.1-.1-16.7.1a57.767,57.767,0,0,0-13.1,2.1c-.4.1-.2.8.2.7Z" fill="#f1f1f1"/><path d="M397.4,229.7a32.807,32.807,0,0,1,6.1,1.8c.5.2.6-.6.2-.7a32.808,32.808,0,0,0-6.1-1.8c-.5-.1-.7.6-.2.7Z" fill="#f1f1f1"/><path d="M372.5,222.2c-7.7-6-17-11.3-26.6-13.5-3.9-.9-7.6-.3-11.4.2-6.4.9-12.7,1.8-19.1,2.7-.5.1-.3.8.2.7l15.3-2.1c5.7-.8,10.9-1.8,16.5-.3,9,2.5,17.4,7.4,24.8,13,.3.2.7-.4.3-.7Z" fill="#f1f1f1"/><g clip-path="url(#a)"><path d="M145.8,269H97.5l34.9,127,76,3.5V384.4l-48.4-2L157,277Z" fill="#0d0f47"/><path d="M157.1,311.9s-16.3,60.2,0,71.7c16.3,11.6,45,7.5,45,7.5L254.4,502,239.8,383.3s48.4,27,65.6,43.3c21.3,20.2,57.6,52.3,57.6,52.3s-47.4-114.2-73.5-123.2A371.766,371.766,0,0,0,241,342.6l4.5-30.7H157.1Z" fill="#5b5b5b"/><path d="M154.5,166s-6.2-1.1-13.3,4.4c-7.2,5.5-9.7,11.4-4.3,16.3s10.3,9.9,4.8,13.1c-5.4,3.2-8.9.6-17.9,8.2s-10,21.9-.5,31.1c9.5,9.1,31.2,5.5,32.1,5.2s17.3-23.9,17.3-23.9l-10.4-52.3" fill="#353535"/><path d="M156.4,162.4s-1.1-5.4-6.5-4.8-8,13.3-3.1,16.1,8.9-2.3,8.9-2.3,6.5,21.2,7.3,28.9c.8,7.8.6,24,.6,24s18.8,10.9,30.1,8.5,17.6-10.9,13.6-11.3c-4.1-.4-17.9-1.3-17.9-1.3L172.6,188s30.6-1.7,33.5-4.7c2.8-3,1.8-46.2-15.1-49.3S150.2,139.7,156.4,162.4Z" fill="#e69482"/><path d="M191.4,145.4l2.1,17.6c1.7,4.7,3.2,7.8,3.2,7.8s-5-.5-6.5-3C188.8,165.3,189.1,147,191.4,145.4Z" fill="#b9604d" opacity="0.49"/><path d="M219.2,154" fill="#ff6245"/><path d="M175.4,155.4a5.891,5.891,0,0,0,5.1,3.2c3.8.1,6.7-6.5,6.7-6.5s-1.5,8.1-5.9,8.3C177,160.4,175.4,155.4,175.4,155.4Z" fill="#353535"/><path d="M195.3,150.2s1.6,4.7,4,5.2c2.3.5,1.9-6.4,1.9-6.4s2.7,6.3,0,7.4C198.5,157.6,195.2,152.5,195.3,150.2Z" fill="#353535"/><path d="M183.2,168.7s2.7,7.6,7.7,7.3c5.1-.3,7.6-1.9,7.6-1.9s-2.5,4.6-7.7,3.5C185.7,176.4,182.9,171,183.2,168.7Z" fill="#353535"/><circle cx="3.9" cy="3.9" r="3.9" transform="translate(173.5 160.8)" fill="#b9604d" opacity="0.49"/><circle cx="3.9" cy="3.9" r="3.9" transform="translate(196.1 160.3)" fill="#b9604d" opacity="0.49"/><path d="M185.4,186.5l-23.1-.8,15.4,12.5L173.5,188Z" fill="#b9604d" opacity="0.49"/><path d="M190.8,134.2s.8,6.9-10.3,14.9-24.8,11.7-24.8,11.7l-4.1-3.1s-4.3-8.7,5.1-16C166.2,134.3,186.5,130.6,190.8,134.2Z" fill="#353535"/><path d="M189.7,133.6s3.4,5.8,7,8.6c3.7,2.8,5.6,4.1,5.7,4.3S202.4,132.9,189.7,133.6Z" fill="#442269"/><path d="M163.6,224.4s-13.6,7.4-16.8,12.7-2.6,15-2.6,15,17.6,8.5,29.7,6.5,15.7,7.1,33.5,4.6c17.7-2.5,18.9-15.7,18.9-15.7s15-7.8,11.1-14.3c-3.9-6.4-17.4-13.4-30.1-11.6-12.7,1.7-15.1,2.9-15.1,2.9Z" fill="#e69482"/><path d="M144.2,247.8s2.3,48.3,10.5,60.8,18,13.9,35.1,10.7,21.7-13.9,21.7-13.9,6.4,5.4,23.6,6.4c17.2,1.1,12.2-15,12.2-15s22.2-4.3,21.1-16.1-31-47.5-31-47.5-24.1,15.4-50,13.9S144.2,247.8,144.2,247.8Z" fill="#60c8d2"/><path d="M203.1,302.1s55.1,9.1,62.1,10,19.8,2.7,19.8,2.7-70.3,10.6-88.6,5.9C178.2,316.1,188.4,299.7,203.1,302.1Z" fill="#e69482"/><path d="M266.7,286.7,291,314.5,271.2,313l-16.8-18.2Z" fill="#e69482"/><path d="M230.4,324l189-3.2v7.3l-189,4.7Z" fill="#777"/><path d="M280.4,326.8,285,496.7h-8.3l-12-164.8Z" fill="#777"/><path d="M238,326.8l6.8,169.9h-9L230.4,324Z" fill="#777"/><path d="M419.4,320.8l-3.2,170.4h-8.4L402.7,324Z" fill="#777"/><path d="M277.5,327.7,411,396.6V407s-133.7-65-133.5-66.3C277.7,339.2,277.5,327.7,277.5,327.7Z" fill="#777"/><path d="M282.3,395.8l123.2-69,5.6,9.7L277.5,410.3Z" fill="#777"/><path d="M325.8,322.4s-13.1-6.2-21.1-6.9-14.6-1.8-19.7-1.4-26.2,3.3-33,5.1c-6.8,1.7-6,2.8-8.3,4.8s-1,12.9-1,21.7c0,8.7,3.3,39.7,3.3,39.7s16.4,3.6,16.9,4.2c.5.5,1.6-57.9,4.5-60.4s13.9-6.2,17.6-6C288.7,323.2,325.8,322.4,325.8,322.4Z" fill="#7138ab"/><path d="M344.3,437.4,384.6,494l-14.7-6.9,2.2,9.6-50.2-54.8Z" fill="#44243c"/><path d="M172.5,395.9l7.8,88.6-41.7,6.7-1.5,5.5,86-1.5v-5.9L192.9,483,184,398.3Z" fill="#ffab00"/><path d="M299.4,235.3a145.905,145.905,0,0,1-8.5-13.1c-3.3-6-12.7-4.7-16.1,12-3.4,16.8-4,43.7,6.3,44,10.2.3,10.7-9.2,17.3-11.5,6.5-2.4,46.6-.6,49,2.3s7.6,44.1,3.4,44.9c-4.2.9-25.9,4.8-27.8,5.6-1.8.8-4.2,3.1-2.9,2.9,1.3-.3,61.5-1,61.5-1s-5.2-7-7.6-6.9,6.3-87.1,3.9-89.5-17-5.2-18.1-2.6c-1,2.6,1.3,12.6-3.4,12.6S301.4,238,299.4,235.3Z" fill="#353535"/><line y2="44.7" transform="translate(297.3 267.2)" fill="none" stroke="#44243c" stroke-miterlimit="10" stroke-width="1.811"/><path d="M190.8,135.2s1.8,7.7-6.1,14.8c-8,7.1-23.3,12.7-26.1,11.7a16.2,16.2,0,0,1-4.5-2.2Z" fill="#777" opacity="0.49"/><path d="M189.9,166.6s.5,1.1,3.2,1.5,3,1.2,3,1.2l1.2,2.8s-3.6,1.5-5.7-.7A6.105,6.105,0,0,1,189.9,166.6Z" fill="#442269" opacity="0.21"/><path d="M144.1,245.3a103.19,103.19,0,0,1,28.4-.9c14.3,1.7,21.7.1,35.9-1.9s26.7-12,26.7-12l4.2,5.2s-12.5,13.7-29.6,16.3-45.2-1.5-51.9,0a85.65,85.65,0,0,0-13.2,4.3Z" fill="#96d5dd" opacity="0.49"/><path d="M206.3,302.6s-3.9-3-9.7-.4-10.5,6.6-8.8,11a11.056,11.056,0,0,0,4.8,5.8s-5.9,2.3-8.9,1.2-5.5-15.9,1.6-19.1a65.435,65.435,0,0,1,11.1-4.1s-9.1-18.4-6.1-19.4C193.3,276.7,206.3,302.6,206.3,302.6Z" fill="#96d5dd" opacity="0.49"/><path d="M273.6,231.1c1.1-4.9,3.4-9.6,8-11.5,1.7-.7,4.5-1.5,6.2-1.2,5.9.9,11.9,36,5.5,52.3-3.4,8.5-17.7,10-19.7,2.2C271.9,266.1,270.4,244.7,273.6,231.1Z" fill="#777"/><path d="M369.9,222.1l-2.8,12.8-12.5.1s4.9-.8,5-4.6c.1-3.7-2.4-6,.4-8C362.7,220.4,367.7,220.5,369.9,222.1Z" fill="#ff9e00"/></g><g transform="translate(14.778 -13.203)"><path d="M243.3,210.3s1.3-9-2-14.6-13.8-13.8-9.1-21.9,12.8,6.9,14.4,11.7S247.5,205.8,243.3,210.3Z" fill="#e4e4e4"/><path d="M243.4,209.4s3.2-16.5,14.3-23.5,15.3-.1,11,5.7C264.3,197.4,247.2,203.7,243.4,209.4Z" fill="#e4e4e4"/><path d="M246.8,199.5a36.865,36.865,0,0,1,9.3-26.1c10.7-11.9,17.7-9.4,17.3-2.7s-11.1,11.6-11.1,11.6S252.4,186.4,246.8,199.5Z" fill="#f8d010"/><path d="M247,193.6a111.615,111.615,0,0,0,2.9-14.6c.6-6.1,6.4-23.7.8-29.4-5.7-5.7-13.4,6.7-11.4,15.4C241.2,173.8,249.2,182.6,247,193.6Z" fill="#f8d010"/><path d="M254.8,168.4a23.08,23.08,0,0,0,2.4-7.7c.8-4.7.3-7.7,4.2-7.5S260,165.9,254.8,168.4Z" fill="#f8d010"/><path d="M236,175.1a.3.3,0,0,0,0-.6c-.4-.1-.4.6,0,.6Z" fill="#fad15b"/><path d="M238.7,175.9a.3.3,0,0,0,0-.6.3.3,0,0,0,0,.6Z" fill="#fad15b"/><path d="M235.8,178.7a.3.3,0,0,0,0-.6.3.3,0,1,0,0,.6Z" fill="#fad15b"/><path d="M240.6,179a.3.3,0,0,0,0-.6c-.4-.1-.4.6,0,.6Z" fill="#fad15b"/><path d="M237.9,183.5a.3.3,0,0,0,0-.6c-.4-.1-.4.6,0,.6Z" fill="#fad15b"/><path d="M242.5,182.9a.3.3,0,0,0,0-.6c-.4-.1-.4.6,0,.6Z" fill="#fad15b"/><path d="M239.6,187.5a.3.3,0,0,0,0-.6.3.3,0,1,0,0,.6Z" fill="#fad15b"/><path d="M240.2,180.5a.3.3,0,0,0,0-.6.3.3,0,0,0,0,.6Z" fill="#fad15b"/><path d="M236.5,179.1a.3.3,0,0,0,0-.6.3.3,0,0,0,0,.6Z" fill="#fad15b"/><path d="M235,183.8a.3.3,0,0,0,0-.6.3.3,0,0,0,0,.6Z" fill="#fad15b"/><path d="M243.2,188.1a.3.3,0,0,0,0-.6c-.4-.1-.4.6,0,.6Z" fill="#fad15b"/><path d="M245.4,192.2a.3.3,0,0,0,0-.6.3.3,0,0,0,0,.6Z" fill="#fad15b"/><path d="M244.4,195.3a.3.3,0,0,0,0-.6c-.4-.1-.4.6,0,.6Z" fill="#fad15b"/><path d="M243.1,192a.3.3,0,0,0,0-.6c-.4-.1-.4.6,0,.6Z" fill="#fad15b"/><path d="M246.2,188.7a.3.3,0,0,0,0-.6c-.4-.1-.4.6,0,.6Z" fill="#fad15b"/><path d="M246.7,193.6a.3.3,0,0,0,0-.6.3.3,0,0,0,0,.6Z" fill="#fad15b"/><path d="M246.1,196.9a.3.3,0,0,0,0-.6.3.3,0,1,0,0,.6Z" fill="#fad15b"/><path d="M245.8,199.3a.3.3,0,0,0,0-.6.3.3,0,1,0,0,.6Z" fill="#fad15b"/><path d="M249,197.1a.3.3,0,0,0,0-.6c-.4-.1-.4.6,0,.6Z" fill="#fad15b"/><path d="M248.5,197.3c-.1.2-.2.5-.3.7-.2.4.4.7.5.3.1-.2.2-.5.3-.7.3-.3-.3-.7-.5-.3Z" fill="#fad15b"/><path d="M247.5,200.8a.3.3,0,0,0,0-.6.3.3,0,0,0,0,.6Z" fill="#fad15b"/><path d="M247.2,201v.2a.3.3,0,0,0,.6,0V201a.3.3,0,0,0-.6,0Z" fill="#fad15b"/><path d="M247.7,203.2a.3.3,0,0,0,0-.6.3.3,0,0,0,0,.6Z" fill="#fad15b"/><path d="M247.4,202.8c0,.2-.1.4-.1.6-.1.4.5.6.6.2,0-.2.1-.4.1-.6.1-.4-.5-.6-.6-.2Z" fill="#fad15b"/><path d="M250.4,201.2a.3.3,0,0,0,0-.6.3.3,0,0,0,0,.6Z" fill="#fad15b"/><path d="M250.4,201.2a.3.3,0,0,0,0-.6.3.3,0,0,0,0,.6Z" fill="#fad15b"/><path d="M248.9,199.9a.3.3,0,0,0,0-.6.3.3,0,0,0,0,.6Z" fill="#fad15b"/><path d="M248.6,199.6c0,.4-.1.8-.1,1.2a.3.3,0,0,0,.6,0c0-.4.1-.8.1-1.2.1-.4-.6-.4-.6,0Z" fill="#fad15b"/><path d="M251.2,198.7a.3.3,0,0,0,0-.6c-.5,0-.5.6,0,.6Z" fill="#fad15b"/><path d="M250.8,196.5a.3.3,0,0,0,0-.6c-.4-.1-.4.6,0,.6Z" fill="#fad15b"/><path d="M250.5,196.1a5.638,5.638,0,0,1-.4,1.2c-.1.4.5.6.6.2a5.638,5.638,0,0,1,.4-1.2c.1-.5-.5-.6-.6-.2Z" fill="#fad15b"/><path d="M252,193.7a.3.3,0,0,0,0-.6.3.3,0,0,0,0,.6Z" fill="#fad15b"/><path d="M256.5,194.1a.3.3,0,0,0,0-.6.3.3,0,0,0,0,.6Z" fill="#fad15b"/><path d="M256,190.6a.3.3,0,0,0,0-.6c-.4-.1-.4.6,0,.6Z" fill="#fad15b"/><path d="M253.9,195.4a.3.3,0,0,0,0-.6.3.3,0,0,0,0,.6Z" fill="#fad15b"/><path d="M253.2,199.3a.3.3,0,0,0,0-.6.3.3,0,0,0,0,.6Z" fill="#fad15b"/><path d="M259.7,196.9a.3.3,0,0,0,0-.6.3.3,0,1,0,0,.6Z" fill="#fad15b"/><path d="M250.2,190a.3.3,0,0,0,0-.6c-.4-.1-.4.6,0,.6Z" fill="#fad15b"/><path d="M249,192.2a.3.3,0,0,0,0-.6.3.3,0,0,0,0,.6Z" fill="#fad15b"/><path d="M250.4,187.5a.3.3,0,0,0,0-.6.3.3,0,0,0,0,.6Z" fill="#fad15b"/><path d="M251.9,188.4a.3.3,0,0,0,0-.6.3.3,0,0,0,0,.6Z" fill="#fad15b"/><path d="M251,188.3a.3.3,0,0,0,0-.6.3.3,0,0,0,0,.6Z" fill="#fad15b"/><path d="M250.4,188.2a2.092,2.092,0,0,0-.6.4c-.3.2,0,.8.3.5a2.092,2.092,0,0,0,.6-.4c.4-.2.1-.7-.3-.5Z" fill="#fad15b"/><path d="M251.9,186.3a.3.3,0,0,0,0-.6.3.3,0,0,0,0,.6Z" fill="#fad15b"/><path d="M250.9,185.4a.3.3,0,0,0,0-.6c-.4-.1-.4.6,0,.6Z" fill="#fad15b"/><path d="M254.1,181.5a.3.3,0,0,0,0-.6c-.4-.1-.4.6,0,.6Z" fill="#fad15b"/><path d="M258,183a.3.3,0,0,0,0-.6.3.3,0,0,0,0,.6Z" fill="#fad15b"/><path d="M254.9,184.9a.3.3,0,0,0,0-.6.3.3,0,0,0,0,.6Z" fill="#fad15b"/><path d="M249.5,178.4a.3.3,0,0,0,0-.6.3.3,0,0,0,0,.6Z" fill="#fad15b"/><path d="M249.4,183.8a.3.3,0,0,0,0-.6.3.3,0,0,0,0,.6Z" fill="#fad15b"/></g><path d="M187.2,93.7s-6.4-6.4-12.8-7.2c-6.4-.7-19.3,2.8-23-5.9-3.7-8.6,13.2-6.1,18-4.4C174.1,77.9,186.1,87.7,187.2,93.7Z" fill="#e52864"/><path d="M186.5,93.1s-11.3-12.5-10.2-25.5,9.1-12.3,11.1-5.4C189.5,69.3,184.3,86.7,186.5,93.1Z" fill="#e52864"/><path d="M180.6,84.5a36.865,36.865,0,0,1-15.3-23.1c-3.1-15.7,3.1-19.8,8.2-15.4,5.1,4.3,2.6,15.8,2.6,15.8S173.6,72.1,180.6,84.5Z" fill="#f8809b"/><path d="M176.1,80.9a118.644,118.644,0,0,0-9.9-11.1c-4.5-4.2-15.1-19.4-23-18.3s-2.7,14.7,5.5,18.4C156.7,73.6,168.6,72.5,176.1,80.9Z" fill="#f8809b"/><path d="M160.6,59.5a22.783,22.783,0,0,0-4.7-6.5c-3.3-3.5-5.9-4.9-3.5-7.9C154.9,42.1,161.7,53.8,160.6,59.5Z" fill="#e52864"/><path d="M154.4,78.6a.3.3,0,0,0,0-.6.3.3,0,0,0,0,.6Z" fill="#fad15b"/><path d="M156.7,76.9a.3.3,0,0,0,0-.6.3.3,0,0,0,0,.6Z" fill="#fad15b"/><path d="M157.2,81a.3.3,0,0,0,0-.6.3.3,0,0,0,0,.6Z" fill="#fad15b"/><path d="M160.3,77.3a.3.3,0,0,0,0-.6c-.4-.1-.4.6,0,.6Z" fill="#fad15b"/><path d="M162.2,82.1a.3.3,0,0,0,0-.6.3.3,0,0,0,0,.6Z" fill="#fad15b"/><path d="M164.5,78.1a.3.3,0,0,0,0-.6.3.3,0,0,0,0,.6Z" fill="#fad15b"/><path d="M166.5,83.2a.3.3,0,0,0,0-.6c-.5,0-.5.6,0,.6Z" fill="#fad15b"/><path d="M161.2,78.6a.3.3,0,0,0,0-.6c-.4-.1-.4.6,0,.6Z" fill="#fad15b"/><path d="M157.9,80.6a.3.3,0,0,0,0-.6.3.3,0,0,0,0,.6Z" fill="#fad15b"/><path d="M160.8,84.7a.3.3,0,0,0,0-.6.3.3,0,1,0,0,.6Z" fill="#fad15b"/><path d="M169.1,80.6a.3.3,0,0,0,0-.6.3.3,0,1,0,0,.6Z" fill="#fad15b"/><path d="M173.7,81.4a.3.3,0,0,0,0-.6.3.3,0,0,0,0,.6Z" fill="#fad15b"/><path d="M175.6,84a.3.3,0,0,0,0-.6.3.3,0,1,0,0,.6Z" fill="#fad15b"/><path d="M172.2,83.1a.3.3,0,0,0,0-.6c-.4-.1-.4.6,0,.6Z" fill="#fad15b"/><path d="M171.4,78.6a.3.3,0,0,0,0-.6.3.3,0,0,0,0,.6Z" fill="#fad15b"/><path d="M175.6,81.2a.3.3,0,0,0,0-.6.3.3,0,1,0,0,.6Z" fill="#fad15b"/><path d="M177.9,83.7a.3.3,0,0,0,0-.6.3.3,0,0,0,0,.6Z" fill="#fad15b"/><path d="M179.7,85.3a.3.3,0,0,0,0-.6.3.3,0,0,0,0,.6Z" fill="#fad15b"/><path d="M179.8,81.4a.3.3,0,0,0,0-.6.3.3,0,1,0,0,.6Z" fill="#fad15b"/><path d="M180,81.9a2.507,2.507,0,0,0,.4.7c.2.4.7,0,.5-.3a2.507,2.507,0,0,0-.4-.7c-.2-.4-.7-.1-.5.3Z" fill="#fad15b"/><path d="M181.9,84.9a.3.3,0,0,0,0-.6.3.3,0,0,0,0,.6Z" fill="#fad15b"/><path d="M182.1,85.1c.1,0,.1.1.2.1.3.2.6-.3.3-.5-.1,0-.1-.1-.2-.1-.3-.2-.6.3-.3.5Z" fill="#fad15b"/><path d="M183.9,86.1a.3.3,0,0,0,0-.6.3.3,0,0,0,0,.6Z" fill="#fad15b"/><path d="M183.7,86l.4.4a.285.285,0,1,0,.4-.4c-.1-.2-.3-.3-.4-.4-.2-.3-.7.1-.4.4Z" fill="#fad15b"/><path d="M183.9,82.8a.3.3,0,0,0,0-.6c-.4-.1-.4.6,0,.6Z" fill="#fad15b"/><path d="M183.9,82.8a.3.3,0,0,0,0-.6c-.4-.1-.4.6,0,.6Z" fill="#fad15b"/><path d="M182,83.2a.3.3,0,0,0,0-.6.3.3,0,0,0,0,.6Z" fill="#fad15b"/><path d="M181.8,83.1c.3.3.6.5.9.8s.7-.2.4-.4c-.3-.3-.6-.5-.9-.8a.285.285,0,1,0-.4.4Z" fill="#fad15b"/><path d="M182.4,80.7a.3.3,0,0,0,0-.6.3.3,0,0,0,0,.6Z" fill="#fad15b"/><path d="M180.4,79.6a.3.3,0,0,0,0-.6.3.3,0,0,0,0,.6Z" fill="#fad15b"/><path d="M180.1,79.5c.2.3.5.7.7,1s.8,0,.5-.3c-.2-.3-.5-.7-.7-1-.2-.4-.7-.1-.5.3Z" fill="#fad15b"/><path d="M178.9,77.1a.3.3,0,0,0,0-.6c-.4-.1-.4.6,0,.6Z" fill="#fad15b"/><path d="M181.9,73.7a.3.3,0,0,0,0-.6c-.4-.1-.4.6,0,.6Z" fill="#fad15b"/><path d="M178.8,71.9a.3.3,0,0,0,0-.6.3.3,0,1,0,0,.6Z" fill="#fad15b"/><path d="M181.4,76.5a.3.3,0,0,0,0-.6.3.3,0,0,0,0,.6Z" fill="#fad15b"/><path d="M184.1,79.4a.3.3,0,0,0,0-.6.3.3,0,1,0,0,.6Z" fill="#fad15b"/><path d="M186.1,72.8a.3.3,0,0,0,0-.6.3.3,0,1,0,0,.6Z" fill="#fad15b"/><path d="M174.8,76.2a.3.3,0,0,0,0-.6.3.3,0,1,0,0,.6Z" fill="#fad15b"/><path d="M175.9,78.5a.3.3,0,0,0,0-.6.3.3,0,0,0,0,.6Z" fill="#fad15b"/><path d="M173,74.5a.3.3,0,0,0,0-.6.3.3,0,0,0,0,.6Z" fill="#fad15b"/><path d="M174.6,74a.3.3,0,0,0,0-.6c-.4-.1-.4.6,0,.6Z" fill="#fad15b"/><path d="M174,74.5a.3.3,0,0,0,0-.6.3.3,0,0,0,0,.6Z" fill="#fad15b"/><path d="M173.8,74.9a1.7,1.7,0,0,1-.1.7.3.3,0,0,0,.6,0,1.7,1.7,0,0,1,.1-.7c.1-.4-.6-.4-.6,0Z" fill="#fad15b"/><path d="M172.9,72.7a.3.3,0,0,0,0-.6c-.4-.1-.4.6,0,.6Z" fill="#fad15b"/><path d="M171.6,72.9a.3.3,0,0,0,0-.6c-.4-.1-.4.6,0,.6Z" fill="#fad15b"/><path d="M170.4,68a.3.3,0,0,0,0-.6c-.4-.1-.4.6,0,.6Z" fill="#fad15b"/><path d="M173.9,65.8a.3.3,0,0,0,0-.6c-.4-.1-.4.6,0,.6Z" fill="#fad15b"/><path d="M173.6,69.4a.3.3,0,0,0,0-.6c-.4-.1-.4.6,0,.6Z" fill="#fad15b"/><path d="M165.1,69.8a.3.3,0,0,0,0-.6.3.3,0,1,0,0,.6Z" fill="#fad15b"/><path d="M169.4,73.2a.3.3,0,0,0,0-.6c-.4-.1-.4.6,0,.6Z" fill="#fad15b"/><path d="M253.5,380.7h.4a21.655,21.655,0,0,1,.6-3.4,22.978,22.978,0,0,1,1.4-4.2c.5-.9,2.1-3.9,2.1-3.9a11.781,11.781,0,0,0-1.1,1.3,22.9,22.9,0,0,0-2.4,5.3A28.19,28.19,0,0,0,253.5,380.7Z" fill="#7eb7b0"/><path d="M256.8,371.2a4.47,4.47,0,0,1,2-1.5c1-.2.7.4-.1.9S256.6,371.4,256.8,371.2Z" fill="#7eb7b0"/><path d="M255.3,374.2a3.262,3.262,0,0,1,1.5-1.3c1-.5,1.8-1.3,2.1-.9s-.7,1.4-1.6,1.7a11.476,11.476,0,0,0-1.9.9v-.4Z" fill="#7eb7b0"/><path d="M254.6,376.2a2.822,2.822,0,0,1,1.2-1.2c.9-.5,2.3-1.1,2.6-.7s.2.6-.6.9-2,.5-2.5.7a5.911,5.911,0,0,1-.8.5v-.2Z" fill="#7eb7b0"/><path d="M254.1,378.5l1.1-1.1c.5-.5,2.7-1.6,2.8-1.2s-1.6,1.6-2.3,1.8a11.183,11.183,0,0,0-1.7.9v-.4Z" fill="#7eb7b0"/><path d="M255.7,373.2a2.89,2.89,0,0,0,.3-1.6c0-1.2-.1-2.3-.5-2.2s-.2,1.3-.2,1.8V373a5.527,5.527,0,0,0,.1.9Z" fill="#7eb7b0"/><path d="M254.7,376a16.136,16.136,0,0,0,0-2.3c-.1-.9-.2-1.1-.3-1.7-.1-.7-.1-.8-.4-.5s-.2,1.7,0,2.4a5.554,5.554,0,0,1,.2,1.7,4,4,0,0,0,.3.9Z" fill="#7eb7b0"/><path d="M253.8,377.7a9.376,9.376,0,0,1-.9-1.8c-.1-.6-.3-1.5-.6-1.5-.3.1-.2,1.4.2,2.2s.4,1,.9,1.3a1.316,1.316,0,0,1,.6.6Z" fill="#7eb7b0"/><path d="M252.4,358.4l.3-.2a28.677,28.677,0,0,1-1.6-3,20.66,20.66,0,0,1-1.4-4.2c-.1-1-.6-4.4-.6-4.4a15.439,15.439,0,0,0-.1,1.7,20.224,20.224,0,0,0,1.2,5.7A24.763,24.763,0,0,0,252.4,358.4Z" fill="#7eb7b0"/><path d="M249.2,348.9a4.36,4.36,0,0,1,.7-2.4c.7-.8.8-.1.5.8C250.1,348.1,249.2,349.1,249.2,348.9Z" fill="#7eb7b0"/><path d="M249.8,352.2a4.048,4.048,0,0,1,.4-2c.5-1,.7-2.1,1.1-2s.3,1.6-.3,2.3a8.587,8.587,0,0,0-1,1.9Z" fill="#7eb7b0"/><path d="M250.5,354.2a2.839,2.839,0,0,1,.2-1.7c.4-1,1.2-2.3,1.6-2.2s.5.4.1,1.1a17.219,17.219,0,0,0-1.5,2.1,7.783,7.783,0,0,0-.3.9Z" fill="#7eb7b0"/><path d="M251.5,356.3s.1-.9.2-1.6,1.2-2.9,1.5-2.6c.3.2-.3,2.3-.7,2.8a10.182,10.182,0,0,0-.8,1.7Z" fill="#7eb7b0"/><path d="M249.5,351.1a2.679,2.679,0,0,0-.7-1.4c-.7-1-1.4-1.8-1.7-1.5s.6,1.2.9,1.6a17.1,17.1,0,0,0,1.1,1.4,7.687,7.687,0,0,0,.7.6Z" fill="#7eb7b0"/><path d="M250.4,354a8.621,8.621,0,0,0-1.4-1.8c-.6-.6-.8-.7-1.3-1.2s-.6-.6-.6-.1c0,.4.9,1.4,1.4,1.9l1.2,1.2a5.911,5.911,0,0,0,.8.5Z" fill="#7eb7b0"/><path d="M250.8,355.9a9.543,9.543,0,0,1-1.8-.9c-.5-.4-1.2-1-1.4-.8s.7,1.2,1.5,1.6.9.5,1.5.5a3.139,3.139,0,0,1,.9.1Z" fill="#7eb7b0"/><path d="M251.7,337.7l.3.3a24.229,24.229,0,0,1,2.8-2,28.93,28.93,0,0,1,3.9-2c1-.3,4.2-1.3,4.2-1.3a8.785,8.785,0,0,0-1.7.2,22.082,22.082,0,0,0-5.4,2.1A17.852,17.852,0,0,0,251.7,337.7Z" fill="#7eb7b0"/><path d="M260.6,333.1a4.077,4.077,0,0,1,2.5.3c.9.6.2.7-.7.6S260.4,333.2,260.6,333.1Z" fill="#7eb7b0"/><path d="M257.5,334.2a4.644,4.644,0,0,1,2,.1c1,.3,2.2.4,2.1.8s-1.5.5-2.3,0a6.491,6.491,0,0,0-2-.7Z" fill="#7eb7b0"/><path d="M255.6,335.2a2.669,2.669,0,0,1,1.7,0c1,.3,2.4.9,2.4,1.3s-.3.6-1.1.2c-.8-.3-1.8-1.1-2.3-1.2s-.9-.2-.9-.2Z" fill="#7eb7b0"/><path d="M253.6,336.5h1.6c.7,0,3,.7,2.8,1.1-.2.3-2.3,0-2.9-.2a8.451,8.451,0,0,0-1.8-.5Z" fill="#7eb7b0"/><path d="M258.5,333.8a3.036,3.036,0,0,0,1.3-.9c.8-.8,1.5-1.7,1.2-1.9s-1.1.8-1.4,1.1a15.932,15.932,0,0,0-1.3,1.3,2.8,2.8,0,0,0-.5.8Z" fill="#7eb7b0"/><path d="M255.8,335.1a11.144,11.144,0,0,0,1.6-1.6c.5-.7.6-.9,1-1.5.4-.5.5-.7,0-.6-.4,0-1.3,1.1-1.6,1.7-.4.6-.7,1-1,1.4a2.524,2.524,0,0,0-.4.9Z" fill="#7eb7b0"/><path d="M254,335.8a11.8,11.8,0,0,1,.6-1.9c.3-.5.8-1.3.6-1.5-.3-.2-1.1.9-1.4,1.7a2.51,2.51,0,0,0-.3,1.6,2.258,2.258,0,0,1,0,.9Z" fill="#7eb7b0"/><path d="M277,321.8l.2.2a20.4,20.4,0,0,1,5.3-3.2c.8-.2,3.3-1,3.3-1a6.393,6.393,0,0,0-1.4.2,15.685,15.685,0,0,0-4.3,1.6A27.589,27.589,0,0,0,277,321.8Z" fill="#7eb7b0"/><path d="M284.1,318.2a3.863,3.863,0,0,1,2,.2c.7.4.2.6-.5.5A2.747,2.747,0,0,1,284.1,318.2Z" fill="#7eb7b0"/><path d="M281.6,319.1a2.994,2.994,0,0,1,1.6.1c.8.3,1.7.3,1.7.6-.1.4-1.2.4-1.9,0a6.669,6.669,0,0,0-1.6-.6Z" fill="#7eb7b0"/><path d="M280.1,319.9a1.76,1.76,0,0,1,1.4,0c.8.2,1.9.7,1.9,1s-.2.5-.9.2a7.479,7.479,0,0,0-1.8-.9,1.383,1.383,0,0,1-.7-.2Z" fill="#7eb7b0"/><path d="M278.6,320.9h1.3c.5,0,2.4.6,2.2.9-.1.3-1.8,0-2.3-.2a11.891,11.891,0,0,0-1.4-.4Z" fill="#7eb7b0"/><path d="M282.4,318.7a2.528,2.528,0,0,0,1-.7c.7-.7,1.2-1.3.9-1.5s-.9.7-1.1.9l-1,1-.4.6Z" fill="#7eb7b0"/><path d="M280.3,319.8a7.336,7.336,0,0,0,1.3-1.3c.4-.6.5-.7.8-1.2.3-.4.4-.5,0-.5-.3,0-1,.9-1.3,1.3s-.6.8-.8,1.1a2.6,2.6,0,0,0-.3.7Z" fill="#7eb7b0"/><path d="M278.9,320.3a5.037,5.037,0,0,1,.5-1.5c.3-.4.7-1.1.5-1.2s-.9.7-1.1,1.4-.3.8-.2,1.2a1.36,1.36,0,0,1,0,.7Z" fill="#7eb7b0"/><path d="M268.6,325l.1-.2s-1.1-.5-1.6-.8a10.4,10.4,0,0,1-1.9-1.4l-1.7-1.7a5.912,5.912,0,0,0,.5.8,9.921,9.921,0,0,0,2.3,2.1C267.5,324.5,268.6,325,268.6,325Z" fill="#7eb7b0"/><path d="M264.2,321.8a2.778,2.778,0,0,1-.5-1.3c0-.6.3-.3.5.2S264.3,321.9,264.2,321.8Z" fill="#7eb7b0"/><path d="M265.5,323.1a2.02,2.02,0,0,1-.5-1c-.1-.6-.4-1.1-.1-1.2.2-.1.6.6.6,1.1a4.172,4.172,0,0,0,.2,1.1Z" fill="#7eb7b0"/><path d="M266.5,323.7a1.19,1.19,0,0,1-.4-.8c-.1-.6-.2-1.4,0-1.5s.4,0,.4.5a6.477,6.477,0,0,0,0,1.4,1.75,1.75,0,0,1,.1.5Z" fill="#7eb7b0"/><path d="M267.6,324.3a2.663,2.663,0,0,1-.4-.8c-.2-.3-.4-1.6-.2-1.6s.6,1.1.6,1.4a4.069,4.069,0,0,0,.2,1Z" fill="#7eb7b0"/><path d="M265.1,322.7a2.189,2.189,0,0,0-.8-.4c-.6-.2-1.2-.3-1.2-.1s.7.3.9.4.7.2.9.3a1.338,1.338,0,0,0,.5.1Z" fill="#7eb7b0"/><path d="M266.4,323.6a7.689,7.689,0,0,0-1.2-.4c-.5-.1-.6,0-.9-.1-.4-.1-.4-.1-.3.1s.8.3,1.2.4c.4,0,.7.1.9.1h.5Z" fill="#7eb7b0"/><path d="M267.1,324.3a5.628,5.628,0,0,1-1,.2c-.3,0-.8-.1-.9.1s.7.3,1.2.2a2.912,2.912,0,0,0,.8-.2.619.619,0,0,1,.4-.2Z" fill="#7eb7b0"/><path d="M299.7,320.8l.1-.2s-1.1-.5-1.6-.8a10.4,10.4,0,0,1-1.9-1.4l-1.7-1.7a5.912,5.912,0,0,0,.5.8,9.921,9.921,0,0,0,2.3,2.1C298.6,320.3,299.7,320.8,299.7,320.8Z" fill="#7eb7b0"/><path d="M295.4,317.6a2.778,2.778,0,0,1-.5-1.3c0-.6.3-.3.5.2A3.384,3.384,0,0,1,295.4,317.6Z" fill="#7eb7b0"/><path d="M296.7,318.8a2.02,2.02,0,0,1-.5-1c-.1-.6-.4-1.1-.1-1.2.2-.1.6.6.6,1.1a4.172,4.172,0,0,0,.2,1.1Z" fill="#7eb7b0"/><path d="M297.6,319.5a1.19,1.19,0,0,1-.4-.8c-.1-.6-.2-1.4,0-1.5s.4,0,.4.5a6.477,6.477,0,0,0,0,1.4,1.75,1.75,0,0,1,.1.5Z" fill="#7eb7b0"/><path d="M298.7,320.1a2.663,2.663,0,0,1-.4-.8c-.2-.3-.4-1.6-.2-1.6s.6,1.1.6,1.4a4.069,4.069,0,0,0,.2,1Z" fill="#7eb7b0"/><path d="M296.2,318.5a2.189,2.189,0,0,0-.8-.4c-.6-.2-1.2-.3-1.2-.1s.7.3.9.4.7.2.9.3a1.338,1.338,0,0,0,.5.1Z" fill="#7eb7b0"/><path d="M297.5,319.4a7.689,7.689,0,0,0-1.2-.4c-.5-.1-.6,0-.9-.1-.4-.1-.4-.1-.3.1s.8.3,1.2.4c.4,0,.7.1.9.1h.5Z" fill="#7eb7b0"/><path d="M298.3,320.1a5.628,5.628,0,0,1-1,.2c-.3,0-.8-.1-.9.1,0,.2.7.3,1.2.2a2.912,2.912,0,0,0,.8-.2.619.619,0,0,1,.4-.2Z" fill="#7eb7b0"/><path d="M262.5,347.9l-.2-.1s-.7.9-1.2,1.4a12.941,12.941,0,0,1-1.8,1.6l-2,1.2a7.785,7.785,0,0,0,.9-.3,10.073,10.073,0,0,0,2.6-1.8A16.867,16.867,0,0,0,262.5,347.9Z" fill="#7eb7b0"/><path d="M258.4,351.5a3.09,3.09,0,0,1-1.3.2c-.5-.2-.2-.4.3-.4C257.8,351.2,258.5,351.4,258.4,351.5Z" fill="#7eb7b0"/><path d="M259.9,350.5a1.779,1.779,0,0,1-1.1.2c-.6,0-1.2.1-1.2-.1s.7-.5,1.2-.3a2.355,2.355,0,0,0,1.1.1Z" fill="#7eb7b0"/><path d="M260.8,349.7a1.046,1.046,0,0,1-.9.2c-.6,0-1.4-.1-1.4-.4,0-.2.1-.3.5-.3.5.1,1.1.3,1.3.3h.5Z" fill="#7eb7b0"/><path d="M261.6,348.8s-.5.1-.8.2-1.7,0-1.6-.2,1.2-.3,1.5-.3a3.056,3.056,0,0,0,1,0Z" fill="#7eb7b0"/><path d="M259.4,350.9a2.346,2.346,0,0,0-.6.6c-.3.5-.6,1.1-.4,1.1.2.1.5-.6.6-.8a3.509,3.509,0,0,0,.5-.8,4.709,4.709,0,0,0,.2-.5Z" fill="#7eb7b0"/><path d="M260.7,349.8a3.192,3.192,0,0,0-.6,1.1,4.705,4.705,0,0,0-.3.9c-.2.3-.2.4.1.3a2.268,2.268,0,0,0,.6-1.1c.1-.4.3-.6.3-.9a1.75,1.75,0,0,0,.1-.5Z" fill="#7eb7b0"/><path d="M261.5,349.2a5.939,5.939,0,0,1-.1,1.1c-.1.3-.3.8-.1.9s.5-.6.5-1.1.1-.6-.1-.9a1.75,1.75,0,0,1-.1-.5Z" fill="#7eb7b0"/><path d="M247.7,363l-.1.2s.9.7,1.4,1.1c.5.5,1.3,1.3,1.6,1.7.3.5,1.3,2,1.3,2a7.783,7.783,0,0,0-.3-.9,7.622,7.622,0,0,0-1.9-2.5A11.67,11.67,0,0,0,247.7,363Z" fill="#7eb7b0"/><path d="M251.3,367a2.018,2.018,0,0,1,.2,1.3c-.2.5-.4.2-.4-.3A2.427,2.427,0,0,1,251.3,367Z" fill="#7eb7b0"/><path d="M250.3,365.5a2.264,2.264,0,0,1,.3,1c0,.6.1,1.2-.1,1.2s-.5-.7-.4-1.2a6.612,6.612,0,0,0,.1-1.1Z" fill="#7eb7b0"/><path d="M249.5,364.6a1.314,1.314,0,0,1,.3.9c0,.6-.1,1.4-.3,1.4s-.3-.1-.3-.5.3-1.1.3-1.4v-.4Z" fill="#7eb7b0"/><path d="M248.6,363.8a2.913,2.913,0,0,1,.2.8c.1.3,0,1.7-.2,1.6-.2,0-.3-1.2-.3-1.5v-1Z" fill="#7eb7b0"/><path d="M250.7,365.9s.1.2.7.5c.5.3,1.1.6,1.1.3.1-.2-.6-.4-.8-.6a7.256,7.256,0,0,0-.9-.5,4.708,4.708,0,0,0-.5-.2Z" fill="#7eb7b0"/><path d="M249.6,364.8a7.373,7.373,0,0,0,1.1.6,9.193,9.193,0,0,0,.9.3c.3.1.4.1.3-.1a2.268,2.268,0,0,0-1.1-.6,9.448,9.448,0,0,1-.9-.3,1.75,1.75,0,0,0-.5-.1Z" fill="#7eb7b0"/><path d="M249,363.9a3.755,3.755,0,0,1,1.1,0c.3.1.8.2.9.1,0-.2-.6-.4-1.1-.5s-.6-.1-.9.1a1.577,1.577,0,0,1-.4.1Z" fill="#7eb7b0"/><path d="M248.6,331.5l.2-.1a11.123,11.123,0,0,1-.8-1.6,11.875,11.875,0,0,1-.8-2.2c-.1-.5-.3-2.3-.3-2.3a2.258,2.258,0,0,0,0,.9,11.058,11.058,0,0,0,.7,3.1A12.494,12.494,0,0,0,248.6,331.5Z" fill="#7eb7b0"/><path d="M246.9,326.4a2.21,2.21,0,0,1,.4-1.3c.4-.4.4,0,.3.4C247.4,326,246.9,326.5,246.9,326.4Z" fill="#7eb7b0"/><path d="M247.3,328.2a1.855,1.855,0,0,1,.2-1.1c.3-.5.4-1.1.6-1.1.2.1.1.8-.2,1.2a4.172,4.172,0,0,0-.5,1Z" fill="#7eb7b0"/><path d="M247.6,329.3a1.591,1.591,0,0,1,.1-.9c.2-.5.7-1.2.9-1.2.2.1.3.2,0,.6-.2.4-.7.9-.8,1.1,0,.3-.1.5-.2.4Z" fill="#7eb7b0"/><path d="M248.2,330.4a5.527,5.527,0,0,0,.1-.9c.1-.3.6-1.5.8-1.4s-.2,1.2-.4,1.5a4.932,4.932,0,0,0-.4.9Z" fill="#7eb7b0"/><path d="M247.1,327.6a1.484,1.484,0,0,0-.4-.8c-.4-.5-.8-.9-.9-.8-.1.2.4.6.5.9a4.172,4.172,0,0,0,.6.8.781.781,0,0,0,.4.3Z" fill="#7eb7b0"/><path d="M247.6,329.1a6.307,6.307,0,0,0-.7-1l-.7-.7c-.2-.3-.3-.3-.3-.1a2.35,2.35,0,0,0,.8,1,4.62,4.62,0,0,1,.7.7,1.726,1.726,0,0,0,.4.3Z" fill="#7eb7b0"/><path d="M247.8,330.1a2.058,2.058,0,0,1-.9-.5c-.3-.2-.6-.6-.7-.4-.1.1.4.7.8.9s.5.3.8.3a1.213,1.213,0,0,1,.5.1Z" fill="#7eb7b0"/><path d="M415.3,285.5s-10-5.8-14.1-7.7-15.4-8.9-9.8-16.2c5.6-7.2,15.9,3.8,15.9,3.8s-3.5-10.7,2.7-13.1c6.3-2.5,14,5.4,11.9,13.9,0,0,2-11.1,8.9-12s8.1,9.1,3.8,13.9c0,0,4.4-7.2,12-5s5.2,6.4.6,9.2c0,0,9.4-.2,10.1,6.4s-2.9,9.7-8.2,10.5c-5.3.9-18.6,2.6-18.6,2.6Z" fill="#f8d010"/><path d="M405.6,321.9l2.5,3.7a118.919,118.919,0,0,0,7.7-10.9l2.4-4.2a11.489,11.489,0,0,1,8,.3c4,1.8,10.3-2.9,11.2-6.2l1-3.3a27.076,27.076,0,0,1-9.5,1.3c-4.5-.3-9.9,5.6-9.9,5.6l4-14.6s6.2.5,10.1-3.5c3.8-4,.8-9.7-5.2-8.8-6,.8-6.2,3.8-6.2,3.8s-3.5-10.4-9.1-9.2-6.1,6-1.6,8.9c4.4,2.9,8.7,8.3,8.7,8.3a18.214,18.214,0,0,1-1,9c-1.9,4.1-3.4,6.8-3.4,6.8s.1-6.7-2.4-10.2c-2.4-3.5-5.1-7.8-5.1-7.8s-2.6,7.2.6,12.3,5,4.8,5.5,6.7C414.2,311.9,411.5,319.6,405.6,321.9Z" fill="#7138ab"/><path d="M441.5,268a61.884,61.884,0,0,0-12.8,11.7c-.2.3.2.7.4.4a66.617,66.617,0,0,1,12.7-11.6c.3-.2,0-.7-.3-.5Z" fill="#fad15b"/><path d="M438.6,273.5c-2.5,1.8-4.9,3.7-7.3,5.7a.285.285,0,1,0,.4.4c2.3-2,4.7-3.8,7.1-5.6.5-.2.2-.7-.2-.5Z" fill="#fad15b"/><path d="M433.2,280.4a38.931,38.931,0,0,1,9.2-4.4c.4-.1.2-.7-.2-.6a40.326,40.326,0,0,0-9.4,4.4.363.363,0,0,0,.4.6Z" fill="#fad15b"/><path d="M437.4,284.3a26.168,26.168,0,0,1,4.8-1.3,18.442,18.442,0,0,0,4.1-.6c.4-.1.2-.7-.2-.6-1.4.6-2.9.4-4.3.6a38.093,38.093,0,0,0-4.5,1.3c-.4.1-.2.7.1.6Z" fill="#fad15b"/><path d="M439.6,286.3a25.951,25.951,0,0,1,4-.3.3.3,0,0,0,0-.6,27.966,27.966,0,0,0-4,.3c-.4.1-.4.7,0,.6Z" fill="#fad15b"/><path d="M438.4,289a.3.3,0,0,0,0-.6.3.3,0,0,0,0,.6Z" fill="#fad15b"/><path d="M430.8,267.2c-.9,2.7-3,4.9-3.7,7.7-.1.4.5.5.6.2.7-2.8,2.7-5,3.7-7.7.2-.4-.4-.6-.6-.2Z" fill="#fad15b"/><path d="M426.1,271.8a13.3,13.3,0,0,0-1.1,3c-.1.4.5.5.6.2a13.316,13.316,0,0,1,1-2.8c.2-.4-.3-.7-.5-.4Z" fill="#fad15b"/><path d="M420.3,268.3a36.826,36.826,0,0,1-.6,6.6c-.1.4.5.5.6.2a39.059,39.059,0,0,0,.6-6.8.3.3,0,1,0-.6,0Z" fill="#fad15b"/><path d="M416.7,267.9a27.409,27.409,0,0,1,.5,2.8c.2.8.7,2.2.4,3-.1.4.5.5.6.2a6.522,6.522,0,0,0-.2-2.4c-.2-1.2-.5-2.5-.7-3.7-.1-.4-.7-.2-.6.1Z" fill="#fad15b"/><path d="M411.8,267.7a15.912,15.912,0,0,0,2.3,5.7c.2.3.7,0,.5-.3a13.862,13.862,0,0,1-2.3-5.6c0-.3-.6-.1-.5.2Z" fill="#fad15b"/><path d="M405,270.5l3.8,3.8a.285.285,0,1,0,.4-.4l-3.8-3.8c-.2-.3-.6.1-.4.4Z" fill="#fad15b"/><path d="M403.2,274c.7.4,1.3.8,2,1.2.3.2.6-.3.3-.5-.7-.4-1.3-.8-2-1.2-.3-.2-.6.3-.3.5Z" fill="#fad15b"/><path d="M420.5,308.5c3.3-2.7,4.6-.2,7.5-.8,1.6-.4,2.4-1.7,4-2.2,3-.9,4.4-.6,6.2-3.5.2-.3-.3-.6-.5-.3a6.614,6.614,0,0,1-4.8,3,3.4,3.4,0,0,1-1,.1c-1.6.4-2.6,1.3-4.2,1.7-2.9.6-5.1-.6-7.7,1.5-.3.3.2.8.5.5Z" fill="#c9a7ff"/><path d="M407.7,293.3c.4,3.4,2.1,5.5,3.9,8.3s1.3,6.1,3.5,8.8a.285.285,0,1,0,.4-.4c-2-2.4-1.5-5.3-2.9-7.8-1.7-3.1-3.9-4.9-4.4-8.8.1-.5-.5-.5-.5-.1Z" fill="#c9a7ff"/><path d="M84.9,254.3s10-5.8,14.1-7.7,15.4-8.9,9.8-16.2c-5.6-7.2-15.9,3.8-15.9,3.8s3.5-10.7-2.7-13.1c-6.3-2.5-14,5.4-11.9,13.9,0,0-2-11.1-8.9-12s-8.1,9.1-3.8,13.9c0,0-4.4-7.2-12-5s-5.2,6.4-.6,9.2c0,0-9.4-.2-10.1,6.4s2.9,9.7,8.2,10.5c5.3.9,18.6,2.6,18.6,2.6Z" fill="#e52864"/><path d="M94.5,290.7,92,294.4a118.913,118.913,0,0,1-7.7-10.9l-2.4-4.2a11.489,11.489,0,0,0-8,.3c-4,1.8-10.3-2.9-11.2-6.2l-1-3.3a27.076,27.076,0,0,0,9.5,1.3c4.5-.3,9.9,5.6,9.9,5.6l-4-14.6s-6.2.5-10.1-3.5c-3.8-4-.8-9.7,5.2-8.8,6,.8,6.2,3.8,6.2,3.8s3.5-10.4,9.1-9.2,6.1,6,1.6,8.9c-4.4,2.9-8.7,8.3-8.7,8.3a18.214,18.214,0,0,0,1,9c1.9,4.1,3.4,6.8,3.4,6.8s-.1-6.7,2.4-10.2c2.4-3.5,5.1-7.8,5.1-7.8s2.6,7.2-.6,12.3-5,4.8-5.5,6.7C86,280.7,88.7,288.4,94.5,290.7Z" fill="#7138ab"/><path d="M58.4,237.3a66.615,66.615,0,0,1,12.7,11.6.285.285,0,1,0,.4-.4,74.765,74.765,0,0,0-12.8-11.7c-.4-.2-.7.3-.3.5Z" fill="#fad15b"/><path d="M61.2,242.8c2.5,1.8,4.8,3.6,7.1,5.6.3.3.7-.2.4-.4-2.3-2-4.8-3.9-7.3-5.7-.2-.2-.5.3-.2.5Z" fill="#fad15b"/><path d="M67.3,248.7a35.151,35.151,0,0,0-9.4-4.4c-.4-.1-.5.5-.2.6,3.2,1.2,6.4,2.3,9.2,4.4.4.1.7-.4.4-.6Z" fill="#fad15b"/><path d="M62.9,252.5a38.1,38.1,0,0,0-4.5-1.3c-1.4-.3-3-.1-4.3-.6-.4-.1-.5.4-.2.6a18.441,18.441,0,0,0,4.1.6,28.518,28.518,0,0,1,4.8,1.3c.3.1.5-.5.1-.6Z" fill="#fad15b"/><path d="M60.6,254.5a25.953,25.953,0,0,0-4-.3.3.3,0,0,0,0,.6,27.963,27.963,0,0,1,4,.3.3.3,0,0,0,0-.6Z" fill="#fad15b"/><path d="M61.8,257.8a.3.3,0,0,0,0-.6.3.3,0,0,0,0,.6Z" fill="#fad15b"/><path d="M68.7,236.1c.9,2.7,3,4.9,3.7,7.7.1.4.7.2.6-.2-.7-2.8-2.7-4.9-3.7-7.7-.1-.3-.7-.1-.6.2Z" fill="#fad15b"/><path d="M73.6,240.9a13.315,13.315,0,0,1,1,2.8c.1.4.7.2.6-.2a12.129,12.129,0,0,0-1.1-3c-.2-.2-.7.1-.5.4Z" fill="#fad15b"/><path d="M79.3,237.1a39.058,39.058,0,0,0,.6,6.8c.1.4.6.2.6-.2a36.825,36.825,0,0,1-.6-6.6.3.3,0,1,0-.6,0Z" fill="#fad15b"/><path d="M82.9,236.6c-.2,1.2-.5,2.5-.7,3.7a3.973,3.973,0,0,0-.2,2.4c.1.4.7.2.6-.2-.3-.9.3-2.1.4-3a23.254,23.254,0,0,0,.5-2.8c0-.4-.5-.5-.6-.1Z" fill="#fad15b"/><path d="M87.8,236.4a14.465,14.465,0,0,1-2.3,5.6c-.2.3.3.6.5.3a12.979,12.979,0,0,0,2.3-5.7c.2-.5-.4-.6-.5-.2Z" fill="#fad15b"/><path d="M94.7,238.9l-3.8,3.8c-.3.3.2.7.4.4l3.8-3.8a.285.285,0,1,0-.4-.4Z" fill="#fad15b"/><path d="M96.7,242.3c-.7.4-1.3.8-2,1.2-.3.2,0,.7.3.5.7-.4,1.3-.8,2-1.2.3-.2,0-.7-.3-.5Z" fill="#fad15b"/><path d="M80.1,276.9c-2.5-2.1-4.7-.9-7.7-1.5-1.6-.3-2.3-1.1-3.7-1.6-2.6-.8-4.4-.4-6.3-3.3-.2-.3-.7,0-.5.3,1.8,2.8,3.2,2.6,6.2,3.5,1.5.4,2.5,1.8,4,2.2,2.9.6,4.4-1.7,7.6.9.3.2.7-.3.4-.5Z" fill="#c9a7ff"/><path d="M91.8,262.1c-.5,3.8-2.7,5.6-4.4,8.8-1.4,2.6-.9,5.5-2.9,7.8-.2.3.2.7.4.4,2.2-2.6,1.7-5.9,3.5-8.8,1.8-2.8,3.5-4.8,3.9-8.3.2-.3-.4-.3-.5.1Z" fill="#c9a7ff"/><path d="M212.3,394.1s1.9-3,7.7.5c5.8,3.6,11.3,10.6,11.3,10.6l1.6-4s-8.5-6.1-14.2-10.6-6.3-12.5-14.7-15.2-8.7,3.5-15.5-4.5c-6.8-7.9-7.7-7.9-16.6-7-8.9.8-12.2-1.5-16.8-5.7-4.6-4.3-3.9-4.8-13.3-3.3s-11,3.9-16,2.6-5.2-2.3-5.2-2.3,7.6,11.2,14.6,13.9,13.1.9,16.1,8.1,7.6,12.9,19.4,15,14.4,12.5,22.6,12.2C201.6,404.2,205.8,397.5,212.3,394.1Z" fill="#7be7ff"/><path d="M211,390.5c-7.9-2.2-16.5,3.5-23.7-1.1-3.3-2.1-5.6-4.6-9.2-6.2-2.6-1.1-5.3-1.5-7.9-2.4-4.5-1.4-6-4.5-8.2-8.2-1.1-1.8-2.2-3.5-4.1-4.4-2.8-1.3-6.5-.8-9.4-1.5-4.6-1.1-8.7-3.4-12.8-5.7-.3-.2-.6.3-.3.5a65.658,65.658,0,0,0,9.6,4.7c3.8,1.4,7.6.9,11.3,2,6.2,1.8,6.4,10.2,12.6,12.6,3.8,1.5,7.7,1.8,11.3,3.9,3,1.6,5.3,4.4,8.3,5.9,7.1,3.5,15.2-1.6,22.6.4.1.1.3-.4-.1-.5Z" fill="#3655ca"/><path d="M154.1,367.1c-3.3-.7-4-3.6-5.1-6.4a4.3,4.3,0,0,0-1.8-2.4c-1.3-.8-1.6-.4-2.5-2-.3-.6,0-.7-.5-1.1a2.362,2.362,0,0,0-2.3-.4c-.4.1-.2.6.2.6,1.9-.3,2,2,3.2,2.8.5.3.7.2,1.2.5,2,1.2,1.9,2.4,2.5,4.1.9,2.4,2.3,4.3,4.9,4.9.4,0,.5-.5.2-.6Z" fill="#3655ca"/><path d="M151.4,375.4c1.8-1.1,4,.1,5.9-.8,1.4-.6,1.1-.4,3.2-.7.7-.1.5.2,1.2-.2.3-.2,0-.7-.3-.5-.7.3-1.6-.4-2.3-.2-.7.1-1.4.8-2,1.1-2,.8-4.1-.3-6,.9-.3.1,0,.6.3.4Z" fill="#3655ca"/><path d="M159.3,370.4c-1,0-1.9.3-2.8.3a29.081,29.081,0,0,0-3-.1.3.3,0,0,0,0,.6c1-.1,2,.1,3,.1s1.9-.3,2.8-.3c.3-.1.3-.6,0-.6Z" fill="#3655ca"/><path d="M157.9,368c-1.5-2.5-3.7-4.5-4.7-7.2-.1-.3-.7-.2-.6.2,1,2.8,3.2,4.8,4.7,7.4.3.2.8-.1.6-.4Z" fill="#3655ca"/><path d="M180.8,383.8c-3.2-2.9-1.3-7.7-4.2-10.8a11.062,11.062,0,0,1-2.4-2.8c-.6-1.2-.9-2.4-1.4-3.6a5.1,5.1,0,0,0-1.9-2.2c-.3-.2-.6.3-.3.5,2.4,1.6,1.9,4.3,3.3,6.3,1.4,1.9,3,2.1,3.9,4.7,1,3,.1,5.9,2.7,8.2.1.3.5-.1.3-.3Z" fill="#3655ca"/><path d="M175.5,381.8c-1.6-1-2-3.4-2.8-5a35.017,35.017,0,0,0-2.9-4.9c-.2-.3-.7,0-.5.3a47.058,47.058,0,0,1,3.5,6.2c.7,1.4,1.1,3,2.4,3.9.3.2.6-.3.3-.5Z" fill="#3655ca"/><path d="M166.7,387.1a9.278,9.278,0,0,0,3.5-1.6,6.413,6.413,0,0,1,3.5-1.2,14.344,14.344,0,0,1,2.8-.7.3.3,0,0,0,0-.6,5.84,5.84,0,0,0-1.8.4c-1,.3-2.1.2-3.1.5a5.373,5.373,0,0,0-1.6,1,9.5,9.5,0,0,1-3.5,1.7c-.3,0-.1.6.2.5Z" fill="#3655ca"/><path d="M184.9,388c-1.4-.2-2.5-.3-3.7.6a10.887,10.887,0,0,1-3.3,2.3,23.207,23.207,0,0,1-3.8.7.3.3,0,0,0,0,.6,17.123,17.123,0,0,0,4.5-.9c2.2-1,3.2-3.2,6-2.7.5,0,.7-.5.3-.6Z" fill="#3655ca"/><path d="M198.4,390.6a8.266,8.266,0,0,1-2.9-1.6c-1.6-1.4-1.9-3.6-2.3-5.6-.3-1.5-.2-2.4-1.1-3.7-1.2-1.8-2.8-3.2-3.7-5.2-.7-1.6-.8-2.9-1.8-4.4-.2-.3-.7,0-.5.3,1.5,1.9,1.5,4.4,2.9,6.4.4.5.8.9,1.2,1.4,1.9,2.3,2,3.5,2.5,6.5.5,3.5,2.1,4.9,5.4,6.3.4.2.7-.3.3-.4Z" fill="#3655ca"/><path d="M194.1,345.6a.3.3,0,0,0,0-.6c-.4.1-.4.6,0,.6Z" fill="#3655ca"/><path d="M339.1,383.7s1.8,3.1-4.1,6.6-14.6,5-14.6,5l2.8,3.3s9.3-4.7,15.9-7.6,14,.2,20.3-6,1-9.3,11.2-11.7,10.6-3.2,13.9-11.4c3.4-8.3,6.9-10.1,12.9-12.2,5.9-2.1,6.1-1.2,9.1-10.2s1.6-11.6,5.1-15.4,4.4-3.5,4.4-3.5-13.5,1.5-19.1,6.5c-5.7,5-6.9,11.2-14.6,10.5s-14.9.7-22.3,10.2c-7.3,9.5-17.7,6.9-21.3,14.4C335.1,369.6,339.1,376.4,339.1,383.7Z" fill="#7be7ff"/><path d="M342.9,384.2c4.5-4.8,4.4-11.5,8-16.7,2.7-4,7.3-4.8,11.1-7.1a30.09,30.09,0,0,0,7-6.3c3.8-4.1,7.1-4.7,12.6-5.1a10.083,10.083,0,0,0,5.8-1.7c2.8-2.1,4.1-6,6.5-8.6,2.9-3.1,6.6-5.4,10.1-7.8.3-.2,0-.7-.3-.5a73.892,73.892,0,0,0-8.5,6.2c-2.7,2.5-4,5.3-6.3,8.1-4.2,5.1-8.2,2.8-13.4,4.1a12.088,12.088,0,0,0-5.9,3.8c-3,3.1-5.4,6-9.3,8.1-2.7,1.4-5.8,2.1-8.1,4.3-5.4,5-4.7,13.5-9.7,18.9-.3.2.1.6.4.3Z" fill="#3655ca"/><path d="M390,344.7c3.1-3.6,7.1-.5,10.7-1.9,1-.4,2-1.1,3-1.4,0,0,.6.2.8.1a2.483,2.483,0,0,0,1.9-1.8c.1-.3-.3-.6-.5-.3-.7,1.7-9.1,2.8-9.7,2.8-2.7-.1-4.8-.2-6.7,2-.1.3.3.7.5.5Z" fill="#3655ca"/><path d="M383.9,338.5c.2,2.1-1.9,3.5-2,5.7-.1,1.2.2,1.9-.6,3-.4.6-.6.6-.6,1.3a.3.3,0,0,0,.6,0c0-.7,1.1-1.3,1.3-2a17.632,17.632,0,0,0,0-2.3c.1-2.1,2.2-3.5,2-5.7-.1-.4-.7-.4-.7,0Z" fill="#3655ca"/><path d="M384.7,347.7c.5-.9.6-1.9,1.1-2.8a20.128,20.128,0,0,0,1.4-2.5c.1-.3-.4-.5-.6-.2-.4,1-1,1.7-1.5,2.7-.4.8-.5,1.7-.9,2.5-.2.4.3.7.5.3Z" fill="#3655ca"/><path d="M387.5,347.6c2.9-.2,5.7-1.2,8.6-.8.4.1.5-.5.2-.6-3-.5-5.7.6-8.7.8-.5.1-.5.7-.1.6Z" fill="#3655ca"/><path d="M362.9,360.5c4-1.3,7.7,2,11.8,1.1a21.6,21.6,0,0,1,6.2-.4,6.582,6.582,0,0,0,3.7-.5c.3-.2,0-.7-.3-.5-2.1,1-3.8,0-5.9,0s-3.8.9-5.8,1c-3.6.2-6.3-2.4-9.9-1.2-.3.1-.2.7.2.5Z" fill="#3655ca"/><path d="M367,356.8c1.7-.9,4.1-.2,5.9-.2a50.684,50.684,0,0,0,5.5-.3.3.3,0,0,0,0-.6,34.7,34.7,0,0,1-7.2.2c-1.6-.1-3-.4-4.5.3-.3.3,0,.8.3.6Z" fill="#3655ca"/><path d="M366.4,346.6a10.8,10.8,0,0,0-.2,4,18.428,18.428,0,0,1-1.2,6.3c-.2.3.3.6.5.3a2.45,2.45,0,0,0,.4-1.2,29.878,29.878,0,0,0,.9-3.2,9.15,9.15,0,0,0,.1-1.6,11.359,11.359,0,0,1,0-4.5c.2-.4-.4-.5-.5-.1Z" fill="#3655ca"/><path d="M357.2,362.2a3.865,3.865,0,0,0,1.1-3.5,9.969,9.969,0,0,1-.5-3.8,16.8,16.8,0,0,1,1.2-3.8c.1-.3-.4-.5-.6-.2a12.824,12.824,0,0,0-1.3,5.1c.1,2.2,1.2,3.8-.4,5.9-.2.3.3.6.5.3Z" fill="#3655ca"/><path d="M348.7,373c3.1-2.5,5.8-1.5,9.4-.9,2.3.4.4.5,2.8.5,1.9,0,3.6-1,5.5-1,2.2,0,3.7.8,5.9.5a.3.3,0,0,0,0-.6c-2.5.3-4.8-.7-7.3-.4-.9.1-1.9.6-2.8.7-2.2.1-4.3-1-6.3-1.5-3.2-.7-5,.2-7.6,2.2a.321.321,0,0,0,.4.5Z" fill="#3655ca"/><path d="M390.7,390.5a.3.3,0,0,0,0-.6c-.3,0-.3.6,0,.6Z" fill="#3655ca"/><path d="M177.5,394.7s10.5-4.2,16.5-2.8c6,1.5,6.1,3.3,17,.2s19.6-2.9,28,.6,17,7.8,19.8,7.5,3.4.3,3.4.3-.6,2.5-8.7,8.6-16.6,13.1-26.7,6.7c-10-6.4-26.7-17.2-32.2-17.4s-7.4-.1-11.6-.8S177.5,394.7,177.5,394.7Z" fill="#8bb73f"/><path d="M179.8,396.1c8-.8,18.5-3.5,26.1.2,2,1,3.6,2.7,5.9,3.2,2.7.5,5.3-.6,7.9-1.4,7.5-2.2,13.1,3.1,20.5,3.3,3.6.1,7.3-.5,10.9-.4s6.8,1.6,10.3,2c.3,0,.3-.4,0-.5-3.6-.4-6.7-1.9-10.3-2-3.4-.1-6.7.4-10.1.4-4.5,0-7.9-1.6-12-3.1a13.451,13.451,0,0,0-6.6-.9c-4.6.7-8.3,3.5-13,1.1-2.4-1.2-4.3-2.8-7-3.4-7.2-1.6-15.4.2-22.7,1-.2.1-.2.5.1.5Z" fill="#f3f3f3"/><path d="M240.4,401.1a18.313,18.313,0,0,0-7.5,7.6c-1.4,2.7-2.8,3.4-5.4,4.6a7.654,7.654,0,0,0-3.1,2.2c-.2.2.1.6.3.3,2-2.5,5.7-2.4,7.6-5,1.1-1.4,1.6-3.2,2.8-4.7a16.963,16.963,0,0,1,5.6-4.7c.2-.1,0-.5-.3-.3Z" fill="#f3f3f3"/><path d="M227.1,397.7c-2.6.5-3.9,1.9-5.5,3.9a13.242,13.242,0,0,1-7.9,4.7c-.3.1-.2.5.1.4a13.566,13.566,0,0,0,5.9-2.6c2.7-2.1,3.9-5.3,7.6-6,.2,0,.1-.4-.2-.4Z" fill="#f3f3f3"/><path d="M221.5,397.2c-4.3.6-4.8-4.7-4.8-7.6a.251.251,0,0,0-.5,0c0,3.3.8,8.7,5.4,8.1a.257.257,0,0,0-.1-.5Z" fill="#f3f3f3"/><path d="M229.3,391c3.2,1.5,4.5,4,5.2,7.2.4,1.8,1.9,2,3.5,1.7.3,0,.2-.5-.1-.4a5.437,5.437,0,0,1-1.8,0l-1.2-1.8c-.1-.3-.1-.7-.2-1a8.486,8.486,0,0,0-1.1-2.6,10.387,10.387,0,0,0-4-3.5.251.251,0,1,0-.3.4Z" fill="#f3f3f3"/><path d="M359.2,390s-10.5-4.2-16.5-2.8c-6,1.5-6.1,3.3-17,.2s-19.6-2.9-28,.6-17,7.8-19.8,7.5-3.4.3-3.4.3.6,2.5,8.7,8.6,16.6,13.1,26.7,6.7c10-6.4,26.7-17.2,32.2-17.4s7.4-.1,11.6-.8S359.2,390,359.2,390Z" fill="#8bb73f"/><path d="M356.9,390.9c-7-.7-14.9-2.5-21.9-1.1-3.1.6-5,2.2-7.8,3.6-4.6,2.3-8.4-.4-13-1.1-6.2-1-11.5,3.8-17.7,4-3.6.1-7.3-.5-10.9-.4s-6.7,1.6-10.3,2a.251.251,0,0,0,0,.5c3.5-.4,6.7-1.9,10.3-2,3.4-.1,6.7.4,10.1.4,7.6,0,13.8-5.5,21.3-3.3,2.5.7,5.2,1.9,7.9,1.4,2-.4,3.5-1.8,5.3-2.8,7.8-4.2,18.4-1.4,26.7-.6.3-.1.3-.6,0-.6Z" fill="#8bb73f"/><path d="M296.1,396.7a17.648,17.648,0,0,1,5,4c1.4,1.7,2,3.7,3.3,5.4,1.9,2.6,5.6,2.5,7.6,5a.212.212,0,1,0,.3-.3,7.387,7.387,0,0,0-3.1-2.2c-2.5-1.2-4.1-2-5.4-4.6a18.313,18.313,0,0,0-7.5-7.6c-.2-.2-.4.2-.2.3Z" fill="#8bb73f"/><path d="M309.5,393.4c3.6.7,4.9,3.9,7.6,6A13.707,13.707,0,0,0,323,402c.3.1.4-.4.1-.4a12.959,12.959,0,0,1-7.9-4.7c-1.6-2-2.9-3.4-5.5-3.9a.225.225,0,0,0-.2.4Z" fill="#8bb73f"/><path d="M315.1,392.9c4.6.6,5.4-4.7,5.4-8.1a.251.251,0,0,0-.5,0c0,3-.5,8.2-4.8,7.6-.2,0-.4.5-.1.5Z" fill="#8bb73f"/><path d="M307.2,385.8a9.058,9.058,0,0,0-4,3.5,9.734,9.734,0,0,0-1.1,2.3,6.108,6.108,0,0,1-.3,1.3c-.7,2.1-1.4,2.1-3,1.8-.3,0-.4.4-.1.4,1.7.2,3.1.1,3.5-1.7.7-3.2,2-5.7,5.2-7.2.3-.1.1-.5-.2-.4Z" fill="#8bb73f"/><path d="M277.2,424.8s-4.5-7.9-10.5-10.3-19.4-2.4-20.6-11.7c-1.3-9.3,14.4-2.4,18.5.4C268.8,406.2,277.7,418.7,277.2,424.8Z" fill="#5a326a"/><path d="M276.7,424.1s-7.6-15-3.1-27.3,12-9.5,12.1-2.2C285.8,401.8,276.2,417.3,276.7,424.1Z" fill="#5a326a"/><path d="M273.3,414.2a36.653,36.653,0,0,1-8.7-26.3c1.2-15.9,8.2-18.3,12-12.7s-1.6,16-1.6,16S269.7,400.4,273.3,414.2Z" fill="#f8d010"/><path d="M269.8,409.5a120.04,120.04,0,0,0-6.6-13.3c-3.2-5.2-9.5-22.7-17.4-23.7-8-1-6.4,13.5.5,19.2C253.1,397.4,264.8,399.4,269.8,409.5Z" fill="#f8d010"/><path d="M260.6,384.8a25.2,25.2,0,0,0-2.8-7.5c-2.3-4.2-4.4-6.3-1.3-8.5C259.6,366.5,263.1,379.6,260.6,384.8Z" fill="#e52864"/><path d="M249.6,401.6a.3.3,0,0,0,0-.6.3.3,0,1,0,0,.6Z" fill="#fad15b"/><path d="M252.3,400.6a.3.3,0,0,0,0-.6.3.3,0,1,0,0,.6Z" fill="#fad15b"/><path d="M251.7,404.7a.3.3,0,0,0,0-.6c-.4-.1-.4.6,0,.6Z" fill="#fad15b"/><path d="M255.7,401.9a.3.3,0,1,0,0-.6.3.3,0,0,0,0,.6Z" fill="#fad15b"/><path d="M256.3,407.1a.3.3,0,0,0,0-.6.3.3,0,0,0,0,.6Z" fill="#fad15b"/><path d="M259.6,403.8a.3.3,0,0,0,0-.6c-.5,0-.5.6,0,.6Z" fill="#fad15b"/><path d="M260.1,409.3a.3.3,0,0,0,0-.6c-.5-.1-.5.6,0,.6Z" fill="#fad15b"/><path d="M256.2,403.4a.3.3,0,0,0,0-.6.3.3,0,1,0,0,.6Z" fill="#fad15b"/><path d="M252.5,404.5a.3.3,0,0,0,0-.6.3.3,0,0,0,0,.6Z" fill="#fad15b"/><path d="M254.2,409.2a.3.3,0,0,0,0-.6.3.3,0,0,0,0,.6Z" fill="#fad15b"/><path d="M263.3,407.5a.3.3,0,0,0,0-.6c-.4-.1-.4.6,0,.6Z" fill="#fad15b"/><path d="M267.5,409.4a.3.3,0,0,0,0-.6.3.3,0,0,0,0,.6Z" fill="#fad15b"/><path d="M268.7,412.4a.3.3,0,0,0,0-.6.3.3,0,1,0,0,.6Z" fill="#fad15b"/><path d="M265.6,410.6a.3.3,0,0,0,0-.6.3.3,0,0,0,0,.6Z" fill="#fad15b"/><path d="M266,406.1a.3.3,0,0,0,0-.6.3.3,0,0,0,0,.6Z" fill="#fad15b"/><path d="M269.4,409.8a.3.3,0,0,0,0-.6c-.4-.1-.4.6,0,.6Z" fill="#fad15b"/><path d="M271,412.7a.3.3,0,0,0,0-.6.3.3,0,0,0,0,.6Z" fill="#fad15b"/><path d="M272.2,414.7a.3.3,0,0,0,0-.6.3.3,0,1,0,0,.6Z" fill="#fad15b"/><path d="M273.4,411a.3.3,0,0,0,0-.6.3.3,0,0,0,0,.6Z" fill="#fad15b"/><path d="M273.3,411.5c.1.3.1.5.2.8.1.4.7.2.6-.2-.1-.3-.1-.5-.2-.8,0-.4-.6-.2-.6.2Z" fill="#fad15b"/><path d="M274.5,414.9a.3.3,0,0,0,0-.6.3.3,0,0,0,0,.6Z" fill="#fad15b"/><path d="M274.6,415.2c0,.1.1.1.1.2.2.3.7-.1.4-.4,0-.1-.1-.1-.1-.2-.2-.4-.7.1-.4.4Z" fill="#fad15b"/><path d="M276.1,416.7a.3.3,0,0,0,0-.6c-.4-.1-.4.6,0,.6Z" fill="#fad15b"/><path d="M275.9,416.5a2.187,2.187,0,0,0,.3.5c.2.4.7,0,.5-.3a2.187,2.187,0,0,0-.3-.5c-.2-.4-.7-.1-.5.3Z" fill="#fad15b"/><path d="M277,413.4a.3.3,0,0,0,0-.6.3.3,0,0,0,0,.6Z" fill="#fad15b"/><path d="M277,413.4a.3.3,0,0,0,0-.6.3.3,0,0,0,0,.6Z" fill="#fad15b"/><path d="M275,413.3a.3.3,0,0,0,0-.6.3.3,0,0,0,0,.6Z" fill="#fad15b"/><path d="M274.8,413.2c.2.3.4.7.6,1s.8,0,.5-.3c-.2-.3-.4-.7-.6-1a.3.3,0,1,0-.5.3Z" fill="#fad15b"/><path d="M276.1,411a.3.3,0,0,0,0-.6.3.3,0,0,0,0,.6Z" fill="#fad15b"/><path d="M274.4,409.5a.3.3,0,0,0,0-.6c-.4-.1-.4.6,0,.6Z" fill="#fad15b"/><path d="M274.1,409.2c.1.4.3.8.4,1.2s.8.2.6-.2c-.1-.4-.3-.8-.4-1.2-.1-.3-.7-.2-.6.2Z" fill="#fad15b"/><path d="M273.7,406.6a.3.3,0,0,0,0-.6c-.4-.1-.4.6,0,.6Z" fill="#fad15b"/><path d="M277.5,404.1a.3.3,0,0,0,0-.6c-.5,0-.5.6,0,.6Z" fill="#fad15b"/><path d="M274.9,401.6a.3.3,0,0,0,0-.6.3.3,0,0,0,0,.6Z" fill="#fad15b"/><path d="M276.2,406.7a.3.3,0,0,0,0-.6.3.3,0,1,0,0,.6Z" fill="#fad15b"/><path d="M278,410.2a.3.3,0,0,0,0-.6.3.3,0,0,0,0,.6Z" fill="#fad15b"/><path d="M281.7,404.4a.3.3,0,0,0,0-.6.3.3,0,1,0,0,.6Z" fill="#fad15b"/><path d="M270,404.7a.3.3,0,0,0,0-.6.3.3,0,0,0,0,.6Z" fill="#fad15b"/><path d="M270.4,407.2a.3.3,0,0,0,0-.6c-.4-.1-.4.6,0,.6Z" fill="#fad15b"/><path d="M268.6,402.6a.3.3,0,0,0,0-.6c-.4-.1-.4.6,0,.6Z" fill="#fad15b"/><path d="M270.3,402.5a.3.3,0,0,0,0-.6c-.4-.1-.4.6,0,.6Z" fill="#fad15b"/><path d="M269.6,402.9a.3.3,0,0,0,0-.6c-.4-.1-.4.6,0,.6Z" fill="#fad15b"/><path d="M269.2,403.1a1.421,1.421,0,0,0-.2.6c-.1.4.5.5.6.2a1.421,1.421,0,0,0,.2-.6c.2-.4-.4-.5-.6-.2Z" fill="#fad15b"/><path d="M269,400.8a.3.3,0,0,0,0-.6c-.4-.1-.4.6,0,.6Z" fill="#fad15b"/><path d="M267.7,400.6a.3.3,0,0,0,0-.6.3.3,0,1,0,0,.6Z" fill="#fad15b"/><path d="M267.8,395.6a.3.3,0,0,0,0-.6c-.4-.1-.4.6,0,.6Z" fill="#fad15b"/><path d="M271.8,394.4a.3.3,0,0,0,0-.6.3.3,0,0,0,0,.6Z" fill="#fad15b"/><path d="M270.6,397.8a.3.3,0,0,0,0-.6c-.4-.1-.4.6,0,.6Z" fill="#fad15b"/><path d="M262.3,396a.3.3,0,0,0,0-.6c-.4-.1-.4.6,0,.6Z" fill="#fad15b"/><path d="M265.5,400.3a.3.3,0,0,0,0-.6.3.3,0,0,0,0,.6Z" fill="#fad15b"/></g></svg>