<svg width="25" height="25" viewBox="0 0 25 25" fill="none" xmlns="http://www.w3.org/2000/svg">
<path d="M13.741 17.4135C13.541 17.2135 13.445 16.9718 13.453 16.6885C13.4617 16.4051 13.566 16.1635 13.766 15.9635L16.591 13.1385H5.44104C5.15771 13.1385 4.92004 13.0425 4.72804 12.8505C4.53671 12.6591 4.44104 12.4218 4.44104 12.1385C4.44104 11.8551 4.53671 11.6175 4.72804 11.4255C4.92004 11.2341 5.15771 11.1385 5.44104 11.1385H16.591L13.741 8.28848C13.541 8.08848 13.441 7.85081 13.441 7.57548C13.441 7.30081 13.541 7.06348 13.741 6.86348C13.941 6.66348 14.1787 6.56348 14.454 6.56348C14.7287 6.56348 14.966 6.66348 15.166 6.86348L19.741 11.4385C19.841 11.5385 19.912 11.6468 19.954 11.7635C19.9954 11.8801 20.016 12.0051 20.016 12.1385C20.016 12.2718 19.9954 12.3968 19.954 12.5135C19.912 12.6301 19.841 12.7385 19.741 12.8385L15.141 17.4385C14.9577 17.6218 14.7287 17.7135 14.454 17.7135C14.1787 17.7135 13.941 17.6135 13.741 17.4135Z" fill="#8BB73F"/>
</svg>
