<svg width="33" height="33" viewBox="0 0 33 33" fill="none" xmlns="http://www.w3.org/2000/svg">
<path d="M29.5464 28.5066L23.4873 22.4822C25.347 20.3737 26.3731 17.7057 26.3731 14.8752C26.3731 11.7855 25.1628 8.88104 22.9657 6.69649C20.7686 4.51194 17.8474 3.30859 14.74 3.30859C11.6325 3.30859 8.7114 4.51194 6.5143 6.69649C4.3172 8.88104 3.10693 11.7855 3.10693 14.8752C3.10693 17.9649 4.3172 20.8693 6.5143 23.0539C8.7114 25.2384 11.6325 26.4418 14.74 26.4418C17.5868 26.4418 20.2701 25.4216 22.3907 23.5725L28.4497 29.597C28.6012 29.7476 28.7996 29.8229 28.9981 29.8229C29.1965 29.8229 29.3949 29.7476 29.5464 29.597C29.8493 29.2958 29.8493 28.8078 29.5464 28.5066ZM7.61096 21.9635C5.70695 20.07 4.65801 17.5526 4.65801 14.8752C4.65801 12.1978 5.70695 9.68039 7.61096 7.78689C9.51534 5.89376 12.0472 4.85081 14.74 4.85081C17.4328 4.85081 19.9646 5.89376 21.869 7.78689C23.773 9.68039 24.822 12.1978 24.822 14.8752C24.822 17.5526 23.773 20.07 21.869 21.9635C19.9646 23.8566 17.4328 24.8996 14.74 24.8996C12.0472 24.8996 9.51534 23.8566 7.61096 21.9635Z" fill="black"/>
</svg>
