<svg id="Group_24706" data-name="Group 24706" xmlns="http://www.w3.org/2000/svg" xmlns:xlink="http://www.w3.org/1999/xlink" width="116.68" height="90.095" viewBox="0 0 116.68 90.095">
  <defs>
    <clipPath id="clip-path">
      <path id="path28" d="M2179.3-4118.476h0V-4155.4h0v3.715a14.061,14.061,0,0,0,9.251,7.837c-.067,2.042-.11,4.347-.11,6.911a164.68,164.68,0,0,1-.825,17.484,63.263,63.263,0,0,1-8.316-1.154v2.133m19.864-.51c-4.331,0-7.969-.177-10.9-.415a165.561,165.561,0,0,0,.827-17.539c0-2.5.04-4.759.1-6.762a15.329,15.329,0,0,0,1.983.276q.345.025.7.025c8.184,0,18.729-10.238,20.293-11.8,2.512-.108,4.06-.2,4.06-.2v35.8s-3.97.619-17.064.619m12.32-3.219v2.6h3.12v-2.6h-3.12m-4.681,0v2.6h3.121v-2.6H2206.8m-10.409-9.161-.007.178,13.673,1.5.027-.693-.354-.032.008-.185-13.684-1.24-.017.434.354.039m-.79-3.906v.214l15.257.152v-.353l-.347,0v-.213l-15.257-.134v.334l.347,0m.477-3.623v.217h14.3v-.306l-.347-.007v-.209l-14.3-.306v.612h.347m-.824-3.91v.23l15.95-.607v-.65l-.346.02v-.237l-15.95.911v.347l.346-.013" transform="translate(-2179.301 4155.403)"/>
    </clipPath>
    <linearGradient id="linear-gradient" x1="-1.385" y1="2.64" x2="-1.384" y2="2.64" gradientUnits="objectBoundingBox">
      <stop offset="0" stop-color="#b89a58"/>
      <stop offset="1" stop-color="#a48644"/>
    </linearGradient>
    <clipPath id="clip-path-2">
      <path id="path58" d="M2859.46-3660.894v-.23l15.6-.594v-.414l.347-.02v.65l-15.95.607" transform="translate(-2859.46 3662.151)"/>
    </clipPath>
    <linearGradient id="linear-gradient-2" x1="-4.206" y1="68.358" x2="-4.206" y2="68.358" gradientUnits="objectBoundingBox">
      <stop offset="0" stop-color="#a98c4d"/>
      <stop offset="1" stop-color="#9a7d3e"/>
    </linearGradient>
    <clipPath id="clip-path-3">
      <path id="path76" d="M2908.87-3455.518h-14.3v-.217h13.956v-.1l.347.008v.306" transform="translate(-2894.566 3455.832)"/>
    </clipPath>
    <linearGradient id="linear-gradient-3" x1="-4.748" y1="258.668" x2="-4.748" y2="258.668" xlink:href="#linear-gradient-2"/>
    <clipPath id="clip-path-4">
      <path id="path94" d="M2889.5-3296.933l-15.256-.152v-.213l14.91.148v-.138l.347,0v.353" transform="translate(-2874.246 3297.299)"/>
    </clipPath>
    <linearGradient id="linear-gradient-4" x1="-4.42" y1="211.73" x2="-4.42" y2="211.73" xlink:href="#linear-gradient-2"/>
    <clipPath id="clip-path-5">
      <path id="path112" d="M2921.294-3129.169l-13.674-1.5.007-.178,13.319,1.46.021-.508.354.032-.027.693" transform="translate(-2907.62 3130.846)"/>
    </clipPath>
    <linearGradient id="linear-gradient-5" x1="-4.979" y1="43.792" x2="-4.979" y2="43.792" xlink:href="#linear-gradient-2"/>
    <clipPath id="clip-path-6">
      <path id="path158" d="M3354.712-2737.766h-3.121v-2.6h3.121v2.6" transform="translate(-3351.591 2740.367)"/>
    </clipPath>
    <linearGradient id="linear-gradient-6" x1="-25.197" y1="24.721" x2="-25.196" y2="24.721" gradientUnits="objectBoundingBox">
      <stop offset="0" stop-color="#a08446"/>
      <stop offset="1" stop-color="#94783a"/>
    </linearGradient>
    <clipPath id="clip-path-7">
      <path id="path174" d="M3554.233-2737.766h-3.121v-2.6h3.121v2.6" transform="translate(-3551.112 2740.367)"/>
    </clipPath>
    <linearGradient id="linear-gradient-7" x1="-26.697" y1="24.721" x2="-26.696" y2="24.721" xlink:href="#linear-gradient-6"/>
    <clipPath id="clip-path-8">
      <path id="path238" d="M2191.875-4143.4q-.35,0-.7-.025a15.415,15.415,0,0,1-1.983-.276c.2-6.313.642-10.117.793-11.275,2.388.081,4.85.113,7.267.113,5.8,0,11.335-.187,14.912-.34-1.564,1.565-12.109,11.8-20.293,11.8m-3.324-.45a14.061,14.061,0,0,1-9.251-7.837v-3.715h3.591c2,.188,4.184.318,6.446.4-.159,1.237-.584,5-.786,11.149" transform="translate(-2179.301 4155.403)"/>
    </clipPath>
    <linearGradient id="linear-gradient-8" x1="-1.556" y1="8.122" x2="-1.556" y2="8.122" gradientUnits="objectBoundingBox">
      <stop offset="0" stop-color="#bca166"/>
      <stop offset="1" stop-color="#b09559"/>
    </linearGradient>
    <clipPath id="clip-path-9">
      <path id="path256" d="M2534.4-3638.542l-.648-.054a164.575,164.575,0,0,0,.825-17.484c0-2.564.042-4.869.11-6.911.211.053.426.1.646.149-.064,2-.1,4.259-.1,6.762a165.545,165.545,0,0,1-.827,17.538" transform="translate(-2533.754 3662.991)"/>
    </clipPath>
    <linearGradient id="linear-gradient-9" x1="-37.623" y1="3.515" x2="-37.621" y2="3.515" xlink:href="#linear-gradient-6"/>
    <clipPath id="clip-path-10">
      <path id="path274" d="M2574.239-4126.905q-.329-.068-.646-.149c.2-6.15.627-9.911.786-11.148l.652.023c-.15,1.158-.59,4.961-.793,11.275" transform="translate(-2573.594 4138.203)"/>
    </clipPath>
    <linearGradient id="linear-gradient-10" x1="-41.979" y1="8.593" x2="-41.977" y2="8.593" gradientUnits="objectBoundingBox">
      <stop offset="0" stop-color="#a3894f"/>
      <stop offset="1" stop-color="#9c8147"/>
    </linearGradient>
  </defs>
  <path id="path14" d="M5285.924-1354.084l-6.189-2.76,3.717-5.256-1.835-1.71-3.027,6.4-4.863-2.064-.634,1.116,5,2.125-3.9,6.209,1.476-.106,3.564-5.538,6.089,3.3.593-1.722" transform="translate(-5169.244 1439.423)" fill="#8bb73f"/>
  <path id="path16" d="M851.215-1239.064s-2.8-5.591,0-5.591S851.215-1239.064,851.215-1239.064Zm0-7.346a4.551,4.551,0,0,0-4.551,4.551,4.551,4.551,0,0,0,4.551,4.551,4.551,4.551,0,0,0,4.551-4.551,4.551,4.551,0,0,0-4.551-4.551" transform="translate(-846.665 1324.778)" fill="#8bb73f"/>
  <path id="path18" d="M1224.647-1406.057l-1.034-.446a19.941,19.941,0,0,1,1.142-2.134l.965.58a19.309,19.309,0,0,0-1.074,2" transform="translate(-1214.77 1483.199)" fill="#777"/>
  <path id="path20" d="M1428.469-2349.829l-.029-1.126c.691-.018,1.4-.026,2.1-.026.869,0,1.729.008,2.555.023l-.021,1.126c-.819-.016-1.672-.024-2.534-.024C1429.847-2349.855,1429.15-2349.846,1428.469-2349.829Zm13.781.587c-1.444-.173-2.984-.31-4.577-.409l.07-1.124c1.614.1,3.176.239,4.641.414Zm-22.927.209-.171-1.114c1.507-.231,3.066-.417,4.633-.552l.1,1.122C1422.339-2349.443,1420.805-2349.26,1419.323-2349.032Zm31.9,1.573c-1.409-.415-2.9-.777-4.443-1.078l.216-1.105c1.574.308,3.1.679,4.545,1.1Zm-40.831.482-.338-1.075c1.46-.458,2.978-.869,4.511-1.22l.251,1.1C1413.313-2347.83,1411.824-2347.427,1410.392-2346.977Zm49.238,3.022a40.859,40.859,0,0,0-4.1-1.986l.433-1.039a41.95,41.95,0,0,1,4.218,2.04Zm-57.695.465-.522-1c1.363-.713,2.791-1.377,4.243-1.974l.428,1.042C1404.664-2344.836,1403.268-2344.187,1401.935-2343.49Zm65.214,4.727c-1.246-1.026-2.439-1.933-3.645-2.773l.643-.924c1.232.856,2.448,1.782,3.718,2.828Zm-72.858.274-.708-.876a46.358,46.358,0,0,1,3.789-2.757l.616.943A45.169,45.169,0,0,0,1394.291-2338.489Zm79.622,5.957c-1.173-1.177-2.256-2.225-3.311-3.2l.766-.826c1.065.988,2.158,2.045,3.343,3.233Zm-86.062.5-.881-.7a41.816,41.816,0,0,1,3.127-3.5l.8.8a40.653,40.653,0,0,0-3.043,3.405" transform="translate(-1374.293 2403.434)" fill="#777"/>
  <path id="path22" d="M5233.045-1452.276c-.557-.6-1.1-1.17-1.6-1.706l.816-.775c.51.538,1.052,1.114,1.61,1.713l-.823.768" transform="translate(-5128.57 1528.236)" fill="#777"/>
  <g id="g26" transform="translate(31.265 10.119)" clip-path="url(#clip-path)">
    <path id="path38" d="M2179.3-4118.476h0V-4155.4h0v3.715a14.061,14.061,0,0,0,9.251,7.837c-.067,2.042-.11,4.347-.11,6.911a164.68,164.68,0,0,1-.825,17.484,63.263,63.263,0,0,1-8.316-1.154v2.133m19.864-.51c-4.331,0-7.969-.177-10.9-.415a165.561,165.561,0,0,0,.827-17.539c0-2.5.04-4.759.1-6.762a15.329,15.329,0,0,0,1.983.276q.345.025.7.025c8.184,0,18.729-10.238,20.293-11.8,2.512-.108,4.06-.2,4.06-.2v35.8s-3.97.619-17.064.619m12.32-3.219v2.6h3.12v-2.6h-3.12m-4.681,0v2.6h3.121v-2.6H2206.8m-10.409-9.161-.007.178,13.673,1.5.027-.693-.354-.032.008-.185-13.684-1.24-.017.434.354.039m-.79-3.906v.214l15.257.152v-.353l-.347,0v-.213l-15.257-.134v.334l.347,0m.477-3.623v.217h14.3v-.306l-.347-.007v-.209l-14.3-.306v.612h.347m-.824-3.91v.23l15.95-.607v-.65l-.346.02v-.237l-15.95.911v.347l.346-.013" transform="translate(-2179.301 4155.403)" fill="url(#linear-gradient)"/>
  </g>
  <path id="path40" d="M2216.229-4418.795l13.523-6.328h-36.928l-13.523,6.328h36.928" transform="translate(-2148.037 4428.914)" fill="#dbc186"/>
  <path id="path42" d="M3753.3-4381.867l13.523-6.328v-36.927l-13.523,6.328v36.928" transform="translate(-3685.105 4428.914)" fill="#917433"/>
  <path id="path44" d="M3753.3-4418.795l4.594,17.25,4.594-2.34,4.334-21.238-13.522,6.328" transform="translate(-3685.104 4428.914)" fill="#a48644"/>
  <path id="path46" d="M2844.687-3670.468l15.95-.91v.65l-15.95.607v-.347" transform="translate(-2797.811 3692.853)" fill="#5c471b"/>
  <path id="path48" d="M2879.793-3477.8v.612h14.3v-.306l-14.3-.306" transform="translate(-2832.094 3503.822)" fill="#5c471b"/>
  <path id="path50" d="M2859.46-3311.7v.334l15.257.152v-.352l-15.257-.134" transform="translate(-2812.237 3341.612)" fill="#5c471b"/>
  <path id="path52" d="M2892.864-3150.952l-.017.433,13.673,1.5.028-.693-13.684-1.24" transform="translate(-2844.841 3184.638)" fill="#5c471b"/>
  <g id="g56" transform="translate(47.222 21.692)" clip-path="url(#clip-path-2)">
    <path id="path68" d="M2859.46-3660.894v-.23l15.6-.594v-.414l.347-.02v.65l-15.95.607" transform="translate(-2859.46 3662.151)" fill="url(#linear-gradient-2)"/>
  </g>
  <path id="path70" d="M2859.46-3660.291v-.117l15.6-.89v.414l-15.6.594" transform="translate(-2812.237 3683.01)" fill="#654f1f"/>
  <g id="g74" transform="translate(48.046 26.532)" clip-path="url(#clip-path-3)">
    <path id="path86" d="M2908.87-3455.518h-14.3v-.217h13.956v-.1l.347.008v.306" transform="translate(-2894.566 3455.832)" fill="url(#linear-gradient-3)"/>
  </g>
  <path id="path88" d="M2908.523-3468.17h-13.957v-.4l13.957.3v.1" transform="translate(-2846.52 3494.799)" fill="#654f1f"/>
  <g id="g92" transform="translate(47.569 30.252)" clip-path="url(#clip-path-4)">
    <path id="path104" d="M2889.5-3296.933l-15.256-.152v-.213l14.91.148v-.138l.347,0v.353" transform="translate(-2874.246 3297.299)" fill="url(#linear-gradient-4)"/>
  </g>
  <path id="path106" d="M2889.156-3302.2l-14.91-.149v-.121l14.91.131v.139" transform="translate(-2826.677 3332.603)" fill="#654f1f"/>
  <g id="g110" transform="translate(48.352 34.157)" clip-path="url(#clip-path-5)">
    <path id="path122" d="M2921.294-3129.169l-13.674-1.5.007-.178,13.319,1.46.021-.508.354.032-.027.693" transform="translate(-2907.62 3130.846)" fill="url(#linear-gradient-5)"/>
  </g>
  <path id="path124" d="M2921.245-3140l-13.319-1.461.01-.255,13.33,1.207-.02.509" transform="translate(-2859.567 3175.615)" fill="#654f1f"/>
  <path id="path126" d="M2179.3-2672.34s6.771,1.623,19.864,1.623,17.063-.618,17.063-.618v1.129H2179.3v-2.133" transform="translate(-2148.036 2717.254)" fill="#917433"/>
  <path id="path128" d="M3753.3-4381.867l4.091-19.677-4.091-17.25,4.594,17.25,4.594-2.34,4.334-21.238-3.667,20.988,3.667,15.939-13.522,6.328" transform="translate(-3685.104 4428.914)" fill="#7d642c"/>
  <path id="path130" d="M3753.3-3497.881l4.594-19.677,4.594-2.341,4.334,15.69-13.522,6.328" transform="translate(-3685.104 3544.928)" fill="#a48644"/>
  <path id="path132" d="M3949.124-3517.558a19.258,19.258,0,0,0,4.594-2.341,24.039,24.039,0,0,0-4.594,2.341" transform="translate(-3876.337 3544.928)" fill="#7d642c"/>
  <path id="path134" d="M3757.892-3420.139l-4.594,19.677s4.594-14.313,4.594-19.677" transform="translate(-3685.105 3447.508)" fill="#c4ae7e"/>
  <path id="path136" d="M3786.9-4029.244l3.286,12.34a64.749,64.749,0,0,0-3.286-12.34" transform="translate(-3717.917 4042.324)" fill="#c4ae7e"/>
  <path id="path138" d="M4152.095-3989.644l-2.132,10.444a82.231,82.231,0,0,1,2.132-10.444" transform="translate(-4072.464 4003.652)" fill="#c4ae7e"/>
  <path id="path140" d="M4007.271-3640.464v-.118l.052.091-.052.028m1.389-.7a25.625,25.625,0,0,0,.375-2.78c-.007-.023-.013-.047-.02-.07s-.007-.024-.01-.036c0,.012.007.024.01.036a2.074,2.074,0,0,1,.086.588v2.061q-.212.095-.441.2m-.044-1.862h0a.928.928,0,0,0,.147-.544q.03-.515.062-1.029l.013.007-.013-.007q-.031.514-.062,1.029a.928.928,0,0,1-.147.544m-.5-.189a2.924,2.924,0,0,1-.385-1.128.965.965,0,0,0-.164-.541h0a.965.965,0,0,1,.164.541,2.924,2.924,0,0,0,.385,1.128,1.965,1.965,0,0,0,.144-.645h0a1.965,1.965,0,0,1-.144.645m.146-.646h0" transform="translate(-3933.119 3666.981)" fill="#cfbf9c"/>
  <path id="path142" d="M4007.871-3476.423c-.11-.362-.284-1.029-.432-1.573a4.8,4.8,0,0,1-.168-1.263v-2.114l.215-.1c.171.232.35.384.53.384a.3.3,0,0,0,.058-.005c.2-.037.36-.4.5-.915.188-.1.366-.2.532-.293v2.382c0,.119,0,.237.011.354.059.811-.142,1.219-.027,1.724a3.936,3.936,0,0,1-.418-.937.788.788,0,0,0-.177-.37,2.161,2.161,0,0,0-.217,1.042c-.164-.168-.108-.574-.318-.639-.134.474.127.986.075,1.482a7.719,7.719,0,0,0-.16.837" transform="translate(-3933.119 3508.209)" fill="#cfbf9c"/>
  <path id="path144" d="M4007.271-3493.677v-.32l.052-.028a2.939,2.939,0,0,0,.164.251l-.215.1m1.3-.632c.032-.121.062-.251.091-.388q.229-.107.441-.2v.3c-.166.094-.344.193-.532.294" transform="translate(-3933.119 3520.514)" fill="#baad8f"/>
  <path id="path146" d="M4049.786-3630.839q-.127-.376-.254-.754c-.014-.042-.048-.091-.079-.091a.032.032,0,0,0-.021.008.032.032,0,0,1,.021-.008c.031,0,.065.049.079.091q.127.377.254.754h0m-.356-.834h0m.745-.19a1.552,1.552,0,0,1-.045-.248c-.009-.114-.038-.245-.123-.293.084.048.113.179.123.293a1.552,1.552,0,0,0,.045.248" transform="translate(-3974.289 3654.794)" fill="#bda878"/>
  <path id="path148" d="M4006.932-3640.492c-.017-.03-.035-.06-.052-.091v-2.035h0c0-.062,0-.123-.007-.185,0-.025,0-.051,0-.078,0-.56.307-1.373.308-1.915,0-.031,0-.06,0-.088a.963.963,0,0,1,.164.541,2.937,2.937,0,0,0,.384,1.128,1.965,1.965,0,0,0,.145-.645h0a.031.031,0,0,1,.021-.009c.032,0,.065.049.079.091l.254.754h0a.925.925,0,0,0,.147-.544q.031-.514.062-1.028l.013.006c.084.048.114.18.123.294a1.557,1.557,0,0,0,.045.248c0,.012.007.024.01.036s.013.047.02.07a25.561,25.561,0,0,1-.375,2.78c-.426.2-.888.427-1.337.672" transform="translate(-3932.728 3666.981)" fill="#dcd1b8"/>
  <path id="path150" d="M4016.973-3468.872c-.179,0-.359-.152-.53-.385.39-.178.753-.36,1.083-.535-.136.518-.3.878-.5.915a.29.29,0,0,1-.058.005" transform="translate(-3942.077 3495.996)" fill="#dcd1b8"/>
  <path id="path152" d="M4009.635-3485.389a2.851,2.851,0,0,1-.164-.251c.45-.245.912-.472,1.338-.671-.029.136-.06.266-.091.388-.33.176-.693.357-1.083.535" transform="translate(-3935.267 3512.129)" fill="#cdc4ae"/>
  <g id="g156" transform="translate(58.768 43.318)" clip-path="url(#clip-path-6)">
    <path id="path168" d="M3354.712-2737.766h-3.121v-2.6h3.121v2.6" transform="translate(-3351.591 2740.367)" fill="url(#linear-gradient-6)"/>
  </g>
  <g id="g172" transform="translate(63.449 43.318)" clip-path="url(#clip-path-7)">
    <path id="path184" d="M3554.233-2737.766h-3.121v-2.6h3.121v2.6" transform="translate(-3551.112 2740.367)" fill="url(#linear-gradient-7)"/>
  </g>
  <path id="path186" d="M3347.512-2745.073h-3.121v-2.6h3.121v2.6" transform="translate(-3285.792 2790.82)" fill="#f0e1bb"/>
  <path id="path188" d="M3344.592-2747.673l-.2.2v.289l.49-.49h-.289" transform="translate(-3285.792 2790.819)" fill="#458961"/>
  <path id="path190" d="M3345.575-2747.673l-1.183,1.183v.289l1.472-1.472h-.289" transform="translate(-3285.792 2790.819)" fill="#458961"/>
  <path id="path192" d="M3346.557-2747.673l-2.166,2.165v.289l2.455-2.454h-.289" transform="translate(-3285.792 2790.819)" fill="#458961"/>
  <path id="path194" d="M3370.3-2746.514l-2.573,2.573h.289l2.284-2.284v-.289" transform="translate(-3308.578 2789.687)" fill="#458961"/>
  <path id="path196" d="M3411.2-2704.647l-1.591,1.591h.289l1.3-1.3v-.289" transform="translate(-3349.476 2748.803)" fill="#458961"/>
  <path id="path198" d="M3452.08-2662.767l-.608.608h.289l.319-.319v-.289" transform="translate(-3390.36 2707.905)" fill="#458961"/>
  <path id="path200" d="M3547.045-2745.073h-3.121v-2.6h3.121v2.6" transform="translate(-3480.644 2790.82)" fill="#f0e1bb"/>
  <path id="path202" d="M3544.05-2747.673l-.125.125v.289l.414-.414h-.289" transform="translate(-3480.644 2790.819)" fill="#ff4a29"/>
  <path id="path204" d="M3545.033-2747.673l-1.108,1.107v.289l1.4-1.4h-.289" transform="translate(-3480.644 2790.819)" fill="#ff4a29"/>
  <path id="path206" d="M3546.015-2747.673l-2.09,2.09v.289l2.379-2.379h-.289" transform="translate(-3480.644 2790.819)" fill="#ff4a29"/>
  <path id="path208" d="M3566.693-2747.673h-.048l-2.6,2.6h.289l2.36-2.36v-.241" transform="translate(-3500.291 2790.819)" fill="#ff4a29"/>
  <path id="path210" d="M3607.578-2707.847l-1.666,1.666h.289l1.377-1.377v-.289" transform="translate(-3541.177 2751.927)" fill="#ff4a29"/>
  <path id="path212" d="M3648.475-2665.967l-.684.684h.289l.395-.4v-.289" transform="translate(-3582.074 2711.031)" fill="#ff4a29"/>
  <path id="path214" d="M2179.3-3925.623v-21.021s.83,16.684,0,21.021" transform="translate(-2148.036 3961.661)" fill="#c4ae7e"/>
  <path id="path216" d="M3732.5-4069.254v-30.91a242.318,242.318,0,0,0,0,30.91" transform="translate(-3664.307 4111.579)" fill="#c4ae7e"/>
  <path id="path218" d="M3753.3-4418.795l13.523-6.328s-10.073,3.674-13.523,6.328" transform="translate(-3685.105 4428.914)" fill="#f0e1bb"/>
  <path id="path220" d="M3212.739-4425.123h19.518s-14.317.423-19.518,0" transform="translate(-3157.228 4428.914)" fill="#fce1b1"/>
  <path id="path222" d="M3294.794-4377.419h-10.749l10.142-4.29h10.142l-9.536,4.29" transform="translate(-3226.861 4386.519)" fill="#c3a86c"/>
  <path id="path224" d="M3284.045-4382.045h10.749l9.536-4.291h-10.142l-10.142,4.291" transform="translate(-3226.861 4391.037)" fill="#fff"/>
  <path id="path226" d="M3439.645-4345.492l6.917-2.692.076,0-6.806,2.684-.187.013" transform="translate(-3378.811 4353.786)" fill="#333"/>
  <path id="path228" d="M3531.4-4352.376l6.964-2.7.159-.011-6.993,2.7-.13.009" transform="translate(-3468.417 4360.518)" fill="#333"/>
  <path id="path230" d="M3653.7-4352.124l5.255-2.485.1-.007-5.241,2.484-.115.008" transform="translate(-3587.842 4360.062)" fill="#333"/>
  <path id="path232" d="M3712.991-4359.345l6.278-2.558.1-.007-6.221,2.554-.158.011" transform="translate(-3645.744 4367.183)" fill="#333"/>
  <g id="g236" transform="translate(31.265 10.119)" clip-path="url(#clip-path-8)">
    <path id="path248" d="M2191.875-4143.4q-.35,0-.7-.025a15.415,15.415,0,0,1-1.983-.276c.2-6.313.642-10.117.793-11.275,2.388.081,4.85.113,7.267.113,5.8,0,11.335-.187,14.912-.34-1.564,1.565-12.109,11.8-20.293,11.8m-3.324-.45a14.061,14.061,0,0,1-9.251-7.837v-3.715h3.591c2,.188,4.184.318,6.446.4-.159,1.237-.584,5-.786,11.149" transform="translate(-2179.301 4155.403)" fill="url(#linear-gradient-8)"/>
  </g>
  <path id="path250" d="M2332.368-4155.4H2365.7s-20.462,1.214-33.337,0" transform="translate(-2297.511 4165.523)" fill="#f0e1bb"/>
  <g id="g254" transform="translate(39.581 21.672)" clip-path="url(#clip-path-9)">
    <path id="path266" d="M2534.4-3638.542l-.648-.054a164.575,164.575,0,0,0,.825-17.484c0-2.564.042-4.869.11-6.911.211.053.426.1.646.149-.064,2-.1,4.259-.1,6.762a165.545,165.545,0,0,1-.827,17.538" transform="translate(-2533.754 3662.991)" fill="url(#linear-gradient-9)"/>
  </g>
  <path id="path268" d="M2529.556-2622.2h-.655c.031-.251.07-.579.114-.98l.648.054q-.062.556-.107.926" transform="translate(-2489.433 2669.248)" fill="#896e30"/>
  <g id="g272" transform="translate(40.516 10.523)" clip-path="url(#clip-path-10)">
    <path id="path284" d="M2574.239-4126.905q-.329-.068-.646-.149c.2-6.15.627-9.911.786-11.148l.652.023c-.15,1.158-.59,4.961-.793,11.275" transform="translate(-2573.594 4138.203)" fill="url(#linear-gradient-10)"/>
  </g>
  <path id="path286" d="M2610.4-4418.795h-.981c0-.029.006-.046.007-.049a.327.327,0,0,1,.158-.231c.13-.076,1.261-.732,2.868-1.616l.006,0,.2-.108.038-.021.174-.1.049-.026.171-.093.05-.027.173-.094.052-.029.186-.1.038-.02.213-.116.017-.009c.4-.214.81-.434,1.234-.657l.016-.008.238-.125.02-.01c.08-.042.159-.083.239-.125l.018-.009.249-.129.008,0c1.851-.958,3.832-1.926,5.522-2.621h1.854a31.419,31.419,0,0,0-3.062,1.234h0l-.186.085-.031.014-.174.081-.044.02-.169.08-.049.023-.169.08-.05.023-.17.081-.049.023-.173.083-.044.021-.181.087-.026.012c-.421.2-.847.415-1.271.628l-.023.012-.186.094-.039.02-.177.09-.047.023-.17.087-.055.028-.167.085-.054.027-.167.086-.052.027-.17.088c-.014.006-.027.014-.04.021l-.18.094-.017.008q-.416.217-.819.43l0,0-.176.093-.037.02-.16.085-.051.027-.152.082-.055.029-.147.079-.057.031-.145.078-.052.028-.149.081-.042.023-.155.083-.029.016-.165.09h0c-1.338.728-2.432,1.346-3.027,1.686" transform="translate(-2568.064 4428.914)" fill="#b59c62"/>
  <path id="path288" d="M2607.753-4154.977q-.327-.01-.652-.023c.026-.2.045-.336.055-.4h.981l-.353.2c-.008.058-.018.133-.03.224" transform="translate(-2565.799 4165.523)" fill="#c2af82"/>
  <path id="path290" d="M2519.591-4155.2c.083-.048.2-.117.354-.2h-.981a141.135,141.135,0,0,0-.95,18.463,156.631,156.631,0,0,1-.938,18.464h.655a157.982,157.982,0,0,0,.934-18.464,143.339,143.339,0,0,1,.928-18.261" transform="translate(-2477.885 4165.523)" fill="#458961"/>
  <path id="path292" d="M2597.587-4418.844s0,.02-.007.049h.981c1.923-1.1,9.036-5.093,12.814-6.328h-1.855a122.857,122.857,0,0,0-11.775,6.047.325.325,0,0,0-.158.231" transform="translate(-2556.502 4428.914)" fill="#8bb73f"/>
  <path id="path294" d="M2518.013-4136.939a156.452,156.452,0,0,1-.939,18.463h.655a157.936,157.936,0,0,0,.934-18.463,143.363,143.363,0,0,1,.928-18.262l.353-.2h-.981a141.184,141.184,0,0,0-.95,18.464" transform="translate(-2477.884 4165.522)" fill="#8bb73f"/>
  <path id="path296" d="M2734.994-4411.15c-2.677,1.166-5.875,2.86-8.134,4.1l1.21-.145-.234.356c1.979-1.077,4.494-2.394,6.724-3.407a3.747,3.747,0,0,0,.434-.908" transform="translate(-2682.748 4415.269)" fill="#75a227"/>
  <path id="path298" d="M2459.178-4579.371c-1.927.05-3.3-.383-4.084-1.29-.271-.313-.687-.92-.437-1.471.235-.518.915-.647,1.549-.706q.163-.015.328-.015a4.063,4.063,0,0,1,2.563.951,20.124,20.124,0,0,0,3.105,2.121A15.288,15.288,0,0,1,2459.178-4579.371Zm5.774-5.461a3.948,3.948,0,0,1,2.376-1.261h.017c.7.007.927.288,1.037.5.375.716-.364,1.949-.6,2.311a8.445,8.445,0,0,1-4.346,3.164C2463.416-4581.1,2463.517-4583.556,2464.953-4584.832Zm4.2,6.559a.325.325,0,0,0-.393-.238c-1.686.416-2.639.412-3.5-.727a1.972,1.972,0,0,0-.742-.61,8.617,8.617,0,0,0,3.814-3.082c.452-.694,1.136-2,.63-2.967a1.674,1.674,0,0,0-1.606-.846,4.429,4.429,0,0,0-2.832,1.425c-1.6,1.419-1.753,3.972-1.738,5.106a19.144,19.144,0,0,1-3.272-2.193,4.667,4.667,0,0,0-3.365-1.082c-.5.046-1.658.153-2.081,1.085a2.016,2.016,0,0,0,.537,2.165,5.4,5.4,0,0,0,4.282,1.519c.1,0,.206,0,.311,0a16.147,16.147,0,0,0,3.324-.468c-.264.529-.671,1.365-1.156,2.432a2.931,2.931,0,0,0,.191,2.761,4.248,4.248,0,0,0,1.026,1.208.321.321,0,0,0,.18.055.323.323,0,0,0,.271-.145.324.324,0,0,0-.087-.448c-.039-.031-1.77-1.44-.988-3.161.682-1.5,1.207-2.538,1.393-2.9a1.476,1.476,0,0,1,1.389.539c1.066,1.414,2.289,1.432,4.173.967a.325.325,0,0,0,.238-.394" transform="translate(-2416.221 4586.742)" fill="#8bb73f"/>
  <path id="path300" d="M2894.772-4280.005a.326.326,0,0,0-.393-.239c-1.686.416-2.64.413-3.5-.727a2.044,2.044,0,0,0-.321-.338c-.212.079-.485.18-.78.285a1.335,1.335,0,0,1,.582.446c1.066,1.414,2.289,1.431,4.173.967a.325.325,0,0,0,.238-.393" transform="translate(-2841.845 4288.476)" fill="#8bb73f"/>
  <path id="path302" d="M2759.963-4252.254a2.931,2.931,0,0,0,.19,2.761,4.267,4.267,0,0,0,1.026,1.208.319.319,0,0,0,.18.055.324.324,0,0,0,.271-.145.325.325,0,0,0-.087-.449c-.04-.03-1.77-1.44-.989-3.161.5-1.093.91-1.939,1.17-2.458a6.46,6.46,0,0,1-.831.213c-.249.508-.568,1.177-.931,1.976" transform="translate(-2714.82 4262.239)" fill="#8bb73f"/>
  <path id="path304" d="M2812.68-4292.843l-1.995.658q-.1.2-.225.456a6.3,6.3,0,0,0,.831-.213c.1-.193.172-.341.223-.439a1.675,1.675,0,0,1,.808.093c.295-.1.568-.206.78-.285a1.931,1.931,0,0,0-.421-.271" transform="translate(-2764.387 4299.738)" fill="#75a227"/>
  <path id="path306" d="M2584.5-4279.947a13.765,13.765,0,0,0,5.417-.283.118.118,0,0,0,.069-.175.118.118,0,0,0-.131-.052,14.475,14.475,0,0,1-5.32.274.116.116,0,0,0-.122.067l0,0a.117.117,0,0,0,.088.165" transform="translate(-2543.63 4287.647)" fill="#75a227"/>
  <path id="path308" d="M2465.063-4441.009a.114.114,0,0,1-.107-.153,1.659,1.659,0,0,1,1.216-1.031,4.378,4.378,0,0,1,3.91.891.114.114,0,0,1,0,.181.113.113,0,0,1-.14,0,4.415,4.415,0,0,0-3.674-.869,1.491,1.491,0,0,0-1.077.9.115.115,0,0,1-.109.082h-.019" transform="translate(-2426.982 4445.721)" fill="#75a227"/>
  <path id="path310" d="M2974.442-4579.23a.11.11,0,0,1-.05-.086c0-.07.069-.117.131-.148a2.287,2.287,0,0,1,1.355-.286,1.8,1.8,0,0,1,1.312,1.032.376.376,0,0,1,.043.155.126.126,0,0,1-.218.1.438.438,0,0,1-.073-.131,1.56,1.56,0,0,0-.887-.832,1.817,1.817,0,0,0-1.34.174.43.43,0,0,1-.187.054.164.164,0,0,1-.086-.029" transform="translate(-2924.474 4579.932)" fill="#75a227"/>
  <path id="path312" d="M2970.376-4225.567a.085.085,0,0,1,.045-.033.2.2,0,0,1,.125.017,3.065,3.065,0,0,0,2.052.012.392.392,0,0,1,.264-.031c.264.1-.058.252-.155.276a5.858,5.858,0,0,1-.7.128,3.68,3.68,0,0,1-1.432-.1.348.348,0,0,1-.2-.112.147.147,0,0,1,0-.162" transform="translate(-2920.53 4234.086)" fill="#75a227"/>
  <path id="path314" d="M2766.536-4144.594a.468.468,0,0,0-.057.188,3.364,3.364,0,0,0,.2,1.676.233.233,0,0,0,.063.1c.2.156.17-.224.142-.307a2.89,2.89,0,0,1-.1-1.486c.016-.081.03-.179-.033-.232a.152.152,0,0,0-.2.035.243.243,0,0,0-.018.024" transform="translate(-2721.409 4155.05)" fill="#75a227"/>
  <path id="path316" d="M2571.7-3996.912c-.076.753-.48,4.893-.426,6.667a.132.132,0,0,0,.132.128h.051a.133.133,0,0,0,.132-.125c.042-.773.271-4.936.375-6.647a.133.133,0,0,0-.132-.141.132.132,0,0,0-.132.119" transform="translate(-2530.806 4010.866)" fill="#75a227"/>
  <path id="path318" d="M2548.25-3117.513c-.039.768-.223,4.356-.289,5.848a.154.154,0,0,0,.154.161.154.154,0,0,0,.153-.142c.063-.788.363-4.636.3-5.867a.154.154,0,0,0-.154-.146h-.013a.154.154,0,0,0-.154.146" transform="translate(-2508.047 3152.126)" fill="#75a227"/>
  <path id="path320" d="M3155.566-2422.695a2.3,2.3,0,0,1,2.3-2.3,2.3,2.3,0,0,1,2.3,2.3,2.3,2.3,0,0,1-2.3,2.3,2.3,2.3,0,0,1-2.3-2.3" transform="translate(-3101.396 2475.711)" fill="#8bb73f"/>
  <path id="path322" d="M1244.677-2038.516h93.815s-6.591-31.039-46.116-31.039-47.7,31.039-47.7,31.039" transform="translate(-1235.339 2128.611)" fill="#60c8d2"/>
  <path id="path324" d="M2599.594-1255.882s.858-13.062,9.5-12.195,19.249,7.281,26.916,5.028,19.738,7.167,19.738,7.167h-56.157" transform="translate(-2558.468 1345.976)" fill="#8bb73f"/>
  <path id="path326" d="M1491.721-2057.145c7.551-.8,16.293-7.494,17.42-11.01-22.472.673-34.331,11.6-40.238,20.3,2.3,1.787,6.355,3.94,12.7,4.237,11.092.52,1.957-12.656,10.114-13.522" transform="translate(-1454.305 2127.243)" fill="#8bb73f"/>
  <path id="path328" d="M1257.917-1058.124c-8.156,1.213-10.012-4.407-10.012-4.407a35.315,35.315,0,0,0-3.222,7.413h25.01s-3.62-4.22-11.776-3.006" transform="translate(-1235.346 1145.213)" fill="#f8d010"/>
  <path id="path330" d="M3086.558-2058.783c-5.8,2.947-.458,6.415,6.578,5.548s15.355-8.148,21.391-1.214c3.7,4.246,8.614,4.267,12.247,3.048-6.225-7.477-17-15.048-35.268-15.768a9.417,9.417,0,0,1-4.948,8.385" transform="translate(-3031.599 2126.281)" fill="#f8d010"/>
</svg>
