<svg width="80" height="80" viewBox="0 0 80 80" fill="none" xmlns="http://www.w3.org/2000/svg">
<circle cx="40" cy="40" r="40" fill="#424242" fill-opacity="0.29"/>
<path d="M56 54.5767L53.7096 28.7853C53.6605 28.2127 53.1779 27.7791 52.6135 27.7791H47.9018C47.8364 23.4765 44.319 20 40 20C35.681 20 32.1636 23.4765 32.0982 27.7791H27.3865C26.8139 27.7791 26.3395 28.2127 26.2904 28.7853L24 54.5767C24 54.6094 23.9918 54.6421 23.9918 54.6748C23.9918 57.6115 26.683 60 29.9959 60H50.0041C53.317 60 56.0082 57.6115 56.0082 54.6748C56.0082 54.6421 56.0082 54.6094 56 54.5767ZM40 22.2086C43.1002 22.2086 45.6278 24.6953 45.6933 27.7791H34.3067C34.3722 24.6953 36.8998 22.2086 40 22.2086ZM50.0041 57.7914H29.9959C27.9182 57.7914 26.2331 56.4172 26.2004 54.7239L28.3926 29.9959H32.09V33.3497C32.09 33.9632 32.5808 34.454 33.1943 34.454C33.8078 34.454 34.2986 33.9632 34.2986 33.3497V29.9959H45.6933V33.3497C45.6933 33.9632 46.1841 34.454 46.7975 34.454C47.411 34.454 47.9018 33.9632 47.9018 33.3497V29.9959H51.5992L53.7996 54.7239C53.7669 56.4172 52.0736 57.7914 50.0041 57.7914Z" fill="white"/>
</svg>
