<svg width="176" height="32" viewBox="0 0 176 32" fill="none" xmlns="http://www.w3.org/2000/svg">
<path d="M7.76602 29.3333L9.93268 19.9667L2.66602 13.6667L12.266 12.8333L15.9993 4L19.7327 12.8333L29.3327 13.6667L22.066 19.9667L24.2327 29.3333L15.9993 24.3667L7.76602 29.3333Z" fill="#F8D010"/>
<path d="M43.766 29.3333L45.9327 19.9667L38.666 13.6667L48.266 12.8333L51.9993 4L55.7327 12.8333L65.3327 13.6667L58.066 19.9667L60.2327 29.3333L51.9993 24.3667L43.766 29.3333Z" fill="#F8D010"/>
<path d="M79.766 29.3333L81.9327 19.9667L74.666 13.6667L84.266 12.8333L87.9993 4L91.7327 12.8333L101.333 13.6667L94.066 19.9667L96.2327 29.3333L87.9993 24.3667L79.766 29.3333Z" fill="#F8D010"/>
<path d="M115.766 29.3333L117.933 19.9667L110.666 13.6667L120.266 12.8333L123.999 4L127.733 12.8333L137.333 13.6667L130.066 19.9667L132.233 29.3333L123.999 24.3667L115.766 29.3333Z" fill="#F8D010"/>
<path d="M151.766 29.3333L153.933 19.9667L146.666 13.6667L156.266 12.8333L159.999 4L163.733 12.8333L173.333 13.6667L166.066 19.9667L168.233 29.3333L159.999 24.3667L151.766 29.3333Z" fill="#F8D010"/>
</svg>
