<svg width="33" height="33" viewBox="0 0 33 33" fill="none" xmlns="http://www.w3.org/2000/svg">
<path d="M20.4005 16.5113C20.1738 16.3775 19.8874 16.4 19.6844 16.5673C18.7747 17.317 17.6227 17.73 16.4404 17.73C15.2581 17.73 14.1059 17.3171 13.1962 16.5673C12.9933 16.4 12.7068 16.3776 12.4802 16.5113C10.2016 17.8549 8.77136 20.2282 8.65443 22.8598C8.6412 23.1578 8.84141 23.4235 9.13209 23.4936C11.4472 24.0514 13.906 24.3343 16.4403 24.3343C18.9745 24.3343 21.4333 24.0514 23.7484 23.4935C24.0391 23.4234 24.2393 23.1578 24.2261 22.8598C24.1092 20.2282 22.679 17.855 20.4005 16.5113ZM16.4403 23.0872C14.1943 23.0872 12.0125 22.8566 9.9462 22.4014C10.1766 20.5359 11.1984 18.8678 12.7644 17.8073C13.8331 18.5644 15.1218 18.9771 16.4403 18.9771C17.7588 18.9771 19.0475 18.5645 20.1162 17.8073C21.6821 18.8679 22.7039 20.536 22.9342 22.4014C20.868 22.8567 18.6863 23.0872 16.4403 23.0872ZM16.4404 16.4914C18.5665 16.4914 20.2962 14.7657 20.2962 12.6445C20.2962 10.5233 18.5665 8.79758 16.4404 8.79758C14.3143 8.79758 12.5845 10.5233 12.5845 12.6445C12.5845 14.7657 14.3143 16.4914 16.4404 16.4914ZM16.4404 10.0447C17.8772 10.0447 19.0462 11.211 19.0462 12.6445C19.0462 14.078 17.8772 15.2443 16.4404 15.2443C15.0035 15.2443 13.8345 14.0781 13.8345 12.6445C13.8345 11.211 15.0035 10.0447 16.4404 10.0447ZM16.4403 3.26367C9.08824 3.26367 3.10693 9.23105 3.10693 16.566C3.10693 23.9008 9.08824 29.8682 16.4403 29.8682C23.7923 29.8682 29.7736 23.9008 29.7736 16.566C29.7736 9.23105 23.7923 3.26367 16.4403 3.26367ZM16.4403 28.6211C9.77751 28.6211 4.35693 23.2132 4.35693 16.566C4.35693 9.91872 9.77751 4.51076 16.4403 4.51076C23.103 4.51076 28.5236 9.91872 28.5236 16.566C28.5236 23.2132 23.103 28.6211 16.4403 28.6211Z" fill="black"/>
</svg>
