<svg width="49" height="49" viewBox="0 0 49 49" fill="none" xmlns="http://www.w3.org/2000/svg">
<path d="M32.4945 17.347C22.9622 13.0733 25.4533 16.3313 22.3578 18.559C22.1259 19.2055 17.334 25.1994 15.5818 25.0972C13.3917 24.9694 13.1377 27.7929 14.6013 27.1362C16.0649 26.4795 16.2521 29.2119 15.7301 31.8815C15.2081 34.5511 21.7255 40.8723 26.5448 34.8664C31.3641 28.8605 32.6185 27.3243 34.4812 29.9666C36.3439 32.6089 37.9396 32.2436 37.7836 29.9666C37.6277 27.6896 36.1485 27.86 39.6566 25.0972C42.4631 22.8869 33.9823 17.7645 32.4945 17.347Z" fill="#96D5DD"/>
<circle cx="24.1035" cy="24.9551" r="24" fill="#60C8D2"/>
<path d="M33.5524 15.1629C18.9213 12.4497 14.3653 20.7558 13.9161 25.248C14.4532 26.2974 15.0583 28.5253 13.182 29.0422C10.8367 29.6882 13.9421 33.9814 14.6264 32.4468C15.3107 30.9122 18.7493 34.9016 21.4031 39.0684C24.0569 43.2352 26.7474 35.2675 24.427 24.502C22.1067 13.7366 32.8928 25.8495 37.9022 29.0655C42.9116 32.2815 42.7606 30.3504 39.8951 27.0259C37.0296 23.7014 39.061 26.2109 39.2866 20.7658C39.467 16.4097 35.539 15.2155 33.5524 15.1629Z" fill="#96D5DD"/>
<path d="M5.65903 10.9145C-0.704577 19.199 0.606237 28.3241 2.0571 31.851C2.63241 32.2262 3.65681 33.3969 3.15188 35.0778C2.52072 37.179 5.20883 38.0795 4.90866 36.5036C4.6085 34.9277 7.30998 35.378 9.78635 36.5036C12.2627 37.6292 10.3867 30.05 5.65903 23.9717C0.931381 17.8934 9.26106 19.019 12.2627 17.8183C15.2644 16.6177 14.514 15.3419 12.2627 14.9667C10.0115 14.5915 11.6624 14.9667 9.78635 10.9145C8.28552 7.67268 6.40946 9.56373 5.65903 10.9145Z" fill="#96D5DD"/>
<path d="M19.7383 1.96836C16.0994 1.31421 20.3005 5.2733 22.8559 7.33462C23.4693 7.43683 24.7062 7.96833 24.7471 9.27667C24.7982 10.9121 31.1866 12.5986 29.3468 10.1966C27.5069 7.79457 30.5733 8.30564 33.1287 7.64125C35.684 6.97685 32.9243 3.80819 31.7488 2.53052C30.5733 1.25284 26.6892 1.7128 26.0759 1.96836C25.4626 2.22392 24.287 2.78606 19.7383 1.96836Z" fill="#96D5DD"/>
<path d="M12.938 31.944C12.0664 32.0009 11.7221 34.2099 11.6588 35.3073C11.4482 36.8761 13.2222 37.6523 13.9801 38.0076C14.7381 38.3629 16.8224 36.9417 17.2251 36.2785C17.6277 35.6153 17.083 33.8625 16.5856 32.7967C16.0882 31.7308 14.0275 31.8729 12.938 31.944Z" fill="#8BB73F"/>
<path d="M33.5093 31.944C32.6377 32.0009 32.2934 34.2099 32.2301 35.3073C32.0195 36.8761 33.7935 37.6523 34.5514 38.0076C35.3094 38.3629 37.3937 36.9417 37.7964 36.2785C38.199 35.6153 37.6542 33.8625 37.1568 32.7967C36.6594 31.7308 34.5988 31.8729 33.5093 31.944Z" fill="#8BB73F"/>
<path d="M7.04735 30.1495C7.21074 31.2934 8.78352 31.6814 9.54948 31.7325C9.6346 30.9154 10.2236 29.1588 11.8985 28.6686C13.5735 28.1784 15.388 30.5069 16.0859 31.7325H29.0054C29.1245 30.7452 29.9858 28.6482 32.4778 28.1579C35.5928 27.5451 35.1332 31.1197 35.9503 31.7325C36.6039 32.2227 37.5163 32.3453 37.8907 32.3453C37.9248 29.6218 37.9725 24.0931 37.8907 23.7663C37.7886 23.3578 36.1035 20.4981 35.1332 19.2215C34.163 17.9449 31.5587 18.4555 30.5884 18.4555C29.8122 18.4555 29.2097 18.2172 29.0054 18.0981V16.1065C29.0054 14.0639 28.2394 13.9618 26.8606 13.6043C25.4819 13.2469 9.95804 13.4002 9.19206 13.247C8.42608 13.0938 6.53671 13.7066 5.92396 15.596C5.31122 17.4854 6.63884 22.3365 6.53671 24.6856C6.43458 27.0346 6.8431 28.7197 7.04735 30.1495Z" fill="#8BB73F"/>
<path d="M34.6537 32.4907C34.3783 32.2378 34.0035 32.7016 33.8505 32.9651C33.8294 32.9651 33.7261 33.0759 33.4815 33.5186C33.1754 34.0722 34.1824 34.2301 34.2972 34.5717C34.4121 34.9132 35.164 33.9391 35.4698 33.7414C35.7756 33.5437 34.998 32.8069 34.6537 32.4907Z" stroke="#353535"/>
<path d="M31.5381 26.1151C31.4036 26.0842 31.4821 23.3291 31.5381 21.9554C32.3926 21.9037 34.1501 21.8005 34.3447 21.8005C34.5394 21.8005 36.1101 24.0579 36.871 25.1865L37.2829 26.1153C36.2349 26.1871 34.0264 26.3281 33.5773 26.3281C32.8942 26.2974 32.2134 26.2263 31.5381 26.1151Z" stroke="#353535"/>
<path d="M8.09668 27.2593C15.3193 26.8838 30.036 26.7493 30.7098 27.0609" stroke="#353535"/>
<path d="M8.64192 32.5197C7.69465 31.9807 7.81294 27.1911 7.99073 24.8632C7.75345 21.7402 7.33861 17.7073 7.57566 16.7761C7.81271 15.8449 8.78081 15.2042 9.23454 15.0001C14.6455 14.8979 25.9768 14.755 28.0149 15.0001C30.0529 15.2452 30.1677 16.2862 29.9698 16.7761L30.2661 19.6576C30.2661 19.6576 33.6404 19.5647 35.7046 20.1123C36.7616 20.3921 39.2714 25.2324 39.2714 25.2324L39.6263 30.0086C39.6263 30.8942 39.5404 32.2822 39.6263 33.1936C39.7622 34.6324 38.989 34.2682 37.9545 33.7393C37.7045 32.3406 37.7258 31.0523 36.9086 30.6132C31.7926 27.8631 30.9176 32.8868 31.1544 33.1936C31.344 33.4387 21.9914 33.2958 17.2914 33.1936V32.0908C13.5947 27.8279 11.643 31.0495 11.13 33.1931C10.2622 33.1651 9.41168 32.9349 8.64192 32.5197Z" stroke="#353535"/>
<path d="M11.8938 32.9288C11.8496 35.7467 13.7078 36.4134 14.6425 36.3945C17.3464 35.8491 17.5279 33.8577 17.2815 32.9286C16.9507 30.8379 15.2013 30.4097 14.3677 30.4576C12.2792 30.548 11.8482 32.1427 11.8938 32.9288Z" stroke="#353535"/>
<path d="M31.8923 33.6799C31.9518 35.2896 33.6391 35.963 34.4755 36.0985C37.4252 35.2625 37.4634 33.738 37.1145 33.0803C36.8145 30.9901 35.3174 30.4037 34.6063 30.3714C32.3307 30.3559 31.8487 32.5696 31.8923 33.6799Z" stroke="#353535"/>
<path d="M30.3691 19.5009L31.0141 33.2673" stroke="#353535"/>
<path d="M14.8338 32.7937C14.446 32.0664 13.9756 32.9737 13.7891 33.5184C13.7891 33.7817 14.0694 33.993 14.6558 34.1773C15.2421 34.3615 15.3185 33.7032 14.8338 32.7937Z" stroke="#353535"/>
</svg>
