<svg width="49" height="49" viewBox="0 0 49 49" fill="none" xmlns="http://www.w3.org/2000/svg">
<path d="M32.4945 17.347C22.9622 13.0733 25.4533 16.3313 22.3578 18.559C22.1259 19.2055 17.334 25.1994 15.5818 25.0972C13.3917 24.9694 13.1377 27.7929 14.6013 27.1362C16.0649 26.4795 16.2521 29.2119 15.7301 31.8815C15.2081 34.5511 21.7255 40.8723 26.5448 34.8664C31.3641 28.8605 32.6185 27.3243 34.4812 29.9666C36.3439 32.6089 37.9396 32.2436 37.7836 29.9666C37.6277 27.6896 36.1485 27.86 39.6566 25.0972C42.4631 22.8869 33.9823 17.7645 32.4945 17.347Z" fill="#96D5DD"/>
<circle cx="24.1035" cy="24.9551" r="24" fill="#60C8D2"/>
<path d="M33.5524 15.1629C18.9213 12.4497 14.3653 20.7558 13.9161 25.248C14.4532 26.2974 15.0583 28.5253 13.182 29.0422C10.8367 29.6882 13.9421 33.9814 14.6264 32.4468C15.3107 30.9122 18.7493 34.9016 21.4031 39.0684C24.0569 43.2352 26.7474 35.2675 24.427 24.502C22.1067 13.7366 32.8928 25.8495 37.9022 29.0655C42.9116 32.2815 42.7606 30.3504 39.8951 27.0259C37.0296 23.7014 39.061 26.2109 39.2866 20.7658C39.467 16.4097 35.539 15.2155 33.5524 15.1629Z" fill="#96D5DD"/>
<path d="M5.65903 10.9145C-0.704577 19.199 0.606237 28.3241 2.0571 31.851C2.63241 32.2262 3.65681 33.3969 3.15188 35.0778C2.52072 37.179 5.20883 38.0795 4.90866 36.5036C4.6085 34.9277 7.30998 35.378 9.78635 36.5036C12.2627 37.6292 10.3867 30.05 5.65903 23.9717C0.931381 17.8934 9.26106 19.019 12.2627 17.8183C15.2644 16.6177 14.514 15.3419 12.2627 14.9667C10.0115 14.5915 11.6624 14.9667 9.78635 10.9145C8.28552 7.67268 6.40946 9.56373 5.65903 10.9145Z" fill="#96D5DD"/>
<path d="M19.7383 1.96836C16.0994 1.31421 20.3005 5.2733 22.8559 7.33462C23.4693 7.43683 24.7062 7.96833 24.7471 9.27667C24.7982 10.9121 31.1866 12.5986 29.3468 10.1966C27.5069 7.79457 30.5733 8.30564 33.1287 7.64125C35.684 6.97685 32.9243 3.80819 31.7488 2.53052C30.5733 1.25284 26.6892 1.7128 26.0759 1.96836C25.4626 2.22392 24.287 2.78606 19.7383 1.96836Z" fill="#96D5DD"/>
<path d="M13.1318 40.4395H33.001C33.4265 40.4395 33.8462 40.4395 33.8862 40.0119C33.9262 39.5844 31.2203 8.35799 30.9496 7.13236C30.7333 6.15199 30.2825 5.94402 30.0839 5.96267C25.5573 5.94402 16.2441 5.87892 15.2047 5.76737C14.1653 5.65583 14.0187 6.2646 14.0748 6.5827C13.247 15.135 11.4372 33.2099 10.8206 37.0891C10.2041 40.9683 12.1044 40.9391 13.1318 40.4395Z" fill="#8BB73F"/>
<path d="M15.4766 17.0195C18.0174 15.3523 23.8099 11.0814 26.6556 7.33447" stroke="#353535"/>
<path d="M14.2314 25.1088C20.0052 20.1648 31.809 9.83257 32.8357 8.05518" stroke="#353535"/>
<path d="M13.5322 33.2747C19.9478 29.6503 33.0009 21.8658 33.8868 19.7041" stroke="#353535"/>
<path d="M12.7734 39.6995C19.8692 36.7567 34.154 30.3924 34.5276 28.4707" stroke="#353535"/>
<path d="M20.1211 41.7414C20.7636 41.5014 34.5283 38.9791 35.5779 36.9976" stroke="#353535"/>
<path d="M15.1337 41.7944H35.003C35.4285 41.7944 35.8482 41.7944 35.8882 41.3669C35.9282 40.9393 33.2223 9.71297 32.9516 8.48734C32.7352 7.50697 32.2844 7.299 32.0858 7.31765C27.5593 7.299 18.246 7.2339 17.2066 7.12236C16.1673 7.01081 16.0207 7.61958 16.0767 7.93768C15.2489 16.49 13.4392 34.5649 12.8226 38.4441C12.206 42.3233 14.1063 42.2941 15.1337 41.7944Z" stroke="#353535"/>
<path d="M21.9201 7.37105C21.7266 6.33931 21.5622 4.27441 22.4546 4.27441H26.3349C26.5611 4.84025 26.975 6.25168 26.8199 7.37105" stroke="#353535"/>
<path d="M21.5825 42.125C21.4693 43.2236 21.3111 45.4507 21.5825 45.5704C21.8539 45.69 24.8957 45.6203 26.3828 45.5704C26.5284 44.4218 26.7321 42.125 26.3828 42.125" stroke="#353535"/>
<path d="M16.8779 7.32129C21.8413 12.4311 32.2821 22.6605 34.3376 22.7006C36.9075 22.7506 37.8289 21.602 37.7322 20.104C37.6355 18.6061 41.3209 19.0054 41.3698 20.5534" stroke="#353535"/>
<path d="M15.2598 14.1143C20.488 19.4612 31.6343 29.8962 34.3931 28.863" stroke="#353535"/>
<path d="M14.5273 24.2344C20.6965 29.1862 33.4946 38.7674 35.3365 37.4749" stroke="#353535"/>
</svg>
